  0
SECTION
  2
HEADER
  9
$ANGBASE
  50
0.0
  9
$ANGDIR
  70
1
  9
$MEASUREMENT
  70
1
  0
ENDSEC
  0
SECTION
  2
TABLES
  0
TABLE
  2
LTYPE
  70
4
  0
LTYPE
  5
40F
  2
CONTINUOUS
  70
0
  3
Solid line
  72
65
  73
0
  40
0.0
  0
LTYPE
  5
410
  2
DASHDOT
 70
0
  3
Dash Dot ____ _ ____ _
 72
65
 73
4
 40
2.0
 49
1.25
 49
-0.25
 49
0.25
 49
-0.25
  0
LTYPE
  5
411
  2
DASHED
 70
0
  3
Dashed __ __ __ __ __
 72
65
 73
2
 40
0.75
 49
0.5
 49
-0.25
  0
LTYPE
  5
43B
  2
DOTTED
 70
0
  3
Dotted .  .  .  .
 72
65
 73
2
 40
0.2
 49
0.0
 49
-0.2
  0
ENDTAB
  0
TABLE
  2
STYLE
  70
4
  0
STYLE
  2
KICAD
  70
0
  40
0
  41
1
  42
1
  50
0
  71
0
  3
isocp.shx
  0
STYLE
  2
KICADB
  70
0
  40
0
  41
1
  42
1
  50
0
  71
0
  3
isocp.shx
  0
STYLE
  2
KICADI
  70
0
  40
0
  41
1
  42
1
  50
15
  71
0
  3
isocp.shx
  0
STYLE
  2
KICADBI
  70
0
  40
0
  41
1
  42
1
  50
15
  71
0
  3
isocp.shx
  0
ENDTAB
  0
TABLE
  2
LAYER
  70
1
  0
LAYER
  2
BLACK
  70
0
  62
7
  6
CONTINUOUS
  0
ENDTAB
  0
ENDSEC
  0
SECTION
  2
ENTITIES
0
LINE
8
BLACK
6
CONTINUOUS
10
140.495
20
-143.654
11
140.499
21
-143.657
0
LINE
8
BLACK
6
CONTINUOUS
10
140.499
20
-143.657
11
140.503
21
-143.657
0
LINE
8
BLACK
6
CONTINUOUS
10
140.503
20
-143.657
11
140.599
21
-143.705
0
LINE
8
BLACK
6
CONTINUOUS
10
140.599
20
-143.705
11
140.617
21
-143.718
0
LINE
8
BLACK
6
CONTINUOUS
10
140.617
20
-143.718
11
140.618
21
-143.719
0
LINE
8
BLACK
6
CONTINUOUS
10
140.618
20
-143.719
11
140.666
21
-143.767
0
LINE
8
BLACK
6
CONTINUOUS
10
140.666
20
-143.767
11
140.679
21
-143.785
0
LINE
8
BLACK
6
CONTINUOUS
10
140.679
20
-143.785
11
140.68
21
-143.786
0
LINE
8
BLACK
6
CONTINUOUS
10
140.68
20
-143.786
11
140.727
21
-143.881
0
LINE
8
BLACK
6
CONTINUOUS
10
140.727
20
-143.881
11
140.735
21
-143.906
0
LINE
8
BLACK
6
CONTINUOUS
10
140.735
20
-143.906
11
140.734
21
-143.911
0
LINE
8
BLACK
6
CONTINUOUS
10
140.734
20
-143.911
11
140.735
21
-143.915
0
LINE
8
BLACK
6
CONTINUOUS
10
140.735
20
-143.915
11
140.735
21
-144.01
0
LINE
8
BLACK
6
CONTINUOUS
10
140.735
20
-144.01
11
140.731
21
-144.032
0
LINE
8
BLACK
6
CONTINUOUS
10
140.731
20
-144.032
11
140.731
21
-144.034
0
LINE
8
BLACK
6
CONTINUOUS
10
140.731
20
-144.034
11
140.684
21
-144.177
0
LINE
8
BLACK
6
CONTINUOUS
10
140.684
20
-144.177
11
140.671
21
-144.2
0
LINE
8
BLACK
6
CONTINUOUS
10
140.671
20
-144.2
11
140.668
21
-144.202
0
LINE
8
BLACK
6
CONTINUOUS
10
140.668
20
-144.202
11
140.666
21
-144.206
0
LINE
8
BLACK
6
CONTINUOUS
10
140.666
20
-144.206
11
140.222
21
-144.649
0
LINE
8
BLACK
6
CONTINUOUS
10
140.222
20
-144.649
11
140.66
21
-144.649
0
LINE
8
BLACK
6
CONTINUOUS
10
140.66
20
-144.649
11
140.686
21
-144.654
0
LINE
8
BLACK
6
CONTINUOUS
10
140.686
20
-144.654
11
140.725
21
-144.687
0
LINE
8
BLACK
6
CONTINUOUS
10
140.725
20
-144.687
11
140.734
21
-144.737
0
LINE
8
BLACK
6
CONTINUOUS
10
140.734
20
-144.737
11
140.708
21
-144.782
0
LINE
8
BLACK
6
CONTINUOUS
10
140.708
20
-144.782
11
140.66
21
-144.799
0
LINE
8
BLACK
6
CONTINUOUS
10
140.66
20
-144.799
11
140.041
21
-144.799
0
LINE
8
BLACK
6
CONTINUOUS
10
140.041
20
-144.799
11
140.025
21
-144.797
0
LINE
8
BLACK
6
CONTINUOUS
10
140.025
20
-144.797
11
140.022
21
-144.797
0
LINE
8
BLACK
6
CONTINUOUS
10
140.022
20
-144.797
11
140.02
21
-144.796
0
LINE
8
BLACK
6
CONTINUOUS
10
140.02
20
-144.796
11
140.016
21
-144.795
0
LINE
8
BLACK
6
CONTINUOUS
10
140.016
20
-144.795
11
139.998
21
-144.78
0
LINE
8
BLACK
6
CONTINUOUS
10
139.998
20
-144.78
11
139.98
21
-144.767
0
LINE
8
BLACK
6
CONTINUOUS
10
139.98
20
-144.767
11
139.979
21
-144.764
0
LINE
8
BLACK
6
CONTINUOUS
10
139.979
20
-144.764
11
139.976
21
-144.762
0
LINE
8
BLACK
6
CONTINUOUS
10
139.976
20
-144.762
11
139.972
21
-144.74
0
LINE
8
BLACK
6
CONTINUOUS
10
139.972
20
-144.74
11
139.967
21
-144.718
0
LINE
8
BLACK
6
CONTINUOUS
10
139.967
20
-144.718
11
139.968
21
-144.715
0
LINE
8
BLACK
6
CONTINUOUS
10
139.968
20
-144.715
11
139.967
21
-144.711
0
LINE
8
BLACK
6
CONTINUOUS
10
139.967
20
-144.711
11
139.979
21
-144.692
0
LINE
8
BLACK
6
CONTINUOUS
10
139.979
20
-144.692
11
139.988
21
-144.671
0
LINE
8
BLACK
6
CONTINUOUS
10
139.988
20
-144.671
11
140.547
21
-144.112
0
LINE
8
BLACK
6
CONTINUOUS
10
140.547
20
-144.112
11
140.585
21
-143.998
0
LINE
8
BLACK
6
CONTINUOUS
10
140.585
20
-143.998
11
140.585
21
-143.933
0
LINE
8
BLACK
6
CONTINUOUS
10
140.585
20
-143.933
11
140.551
21
-143.864
0
LINE
8
BLACK
6
CONTINUOUS
10
140.551
20
-143.864
11
140.521
21
-143.834
0
LINE
8
BLACK
6
CONTINUOUS
10
140.521
20
-143.834
11
140.452
21
-143.799
0
LINE
8
BLACK
6
CONTINUOUS
10
140.452
20
-143.799
11
140.249
21
-143.799
0
LINE
8
BLACK
6
CONTINUOUS
10
140.249
20
-143.799
11
140.181
21
-143.834
0
LINE
8
BLACK
6
CONTINUOUS
10
140.181
20
-143.834
11
140.142
21
-143.873
0
LINE
8
BLACK
6
CONTINUOUS
10
140.142
20
-143.873
11
140.121
21
-143.888
0
LINE
8
BLACK
6
CONTINUOUS
10
140.121
20
-143.888
11
140.069
21
-143.892
0
LINE
8
BLACK
6
CONTINUOUS
10
140.069
20
-143.892
11
140.027
21
-143.863
0
LINE
8
BLACK
6
CONTINUOUS
10
140.027
20
-143.863
11
140.014
21
-143.813
0
LINE
8
BLACK
6
CONTINUOUS
10
140.014
20
-143.813
11
140.036
21
-143.767
0
LINE
8
BLACK
6
CONTINUOUS
10
140.036
20
-143.767
11
140.083
21
-143.719
0
LINE
8
BLACK
6
CONTINUOUS
10
140.083
20
-143.719
11
140.102
21
-143.706
0
LINE
8
BLACK
6
CONTINUOUS
10
140.102
20
-143.706
11
140.103
21
-143.705
0
LINE
8
BLACK
6
CONTINUOUS
10
140.103
20
-143.705
11
140.198
21
-143.657
0
LINE
8
BLACK
6
CONTINUOUS
10
140.198
20
-143.657
11
140.223
21
-143.65
0
LINE
8
BLACK
6
CONTINUOUS
10
140.223
20
-143.65
11
140.227
21
-143.651
0
LINE
8
BLACK
6
CONTINUOUS
10
140.227
20
-143.651
11
140.232
21
-143.649
0
LINE
8
BLACK
6
CONTINUOUS
10
140.232
20
-143.649
11
140.47
21
-143.649
0
LINE
8
BLACK
6
CONTINUOUS
10
140.47
20
-143.649
11
140.495
21
-143.654
0
LINE
8
BLACK
6
CONTINUOUS
10
139.176
20
-143.66
11
139.208
21
-143.701
0
LINE
8
BLACK
6
CONTINUOUS
10
139.208
20
-143.701
11
139.47
21
-144.487
0
LINE
8
BLACK
6
CONTINUOUS
10
139.47
20
-144.487
11
139.732
21
-143.701
0
LINE
8
BLACK
6
CONTINUOUS
10
139.732
20
-143.701
11
139.744
21
-143.678
0
LINE
8
BLACK
6
CONTINUOUS
10
139.744
20
-143.678
11
139.788
21
-143.651
0
LINE
8
BLACK
6
CONTINUOUS
10
139.788
20
-143.651
11
139.839
21
-143.658
0
LINE
8
BLACK
6
CONTINUOUS
10
139.839
20
-143.658
11
139.873
21
-143.697
0
LINE
8
BLACK
6
CONTINUOUS
10
139.873
20
-143.697
11
139.874
21
-143.748
0
LINE
8
BLACK
6
CONTINUOUS
10
139.874
20
-143.748
11
139.541
21
-144.748
0
LINE
8
BLACK
6
CONTINUOUS
10
139.541
20
-144.748
11
139.529
21
-144.771
0
LINE
8
BLACK
6
CONTINUOUS
10
139.529
20
-144.771
11
139.527
21
-144.772
0
LINE
8
BLACK
6
CONTINUOUS
10
139.527
20
-144.772
11
139.526
21
-144.774
0
LINE
8
BLACK
6
CONTINUOUS
10
139.526
20
-144.774
11
139.505
21
-144.785
0
LINE
8
BLACK
6
CONTINUOUS
10
139.505
20
-144.785
11
139.485
21
-144.798
0
LINE
8
BLACK
6
CONTINUOUS
10
139.485
20
-144.798
11
139.483
21
-144.798
0
LINE
8
BLACK
6
CONTINUOUS
10
139.483
20
-144.798
11
139.481
21
-144.799
0
LINE
8
BLACK
6
CONTINUOUS
10
139.481
20
-144.799
11
139.458
21
-144.794
0
LINE
8
BLACK
6
CONTINUOUS
10
139.458
20
-144.794
11
139.434
21
-144.79
0
LINE
8
BLACK
6
CONTINUOUS
10
139.434
20
-144.79
11
139.433
21
-144.789
0
LINE
8
BLACK
6
CONTINUOUS
10
139.433
20
-144.789
11
139.431
21
-144.788
0
LINE
8
BLACK
6
CONTINUOUS
10
139.431
20
-144.788
11
139.416
21
-144.77
0
LINE
8
BLACK
6
CONTINUOUS
10
139.416
20
-144.77
11
139.4
21
-144.752
0
LINE
8
BLACK
6
CONTINUOUS
10
139.4
20
-144.752
11
139.4
21
-144.75
0
LINE
8
BLACK
6
CONTINUOUS
10
139.4
20
-144.75
11
139.399
21
-144.748
0
LINE
8
BLACK
6
CONTINUOUS
10
139.399
20
-144.748
11
139.065
21
-143.748
0
LINE
8
BLACK
6
CONTINUOUS
10
139.065
20
-143.748
11
139.062
21
-143.722
0
LINE
8
BLACK
6
CONTINUOUS
10
139.062
20
-143.722
11
139.08
21
-143.675
0
LINE
8
BLACK
6
CONTINUOUS
10
139.08
20
-143.675
11
139.125
21
-143.65
0
LINE
8
BLACK
6
CONTINUOUS
10
139.125
20
-143.65
11
139.176
21
-143.66
0
LINE
8
BLACK
6
CONTINUOUS
10
138.686
20
-143.654
11
138.689
21
-143.657
0
LINE
8
BLACK
6
CONTINUOUS
10
138.689
20
-143.657
11
138.694
21
-143.657
0
LINE
8
BLACK
6
CONTINUOUS
10
138.694
20
-143.657
11
138.789
21
-143.705
0
LINE
8
BLACK
6
CONTINUOUS
10
138.789
20
-143.705
11
138.807
21
-143.718
0
LINE
8
BLACK
6
CONTINUOUS
10
138.807
20
-143.718
11
138.809
21
-143.719
0
LINE
8
BLACK
6
CONTINUOUS
10
138.809
20
-143.719
11
138.856
21
-143.767
0
LINE
8
BLACK
6
CONTINUOUS
10
138.856
20
-143.767
11
138.869
21
-143.785
0
LINE
8
BLACK
6
CONTINUOUS
10
138.869
20
-143.785
11
138.87
21
-143.786
0
LINE
8
BLACK
6
CONTINUOUS
10
138.87
20
-143.786
11
138.918
21
-143.881
0
LINE
8
BLACK
6
CONTINUOUS
10
138.918
20
-143.881
11
138.925
21
-143.906
0
LINE
8
BLACK
6
CONTINUOUS
10
138.925
20
-143.906
11
138.924
21
-143.911
0
LINE
8
BLACK
6
CONTINUOUS
10
138.924
20
-143.911
11
138.926
21
-143.915
0
LINE
8
BLACK
6
CONTINUOUS
10
138.926
20
-143.915
11
138.926
21
-144.058
0
LINE
8
BLACK
6
CONTINUOUS
10
138.926
20
-144.058
11
138.921
21
-144.083
0
LINE
8
BLACK
6
CONTINUOUS
10
138.921
20
-144.083
11
138.918
21
-144.087
0
LINE
8
BLACK
6
CONTINUOUS
10
138.918
20
-144.087
11
138.918
21
-144.091
0
LINE
8
BLACK
6
CONTINUOUS
10
138.918
20
-144.091
11
138.87
21
-144.186
0
LINE
8
BLACK
6
CONTINUOUS
10
138.87
20
-144.186
11
138.857
21
-144.205
0
LINE
8
BLACK
6
CONTINUOUS
10
138.857
20
-144.205
11
138.856
21
-144.206
0
LINE
8
BLACK
6
CONTINUOUS
10
138.856
20
-144.206
11
138.809
21
-144.254
0
LINE
8
BLACK
6
CONTINUOUS
10
138.809
20
-144.254
11
138.79
21
-144.266
0
LINE
8
BLACK
6
CONTINUOUS
10
138.79
20
-144.266
11
138.789
21
-144.268
0
LINE
8
BLACK
6
CONTINUOUS
10
138.789
20
-144.268
11
138.694
21
-144.315
0
LINE
8
BLACK
6
CONTINUOUS
10
138.694
20
-144.315
11
138.669
21
-144.323
0
LINE
8
BLACK
6
CONTINUOUS
10
138.669
20
-144.323
11
138.664
21
-144.322
0
LINE
8
BLACK
6
CONTINUOUS
10
138.664
20
-144.322
11
138.661
21
-144.323
0
LINE
8
BLACK
6
CONTINUOUS
10
138.661
20
-144.323
11
138.912
21
-144.681
0
LINE
8
BLACK
6
CONTINUOUS
10
138.912
20
-144.681
11
138.923
21
-144.705
0
LINE
8
BLACK
6
CONTINUOUS
10
138.923
20
-144.705
11
138.919
21
-144.756
0
LINE
8
BLACK
6
CONTINUOUS
10
138.919
20
-144.756
11
138.882
21
-144.792
0
LINE
8
BLACK
6
CONTINUOUS
10
138.882
20
-144.792
11
138.831
21
-144.797
0
LINE
8
BLACK
6
CONTINUOUS
10
138.831
20
-144.797
11
138.789
21
-144.767
0
LINE
8
BLACK
6
CONTINUOUS
10
138.789
20
-144.767
11
138.478
21
-144.323
0
LINE
8
BLACK
6
CONTINUOUS
10
138.478
20
-144.323
11
138.354
21
-144.323
0
LINE
8
BLACK
6
CONTINUOUS
10
138.354
20
-144.323
11
138.354
21
-144.724
0
LINE
8
BLACK
6
CONTINUOUS
10
138.354
20
-144.724
11
138.35
21
-144.75
0
LINE
8
BLACK
6
CONTINUOUS
10
138.35
20
-144.75
11
138.317
21
-144.789
0
LINE
8
BLACK
6
CONTINUOUS
10
138.317
20
-144.789
11
138.266
21
-144.798
0
LINE
8
BLACK
6
CONTINUOUS
10
138.266
20
-144.798
11
138.222
21
-144.773
0
LINE
8
BLACK
6
CONTINUOUS
10
138.222
20
-144.773
11
138.204
21
-144.724
0
LINE
8
BLACK
6
CONTINUOUS
10
138.204
20
-144.724
11
138.204
21
-143.724
0
LINE
8
BLACK
6
CONTINUOUS
10
138.204
20
-143.724
11
138.206
21
-143.715
0
LINE
8
BLACK
6
CONTINUOUS
10
138.206
20
-143.715
11
138.205
21
-143.711
0
LINE
8
BLACK
6
CONTINUOUS
10
138.205
20
-143.711
11
138.207
21
-143.708
0
LINE
8
BLACK
6
CONTINUOUS
10
138.207
20
-143.708
11
138.209
21
-143.699
0
LINE
8
BLACK
6
CONTINUOUS
10
138.209
20
-143.699
11
138.221
21
-143.684
0
LINE
8
BLACK
6
CONTINUOUS
10
138.221
20
-143.684
11
138.231
21
-143.667
0
LINE
8
BLACK
6
CONTINUOUS
10
138.231
20
-143.667
11
138.237
21
-143.665
0
LINE
8
BLACK
6
CONTINUOUS
10
138.237
20
-143.665
11
138.242
21
-143.659
0
LINE
8
BLACK
6
CONTINUOUS
10
138.242
20
-143.659
11
138.261
21
-143.656
0
LINE
8
BLACK
6
CONTINUOUS
10
138.261
20
-143.656
11
138.279
21
-143.649
0
LINE
8
BLACK
6
CONTINUOUS
10
138.279
20
-143.649
11
138.66
21
-143.649
0
LINE
8
BLACK
6
CONTINUOUS
10
138.66
20
-143.649
11
138.686
21
-143.654
0
LINE
8
BLACK
6
CONTINUOUS
10
138.354
20
-143.799
11
138.354
21
-144.173
0
LINE
8
BLACK
6
CONTINUOUS
10
138.354
20
-144.173
11
138.643
21
-144.173
0
LINE
8
BLACK
6
CONTINUOUS
10
138.643
20
-144.173
11
138.711
21
-144.139
0
LINE
8
BLACK
6
CONTINUOUS
10
138.711
20
-144.139
11
138.742
21
-144.109
0
LINE
8
BLACK
6
CONTINUOUS
10
138.742
20
-144.109
11
138.776
21
-144.04
0
LINE
8
BLACK
6
CONTINUOUS
10
138.776
20
-144.04
11
138.776
21
-143.933
0
LINE
8
BLACK
6
CONTINUOUS
10
138.776
20
-143.933
11
138.742
21
-143.864
0
LINE
8
BLACK
6
CONTINUOUS
10
138.742
20
-143.864
11
138.711
21
-143.834
0
LINE
8
BLACK
6
CONTINUOUS
10
138.711
20
-143.834
11
138.643
21
-143.799
0
LINE
8
BLACK
6
CONTINUOUS
10
138.643
20
-143.799
11
138.354
21
-143.799
0
LINE
8
BLACK
6
CONTINUOUS
10
148.118
20
-143.307
11
148.1
21
-143.265
0
LINE
8
BLACK
6
CONTINUOUS
10
148.1
20
-143.265
11
148.118
21
-143.223
0
LINE
8
BLACK
6
CONTINUOUS
10
148.118
20
-143.223
11
148.16
21
-143.205
0
LINE
8
BLACK
6
CONTINUOUS
10
148.16
20
-143.205
11
149.59
21
-143.205
0
LINE
8
BLACK
6
CONTINUOUS
10
149.59
20
-143.205
11
149.59
21
-138.545
0
LINE
8
BLACK
6
CONTINUOUS
10
149.59
20
-138.545
11
149.608
21
-138.503
0
LINE
8
BLACK
6
CONTINUOUS
10
149.608
20
-138.503
11
149.65
21
-138.485
0
LINE
8
BLACK
6
CONTINUOUS
10
149.65
20
-138.485
11
149.692
21
-138.503
0
LINE
8
BLACK
6
CONTINUOUS
10
149.692
20
-138.503
11
149.71
21
-138.545
0
LINE
8
BLACK
6
CONTINUOUS
10
149.71
20
-138.545
11
149.71
21
-143.265
0
LINE
8
BLACK
6
CONTINUOUS
10
149.71
20
-143.265
11
149.692
21
-143.307
0
LINE
8
BLACK
6
CONTINUOUS
10
149.692
20
-143.307
11
149.65
21
-143.325
0
LINE
8
BLACK
6
CONTINUOUS
10
149.65
20
-143.325
11
148.16
21
-143.325
0
LINE
8
BLACK
6
CONTINUOUS
10
148.16
20
-143.325
11
148.118
21
-143.307
0
LINE
8
BLACK
6
CONTINUOUS
10
144.032
20
-143.223
11
144.05
21
-143.265
0
LINE
8
BLACK
6
CONTINUOUS
10
144.05
20
-143.265
11
144.032
21
-143.307
0
LINE
8
BLACK
6
CONTINUOUS
10
144.032
20
-143.307
11
143.99
21
-143.325
0
LINE
8
BLACK
6
CONTINUOUS
10
143.99
20
-143.325
11
143.46
21
-143.325
0
LINE
8
BLACK
6
CONTINUOUS
10
143.46
20
-143.325
11
143.418
21
-143.307
0
LINE
8
BLACK
6
CONTINUOUS
10
143.418
20
-143.307
11
143.4
21
-143.265
0
LINE
8
BLACK
6
CONTINUOUS
10
143.4
20
-143.265
11
143.418
21
-143.223
0
LINE
8
BLACK
6
CONTINUOUS
10
143.418
20
-143.223
11
143.46
21
-143.205
0
LINE
8
BLACK
6
CONTINUOUS
10
143.46
20
-143.205
11
143.99
21
-143.205
0
LINE
8
BLACK
6
CONTINUOUS
10
143.99
20
-143.205
11
144.032
21
-143.223
0
LINE
8
BLACK
6
CONTINUOUS
10
146.482
20
-143.223
11
146.5
21
-143.265
0
LINE
8
BLACK
6
CONTINUOUS
10
146.5
20
-143.265
11
146.482
21
-143.307
0
LINE
8
BLACK
6
CONTINUOUS
10
146.482
20
-143.307
11
146.44
21
-143.325
0
LINE
8
BLACK
6
CONTINUOUS
10
146.44
20
-143.325
11
145.61
21
-143.325
0
LINE
8
BLACK
6
CONTINUOUS
10
145.61
20
-143.325
11
145.568
21
-143.307
0
LINE
8
BLACK
6
CONTINUOUS
10
145.568
20
-143.307
11
145.55
21
-143.265
0
LINE
8
BLACK
6
CONTINUOUS
10
145.55
20
-143.265
11
145.568
21
-143.223
0
LINE
8
BLACK
6
CONTINUOUS
10
145.568
20
-143.223
11
145.61
21
-143.205
0
LINE
8
BLACK
6
CONTINUOUS
10
145.61
20
-143.205
11
146.44
21
-143.205
0
LINE
8
BLACK
6
CONTINUOUS
10
146.44
20
-143.205
11
146.482
21
-143.223
0
LINE
8
BLACK
6
CONTINUOUS
10
139.942
20
-138.503
11
139.96
21
-138.545
0
LINE
8
BLACK
6
CONTINUOUS
10
139.96
20
-138.545
11
139.96
21
-143.205
0
LINE
8
BLACK
6
CONTINUOUS
10
139.96
20
-143.205
11
141.09
21
-143.205
0
LINE
8
BLACK
6
CONTINUOUS
10
141.09
20
-143.205
11
141.132
21
-143.223
0
LINE
8
BLACK
6
CONTINUOUS
10
141.132
20
-143.223
11
141.15
21
-143.265
0
LINE
8
BLACK
6
CONTINUOUS
10
141.15
20
-143.265
11
141.132
21
-143.307
0
LINE
8
BLACK
6
CONTINUOUS
10
141.132
20
-143.307
11
141.09
21
-143.325
0
LINE
8
BLACK
6
CONTINUOUS
10
141.09
20
-143.325
11
139.91
21
-143.325
0
LINE
8
BLACK
6
CONTINUOUS
10
139.91
20
-143.325
11
139.905
21
-143.323
0
LINE
8
BLACK
6
CONTINUOUS
10
139.905
20
-143.323
11
139.9
21
-143.325
0
LINE
8
BLACK
6
CONTINUOUS
10
139.9
20
-143.325
11
139.858
21
-143.307
0
LINE
8
BLACK
6
CONTINUOUS
10
139.858
20
-143.307
11
139.84
21
-143.265
0
LINE
8
BLACK
6
CONTINUOUS
10
139.84
20
-143.265
11
139.84
21
-138.545
0
LINE
8
BLACK
6
CONTINUOUS
10
139.84
20
-138.545
11
139.858
21
-138.503
0
LINE
8
BLACK
6
CONTINUOUS
10
139.858
20
-138.503
11
139.9
21
-138.485
0
LINE
8
BLACK
6
CONTINUOUS
10
139.9
20
-138.485
11
139.942
21
-138.503
0
LINE
8
BLACK
6
CONTINUOUS
10
149.692
20
-131.633
11
149.71
21
-131.675
0
LINE
8
BLACK
6
CONTINUOUS
10
149.71
20
-131.675
11
149.71
21
-134.735
0
LINE
8
BLACK
6
CONTINUOUS
10
149.71
20
-134.735
11
149.692
21
-134.777
0
LINE
8
BLACK
6
CONTINUOUS
10
149.692
20
-134.777
11
149.65
21
-134.795
0
LINE
8
BLACK
6
CONTINUOUS
10
149.65
20
-134.795
11
149.608
21
-134.777
0
LINE
8
BLACK
6
CONTINUOUS
10
149.608
20
-134.777
11
149.59
21
-134.735
0
LINE
8
BLACK
6
CONTINUOUS
10
149.59
20
-134.735
11
149.59
21
-131.735
0
LINE
8
BLACK
6
CONTINUOUS
10
149.59
20
-131.735
11
139.97
21
-131.735
0
LINE
8
BLACK
6
CONTINUOUS
10
139.97
20
-131.735
11
139.97
21
-134.735
0
LINE
8
BLACK
6
CONTINUOUS
10
139.97
20
-134.735
11
139.952
21
-134.777
0
LINE
8
BLACK
6
CONTINUOUS
10
139.952
20
-134.777
11
139.91
21
-134.795
0
LINE
8
BLACK
6
CONTINUOUS
10
139.91
20
-134.795
11
139.868
21
-134.777
0
LINE
8
BLACK
6
CONTINUOUS
10
139.868
20
-134.777
11
139.85
21
-134.735
0
LINE
8
BLACK
6
CONTINUOUS
10
139.85
20
-134.735
11
139.85
21
-131.675
0
LINE
8
BLACK
6
CONTINUOUS
10
139.85
20
-131.675
11
139.868
21
-131.633
0
LINE
8
BLACK
6
CONTINUOUS
10
139.868
20
-131.633
11
139.91
21
-131.615
0
LINE
8
BLACK
6
CONTINUOUS
10
139.91
20
-131.615
11
149.65
21
-131.615
0
LINE
8
BLACK
6
CONTINUOUS
10
149.65
20
-131.615
11
149.692
21
-131.633
0
LINE
8
BLACK
6
CONTINUOUS
10
64.4383
20
-114.952
11
64.4776
21
-114.985
0
LINE
8
BLACK
6
CONTINUOUS
10
64.4776
20
-114.985
11
64.4865
21
-115.035
0
LINE
8
BLACK
6
CONTINUOUS
10
64.4865
20
-115.035
11
64.4609
21
-115.08
0
LINE
8
BLACK
6
CONTINUOUS
10
64.4609
20
-115.08
11
64.4127
21
-115.097
0
LINE
8
BLACK
6
CONTINUOUS
10
64.4127
20
-115.097
11
64.0044
21
-115.097
0
LINE
8
BLACK
6
CONTINUOUS
10
64.0044
20
-115.097
11
63.9795
21
-115.346
0
LINE
8
BLACK
6
CONTINUOUS
10
63.9795
20
-115.346
11
63.9982
21
-115.336
0
LINE
8
BLACK
6
CONTINUOUS
10
63.9982
20
-115.336
11
64.0231
21
-115.329
0
LINE
8
BLACK
6
CONTINUOUS
10
64.0231
20
-115.329
11
64.0275
21
-115.33
0
LINE
8
BLACK
6
CONTINUOUS
10
64.0275
20
-115.33
11
64.0317
21
-115.328
0
LINE
8
BLACK
6
CONTINUOUS
10
64.0317
20
-115.328
11
64.2698
21
-115.328
0
LINE
8
BLACK
6
CONTINUOUS
10
64.2698
20
-115.328
11
64.2955
21
-115.333
0
LINE
8
BLACK
6
CONTINUOUS
10
64.2955
20
-115.333
11
64.2989
21
-115.336
0
LINE
8
BLACK
6
CONTINUOUS
10
64.2989
20
-115.336
11
64.3033
21
-115.336
0
LINE
8
BLACK
6
CONTINUOUS
10
64.3033
20
-115.336
11
64.3986
21
-115.384
0
LINE
8
BLACK
6
CONTINUOUS
10
64.3986
20
-115.384
11
64.4166
21
-115.397
0
LINE
8
BLACK
6
CONTINUOUS
10
64.4166
20
-115.397
11
64.4181
21
-115.398
0
LINE
8
BLACK
6
CONTINUOUS
10
64.4181
20
-115.398
11
64.4657
21
-115.446
0
LINE
8
BLACK
6
CONTINUOUS
10
64.4657
20
-115.446
11
64.4786
21
-115.464
0
LINE
8
BLACK
6
CONTINUOUS
10
64.4786
20
-115.464
11
64.4797
21
-115.465
0
LINE
8
BLACK
6
CONTINUOUS
10
64.4797
20
-115.465
11
64.5274
21
-115.56
0
LINE
8
BLACK
6
CONTINUOUS
10
64.5274
20
-115.56
11
64.5348
21
-115.585
0
LINE
8
BLACK
6
CONTINUOUS
10
64.5348
20
-115.585
11
64.5338
21
-115.59
0
LINE
8
BLACK
6
CONTINUOUS
10
64.5338
20
-115.59
11
64.5353
21
-115.594
0
LINE
8
BLACK
6
CONTINUOUS
10
64.5353
20
-115.594
11
64.5353
21
-115.832
0
LINE
8
BLACK
6
CONTINUOUS
10
64.5353
20
-115.832
11
64.5308
21
-115.858
0
LINE
8
BLACK
6
CONTINUOUS
10
64.5308
20
-115.858
11
64.5279
21
-115.861
0
LINE
8
BLACK
6
CONTINUOUS
10
64.5279
20
-115.861
11
64.5274
21
-115.865
0
LINE
8
BLACK
6
CONTINUOUS
10
64.5274
20
-115.865
11
64.4797
21
-115.961
0
LINE
8
BLACK
6
CONTINUOUS
10
64.4797
20
-115.961
11
64.4664
21
-115.979
0
LINE
8
BLACK
6
CONTINUOUS
10
64.4664
20
-115.979
11
64.4657
21
-115.98
0
LINE
8
BLACK
6
CONTINUOUS
10
64.4657
20
-115.98
11
64.4181
21
-116.028
0
LINE
8
BLACK
6
CONTINUOUS
10
64.4181
20
-116.028
11
64.3997
21
-116.041
0
LINE
8
BLACK
6
CONTINUOUS
10
64.3997
20
-116.041
11
64.3986
21
-116.042
0
LINE
8
BLACK
6
CONTINUOUS
10
64.3986
20
-116.042
11
64.3033
21
-116.089
0
LINE
8
BLACK
6
CONTINUOUS
10
64.3033
20
-116.089
11
64.2784
21
-116.097
0
LINE
8
BLACK
6
CONTINUOUS
10
64.2784
20
-116.097
11
64.274
21
-116.096
0
LINE
8
BLACK
6
CONTINUOUS
10
64.274
20
-116.096
11
64.2698
21
-116.097
0
LINE
8
BLACK
6
CONTINUOUS
10
64.2698
20
-116.097
11
64.0317
21
-116.097
0
LINE
8
BLACK
6
CONTINUOUS
10
64.0317
20
-116.097
11
64.0061
21
-116.093
0
LINE
8
BLACK
6
CONTINUOUS
10
64.0061
20
-116.093
11
64.0026
21
-116.09
0
LINE
8
BLACK
6
CONTINUOUS
10
64.0026
20
-116.09
11
63.9982
21
-116.089
0
LINE
8
BLACK
6
CONTINUOUS
10
63.9982
20
-116.089
11
63.9029
21
-116.042
0
LINE
8
BLACK
6
CONTINUOUS
10
63.9029
20
-116.042
11
63.8849
21
-116.028
0
LINE
8
BLACK
6
CONTINUOUS
10
63.8849
20
-116.028
11
63.8834
21
-116.028
0
LINE
8
BLACK
6
CONTINUOUS
10
63.8834
20
-116.028
11
63.8358
21
-115.98
0
LINE
8
BLACK
6
CONTINUOUS
10
63.8358
20
-115.98
11
63.8209
21
-115.959
0
LINE
8
BLACK
6
CONTINUOUS
10
63.8209
20
-115.959
11
63.8164
21
-115.908
0
LINE
8
BLACK
6
CONTINUOUS
10
63.8164
20
-115.908
11
63.8458
21
-115.866
0
LINE
8
BLACK
6
CONTINUOUS
10
63.8458
20
-115.866
11
63.8954
21
-115.852
0
LINE
8
BLACK
6
CONTINUOUS
10
63.8954
20
-115.852
11
63.9419
21
-115.874
0
LINE
8
BLACK
6
CONTINUOUS
10
63.9419
20
-115.874
11
63.9809
21
-115.913
0
LINE
8
BLACK
6
CONTINUOUS
10
63.9809
20
-115.913
11
64.0494
21
-115.947
0
LINE
8
BLACK
6
CONTINUOUS
10
64.0494
20
-115.947
11
64.2521
21
-115.947
0
LINE
8
BLACK
6
CONTINUOUS
10
64.2521
20
-115.947
11
64.3206
21
-115.913
0
LINE
8
BLACK
6
CONTINUOUS
10
64.3206
20
-115.913
11
64.351
21
-115.883
0
LINE
8
BLACK
6
CONTINUOUS
10
64.351
20
-115.883
11
64.3853
21
-115.814
0
LINE
8
BLACK
6
CONTINUOUS
10
64.3853
20
-115.814
11
64.3853
21
-115.612
0
LINE
8
BLACK
6
CONTINUOUS
10
64.3853
20
-115.612
11
64.351
21
-115.543
0
LINE
8
BLACK
6
CONTINUOUS
10
64.351
20
-115.543
11
64.3206
21
-115.513
0
LINE
8
BLACK
6
CONTINUOUS
10
64.3206
20
-115.513
11
64.2521
21
-115.478
0
LINE
8
BLACK
6
CONTINUOUS
10
64.2521
20
-115.478
11
64.0494
21
-115.478
0
LINE
8
BLACK
6
CONTINUOUS
10
64.0494
20
-115.478
11
63.9809
21
-115.513
0
LINE
8
BLACK
6
CONTINUOUS
10
63.9809
20
-115.513
11
63.9419
21
-115.552
0
LINE
8
BLACK
6
CONTINUOUS
10
63.9419
20
-115.552
11
63.9206
21
-115.567
0
LINE
8
BLACK
6
CONTINUOUS
10
63.9206
20
-115.567
11
63.9201
21
-115.567
0
LINE
8
BLACK
6
CONTINUOUS
10
63.9201
20
-115.567
11
63.9197
21
-115.567
0
LINE
8
BLACK
6
CONTINUOUS
10
63.9197
20
-115.567
11
63.8945
21
-115.569
0
LINE
8
BLACK
6
CONTINUOUS
10
63.8945
20
-115.569
11
63.8694
21
-115.571
0
LINE
8
BLACK
6
CONTINUOUS
10
63.8694
20
-115.571
11
63.869
21
-115.571
0
LINE
8
BLACK
6
CONTINUOUS
10
63.869
20
-115.571
11
63.8685
21
-115.571
0
LINE
8
BLACK
6
CONTINUOUS
10
63.8685
20
-115.571
11
63.8481
21
-115.556
0
LINE
8
BLACK
6
CONTINUOUS
10
63.8481
20
-115.556
11
63.8274
21
-115.542
0
LINE
8
BLACK
6
CONTINUOUS
10
63.8274
20
-115.542
11
63.8273
21
-115.541
0
LINE
8
BLACK
6
CONTINUOUS
10
63.8273
20
-115.541
11
63.8269
21
-115.541
0
LINE
8
BLACK
6
CONTINUOUS
10
63.8269
20
-115.541
11
63.8207
21
-115.516
0
LINE
8
BLACK
6
CONTINUOUS
10
63.8207
20
-115.516
11
63.8141
21
-115.492
0
LINE
8
BLACK
6
CONTINUOUS
10
63.8141
20
-115.492
11
63.8144
21
-115.492
0
LINE
8
BLACK
6
CONTINUOUS
10
63.8144
20
-115.492
11
63.8142
21
-115.491
0
LINE
8
BLACK
6
CONTINUOUS
10
63.8142
20
-115.491
11
63.8618
21
-115.015
0
LINE
8
BLACK
6
CONTINUOUS
10
63.8618
20
-115.015
11
63.8629
21
-115.011
0
LINE
8
BLACK
6
CONTINUOUS
10
63.8629
20
-115.011
11
63.8626
21
-115.009
0
LINE
8
BLACK
6
CONTINUOUS
10
63.8626
20
-115.009
11
63.8642
21
-115.007
0
LINE
8
BLACK
6
CONTINUOUS
10
63.8642
20
-115.007
11
63.8689
21
-114.99
0
LINE
8
BLACK
6
CONTINUOUS
10
63.8689
20
-114.99
11
63.8803
21
-114.979
0
LINE
8
BLACK
6
CONTINUOUS
10
63.8803
20
-114.979
11
63.8883
21
-114.965
0
LINE
8
BLACK
6
CONTINUOUS
10
63.8883
20
-114.965
11
63.8981
21
-114.961
0
LINE
8
BLACK
6
CONTINUOUS
10
63.8981
20
-114.961
11
63.9056
21
-114.954
0
LINE
8
BLACK
6
CONTINUOUS
10
63.9056
20
-114.954
11
63.9215
21
-114.953
0
LINE
8
BLACK
6
CONTINUOUS
10
63.9215
20
-114.953
11
63.9365
21
-114.947
0
LINE
8
BLACK
6
CONTINUOUS
10
63.9365
20
-114.947
11
64.4127
21
-114.947
0
LINE
8
BLACK
6
CONTINUOUS
10
64.4127
20
-114.947
11
64.4383
21
-114.952
0
LINE
8
BLACK
6
CONTINUOUS
10
216.791
20
-114.952
11
216.83
21
-114.985
0
LINE
8
BLACK
6
CONTINUOUS
10
216.83
20
-114.985
11
216.839
21
-115.035
0
LINE
8
BLACK
6
CONTINUOUS
10
216.839
20
-115.035
11
216.813
21
-115.08
0
LINE
8
BLACK
6
CONTINUOUS
10
216.813
20
-115.08
11
216.765
21
-115.097
0
LINE
8
BLACK
6
CONTINUOUS
10
216.765
20
-115.097
11
216.592
21
-115.097
0
LINE
8
BLACK
6
CONTINUOUS
10
216.592
20
-115.097
11
216.524
21
-115.132
0
LINE
8
BLACK
6
CONTINUOUS
10
216.524
20
-115.132
11
216.49
21
-115.165
0
LINE
8
BLACK
6
CONTINUOUS
10
216.49
20
-115.165
11
216.406
21
-115.291
0
LINE
8
BLACK
6
CONTINUOUS
10
216.406
20
-115.291
11
216.388
21
-115.365
0
LINE
8
BLACK
6
CONTINUOUS
10
216.388
20
-115.365
11
216.446
21
-115.336
0
LINE
8
BLACK
6
CONTINUOUS
10
216.446
20
-115.336
11
216.471
21
-115.329
0
LINE
8
BLACK
6
CONTINUOUS
10
216.471
20
-115.329
11
216.475
21
-115.33
0
LINE
8
BLACK
6
CONTINUOUS
10
216.475
20
-115.33
11
216.479
21
-115.328
0
LINE
8
BLACK
6
CONTINUOUS
10
216.479
20
-115.328
11
216.67
21
-115.328
0
LINE
8
BLACK
6
CONTINUOUS
10
216.67
20
-115.328
11
216.695
21
-115.333
0
LINE
8
BLACK
6
CONTINUOUS
10
216.695
20
-115.333
11
216.699
21
-115.336
0
LINE
8
BLACK
6
CONTINUOUS
10
216.699
20
-115.336
11
216.703
21
-115.336
0
LINE
8
BLACK
6
CONTINUOUS
10
216.703
20
-115.336
11
216.799
21
-115.384
0
LINE
8
BLACK
6
CONTINUOUS
10
216.799
20
-115.384
11
216.817
21
-115.397
0
LINE
8
BLACK
6
CONTINUOUS
10
216.817
20
-115.397
11
216.818
21
-115.398
0
LINE
8
BLACK
6
CONTINUOUS
10
216.818
20
-115.398
11
216.866
21
-115.446
0
LINE
8
BLACK
6
CONTINUOUS
10
216.866
20
-115.446
11
216.879
21
-115.464
0
LINE
8
BLACK
6
CONTINUOUS
10
216.879
20
-115.464
11
216.88
21
-115.465
0
LINE
8
BLACK
6
CONTINUOUS
10
216.88
20
-115.465
11
216.927
21
-115.56
0
LINE
8
BLACK
6
CONTINUOUS
10
216.927
20
-115.56
11
216.935
21
-115.585
0
LINE
8
BLACK
6
CONTINUOUS
10
216.935
20
-115.585
11
216.934
21
-115.59
0
LINE
8
BLACK
6
CONTINUOUS
10
216.934
20
-115.59
11
216.935
21
-115.594
0
LINE
8
BLACK
6
CONTINUOUS
10
216.935
20
-115.594
11
216.935
21
-115.832
0
LINE
8
BLACK
6
CONTINUOUS
10
216.935
20
-115.832
11
216.931
21
-115.858
0
LINE
8
BLACK
6
CONTINUOUS
10
216.931
20
-115.858
11
216.928
21
-115.861
0
LINE
8
BLACK
6
CONTINUOUS
10
216.928
20
-115.861
11
216.927
21
-115.865
0
LINE
8
BLACK
6
CONTINUOUS
10
216.927
20
-115.865
11
216.88
21
-115.961
0
LINE
8
BLACK
6
CONTINUOUS
10
216.88
20
-115.961
11
216.866
21
-115.979
0
LINE
8
BLACK
6
CONTINUOUS
10
216.866
20
-115.979
11
216.866
21
-115.98
0
LINE
8
BLACK
6
CONTINUOUS
10
216.866
20
-115.98
11
216.818
21
-116.028
0
LINE
8
BLACK
6
CONTINUOUS
10
216.818
20
-116.028
11
216.8
21
-116.041
0
LINE
8
BLACK
6
CONTINUOUS
10
216.8
20
-116.041
11
216.799
21
-116.042
0
LINE
8
BLACK
6
CONTINUOUS
10
216.799
20
-116.042
11
216.703
21
-116.089
0
LINE
8
BLACK
6
CONTINUOUS
10
216.703
20
-116.089
11
216.678
21
-116.097
0
LINE
8
BLACK
6
CONTINUOUS
10
216.678
20
-116.097
11
216.674
21
-116.096
0
LINE
8
BLACK
6
CONTINUOUS
10
216.674
20
-116.096
11
216.67
21
-116.097
0
LINE
8
BLACK
6
CONTINUOUS
10
216.67
20
-116.097
11
216.479
21
-116.097
0
LINE
8
BLACK
6
CONTINUOUS
10
216.479
20
-116.097
11
216.454
21
-116.093
0
LINE
8
BLACK
6
CONTINUOUS
10
216.454
20
-116.093
11
216.45
21
-116.09
0
LINE
8
BLACK
6
CONTINUOUS
10
216.45
20
-116.09
11
216.446
21
-116.089
0
LINE
8
BLACK
6
CONTINUOUS
10
216.446
20
-116.089
11
216.351
21
-116.042
0
LINE
8
BLACK
6
CONTINUOUS
10
216.351
20
-116.042
11
216.333
21
-116.028
0
LINE
8
BLACK
6
CONTINUOUS
10
216.333
20
-116.028
11
216.331
21
-116.028
0
LINE
8
BLACK
6
CONTINUOUS
10
216.331
20
-116.028
11
216.283
21
-115.98
0
LINE
8
BLACK
6
CONTINUOUS
10
216.283
20
-115.98
11
216.271
21
-115.962
0
LINE
8
BLACK
6
CONTINUOUS
10
216.271
20
-115.962
11
216.269
21
-115.961
0
LINE
8
BLACK
6
CONTINUOUS
10
216.269
20
-115.961
11
216.222
21
-115.865
0
LINE
8
BLACK
6
CONTINUOUS
10
216.222
20
-115.865
11
216.214
21
-115.84
0
LINE
8
BLACK
6
CONTINUOUS
10
216.214
20
-115.84
11
216.215
21
-115.836
0
LINE
8
BLACK
6
CONTINUOUS
10
216.215
20
-115.836
11
216.214
21
-115.832
0
LINE
8
BLACK
6
CONTINUOUS
10
216.214
20
-115.832
11
216.214
21
-115.451
0
LINE
8
BLACK
6
CONTINUOUS
10
216.214
20
-115.451
11
216.216
21
-115.436
0
LINE
8
BLACK
6
CONTINUOUS
10
216.216
20
-115.436
11
216.216
21
-115.433
0
LINE
8
BLACK
6
CONTINUOUS
10
216.216
20
-115.433
11
216.264
21
-115.242
0
LINE
8
BLACK
6
CONTINUOUS
10
216.264
20
-115.242
11
216.274
21
-115.219
0
LINE
8
BLACK
6
CONTINUOUS
10
216.274
20
-115.219
11
216.274
21
-115.219
0
LINE
8
BLACK
6
CONTINUOUS
10
216.274
20
-115.219
11
216.369
21
-115.076
0
LINE
8
BLACK
6
CONTINUOUS
10
216.369
20
-115.076
11
216.377
21
-115.068
0
LINE
8
BLACK
6
CONTINUOUS
10
216.377
20
-115.068
11
216.379
21
-115.065
0
LINE
8
BLACK
6
CONTINUOUS
10
216.379
20
-115.065
11
216.426
21
-115.017
0
LINE
8
BLACK
6
CONTINUOUS
10
216.426
20
-115.017
11
216.445
21
-115.004
0
LINE
8
BLACK
6
CONTINUOUS
10
216.445
20
-115.004
11
216.446
21
-115.003
0
LINE
8
BLACK
6
CONTINUOUS
10
216.446
20
-115.003
11
216.541
21
-114.955
0
LINE
8
BLACK
6
CONTINUOUS
10
216.541
20
-114.955
11
216.566
21
-114.948
0
LINE
8
BLACK
6
CONTINUOUS
10
216.566
20
-114.948
11
216.57
21
-114.949
0
LINE
8
BLACK
6
CONTINUOUS
10
216.57
20
-114.949
11
216.575
21
-114.947
0
LINE
8
BLACK
6
CONTINUOUS
10
216.575
20
-114.947
11
216.765
21
-114.947
0
LINE
8
BLACK
6
CONTINUOUS
10
216.765
20
-114.947
11
216.791
21
-114.952
0
LINE
8
BLACK
6
CONTINUOUS
10
216.497
20
-115.478
11
216.429
21
-115.513
0
LINE
8
BLACK
6
CONTINUOUS
10
216.429
20
-115.513
11
216.398
21
-115.543
0
LINE
8
BLACK
6
CONTINUOUS
10
216.398
20
-115.543
11
216.364
21
-115.612
0
LINE
8
BLACK
6
CONTINUOUS
10
216.364
20
-115.612
11
216.364
21
-115.814
0
LINE
8
BLACK
6
CONTINUOUS
10
216.364
20
-115.814
11
216.398
21
-115.883
0
LINE
8
BLACK
6
CONTINUOUS
10
216.398
20
-115.883
11
216.429
21
-115.913
0
LINE
8
BLACK
6
CONTINUOUS
10
216.429
20
-115.913
11
216.497
21
-115.947
0
LINE
8
BLACK
6
CONTINUOUS
10
216.497
20
-115.947
11
216.652
21
-115.947
0
LINE
8
BLACK
6
CONTINUOUS
10
216.652
20
-115.947
11
216.721
21
-115.913
0
LINE
8
BLACK
6
CONTINUOUS
10
216.721
20
-115.913
11
216.751
21
-115.883
0
LINE
8
BLACK
6
CONTINUOUS
10
216.751
20
-115.883
11
216.785
21
-115.814
0
LINE
8
BLACK
6
CONTINUOUS
10
216.785
20
-115.814
11
216.785
21
-115.612
0
LINE
8
BLACK
6
CONTINUOUS
10
216.785
20
-115.612
11
216.751
21
-115.543
0
LINE
8
BLACK
6
CONTINUOUS
10
216.751
20
-115.543
11
216.721
21
-115.513
0
LINE
8
BLACK
6
CONTINUOUS
10
216.721
20
-115.513
11
216.652
21
-115.478
0
LINE
8
BLACK
6
CONTINUOUS
10
216.652
20
-115.478
11
216.497
21
-115.478
0
LINE
8
BLACK
6
CONTINUOUS
10
62.9757
20
-114.958
11
63.0076
21
-114.999
0
LINE
8
BLACK
6
CONTINUOUS
10
63.0076
20
-114.999
11
63.2698
21
-115.785
0
LINE
8
BLACK
6
CONTINUOUS
10
63.2698
20
-115.785
11
63.532
21
-114.999
0
LINE
8
BLACK
6
CONTINUOUS
10
63.532
20
-114.999
11
63.5444
21
-114.976
0
LINE
8
BLACK
6
CONTINUOUS
10
63.5444
20
-114.976
11
63.5881
21
-114.949
0
LINE
8
BLACK
6
CONTINUOUS
10
63.5881
20
-114.949
11
63.6389
21
-114.956
0
LINE
8
BLACK
6
CONTINUOUS
10
63.6389
20
-114.956
11
63.6729
21
-114.995
0
LINE
8
BLACK
6
CONTINUOUS
10
63.6729
20
-114.995
11
63.6743
21
-115.046
0
LINE
8
BLACK
6
CONTINUOUS
10
63.6743
20
-115.046
11
63.341
21
-116.046
0
LINE
8
BLACK
6
CONTINUOUS
10
63.341
20
-116.046
11
63.3286
21
-116.069
0
LINE
8
BLACK
6
CONTINUOUS
10
63.3286
20
-116.069
11
63.3267
21
-116.07
0
LINE
8
BLACK
6
CONTINUOUS
10
63.3267
20
-116.07
11
63.3259
21
-116.072
0
LINE
8
BLACK
6
CONTINUOUS
10
63.3259
20
-116.072
11
63.3051
21
-116.083
0
LINE
8
BLACK
6
CONTINUOUS
10
63.3051
20
-116.083
11
63.2848
21
-116.096
0
LINE
8
BLACK
6
CONTINUOUS
10
63.2848
20
-116.096
11
63.2827
21
-116.096
0
LINE
8
BLACK
6
CONTINUOUS
10
63.2827
20
-116.096
11
63.2808
21
-116.097
0
LINE
8
BLACK
6
CONTINUOUS
10
63.2808
20
-116.097
11
63.2576
21
-116.092
0
LINE
8
BLACK
6
CONTINUOUS
10
63.2576
20
-116.092
11
63.2341
21
-116.088
0
LINE
8
BLACK
6
CONTINUOUS
10
63.2341
20
-116.088
11
63.2327
21
-116.087
0
LINE
8
BLACK
6
CONTINUOUS
10
63.2327
20
-116.087
11
63.2305
21
-116.086
0
LINE
8
BLACK
6
CONTINUOUS
10
63.2305
20
-116.086
11
63.2158
21
-116.068
0
LINE
8
BLACK
6
CONTINUOUS
10
63.2158
20
-116.068
11
63.2001
21
-116.05
0
LINE
8
BLACK
6
CONTINUOUS
10
63.2001
20
-116.05
11
63.2
21
-116.048
0
LINE
8
BLACK
6
CONTINUOUS
10
63.2
20
-116.048
11
63.1987
21
-116.046
0
LINE
8
BLACK
6
CONTINUOUS
10
63.1987
20
-116.046
11
62.8653
21
-115.046
0
LINE
8
BLACK
6
CONTINUOUS
10
62.8653
20
-115.046
11
62.8615
21
-115.02
0
LINE
8
BLACK
6
CONTINUOUS
10
62.8615
20
-115.02
11
62.8804
21
-114.973
0
LINE
8
BLACK
6
CONTINUOUS
10
62.8804
20
-114.973
11
62.9255
21
-114.948
0
LINE
8
BLACK
6
CONTINUOUS
10
62.9255
20
-114.948
11
62.9757
21
-114.958
0
LINE
8
BLACK
6
CONTINUOUS
10
215.376
20
-114.958
11
215.408
21
-114.999
0
LINE
8
BLACK
6
CONTINUOUS
10
215.408
20
-114.999
11
215.67
21
-115.785
0
LINE
8
BLACK
6
CONTINUOUS
10
215.67
20
-115.785
11
215.932
21
-114.999
0
LINE
8
BLACK
6
CONTINUOUS
10
215.932
20
-114.999
11
215.944
21
-114.976
0
LINE
8
BLACK
6
CONTINUOUS
10
215.944
20
-114.976
11
215.988
21
-114.949
0
LINE
8
BLACK
6
CONTINUOUS
10
215.988
20
-114.949
11
216.039
21
-114.956
0
LINE
8
BLACK
6
CONTINUOUS
10
216.039
20
-114.956
11
216.073
21
-114.995
0
LINE
8
BLACK
6
CONTINUOUS
10
216.073
20
-114.995
11
216.074
21
-115.046
0
LINE
8
BLACK
6
CONTINUOUS
10
216.074
20
-115.046
11
215.741
21
-116.046
0
LINE
8
BLACK
6
CONTINUOUS
10
215.741
20
-116.046
11
215.729
21
-116.069
0
LINE
8
BLACK
6
CONTINUOUS
10
215.729
20
-116.069
11
215.727
21
-116.07
0
LINE
8
BLACK
6
CONTINUOUS
10
215.727
20
-116.07
11
215.726
21
-116.072
0
LINE
8
BLACK
6
CONTINUOUS
10
215.726
20
-116.072
11
215.705
21
-116.083
0
LINE
8
BLACK
6
CONTINUOUS
10
215.705
20
-116.083
11
215.685
21
-116.096
0
LINE
8
BLACK
6
CONTINUOUS
10
215.685
20
-116.096
11
215.683
21
-116.096
0
LINE
8
BLACK
6
CONTINUOUS
10
215.683
20
-116.096
11
215.681
21
-116.097
0
LINE
8
BLACK
6
CONTINUOUS
10
215.681
20
-116.097
11
215.658
21
-116.092
0
LINE
8
BLACK
6
CONTINUOUS
10
215.658
20
-116.092
11
215.634
21
-116.088
0
LINE
8
BLACK
6
CONTINUOUS
10
215.634
20
-116.088
11
215.633
21
-116.087
0
LINE
8
BLACK
6
CONTINUOUS
10
215.633
20
-116.087
11
215.631
21
-116.086
0
LINE
8
BLACK
6
CONTINUOUS
10
215.631
20
-116.086
11
215.616
21
-116.068
0
LINE
8
BLACK
6
CONTINUOUS
10
215.616
20
-116.068
11
215.6
21
-116.05
0
LINE
8
BLACK
6
CONTINUOUS
10
215.6
20
-116.05
11
215.6
21
-116.048
0
LINE
8
BLACK
6
CONTINUOUS
10
215.6
20
-116.048
11
215.599
21
-116.046
0
LINE
8
BLACK
6
CONTINUOUS
10
215.599
20
-116.046
11
215.265
21
-115.046
0
LINE
8
BLACK
6
CONTINUOUS
10
215.265
20
-115.046
11
215.262
21
-115.02
0
LINE
8
BLACK
6
CONTINUOUS
10
215.262
20
-115.02
11
215.28
21
-114.973
0
LINE
8
BLACK
6
CONTINUOUS
10
215.28
20
-114.973
11
215.325
21
-114.948
0
LINE
8
BLACK
6
CONTINUOUS
10
215.325
20
-114.948
11
215.376
21
-114.958
0
LINE
8
BLACK
6
CONTINUOUS
10
62.4859
20
-114.952
11
62.4894
21
-114.955
0
LINE
8
BLACK
6
CONTINUOUS
10
62.4894
20
-114.955
11
62.4938
21
-114.955
0
LINE
8
BLACK
6
CONTINUOUS
10
62.4938
20
-114.955
11
62.5891
21
-115.003
0
LINE
8
BLACK
6
CONTINUOUS
10
62.5891
20
-115.003
11
62.6071
21
-115.016
0
LINE
8
BLACK
6
CONTINUOUS
10
62.6071
20
-115.016
11
62.6086
21
-115.017
0
LINE
8
BLACK
6
CONTINUOUS
10
62.6086
20
-115.017
11
62.6562
21
-115.065
0
LINE
8
BLACK
6
CONTINUOUS
10
62.6562
20
-115.065
11
62.669
21
-115.083
0
LINE
8
BLACK
6
CONTINUOUS
10
62.669
20
-115.083
11
62.6702
21
-115.084
0
LINE
8
BLACK
6
CONTINUOUS
10
62.6702
20
-115.084
11
62.7178
21
-115.179
0
LINE
8
BLACK
6
CONTINUOUS
10
62.7178
20
-115.179
11
62.7253
21
-115.204
0
LINE
8
BLACK
6
CONTINUOUS
10
62.7253
20
-115.204
11
62.7242
21
-115.209
0
LINE
8
BLACK
6
CONTINUOUS
10
62.7242
20
-115.209
11
62.7258
21
-115.213
0
LINE
8
BLACK
6
CONTINUOUS
10
62.7258
20
-115.213
11
62.7258
21
-115.356
0
LINE
8
BLACK
6
CONTINUOUS
10
62.7258
20
-115.356
11
62.7212
21
-115.381
0
LINE
8
BLACK
6
CONTINUOUS
10
62.7212
20
-115.381
11
62.7184
21
-115.385
0
LINE
8
BLACK
6
CONTINUOUS
10
62.7184
20
-115.385
11
62.7178
21
-115.389
0
LINE
8
BLACK
6
CONTINUOUS
10
62.7178
20
-115.389
11
62.6702
21
-115.484
0
LINE
8
BLACK
6
CONTINUOUS
10
62.6702
20
-115.484
11
62.6569
21
-115.503
0
LINE
8
BLACK
6
CONTINUOUS
10
62.6569
20
-115.503
11
62.6562
21
-115.504
0
LINE
8
BLACK
6
CONTINUOUS
10
62.6562
20
-115.504
11
62.6086
21
-115.552
0
LINE
8
BLACK
6
CONTINUOUS
10
62.6086
20
-115.552
11
62.5902
21
-115.564
0
LINE
8
BLACK
6
CONTINUOUS
10
62.5902
20
-115.564
11
62.5891
21
-115.566
0
LINE
8
BLACK
6
CONTINUOUS
10
62.5891
20
-115.566
11
62.4938
21
-115.613
0
LINE
8
BLACK
6
CONTINUOUS
10
62.4938
20
-115.613
11
62.4689
21
-115.621
0
LINE
8
BLACK
6
CONTINUOUS
10
62.4689
20
-115.621
11
62.4645
21
-115.62
0
LINE
8
BLACK
6
CONTINUOUS
10
62.4645
20
-115.62
11
62.4612
21
-115.621
0
LINE
8
BLACK
6
CONTINUOUS
10
62.4612
20
-115.621
11
62.7122
21
-115.979
0
LINE
8
BLACK
6
CONTINUOUS
10
62.7122
20
-115.979
11
62.7232
21
-116.003
0
LINE
8
BLACK
6
CONTINUOUS
10
62.7232
20
-116.003
11
62.7187
21
-116.054
0
LINE
8
BLACK
6
CONTINUOUS
10
62.7187
20
-116.054
11
62.6824
21
-116.09
0
LINE
8
BLACK
6
CONTINUOUS
10
62.6824
20
-116.09
11
62.6313
21
-116.095
0
LINE
8
BLACK
6
CONTINUOUS
10
62.6313
20
-116.095
11
62.5893
21
-116.065
0
LINE
8
BLACK
6
CONTINUOUS
10
62.5893
20
-116.065
11
62.2784
21
-115.621
0
LINE
8
BLACK
6
CONTINUOUS
10
62.2784
20
-115.621
11
62.1543
21
-115.621
0
LINE
8
BLACK
6
CONTINUOUS
10
62.1543
20
-115.621
11
62.1543
21
-116.022
0
LINE
8
BLACK
6
CONTINUOUS
10
62.1543
20
-116.022
11
62.1498
21
-116.048
0
LINE
8
BLACK
6
CONTINUOUS
10
62.1498
20
-116.048
11
62.1168
21
-116.087
0
LINE
8
BLACK
6
CONTINUOUS
10
62.1168
20
-116.087
11
62.0663
21
-116.096
0
LINE
8
BLACK
6
CONTINUOUS
10
62.0663
20
-116.096
11
62.0219
21
-116.071
0
LINE
8
BLACK
6
CONTINUOUS
10
62.0219
20
-116.071
11
62.0043
21
-116.022
0
LINE
8
BLACK
6
CONTINUOUS
10
62.0043
20
-116.022
11
62.0043
21
-115.022
0
LINE
8
BLACK
6
CONTINUOUS
10
62.0043
20
-115.022
11
62.0061
21
-115.013
0
LINE
8
BLACK
6
CONTINUOUS
10
62.0061
20
-115.013
11
62.0055
21
-115.009
0
LINE
8
BLACK
6
CONTINUOUS
10
62.0055
20
-115.009
11
62.0071
21
-115.006
0
LINE
8
BLACK
6
CONTINUOUS
10
62.0071
20
-115.006
11
62.0089
21
-114.997
0
LINE
8
BLACK
6
CONTINUOUS
10
62.0089
20
-114.997
11
62.0214
21
-114.982
0
LINE
8
BLACK
6
CONTINUOUS
10
62.0214
20
-114.982
11
62.0311
21
-114.965
0
LINE
8
BLACK
6
CONTINUOUS
10
62.0311
20
-114.965
11
62.0375
21
-114.963
0
LINE
8
BLACK
6
CONTINUOUS
10
62.0375
20
-114.963
11
62.0418
21
-114.957
0
LINE
8
BLACK
6
CONTINUOUS
10
62.0418
20
-114.957
11
62.061
21
-114.954
0
LINE
8
BLACK
6
CONTINUOUS
10
62.061
20
-114.954
11
62.0793
21
-114.947
0
LINE
8
BLACK
6
CONTINUOUS
10
62.0793
20
-114.947
11
62.4603
21
-114.947
0
LINE
8
BLACK
6
CONTINUOUS
10
62.4603
20
-114.947
11
62.4859
21
-114.952
0
LINE
8
BLACK
6
CONTINUOUS
10
62.1543
20
-115.097
11
62.1543
21
-115.471
0
LINE
8
BLACK
6
CONTINUOUS
10
62.1543
20
-115.471
11
62.4426
21
-115.471
0
LINE
8
BLACK
6
CONTINUOUS
10
62.4426
20
-115.471
11
62.5111
21
-115.437
0
LINE
8
BLACK
6
CONTINUOUS
10
62.5111
20
-115.437
11
62.5415
21
-115.407
0
LINE
8
BLACK
6
CONTINUOUS
10
62.5415
20
-115.407
11
62.5758
21
-115.338
0
LINE
8
BLACK
6
CONTINUOUS
10
62.5758
20
-115.338
11
62.5758
21
-115.231
0
LINE
8
BLACK
6
CONTINUOUS
10
62.5758
20
-115.231
11
62.5415
21
-115.162
0
LINE
8
BLACK
6
CONTINUOUS
10
62.5415
20
-115.162
11
62.5111
21
-115.132
0
LINE
8
BLACK
6
CONTINUOUS
10
62.5111
20
-115.132
11
62.4426
21
-115.097
0
LINE
8
BLACK
6
CONTINUOUS
10
62.4426
20
-115.097
11
62.1543
21
-115.097
0
LINE
8
BLACK
6
CONTINUOUS
10
214.886
20
-114.952
11
214.889
21
-114.955
0
LINE
8
BLACK
6
CONTINUOUS
10
214.889
20
-114.955
11
214.894
21
-114.955
0
LINE
8
BLACK
6
CONTINUOUS
10
214.894
20
-114.955
11
214.989
21
-115.003
0
LINE
8
BLACK
6
CONTINUOUS
10
214.989
20
-115.003
11
215.007
21
-115.016
0
LINE
8
BLACK
6
CONTINUOUS
10
215.007
20
-115.016
11
215.009
21
-115.017
0
LINE
8
BLACK
6
CONTINUOUS
10
215.009
20
-115.017
11
215.056
21
-115.065
0
LINE
8
BLACK
6
CONTINUOUS
10
215.056
20
-115.065
11
215.069
21
-115.083
0
LINE
8
BLACK
6
CONTINUOUS
10
215.069
20
-115.083
11
215.07
21
-115.084
0
LINE
8
BLACK
6
CONTINUOUS
10
215.07
20
-115.084
11
215.118
21
-115.179
0
LINE
8
BLACK
6
CONTINUOUS
10
215.118
20
-115.179
11
215.125
21
-115.204
0
LINE
8
BLACK
6
CONTINUOUS
10
215.125
20
-115.204
11
215.124
21
-115.209
0
LINE
8
BLACK
6
CONTINUOUS
10
215.124
20
-115.209
11
215.126
21
-115.213
0
LINE
8
BLACK
6
CONTINUOUS
10
215.126
20
-115.213
11
215.126
21
-115.356
0
LINE
8
BLACK
6
CONTINUOUS
10
215.126
20
-115.356
11
215.121
21
-115.381
0
LINE
8
BLACK
6
CONTINUOUS
10
215.121
20
-115.381
11
215.118
21
-115.385
0
LINE
8
BLACK
6
CONTINUOUS
10
215.118
20
-115.385
11
215.118
21
-115.389
0
LINE
8
BLACK
6
CONTINUOUS
10
215.118
20
-115.389
11
215.07
21
-115.484
0
LINE
8
BLACK
6
CONTINUOUS
10
215.07
20
-115.484
11
215.057
21
-115.503
0
LINE
8
BLACK
6
CONTINUOUS
10
215.057
20
-115.503
11
215.056
21
-115.504
0
LINE
8
BLACK
6
CONTINUOUS
10
215.056
20
-115.504
11
215.009
21
-115.552
0
LINE
8
BLACK
6
CONTINUOUS
10
215.009
20
-115.552
11
214.99
21
-115.564
0
LINE
8
BLACK
6
CONTINUOUS
10
214.99
20
-115.564
11
214.989
21
-115.566
0
LINE
8
BLACK
6
CONTINUOUS
10
214.989
20
-115.566
11
214.894
21
-115.613
0
LINE
8
BLACK
6
CONTINUOUS
10
214.894
20
-115.613
11
214.869
21
-115.621
0
LINE
8
BLACK
6
CONTINUOUS
10
214.869
20
-115.621
11
214.864
21
-115.62
0
LINE
8
BLACK
6
CONTINUOUS
10
214.864
20
-115.62
11
214.861
21
-115.621
0
LINE
8
BLACK
6
CONTINUOUS
10
214.861
20
-115.621
11
215.112
21
-115.979
0
LINE
8
BLACK
6
CONTINUOUS
10
215.112
20
-115.979
11
215.123
21
-116.003
0
LINE
8
BLACK
6
CONTINUOUS
10
215.123
20
-116.003
11
215.119
21
-116.054
0
LINE
8
BLACK
6
CONTINUOUS
10
215.119
20
-116.054
11
215.082
21
-116.09
0
LINE
8
BLACK
6
CONTINUOUS
10
215.082
20
-116.09
11
215.031
21
-116.095
0
LINE
8
BLACK
6
CONTINUOUS
10
215.031
20
-116.095
11
214.989
21
-116.065
0
LINE
8
BLACK
6
CONTINUOUS
10
214.989
20
-116.065
11
214.678
21
-115.621
0
LINE
8
BLACK
6
CONTINUOUS
10
214.678
20
-115.621
11
214.554
21
-115.621
0
LINE
8
BLACK
6
CONTINUOUS
10
214.554
20
-115.621
11
214.554
21
-116.022
0
LINE
8
BLACK
6
CONTINUOUS
10
214.554
20
-116.022
11
214.55
21
-116.048
0
LINE
8
BLACK
6
CONTINUOUS
10
214.55
20
-116.048
11
214.517
21
-116.087
0
LINE
8
BLACK
6
CONTINUOUS
10
214.517
20
-116.087
11
214.466
21
-116.096
0
LINE
8
BLACK
6
CONTINUOUS
10
214.466
20
-116.096
11
214.422
21
-116.071
0
LINE
8
BLACK
6
CONTINUOUS
10
214.422
20
-116.071
11
214.404
21
-116.022
0
LINE
8
BLACK
6
CONTINUOUS
10
214.404
20
-116.022
11
214.404
21
-115.022
0
LINE
8
BLACK
6
CONTINUOUS
10
214.404
20
-115.022
11
214.406
21
-115.013
0
LINE
8
BLACK
6
CONTINUOUS
10
214.406
20
-115.013
11
214.405
21
-115.009
0
LINE
8
BLACK
6
CONTINUOUS
10
214.405
20
-115.009
11
214.407
21
-115.006
0
LINE
8
BLACK
6
CONTINUOUS
10
214.407
20
-115.006
11
214.409
21
-114.997
0
LINE
8
BLACK
6
CONTINUOUS
10
214.409
20
-114.997
11
214.421
21
-114.982
0
LINE
8
BLACK
6
CONTINUOUS
10
214.421
20
-114.982
11
214.431
21
-114.965
0
LINE
8
BLACK
6
CONTINUOUS
10
214.431
20
-114.965
11
214.437
21
-114.963
0
LINE
8
BLACK
6
CONTINUOUS
10
214.437
20
-114.963
11
214.442
21
-114.957
0
LINE
8
BLACK
6
CONTINUOUS
10
214.442
20
-114.957
11
214.461
21
-114.954
0
LINE
8
BLACK
6
CONTINUOUS
10
214.461
20
-114.954
11
214.479
21
-114.947
0
LINE
8
BLACK
6
CONTINUOUS
10
214.479
20
-114.947
11
214.86
21
-114.947
0
LINE
8
BLACK
6
CONTINUOUS
10
214.86
20
-114.947
11
214.886
21
-114.952
0
LINE
8
BLACK
6
CONTINUOUS
10
214.554
20
-115.097
11
214.554
21
-115.471
0
LINE
8
BLACK
6
CONTINUOUS
10
214.554
20
-115.471
11
214.843
21
-115.471
0
LINE
8
BLACK
6
CONTINUOUS
10
214.843
20
-115.471
11
214.911
21
-115.437
0
LINE
8
BLACK
6
CONTINUOUS
10
214.911
20
-115.437
11
214.942
21
-115.407
0
LINE
8
BLACK
6
CONTINUOUS
10
214.942
20
-115.407
11
214.976
21
-115.338
0
LINE
8
BLACK
6
CONTINUOUS
10
214.976
20
-115.338
11
214.976
21
-115.231
0
LINE
8
BLACK
6
CONTINUOUS
10
214.976
20
-115.231
11
214.942
21
-115.162
0
LINE
8
BLACK
6
CONTINUOUS
10
214.942
20
-115.162
11
214.911
21
-115.132
0
LINE
8
BLACK
6
CONTINUOUS
10
214.911
20
-115.132
11
214.843
21
-115.097
0
LINE
8
BLACK
6
CONTINUOUS
10
214.843
20
-115.097
11
214.554
21
-115.097
0
LINE
8
BLACK
6
CONTINUOUS
10
71.9176
20
-114.732
11
71.9
21
-114.69
0
LINE
8
BLACK
6
CONTINUOUS
10
71.9
20
-114.69
11
71.9176
21
-114.648
0
LINE
8
BLACK
6
CONTINUOUS
10
71.9176
20
-114.648
11
71.96
21
-114.63
0
LINE
8
BLACK
6
CONTINUOUS
10
71.96
20
-114.63
11
73.39
21
-114.63
0
LINE
8
BLACK
6
CONTINUOUS
10
73.39
20
-114.63
11
73.39
21
-109.97
0
LINE
8
BLACK
6
CONTINUOUS
10
73.39
20
-109.97
11
73.4076
21
-109.928
0
LINE
8
BLACK
6
CONTINUOUS
10
73.4076
20
-109.928
11
73.45
21
-109.91
0
LINE
8
BLACK
6
CONTINUOUS
10
73.45
20
-109.91
11
73.4924
21
-109.928
0
LINE
8
BLACK
6
CONTINUOUS
10
73.4924
20
-109.928
11
73.51
21
-109.97
0
LINE
8
BLACK
6
CONTINUOUS
10
73.51
20
-109.97
11
73.51
21
-114.69
0
LINE
8
BLACK
6
CONTINUOUS
10
73.51
20
-114.69
11
73.4924
21
-114.732
0
LINE
8
BLACK
6
CONTINUOUS
10
73.4924
20
-114.732
11
73.45
21
-114.75
0
LINE
8
BLACK
6
CONTINUOUS
10
73.45
20
-114.75
11
71.96
21
-114.75
0
LINE
8
BLACK
6
CONTINUOUS
10
71.96
20
-114.75
11
71.9176
21
-114.732
0
LINE
8
BLACK
6
CONTINUOUS
10
63.7424
20
-109.928
11
63.76
21
-109.97
0
LINE
8
BLACK
6
CONTINUOUS
10
63.76
20
-109.97
11
63.76
21
-114.63
0
LINE
8
BLACK
6
CONTINUOUS
10
63.76
20
-114.63
11
64.89
21
-114.63
0
LINE
8
BLACK
6
CONTINUOUS
10
64.89
20
-114.63
11
64.9324
21
-114.648
0
LINE
8
BLACK
6
CONTINUOUS
10
64.9324
20
-114.648
11
64.95
21
-114.69
0
LINE
8
BLACK
6
CONTINUOUS
10
64.95
20
-114.69
11
64.9324
21
-114.732
0
LINE
8
BLACK
6
CONTINUOUS
10
64.9324
20
-114.732
11
64.89
21
-114.75
0
LINE
8
BLACK
6
CONTINUOUS
10
64.89
20
-114.75
11
63.71
21
-114.75
0
LINE
8
BLACK
6
CONTINUOUS
10
63.71
20
-114.75
11
63.705
21
-114.748
0
LINE
8
BLACK
6
CONTINUOUS
10
63.705
20
-114.748
11
63.7
21
-114.75
0
LINE
8
BLACK
6
CONTINUOUS
10
63.7
20
-114.75
11
63.6576
21
-114.732
0
LINE
8
BLACK
6
CONTINUOUS
10
63.6576
20
-114.732
11
63.64
21
-114.69
0
LINE
8
BLACK
6
CONTINUOUS
10
63.64
20
-114.69
11
63.64
21
-109.97
0
LINE
8
BLACK
6
CONTINUOUS
10
63.64
20
-109.97
11
63.6576
21
-109.928
0
LINE
8
BLACK
6
CONTINUOUS
10
63.6576
20
-109.928
11
63.7
21
-109.91
0
LINE
8
BLACK
6
CONTINUOUS
10
63.7
20
-109.91
11
63.7424
21
-109.928
0
LINE
8
BLACK
6
CONTINUOUS
10
222.682
20
-114.648
11
222.7
21
-114.69
0
LINE
8
BLACK
6
CONTINUOUS
10
222.7
20
-114.69
11
222.682
21
-114.732
0
LINE
8
BLACK
6
CONTINUOUS
10
222.682
20
-114.732
11
222.64
21
-114.75
0
LINE
8
BLACK
6
CONTINUOUS
10
222.64
20
-114.75
11
221.81
21
-114.75
0
LINE
8
BLACK
6
CONTINUOUS
10
221.81
20
-114.75
11
221.768
21
-114.732
0
LINE
8
BLACK
6
CONTINUOUS
10
221.768
20
-114.732
11
221.75
21
-114.69
0
LINE
8
BLACK
6
CONTINUOUS
10
221.75
20
-114.69
11
221.768
21
-114.648
0
LINE
8
BLACK
6
CONTINUOUS
10
221.768
20
-114.648
11
221.81
21
-114.63
0
LINE
8
BLACK
6
CONTINUOUS
10
221.81
20
-114.63
11
222.64
21
-114.63
0
LINE
8
BLACK
6
CONTINUOUS
10
222.64
20
-114.63
11
222.682
21
-114.648
0
LINE
8
BLACK
6
CONTINUOUS
10
224.318
20
-114.732
11
224.3
21
-114.69
0
LINE
8
BLACK
6
CONTINUOUS
10
224.3
20
-114.69
11
224.318
21
-114.648
0
LINE
8
BLACK
6
CONTINUOUS
10
224.318
20
-114.648
11
224.36
21
-114.63
0
LINE
8
BLACK
6
CONTINUOUS
10
224.36
20
-114.63
11
225.79
21
-114.63
0
LINE
8
BLACK
6
CONTINUOUS
10
225.79
20
-114.63
11
225.79
21
-109.97
0
LINE
8
BLACK
6
CONTINUOUS
10
225.79
20
-109.97
11
225.808
21
-109.928
0
LINE
8
BLACK
6
CONTINUOUS
10
225.808
20
-109.928
11
225.85
21
-109.91
0
LINE
8
BLACK
6
CONTINUOUS
10
225.85
20
-109.91
11
225.892
21
-109.928
0
LINE
8
BLACK
6
CONTINUOUS
10
225.892
20
-109.928
11
225.91
21
-109.97
0
LINE
8
BLACK
6
CONTINUOUS
10
225.91
20
-109.97
11
225.91
21
-114.69
0
LINE
8
BLACK
6
CONTINUOUS
10
225.91
20
-114.69
11
225.892
21
-114.732
0
LINE
8
BLACK
6
CONTINUOUS
10
225.892
20
-114.732
11
225.85
21
-114.75
0
LINE
8
BLACK
6
CONTINUOUS
10
225.85
20
-114.75
11
224.36
21
-114.75
0
LINE
8
BLACK
6
CONTINUOUS
10
224.36
20
-114.75
11
224.318
21
-114.732
0
LINE
8
BLACK
6
CONTINUOUS
10
220.232
20
-114.648
11
220.25
21
-114.69
0
LINE
8
BLACK
6
CONTINUOUS
10
220.25
20
-114.69
11
220.232
21
-114.732
0
LINE
8
BLACK
6
CONTINUOUS
10
220.232
20
-114.732
11
220.19
21
-114.75
0
LINE
8
BLACK
6
CONTINUOUS
10
220.19
20
-114.75
11
219.66
21
-114.75
0
LINE
8
BLACK
6
CONTINUOUS
10
219.66
20
-114.75
11
219.618
21
-114.732
0
LINE
8
BLACK
6
CONTINUOUS
10
219.618
20
-114.732
11
219.6
21
-114.69
0
LINE
8
BLACK
6
CONTINUOUS
10
219.6
20
-114.69
11
219.618
21
-114.648
0
LINE
8
BLACK
6
CONTINUOUS
10
219.618
20
-114.648
11
219.66
21
-114.63
0
LINE
8
BLACK
6
CONTINUOUS
10
219.66
20
-114.63
11
220.19
21
-114.63
0
LINE
8
BLACK
6
CONTINUOUS
10
220.19
20
-114.63
11
220.232
21
-114.648
0
LINE
8
BLACK
6
CONTINUOUS
10
216.142
20
-109.928
11
216.16
21
-109.97
0
LINE
8
BLACK
6
CONTINUOUS
10
216.16
20
-109.97
11
216.16
21
-114.63
0
LINE
8
BLACK
6
CONTINUOUS
10
216.16
20
-114.63
11
217.29
21
-114.63
0
LINE
8
BLACK
6
CONTINUOUS
10
217.29
20
-114.63
11
217.332
21
-114.648
0
LINE
8
BLACK
6
CONTINUOUS
10
217.332
20
-114.648
11
217.35
21
-114.69
0
LINE
8
BLACK
6
CONTINUOUS
10
217.35
20
-114.69
11
217.332
21
-114.732
0
LINE
8
BLACK
6
CONTINUOUS
10
217.332
20
-114.732
11
217.29
21
-114.75
0
LINE
8
BLACK
6
CONTINUOUS
10
217.29
20
-114.75
11
216.11
21
-114.75
0
LINE
8
BLACK
6
CONTINUOUS
10
216.11
20
-114.75
11
216.105
21
-114.748
0
LINE
8
BLACK
6
CONTINUOUS
10
216.105
20
-114.748
11
216.1
21
-114.75
0
LINE
8
BLACK
6
CONTINUOUS
10
216.1
20
-114.75
11
216.058
21
-114.732
0
LINE
8
BLACK
6
CONTINUOUS
10
216.058
20
-114.732
11
216.04
21
-114.69
0
LINE
8
BLACK
6
CONTINUOUS
10
216.04
20
-114.69
11
216.04
21
-109.97
0
LINE
8
BLACK
6
CONTINUOUS
10
216.04
20
-109.97
11
216.058
21
-109.928
0
LINE
8
BLACK
6
CONTINUOUS
10
216.058
20
-109.928
11
216.1
21
-109.91
0
LINE
8
BLACK
6
CONTINUOUS
10
216.1
20
-109.91
11
216.142
21
-109.928
0
LINE
8
BLACK
6
CONTINUOUS
10
70.2824
20
-114.648
11
70.3
21
-114.69
0
LINE
8
BLACK
6
CONTINUOUS
10
70.3
20
-114.69
11
70.2824
21
-114.732
0
LINE
8
BLACK
6
CONTINUOUS
10
70.2824
20
-114.732
11
70.24
21
-114.75
0
LINE
8
BLACK
6
CONTINUOUS
10
70.24
20
-114.75
11
69.41
21
-114.75
0
LINE
8
BLACK
6
CONTINUOUS
10
69.41
20
-114.75
11
69.3676
21
-114.732
0
LINE
8
BLACK
6
CONTINUOUS
10
69.3676
20
-114.732
11
69.35
21
-114.69
0
LINE
8
BLACK
6
CONTINUOUS
10
69.35
20
-114.69
11
69.3676
21
-114.648
0
LINE
8
BLACK
6
CONTINUOUS
10
69.3676
20
-114.648
11
69.41
21
-114.63
0
LINE
8
BLACK
6
CONTINUOUS
10
69.41
20
-114.63
11
70.24
21
-114.63
0
LINE
8
BLACK
6
CONTINUOUS
10
70.24
20
-114.63
11
70.2824
21
-114.648
0
LINE
8
BLACK
6
CONTINUOUS
10
67.8324
20
-114.648
11
67.85
21
-114.69
0
LINE
8
BLACK
6
CONTINUOUS
10
67.85
20
-114.69
11
67.8324
21
-114.732
0
LINE
8
BLACK
6
CONTINUOUS
10
67.8324
20
-114.732
11
67.79
21
-114.75
0
LINE
8
BLACK
6
CONTINUOUS
10
67.79
20
-114.75
11
67.26
21
-114.75
0
LINE
8
BLACK
6
CONTINUOUS
10
67.26
20
-114.75
11
67.2176
21
-114.732
0
LINE
8
BLACK
6
CONTINUOUS
10
67.2176
20
-114.732
11
67.2
21
-114.69
0
LINE
8
BLACK
6
CONTINUOUS
10
67.2
20
-114.69
11
67.2176
21
-114.648
0
LINE
8
BLACK
6
CONTINUOUS
10
67.2176
20
-114.648
11
67.26
21
-114.63
0
LINE
8
BLACK
6
CONTINUOUS
10
67.26
20
-114.63
11
67.79
21
-114.63
0
LINE
8
BLACK
6
CONTINUOUS
10
67.79
20
-114.63
11
67.8324
21
-114.648
0
LINE
8
BLACK
6
CONTINUOUS
10
225.892
20
-103.058
11
225.91
21
-103.1
0
LINE
8
BLACK
6
CONTINUOUS
10
225.91
20
-103.1
11
225.91
21
-106.16
0
LINE
8
BLACK
6
CONTINUOUS
10
225.91
20
-106.16
11
225.892
21
-106.202
0
LINE
8
BLACK
6
CONTINUOUS
10
225.892
20
-106.202
11
225.85
21
-106.22
0
LINE
8
BLACK
6
CONTINUOUS
10
225.85
20
-106.22
11
225.808
21
-106.202
0
LINE
8
BLACK
6
CONTINUOUS
10
225.808
20
-106.202
11
225.79
21
-106.16
0
LINE
8
BLACK
6
CONTINUOUS
10
225.79
20
-106.16
11
225.79
21
-103.16
0
LINE
8
BLACK
6
CONTINUOUS
10
225.79
20
-103.16
11
216.17
21
-103.16
0
LINE
8
BLACK
6
CONTINUOUS
10
216.17
20
-103.16
11
216.17
21
-106.16
0
LINE
8
BLACK
6
CONTINUOUS
10
216.17
20
-106.16
11
216.152
21
-106.202
0
LINE
8
BLACK
6
CONTINUOUS
10
216.152
20
-106.202
11
216.11
21
-106.22
0
LINE
8
BLACK
6
CONTINUOUS
10
216.11
20
-106.22
11
216.068
21
-106.202
0
LINE
8
BLACK
6
CONTINUOUS
10
216.068
20
-106.202
11
216.05
21
-106.16
0
LINE
8
BLACK
6
CONTINUOUS
10
216.05
20
-106.16
11
216.05
21
-103.1
0
LINE
8
BLACK
6
CONTINUOUS
10
216.05
20
-103.1
11
216.068
21
-103.058
0
LINE
8
BLACK
6
CONTINUOUS
10
216.068
20
-103.058
11
216.11
21
-103.04
0
LINE
8
BLACK
6
CONTINUOUS
10
216.11
20
-103.04
11
225.85
21
-103.04
0
LINE
8
BLACK
6
CONTINUOUS
10
225.85
20
-103.04
11
225.892
21
-103.058
0
LINE
8
BLACK
6
CONTINUOUS
10
73.4924
20
-103.058
11
73.51
21
-103.1
0
LINE
8
BLACK
6
CONTINUOUS
10
73.51
20
-103.1
11
73.51
21
-106.16
0
LINE
8
BLACK
6
CONTINUOUS
10
73.51
20
-106.16
11
73.4924
21
-106.202
0
LINE
8
BLACK
6
CONTINUOUS
10
73.4924
20
-106.202
11
73.45
21
-106.22
0
LINE
8
BLACK
6
CONTINUOUS
10
73.45
20
-106.22
11
73.4076
21
-106.202
0
LINE
8
BLACK
6
CONTINUOUS
10
73.4076
20
-106.202
11
73.39
21
-106.16
0
LINE
8
BLACK
6
CONTINUOUS
10
73.39
20
-106.16
11
73.39
21
-103.16
0
LINE
8
BLACK
6
CONTINUOUS
10
73.39
20
-103.16
11
63.77
21
-103.16
0
LINE
8
BLACK
6
CONTINUOUS
10
63.77
20
-103.16
11
63.77
21
-106.16
0
LINE
8
BLACK
6
CONTINUOUS
10
63.77
20
-106.16
11
63.7524
21
-106.202
0
LINE
8
BLACK
6
CONTINUOUS
10
63.7524
20
-106.202
11
63.71
21
-106.22
0
LINE
8
BLACK
6
CONTINUOUS
10
63.71
20
-106.22
11
63.6676
21
-106.202
0
LINE
8
BLACK
6
CONTINUOUS
10
63.6676
20
-106.202
11
63.65
21
-106.16
0
LINE
8
BLACK
6
CONTINUOUS
10
63.65
20
-106.16
11
63.65
21
-103.1
0
LINE
8
BLACK
6
CONTINUOUS
10
63.65
20
-103.1
11
63.6676
21
-103.058
0
LINE
8
BLACK
6
CONTINUOUS
10
63.6676
20
-103.058
11
63.71
21
-103.04
0
LINE
8
BLACK
6
CONTINUOUS
10
63.71
20
-103.04
11
73.45
21
-103.04
0
LINE
8
BLACK
6
CONTINUOUS
10
73.45
20
-103.04
11
73.4924
21
-103.058
0
LINE
8
BLACK
6
CONTINUOUS
10
140.637
20
-86.5013
11
140.642
21
-86.5005
0
LINE
8
BLACK
6
CONTINUOUS
10
140.642
20
-86.5005
11
140.66
21
-86.5114
0
LINE
8
BLACK
6
CONTINUOUS
10
140.66
20
-86.5114
11
140.68
21
-86.5201
0
LINE
8
BLACK
6
CONTINUOUS
10
140.68
20
-86.5201
11
140.682
21
-86.524
0
LINE
8
BLACK
6
CONTINUOUS
10
140.682
20
-86.524
11
140.686
21
-86.5262
0
LINE
8
BLACK
6
CONTINUOUS
10
140.686
20
-86.5262
11
140.693
21
-86.5466
0
LINE
8
BLACK
6
CONTINUOUS
10
140.693
20
-86.5466
11
140.703
21
-86.5661
0
LINE
8
BLACK
6
CONTINUOUS
10
140.703
20
-86.5661
11
140.702
21
-86.5703
0
LINE
8
BLACK
6
CONTINUOUS
10
140.702
20
-86.5703
11
140.704
21
-86.5744
0
LINE
8
BLACK
6
CONTINUOUS
10
140.704
20
-86.5744
11
140.704
21
-87.4994
0
LINE
8
BLACK
6
CONTINUOUS
10
140.704
20
-87.4994
11
140.914
21
-87.4994
0
LINE
8
BLACK
6
CONTINUOUS
10
140.914
20
-87.4994
11
140.94
21
-87.5039
0
LINE
8
BLACK
6
CONTINUOUS
10
140.94
20
-87.5039
11
140.979
21
-87.5369
0
LINE
8
BLACK
6
CONTINUOUS
10
140.979
20
-87.5369
11
140.988
21
-87.5874
0
LINE
8
BLACK
6
CONTINUOUS
10
140.988
20
-87.5874
11
140.962
21
-87.6318
0
LINE
8
BLACK
6
CONTINUOUS
10
140.962
20
-87.6318
11
140.914
21
-87.6494
0
LINE
8
BLACK
6
CONTINUOUS
10
140.914
20
-87.6494
11
140.343
21
-87.6494
0
LINE
8
BLACK
6
CONTINUOUS
10
140.343
20
-87.6494
11
140.317
21
-87.6449
0
LINE
8
BLACK
6
CONTINUOUS
10
140.317
20
-87.6449
11
140.278
21
-87.6119
0
LINE
8
BLACK
6
CONTINUOUS
10
140.278
20
-87.6119
11
140.269
21
-87.5614
0
LINE
8
BLACK
6
CONTINUOUS
10
140.269
20
-87.5614
11
140.295
21
-87.5169
0
LINE
8
BLACK
6
CONTINUOUS
10
140.295
20
-87.5169
11
140.343
21
-87.4994
0
LINE
8
BLACK
6
CONTINUOUS
10
140.343
20
-87.4994
11
140.554
21
-87.4994
0
LINE
8
BLACK
6
CONTINUOUS
10
140.554
20
-87.4994
11
140.554
21
-86.8031
0
LINE
8
BLACK
6
CONTINUOUS
10
140.554
20
-86.8031
11
140.491
21
-86.8655
0
LINE
8
BLACK
6
CONTINUOUS
10
140.491
20
-86.8655
11
140.473
21
-86.8784
0
LINE
8
BLACK
6
CONTINUOUS
10
140.473
20
-86.8784
11
140.472
21
-86.8796
0
LINE
8
BLACK
6
CONTINUOUS
10
140.472
20
-86.8796
11
140.376
21
-86.9272
0
LINE
8
BLACK
6
CONTINUOUS
10
140.376
20
-86.9272
11
140.351
21
-86.9346
0
LINE
8
BLACK
6
CONTINUOUS
10
140.351
20
-86.9346
11
140.302
21
-86.9227
0
LINE
8
BLACK
6
CONTINUOUS
10
140.302
20
-86.9227
11
140.271
21
-86.8815
0
LINE
8
BLACK
6
CONTINUOUS
10
140.271
20
-86.8815
11
140.274
21
-86.8303
0
LINE
8
BLACK
6
CONTINUOUS
10
140.274
20
-86.8303
11
140.309
21
-86.793
0
LINE
8
BLACK
6
CONTINUOUS
10
140.309
20
-86.793
11
140.394
21
-86.7508
0
LINE
8
BLACK
6
CONTINUOUS
10
140.394
20
-86.7508
11
140.475
21
-86.6695
0
LINE
8
BLACK
6
CONTINUOUS
10
140.475
20
-86.6695
11
140.566
21
-86.5328
0
LINE
8
BLACK
6
CONTINUOUS
10
140.566
20
-86.5328
11
140.584
21
-86.5139
0
LINE
8
BLACK
6
CONTINUOUS
10
140.584
20
-86.5139
11
140.588
21
-86.5127
0
LINE
8
BLACK
6
CONTINUOUS
10
140.588
20
-86.5127
11
140.591
21
-86.5094
0
LINE
8
BLACK
6
CONTINUOUS
10
140.591
20
-86.5094
11
140.613
21
-86.5056
0
LINE
8
BLACK
6
CONTINUOUS
10
140.613
20
-86.5056
11
140.633
21
-86.4995
0
LINE
8
BLACK
6
CONTINUOUS
10
140.633
20
-86.4995
11
140.637
21
-86.5013
0
LINE
8
BLACK
6
CONTINUOUS
10
139.43
20
-86.5105
11
139.462
21
-86.5507
0
LINE
8
BLACK
6
CONTINUOUS
10
139.462
20
-86.5507
11
139.724
21
-87.3372
0
LINE
8
BLACK
6
CONTINUOUS
10
139.724
20
-87.3372
11
139.986
21
-86.5507
0
LINE
8
BLACK
6
CONTINUOUS
10
139.986
20
-86.5507
11
139.998
21
-86.5278
0
LINE
8
BLACK
6
CONTINUOUS
10
139.998
20
-86.5278
11
140.042
21
-86.5009
0
LINE
8
BLACK
6
CONTINUOUS
10
140.042
20
-86.5009
11
140.093
21
-86.5084
0
LINE
8
BLACK
6
CONTINUOUS
10
140.093
20
-86.5084
11
140.127
21
-86.5468
0
LINE
8
BLACK
6
CONTINUOUS
10
140.127
20
-86.5468
11
140.128
21
-86.5981
0
LINE
8
BLACK
6
CONTINUOUS
10
140.128
20
-86.5981
11
139.795
21
-87.5981
0
LINE
8
BLACK
6
CONTINUOUS
10
139.795
20
-87.5981
11
139.783
21
-87.621
0
LINE
8
BLACK
6
CONTINUOUS
10
139.783
20
-87.621
11
139.781
21
-87.6221
0
LINE
8
BLACK
6
CONTINUOUS
10
139.781
20
-87.6221
11
139.78
21
-87.6241
0
LINE
8
BLACK
6
CONTINUOUS
10
139.78
20
-87.6241
11
139.759
21
-87.6354
0
LINE
8
BLACK
6
CONTINUOUS
10
139.759
20
-87.6354
11
139.739
21
-87.6479
0
LINE
8
BLACK
6
CONTINUOUS
10
139.739
20
-87.6479
11
139.737
21
-87.6475
0
LINE
8
BLACK
6
CONTINUOUS
10
139.737
20
-87.6475
11
139.735
21
-87.6486
0
LINE
8
BLACK
6
CONTINUOUS
10
139.735
20
-87.6486
11
139.712
21
-87.6438
0
LINE
8
BLACK
6
CONTINUOUS
10
139.712
20
-87.6438
11
139.688
21
-87.6403
0
LINE
8
BLACK
6
CONTINUOUS
10
139.688
20
-87.6403
11
139.687
21
-87.6387
0
LINE
8
BLACK
6
CONTINUOUS
10
139.687
20
-87.6387
11
139.685
21
-87.6383
0
LINE
8
BLACK
6
CONTINUOUS
10
139.685
20
-87.6383
11
139.67
21
-87.6197
0
LINE
8
BLACK
6
CONTINUOUS
10
139.67
20
-87.6197
11
139.654
21
-87.6019
0
LINE
8
BLACK
6
CONTINUOUS
10
139.654
20
-87.6019
11
139.654
21
-87.5998
0
LINE
8
BLACK
6
CONTINUOUS
10
139.654
20
-87.5998
11
139.653
21
-87.5981
0
LINE
8
BLACK
6
CONTINUOUS
10
139.653
20
-87.5981
11
139.319
21
-86.5981
0
LINE
8
BLACK
6
CONTINUOUS
10
139.319
20
-86.5981
11
139.316
21
-86.5723
0
LINE
8
BLACK
6
CONTINUOUS
10
139.316
20
-86.5723
11
139.334
21
-86.5246
0
LINE
8
BLACK
6
CONTINUOUS
10
139.334
20
-86.5246
11
139.379
21
-86.5002
0
LINE
8
BLACK
6
CONTINUOUS
10
139.379
20
-86.5002
11
139.43
21
-86.5105
0
LINE
8
BLACK
6
CONTINUOUS
10
138.94
20
-86.5039
11
138.943
21
-86.5068
0
LINE
8
BLACK
6
CONTINUOUS
10
138.943
20
-86.5068
11
138.948
21
-86.5073
0
LINE
8
BLACK
6
CONTINUOUS
10
138.948
20
-86.5073
11
139.043
21
-86.5549
0
LINE
8
BLACK
6
CONTINUOUS
10
139.043
20
-86.5549
11
139.061
21
-86.5683
0
LINE
8
BLACK
6
CONTINUOUS
10
139.061
20
-86.5683
11
139.063
21
-86.569
0
LINE
8
BLACK
6
CONTINUOUS
10
139.063
20
-86.569
11
139.11
21
-86.6166
0
LINE
8
BLACK
6
CONTINUOUS
10
139.11
20
-86.6166
11
139.123
21
-86.635
0
LINE
8
BLACK
6
CONTINUOUS
10
139.123
20
-86.635
11
139.124
21
-86.6361
0
LINE
8
BLACK
6
CONTINUOUS
10
139.124
20
-86.6361
11
139.172
21
-86.7313
0
LINE
8
BLACK
6
CONTINUOUS
10
139.172
20
-86.7313
11
139.179
21
-86.7563
0
LINE
8
BLACK
6
CONTINUOUS
10
139.179
20
-86.7563
11
139.178
21
-86.7606
0
LINE
8
BLACK
6
CONTINUOUS
10
139.178
20
-86.7606
11
139.18
21
-86.7649
0
LINE
8
BLACK
6
CONTINUOUS
10
139.18
20
-86.7649
11
139.18
21
-86.9077
0
LINE
8
BLACK
6
CONTINUOUS
10
139.18
20
-86.9077
11
139.175
21
-86.9334
0
LINE
8
BLACK
6
CONTINUOUS
10
139.175
20
-86.9334
11
139.172
21
-86.9368
0
LINE
8
BLACK
6
CONTINUOUS
10
139.172
20
-86.9368
11
139.172
21
-86.9413
0
LINE
8
BLACK
6
CONTINUOUS
10
139.172
20
-86.9413
11
139.124
21
-87.0365
0
LINE
8
BLACK
6
CONTINUOUS
10
139.124
20
-87.0365
11
139.111
21
-87.0545
0
LINE
8
BLACK
6
CONTINUOUS
10
139.111
20
-87.0545
11
139.11
21
-87.056
0
LINE
8
BLACK
6
CONTINUOUS
10
139.11
20
-87.056
11
139.063
21
-87.1036
0
LINE
8
BLACK
6
CONTINUOUS
10
139.063
20
-87.1036
11
139.044
21
-87.1165
0
LINE
8
BLACK
6
CONTINUOUS
10
139.044
20
-87.1165
11
139.043
21
-87.1177
0
LINE
8
BLACK
6
CONTINUOUS
10
139.043
20
-87.1177
11
138.948
21
-87.1653
0
LINE
8
BLACK
6
CONTINUOUS
10
138.948
20
-87.1653
11
138.923
21
-87.1727
0
LINE
8
BLACK
6
CONTINUOUS
10
138.923
20
-87.1727
11
138.918
21
-87.1717
0
LINE
8
BLACK
6
CONTINUOUS
10
138.918
20
-87.1717
11
138.915
21
-87.1728
0
LINE
8
BLACK
6
CONTINUOUS
10
138.915
20
-87.1728
11
139.166
21
-87.5314
0
LINE
8
BLACK
6
CONTINUOUS
10
139.166
20
-87.5314
11
139.177
21
-87.555
0
LINE
8
BLACK
6
CONTINUOUS
10
139.177
20
-87.555
11
139.173
21
-87.6061
0
LINE
8
BLACK
6
CONTINUOUS
10
139.173
20
-87.6061
11
139.136
21
-87.6424
0
LINE
8
BLACK
6
CONTINUOUS
10
139.136
20
-87.6424
11
139.085
21
-87.6468
0
LINE
8
BLACK
6
CONTINUOUS
10
139.085
20
-87.6468
11
139.043
21
-87.6174
0
LINE
8
BLACK
6
CONTINUOUS
10
139.043
20
-87.6174
11
138.732
21
-87.1732
0
LINE
8
BLACK
6
CONTINUOUS
10
138.732
20
-87.1732
11
138.608
21
-87.1732
0
LINE
8
BLACK
6
CONTINUOUS
10
138.608
20
-87.1732
11
138.608
21
-87.5744
0
LINE
8
BLACK
6
CONTINUOUS
10
138.608
20
-87.5744
11
138.604
21
-87.6
0
LINE
8
BLACK
6
CONTINUOUS
10
138.604
20
-87.6
11
138.571
21
-87.6393
0
LINE
8
BLACK
6
CONTINUOUS
10
138.571
20
-87.6393
11
138.52
21
-87.6482
0
LINE
8
BLACK
6
CONTINUOUS
10
138.52
20
-87.6482
11
138.476
21
-87.6226
0
LINE
8
BLACK
6
CONTINUOUS
10
138.476
20
-87.6226
11
138.458
21
-87.5744
0
LINE
8
BLACK
6
CONTINUOUS
10
138.458
20
-87.5744
11
138.458
21
-86.5744
0
LINE
8
BLACK
6
CONTINUOUS
10
138.458
20
-86.5744
11
138.46
21
-86.5646
0
LINE
8
BLACK
6
CONTINUOUS
10
138.46
20
-86.5646
11
138.459
21
-86.5614
0
LINE
8
BLACK
6
CONTINUOUS
10
138.459
20
-86.5614
11
138.461
21
-86.5585
0
LINE
8
BLACK
6
CONTINUOUS
10
138.461
20
-86.5585
11
138.463
21
-86.5487
0
LINE
8
BLACK
6
CONTINUOUS
10
138.463
20
-86.5487
11
138.475
21
-86.5338
0
LINE
8
BLACK
6
CONTINUOUS
10
138.475
20
-86.5338
11
138.485
21
-86.5169
0
LINE
8
BLACK
6
CONTINUOUS
10
138.485
20
-86.5169
11
138.491
21
-86.5146
0
LINE
8
BLACK
6
CONTINUOUS
10
138.491
20
-86.5146
11
138.496
21
-86.5094
0
LINE
8
BLACK
6
CONTINUOUS
10
138.496
20
-86.5094
11
138.515
21
-86.506
0
LINE
8
BLACK
6
CONTINUOUS
10
138.515
20
-86.506
11
138.533
21
-86.4994
0
LINE
8
BLACK
6
CONTINUOUS
10
138.533
20
-86.4994
11
138.914
21
-86.4994
0
LINE
8
BLACK
6
CONTINUOUS
10
138.914
20
-86.4994
11
138.94
21
-86.5039
0
LINE
8
BLACK
6
CONTINUOUS
10
138.608
20
-86.6494
11
138.608
21
-87.0232
0
LINE
8
BLACK
6
CONTINUOUS
10
138.608
20
-87.0232
11
138.897
21
-87.0232
0
LINE
8
BLACK
6
CONTINUOUS
10
138.897
20
-87.0232
11
138.965
21
-86.9889
0
LINE
8
BLACK
6
CONTINUOUS
10
138.965
20
-86.9889
11
138.996
21
-86.9585
0
LINE
8
BLACK
6
CONTINUOUS
10
138.996
20
-86.9585
11
139.03
21
-86.89
0
LINE
8
BLACK
6
CONTINUOUS
10
139.03
20
-86.89
11
139.03
21
-86.7826
0
LINE
8
BLACK
6
CONTINUOUS
10
139.03
20
-86.7826
11
138.996
21
-86.714
0
LINE
8
BLACK
6
CONTINUOUS
10
138.996
20
-86.714
11
138.965
21
-86.6836
0
LINE
8
BLACK
6
CONTINUOUS
10
138.965
20
-86.6836
11
138.897
21
-86.6494
0
LINE
8
BLACK
6
CONTINUOUS
10
138.897
20
-86.6494
11
138.608
21
-86.6494
0
LINE
8
BLACK
6
CONTINUOUS
10
148.118
20
-86.1574
11
148.1
21
-86.115
0
LINE
8
BLACK
6
CONTINUOUS
10
148.1
20
-86.115
11
148.118
21
-86.0726
0
LINE
8
BLACK
6
CONTINUOUS
10
148.118
20
-86.0726
11
148.16
21
-86.055
0
LINE
8
BLACK
6
CONTINUOUS
10
148.16
20
-86.055
11
149.59
21
-86.055
0
LINE
8
BLACK
6
CONTINUOUS
10
149.59
20
-86.055
11
149.59
21
-81.395
0
LINE
8
BLACK
6
CONTINUOUS
10
149.59
20
-81.395
11
149.608
21
-81.3526
0
LINE
8
BLACK
6
CONTINUOUS
10
149.608
20
-81.3526
11
149.65
21
-81.335
0
LINE
8
BLACK
6
CONTINUOUS
10
149.65
20
-81.335
11
149.692
21
-81.3526
0
LINE
8
BLACK
6
CONTINUOUS
10
149.692
20
-81.3526
11
149.71
21
-81.395
0
LINE
8
BLACK
6
CONTINUOUS
10
149.71
20
-81.395
11
149.71
21
-86.115
0
LINE
8
BLACK
6
CONTINUOUS
10
149.71
20
-86.115
11
149.692
21
-86.1574
0
LINE
8
BLACK
6
CONTINUOUS
10
149.692
20
-86.1574
11
149.65
21
-86.175
0
LINE
8
BLACK
6
CONTINUOUS
10
149.65
20
-86.175
11
148.16
21
-86.175
0
LINE
8
BLACK
6
CONTINUOUS
10
148.16
20
-86.175
11
148.118
21
-86.1574
0
LINE
8
BLACK
6
CONTINUOUS
10
144.032
20
-86.0726
11
144.05
21
-86.115
0
LINE
8
BLACK
6
CONTINUOUS
10
144.05
20
-86.115
11
144.032
21
-86.1574
0
LINE
8
BLACK
6
CONTINUOUS
10
144.032
20
-86.1574
11
143.99
21
-86.175
0
LINE
8
BLACK
6
CONTINUOUS
10
143.99
20
-86.175
11
143.46
21
-86.175
0
LINE
8
BLACK
6
CONTINUOUS
10
143.46
20
-86.175
11
143.418
21
-86.1574
0
LINE
8
BLACK
6
CONTINUOUS
10
143.418
20
-86.1574
11
143.4
21
-86.115
0
LINE
8
BLACK
6
CONTINUOUS
10
143.4
20
-86.115
11
143.418
21
-86.0726
0
LINE
8
BLACK
6
CONTINUOUS
10
143.418
20
-86.0726
11
143.46
21
-86.055
0
LINE
8
BLACK
6
CONTINUOUS
10
143.46
20
-86.055
11
143.99
21
-86.055
0
LINE
8
BLACK
6
CONTINUOUS
10
143.99
20
-86.055
11
144.032
21
-86.0726
0
LINE
8
BLACK
6
CONTINUOUS
10
139.942
20
-81.3526
11
139.96
21
-81.395
0
LINE
8
BLACK
6
CONTINUOUS
10
139.96
20
-81.395
11
139.96
21
-86.055
0
LINE
8
BLACK
6
CONTINUOUS
10
139.96
20
-86.055
11
141.09
21
-86.055
0
LINE
8
BLACK
6
CONTINUOUS
10
141.09
20
-86.055
11
141.132
21
-86.0726
0
LINE
8
BLACK
6
CONTINUOUS
10
141.132
20
-86.0726
11
141.15
21
-86.115
0
LINE
8
BLACK
6
CONTINUOUS
10
141.15
20
-86.115
11
141.132
21
-86.1574
0
LINE
8
BLACK
6
CONTINUOUS
10
141.132
20
-86.1574
11
141.09
21
-86.175
0
LINE
8
BLACK
6
CONTINUOUS
10
141.09
20
-86.175
11
139.91
21
-86.175
0
LINE
8
BLACK
6
CONTINUOUS
10
139.91
20
-86.175
11
139.905
21
-86.1729
0
LINE
8
BLACK
6
CONTINUOUS
10
139.905
20
-86.1729
11
139.9
21
-86.175
0
LINE
8
BLACK
6
CONTINUOUS
10
139.9
20
-86.175
11
139.858
21
-86.1574
0
LINE
8
BLACK
6
CONTINUOUS
10
139.858
20
-86.1574
11
139.84
21
-86.115
0
LINE
8
BLACK
6
CONTINUOUS
10
139.84
20
-86.115
11
139.84
21
-81.395
0
LINE
8
BLACK
6
CONTINUOUS
10
139.84
20
-81.395
11
139.858
21
-81.3526
0
LINE
8
BLACK
6
CONTINUOUS
10
139.858
20
-81.3526
11
139.9
21
-81.335
0
LINE
8
BLACK
6
CONTINUOUS
10
139.9
20
-81.335
11
139.942
21
-81.3526
0
LINE
8
BLACK
6
CONTINUOUS
10
146.482
20
-86.0726
11
146.5
21
-86.115
0
LINE
8
BLACK
6
CONTINUOUS
10
146.5
20
-86.115
11
146.482
21
-86.1574
0
LINE
8
BLACK
6
CONTINUOUS
10
146.482
20
-86.1574
11
146.44
21
-86.175
0
LINE
8
BLACK
6
CONTINUOUS
10
146.44
20
-86.175
11
145.61
21
-86.175
0
LINE
8
BLACK
6
CONTINUOUS
10
145.61
20
-86.175
11
145.568
21
-86.1574
0
LINE
8
BLACK
6
CONTINUOUS
10
145.568
20
-86.1574
11
145.55
21
-86.115
0
LINE
8
BLACK
6
CONTINUOUS
10
145.55
20
-86.115
11
145.568
21
-86.0726
0
LINE
8
BLACK
6
CONTINUOUS
10
145.568
20
-86.0726
11
145.61
21
-86.055
0
LINE
8
BLACK
6
CONTINUOUS
10
145.61
20
-86.055
11
146.44
21
-86.055
0
LINE
8
BLACK
6
CONTINUOUS
10
146.44
20
-86.055
11
146.482
21
-86.0726
0
LINE
8
BLACK
6
CONTINUOUS
10
149.692
20
-74.4826
11
149.71
21
-74.525
0
LINE
8
BLACK
6
CONTINUOUS
10
149.71
20
-74.525
11
149.71
21
-77.585
0
LINE
8
BLACK
6
CONTINUOUS
10
149.71
20
-77.585
11
149.692
21
-77.6274
0
LINE
8
BLACK
6
CONTINUOUS
10
149.692
20
-77.6274
11
149.65
21
-77.645
0
LINE
8
BLACK
6
CONTINUOUS
10
149.65
20
-77.645
11
149.608
21
-77.6274
0
LINE
8
BLACK
6
CONTINUOUS
10
149.608
20
-77.6274
11
149.59
21
-77.585
0
LINE
8
BLACK
6
CONTINUOUS
10
149.59
20
-77.585
11
149.59
21
-74.585
0
LINE
8
BLACK
6
CONTINUOUS
10
149.59
20
-74.585
11
139.97
21
-74.585
0
LINE
8
BLACK
6
CONTINUOUS
10
139.97
20
-74.585
11
139.97
21
-77.585
0
LINE
8
BLACK
6
CONTINUOUS
10
139.97
20
-77.585
11
139.952
21
-77.6274
0
LINE
8
BLACK
6
CONTINUOUS
10
139.952
20
-77.6274
11
139.91
21
-77.645
0
LINE
8
BLACK
6
CONTINUOUS
10
139.91
20
-77.645
11
139.868
21
-77.6274
0
LINE
8
BLACK
6
CONTINUOUS
10
139.868
20
-77.6274
11
139.85
21
-77.585
0
LINE
8
BLACK
6
CONTINUOUS
10
139.85
20
-77.585
11
139.85
21
-74.525
0
LINE
8
BLACK
6
CONTINUOUS
10
139.85
20
-74.525
11
139.868
21
-74.4826
0
LINE
8
BLACK
6
CONTINUOUS
10
139.868
20
-74.4826
11
139.91
21
-74.465
0
LINE
8
BLACK
6
CONTINUOUS
10
139.91
20
-74.465
11
149.65
21
-74.465
0
LINE
8
BLACK
6
CONTINUOUS
10
149.65
20
-74.465
11
149.692
21
-74.4826
0
LINE
8
BLACK
6
CONTINUOUS
10
64.7254
20
-57.7993
11
64.7288
21
-57.7988
0
LINE
8
BLACK
6
CONTINUOUS
10
64.7288
20
-57.7988
11
64.7315
21
-57.8004
0
LINE
8
BLACK
6
CONTINUOUS
10
64.7315
20
-57.8004
11
64.7399
21
-57.8019
0
LINE
8
BLACK
6
CONTINUOUS
10
64.7399
20
-57.8019
11
64.7554
21
-57.8149
0
LINE
8
BLACK
6
CONTINUOUS
10
64.7554
20
-57.8149
11
64.7727
21
-57.8254
0
LINE
8
BLACK
6
CONTINUOUS
10
64.7727
20
-57.8254
11
64.7747
21
-57.831
0
LINE
8
BLACK
6
CONTINUOUS
10
64.7747
20
-57.831
11
64.7792
21
-57.8349
0
LINE
8
BLACK
6
CONTINUOUS
10
64.7792
20
-57.8349
11
64.7827
21
-57.8548
0
LINE
8
BLACK
6
CONTINUOUS
10
64.7827
20
-57.8548
11
64.7893
21
-57.8739
0
LINE
8
BLACK
6
CONTINUOUS
10
64.7893
20
-57.8739
11
64.7871
21
-57.8795
0
LINE
8
BLACK
6
CONTINUOUS
10
64.7871
20
-57.8795
11
64.7881
21
-57.8854
0
LINE
8
BLACK
6
CONTINUOUS
10
64.7881
20
-57.8854
11
64.778
21
-57.9029
0
LINE
8
BLACK
6
CONTINUOUS
10
64.778
20
-57.9029
11
64.7707
21
-57.9218
0
LINE
8
BLACK
6
CONTINUOUS
10
64.7707
20
-57.9218
11
64.5432
21
-58.1818
0
LINE
8
BLACK
6
CONTINUOUS
10
64.5432
20
-58.1818
11
64.5495
21
-58.1829
0
LINE
8
BLACK
6
CONTINUOUS
10
64.5495
20
-58.1829
11
64.5529
21
-58.1857
0
LINE
8
BLACK
6
CONTINUOUS
10
64.5529
20
-58.1857
11
64.5573
21
-58.1863
0
LINE
8
BLACK
6
CONTINUOUS
10
64.5573
20
-58.1863
11
64.6526
21
-58.2339
0
LINE
8
BLACK
6
CONTINUOUS
10
64.6526
20
-58.2339
11
64.6706
21
-58.2472
0
LINE
8
BLACK
6
CONTINUOUS
10
64.6706
20
-58.2472
11
64.6721
21
-58.2479
0
LINE
8
BLACK
6
CONTINUOUS
10
64.6721
20
-58.2479
11
64.7197
21
-58.2955
0
LINE
8
BLACK
6
CONTINUOUS
10
64.7197
20
-58.2955
11
64.7326
21
-58.3139
0
LINE
8
BLACK
6
CONTINUOUS
10
64.7326
20
-58.3139
11
64.7337
21
-58.315
0
LINE
8
BLACK
6
CONTINUOUS
10
64.7337
20
-58.315
11
64.7814
21
-58.4103
0
LINE
8
BLACK
6
CONTINUOUS
10
64.7814
20
-58.4103
11
64.7888
21
-58.4352
0
LINE
8
BLACK
6
CONTINUOUS
10
64.7888
20
-58.4352
11
64.7878
21
-58.4396
0
LINE
8
BLACK
6
CONTINUOUS
10
64.7878
20
-58.4396
11
64.7893
21
-58.4438
0
LINE
8
BLACK
6
CONTINUOUS
10
64.7893
20
-58.4438
11
64.7893
21
-58.6819
0
LINE
8
BLACK
6
CONTINUOUS
10
64.7893
20
-58.6819
11
64.7848
21
-58.7076
0
LINE
8
BLACK
6
CONTINUOUS
10
64.7848
20
-58.7076
11
64.7819
21
-58.711
0
LINE
8
BLACK
6
CONTINUOUS
10
64.7819
20
-58.711
11
64.7814
21
-58.7154
0
LINE
8
BLACK
6
CONTINUOUS
10
64.7814
20
-58.7154
11
64.7337
21
-58.8107
0
LINE
8
BLACK
6
CONTINUOUS
10
64.7337
20
-58.8107
11
64.7204
21
-58.8287
0
LINE
8
BLACK
6
CONTINUOUS
10
64.7204
20
-58.8287
11
64.7197
21
-58.8302
0
LINE
8
BLACK
6
CONTINUOUS
10
64.7197
20
-58.8302
11
64.6721
21
-58.8778
0
LINE
8
BLACK
6
CONTINUOUS
10
64.6721
20
-58.8778
11
64.6537
21
-58.8907
0
LINE
8
BLACK
6
CONTINUOUS
10
64.6537
20
-58.8907
11
64.6526
21
-58.8918
0
LINE
8
BLACK
6
CONTINUOUS
10
64.6526
20
-58.8918
11
64.5573
21
-58.9395
0
LINE
8
BLACK
6
CONTINUOUS
10
64.5573
20
-58.9395
11
64.5324
21
-58.9469
0
LINE
8
BLACK
6
CONTINUOUS
10
64.5324
20
-58.9469
11
64.528
21
-58.9458
0
LINE
8
BLACK
6
CONTINUOUS
10
64.528
20
-58.9458
11
64.5238
21
-58.9474
0
LINE
8
BLACK
6
CONTINUOUS
10
64.5238
20
-58.9474
11
64.2381
21
-58.9474
0
LINE
8
BLACK
6
CONTINUOUS
10
64.2381
20
-58.9474
11
64.2124
21
-58.9429
0
LINE
8
BLACK
6
CONTINUOUS
10
64.2124
20
-58.9429
11
64.209
21
-58.94
0
LINE
8
BLACK
6
CONTINUOUS
10
64.209
20
-58.94
11
64.2046
21
-58.9395
0
LINE
8
BLACK
6
CONTINUOUS
10
64.2046
20
-58.9395
11
64.1093
21
-58.8918
0
LINE
8
BLACK
6
CONTINUOUS
10
64.1093
20
-58.8918
11
64.0913
21
-58.8785
0
LINE
8
BLACK
6
CONTINUOUS
10
64.0913
20
-58.8785
11
64.0898
21
-58.8778
0
LINE
8
BLACK
6
CONTINUOUS
10
64.0898
20
-58.8778
11
64.0422
21
-58.8302
0
LINE
8
BLACK
6
CONTINUOUS
10
64.0422
20
-58.8302
11
64.0273
21
-58.8088
0
LINE
8
BLACK
6
CONTINUOUS
10
64.0273
20
-58.8088
11
64.0228
21
-58.7577
0
LINE
8
BLACK
6
CONTINUOUS
10
64.0228
20
-58.7577
11
64.0522
21
-58.7157
0
LINE
8
BLACK
6
CONTINUOUS
10
64.0522
20
-58.7157
11
64.1018
21
-58.7024
0
LINE
8
BLACK
6
CONTINUOUS
10
64.1018
20
-58.7024
11
64.1483
21
-58.7241
0
LINE
8
BLACK
6
CONTINUOUS
10
64.1483
20
-58.7241
11
64.1873
21
-58.7631
0
LINE
8
BLACK
6
CONTINUOUS
10
64.1873
20
-58.7631
11
64.2558
21
-58.7974
0
LINE
8
BLACK
6
CONTINUOUS
10
64.2558
20
-58.7974
11
64.5061
21
-58.7974
0
LINE
8
BLACK
6
CONTINUOUS
10
64.5061
20
-58.7974
11
64.5746
21
-58.7631
0
LINE
8
BLACK
6
CONTINUOUS
10
64.5746
20
-58.7631
11
64.605
21
-58.7327
0
LINE
8
BLACK
6
CONTINUOUS
10
64.605
20
-58.7327
11
64.6393
21
-58.6642
0
LINE
8
BLACK
6
CONTINUOUS
10
64.6393
20
-58.6642
11
64.6393
21
-58.4615
0
LINE
8
BLACK
6
CONTINUOUS
10
64.6393
20
-58.4615
11
64.605
21
-58.393
0
LINE
8
BLACK
6
CONTINUOUS
10
64.605
20
-58.393
11
64.5746
21
-58.3626
0
LINE
8
BLACK
6
CONTINUOUS
10
64.5746
20
-58.3626
11
64.5061
21
-58.3283
0
LINE
8
BLACK
6
CONTINUOUS
10
64.5061
20
-58.3283
11
64.381
21
-58.3283
0
LINE
8
BLACK
6
CONTINUOUS
10
64.381
20
-58.3283
11
64.3698
21
-58.3264
0
LINE
8
BLACK
6
CONTINUOUS
10
64.3698
20
-58.3264
11
64.3664
21
-58.3269
0
LINE
8
BLACK
6
CONTINUOUS
10
64.3664
20
-58.3269
11
64.3637
21
-58.3253
0
LINE
8
BLACK
6
CONTINUOUS
10
64.3637
20
-58.3253
11
64.3553
21
-58.3238
0
LINE
8
BLACK
6
CONTINUOUS
10
64.3553
20
-58.3238
11
64.3398
21
-58.3108
0
LINE
8
BLACK
6
CONTINUOUS
10
64.3398
20
-58.3108
11
64.3225
21
-58.3003
0
LINE
8
BLACK
6
CONTINUOUS
10
64.3225
20
-58.3003
11
64.3206
21
-58.2947
0
LINE
8
BLACK
6
CONTINUOUS
10
64.3206
20
-58.2947
11
64.316
21
-58.2908
0
LINE
8
BLACK
6
CONTINUOUS
10
64.316
20
-58.2908
11
64.3125
21
-58.2709
0
LINE
8
BLACK
6
CONTINUOUS
10
64.3125
20
-58.2709
11
64.306
21
-58.2518
0
LINE
8
BLACK
6
CONTINUOUS
10
64.306
20
-58.2518
11
64.3081
21
-58.2462
0
LINE
8
BLACK
6
CONTINUOUS
10
64.3081
20
-58.2462
11
64.3071
21
-58.2403
0
LINE
8
BLACK
6
CONTINUOUS
10
64.3071
20
-58.2403
11
64.3172
21
-58.2228
0
LINE
8
BLACK
6
CONTINUOUS
10
64.3172
20
-58.2228
11
64.3245
21
-58.2039
0
LINE
8
BLACK
6
CONTINUOUS
10
64.3245
20
-58.2039
11
64.549
21
-57.9474
0
LINE
8
BLACK
6
CONTINUOUS
10
64.549
20
-57.9474
11
64.0952
21
-57.9474
0
LINE
8
BLACK
6
CONTINUOUS
10
64.0952
20
-57.9474
11
64.0696
21
-57.9429
0
LINE
8
BLACK
6
CONTINUOUS
10
64.0696
20
-57.9429
11
64.0303
21
-57.9099
0
LINE
8
BLACK
6
CONTINUOUS
10
64.0303
20
-57.9099
11
64.0214
21
-57.8594
0
LINE
8
BLACK
6
CONTINUOUS
10
64.0214
20
-57.8594
11
64.047
21
-57.8149
0
LINE
8
BLACK
6
CONTINUOUS
10
64.047
20
-57.8149
11
64.0952
21
-57.7974
0
LINE
8
BLACK
6
CONTINUOUS
10
64.0952
20
-57.7974
11
64.7143
21
-57.7974
0
LINE
8
BLACK
6
CONTINUOUS
10
64.7143
20
-57.7974
11
64.7254
21
-57.7993
0
LINE
8
BLACK
6
CONTINUOUS
10
215.63
20
-57.8085
11
215.662
21
-57.8487
0
LINE
8
BLACK
6
CONTINUOUS
10
215.662
20
-57.8487
11
215.924
21
-58.6352
0
LINE
8
BLACK
6
CONTINUOUS
10
215.924
20
-58.6352
11
216.186
21
-57.8487
0
LINE
8
BLACK
6
CONTINUOUS
10
216.186
20
-57.8487
11
216.198
21
-57.8258
0
LINE
8
BLACK
6
CONTINUOUS
10
216.198
20
-57.8258
11
216.242
21
-57.7989
0
LINE
8
BLACK
6
CONTINUOUS
10
216.242
20
-57.7989
11
216.293
21
-57.8064
0
LINE
8
BLACK
6
CONTINUOUS
10
216.293
20
-57.8064
11
216.327
21
-57.8448
0
LINE
8
BLACK
6
CONTINUOUS
10
216.327
20
-57.8448
11
216.328
21
-57.8961
0
LINE
8
BLACK
6
CONTINUOUS
10
216.328
20
-57.8961
11
215.995
21
-58.8961
0
LINE
8
BLACK
6
CONTINUOUS
10
215.995
20
-58.8961
11
215.983
21
-58.919
0
LINE
8
BLACK
6
CONTINUOUS
10
215.983
20
-58.919
11
215.981
21
-58.9201
0
LINE
8
BLACK
6
CONTINUOUS
10
215.981
20
-58.9201
11
215.98
21
-58.9221
0
LINE
8
BLACK
6
CONTINUOUS
10
215.98
20
-58.9221
11
215.959
21
-58.9334
0
LINE
8
BLACK
6
CONTINUOUS
10
215.959
20
-58.9334
11
215.939
21
-58.9459
0
LINE
8
BLACK
6
CONTINUOUS
10
215.939
20
-58.9459
11
215.937
21
-58.9455
0
LINE
8
BLACK
6
CONTINUOUS
10
215.937
20
-58.9455
11
215.935
21
-58.9466
0
LINE
8
BLACK
6
CONTINUOUS
10
215.935
20
-58.9466
11
215.912
21
-58.9418
0
LINE
8
BLACK
6
CONTINUOUS
10
215.912
20
-58.9418
11
215.888
21
-58.9383
0
LINE
8
BLACK
6
CONTINUOUS
10
215.888
20
-58.9383
11
215.887
21
-58.9367
0
LINE
8
BLACK
6
CONTINUOUS
10
215.887
20
-58.9367
11
215.885
21
-58.9363
0
LINE
8
BLACK
6
CONTINUOUS
10
215.885
20
-58.9363
11
215.87
21
-58.9177
0
LINE
8
BLACK
6
CONTINUOUS
10
215.87
20
-58.9177
11
215.854
21
-58.8999
0
LINE
8
BLACK
6
CONTINUOUS
10
215.854
20
-58.8999
11
215.854
21
-58.8978
0
LINE
8
BLACK
6
CONTINUOUS
10
215.854
20
-58.8978
11
215.853
21
-58.8961
0
LINE
8
BLACK
6
CONTINUOUS
10
215.853
20
-58.8961
11
215.519
21
-57.8961
0
LINE
8
BLACK
6
CONTINUOUS
10
215.519
20
-57.8961
11
215.516
21
-57.8703
0
LINE
8
BLACK
6
CONTINUOUS
10
215.516
20
-57.8703
11
215.534
21
-57.8226
0
LINE
8
BLACK
6
CONTINUOUS
10
215.534
20
-57.8226
11
215.579
21
-57.7982
0
LINE
8
BLACK
6
CONTINUOUS
10
215.579
20
-57.7982
11
215.63
21
-57.8085
0
LINE
8
BLACK
6
CONTINUOUS
10
63.2297
20
-57.8085
11
63.2616
21
-57.8487
0
LINE
8
BLACK
6
CONTINUOUS
10
63.2616
20
-57.8487
11
63.5238
21
-58.6352
0
LINE
8
BLACK
6
CONTINUOUS
10
63.5238
20
-58.6352
11
63.786
21
-57.8487
0
LINE
8
BLACK
6
CONTINUOUS
10
63.786
20
-57.8487
11
63.7984
21
-57.8258
0
LINE
8
BLACK
6
CONTINUOUS
10
63.7984
20
-57.8258
11
63.8421
21
-57.7989
0
LINE
8
BLACK
6
CONTINUOUS
10
63.8421
20
-57.7989
11
63.8929
21
-57.8064
0
LINE
8
BLACK
6
CONTINUOUS
10
63.8929
20
-57.8064
11
63.9269
21
-57.8448
0
LINE
8
BLACK
6
CONTINUOUS
10
63.9269
20
-57.8448
11
63.9283
21
-57.8961
0
LINE
8
BLACK
6
CONTINUOUS
10
63.9283
20
-57.8961
11
63.595
21
-58.8961
0
LINE
8
BLACK
6
CONTINUOUS
10
63.595
20
-58.8961
11
63.5826
21
-58.919
0
LINE
8
BLACK
6
CONTINUOUS
10
63.5826
20
-58.919
11
63.5807
21
-58.9201
0
LINE
8
BLACK
6
CONTINUOUS
10
63.5807
20
-58.9201
11
63.5799
21
-58.9221
0
LINE
8
BLACK
6
CONTINUOUS
10
63.5799
20
-58.9221
11
63.5591
21
-58.9334
0
LINE
8
BLACK
6
CONTINUOUS
10
63.5591
20
-58.9334
11
63.5388
21
-58.9459
0
LINE
8
BLACK
6
CONTINUOUS
10
63.5388
20
-58.9459
11
63.5367
21
-58.9455
0
LINE
8
BLACK
6
CONTINUOUS
10
63.5367
20
-58.9455
11
63.5348
21
-58.9466
0
LINE
8
BLACK
6
CONTINUOUS
10
63.5348
20
-58.9466
11
63.5116
21
-58.9418
0
LINE
8
BLACK
6
CONTINUOUS
10
63.5116
20
-58.9418
11
63.4881
21
-58.9383
0
LINE
8
BLACK
6
CONTINUOUS
10
63.4881
20
-58.9383
11
63.4867
21
-58.9367
0
LINE
8
BLACK
6
CONTINUOUS
10
63.4867
20
-58.9367
11
63.4845
21
-58.9363
0
LINE
8
BLACK
6
CONTINUOUS
10
63.4845
20
-58.9363
11
63.4698
21
-58.9177
0
LINE
8
BLACK
6
CONTINUOUS
10
63.4698
20
-58.9177
11
63.4541
21
-58.8999
0
LINE
8
BLACK
6
CONTINUOUS
10
63.4541
20
-58.8999
11
63.454
21
-58.8978
0
LINE
8
BLACK
6
CONTINUOUS
10
63.454
20
-58.8978
11
63.4527
21
-58.8961
0
LINE
8
BLACK
6
CONTINUOUS
10
63.4527
20
-58.8961
11
63.1193
21
-57.8961
0
LINE
8
BLACK
6
CONTINUOUS
10
63.1193
20
-57.8961
11
63.1155
21
-57.8703
0
LINE
8
BLACK
6
CONTINUOUS
10
63.1155
20
-57.8703
11
63.1344
21
-57.8226
0
LINE
8
BLACK
6
CONTINUOUS
10
63.1344
20
-57.8226
11
63.1795
21
-57.7982
0
LINE
8
BLACK
6
CONTINUOUS
10
63.1795
20
-57.7982
11
63.2297
21
-57.8085
0
LINE
8
BLACK
6
CONTINUOUS
10
216.817
20
-57.7588
11
216.851
21
-57.7972
0
LINE
8
BLACK
6
CONTINUOUS
10
216.851
20
-57.7972
11
216.852
21
-57.8485
0
LINE
8
BLACK
6
CONTINUOUS
10
216.852
20
-57.8485
11
216.647
21
-58.464
0
LINE
8
BLACK
6
CONTINUOUS
10
216.647
20
-58.464
11
216.944
21
-58.464
0
LINE
8
BLACK
6
CONTINUOUS
10
216.944
20
-58.464
11
216.944
21
-58.2057
0
LINE
8
BLACK
6
CONTINUOUS
10
216.944
20
-58.2057
11
216.949
21
-58.1801
0
LINE
8
BLACK
6
CONTINUOUS
10
216.949
20
-58.1801
11
216.982
21
-58.1408
0
LINE
8
BLACK
6
CONTINUOUS
10
216.982
20
-58.1408
11
217.032
21
-58.1319
0
LINE
8
BLACK
6
CONTINUOUS
10
217.032
20
-58.1319
11
217.076
21
-58.1575
0
LINE
8
BLACK
6
CONTINUOUS
10
217.076
20
-58.1575
11
217.094
21
-58.2057
0
LINE
8
BLACK
6
CONTINUOUS
10
217.094
20
-58.2057
11
217.094
21
-58.464
0
LINE
8
BLACK
6
CONTINUOUS
10
217.094
20
-58.464
11
217.162
21
-58.464
0
LINE
8
BLACK
6
CONTINUOUS
10
217.162
20
-58.464
11
217.188
21
-58.4686
0
LINE
8
BLACK
6
CONTINUOUS
10
217.188
20
-58.4686
11
217.227
21
-58.5015
0
LINE
8
BLACK
6
CONTINUOUS
10
217.227
20
-58.5015
11
217.236
21
-58.5521
0
LINE
8
BLACK
6
CONTINUOUS
10
217.236
20
-58.5521
11
217.21
21
-58.5965
0
LINE
8
BLACK
6
CONTINUOUS
10
217.21
20
-58.5965
11
217.162
21
-58.614
0
LINE
8
BLACK
6
CONTINUOUS
10
217.162
20
-58.614
11
217.094
21
-58.614
0
LINE
8
BLACK
6
CONTINUOUS
10
217.094
20
-58.614
11
217.094
21
-58.8724
0
LINE
8
BLACK
6
CONTINUOUS
10
217.094
20
-58.8724
11
217.09
21
-58.898
0
LINE
8
BLACK
6
CONTINUOUS
10
217.09
20
-58.898
11
217.057
21
-58.9373
0
LINE
8
BLACK
6
CONTINUOUS
10
217.057
20
-58.9373
11
217.006
21
-58.9462
0
LINE
8
BLACK
6
CONTINUOUS
10
217.006
20
-58.9462
11
216.962
21
-58.9206
0
LINE
8
BLACK
6
CONTINUOUS
10
216.962
20
-58.9206
11
216.944
21
-58.8724
0
LINE
8
BLACK
6
CONTINUOUS
10
216.944
20
-58.8724
11
216.944
21
-58.614
0
LINE
8
BLACK
6
CONTINUOUS
10
216.944
20
-58.614
11
216.543
21
-58.614
0
LINE
8
BLACK
6
CONTINUOUS
10
216.543
20
-58.614
11
216.517
21
-58.6095
0
LINE
8
BLACK
6
CONTINUOUS
10
216.517
20
-58.6095
11
216.513
21
-58.6058
0
LINE
8
BLACK
6
CONTINUOUS
10
216.513
20
-58.6058
11
216.507
21
-58.605
0
LINE
8
BLACK
6
CONTINUOUS
10
216.507
20
-58.605
11
216.494
21
-58.5897
0
LINE
8
BLACK
6
CONTINUOUS
10
216.494
20
-58.5897
11
216.478
21
-58.5765
0
LINE
8
BLACK
6
CONTINUOUS
10
216.478
20
-58.5765
11
216.477
21
-58.5709
0
LINE
8
BLACK
6
CONTINUOUS
10
216.477
20
-58.5709
11
216.473
21
-58.5666
0
LINE
8
BLACK
6
CONTINUOUS
10
216.473
20
-58.5666
11
216.473
21
-58.5462
0
LINE
8
BLACK
6
CONTINUOUS
10
216.473
20
-58.5462
11
216.469
21
-58.526
0
LINE
8
BLACK
6
CONTINUOUS
10
216.469
20
-58.526
11
216.472
21
-58.5211
0
LINE
8
BLACK
6
CONTINUOUS
10
216.472
20
-58.5211
11
216.472
21
-58.5153
0
LINE
8
BLACK
6
CONTINUOUS
10
216.472
20
-58.5153
11
216.71
21
-57.801
0
LINE
8
BLACK
6
CONTINUOUS
10
216.71
20
-57.801
11
216.722
21
-57.7781
0
LINE
8
BLACK
6
CONTINUOUS
10
216.722
20
-57.7781
11
216.766
21
-57.7513
0
LINE
8
BLACK
6
CONTINUOUS
10
216.766
20
-57.7513
11
216.817
21
-57.7588
0
LINE
8
BLACK
6
CONTINUOUS
10
215.14
20
-57.8019
11
215.143
21
-57.8048
0
LINE
8
BLACK
6
CONTINUOUS
10
215.143
20
-57.8048
11
215.148
21
-57.8053
0
LINE
8
BLACK
6
CONTINUOUS
10
215.148
20
-57.8053
11
215.243
21
-57.8529
0
LINE
8
BLACK
6
CONTINUOUS
10
215.243
20
-57.8529
11
215.261
21
-57.8663
0
LINE
8
BLACK
6
CONTINUOUS
10
215.261
20
-57.8663
11
215.263
21
-57.867
0
LINE
8
BLACK
6
CONTINUOUS
10
215.263
20
-57.867
11
215.31
21
-57.9146
0
LINE
8
BLACK
6
CONTINUOUS
10
215.31
20
-57.9146
11
215.323
21
-57.933
0
LINE
8
BLACK
6
CONTINUOUS
10
215.323
20
-57.933
11
215.324
21
-57.9341
0
LINE
8
BLACK
6
CONTINUOUS
10
215.324
20
-57.9341
11
215.372
21
-58.0293
0
LINE
8
BLACK
6
CONTINUOUS
10
215.372
20
-58.0293
11
215.379
21
-58.0543
0
LINE
8
BLACK
6
CONTINUOUS
10
215.379
20
-58.0543
11
215.378
21
-58.0586
0
LINE
8
BLACK
6
CONTINUOUS
10
215.378
20
-58.0586
11
215.38
21
-58.0629
0
LINE
8
BLACK
6
CONTINUOUS
10
215.38
20
-58.0629
11
215.38
21
-58.2057
0
LINE
8
BLACK
6
CONTINUOUS
10
215.38
20
-58.2057
11
215.375
21
-58.2314
0
LINE
8
BLACK
6
CONTINUOUS
10
215.375
20
-58.2314
11
215.372
21
-58.2348
0
LINE
8
BLACK
6
CONTINUOUS
10
215.372
20
-58.2348
11
215.372
21
-58.2393
0
LINE
8
BLACK
6
CONTINUOUS
10
215.372
20
-58.2393
11
215.324
21
-58.3345
0
LINE
8
BLACK
6
CONTINUOUS
10
215.324
20
-58.3345
11
215.311
21
-58.3525
0
LINE
8
BLACK
6
CONTINUOUS
10
215.311
20
-58.3525
11
215.31
21
-58.354
0
LINE
8
BLACK
6
CONTINUOUS
10
215.31
20
-58.354
11
215.263
21
-58.4016
0
LINE
8
BLACK
6
CONTINUOUS
10
215.263
20
-58.4016
11
215.244
21
-58.4145
0
LINE
8
BLACK
6
CONTINUOUS
10
215.244
20
-58.4145
11
215.243
21
-58.4157
0
LINE
8
BLACK
6
CONTINUOUS
10
215.243
20
-58.4157
11
215.148
21
-58.4633
0
LINE
8
BLACK
6
CONTINUOUS
10
215.148
20
-58.4633
11
215.123
21
-58.4707
0
LINE
8
BLACK
6
CONTINUOUS
10
215.123
20
-58.4707
11
215.118
21
-58.4697
0
LINE
8
BLACK
6
CONTINUOUS
10
215.118
20
-58.4697
11
215.115
21
-58.4708
0
LINE
8
BLACK
6
CONTINUOUS
10
215.115
20
-58.4708
11
215.366
21
-58.8294
0
LINE
8
BLACK
6
CONTINUOUS
10
215.366
20
-58.8294
11
215.377
21
-58.853
0
LINE
8
BLACK
6
CONTINUOUS
10
215.377
20
-58.853
11
215.373
21
-58.9041
0
LINE
8
BLACK
6
CONTINUOUS
10
215.373
20
-58.9041
11
215.336
21
-58.9404
0
LINE
8
BLACK
6
CONTINUOUS
10
215.336
20
-58.9404
11
215.285
21
-58.9448
0
LINE
8
BLACK
6
CONTINUOUS
10
215.285
20
-58.9448
11
215.243
21
-58.9154
0
LINE
8
BLACK
6
CONTINUOUS
10
215.243
20
-58.9154
11
214.932
21
-58.4712
0
LINE
8
BLACK
6
CONTINUOUS
10
214.932
20
-58.4712
11
214.808
21
-58.4712
0
LINE
8
BLACK
6
CONTINUOUS
10
214.808
20
-58.4712
11
214.808
21
-58.8724
0
LINE
8
BLACK
6
CONTINUOUS
10
214.808
20
-58.8724
11
214.804
21
-58.898
0
LINE
8
BLACK
6
CONTINUOUS
10
214.804
20
-58.898
11
214.771
21
-58.9373
0
LINE
8
BLACK
6
CONTINUOUS
10
214.771
20
-58.9373
11
214.72
21
-58.9462
0
LINE
8
BLACK
6
CONTINUOUS
10
214.72
20
-58.9462
11
214.676
21
-58.9206
0
LINE
8
BLACK
6
CONTINUOUS
10
214.676
20
-58.9206
11
214.658
21
-58.8724
0
LINE
8
BLACK
6
CONTINUOUS
10
214.658
20
-58.8724
11
214.658
21
-57.8724
0
LINE
8
BLACK
6
CONTINUOUS
10
214.658
20
-57.8724
11
214.66
21
-57.8626
0
LINE
8
BLACK
6
CONTINUOUS
10
214.66
20
-57.8626
11
214.659
21
-57.8594
0
LINE
8
BLACK
6
CONTINUOUS
10
214.659
20
-57.8594
11
214.661
21
-57.8565
0
LINE
8
BLACK
6
CONTINUOUS
10
214.661
20
-57.8565
11
214.663
21
-57.8467
0
LINE
8
BLACK
6
CONTINUOUS
10
214.663
20
-57.8467
11
214.675
21
-57.8318
0
LINE
8
BLACK
6
CONTINUOUS
10
214.675
20
-57.8318
11
214.685
21
-57.8149
0
LINE
8
BLACK
6
CONTINUOUS
10
214.685
20
-57.8149
11
214.691
21
-57.8126
0
LINE
8
BLACK
6
CONTINUOUS
10
214.691
20
-57.8126
11
214.696
21
-57.8074
0
LINE
8
BLACK
6
CONTINUOUS
10
214.696
20
-57.8074
11
214.715
21
-57.804
0
LINE
8
BLACK
6
CONTINUOUS
10
214.715
20
-57.804
11
214.733
21
-57.7974
0
LINE
8
BLACK
6
CONTINUOUS
10
214.733
20
-57.7974
11
215.114
21
-57.7974
0
LINE
8
BLACK
6
CONTINUOUS
10
215.114
20
-57.7974
11
215.14
21
-57.8019
0
LINE
8
BLACK
6
CONTINUOUS
10
214.808
20
-57.9474
11
214.808
21
-58.3212
0
LINE
8
BLACK
6
CONTINUOUS
10
214.808
20
-58.3212
11
215.097
21
-58.3212
0
LINE
8
BLACK
6
CONTINUOUS
10
215.097
20
-58.3212
11
215.165
21
-58.2869
0
LINE
8
BLACK
6
CONTINUOUS
10
215.165
20
-58.2869
11
215.196
21
-58.2565
0
LINE
8
BLACK
6
CONTINUOUS
10
215.196
20
-58.2565
11
215.23
21
-58.188
0
LINE
8
BLACK
6
CONTINUOUS
10
215.23
20
-58.188
11
215.23
21
-58.0806
0
LINE
8
BLACK
6
CONTINUOUS
10
215.23
20
-58.0806
11
215.196
21
-58.012
0
LINE
8
BLACK
6
CONTINUOUS
10
215.196
20
-58.012
11
215.165
21
-57.9816
0
LINE
8
BLACK
6
CONTINUOUS
10
215.165
20
-57.9816
11
215.097
21
-57.9474
0
LINE
8
BLACK
6
CONTINUOUS
10
215.097
20
-57.9474
11
214.808
21
-57.9474
0
LINE
8
BLACK
6
CONTINUOUS
10
62.7399
20
-57.8019
11
62.7434
21
-57.8048
0
LINE
8
BLACK
6
CONTINUOUS
10
62.7434
20
-57.8048
11
62.7478
21
-57.8053
0
LINE
8
BLACK
6
CONTINUOUS
10
62.7478
20
-57.8053
11
62.8431
21
-57.8529
0
LINE
8
BLACK
6
CONTINUOUS
10
62.8431
20
-57.8529
11
62.8611
21
-57.8663
0
LINE
8
BLACK
6
CONTINUOUS
10
62.8611
20
-57.8663
11
62.8626
21
-57.867
0
LINE
8
BLACK
6
CONTINUOUS
10
62.8626
20
-57.867
11
62.9102
21
-57.9146
0
LINE
8
BLACK
6
CONTINUOUS
10
62.9102
20
-57.9146
11
62.923
21
-57.933
0
LINE
8
BLACK
6
CONTINUOUS
10
62.923
20
-57.933
11
62.9242
21
-57.9341
0
LINE
8
BLACK
6
CONTINUOUS
10
62.9242
20
-57.9341
11
62.9718
21
-58.0293
0
LINE
8
BLACK
6
CONTINUOUS
10
62.9718
20
-58.0293
11
62.9793
21
-58.0543
0
LINE
8
BLACK
6
CONTINUOUS
10
62.9793
20
-58.0543
11
62.9782
21
-58.0586
0
LINE
8
BLACK
6
CONTINUOUS
10
62.9782
20
-58.0586
11
62.9798
21
-58.0629
0
LINE
8
BLACK
6
CONTINUOUS
10
62.9798
20
-58.0629
11
62.9798
21
-58.2057
0
LINE
8
BLACK
6
CONTINUOUS
10
62.9798
20
-58.2057
11
62.9752
21
-58.2314
0
LINE
8
BLACK
6
CONTINUOUS
10
62.9752
20
-58.2314
11
62.9724
21
-58.2348
0
LINE
8
BLACK
6
CONTINUOUS
10
62.9724
20
-58.2348
11
62.9718
21
-58.2393
0
LINE
8
BLACK
6
CONTINUOUS
10
62.9718
20
-58.2393
11
62.9242
21
-58.3345
0
LINE
8
BLACK
6
CONTINUOUS
10
62.9242
20
-58.3345
11
62.9109
21
-58.3525
0
LINE
8
BLACK
6
CONTINUOUS
10
62.9109
20
-58.3525
11
62.9102
21
-58.354
0
LINE
8
BLACK
6
CONTINUOUS
10
62.9102
20
-58.354
11
62.8626
21
-58.4016
0
LINE
8
BLACK
6
CONTINUOUS
10
62.8626
20
-58.4016
11
62.8442
21
-58.4145
0
LINE
8
BLACK
6
CONTINUOUS
10
62.8442
20
-58.4145
11
62.8431
21
-58.4157
0
LINE
8
BLACK
6
CONTINUOUS
10
62.8431
20
-58.4157
11
62.7478
21
-58.4633
0
LINE
8
BLACK
6
CONTINUOUS
10
62.7478
20
-58.4633
11
62.7229
21
-58.4707
0
LINE
8
BLACK
6
CONTINUOUS
10
62.7229
20
-58.4707
11
62.7185
21
-58.4697
0
LINE
8
BLACK
6
CONTINUOUS
10
62.7185
20
-58.4697
11
62.7152
21
-58.4708
0
LINE
8
BLACK
6
CONTINUOUS
10
62.7152
20
-58.4708
11
62.9662
21
-58.8294
0
LINE
8
BLACK
6
CONTINUOUS
10
62.9662
20
-58.8294
11
62.9772
21
-58.853
0
LINE
8
BLACK
6
CONTINUOUS
10
62.9772
20
-58.853
11
62.9727
21
-58.9041
0
LINE
8
BLACK
6
CONTINUOUS
10
62.9727
20
-58.9041
11
62.9364
21
-58.9404
0
LINE
8
BLACK
6
CONTINUOUS
10
62.9364
20
-58.9404
11
62.8853
21
-58.9448
0
LINE
8
BLACK
6
CONTINUOUS
10
62.8853
20
-58.9448
11
62.8433
21
-58.9154
0
LINE
8
BLACK
6
CONTINUOUS
10
62.8433
20
-58.9154
11
62.5324
21
-58.4712
0
LINE
8
BLACK
6
CONTINUOUS
10
62.5324
20
-58.4712
11
62.4083
21
-58.4712
0
LINE
8
BLACK
6
CONTINUOUS
10
62.4083
20
-58.4712
11
62.4083
21
-58.8724
0
LINE
8
BLACK
6
CONTINUOUS
10
62.4083
20
-58.8724
11
62.4038
21
-58.898
0
LINE
8
BLACK
6
CONTINUOUS
10
62.4038
20
-58.898
11
62.3708
21
-58.9373
0
LINE
8
BLACK
6
CONTINUOUS
10
62.3708
20
-58.9373
11
62.3203
21
-58.9462
0
LINE
8
BLACK
6
CONTINUOUS
10
62.3203
20
-58.9462
11
62.2759
21
-58.9206
0
LINE
8
BLACK
6
CONTINUOUS
10
62.2759
20
-58.9206
11
62.2583
21
-58.8724
0
LINE
8
BLACK
6
CONTINUOUS
10
62.2583
20
-58.8724
11
62.2583
21
-57.8724
0
LINE
8
BLACK
6
CONTINUOUS
10
62.2583
20
-57.8724
11
62.2601
21
-57.8626
0
LINE
8
BLACK
6
CONTINUOUS
10
62.2601
20
-57.8626
11
62.2595
21
-57.8594
0
LINE
8
BLACK
6
CONTINUOUS
10
62.2595
20
-57.8594
11
62.2611
21
-57.8565
0
LINE
8
BLACK
6
CONTINUOUS
10
62.2611
20
-57.8565
11
62.2629
21
-57.8467
0
LINE
8
BLACK
6
CONTINUOUS
10
62.2629
20
-57.8467
11
62.2754
21
-57.8318
0
LINE
8
BLACK
6
CONTINUOUS
10
62.2754
20
-57.8318
11
62.2851
21
-57.8149
0
LINE
8
BLACK
6
CONTINUOUS
10
62.2851
20
-57.8149
11
62.2915
21
-57.8126
0
LINE
8
BLACK
6
CONTINUOUS
10
62.2915
20
-57.8126
11
62.2958
21
-57.8074
0
LINE
8
BLACK
6
CONTINUOUS
10
62.2958
20
-57.8074
11
62.315
21
-57.804
0
LINE
8
BLACK
6
CONTINUOUS
10
62.315
20
-57.804
11
62.3333
21
-57.7974
0
LINE
8
BLACK
6
CONTINUOUS
10
62.3333
20
-57.7974
11
62.7143
21
-57.7974
0
LINE
8
BLACK
6
CONTINUOUS
10
62.7143
20
-57.7974
11
62.7399
21
-57.8019
0
LINE
8
BLACK
6
CONTINUOUS
10
62.4083
20
-57.9474
11
62.4083
21
-58.3212
0
LINE
8
BLACK
6
CONTINUOUS
10
62.4083
20
-58.3212
11
62.6966
21
-58.3212
0
LINE
8
BLACK
6
CONTINUOUS
10
62.6966
20
-58.3212
11
62.7651
21
-58.2869
0
LINE
8
BLACK
6
CONTINUOUS
10
62.7651
20
-58.2869
11
62.7955
21
-58.2565
0
LINE
8
BLACK
6
CONTINUOUS
10
62.7955
20
-58.2565
11
62.8298
21
-58.188
0
LINE
8
BLACK
6
CONTINUOUS
10
62.8298
20
-58.188
11
62.8298
21
-58.0806
0
LINE
8
BLACK
6
CONTINUOUS
10
62.8298
20
-58.0806
11
62.7955
21
-58.012
0
LINE
8
BLACK
6
CONTINUOUS
10
62.7955
20
-58.012
11
62.7651
21
-57.9816
0
LINE
8
BLACK
6
CONTINUOUS
10
62.7651
20
-57.9816
11
62.6966
21
-57.9474
0
LINE
8
BLACK
6
CONTINUOUS
10
62.6966
20
-57.9474
11
62.4083
21
-57.9474
0
LINE
8
BLACK
6
CONTINUOUS
10
63.7424
20
-52.7776
11
63.76
21
-52.82
0
LINE
8
BLACK
6
CONTINUOUS
10
63.76
20
-52.82
11
63.76
21
-57.48
0
LINE
8
BLACK
6
CONTINUOUS
10
63.76
20
-57.48
11
64.89
21
-57.48
0
LINE
8
BLACK
6
CONTINUOUS
10
64.89
20
-57.48
11
64.9324
21
-57.4976
0
LINE
8
BLACK
6
CONTINUOUS
10
64.9324
20
-57.4976
11
64.95
21
-57.54
0
LINE
8
BLACK
6
CONTINUOUS
10
64.95
20
-57.54
11
64.9324
21
-57.5824
0
LINE
8
BLACK
6
CONTINUOUS
10
64.9324
20
-57.5824
11
64.89
21
-57.6
0
LINE
8
BLACK
6
CONTINUOUS
10
64.89
20
-57.6
11
63.71
21
-57.6
0
LINE
8
BLACK
6
CONTINUOUS
10
63.71
20
-57.6
11
63.705
21
-57.5979
0
LINE
8
BLACK
6
CONTINUOUS
10
63.705
20
-57.5979
11
63.7
21
-57.6
0
LINE
8
BLACK
6
CONTINUOUS
10
63.7
20
-57.6
11
63.6576
21
-57.5824
0
LINE
8
BLACK
6
CONTINUOUS
10
63.6576
20
-57.5824
11
63.64
21
-57.54
0
LINE
8
BLACK
6
CONTINUOUS
10
63.64
20
-57.54
11
63.64
21
-52.82
0
LINE
8
BLACK
6
CONTINUOUS
10
63.64
20
-52.82
11
63.6576
21
-52.7776
0
LINE
8
BLACK
6
CONTINUOUS
10
63.6576
20
-52.7776
11
63.7
21
-52.76
0
LINE
8
BLACK
6
CONTINUOUS
10
63.7
20
-52.76
11
63.7424
21
-52.7776
0
LINE
8
BLACK
6
CONTINUOUS
10
71.9176
20
-57.5824
11
71.9
21
-57.54
0
LINE
8
BLACK
6
CONTINUOUS
10
71.9
20
-57.54
11
71.9176
21
-57.4976
0
LINE
8
BLACK
6
CONTINUOUS
10
71.9176
20
-57.4976
11
71.96
21
-57.48
0
LINE
8
BLACK
6
CONTINUOUS
10
71.96
20
-57.48
11
73.39
21
-57.48
0
LINE
8
BLACK
6
CONTINUOUS
10
73.39
20
-57.48
11
73.39
21
-52.82
0
LINE
8
BLACK
6
CONTINUOUS
10
73.39
20
-52.82
11
73.4076
21
-52.7776
0
LINE
8
BLACK
6
CONTINUOUS
10
73.4076
20
-52.7776
11
73.45
21
-52.76
0
LINE
8
BLACK
6
CONTINUOUS
10
73.45
20
-52.76
11
73.4924
21
-52.7776
0
LINE
8
BLACK
6
CONTINUOUS
10
73.4924
20
-52.7776
11
73.51
21
-52.82
0
LINE
8
BLACK
6
CONTINUOUS
10
73.51
20
-52.82
11
73.51
21
-57.54
0
LINE
8
BLACK
6
CONTINUOUS
10
73.51
20
-57.54
11
73.4924
21
-57.5824
0
LINE
8
BLACK
6
CONTINUOUS
10
73.4924
20
-57.5824
11
73.45
21
-57.6
0
LINE
8
BLACK
6
CONTINUOUS
10
73.45
20
-57.6
11
71.96
21
-57.6
0
LINE
8
BLACK
6
CONTINUOUS
10
71.96
20
-57.6
11
71.9176
21
-57.5824
0
LINE
8
BLACK
6
CONTINUOUS
10
220.232
20
-57.4976
11
220.25
21
-57.54
0
LINE
8
BLACK
6
CONTINUOUS
10
220.25
20
-57.54
11
220.232
21
-57.5824
0
LINE
8
BLACK
6
CONTINUOUS
10
220.232
20
-57.5824
11
220.19
21
-57.6
0
LINE
8
BLACK
6
CONTINUOUS
10
220.19
20
-57.6
11
219.66
21
-57.6
0
LINE
8
BLACK
6
CONTINUOUS
10
219.66
20
-57.6
11
219.618
21
-57.5824
0
LINE
8
BLACK
6
CONTINUOUS
10
219.618
20
-57.5824
11
219.6
21
-57.54
0
LINE
8
BLACK
6
CONTINUOUS
10
219.6
20
-57.54
11
219.618
21
-57.4976
0
LINE
8
BLACK
6
CONTINUOUS
10
219.618
20
-57.4976
11
219.66
21
-57.48
0
LINE
8
BLACK
6
CONTINUOUS
10
219.66
20
-57.48
11
220.19
21
-57.48
0
LINE
8
BLACK
6
CONTINUOUS
10
220.19
20
-57.48
11
220.232
21
-57.4976
0
LINE
8
BLACK
6
CONTINUOUS
10
222.682
20
-57.4976
11
222.7
21
-57.54
0
LINE
8
BLACK
6
CONTINUOUS
10
222.7
20
-57.54
11
222.682
21
-57.5824
0
LINE
8
BLACK
6
CONTINUOUS
10
222.682
20
-57.5824
11
222.64
21
-57.6
0
LINE
8
BLACK
6
CONTINUOUS
10
222.64
20
-57.6
11
221.81
21
-57.6
0
LINE
8
BLACK
6
CONTINUOUS
10
221.81
20
-57.6
11
221.768
21
-57.5824
0
LINE
8
BLACK
6
CONTINUOUS
10
221.768
20
-57.5824
11
221.75
21
-57.54
0
LINE
8
BLACK
6
CONTINUOUS
10
221.75
20
-57.54
11
221.768
21
-57.4976
0
LINE
8
BLACK
6
CONTINUOUS
10
221.768
20
-57.4976
11
221.81
21
-57.48
0
LINE
8
BLACK
6
CONTINUOUS
10
221.81
20
-57.48
11
222.64
21
-57.48
0
LINE
8
BLACK
6
CONTINUOUS
10
222.64
20
-57.48
11
222.682
21
-57.4976
0
LINE
8
BLACK
6
CONTINUOUS
10
224.318
20
-57.5824
11
224.3
21
-57.54
0
LINE
8
BLACK
6
CONTINUOUS
10
224.3
20
-57.54
11
224.318
21
-57.4976
0
LINE
8
BLACK
6
CONTINUOUS
10
224.318
20
-57.4976
11
224.36
21
-57.48
0
LINE
8
BLACK
6
CONTINUOUS
10
224.36
20
-57.48
11
225.79
21
-57.48
0
LINE
8
BLACK
6
CONTINUOUS
10
225.79
20
-57.48
11
225.79
21
-52.82
0
LINE
8
BLACK
6
CONTINUOUS
10
225.79
20
-52.82
11
225.808
21
-52.7776
0
LINE
8
BLACK
6
CONTINUOUS
10
225.808
20
-52.7776
11
225.85
21
-52.76
0
LINE
8
BLACK
6
CONTINUOUS
10
225.85
20
-52.76
11
225.892
21
-52.7776
0
LINE
8
BLACK
6
CONTINUOUS
10
225.892
20
-52.7776
11
225.91
21
-52.82
0
LINE
8
BLACK
6
CONTINUOUS
10
225.91
20
-52.82
11
225.91
21
-57.54
0
LINE
8
BLACK
6
CONTINUOUS
10
225.91
20
-57.54
11
225.892
21
-57.5824
0
LINE
8
BLACK
6
CONTINUOUS
10
225.892
20
-57.5824
11
225.85
21
-57.6
0
LINE
8
BLACK
6
CONTINUOUS
10
225.85
20
-57.6
11
224.36
21
-57.6
0
LINE
8
BLACK
6
CONTINUOUS
10
224.36
20
-57.6
11
224.318
21
-57.5824
0
LINE
8
BLACK
6
CONTINUOUS
10
67.8324
20
-57.4976
11
67.85
21
-57.54
0
LINE
8
BLACK
6
CONTINUOUS
10
67.85
20
-57.54
11
67.8324
21
-57.5824
0
LINE
8
BLACK
6
CONTINUOUS
10
67.8324
20
-57.5824
11
67.79
21
-57.6
0
LINE
8
BLACK
6
CONTINUOUS
10
67.79
20
-57.6
11
67.26
21
-57.6
0
LINE
8
BLACK
6
CONTINUOUS
10
67.26
20
-57.6
11
67.2176
21
-57.5824
0
LINE
8
BLACK
6
CONTINUOUS
10
67.2176
20
-57.5824
11
67.2
21
-57.54
0
LINE
8
BLACK
6
CONTINUOUS
10
67.2
20
-57.54
11
67.2176
21
-57.4976
0
LINE
8
BLACK
6
CONTINUOUS
10
67.2176
20
-57.4976
11
67.26
21
-57.48
0
LINE
8
BLACK
6
CONTINUOUS
10
67.26
20
-57.48
11
67.79
21
-57.48
0
LINE
8
BLACK
6
CONTINUOUS
10
67.79
20
-57.48
11
67.8324
21
-57.4976
0
LINE
8
BLACK
6
CONTINUOUS
10
70.2824
20
-57.4976
11
70.3
21
-57.54
0
LINE
8
BLACK
6
CONTINUOUS
10
70.3
20
-57.54
11
70.2824
21
-57.5824
0
LINE
8
BLACK
6
CONTINUOUS
10
70.2824
20
-57.5824
11
70.24
21
-57.6
0
LINE
8
BLACK
6
CONTINUOUS
10
70.24
20
-57.6
11
69.41
21
-57.6
0
LINE
8
BLACK
6
CONTINUOUS
10
69.41
20
-57.6
11
69.3676
21
-57.5824
0
LINE
8
BLACK
6
CONTINUOUS
10
69.3676
20
-57.5824
11
69.35
21
-57.54
0
LINE
8
BLACK
6
CONTINUOUS
10
69.35
20
-57.54
11
69.3676
21
-57.4976
0
LINE
8
BLACK
6
CONTINUOUS
10
69.3676
20
-57.4976
11
69.41
21
-57.48
0
LINE
8
BLACK
6
CONTINUOUS
10
69.41
20
-57.48
11
70.24
21
-57.48
0
LINE
8
BLACK
6
CONTINUOUS
10
70.24
20
-57.48
11
70.2824
21
-57.4976
0
LINE
8
BLACK
6
CONTINUOUS
10
216.142
20
-52.7776
11
216.16
21
-52.82
0
LINE
8
BLACK
6
CONTINUOUS
10
216.16
20
-52.82
11
216.16
21
-57.48
0
LINE
8
BLACK
6
CONTINUOUS
10
216.16
20
-57.48
11
217.29
21
-57.48
0
LINE
8
BLACK
6
CONTINUOUS
10
217.29
20
-57.48
11
217.332
21
-57.4976
0
LINE
8
BLACK
6
CONTINUOUS
10
217.332
20
-57.4976
11
217.35
21
-57.54
0
LINE
8
BLACK
6
CONTINUOUS
10
217.35
20
-57.54
11
217.332
21
-57.5824
0
LINE
8
BLACK
6
CONTINUOUS
10
217.332
20
-57.5824
11
217.29
21
-57.6
0
LINE
8
BLACK
6
CONTINUOUS
10
217.29
20
-57.6
11
216.11
21
-57.6
0
LINE
8
BLACK
6
CONTINUOUS
10
216.11
20
-57.6
11
216.105
21
-57.5979
0
LINE
8
BLACK
6
CONTINUOUS
10
216.105
20
-57.5979
11
216.1
21
-57.6
0
LINE
8
BLACK
6
CONTINUOUS
10
216.1
20
-57.6
11
216.058
21
-57.5824
0
LINE
8
BLACK
6
CONTINUOUS
10
216.058
20
-57.5824
11
216.04
21
-57.54
0
LINE
8
BLACK
6
CONTINUOUS
10
216.04
20
-57.54
11
216.04
21
-52.82
0
LINE
8
BLACK
6
CONTINUOUS
10
216.04
20
-52.82
11
216.058
21
-52.7776
0
LINE
8
BLACK
6
CONTINUOUS
10
216.058
20
-52.7776
11
216.1
21
-52.76
0
LINE
8
BLACK
6
CONTINUOUS
10
216.1
20
-52.76
11
216.142
21
-52.7776
0
LINE
8
BLACK
6
CONTINUOUS
10
73.4924
20
-45.9076
11
73.51
21
-45.95
0
LINE
8
BLACK
6
CONTINUOUS
10
73.51
20
-45.95
11
73.51
21
-49.01
0
LINE
8
BLACK
6
CONTINUOUS
10
73.51
20
-49.01
11
73.4924
21
-49.0524
0
LINE
8
BLACK
6
CONTINUOUS
10
73.4924
20
-49.0524
11
73.45
21
-49.07
0
LINE
8
BLACK
6
CONTINUOUS
10
73.45
20
-49.07
11
73.4076
21
-49.0524
0
LINE
8
BLACK
6
CONTINUOUS
10
73.4076
20
-49.0524
11
73.39
21
-49.01
0
LINE
8
BLACK
6
CONTINUOUS
10
73.39
20
-49.01
11
73.39
21
-46.01
0
LINE
8
BLACK
6
CONTINUOUS
10
73.39
20
-46.01
11
63.77
21
-46.01
0
LINE
8
BLACK
6
CONTINUOUS
10
63.77
20
-46.01
11
63.77
21
-49.01
0
LINE
8
BLACK
6
CONTINUOUS
10
63.77
20
-49.01
11
63.7524
21
-49.0524
0
LINE
8
BLACK
6
CONTINUOUS
10
63.7524
20
-49.0524
11
63.71
21
-49.07
0
LINE
8
BLACK
6
CONTINUOUS
10
63.71
20
-49.07
11
63.6676
21
-49.0524
0
LINE
8
BLACK
6
CONTINUOUS
10
63.6676
20
-49.0524
11
63.65
21
-49.01
0
LINE
8
BLACK
6
CONTINUOUS
10
63.65
20
-49.01
11
63.65
21
-45.95
0
LINE
8
BLACK
6
CONTINUOUS
10
63.65
20
-45.95
11
63.6676
21
-45.9076
0
LINE
8
BLACK
6
CONTINUOUS
10
63.6676
20
-45.9076
11
63.71
21
-45.89
0
LINE
8
BLACK
6
CONTINUOUS
10
63.71
20
-45.89
11
73.45
21
-45.89
0
LINE
8
BLACK
6
CONTINUOUS
10
73.45
20
-45.89
11
73.4924
21
-45.9076
0
LINE
8
BLACK
6
CONTINUOUS
10
225.892
20
-45.9076
11
225.91
21
-45.95
0
LINE
8
BLACK
6
CONTINUOUS
10
225.91
20
-45.95
11
225.91
21
-49.01
0
LINE
8
BLACK
6
CONTINUOUS
10
225.91
20
-49.01
11
225.892
21
-49.0524
0
LINE
8
BLACK
6
CONTINUOUS
10
225.892
20
-49.0524
11
225.85
21
-49.07
0
LINE
8
BLACK
6
CONTINUOUS
10
225.85
20
-49.07
11
225.808
21
-49.0524
0
LINE
8
BLACK
6
CONTINUOUS
10
225.808
20
-49.0524
11
225.79
21
-49.01
0
LINE
8
BLACK
6
CONTINUOUS
10
225.79
20
-49.01
11
225.79
21
-46.01
0
LINE
8
BLACK
6
CONTINUOUS
10
225.79
20
-46.01
11
216.17
21
-46.01
0
LINE
8
BLACK
6
CONTINUOUS
10
216.17
20
-46.01
11
216.17
21
-49.01
0
LINE
8
BLACK
6
CONTINUOUS
10
216.17
20
-49.01
11
216.152
21
-49.0524
0
LINE
8
BLACK
6
CONTINUOUS
10
216.152
20
-49.0524
11
216.11
21
-49.07
0
LINE
8
BLACK
6
CONTINUOUS
10
216.11
20
-49.07
11
216.068
21
-49.0524
0
LINE
8
BLACK
6
CONTINUOUS
10
216.068
20
-49.0524
11
216.05
21
-49.01
0
LINE
8
BLACK
6
CONTINUOUS
10
216.05
20
-49.01
11
216.05
21
-45.95
0
LINE
8
BLACK
6
CONTINUOUS
10
216.05
20
-45.95
11
216.068
21
-45.9076
0
LINE
8
BLACK
6
CONTINUOUS
10
216.068
20
-45.9076
11
216.11
21
-45.89
0
LINE
8
BLACK
6
CONTINUOUS
10
216.11
20
-45.89
11
225.85
21
-45.89
0
LINE
8
BLACK
6
CONTINUOUS
10
225.85
20
-45.89
11
225.892
21
-45.9076
0
LINE
8
BLACK
6
CONTINUOUS
10
72.8359
20
-107.64
11
72.8775
21
-107.496
0
LINE
8
BLACK
6
CONTINUOUS
10
72.8775
20
-107.496
11
72.9562
21
-107.369
0
LINE
8
BLACK
6
CONTINUOUS
10
72.9562
20
-107.369
11
73.0661
21
-107.268
0
LINE
8
BLACK
6
CONTINUOUS
10
73.0661
20
-107.268
11
73.1991
21
-107.201
0
LINE
8
BLACK
6
CONTINUOUS
10
73.1991
20
-107.201
11
73.3455
21
-107.171
0
LINE
8
BLACK
6
CONTINUOUS
10
73.3455
20
-107.171
11
73.4944
21
-107.182
0
LINE
8
BLACK
6
CONTINUOUS
10
73.4944
20
-107.182
11
73.6348
21
-107.233
0
LINE
8
BLACK
6
CONTINUOUS
10
73.6348
20
-107.233
11
73.7565
21
-107.319
0
LINE
8
BLACK
6
CONTINUOUS
10
73.7565
20
-107.319
11
73.8504
21
-107.435
0
LINE
8
BLACK
6
CONTINUOUS
10
73.8504
20
-107.435
11
73.9097
21
-107.572
0
LINE
8
BLACK
6
CONTINUOUS
10
73.9097
20
-107.572
11
73.93
21
-107.72
0
LINE
8
BLACK
6
CONTINUOUS
10
73.93
20
-107.72
11
73.93
21
-108.42
0
LINE
8
BLACK
6
CONTINUOUS
10
73.93
20
-108.42
11
73.9241
21
-108.5
0
LINE
8
BLACK
6
CONTINUOUS
10
73.9241
20
-108.5
11
73.8824
21
-108.644
0
LINE
8
BLACK
6
CONTINUOUS
10
73.8824
20
-108.644
11
73.8038
21
-108.771
0
LINE
8
BLACK
6
CONTINUOUS
10
73.8038
20
-108.771
11
73.6939
21
-108.872
0
LINE
8
BLACK
6
CONTINUOUS
10
73.6939
20
-108.872
11
73.5609
21
-108.939
0
LINE
8
BLACK
6
CONTINUOUS
10
73.5609
20
-108.939
11
73.4145
21
-108.969
0
LINE
8
BLACK
6
CONTINUOUS
10
73.4145
20
-108.969
11
73.2656
21
-108.958
0
LINE
8
BLACK
6
CONTINUOUS
10
73.2656
20
-108.958
11
73.1252
21
-108.907
0
LINE
8
BLACK
6
CONTINUOUS
10
73.1252
20
-108.907
11
73.0035
21
-108.821
0
LINE
8
BLACK
6
CONTINUOUS
10
73.0035
20
-108.821
11
72.9095
21
-108.705
0
LINE
8
BLACK
6
CONTINUOUS
10
72.9095
20
-108.705
11
72.8503
21
-108.568
0
LINE
8
BLACK
6
CONTINUOUS
10
72.8503
20
-108.568
11
72.83
21
-108.42
0
LINE
8
BLACK
6
CONTINUOUS
10
72.83
20
-108.42
11
72.83
21
-107.72
0
LINE
8
BLACK
6
CONTINUOUS
10
72.83
20
-107.72
11
72.8359
21
-107.64
0
LINE
8
BLACK
6
CONTINUOUS
10
63.2359
20
-107.64
11
63.2775
21
-107.496
0
LINE
8
BLACK
6
CONTINUOUS
10
63.2775
20
-107.496
11
63.3562
21
-107.369
0
LINE
8
BLACK
6
CONTINUOUS
10
63.3562
20
-107.369
11
63.4661
21
-107.268
0
LINE
8
BLACK
6
CONTINUOUS
10
63.4661
20
-107.268
11
63.5991
21
-107.201
0
LINE
8
BLACK
6
CONTINUOUS
10
63.5991
20
-107.201
11
63.7455
21
-107.171
0
LINE
8
BLACK
6
CONTINUOUS
10
63.7455
20
-107.171
11
63.8944
21
-107.182
0
LINE
8
BLACK
6
CONTINUOUS
10
63.8944
20
-107.182
11
64.0348
21
-107.233
0
LINE
8
BLACK
6
CONTINUOUS
10
64.0348
20
-107.233
11
64.1565
21
-107.319
0
LINE
8
BLACK
6
CONTINUOUS
10
64.1565
20
-107.319
11
64.2505
21
-107.435
0
LINE
8
BLACK
6
CONTINUOUS
10
64.2505
20
-107.435
11
64.3097
21
-107.572
0
LINE
8
BLACK
6
CONTINUOUS
10
64.3097
20
-107.572
11
64.33
21
-107.72
0
LINE
8
BLACK
6
CONTINUOUS
10
64.33
20
-107.72
11
64.33
21
-108.42
0
LINE
8
BLACK
6
CONTINUOUS
10
64.33
20
-108.42
11
64.3241
21
-108.5
0
LINE
8
BLACK
6
CONTINUOUS
10
64.3241
20
-108.5
11
64.2824
21
-108.644
0
LINE
8
BLACK
6
CONTINUOUS
10
64.2824
20
-108.644
11
64.2038
21
-108.771
0
LINE
8
BLACK
6
CONTINUOUS
10
64.2038
20
-108.771
11
64.0939
21
-108.872
0
LINE
8
BLACK
6
CONTINUOUS
10
64.0939
20
-108.872
11
63.9609
21
-108.939
0
LINE
8
BLACK
6
CONTINUOUS
10
63.9609
20
-108.939
11
63.8145
21
-108.969
0
LINE
8
BLACK
6
CONTINUOUS
10
63.8145
20
-108.969
11
63.6656
21
-108.958
0
LINE
8
BLACK
6
CONTINUOUS
10
63.6656
20
-108.958
11
63.5252
21
-108.907
0
LINE
8
BLACK
6
CONTINUOUS
10
63.5252
20
-108.907
11
63.4035
21
-108.821
0
LINE
8
BLACK
6
CONTINUOUS
10
63.4035
20
-108.821
11
63.3095
21
-108.705
0
LINE
8
BLACK
6
CONTINUOUS
10
63.3095
20
-108.705
11
63.2503
21
-108.568
0
LINE
8
BLACK
6
CONTINUOUS
10
63.2503
20
-108.568
11
63.23
21
-108.42
0
LINE
8
BLACK
6
CONTINUOUS
10
63.23
20
-108.42
11
63.23
21
-107.72
0
LINE
8
BLACK
6
CONTINUOUS
10
63.23
20
-107.72
11
63.2359
21
-107.64
0
CIRCLE
8
BLACK
10
66.08
20
-115.57
40
0.5
0
CIRCLE
8
BLACK
10
68.58
20
-115.57
40
0.5
0
CIRCLE
8
BLACK
10
71.08
20
-115.57
40
0.5
0
LINE
8
BLACK
6
CONTINUOUS
10
72.8359
20
-50.4897
11
72.8775
21
-50.3463
0
LINE
8
BLACK
6
CONTINUOUS
10
72.8775
20
-50.3463
11
72.9562
21
-50.2194
0
LINE
8
BLACK
6
CONTINUOUS
10
72.9562
20
-50.2194
11
73.0661
21
-50.1184
0
LINE
8
BLACK
6
CONTINUOUS
10
73.0661
20
-50.1184
11
73.1991
21
-50.0506
0
LINE
8
BLACK
6
CONTINUOUS
10
73.1991
20
-50.0506
11
73.3455
21
-50.0211
0
LINE
8
BLACK
6
CONTINUOUS
10
73.3455
20
-50.0211
11
73.4944
21
-50.032
0
LINE
8
BLACK
6
CONTINUOUS
10
73.4944
20
-50.032
11
73.6348
21
-50.0826
0
LINE
8
BLACK
6
CONTINUOUS
10
73.6348
20
-50.0826
11
73.7565
21
-50.1691
0
LINE
8
BLACK
6
CONTINUOUS
10
73.7565
20
-50.1691
11
73.8504
21
-50.2851
0
LINE
8
BLACK
6
CONTINUOUS
10
73.8504
20
-50.2851
11
73.9097
21
-50.4221
0
LINE
8
BLACK
6
CONTINUOUS
10
73.9097
20
-50.4221
11
73.93
21
-50.57
0
LINE
8
BLACK
6
CONTINUOUS
10
73.93
20
-50.57
11
73.93
21
-51.27
0
LINE
8
BLACK
6
CONTINUOUS
10
73.93
20
-51.27
11
73.9241
21
-51.3503
0
LINE
8
BLACK
6
CONTINUOUS
10
73.9241
20
-51.3503
11
73.8824
21
-51.4937
0
LINE
8
BLACK
6
CONTINUOUS
10
73.8824
20
-51.4937
11
73.8038
21
-51.6206
0
LINE
8
BLACK
6
CONTINUOUS
10
73.8038
20
-51.6206
11
73.6939
21
-51.7216
0
LINE
8
BLACK
6
CONTINUOUS
10
73.6939
20
-51.7216
11
73.5609
21
-51.7894
0
LINE
8
BLACK
6
CONTINUOUS
10
73.5609
20
-51.7894
11
73.4145
21
-51.8189
0
LINE
8
BLACK
6
CONTINUOUS
10
73.4145
20
-51.8189
11
73.2656
21
-51.808
0
LINE
8
BLACK
6
CONTINUOUS
10
73.2656
20
-51.808
11
73.1252
21
-51.7574
0
LINE
8
BLACK
6
CONTINUOUS
10
73.1252
20
-51.7574
11
73.0035
21
-51.6709
0
LINE
8
BLACK
6
CONTINUOUS
10
73.0035
20
-51.6709
11
72.9095
21
-51.5549
0
LINE
8
BLACK
6
CONTINUOUS
10
72.9095
20
-51.5549
11
72.8503
21
-51.4179
0
LINE
8
BLACK
6
CONTINUOUS
10
72.8503
20
-51.4179
11
72.83
21
-51.27
0
LINE
8
BLACK
6
CONTINUOUS
10
72.83
20
-51.27
11
72.83
21
-50.57
0
LINE
8
BLACK
6
CONTINUOUS
10
72.83
20
-50.57
11
72.8359
21
-50.4897
0
LINE
8
BLACK
6
CONTINUOUS
10
63.2359
20
-50.4897
11
63.2775
21
-50.3463
0
LINE
8
BLACK
6
CONTINUOUS
10
63.2775
20
-50.3463
11
63.3562
21
-50.2194
0
LINE
8
BLACK
6
CONTINUOUS
10
63.3562
20
-50.2194
11
63.4661
21
-50.1184
0
LINE
8
BLACK
6
CONTINUOUS
10
63.4661
20
-50.1184
11
63.5991
21
-50.0506
0
LINE
8
BLACK
6
CONTINUOUS
10
63.5991
20
-50.0506
11
63.7455
21
-50.0211
0
LINE
8
BLACK
6
CONTINUOUS
10
63.7455
20
-50.0211
11
63.8944
21
-50.032
0
LINE
8
BLACK
6
CONTINUOUS
10
63.8944
20
-50.032
11
64.0348
21
-50.0826
0
LINE
8
BLACK
6
CONTINUOUS
10
64.0348
20
-50.0826
11
64.1565
21
-50.1691
0
LINE
8
BLACK
6
CONTINUOUS
10
64.1565
20
-50.1691
11
64.2505
21
-50.2851
0
LINE
8
BLACK
6
CONTINUOUS
10
64.2505
20
-50.2851
11
64.3097
21
-50.4221
0
LINE
8
BLACK
6
CONTINUOUS
10
64.3097
20
-50.4221
11
64.33
21
-50.57
0
LINE
8
BLACK
6
CONTINUOUS
10
64.33
20
-50.57
11
64.33
21
-51.27
0
LINE
8
BLACK
6
CONTINUOUS
10
64.33
20
-51.27
11
64.3241
21
-51.3503
0
LINE
8
BLACK
6
CONTINUOUS
10
64.3241
20
-51.3503
11
64.2824
21
-51.4937
0
LINE
8
BLACK
6
CONTINUOUS
10
64.2824
20
-51.4937
11
64.2038
21
-51.6206
0
LINE
8
BLACK
6
CONTINUOUS
10
64.2038
20
-51.6206
11
64.0939
21
-51.7216
0
LINE
8
BLACK
6
CONTINUOUS
10
64.0939
20
-51.7216
11
63.9609
21
-51.7894
0
LINE
8
BLACK
6
CONTINUOUS
10
63.9609
20
-51.7894
11
63.8145
21
-51.8189
0
LINE
8
BLACK
6
CONTINUOUS
10
63.8145
20
-51.8189
11
63.6656
21
-51.808
0
LINE
8
BLACK
6
CONTINUOUS
10
63.6656
20
-51.808
11
63.5252
21
-51.7574
0
LINE
8
BLACK
6
CONTINUOUS
10
63.5252
20
-51.7574
11
63.4035
21
-51.6709
0
LINE
8
BLACK
6
CONTINUOUS
10
63.4035
20
-51.6709
11
63.3095
21
-51.5549
0
LINE
8
BLACK
6
CONTINUOUS
10
63.3095
20
-51.5549
11
63.2503
21
-51.4179
0
LINE
8
BLACK
6
CONTINUOUS
10
63.2503
20
-51.4179
11
63.23
21
-51.27
0
LINE
8
BLACK
6
CONTINUOUS
10
63.23
20
-51.27
11
63.23
21
-50.57
0
LINE
8
BLACK
6
CONTINUOUS
10
63.23
20
-50.57
11
63.2359
21
-50.4897
0
CIRCLE
8
BLACK
10
66.08
20
-58.42
40
0.5
0
CIRCLE
8
BLACK
10
68.58
20
-58.42
40
0.5
0
CIRCLE
8
BLACK
10
71.08
20
-58.42
40
0.5
0
LINE
8
BLACK
6
CONTINUOUS
10
139.436
20
-79.0647
11
139.478
21
-78.9213
0
LINE
8
BLACK
6
CONTINUOUS
10
139.478
20
-78.9213
11
139.556
21
-78.7944
0
LINE
8
BLACK
6
CONTINUOUS
10
139.556
20
-78.7944
11
139.666
21
-78.6934
0
LINE
8
BLACK
6
CONTINUOUS
10
139.666
20
-78.6934
11
139.799
21
-78.6256
0
LINE
8
BLACK
6
CONTINUOUS
10
139.799
20
-78.6256
11
139.945
21
-78.5961
0
LINE
8
BLACK
6
CONTINUOUS
10
139.945
20
-78.5961
11
140.094
21
-78.607
0
LINE
8
BLACK
6
CONTINUOUS
10
140.094
20
-78.607
11
140.235
21
-78.6576
0
LINE
8
BLACK
6
CONTINUOUS
10
140.235
20
-78.6576
11
140.357
21
-78.7441
0
LINE
8
BLACK
6
CONTINUOUS
10
140.357
20
-78.7441
11
140.45
21
-78.8601
0
LINE
8
BLACK
6
CONTINUOUS
10
140.45
20
-78.8601
11
140.51
21
-78.9971
0
LINE
8
BLACK
6
CONTINUOUS
10
140.51
20
-78.9971
11
140.53
21
-79.145
0
LINE
8
BLACK
6
CONTINUOUS
10
140.53
20
-79.145
11
140.53
21
-79.845
0
LINE
8
BLACK
6
CONTINUOUS
10
140.53
20
-79.845
11
140.524
21
-79.9253
0
LINE
8
BLACK
6
CONTINUOUS
10
140.524
20
-79.9253
11
140.482
21
-80.0687
0
LINE
8
BLACK
6
CONTINUOUS
10
140.482
20
-80.0687
11
140.404
21
-80.1956
0
LINE
8
BLACK
6
CONTINUOUS
10
140.404
20
-80.1956
11
140.294
21
-80.2966
0
LINE
8
BLACK
6
CONTINUOUS
10
140.294
20
-80.2966
11
140.161
21
-80.3644
0
LINE
8
BLACK
6
CONTINUOUS
10
140.161
20
-80.3644
11
140.015
21
-80.3939
0
LINE
8
BLACK
6
CONTINUOUS
10
140.015
20
-80.3939
11
139.866
21
-80.383
0
LINE
8
BLACK
6
CONTINUOUS
10
139.866
20
-80.383
11
139.725
21
-80.3324
0
LINE
8
BLACK
6
CONTINUOUS
10
139.725
20
-80.3324
11
139.603
21
-80.2459
0
LINE
8
BLACK
6
CONTINUOUS
10
139.603
20
-80.2459
11
139.51
21
-80.1299
0
LINE
8
BLACK
6
CONTINUOUS
10
139.51
20
-80.1299
11
139.45
21
-79.9929
0
LINE
8
BLACK
6
CONTINUOUS
10
139.45
20
-79.9929
11
139.43
21
-79.845
0
LINE
8
BLACK
6
CONTINUOUS
10
139.43
20
-79.845
11
139.43
21
-79.145
0
LINE
8
BLACK
6
CONTINUOUS
10
139.43
20
-79.145
11
139.436
21
-79.0647
0
LINE
8
BLACK
6
CONTINUOUS
10
149.036
20
-79.0647
11
149.078
21
-78.9213
0
LINE
8
BLACK
6
CONTINUOUS
10
149.078
20
-78.9213
11
149.156
21
-78.7944
0
LINE
8
BLACK
6
CONTINUOUS
10
149.156
20
-78.7944
11
149.266
21
-78.6934
0
LINE
8
BLACK
6
CONTINUOUS
10
149.266
20
-78.6934
11
149.399
21
-78.6256
0
LINE
8
BLACK
6
CONTINUOUS
10
149.399
20
-78.6256
11
149.545
21
-78.5961
0
LINE
8
BLACK
6
CONTINUOUS
10
149.545
20
-78.5961
11
149.694
21
-78.607
0
LINE
8
BLACK
6
CONTINUOUS
10
149.694
20
-78.607
11
149.835
21
-78.6576
0
LINE
8
BLACK
6
CONTINUOUS
10
149.835
20
-78.6576
11
149.957
21
-78.7441
0
LINE
8
BLACK
6
CONTINUOUS
10
149.957
20
-78.7441
11
150.05
21
-78.8601
0
LINE
8
BLACK
6
CONTINUOUS
10
150.05
20
-78.8601
11
150.11
21
-78.9971
0
LINE
8
BLACK
6
CONTINUOUS
10
150.11
20
-78.9971
11
150.13
21
-79.145
0
LINE
8
BLACK
6
CONTINUOUS
10
150.13
20
-79.145
11
150.13
21
-79.845
0
LINE
8
BLACK
6
CONTINUOUS
10
150.13
20
-79.845
11
150.124
21
-79.9253
0
LINE
8
BLACK
6
CONTINUOUS
10
150.124
20
-79.9253
11
150.082
21
-80.0687
0
LINE
8
BLACK
6
CONTINUOUS
10
150.082
20
-80.0687
11
150.004
21
-80.1956
0
LINE
8
BLACK
6
CONTINUOUS
10
150.004
20
-80.1956
11
149.894
21
-80.2966
0
LINE
8
BLACK
6
CONTINUOUS
10
149.894
20
-80.2966
11
149.761
21
-80.3644
0
LINE
8
BLACK
6
CONTINUOUS
10
149.761
20
-80.3644
11
149.615
21
-80.3939
0
LINE
8
BLACK
6
CONTINUOUS
10
149.615
20
-80.3939
11
149.466
21
-80.383
0
LINE
8
BLACK
6
CONTINUOUS
10
149.466
20
-80.383
11
149.325
21
-80.3324
0
LINE
8
BLACK
6
CONTINUOUS
10
149.325
20
-80.3324
11
149.203
21
-80.2459
0
LINE
8
BLACK
6
CONTINUOUS
10
149.203
20
-80.2459
11
149.11
21
-80.1299
0
LINE
8
BLACK
6
CONTINUOUS
10
149.11
20
-80.1299
11
149.05
21
-79.9929
0
LINE
8
BLACK
6
CONTINUOUS
10
149.05
20
-79.9929
11
149.03
21
-79.845
0
LINE
8
BLACK
6
CONTINUOUS
10
149.03
20
-79.845
11
149.03
21
-79.145
0
LINE
8
BLACK
6
CONTINUOUS
10
149.03
20
-79.145
11
149.036
21
-79.0647
0
CIRCLE
8
BLACK
10
142.28
20
-86.995
40
0.5
0
CIRCLE
8
BLACK
10
144.78
20
-86.995
40
0.5
0
CIRCLE
8
BLACK
10
147.28
20
-86.995
40
0.5
0
LINE
8
BLACK
6
CONTINUOUS
10
149.036
20
-136.215
11
149.078
21
-136.071
0
LINE
8
BLACK
6
CONTINUOUS
10
149.078
20
-136.071
11
149.156
21
-135.944
0
LINE
8
BLACK
6
CONTINUOUS
10
149.156
20
-135.944
11
149.266
21
-135.843
0
LINE
8
BLACK
6
CONTINUOUS
10
149.266
20
-135.843
11
149.399
21
-135.776
0
LINE
8
BLACK
6
CONTINUOUS
10
149.399
20
-135.776
11
149.545
21
-135.746
0
LINE
8
BLACK
6
CONTINUOUS
10
149.545
20
-135.746
11
149.694
21
-135.757
0
LINE
8
BLACK
6
CONTINUOUS
10
149.694
20
-135.757
11
149.835
21
-135.808
0
LINE
8
BLACK
6
CONTINUOUS
10
149.835
20
-135.808
11
149.957
21
-135.894
0
LINE
8
BLACK
6
CONTINUOUS
10
149.957
20
-135.894
11
150.05
21
-136.01
0
LINE
8
BLACK
6
CONTINUOUS
10
150.05
20
-136.01
11
150.11
21
-136.147
0
LINE
8
BLACK
6
CONTINUOUS
10
150.11
20
-136.147
11
150.13
21
-136.295
0
LINE
8
BLACK
6
CONTINUOUS
10
150.13
20
-136.295
11
150.13
21
-136.995
0
LINE
8
BLACK
6
CONTINUOUS
10
150.13
20
-136.995
11
150.124
21
-137.075
0
LINE
8
BLACK
6
CONTINUOUS
10
150.124
20
-137.075
11
150.082
21
-137.219
0
LINE
8
BLACK
6
CONTINUOUS
10
150.082
20
-137.219
11
150.004
21
-137.346
0
LINE
8
BLACK
6
CONTINUOUS
10
150.004
20
-137.346
11
149.894
21
-137.447
0
LINE
8
BLACK
6
CONTINUOUS
10
149.894
20
-137.447
11
149.761
21
-137.514
0
LINE
8
BLACK
6
CONTINUOUS
10
149.761
20
-137.514
11
149.615
21
-137.544
0
LINE
8
BLACK
6
CONTINUOUS
10
149.615
20
-137.544
11
149.466
21
-137.533
0
LINE
8
BLACK
6
CONTINUOUS
10
149.466
20
-137.533
11
149.325
21
-137.482
0
LINE
8
BLACK
6
CONTINUOUS
10
149.325
20
-137.482
11
149.203
21
-137.396
0
LINE
8
BLACK
6
CONTINUOUS
10
149.203
20
-137.396
11
149.11
21
-137.28
0
LINE
8
BLACK
6
CONTINUOUS
10
149.11
20
-137.28
11
149.05
21
-137.143
0
LINE
8
BLACK
6
CONTINUOUS
10
149.05
20
-137.143
11
149.03
21
-136.995
0
LINE
8
BLACK
6
CONTINUOUS
10
149.03
20
-136.995
11
149.03
21
-136.295
0
LINE
8
BLACK
6
CONTINUOUS
10
149.03
20
-136.295
11
149.036
21
-136.215
0
LINE
8
BLACK
6
CONTINUOUS
10
139.436
20
-136.215
11
139.478
21
-136.071
0
LINE
8
BLACK
6
CONTINUOUS
10
139.478
20
-136.071
11
139.556
21
-135.944
0
LINE
8
BLACK
6
CONTINUOUS
10
139.556
20
-135.944
11
139.666
21
-135.843
0
LINE
8
BLACK
6
CONTINUOUS
10
139.666
20
-135.843
11
139.799
21
-135.776
0
LINE
8
BLACK
6
CONTINUOUS
10
139.799
20
-135.776
11
139.945
21
-135.746
0
LINE
8
BLACK
6
CONTINUOUS
10
139.945
20
-135.746
11
140.094
21
-135.757
0
LINE
8
BLACK
6
CONTINUOUS
10
140.094
20
-135.757
11
140.235
21
-135.808
0
LINE
8
BLACK
6
CONTINUOUS
10
140.235
20
-135.808
11
140.357
21
-135.894
0
LINE
8
BLACK
6
CONTINUOUS
10
140.357
20
-135.894
11
140.45
21
-136.01
0
LINE
8
BLACK
6
CONTINUOUS
10
140.45
20
-136.01
11
140.51
21
-136.147
0
LINE
8
BLACK
6
CONTINUOUS
10
140.51
20
-136.147
11
140.53
21
-136.295
0
LINE
8
BLACK
6
CONTINUOUS
10
140.53
20
-136.295
11
140.53
21
-136.995
0
LINE
8
BLACK
6
CONTINUOUS
10
140.53
20
-136.995
11
140.524
21
-137.075
0
LINE
8
BLACK
6
CONTINUOUS
10
140.524
20
-137.075
11
140.482
21
-137.219
0
LINE
8
BLACK
6
CONTINUOUS
10
140.482
20
-137.219
11
140.404
21
-137.346
0
LINE
8
BLACK
6
CONTINUOUS
10
140.404
20
-137.346
11
140.294
21
-137.447
0
LINE
8
BLACK
6
CONTINUOUS
10
140.294
20
-137.447
11
140.161
21
-137.514
0
LINE
8
BLACK
6
CONTINUOUS
10
140.161
20
-137.514
11
140.015
21
-137.544
0
LINE
8
BLACK
6
CONTINUOUS
10
140.015
20
-137.544
11
139.866
21
-137.533
0
LINE
8
BLACK
6
CONTINUOUS
10
139.866
20
-137.533
11
139.725
21
-137.482
0
LINE
8
BLACK
6
CONTINUOUS
10
139.725
20
-137.482
11
139.603
21
-137.396
0
LINE
8
BLACK
6
CONTINUOUS
10
139.603
20
-137.396
11
139.51
21
-137.28
0
LINE
8
BLACK
6
CONTINUOUS
10
139.51
20
-137.28
11
139.45
21
-137.143
0
LINE
8
BLACK
6
CONTINUOUS
10
139.45
20
-137.143
11
139.43
21
-136.995
0
LINE
8
BLACK
6
CONTINUOUS
10
139.43
20
-136.995
11
139.43
21
-136.295
0
LINE
8
BLACK
6
CONTINUOUS
10
139.43
20
-136.295
11
139.436
21
-136.215
0
CIRCLE
8
BLACK
10
142.28
20
-144.145
40
0.5
0
CIRCLE
8
BLACK
10
144.78
20
-144.145
40
0.5
0
CIRCLE
8
BLACK
10
147.28
20
-144.145
40
0.5
0
LINE
8
BLACK
6
CONTINUOUS
10
225.236
20
-50.4897
11
225.278
21
-50.3463
0
LINE
8
BLACK
6
CONTINUOUS
10
225.278
20
-50.3463
11
225.356
21
-50.2194
0
LINE
8
BLACK
6
CONTINUOUS
10
225.356
20
-50.2194
11
225.466
21
-50.1184
0
LINE
8
BLACK
6
CONTINUOUS
10
225.466
20
-50.1184
11
225.599
21
-50.0506
0
LINE
8
BLACK
6
CONTINUOUS
10
225.599
20
-50.0506
11
225.745
21
-50.0211
0
LINE
8
BLACK
6
CONTINUOUS
10
225.745
20
-50.0211
11
225.894
21
-50.032
0
LINE
8
BLACK
6
CONTINUOUS
10
225.894
20
-50.032
11
226.035
21
-50.0826
0
LINE
8
BLACK
6
CONTINUOUS
10
226.035
20
-50.0826
11
226.157
21
-50.1691
0
LINE
8
BLACK
6
CONTINUOUS
10
226.157
20
-50.1691
11
226.25
21
-50.2851
0
LINE
8
BLACK
6
CONTINUOUS
10
226.25
20
-50.2851
11
226.31
21
-50.4221
0
LINE
8
BLACK
6
CONTINUOUS
10
226.31
20
-50.4221
11
226.33
21
-50.57
0
LINE
8
BLACK
6
CONTINUOUS
10
226.33
20
-50.57
11
226.33
21
-51.27
0
LINE
8
BLACK
6
CONTINUOUS
10
226.33
20
-51.27
11
226.324
21
-51.3503
0
LINE
8
BLACK
6
CONTINUOUS
10
226.324
20
-51.3503
11
226.282
21
-51.4937
0
LINE
8
BLACK
6
CONTINUOUS
10
226.282
20
-51.4937
11
226.204
21
-51.6206
0
LINE
8
BLACK
6
CONTINUOUS
10
226.204
20
-51.6206
11
226.094
21
-51.7216
0
LINE
8
BLACK
6
CONTINUOUS
10
226.094
20
-51.7216
11
225.961
21
-51.7894
0
LINE
8
BLACK
6
CONTINUOUS
10
225.961
20
-51.7894
11
225.815
21
-51.8189
0
LINE
8
BLACK
6
CONTINUOUS
10
225.815
20
-51.8189
11
225.666
21
-51.808
0
LINE
8
BLACK
6
CONTINUOUS
10
225.666
20
-51.808
11
225.525
21
-51.7574
0
LINE
8
BLACK
6
CONTINUOUS
10
225.525
20
-51.7574
11
225.403
21
-51.6709
0
LINE
8
BLACK
6
CONTINUOUS
10
225.403
20
-51.6709
11
225.31
21
-51.5549
0
LINE
8
BLACK
6
CONTINUOUS
10
225.31
20
-51.5549
11
225.25
21
-51.4179
0
LINE
8
BLACK
6
CONTINUOUS
10
225.25
20
-51.4179
11
225.23
21
-51.27
0
LINE
8
BLACK
6
CONTINUOUS
10
225.23
20
-51.27
11
225.23
21
-50.57
0
LINE
8
BLACK
6
CONTINUOUS
10
225.23
20
-50.57
11
225.236
21
-50.4897
0
LINE
8
BLACK
6
CONTINUOUS
10
215.636
20
-50.4897
11
215.678
21
-50.3463
0
LINE
8
BLACK
6
CONTINUOUS
10
215.678
20
-50.3463
11
215.756
21
-50.2194
0
LINE
8
BLACK
6
CONTINUOUS
10
215.756
20
-50.2194
11
215.866
21
-50.1184
0
LINE
8
BLACK
6
CONTINUOUS
10
215.866
20
-50.1184
11
215.999
21
-50.0506
0
LINE
8
BLACK
6
CONTINUOUS
10
215.999
20
-50.0506
11
216.145
21
-50.0211
0
LINE
8
BLACK
6
CONTINUOUS
10
216.145
20
-50.0211
11
216.294
21
-50.032
0
LINE
8
BLACK
6
CONTINUOUS
10
216.294
20
-50.032
11
216.435
21
-50.0826
0
LINE
8
BLACK
6
CONTINUOUS
10
216.435
20
-50.0826
11
216.557
21
-50.1691
0
LINE
8
BLACK
6
CONTINUOUS
10
216.557
20
-50.1691
11
216.65
21
-50.2851
0
LINE
8
BLACK
6
CONTINUOUS
10
216.65
20
-50.2851
11
216.71
21
-50.4221
0
LINE
8
BLACK
6
CONTINUOUS
10
216.71
20
-50.4221
11
216.73
21
-50.57
0
LINE
8
BLACK
6
CONTINUOUS
10
216.73
20
-50.57
11
216.73
21
-51.27
0
LINE
8
BLACK
6
CONTINUOUS
10
216.73
20
-51.27
11
216.724
21
-51.3503
0
LINE
8
BLACK
6
CONTINUOUS
10
216.724
20
-51.3503
11
216.682
21
-51.4937
0
LINE
8
BLACK
6
CONTINUOUS
10
216.682
20
-51.4937
11
216.604
21
-51.6206
0
LINE
8
BLACK
6
CONTINUOUS
10
216.604
20
-51.6206
11
216.494
21
-51.7216
0
LINE
8
BLACK
6
CONTINUOUS
10
216.494
20
-51.7216
11
216.361
21
-51.7894
0
LINE
8
BLACK
6
CONTINUOUS
10
216.361
20
-51.7894
11
216.215
21
-51.8189
0
LINE
8
BLACK
6
CONTINUOUS
10
216.215
20
-51.8189
11
216.066
21
-51.808
0
LINE
8
BLACK
6
CONTINUOUS
10
216.066
20
-51.808
11
215.925
21
-51.7574
0
LINE
8
BLACK
6
CONTINUOUS
10
215.925
20
-51.7574
11
215.803
21
-51.6709
0
LINE
8
BLACK
6
CONTINUOUS
10
215.803
20
-51.6709
11
215.71
21
-51.5549
0
LINE
8
BLACK
6
CONTINUOUS
10
215.71
20
-51.5549
11
215.65
21
-51.4179
0
LINE
8
BLACK
6
CONTINUOUS
10
215.65
20
-51.4179
11
215.63
21
-51.27
0
LINE
8
BLACK
6
CONTINUOUS
10
215.63
20
-51.27
11
215.63
21
-50.57
0
LINE
8
BLACK
6
CONTINUOUS
10
215.63
20
-50.57
11
215.636
21
-50.4897
0
CIRCLE
8
BLACK
10
218.48
20
-58.42
40
0.5
0
CIRCLE
8
BLACK
10
220.98
20
-58.42
40
0.5
0
CIRCLE
8
BLACK
10
223.48
20
-58.42
40
0.5
0
LINE
8
BLACK
6
CONTINUOUS
10
225.236
20
-107.64
11
225.278
21
-107.496
0
LINE
8
BLACK
6
CONTINUOUS
10
225.278
20
-107.496
11
225.356
21
-107.369
0
LINE
8
BLACK
6
CONTINUOUS
10
225.356
20
-107.369
11
225.466
21
-107.268
0
LINE
8
BLACK
6
CONTINUOUS
10
225.466
20
-107.268
11
225.599
21
-107.201
0
LINE
8
BLACK
6
CONTINUOUS
10
225.599
20
-107.201
11
225.745
21
-107.171
0
LINE
8
BLACK
6
CONTINUOUS
10
225.745
20
-107.171
11
225.894
21
-107.182
0
LINE
8
BLACK
6
CONTINUOUS
10
225.894
20
-107.182
11
226.035
21
-107.233
0
LINE
8
BLACK
6
CONTINUOUS
10
226.035
20
-107.233
11
226.157
21
-107.319
0
LINE
8
BLACK
6
CONTINUOUS
10
226.157
20
-107.319
11
226.25
21
-107.435
0
LINE
8
BLACK
6
CONTINUOUS
10
226.25
20
-107.435
11
226.31
21
-107.572
0
LINE
8
BLACK
6
CONTINUOUS
10
226.31
20
-107.572
11
226.33
21
-107.72
0
LINE
8
BLACK
6
CONTINUOUS
10
226.33
20
-107.72
11
226.33
21
-108.42
0
LINE
8
BLACK
6
CONTINUOUS
10
226.33
20
-108.42
11
226.324
21
-108.5
0
LINE
8
BLACK
6
CONTINUOUS
10
226.324
20
-108.5
11
226.282
21
-108.644
0
LINE
8
BLACK
6
CONTINUOUS
10
226.282
20
-108.644
11
226.204
21
-108.771
0
LINE
8
BLACK
6
CONTINUOUS
10
226.204
20
-108.771
11
226.094
21
-108.872
0
LINE
8
BLACK
6
CONTINUOUS
10
226.094
20
-108.872
11
225.961
21
-108.939
0
LINE
8
BLACK
6
CONTINUOUS
10
225.961
20
-108.939
11
225.815
21
-108.969
0
LINE
8
BLACK
6
CONTINUOUS
10
225.815
20
-108.969
11
225.666
21
-108.958
0
LINE
8
BLACK
6
CONTINUOUS
10
225.666
20
-108.958
11
225.525
21
-108.907
0
LINE
8
BLACK
6
CONTINUOUS
10
225.525
20
-108.907
11
225.403
21
-108.821
0
LINE
8
BLACK
6
CONTINUOUS
10
225.403
20
-108.821
11
225.31
21
-108.705
0
LINE
8
BLACK
6
CONTINUOUS
10
225.31
20
-108.705
11
225.25
21
-108.568
0
LINE
8
BLACK
6
CONTINUOUS
10
225.25
20
-108.568
11
225.23
21
-108.42
0
LINE
8
BLACK
6
CONTINUOUS
10
225.23
20
-108.42
11
225.23
21
-107.72
0
LINE
8
BLACK
6
CONTINUOUS
10
225.23
20
-107.72
11
225.236
21
-107.64
0
LINE
8
BLACK
6
CONTINUOUS
10
215.636
20
-107.64
11
215.678
21
-107.496
0
LINE
8
BLACK
6
CONTINUOUS
10
215.678
20
-107.496
11
215.756
21
-107.369
0
LINE
8
BLACK
6
CONTINUOUS
10
215.756
20
-107.369
11
215.866
21
-107.268
0
LINE
8
BLACK
6
CONTINUOUS
10
215.866
20
-107.268
11
215.999
21
-107.201
0
LINE
8
BLACK
6
CONTINUOUS
10
215.999
20
-107.201
11
216.145
21
-107.171
0
LINE
8
BLACK
6
CONTINUOUS
10
216.145
20
-107.171
11
216.294
21
-107.182
0
LINE
8
BLACK
6
CONTINUOUS
10
216.294
20
-107.182
11
216.435
21
-107.233
0
LINE
8
BLACK
6
CONTINUOUS
10
216.435
20
-107.233
11
216.557
21
-107.319
0
LINE
8
BLACK
6
CONTINUOUS
10
216.557
20
-107.319
11
216.65
21
-107.435
0
LINE
8
BLACK
6
CONTINUOUS
10
216.65
20
-107.435
11
216.71
21
-107.572
0
LINE
8
BLACK
6
CONTINUOUS
10
216.71
20
-107.572
11
216.73
21
-107.72
0
LINE
8
BLACK
6
CONTINUOUS
10
216.73
20
-107.72
11
216.73
21
-108.42
0
LINE
8
BLACK
6
CONTINUOUS
10
216.73
20
-108.42
11
216.724
21
-108.5
0
LINE
8
BLACK
6
CONTINUOUS
10
216.724
20
-108.5
11
216.682
21
-108.644
0
LINE
8
BLACK
6
CONTINUOUS
10
216.682
20
-108.644
11
216.604
21
-108.771
0
LINE
8
BLACK
6
CONTINUOUS
10
216.604
20
-108.771
11
216.494
21
-108.872
0
LINE
8
BLACK
6
CONTINUOUS
10
216.494
20
-108.872
11
216.361
21
-108.939
0
LINE
8
BLACK
6
CONTINUOUS
10
216.361
20
-108.939
11
216.215
21
-108.969
0
LINE
8
BLACK
6
CONTINUOUS
10
216.215
20
-108.969
11
216.066
21
-108.958
0
LINE
8
BLACK
6
CONTINUOUS
10
216.066
20
-108.958
11
215.925
21
-108.907
0
LINE
8
BLACK
6
CONTINUOUS
10
215.925
20
-108.907
11
215.803
21
-108.821
0
LINE
8
BLACK
6
CONTINUOUS
10
215.803
20
-108.821
11
215.71
21
-108.705
0
LINE
8
BLACK
6
CONTINUOUS
10
215.71
20
-108.705
11
215.65
21
-108.568
0
LINE
8
BLACK
6
CONTINUOUS
10
215.65
20
-108.568
11
215.63
21
-108.42
0
LINE
8
BLACK
6
CONTINUOUS
10
215.63
20
-108.42
11
215.63
21
-107.72
0
LINE
8
BLACK
6
CONTINUOUS
10
215.63
20
-107.72
11
215.636
21
-107.64
0
CIRCLE
8
BLACK
10
218.48
20
-115.57
40
0.5
0
CIRCLE
8
BLACK
10
220.98
20
-115.57
40
0.5
0
CIRCLE
8
BLACK
10
223.48
20
-115.57
40
0.5
0
CIRCLE
8
BLACK
10
198.105
20
-74.3185
40
0.4
0
CIRCLE
8
BLACK
10
193.105
20
-74.3185
40
0.4
0
CIRCLE
8
BLACK
10
171.341
20
-72.2865
40
0.4
0
CIRCLE
8
BLACK
10
176.341
20
-72.2865
40
0.4
0
CIRCLE
8
BLACK
10
103.376
20
-98.4504
40
0.4
0
CIRCLE
8
BLACK
10
100.876
20
-98.4504
40
0.4
0
CIRCLE
8
BLACK
10
184.404
20
-72.2884
40
0.4
0
CIRCLE
8
BLACK
10
179.404
20
-72.2884
40
0.4
0
CIRCLE
8
BLACK
10
106.424
20
-119.786
40
0.4
0
CIRCLE
8
BLACK
10
106.424
20
-117.246
40
0.4
0
CIRCLE
8
BLACK
10
106.424
20
-114.706
40
0.4
0
CIRCLE
8
BLACK
10
67.31
20
-88.9
40
0.595
0
CIRCLE
8
BLACK
10
67.31
20
-91.44
40
0.595
0
CIRCLE
8
BLACK
10
67.31
20
-93.98
40
0.595
0
CIRCLE
8
BLACK
10
67.31
20
-96.52
40
0.595
0
CIRCLE
8
BLACK
10
90.17
20
-51.435
40
0.5
0
CIRCLE
8
BLACK
10
180.405
20
-119.54
40
0.4
0
CIRCLE
8
BLACK
10
180.405
20
-117
40
0.4
0
CIRCLE
8
BLACK
10
180.405
20
-114.46
40
0.4
0
CIRCLE
8
BLACK
10
170.815
20
-51.435
40
0.5
0
CIRCLE
8
BLACK
10
173.293
20
-119.53
40
0.4
0
CIRCLE
8
BLACK
10
173.293
20
-116.99
40
0.4
0
CIRCLE
8
BLACK
10
173.293
20
-114.45
40
0.4
0
CIRCLE
8
BLACK
10
193.105
20
-87.5265
40
0.4
0
CIRCLE
8
BLACK
10
198.105
20
-87.5265
40
0.4
0
CIRCLE
8
BLACK
10
210.185
20
-142.875
40
0.5
0
CIRCLE
8
BLACK
10
160.02
20
-51.435
40
0.5
0
CIRCLE
8
BLACK
10
89.2321
20
-73.5584
40
0.4
0
CIRCLE
8
BLACK
10
94.2321
20
-73.5584
40
0.4
0
CIRCLE
8
BLACK
10
222.25
20
-138.43
40
0.595
0
CIRCLE
8
BLACK
10
222.25
20
-135.89
40
0.595
0
CIRCLE
8
BLACK
10
222.25
20
-133.35
40
0.595
0
CIRCLE
8
BLACK
10
222.25
20
-130.81
40
0.595
0
CIRCLE
8
BLACK
10
222.25
20
-128.27
40
0.595
0
CIRCLE
8
BLACK
10
222.25
20
-125.73
40
0.595
0
CIRCLE
8
BLACK
10
222.25
20
-123.19
40
0.595
0
CIRCLE
8
BLACK
10
222.25
20
-120.65
40
0.595
0
CIRCLE
8
BLACK
10
112.092
20
-87.7824
40
0.4
0
CIRCLE
8
BLACK
10
117.092
20
-87.7824
40
0.4
0
CIRCLE
8
BLACK
10
85.09
20
-131.445
40
0.5
0
CIRCLE
8
BLACK
10
79.375
20
-51.435
40
0.5
0
CIRCLE
8
BLACK
10
210.185
20
-120.015
40
0.5
0
CIRCLE
8
BLACK
10
123.19
20
-139.065
40
0.5
0
CIRCLE
8
BLACK
10
123.19
20
-136.525
40
0.5
0
CIRCLE
8
BLACK
10
120.65
20
-139.065
40
0.5
0
CIRCLE
8
BLACK
10
120.65
20
-136.525
40
0.5
0
CIRCLE
8
BLACK
10
118.11
20
-139.065
40
0.5
0
CIRCLE
8
BLACK
10
118.11
20
-136.525
40
0.5
0
CIRCLE
8
BLACK
10
115.57
20
-139.065
40
0.5
0
CIRCLE
8
BLACK
10
115.57
20
-136.525
40
0.5
0
CIRCLE
8
BLACK
10
113.03
20
-139.065
40
0.5
0
CIRCLE
8
BLACK
10
113.03
20
-136.525
40
0.5
0
CIRCLE
8
BLACK
10
184.977
20
-98.1945
40
0.4
0
CIRCLE
8
BLACK
10
182.477
20
-98.1945
40
0.4
0
CIRCLE
8
BLACK
10
193.105
20
-113.942
40
0.4
0
CIRCLE
8
BLACK
10
198.105
20
-113.942
40
0.4
0
CIRCLE
8
BLACK
10
184.977
20
-106.831
40
0.4
0
CIRCLE
8
BLACK
10
182.477
20
-106.831
40
0.4
0
CIRCLE
8
BLACK
10
103.376
20
-107.086
40
0.4
0
CIRCLE
8
BLACK
10
100.876
20
-107.086
40
0.4
0
CIRCLE
8
BLACK
10
184.977
20
-89.5585
40
0.4
0
CIRCLE
8
BLACK
10
182.477
20
-89.5585
40
0.4
0
CIRCLE
8
BLACK
10
135.167
20
-137.795
40
0.4
0
CIRCLE
8
BLACK
10
132.667
20
-137.795
40
0.4
0
CIRCLE
8
BLACK
10
198.105
20
-100.734
40
0.4
0
CIRCLE
8
BLACK
10
193.105
20
-100.734
40
0.4
0
CIRCLE
8
BLACK
10
99.3121
20
-119.786
40
0.4
0
CIRCLE
8
BLACK
10
99.3121
20
-117.246
40
0.4
0
CIRCLE
8
BLACK
10
99.3121
20
-114.706
40
0.4
0
CIRCLE
8
BLACK
10
112.092
20
-114.198
40
0.4
0
CIRCLE
8
BLACK
10
117.092
20
-114.198
40
0.4
0
CIRCLE
8
BLACK
10
203.733
20
-122.07
40
0.4
0
CIRCLE
8
BLACK
10
201.233
20
-122.07
40
0.4
0
CIRCLE
8
BLACK
10
117.092
20
-100.99
40
0.4
0
CIRCLE
8
BLACK
10
112.092
20
-100.99
40
0.4
0
CIRCLE
8
BLACK
10
92.2001
20
-119.786
40
0.4
0
CIRCLE
8
BLACK
10
92.2001
20
-117.246
40
0.4
0
CIRCLE
8
BLACK
10
92.2001
20
-114.706
40
0.4
0
CIRCLE
8
BLACK
10
85.09
20
-120.015
40
0.5
0
CIRCLE
8
BLACK
10
187.517
20
-119.53
40
0.4
0
CIRCLE
8
BLACK
10
187.517
20
-116.99
40
0.4
0
CIRCLE
8
BLACK
10
187.517
20
-114.45
40
0.4
0
CIRCLE
8
BLACK
10
158.75
20
-140.335
40
0.595
0
CIRCLE
8
BLACK
10
161.29
20
-140.335
40
0.595
0
CIRCLE
8
BLACK
10
163.83
20
-140.335
40
0.595
0
CIRCLE
8
BLACK
10
123.148
20
-122.326
40
0.4
0
CIRCLE
8
BLACK
10
120.648
20
-122.326
40
0.4
0
CIRCLE
8
BLACK
10
210.185
20
-131.445
40
0.5
0
CIRCLE
8
BLACK
10
135.128
20
-130.048
40
0.4
0
CIRCLE
8
BLACK
10
132.628
20
-130.048
40
0.4
0
CIRCLE
8
BLACK
10
85.09
20
-142.875
40
0.5
0
CIRCLE
8
BLACK
10
67.31
20
-70.485
40
0.595
0
CIRCLE
8
BLACK
10
67.31
20
-73.025
40
0.595
0
CIRCLE
8
BLACK
10
67.31
20
-75.565
40
0.595
0
CIRCLE
8
BLACK
10
67.31
20
-78.105
40
0.595
0
CIRCLE
8
BLACK
10
67.31
20
-80.645
40
0.595
0
CIRCLE
8
BLACK
10
117.092
20
-74.5744
40
0.4
0
CIRCLE
8
BLACK
10
112.092
20
-74.5744
40
0.4
0
CIRCLE
8
BLACK
10
102.28
20
-73.5584
40
0.4
0
CIRCLE
8
BLACK
10
97.2801
20
-73.5584
40
0.4
0
CIRCLE
8
BLACK
10
103.376
20
-89.8144
40
0.4
0
CIRCLE
8
BLACK
10
100.876
20
-89.8144
40
0.4
  0
ENDSEC
  0
EOF
