%FSLAX45Y45*%
G04 Gerber Fmt 4.5, Leading zero omitted, Abs format (unit mm)*
G04 Created by KiCad (PCBNEW 6.0.5+dfsg-1~bpo11+1) date 2022-08-16 14:47:16*
%MOMM*%
%LPD*%
G01*
G04 APERTURE LIST*
%TA.AperFunction,Profile*%
%ADD10C,0.100000*%
%TD*%
%ADD11C,0.200000*%
G04 APERTURE END LIST*
D10*
X6096000Y-14605000D02*
X6096000Y-4445000D01*
X22860000Y-14605000D02*
X6096000Y-14605000D01*
X6096000Y-4445000D02*
X22860000Y-4445000D01*
X22860000Y-4445000D02*
X22860000Y-14605000D01*
D11*
X6348619Y-14920476D02*
X6348619Y-14720476D01*
X6396238Y-14720476D01*
X6424809Y-14730000D01*
X6443857Y-14749048D01*
X6453381Y-14768095D01*
X6462905Y-14806190D01*
X6462905Y-14834762D01*
X6453381Y-14872857D01*
X6443857Y-14891905D01*
X6424809Y-14910952D01*
X6396238Y-14920476D01*
X6348619Y-14920476D01*
X6548619Y-14920476D02*
X6548619Y-14787143D01*
X6548619Y-14825238D02*
X6558143Y-14806190D01*
X6567667Y-14796667D01*
X6586714Y-14787143D01*
X6605762Y-14787143D01*
X6672428Y-14920476D02*
X6672428Y-14787143D01*
X6672428Y-14720476D02*
X6662905Y-14730000D01*
X6672428Y-14739524D01*
X6681952Y-14730000D01*
X6672428Y-14720476D01*
X6672428Y-14739524D01*
X6796238Y-14920476D02*
X6777190Y-14910952D01*
X6767667Y-14891905D01*
X6767667Y-14720476D01*
X6901000Y-14920476D02*
X6881952Y-14910952D01*
X6872428Y-14891905D01*
X6872428Y-14720476D01*
X7129571Y-14920476D02*
X7129571Y-14720476D01*
X7196238Y-14863333D01*
X7262905Y-14720476D01*
X7262905Y-14920476D01*
X7443857Y-14920476D02*
X7443857Y-14815714D01*
X7434333Y-14796667D01*
X7415286Y-14787143D01*
X7377190Y-14787143D01*
X7358143Y-14796667D01*
X7443857Y-14910952D02*
X7424809Y-14920476D01*
X7377190Y-14920476D01*
X7358143Y-14910952D01*
X7348619Y-14891905D01*
X7348619Y-14872857D01*
X7358143Y-14853809D01*
X7377190Y-14844286D01*
X7424809Y-14844286D01*
X7443857Y-14834762D01*
X7539095Y-14787143D02*
X7539095Y-14987143D01*
X7539095Y-14796667D02*
X7558143Y-14787143D01*
X7596238Y-14787143D01*
X7615286Y-14796667D01*
X7624809Y-14806190D01*
X7634333Y-14825238D01*
X7634333Y-14882381D01*
X7624809Y-14901428D01*
X7615286Y-14910952D01*
X7596238Y-14920476D01*
X7558143Y-14920476D01*
X7539095Y-14910952D01*
X7720048Y-14901428D02*
X7729571Y-14910952D01*
X7720048Y-14920476D01*
X7710524Y-14910952D01*
X7720048Y-14901428D01*
X7720048Y-14920476D01*
X7720048Y-14796667D02*
X7729571Y-14806190D01*
X7720048Y-14815714D01*
X7710524Y-14806190D01*
X7720048Y-14796667D01*
X7720048Y-14815714D01*
M02*
