G04 #@! TF.GenerationSoftware,KiCad,Pcbnew,6.0.5+dfsg-1~bpo11+1*
G04 #@! TF.CreationDate,2022-08-16T14:47:16+00:00*
G04 #@! TF.ProjectId,filter_board,66696c74-6572-45f6-926f-6172642e6b69,0*
G04 #@! TF.SameCoordinates,Original*
G04 #@! TF.FileFunction,Paste,Bot*
G04 #@! TF.FilePolarity,Positive*
%FSLAX46Y46*%
G04 Gerber Fmt 4.6, Leading zero omitted, Abs format (unit mm)*
G04 Created by KiCad (PCBNEW 6.0.5+dfsg-1~bpo11+1) date 2022-08-16 14:47:16*
%MOMM*%
%LPD*%
G01*
G04 APERTURE LIST*
%ADD10R,1.500000X0.550000*%
G04 APERTURE END LIST*
G36*
G01*
X96698100Y-98991400D02*
X96698100Y-99941400D01*
G75*
G02*
X96448100Y-100191400I-250000J0D01*
G01*
X95948100Y-100191400D01*
G75*
G02*
X95698100Y-99941400I0J250000D01*
G01*
X95698100Y-98991400D01*
G75*
G02*
X95948100Y-98741400I250000J0D01*
G01*
X96448100Y-98741400D01*
G75*
G02*
X96698100Y-98991400I0J-250000D01*
G01*
G37*
G36*
G01*
X94798100Y-98991400D02*
X94798100Y-99941400D01*
G75*
G02*
X94548100Y-100191400I-250000J0D01*
G01*
X94048100Y-100191400D01*
G75*
G02*
X93798100Y-99941400I0J250000D01*
G01*
X93798100Y-98991400D01*
G75*
G02*
X94048100Y-98741400I250000J0D01*
G01*
X94548100Y-98741400D01*
G75*
G02*
X94798100Y-98991400I0J-250000D01*
G01*
G37*
D10*
X116002100Y-79720400D03*
X116002100Y-80670400D03*
X116002100Y-81620400D03*
X113102100Y-81620400D03*
X113102100Y-80670400D03*
X113102100Y-79720400D03*
X179402400Y-81369500D03*
X179402400Y-82319500D03*
X179402400Y-83269500D03*
X176502400Y-83269500D03*
X176502400Y-82319500D03*
X176502400Y-81369500D03*
G36*
G01*
X123192600Y-114764400D02*
X123192600Y-115664400D01*
G75*
G02*
X122942600Y-115914400I-250000J0D01*
G01*
X122417600Y-115914400D01*
G75*
G02*
X122167600Y-115664400I0J250000D01*
G01*
X122167600Y-114764400D01*
G75*
G02*
X122417600Y-114514400I250000J0D01*
G01*
X122942600Y-114514400D01*
G75*
G02*
X123192600Y-114764400I0J-250000D01*
G01*
G37*
G36*
G01*
X121367600Y-114764400D02*
X121367600Y-115664400D01*
G75*
G02*
X121117600Y-115914400I-250000J0D01*
G01*
X120592600Y-115914400D01*
G75*
G02*
X120342600Y-115664400I0J250000D01*
G01*
X120342600Y-114764400D01*
G75*
G02*
X120592600Y-114514400I250000J0D01*
G01*
X121117600Y-114514400D01*
G75*
G02*
X121367600Y-114764400I0J-250000D01*
G01*
G37*
G36*
G01*
X189440400Y-93110000D02*
X190340400Y-93110000D01*
G75*
G02*
X190590400Y-93360000I0J-250000D01*
G01*
X190590400Y-93885000D01*
G75*
G02*
X190340400Y-94135000I-250000J0D01*
G01*
X189440400Y-94135000D01*
G75*
G02*
X189190400Y-93885000I0J250000D01*
G01*
X189190400Y-93360000D01*
G75*
G02*
X189440400Y-93110000I250000J0D01*
G01*
G37*
G36*
G01*
X189440400Y-94935000D02*
X190340400Y-94935000D01*
G75*
G02*
X190590400Y-95185000I0J-250000D01*
G01*
X190590400Y-95710000D01*
G75*
G02*
X190340400Y-95960000I-250000J0D01*
G01*
X189440400Y-95960000D01*
G75*
G02*
X189190400Y-95710000I0J250000D01*
G01*
X189190400Y-95185000D01*
G75*
G02*
X189440400Y-94935000I250000J0D01*
G01*
G37*
G36*
G01*
X214672800Y-86088200D02*
X214672800Y-87038200D01*
G75*
G02*
X214422800Y-87288200I-250000J0D01*
G01*
X213922800Y-87288200D01*
G75*
G02*
X213672800Y-87038200I0J250000D01*
G01*
X213672800Y-86088200D01*
G75*
G02*
X213922800Y-85838200I250000J0D01*
G01*
X214422800Y-85838200D01*
G75*
G02*
X214672800Y-86088200I0J-250000D01*
G01*
G37*
G36*
G01*
X212772800Y-86088200D02*
X212772800Y-87038200D01*
G75*
G02*
X212522800Y-87288200I-250000J0D01*
G01*
X212022800Y-87288200D01*
G75*
G02*
X211772800Y-87038200I0J250000D01*
G01*
X211772800Y-86088200D01*
G75*
G02*
X212022800Y-85838200I250000J0D01*
G01*
X212522800Y-85838200D01*
G75*
G02*
X212772800Y-86088200I0J-250000D01*
G01*
G37*
X97206100Y-77688400D03*
X97206100Y-78638400D03*
X97206100Y-79588400D03*
X94306100Y-79588400D03*
X94306100Y-78638400D03*
X94306100Y-77688400D03*
G36*
G01*
X150338500Y-100551000D02*
X150338500Y-99601000D01*
G75*
G02*
X150588500Y-99351000I250000J0D01*
G01*
X151088500Y-99351000D01*
G75*
G02*
X151338500Y-99601000I0J-250000D01*
G01*
X151338500Y-100551000D01*
G75*
G02*
X151088500Y-100801000I-250000J0D01*
G01*
X150588500Y-100801000D01*
G75*
G02*
X150338500Y-100551000I0J250000D01*
G01*
G37*
G36*
G01*
X152238500Y-100551000D02*
X152238500Y-99601000D01*
G75*
G02*
X152488500Y-99351000I250000J0D01*
G01*
X152988500Y-99351000D01*
G75*
G02*
X153238500Y-99601000I0J-250000D01*
G01*
X153238500Y-100551000D01*
G75*
G02*
X152988500Y-100801000I-250000J0D01*
G01*
X152488500Y-100801000D01*
G75*
G02*
X152238500Y-100551000I0J250000D01*
G01*
G37*
G36*
G01*
X175424400Y-95088500D02*
X175424400Y-94188500D01*
G75*
G02*
X175674400Y-93938500I250000J0D01*
G01*
X176199400Y-93938500D01*
G75*
G02*
X176449400Y-94188500I0J-250000D01*
G01*
X176449400Y-95088500D01*
G75*
G02*
X176199400Y-95338500I-250000J0D01*
G01*
X175674400Y-95338500D01*
G75*
G02*
X175424400Y-95088500I0J250000D01*
G01*
G37*
G36*
G01*
X177249400Y-95088500D02*
X177249400Y-94188500D01*
G75*
G02*
X177499400Y-93938500I250000J0D01*
G01*
X178024400Y-93938500D01*
G75*
G02*
X178274400Y-94188500I0J-250000D01*
G01*
X178274400Y-95088500D01*
G75*
G02*
X178024400Y-95338500I-250000J0D01*
G01*
X177499400Y-95338500D01*
G75*
G02*
X177249400Y-95088500I0J250000D01*
G01*
G37*
G36*
G01*
X111453000Y-47947600D02*
X111453000Y-46997600D01*
G75*
G02*
X111703000Y-46747600I250000J0D01*
G01*
X112203000Y-46747600D01*
G75*
G02*
X112453000Y-46997600I0J-250000D01*
G01*
X112453000Y-47947600D01*
G75*
G02*
X112203000Y-48197600I-250000J0D01*
G01*
X111703000Y-48197600D01*
G75*
G02*
X111453000Y-47947600I0J250000D01*
G01*
G37*
G36*
G01*
X113353000Y-47947600D02*
X113353000Y-46997600D01*
G75*
G02*
X113603000Y-46747600I250000J0D01*
G01*
X114103000Y-46747600D01*
G75*
G02*
X114353000Y-46997600I0J-250000D01*
G01*
X114353000Y-47947600D01*
G75*
G02*
X114103000Y-48197600I-250000J0D01*
G01*
X113603000Y-48197600D01*
G75*
G02*
X113353000Y-47947600I0J250000D01*
G01*
G37*
G36*
G01*
X96673100Y-108160400D02*
X96673100Y-109060400D01*
G75*
G02*
X96423100Y-109310400I-250000J0D01*
G01*
X95898100Y-109310400D01*
G75*
G02*
X95648100Y-109060400I0J250000D01*
G01*
X95648100Y-108160400D01*
G75*
G02*
X95898100Y-107910400I250000J0D01*
G01*
X96423100Y-107910400D01*
G75*
G02*
X96673100Y-108160400I0J-250000D01*
G01*
G37*
G36*
G01*
X94848100Y-108160400D02*
X94848100Y-109060400D01*
G75*
G02*
X94598100Y-109310400I-250000J0D01*
G01*
X94073100Y-109310400D01*
G75*
G02*
X93823100Y-109060400I0J250000D01*
G01*
X93823100Y-108160400D01*
G75*
G02*
X94073100Y-107910400I250000J0D01*
G01*
X94598100Y-107910400D01*
G75*
G02*
X94848100Y-108160400I0J-250000D01*
G01*
G37*
X197015400Y-92672500D03*
X197015400Y-93622500D03*
X197015400Y-94572500D03*
X194115400Y-94572500D03*
X194115400Y-93622500D03*
X194115400Y-92672500D03*
G36*
G01*
X109207000Y-56014600D02*
X109207000Y-56964600D01*
G75*
G02*
X108957000Y-57214600I-250000J0D01*
G01*
X108457000Y-57214600D01*
G75*
G02*
X108207000Y-56964600I0J250000D01*
G01*
X108207000Y-56014600D01*
G75*
G02*
X108457000Y-55764600I250000J0D01*
G01*
X108957000Y-55764600D01*
G75*
G02*
X109207000Y-56014600I0J-250000D01*
G01*
G37*
G36*
G01*
X107307000Y-56014600D02*
X107307000Y-56964600D01*
G75*
G02*
X107057000Y-57214600I-250000J0D01*
G01*
X106557000Y-57214600D01*
G75*
G02*
X106307000Y-56964600I0J250000D01*
G01*
X106307000Y-56014600D01*
G75*
G02*
X106557000Y-55764600I250000J0D01*
G01*
X107057000Y-55764600D01*
G75*
G02*
X107307000Y-56014600I0J-250000D01*
G01*
G37*
G36*
G01*
X150363500Y-105606000D02*
X150363500Y-104706000D01*
G75*
G02*
X150613500Y-104456000I250000J0D01*
G01*
X151138500Y-104456000D01*
G75*
G02*
X151388500Y-104706000I0J-250000D01*
G01*
X151388500Y-105606000D01*
G75*
G02*
X151138500Y-105856000I-250000J0D01*
G01*
X150613500Y-105856000D01*
G75*
G02*
X150363500Y-105606000I0J250000D01*
G01*
G37*
G36*
G01*
X152188500Y-105606000D02*
X152188500Y-104706000D01*
G75*
G02*
X152438500Y-104456000I250000J0D01*
G01*
X152963500Y-104456000D01*
G75*
G02*
X153213500Y-104706000I0J-250000D01*
G01*
X153213500Y-105606000D01*
G75*
G02*
X152963500Y-105856000I-250000J0D01*
G01*
X152438500Y-105856000D01*
G75*
G02*
X152188500Y-105606000I0J250000D01*
G01*
G37*
G36*
G01*
X189440400Y-65885000D02*
X190340400Y-65885000D01*
G75*
G02*
X190590400Y-66135000I0J-250000D01*
G01*
X190590400Y-66660000D01*
G75*
G02*
X190340400Y-66910000I-250000J0D01*
G01*
X189440400Y-66910000D01*
G75*
G02*
X189190400Y-66660000I0J250000D01*
G01*
X189190400Y-66135000D01*
G75*
G02*
X189440400Y-65885000I250000J0D01*
G01*
G37*
G36*
G01*
X189440400Y-67710000D02*
X190340400Y-67710000D01*
G75*
G02*
X190590400Y-67960000I0J-250000D01*
G01*
X190590400Y-68485000D01*
G75*
G02*
X190340400Y-68735000I-250000J0D01*
G01*
X189440400Y-68735000D01*
G75*
G02*
X189190400Y-68485000I0J250000D01*
G01*
X189190400Y-67960000D01*
G75*
G02*
X189440400Y-67710000I250000J0D01*
G01*
G37*
G36*
G01*
X139093000Y-104706000D02*
X139093000Y-105606000D01*
G75*
G02*
X138843000Y-105856000I-250000J0D01*
G01*
X138318000Y-105856000D01*
G75*
G02*
X138068000Y-105606000I0J250000D01*
G01*
X138068000Y-104706000D01*
G75*
G02*
X138318000Y-104456000I250000J0D01*
G01*
X138843000Y-104456000D01*
G75*
G02*
X139093000Y-104706000I0J-250000D01*
G01*
G37*
G36*
G01*
X137268000Y-104706000D02*
X137268000Y-105606000D01*
G75*
G02*
X137018000Y-105856000I-250000J0D01*
G01*
X136493000Y-105856000D01*
G75*
G02*
X136243000Y-105606000I0J250000D01*
G01*
X136243000Y-104706000D01*
G75*
G02*
X136493000Y-104456000I250000J0D01*
G01*
X137018000Y-104456000D01*
G75*
G02*
X137268000Y-104706000I0J-250000D01*
G01*
G37*
G36*
G01*
X144264000Y-90330000D02*
X144264000Y-91280000D01*
G75*
G02*
X144014000Y-91530000I-250000J0D01*
G01*
X143514000Y-91530000D01*
G75*
G02*
X143264000Y-91280000I0J250000D01*
G01*
X143264000Y-90330000D01*
G75*
G02*
X143514000Y-90080000I250000J0D01*
G01*
X144014000Y-90080000D01*
G75*
G02*
X144264000Y-90330000I0J-250000D01*
G01*
G37*
G36*
G01*
X142364000Y-90330000D02*
X142364000Y-91280000D01*
G75*
G02*
X142114000Y-91530000I-250000J0D01*
G01*
X141614000Y-91530000D01*
G75*
G02*
X141364000Y-91280000I0J250000D01*
G01*
X141364000Y-90330000D01*
G75*
G02*
X141614000Y-90080000I250000J0D01*
G01*
X142114000Y-90080000D01*
G75*
G02*
X142364000Y-90330000I0J-250000D01*
G01*
G37*
G36*
G01*
X150467000Y-123386000D02*
X150467000Y-122486000D01*
G75*
G02*
X150717000Y-122236000I250000J0D01*
G01*
X151242000Y-122236000D01*
G75*
G02*
X151492000Y-122486000I0J-250000D01*
G01*
X151492000Y-123386000D01*
G75*
G02*
X151242000Y-123636000I-250000J0D01*
G01*
X150717000Y-123636000D01*
G75*
G02*
X150467000Y-123386000I0J250000D01*
G01*
G37*
G36*
G01*
X152292000Y-123386000D02*
X152292000Y-122486000D01*
G75*
G02*
X152542000Y-122236000I250000J0D01*
G01*
X153067000Y-122236000D01*
G75*
G02*
X153317000Y-122486000I0J-250000D01*
G01*
X153317000Y-123386000D01*
G75*
G02*
X153067000Y-123636000I-250000J0D01*
G01*
X152542000Y-123636000D01*
G75*
G02*
X152292000Y-123386000I0J250000D01*
G01*
G37*
G36*
G01*
X92272600Y-102938400D02*
X92272600Y-103238400D01*
G75*
G02*
X92122600Y-103388400I-150000J0D01*
G01*
X90947600Y-103388400D01*
G75*
G02*
X90797600Y-103238400I0J150000D01*
G01*
X90797600Y-102938400D01*
G75*
G02*
X90947600Y-102788400I150000J0D01*
G01*
X92122600Y-102788400D01*
G75*
G02*
X92272600Y-102938400I0J-150000D01*
G01*
G37*
G36*
G01*
X92272600Y-104838400D02*
X92272600Y-105138400D01*
G75*
G02*
X92122600Y-105288400I-150000J0D01*
G01*
X90947600Y-105288400D01*
G75*
G02*
X90797600Y-105138400I0J150000D01*
G01*
X90797600Y-104838400D01*
G75*
G02*
X90947600Y-104688400I150000J0D01*
G01*
X92122600Y-104688400D01*
G75*
G02*
X92272600Y-104838400I0J-150000D01*
G01*
G37*
G36*
G01*
X90397600Y-103888400D02*
X90397600Y-104188400D01*
G75*
G02*
X90247600Y-104338400I-150000J0D01*
G01*
X89072600Y-104338400D01*
G75*
G02*
X88922600Y-104188400I0J150000D01*
G01*
X88922600Y-103888400D01*
G75*
G02*
X89072600Y-103738400I150000J0D01*
G01*
X90247600Y-103738400D01*
G75*
G02*
X90397600Y-103888400I0J-150000D01*
G01*
G37*
G36*
G01*
X153342000Y-119921000D02*
X153342000Y-120871000D01*
G75*
G02*
X153092000Y-121121000I-250000J0D01*
G01*
X152592000Y-121121000D01*
G75*
G02*
X152342000Y-120871000I0J250000D01*
G01*
X152342000Y-119921000D01*
G75*
G02*
X152592000Y-119671000I250000J0D01*
G01*
X153092000Y-119671000D01*
G75*
G02*
X153342000Y-119921000I0J-250000D01*
G01*
G37*
G36*
G01*
X151442000Y-119921000D02*
X151442000Y-120871000D01*
G75*
G02*
X151192000Y-121121000I-250000J0D01*
G01*
X150692000Y-121121000D01*
G75*
G02*
X150442000Y-120871000I0J250000D01*
G01*
X150442000Y-119921000D01*
G75*
G02*
X150692000Y-119671000I250000J0D01*
G01*
X151192000Y-119671000D01*
G75*
G02*
X151442000Y-119921000I0J-250000D01*
G01*
G37*
G36*
G01*
X136092500Y-118306000D02*
X136092500Y-117406000D01*
G75*
G02*
X136342500Y-117156000I250000J0D01*
G01*
X136867500Y-117156000D01*
G75*
G02*
X137117500Y-117406000I0J-250000D01*
G01*
X137117500Y-118306000D01*
G75*
G02*
X136867500Y-118556000I-250000J0D01*
G01*
X136342500Y-118556000D01*
G75*
G02*
X136092500Y-118306000I0J250000D01*
G01*
G37*
G36*
G01*
X137917500Y-118306000D02*
X137917500Y-117406000D01*
G75*
G02*
X138167500Y-117156000I250000J0D01*
G01*
X138692500Y-117156000D01*
G75*
G02*
X138942500Y-117406000I0J-250000D01*
G01*
X138942500Y-118306000D01*
G75*
G02*
X138692500Y-118556000I-250000J0D01*
G01*
X138167500Y-118556000D01*
G75*
G02*
X137917500Y-118306000I0J250000D01*
G01*
G37*
G36*
G01*
X100022600Y-77564400D02*
X100022600Y-76664400D01*
G75*
G02*
X100272600Y-76414400I250000J0D01*
G01*
X100797600Y-76414400D01*
G75*
G02*
X101047600Y-76664400I0J-250000D01*
G01*
X101047600Y-77564400D01*
G75*
G02*
X100797600Y-77814400I-250000J0D01*
G01*
X100272600Y-77814400D01*
G75*
G02*
X100022600Y-77564400I0J250000D01*
G01*
G37*
G36*
G01*
X101847600Y-77564400D02*
X101847600Y-76664400D01*
G75*
G02*
X102097600Y-76414400I250000J0D01*
G01*
X102622600Y-76414400D01*
G75*
G02*
X102872600Y-76664400I0J-250000D01*
G01*
X102872600Y-77564400D01*
G75*
G02*
X102622600Y-77814400I-250000J0D01*
G01*
X102097600Y-77814400D01*
G75*
G02*
X101847600Y-77564400I0J250000D01*
G01*
G37*
G36*
G01*
X148196000Y-127541000D02*
X148196000Y-128491000D01*
G75*
G02*
X147946000Y-128741000I-250000J0D01*
G01*
X147446000Y-128741000D01*
G75*
G02*
X147196000Y-128491000I0J250000D01*
G01*
X147196000Y-127541000D01*
G75*
G02*
X147446000Y-127291000I250000J0D01*
G01*
X147946000Y-127291000D01*
G75*
G02*
X148196000Y-127541000I0J-250000D01*
G01*
G37*
G36*
G01*
X146296000Y-127541000D02*
X146296000Y-128491000D01*
G75*
G02*
X146046000Y-128741000I-250000J0D01*
G01*
X145546000Y-128741000D01*
G75*
G02*
X145296000Y-128491000I0J250000D01*
G01*
X145296000Y-127541000D01*
G75*
G02*
X145546000Y-127291000I250000J0D01*
G01*
X146046000Y-127291000D01*
G75*
G02*
X146296000Y-127541000I0J-250000D01*
G01*
G37*
G36*
G01*
X92101100Y-108160400D02*
X92101100Y-109060400D01*
G75*
G02*
X91851100Y-109310400I-250000J0D01*
G01*
X91326100Y-109310400D01*
G75*
G02*
X91076100Y-109060400I0J250000D01*
G01*
X91076100Y-108160400D01*
G75*
G02*
X91326100Y-107910400I250000J0D01*
G01*
X91851100Y-107910400D01*
G75*
G02*
X92101100Y-108160400I0J-250000D01*
G01*
G37*
G36*
G01*
X90276100Y-108160400D02*
X90276100Y-109060400D01*
G75*
G02*
X90026100Y-109310400I-250000J0D01*
G01*
X89501100Y-109310400D01*
G75*
G02*
X89251100Y-109060400I0J250000D01*
G01*
X89251100Y-108160400D01*
G75*
G02*
X89501100Y-107910400I250000J0D01*
G01*
X90026100Y-107910400D01*
G75*
G02*
X90276100Y-108160400I0J-250000D01*
G01*
G37*
G36*
G01*
X73139000Y-128303000D02*
X73139000Y-129253000D01*
G75*
G02*
X72889000Y-129503000I-250000J0D01*
G01*
X72389000Y-129503000D01*
G75*
G02*
X72139000Y-129253000I0J250000D01*
G01*
X72139000Y-128303000D01*
G75*
G02*
X72389000Y-128053000I250000J0D01*
G01*
X72889000Y-128053000D01*
G75*
G02*
X73139000Y-128303000I0J-250000D01*
G01*
G37*
G36*
G01*
X71239000Y-128303000D02*
X71239000Y-129253000D01*
G75*
G02*
X70989000Y-129503000I-250000J0D01*
G01*
X70489000Y-129503000D01*
G75*
G02*
X70239000Y-129253000I0J250000D01*
G01*
X70239000Y-128303000D01*
G75*
G02*
X70489000Y-128053000I250000J0D01*
G01*
X70989000Y-128053000D01*
G75*
G02*
X71239000Y-128303000I0J-250000D01*
G01*
G37*
X116002100Y-119344400D03*
X116002100Y-120294400D03*
X116002100Y-121244400D03*
X113102100Y-121244400D03*
X113102100Y-120294400D03*
X113102100Y-119344400D03*
G36*
G01*
X174043400Y-81361500D02*
X174043400Y-82261500D01*
G75*
G02*
X173793400Y-82511500I-250000J0D01*
G01*
X173268400Y-82511500D01*
G75*
G02*
X173018400Y-82261500I0J250000D01*
G01*
X173018400Y-81361500D01*
G75*
G02*
X173268400Y-81111500I250000J0D01*
G01*
X173793400Y-81111500D01*
G75*
G02*
X174043400Y-81361500I0J-250000D01*
G01*
G37*
G36*
G01*
X172218400Y-81361500D02*
X172218400Y-82261500D01*
G75*
G02*
X171968400Y-82511500I-250000J0D01*
G01*
X171443400Y-82511500D01*
G75*
G02*
X171193400Y-82261500I0J250000D01*
G01*
X171193400Y-81361500D01*
G75*
G02*
X171443400Y-81111500I250000J0D01*
G01*
X171968400Y-81111500D01*
G75*
G02*
X172218400Y-81361500I0J-250000D01*
G01*
G37*
G36*
G01*
X153317000Y-117406000D02*
X153317000Y-118306000D01*
G75*
G02*
X153067000Y-118556000I-250000J0D01*
G01*
X152542000Y-118556000D01*
G75*
G02*
X152292000Y-118306000I0J250000D01*
G01*
X152292000Y-117406000D01*
G75*
G02*
X152542000Y-117156000I250000J0D01*
G01*
X153067000Y-117156000D01*
G75*
G02*
X153317000Y-117406000I0J-250000D01*
G01*
G37*
G36*
G01*
X151492000Y-117406000D02*
X151492000Y-118306000D01*
G75*
G02*
X151242000Y-118556000I-250000J0D01*
G01*
X150717000Y-118556000D01*
G75*
G02*
X150467000Y-118306000I0J250000D01*
G01*
X150467000Y-117406000D01*
G75*
G02*
X150717000Y-117156000I250000J0D01*
G01*
X151242000Y-117156000D01*
G75*
G02*
X151492000Y-117406000I0J-250000D01*
G01*
G37*
G36*
G01*
X148230000Y-103990000D02*
X148230000Y-104290000D01*
G75*
G02*
X148080000Y-104440000I-150000J0D01*
G01*
X146630000Y-104440000D01*
G75*
G02*
X146480000Y-104290000I0J150000D01*
G01*
X146480000Y-103990000D01*
G75*
G02*
X146630000Y-103840000I150000J0D01*
G01*
X148080000Y-103840000D01*
G75*
G02*
X148230000Y-103990000I0J-150000D01*
G01*
G37*
G36*
G01*
X148230000Y-105260000D02*
X148230000Y-105560000D01*
G75*
G02*
X148080000Y-105710000I-150000J0D01*
G01*
X146630000Y-105710000D01*
G75*
G02*
X146480000Y-105560000I0J150000D01*
G01*
X146480000Y-105260000D01*
G75*
G02*
X146630000Y-105110000I150000J0D01*
G01*
X148080000Y-105110000D01*
G75*
G02*
X148230000Y-105260000I0J-150000D01*
G01*
G37*
G36*
G01*
X148230000Y-106530000D02*
X148230000Y-106830000D01*
G75*
G02*
X148080000Y-106980000I-150000J0D01*
G01*
X146630000Y-106980000D01*
G75*
G02*
X146480000Y-106830000I0J150000D01*
G01*
X146480000Y-106530000D01*
G75*
G02*
X146630000Y-106380000I150000J0D01*
G01*
X148080000Y-106380000D01*
G75*
G02*
X148230000Y-106530000I0J-150000D01*
G01*
G37*
G36*
G01*
X148230000Y-107800000D02*
X148230000Y-108100000D01*
G75*
G02*
X148080000Y-108250000I-150000J0D01*
G01*
X146630000Y-108250000D01*
G75*
G02*
X146480000Y-108100000I0J150000D01*
G01*
X146480000Y-107800000D01*
G75*
G02*
X146630000Y-107650000I150000J0D01*
G01*
X148080000Y-107650000D01*
G75*
G02*
X148230000Y-107800000I0J-150000D01*
G01*
G37*
G36*
G01*
X148230000Y-109070000D02*
X148230000Y-109370000D01*
G75*
G02*
X148080000Y-109520000I-150000J0D01*
G01*
X146630000Y-109520000D01*
G75*
G02*
X146480000Y-109370000I0J150000D01*
G01*
X146480000Y-109070000D01*
G75*
G02*
X146630000Y-108920000I150000J0D01*
G01*
X148080000Y-108920000D01*
G75*
G02*
X148230000Y-109070000I0J-150000D01*
G01*
G37*
G36*
G01*
X148230000Y-110340000D02*
X148230000Y-110640000D01*
G75*
G02*
X148080000Y-110790000I-150000J0D01*
G01*
X146630000Y-110790000D01*
G75*
G02*
X146480000Y-110640000I0J150000D01*
G01*
X146480000Y-110340000D01*
G75*
G02*
X146630000Y-110190000I150000J0D01*
G01*
X148080000Y-110190000D01*
G75*
G02*
X148230000Y-110340000I0J-150000D01*
G01*
G37*
G36*
G01*
X148230000Y-111610000D02*
X148230000Y-111910000D01*
G75*
G02*
X148080000Y-112060000I-150000J0D01*
G01*
X146630000Y-112060000D01*
G75*
G02*
X146480000Y-111910000I0J150000D01*
G01*
X146480000Y-111610000D01*
G75*
G02*
X146630000Y-111460000I150000J0D01*
G01*
X148080000Y-111460000D01*
G75*
G02*
X148230000Y-111610000I0J-150000D01*
G01*
G37*
G36*
G01*
X148230000Y-112880000D02*
X148230000Y-113180000D01*
G75*
G02*
X148080000Y-113330000I-150000J0D01*
G01*
X146630000Y-113330000D01*
G75*
G02*
X146480000Y-113180000I0J150000D01*
G01*
X146480000Y-112880000D01*
G75*
G02*
X146630000Y-112730000I150000J0D01*
G01*
X148080000Y-112730000D01*
G75*
G02*
X148230000Y-112880000I0J-150000D01*
G01*
G37*
G36*
G01*
X143080000Y-112880000D02*
X143080000Y-113180000D01*
G75*
G02*
X142930000Y-113330000I-150000J0D01*
G01*
X141480000Y-113330000D01*
G75*
G02*
X141330000Y-113180000I0J150000D01*
G01*
X141330000Y-112880000D01*
G75*
G02*
X141480000Y-112730000I150000J0D01*
G01*
X142930000Y-112730000D01*
G75*
G02*
X143080000Y-112880000I0J-150000D01*
G01*
G37*
G36*
G01*
X143080000Y-111610000D02*
X143080000Y-111910000D01*
G75*
G02*
X142930000Y-112060000I-150000J0D01*
G01*
X141480000Y-112060000D01*
G75*
G02*
X141330000Y-111910000I0J150000D01*
G01*
X141330000Y-111610000D01*
G75*
G02*
X141480000Y-111460000I150000J0D01*
G01*
X142930000Y-111460000D01*
G75*
G02*
X143080000Y-111610000I0J-150000D01*
G01*
G37*
G36*
G01*
X143080000Y-110340000D02*
X143080000Y-110640000D01*
G75*
G02*
X142930000Y-110790000I-150000J0D01*
G01*
X141480000Y-110790000D01*
G75*
G02*
X141330000Y-110640000I0J150000D01*
G01*
X141330000Y-110340000D01*
G75*
G02*
X141480000Y-110190000I150000J0D01*
G01*
X142930000Y-110190000D01*
G75*
G02*
X143080000Y-110340000I0J-150000D01*
G01*
G37*
G36*
G01*
X143080000Y-109070000D02*
X143080000Y-109370000D01*
G75*
G02*
X142930000Y-109520000I-150000J0D01*
G01*
X141480000Y-109520000D01*
G75*
G02*
X141330000Y-109370000I0J150000D01*
G01*
X141330000Y-109070000D01*
G75*
G02*
X141480000Y-108920000I150000J0D01*
G01*
X142930000Y-108920000D01*
G75*
G02*
X143080000Y-109070000I0J-150000D01*
G01*
G37*
G36*
G01*
X143080000Y-107800000D02*
X143080000Y-108100000D01*
G75*
G02*
X142930000Y-108250000I-150000J0D01*
G01*
X141480000Y-108250000D01*
G75*
G02*
X141330000Y-108100000I0J150000D01*
G01*
X141330000Y-107800000D01*
G75*
G02*
X141480000Y-107650000I150000J0D01*
G01*
X142930000Y-107650000D01*
G75*
G02*
X143080000Y-107800000I0J-150000D01*
G01*
G37*
G36*
G01*
X143080000Y-106530000D02*
X143080000Y-106830000D01*
G75*
G02*
X142930000Y-106980000I-150000J0D01*
G01*
X141480000Y-106980000D01*
G75*
G02*
X141330000Y-106830000I0J150000D01*
G01*
X141330000Y-106530000D01*
G75*
G02*
X141480000Y-106380000I150000J0D01*
G01*
X142930000Y-106380000D01*
G75*
G02*
X143080000Y-106530000I0J-150000D01*
G01*
G37*
G36*
G01*
X143080000Y-105260000D02*
X143080000Y-105560000D01*
G75*
G02*
X142930000Y-105710000I-150000J0D01*
G01*
X141480000Y-105710000D01*
G75*
G02*
X141330000Y-105560000I0J150000D01*
G01*
X141330000Y-105260000D01*
G75*
G02*
X141480000Y-105110000I150000J0D01*
G01*
X142930000Y-105110000D01*
G75*
G02*
X143080000Y-105260000I0J-150000D01*
G01*
G37*
G36*
G01*
X143080000Y-103990000D02*
X143080000Y-104290000D01*
G75*
G02*
X142930000Y-104440000I-150000J0D01*
G01*
X141480000Y-104440000D01*
G75*
G02*
X141330000Y-104290000I0J150000D01*
G01*
X141330000Y-103990000D01*
G75*
G02*
X141480000Y-103840000I150000J0D01*
G01*
X142930000Y-103840000D01*
G75*
G02*
X143080000Y-103990000I0J-150000D01*
G01*
G37*
G36*
G01*
X181861400Y-77308500D02*
X181861400Y-76408500D01*
G75*
G02*
X182111400Y-76158500I250000J0D01*
G01*
X182636400Y-76158500D01*
G75*
G02*
X182886400Y-76408500I0J-250000D01*
G01*
X182886400Y-77308500D01*
G75*
G02*
X182636400Y-77558500I-250000J0D01*
G01*
X182111400Y-77558500D01*
G75*
G02*
X181861400Y-77308500I0J250000D01*
G01*
G37*
G36*
G01*
X183686400Y-77308500D02*
X183686400Y-76408500D01*
G75*
G02*
X183936400Y-76158500I250000J0D01*
G01*
X184461400Y-76158500D01*
G75*
G02*
X184711400Y-76408500I0J-250000D01*
G01*
X184711400Y-77308500D01*
G75*
G02*
X184461400Y-77558500I-250000J0D01*
G01*
X183936400Y-77558500D01*
G75*
G02*
X183686400Y-77308500I0J250000D01*
G01*
G37*
G36*
G01*
X148230000Y-120500000D02*
X148230000Y-120800000D01*
G75*
G02*
X148080000Y-120950000I-150000J0D01*
G01*
X146430000Y-120950000D01*
G75*
G02*
X146280000Y-120800000I0J150000D01*
G01*
X146280000Y-120500000D01*
G75*
G02*
X146430000Y-120350000I150000J0D01*
G01*
X148080000Y-120350000D01*
G75*
G02*
X148230000Y-120500000I0J-150000D01*
G01*
G37*
G36*
G01*
X148230000Y-121770000D02*
X148230000Y-122070000D01*
G75*
G02*
X148080000Y-122220000I-150000J0D01*
G01*
X146430000Y-122220000D01*
G75*
G02*
X146280000Y-122070000I0J150000D01*
G01*
X146280000Y-121770000D01*
G75*
G02*
X146430000Y-121620000I150000J0D01*
G01*
X148080000Y-121620000D01*
G75*
G02*
X148230000Y-121770000I0J-150000D01*
G01*
G37*
G36*
G01*
X148230000Y-123040000D02*
X148230000Y-123340000D01*
G75*
G02*
X148080000Y-123490000I-150000J0D01*
G01*
X146430000Y-123490000D01*
G75*
G02*
X146280000Y-123340000I0J150000D01*
G01*
X146280000Y-123040000D01*
G75*
G02*
X146430000Y-122890000I150000J0D01*
G01*
X148080000Y-122890000D01*
G75*
G02*
X148230000Y-123040000I0J-150000D01*
G01*
G37*
G36*
G01*
X148230000Y-124310000D02*
X148230000Y-124610000D01*
G75*
G02*
X148080000Y-124760000I-150000J0D01*
G01*
X146430000Y-124760000D01*
G75*
G02*
X146280000Y-124610000I0J150000D01*
G01*
X146280000Y-124310000D01*
G75*
G02*
X146430000Y-124160000I150000J0D01*
G01*
X148080000Y-124160000D01*
G75*
G02*
X148230000Y-124310000I0J-150000D01*
G01*
G37*
G36*
G01*
X143280000Y-124310000D02*
X143280000Y-124610000D01*
G75*
G02*
X143130000Y-124760000I-150000J0D01*
G01*
X141480000Y-124760000D01*
G75*
G02*
X141330000Y-124610000I0J150000D01*
G01*
X141330000Y-124310000D01*
G75*
G02*
X141480000Y-124160000I150000J0D01*
G01*
X143130000Y-124160000D01*
G75*
G02*
X143280000Y-124310000I0J-150000D01*
G01*
G37*
G36*
G01*
X143280000Y-123040000D02*
X143280000Y-123340000D01*
G75*
G02*
X143130000Y-123490000I-150000J0D01*
G01*
X141480000Y-123490000D01*
G75*
G02*
X141330000Y-123340000I0J150000D01*
G01*
X141330000Y-123040000D01*
G75*
G02*
X141480000Y-122890000I150000J0D01*
G01*
X143130000Y-122890000D01*
G75*
G02*
X143280000Y-123040000I0J-150000D01*
G01*
G37*
G36*
G01*
X143280000Y-121770000D02*
X143280000Y-122070000D01*
G75*
G02*
X143130000Y-122220000I-150000J0D01*
G01*
X141480000Y-122220000D01*
G75*
G02*
X141330000Y-122070000I0J150000D01*
G01*
X141330000Y-121770000D01*
G75*
G02*
X141480000Y-121620000I150000J0D01*
G01*
X143130000Y-121620000D01*
G75*
G02*
X143280000Y-121770000I0J-150000D01*
G01*
G37*
G36*
G01*
X143280000Y-120500000D02*
X143280000Y-120800000D01*
G75*
G02*
X143130000Y-120950000I-150000J0D01*
G01*
X141480000Y-120950000D01*
G75*
G02*
X141330000Y-120800000I0J150000D01*
G01*
X141330000Y-120500000D01*
G75*
G02*
X141480000Y-120350000I150000J0D01*
G01*
X143130000Y-120350000D01*
G75*
G02*
X143280000Y-120500000I0J-150000D01*
G01*
G37*
G36*
G01*
X184711400Y-78948500D02*
X184711400Y-79848500D01*
G75*
G02*
X184461400Y-80098500I-250000J0D01*
G01*
X183936400Y-80098500D01*
G75*
G02*
X183686400Y-79848500I0J250000D01*
G01*
X183686400Y-78948500D01*
G75*
G02*
X183936400Y-78698500I250000J0D01*
G01*
X184461400Y-78698500D01*
G75*
G02*
X184711400Y-78948500I0J-250000D01*
G01*
G37*
G36*
G01*
X182886400Y-78948500D02*
X182886400Y-79848500D01*
G75*
G02*
X182636400Y-80098500I-250000J0D01*
G01*
X182111400Y-80098500D01*
G75*
G02*
X181861400Y-79848500I0J250000D01*
G01*
X181861400Y-78948500D01*
G75*
G02*
X182111400Y-78698500I250000J0D01*
G01*
X182636400Y-78698500D01*
G75*
G02*
X182886400Y-78948500I0J-250000D01*
G01*
G37*
X116002100Y-106136400D03*
X116002100Y-107086400D03*
X116002100Y-108036400D03*
X113102100Y-108036400D03*
X113102100Y-107086400D03*
X113102100Y-106136400D03*
G36*
G01*
X178299400Y-98227500D02*
X178299400Y-99177500D01*
G75*
G02*
X178049400Y-99427500I-250000J0D01*
G01*
X177549400Y-99427500D01*
G75*
G02*
X177299400Y-99177500I0J250000D01*
G01*
X177299400Y-98227500D01*
G75*
G02*
X177549400Y-97977500I250000J0D01*
G01*
X178049400Y-97977500D01*
G75*
G02*
X178299400Y-98227500I0J-250000D01*
G01*
G37*
G36*
G01*
X176399400Y-98227500D02*
X176399400Y-99177500D01*
G75*
G02*
X176149400Y-99427500I-250000J0D01*
G01*
X175649400Y-99427500D01*
G75*
G02*
X175399400Y-99177500I0J250000D01*
G01*
X175399400Y-98227500D01*
G75*
G02*
X175649400Y-97977500I250000J0D01*
G01*
X176149400Y-97977500D01*
G75*
G02*
X176399400Y-98227500I0J-250000D01*
G01*
G37*
X197095400Y-105880500D03*
X197095400Y-106830500D03*
X197095400Y-107780500D03*
X194195400Y-107780500D03*
X194195400Y-106830500D03*
X194195400Y-105880500D03*
G36*
G01*
X100043000Y-49562600D02*
X100043000Y-50462600D01*
G75*
G02*
X99793000Y-50712600I-250000J0D01*
G01*
X99268000Y-50712600D01*
G75*
G02*
X99018000Y-50462600I0J250000D01*
G01*
X99018000Y-49562600D01*
G75*
G02*
X99268000Y-49312600I250000J0D01*
G01*
X99793000Y-49312600D01*
G75*
G02*
X100043000Y-49562600I0J-250000D01*
G01*
G37*
G36*
G01*
X98218000Y-49562600D02*
X98218000Y-50462600D01*
G75*
G02*
X97968000Y-50712600I-250000J0D01*
G01*
X97443000Y-50712600D01*
G75*
G02*
X97193000Y-50462600I0J250000D01*
G01*
X97193000Y-49562600D01*
G75*
G02*
X97443000Y-49312600I250000J0D01*
G01*
X97968000Y-49312600D01*
G75*
G02*
X98218000Y-49562600I0J-250000D01*
G01*
G37*
G36*
G01*
X109241000Y-48465600D02*
X109241000Y-48765600D01*
G75*
G02*
X109091000Y-48915600I-150000J0D01*
G01*
X107441000Y-48915600D01*
G75*
G02*
X107291000Y-48765600I0J150000D01*
G01*
X107291000Y-48465600D01*
G75*
G02*
X107441000Y-48315600I150000J0D01*
G01*
X109091000Y-48315600D01*
G75*
G02*
X109241000Y-48465600I0J-150000D01*
G01*
G37*
G36*
G01*
X109241000Y-49735600D02*
X109241000Y-50035600D01*
G75*
G02*
X109091000Y-50185600I-150000J0D01*
G01*
X107441000Y-50185600D01*
G75*
G02*
X107291000Y-50035600I0J150000D01*
G01*
X107291000Y-49735600D01*
G75*
G02*
X107441000Y-49585600I150000J0D01*
G01*
X109091000Y-49585600D01*
G75*
G02*
X109241000Y-49735600I0J-150000D01*
G01*
G37*
G36*
G01*
X109241000Y-51005600D02*
X109241000Y-51305600D01*
G75*
G02*
X109091000Y-51455600I-150000J0D01*
G01*
X107441000Y-51455600D01*
G75*
G02*
X107291000Y-51305600I0J150000D01*
G01*
X107291000Y-51005600D01*
G75*
G02*
X107441000Y-50855600I150000J0D01*
G01*
X109091000Y-50855600D01*
G75*
G02*
X109241000Y-51005600I0J-150000D01*
G01*
G37*
G36*
G01*
X109241000Y-52275600D02*
X109241000Y-52575600D01*
G75*
G02*
X109091000Y-52725600I-150000J0D01*
G01*
X107441000Y-52725600D01*
G75*
G02*
X107291000Y-52575600I0J150000D01*
G01*
X107291000Y-52275600D01*
G75*
G02*
X107441000Y-52125600I150000J0D01*
G01*
X109091000Y-52125600D01*
G75*
G02*
X109241000Y-52275600I0J-150000D01*
G01*
G37*
G36*
G01*
X104291000Y-52275600D02*
X104291000Y-52575600D01*
G75*
G02*
X104141000Y-52725600I-150000J0D01*
G01*
X102491000Y-52725600D01*
G75*
G02*
X102341000Y-52575600I0J150000D01*
G01*
X102341000Y-52275600D01*
G75*
G02*
X102491000Y-52125600I150000J0D01*
G01*
X104141000Y-52125600D01*
G75*
G02*
X104291000Y-52275600I0J-150000D01*
G01*
G37*
G36*
G01*
X104291000Y-51005600D02*
X104291000Y-51305600D01*
G75*
G02*
X104141000Y-51455600I-150000J0D01*
G01*
X102491000Y-51455600D01*
G75*
G02*
X102341000Y-51305600I0J150000D01*
G01*
X102341000Y-51005600D01*
G75*
G02*
X102491000Y-50855600I150000J0D01*
G01*
X104141000Y-50855600D01*
G75*
G02*
X104291000Y-51005600I0J-150000D01*
G01*
G37*
G36*
G01*
X104291000Y-49735600D02*
X104291000Y-50035600D01*
G75*
G02*
X104141000Y-50185600I-150000J0D01*
G01*
X102491000Y-50185600D01*
G75*
G02*
X102341000Y-50035600I0J150000D01*
G01*
X102341000Y-49735600D01*
G75*
G02*
X102491000Y-49585600I150000J0D01*
G01*
X104141000Y-49585600D01*
G75*
G02*
X104291000Y-49735600I0J-150000D01*
G01*
G37*
G36*
G01*
X104291000Y-48465600D02*
X104291000Y-48765600D01*
G75*
G02*
X104141000Y-48915600I-150000J0D01*
G01*
X102491000Y-48915600D01*
G75*
G02*
X102341000Y-48765600I0J150000D01*
G01*
X102341000Y-48465600D01*
G75*
G02*
X102491000Y-48315600I150000J0D01*
G01*
X104141000Y-48315600D01*
G75*
G02*
X104291000Y-48465600I0J-150000D01*
G01*
G37*
G36*
G01*
X116993100Y-124416400D02*
X116993100Y-125316400D01*
G75*
G02*
X116743100Y-125566400I-250000J0D01*
G01*
X116218100Y-125566400D01*
G75*
G02*
X115968100Y-125316400I0J250000D01*
G01*
X115968100Y-124416400D01*
G75*
G02*
X116218100Y-124166400I250000J0D01*
G01*
X116743100Y-124166400D01*
G75*
G02*
X116993100Y-124416400I0J-250000D01*
G01*
G37*
G36*
G01*
X115168100Y-124416400D02*
X115168100Y-125316400D01*
G75*
G02*
X114918100Y-125566400I-250000J0D01*
G01*
X114393100Y-125566400D01*
G75*
G02*
X114143100Y-125316400I0J250000D01*
G01*
X114143100Y-124416400D01*
G75*
G02*
X114393100Y-124166400I250000J0D01*
G01*
X114918100Y-124166400D01*
G75*
G02*
X115168100Y-124416400I0J-250000D01*
G01*
G37*
G36*
G01*
X189440400Y-70861500D02*
X190340400Y-70861500D01*
G75*
G02*
X190590400Y-71111500I0J-250000D01*
G01*
X190590400Y-71636500D01*
G75*
G02*
X190340400Y-71886500I-250000J0D01*
G01*
X189440400Y-71886500D01*
G75*
G02*
X189190400Y-71636500I0J250000D01*
G01*
X189190400Y-71111500D01*
G75*
G02*
X189440400Y-70861500I250000J0D01*
G01*
G37*
G36*
G01*
X189440400Y-72686500D02*
X190340400Y-72686500D01*
G75*
G02*
X190590400Y-72936500I0J-250000D01*
G01*
X190590400Y-73461500D01*
G75*
G02*
X190340400Y-73711500I-250000J0D01*
G01*
X189440400Y-73711500D01*
G75*
G02*
X189190400Y-73461500I0J250000D01*
G01*
X189190400Y-72936500D01*
G75*
G02*
X189440400Y-72686500I250000J0D01*
G01*
G37*
G36*
G01*
X189440400Y-79902000D02*
X190340400Y-79902000D01*
G75*
G02*
X190590400Y-80152000I0J-250000D01*
G01*
X190590400Y-80677000D01*
G75*
G02*
X190340400Y-80927000I-250000J0D01*
G01*
X189440400Y-80927000D01*
G75*
G02*
X189190400Y-80677000I0J250000D01*
G01*
X189190400Y-80152000D01*
G75*
G02*
X189440400Y-79902000I250000J0D01*
G01*
G37*
G36*
G01*
X189440400Y-81727000D02*
X190340400Y-81727000D01*
G75*
G02*
X190590400Y-81977000I0J-250000D01*
G01*
X190590400Y-82502000D01*
G75*
G02*
X190340400Y-82752000I-250000J0D01*
G01*
X189440400Y-82752000D01*
G75*
G02*
X189190400Y-82502000I0J250000D01*
G01*
X189190400Y-81977000D01*
G75*
G02*
X189440400Y-81727000I250000J0D01*
G01*
G37*
G36*
G01*
X150338500Y-113251000D02*
X150338500Y-112301000D01*
G75*
G02*
X150588500Y-112051000I250000J0D01*
G01*
X151088500Y-112051000D01*
G75*
G02*
X151338500Y-112301000I0J-250000D01*
G01*
X151338500Y-113251000D01*
G75*
G02*
X151088500Y-113501000I-250000J0D01*
G01*
X150588500Y-113501000D01*
G75*
G02*
X150338500Y-113251000I0J250000D01*
G01*
G37*
G36*
G01*
X152238500Y-113251000D02*
X152238500Y-112301000D01*
G75*
G02*
X152488500Y-112051000I250000J0D01*
G01*
X152988500Y-112051000D01*
G75*
G02*
X153238500Y-112301000I0J-250000D01*
G01*
X153238500Y-113251000D01*
G75*
G02*
X152988500Y-113501000I-250000J0D01*
G01*
X152488500Y-113501000D01*
G75*
G02*
X152238500Y-113251000I0J250000D01*
G01*
G37*
G36*
G01*
X188925900Y-102369200D02*
X188925900Y-103269200D01*
G75*
G02*
X188675900Y-103519200I-250000J0D01*
G01*
X188150900Y-103519200D01*
G75*
G02*
X187900900Y-103269200I0J250000D01*
G01*
X187900900Y-102369200D01*
G75*
G02*
X188150900Y-102119200I250000J0D01*
G01*
X188675900Y-102119200D01*
G75*
G02*
X188925900Y-102369200I0J-250000D01*
G01*
G37*
G36*
G01*
X187100900Y-102369200D02*
X187100900Y-103269200D01*
G75*
G02*
X186850900Y-103519200I-250000J0D01*
G01*
X186325900Y-103519200D01*
G75*
G02*
X186075900Y-103269200I0J250000D01*
G01*
X186075900Y-102369200D01*
G75*
G02*
X186325900Y-102119200I250000J0D01*
G01*
X186850900Y-102119200D01*
G75*
G02*
X187100900Y-102369200I0J-250000D01*
G01*
G37*
G36*
G01*
X150363500Y-108146000D02*
X150363500Y-107246000D01*
G75*
G02*
X150613500Y-106996000I250000J0D01*
G01*
X151138500Y-106996000D01*
G75*
G02*
X151388500Y-107246000I0J-250000D01*
G01*
X151388500Y-108146000D01*
G75*
G02*
X151138500Y-108396000I-250000J0D01*
G01*
X150613500Y-108396000D01*
G75*
G02*
X150363500Y-108146000I0J250000D01*
G01*
G37*
G36*
G01*
X152188500Y-108146000D02*
X152188500Y-107246000D01*
G75*
G02*
X152438500Y-106996000I250000J0D01*
G01*
X152963500Y-106996000D01*
G75*
G02*
X153213500Y-107246000I0J-250000D01*
G01*
X153213500Y-108146000D01*
G75*
G02*
X152963500Y-108396000I-250000J0D01*
G01*
X152438500Y-108396000D01*
G75*
G02*
X152188500Y-108146000I0J250000D01*
G01*
G37*
G36*
G01*
X114328000Y-54642600D02*
X114328000Y-55542600D01*
G75*
G02*
X114078000Y-55792600I-250000J0D01*
G01*
X113553000Y-55792600D01*
G75*
G02*
X113303000Y-55542600I0J250000D01*
G01*
X113303000Y-54642600D01*
G75*
G02*
X113553000Y-54392600I250000J0D01*
G01*
X114078000Y-54392600D01*
G75*
G02*
X114328000Y-54642600I0J-250000D01*
G01*
G37*
G36*
G01*
X112503000Y-54642600D02*
X112503000Y-55542600D01*
G75*
G02*
X112253000Y-55792600I-250000J0D01*
G01*
X111728000Y-55792600D01*
G75*
G02*
X111478000Y-55542600I0J250000D01*
G01*
X111478000Y-54642600D01*
G75*
G02*
X111728000Y-54392600I250000J0D01*
G01*
X112253000Y-54392600D01*
G75*
G02*
X112503000Y-54642600I0J-250000D01*
G01*
G37*
G36*
G01*
X69014000Y-128303000D02*
X69014000Y-129253000D01*
G75*
G02*
X68764000Y-129503000I-250000J0D01*
G01*
X68264000Y-129503000D01*
G75*
G02*
X68014000Y-129253000I0J250000D01*
G01*
X68014000Y-128303000D01*
G75*
G02*
X68264000Y-128053000I250000J0D01*
G01*
X68764000Y-128053000D01*
G75*
G02*
X69014000Y-128303000I0J-250000D01*
G01*
G37*
G36*
G01*
X67114000Y-128303000D02*
X67114000Y-129253000D01*
G75*
G02*
X66864000Y-129503000I-250000J0D01*
G01*
X66364000Y-129503000D01*
G75*
G02*
X66114000Y-129253000I0J250000D01*
G01*
X66114000Y-128303000D01*
G75*
G02*
X66364000Y-128053000I250000J0D01*
G01*
X66864000Y-128053000D01*
G75*
G02*
X67114000Y-128303000I0J-250000D01*
G01*
G37*
G36*
G01*
X148196000Y-90330000D02*
X148196000Y-91280000D01*
G75*
G02*
X147946000Y-91530000I-250000J0D01*
G01*
X147446000Y-91530000D01*
G75*
G02*
X147196000Y-91280000I0J250000D01*
G01*
X147196000Y-90330000D01*
G75*
G02*
X147446000Y-90080000I250000J0D01*
G01*
X147946000Y-90080000D01*
G75*
G02*
X148196000Y-90330000I0J-250000D01*
G01*
G37*
G36*
G01*
X146296000Y-90330000D02*
X146296000Y-91280000D01*
G75*
G02*
X146046000Y-91530000I-250000J0D01*
G01*
X145546000Y-91530000D01*
G75*
G02*
X145296000Y-91280000I0J250000D01*
G01*
X145296000Y-90330000D01*
G75*
G02*
X145546000Y-90080000I250000J0D01*
G01*
X146046000Y-90080000D01*
G75*
G02*
X146296000Y-90330000I0J-250000D01*
G01*
G37*
G36*
G01*
X150363500Y-103066000D02*
X150363500Y-102166000D01*
G75*
G02*
X150613500Y-101916000I250000J0D01*
G01*
X151138500Y-101916000D01*
G75*
G02*
X151388500Y-102166000I0J-250000D01*
G01*
X151388500Y-103066000D01*
G75*
G02*
X151138500Y-103316000I-250000J0D01*
G01*
X150613500Y-103316000D01*
G75*
G02*
X150363500Y-103066000I0J250000D01*
G01*
G37*
G36*
G01*
X152188500Y-103066000D02*
X152188500Y-102166000D01*
G75*
G02*
X152438500Y-101916000I250000J0D01*
G01*
X152963500Y-101916000D01*
G75*
G02*
X153213500Y-102166000I0J-250000D01*
G01*
X153213500Y-103066000D01*
G75*
G02*
X152963500Y-103316000I-250000J0D01*
G01*
X152438500Y-103316000D01*
G75*
G02*
X152188500Y-103066000I0J250000D01*
G01*
G37*
X116002100Y-66512400D03*
X116002100Y-67462400D03*
X116002100Y-68412400D03*
X113102100Y-68412400D03*
X113102100Y-67462400D03*
X113102100Y-66512400D03*
G36*
G01*
X223803900Y-61780000D02*
X223803900Y-62680000D01*
G75*
G02*
X223553900Y-62930000I-250000J0D01*
G01*
X223028900Y-62930000D01*
G75*
G02*
X222778900Y-62680000I0J250000D01*
G01*
X222778900Y-61780000D01*
G75*
G02*
X223028900Y-61530000I250000J0D01*
G01*
X223553900Y-61530000D01*
G75*
G02*
X223803900Y-61780000I0J-250000D01*
G01*
G37*
G36*
G01*
X221978900Y-61780000D02*
X221978900Y-62680000D01*
G75*
G02*
X221728900Y-62930000I-250000J0D01*
G01*
X221203900Y-62930000D01*
G75*
G02*
X220953900Y-62680000I0J250000D01*
G01*
X220953900Y-61780000D01*
G75*
G02*
X221203900Y-61530000I250000J0D01*
G01*
X221728900Y-61530000D01*
G75*
G02*
X221978900Y-61780000I0J-250000D01*
G01*
G37*
G36*
G01*
X93926600Y-95344400D02*
X93926600Y-94444400D01*
G75*
G02*
X94176600Y-94194400I250000J0D01*
G01*
X94701600Y-94194400D01*
G75*
G02*
X94951600Y-94444400I0J-250000D01*
G01*
X94951600Y-95344400D01*
G75*
G02*
X94701600Y-95594400I-250000J0D01*
G01*
X94176600Y-95594400D01*
G75*
G02*
X93926600Y-95344400I0J250000D01*
G01*
G37*
G36*
G01*
X95751600Y-95344400D02*
X95751600Y-94444400D01*
G75*
G02*
X96001600Y-94194400I250000J0D01*
G01*
X96526600Y-94194400D01*
G75*
G02*
X96776600Y-94444400I0J-250000D01*
G01*
X96776600Y-95344400D01*
G75*
G02*
X96526600Y-95594400I-250000J0D01*
G01*
X96001600Y-95594400D01*
G75*
G02*
X95751600Y-95344400I0J250000D01*
G01*
G37*
G36*
G01*
X75283000Y-121862000D02*
X75283000Y-120962000D01*
G75*
G02*
X75533000Y-120712000I250000J0D01*
G01*
X76058000Y-120712000D01*
G75*
G02*
X76308000Y-120962000I0J-250000D01*
G01*
X76308000Y-121862000D01*
G75*
G02*
X76058000Y-122112000I-250000J0D01*
G01*
X75533000Y-122112000D01*
G75*
G02*
X75283000Y-121862000I0J250000D01*
G01*
G37*
G36*
G01*
X77108000Y-121862000D02*
X77108000Y-120962000D01*
G75*
G02*
X77358000Y-120712000I250000J0D01*
G01*
X77883000Y-120712000D01*
G75*
G02*
X78133000Y-120962000I0J-250000D01*
G01*
X78133000Y-121862000D01*
G75*
G02*
X77883000Y-122112000I-250000J0D01*
G01*
X77358000Y-122112000D01*
G75*
G02*
X77108000Y-121862000I0J250000D01*
G01*
G37*
G36*
G01*
X108514100Y-71418400D02*
X109414100Y-71418400D01*
G75*
G02*
X109664100Y-71668400I0J-250000D01*
G01*
X109664100Y-72193400D01*
G75*
G02*
X109414100Y-72443400I-250000J0D01*
G01*
X108514100Y-72443400D01*
G75*
G02*
X108264100Y-72193400I0J250000D01*
G01*
X108264100Y-71668400D01*
G75*
G02*
X108514100Y-71418400I250000J0D01*
G01*
G37*
G36*
G01*
X108514100Y-73243400D02*
X109414100Y-73243400D01*
G75*
G02*
X109664100Y-73493400I0J-250000D01*
G01*
X109664100Y-74018400D01*
G75*
G02*
X109414100Y-74268400I-250000J0D01*
G01*
X108514100Y-74268400D01*
G75*
G02*
X108264100Y-74018400I0J250000D01*
G01*
X108264100Y-73493400D01*
G75*
G02*
X108514100Y-73243400I250000J0D01*
G01*
G37*
G36*
G01*
X150363500Y-115766000D02*
X150363500Y-114866000D01*
G75*
G02*
X150613500Y-114616000I250000J0D01*
G01*
X151138500Y-114616000D01*
G75*
G02*
X151388500Y-114866000I0J-250000D01*
G01*
X151388500Y-115766000D01*
G75*
G02*
X151138500Y-116016000I-250000J0D01*
G01*
X150613500Y-116016000D01*
G75*
G02*
X150363500Y-115766000I0J250000D01*
G01*
G37*
G36*
G01*
X152188500Y-115766000D02*
X152188500Y-114866000D01*
G75*
G02*
X152438500Y-114616000I250000J0D01*
G01*
X152963500Y-114616000D01*
G75*
G02*
X153213500Y-114866000I0J-250000D01*
G01*
X153213500Y-115766000D01*
G75*
G02*
X152963500Y-116016000I-250000J0D01*
G01*
X152438500Y-116016000D01*
G75*
G02*
X152188500Y-115766000I0J250000D01*
G01*
G37*
G36*
G01*
X197681900Y-124160500D02*
X197681900Y-125060500D01*
G75*
G02*
X197431900Y-125310500I-250000J0D01*
G01*
X196906900Y-125310500D01*
G75*
G02*
X196656900Y-125060500I0J250000D01*
G01*
X196656900Y-124160500D01*
G75*
G02*
X196906900Y-123910500I250000J0D01*
G01*
X197431900Y-123910500D01*
G75*
G02*
X197681900Y-124160500I0J-250000D01*
G01*
G37*
G36*
G01*
X195856900Y-124160500D02*
X195856900Y-125060500D01*
G75*
G02*
X195606900Y-125310500I-250000J0D01*
G01*
X195081900Y-125310500D01*
G75*
G02*
X194831900Y-125060500I0J250000D01*
G01*
X194831900Y-124160500D01*
G75*
G02*
X195081900Y-123910500I250000J0D01*
G01*
X195606900Y-123910500D01*
G75*
G02*
X195856900Y-124160500I0J-250000D01*
G01*
G37*
G36*
G01*
X181561400Y-49459500D02*
X181561400Y-50409500D01*
G75*
G02*
X181311400Y-50659500I-250000J0D01*
G01*
X180811400Y-50659500D01*
G75*
G02*
X180561400Y-50409500I0J250000D01*
G01*
X180561400Y-49459500D01*
G75*
G02*
X180811400Y-49209500I250000J0D01*
G01*
X181311400Y-49209500D01*
G75*
G02*
X181561400Y-49459500I0J-250000D01*
G01*
G37*
G36*
G01*
X179661400Y-49459500D02*
X179661400Y-50409500D01*
G75*
G02*
X179411400Y-50659500I-250000J0D01*
G01*
X178911400Y-50659500D01*
G75*
G02*
X178661400Y-50409500I0J250000D01*
G01*
X178661400Y-49459500D01*
G75*
G02*
X178911400Y-49209500I250000J0D01*
G01*
X179411400Y-49209500D01*
G75*
G02*
X179661400Y-49459500I0J-250000D01*
G01*
G37*
G36*
G01*
X173297900Y-107904500D02*
X173297900Y-108804500D01*
G75*
G02*
X173047900Y-109054500I-250000J0D01*
G01*
X172522900Y-109054500D01*
G75*
G02*
X172272900Y-108804500I0J250000D01*
G01*
X172272900Y-107904500D01*
G75*
G02*
X172522900Y-107654500I250000J0D01*
G01*
X173047900Y-107654500D01*
G75*
G02*
X173297900Y-107904500I0J-250000D01*
G01*
G37*
G36*
G01*
X171472900Y-107904500D02*
X171472900Y-108804500D01*
G75*
G02*
X171222900Y-109054500I-250000J0D01*
G01*
X170697900Y-109054500D01*
G75*
G02*
X170447900Y-108804500I0J250000D01*
G01*
X170447900Y-107904500D01*
G75*
G02*
X170697900Y-107654500I250000J0D01*
G01*
X171222900Y-107654500D01*
G75*
G02*
X171472900Y-107904500I0J-250000D01*
G01*
G37*
G36*
G01*
X175174400Y-104882500D02*
X175174400Y-104582500D01*
G75*
G02*
X175324400Y-104432500I150000J0D01*
G01*
X176499400Y-104432500D01*
G75*
G02*
X176649400Y-104582500I0J-150000D01*
G01*
X176649400Y-104882500D01*
G75*
G02*
X176499400Y-105032500I-150000J0D01*
G01*
X175324400Y-105032500D01*
G75*
G02*
X175174400Y-104882500I0J150000D01*
G01*
G37*
G36*
G01*
X175174400Y-102982500D02*
X175174400Y-102682500D01*
G75*
G02*
X175324400Y-102532500I150000J0D01*
G01*
X176499400Y-102532500D01*
G75*
G02*
X176649400Y-102682500I0J-150000D01*
G01*
X176649400Y-102982500D01*
G75*
G02*
X176499400Y-103132500I-150000J0D01*
G01*
X175324400Y-103132500D01*
G75*
G02*
X175174400Y-102982500I0J150000D01*
G01*
G37*
G36*
G01*
X177049400Y-103932500D02*
X177049400Y-103632500D01*
G75*
G02*
X177199400Y-103482500I150000J0D01*
G01*
X178374400Y-103482500D01*
G75*
G02*
X178524400Y-103632500I0J-150000D01*
G01*
X178524400Y-103932500D01*
G75*
G02*
X178374400Y-104082500I-150000J0D01*
G01*
X177199400Y-104082500D01*
G75*
G02*
X177049400Y-103932500I0J150000D01*
G01*
G37*
G36*
G01*
X136152000Y-120871000D02*
X136152000Y-119921000D01*
G75*
G02*
X136402000Y-119671000I250000J0D01*
G01*
X136902000Y-119671000D01*
G75*
G02*
X137152000Y-119921000I0J-250000D01*
G01*
X137152000Y-120871000D01*
G75*
G02*
X136902000Y-121121000I-250000J0D01*
G01*
X136402000Y-121121000D01*
G75*
G02*
X136152000Y-120871000I0J250000D01*
G01*
G37*
G36*
G01*
X138052000Y-120871000D02*
X138052000Y-119921000D01*
G75*
G02*
X138302000Y-119671000I250000J0D01*
G01*
X138802000Y-119671000D01*
G75*
G02*
X139052000Y-119921000I0J-250000D01*
G01*
X139052000Y-120871000D01*
G75*
G02*
X138802000Y-121121000I-250000J0D01*
G01*
X138302000Y-121121000D01*
G75*
G02*
X138052000Y-120871000I0J250000D01*
G01*
G37*
G36*
G01*
X112825600Y-124416400D02*
X112825600Y-125316400D01*
G75*
G02*
X112575600Y-125566400I-250000J0D01*
G01*
X112050600Y-125566400D01*
G75*
G02*
X111800600Y-125316400I0J250000D01*
G01*
X111800600Y-124416400D01*
G75*
G02*
X112050600Y-124166400I250000J0D01*
G01*
X112575600Y-124166400D01*
G75*
G02*
X112825600Y-124416400I0J-250000D01*
G01*
G37*
G36*
G01*
X111000600Y-124416400D02*
X111000600Y-125316400D01*
G75*
G02*
X110750600Y-125566400I-250000J0D01*
G01*
X110225600Y-125566400D01*
G75*
G02*
X109975600Y-125316400I0J250000D01*
G01*
X109975600Y-124416400D01*
G75*
G02*
X110225600Y-124166400I250000J0D01*
G01*
X110750600Y-124166400D01*
G75*
G02*
X111000600Y-124416400I0J-250000D01*
G01*
G37*
G36*
G01*
X153317000Y-97086000D02*
X153317000Y-97986000D01*
G75*
G02*
X153067000Y-98236000I-250000J0D01*
G01*
X152542000Y-98236000D01*
G75*
G02*
X152292000Y-97986000I0J250000D01*
G01*
X152292000Y-97086000D01*
G75*
G02*
X152542000Y-96836000I250000J0D01*
G01*
X153067000Y-96836000D01*
G75*
G02*
X153317000Y-97086000I0J-250000D01*
G01*
G37*
G36*
G01*
X151492000Y-97086000D02*
X151492000Y-97986000D01*
G75*
G02*
X151242000Y-98236000I-250000J0D01*
G01*
X150717000Y-98236000D01*
G75*
G02*
X150467000Y-97986000I0J250000D01*
G01*
X150467000Y-97086000D01*
G75*
G02*
X150717000Y-96836000I250000J0D01*
G01*
X151242000Y-96836000D01*
G75*
G02*
X151492000Y-97086000I0J-250000D01*
G01*
G37*
G36*
G01*
X186769400Y-59873500D02*
X186769400Y-60823500D01*
G75*
G02*
X186519400Y-61073500I-250000J0D01*
G01*
X186019400Y-61073500D01*
G75*
G02*
X185769400Y-60823500I0J250000D01*
G01*
X185769400Y-59873500D01*
G75*
G02*
X186019400Y-59623500I250000J0D01*
G01*
X186519400Y-59623500D01*
G75*
G02*
X186769400Y-59873500I0J-250000D01*
G01*
G37*
G36*
G01*
X184869400Y-59873500D02*
X184869400Y-60823500D01*
G75*
G02*
X184619400Y-61073500I-250000J0D01*
G01*
X184119400Y-61073500D01*
G75*
G02*
X183869400Y-60823500I0J250000D01*
G01*
X183869400Y-59873500D01*
G75*
G02*
X184119400Y-59623500I250000J0D01*
G01*
X184619400Y-59623500D01*
G75*
G02*
X184869400Y-59873500I0J-250000D01*
G01*
G37*
G36*
G01*
X189440400Y-106318000D02*
X190340400Y-106318000D01*
G75*
G02*
X190590400Y-106568000I0J-250000D01*
G01*
X190590400Y-107093000D01*
G75*
G02*
X190340400Y-107343000I-250000J0D01*
G01*
X189440400Y-107343000D01*
G75*
G02*
X189190400Y-107093000I0J250000D01*
G01*
X189190400Y-106568000D01*
G75*
G02*
X189440400Y-106318000I250000J0D01*
G01*
G37*
G36*
G01*
X189440400Y-108143000D02*
X190340400Y-108143000D01*
G75*
G02*
X190590400Y-108393000I0J-250000D01*
G01*
X190590400Y-108918000D01*
G75*
G02*
X190340400Y-109168000I-250000J0D01*
G01*
X189440400Y-109168000D01*
G75*
G02*
X189190400Y-108918000I0J250000D01*
G01*
X189190400Y-108393000D01*
G75*
G02*
X189440400Y-108143000I250000J0D01*
G01*
G37*
G36*
G01*
X218509900Y-89918400D02*
X218509900Y-90218400D01*
G75*
G02*
X218359900Y-90368400I-150000J0D01*
G01*
X216709900Y-90368400D01*
G75*
G02*
X216559900Y-90218400I0J150000D01*
G01*
X216559900Y-89918400D01*
G75*
G02*
X216709900Y-89768400I150000J0D01*
G01*
X218359900Y-89768400D01*
G75*
G02*
X218509900Y-89918400I0J-150000D01*
G01*
G37*
G36*
G01*
X218509900Y-91188400D02*
X218509900Y-91488400D01*
G75*
G02*
X218359900Y-91638400I-150000J0D01*
G01*
X216709900Y-91638400D01*
G75*
G02*
X216559900Y-91488400I0J150000D01*
G01*
X216559900Y-91188400D01*
G75*
G02*
X216709900Y-91038400I150000J0D01*
G01*
X218359900Y-91038400D01*
G75*
G02*
X218509900Y-91188400I0J-150000D01*
G01*
G37*
G36*
G01*
X218509900Y-92458400D02*
X218509900Y-92758400D01*
G75*
G02*
X218359900Y-92908400I-150000J0D01*
G01*
X216709900Y-92908400D01*
G75*
G02*
X216559900Y-92758400I0J150000D01*
G01*
X216559900Y-92458400D01*
G75*
G02*
X216709900Y-92308400I150000J0D01*
G01*
X218359900Y-92308400D01*
G75*
G02*
X218509900Y-92458400I0J-150000D01*
G01*
G37*
G36*
G01*
X218509900Y-93728400D02*
X218509900Y-94028400D01*
G75*
G02*
X218359900Y-94178400I-150000J0D01*
G01*
X216709900Y-94178400D01*
G75*
G02*
X216559900Y-94028400I0J150000D01*
G01*
X216559900Y-93728400D01*
G75*
G02*
X216709900Y-93578400I150000J0D01*
G01*
X218359900Y-93578400D01*
G75*
G02*
X218509900Y-93728400I0J-150000D01*
G01*
G37*
G36*
G01*
X213559900Y-93728400D02*
X213559900Y-94028400D01*
G75*
G02*
X213409900Y-94178400I-150000J0D01*
G01*
X211759900Y-94178400D01*
G75*
G02*
X211609900Y-94028400I0J150000D01*
G01*
X211609900Y-93728400D01*
G75*
G02*
X211759900Y-93578400I150000J0D01*
G01*
X213409900Y-93578400D01*
G75*
G02*
X213559900Y-93728400I0J-150000D01*
G01*
G37*
G36*
G01*
X213559900Y-92458400D02*
X213559900Y-92758400D01*
G75*
G02*
X213409900Y-92908400I-150000J0D01*
G01*
X211759900Y-92908400D01*
G75*
G02*
X211609900Y-92758400I0J150000D01*
G01*
X211609900Y-92458400D01*
G75*
G02*
X211759900Y-92308400I150000J0D01*
G01*
X213409900Y-92308400D01*
G75*
G02*
X213559900Y-92458400I0J-150000D01*
G01*
G37*
G36*
G01*
X213559900Y-91188400D02*
X213559900Y-91488400D01*
G75*
G02*
X213409900Y-91638400I-150000J0D01*
G01*
X211759900Y-91638400D01*
G75*
G02*
X211609900Y-91488400I0J150000D01*
G01*
X211609900Y-91188400D01*
G75*
G02*
X211759900Y-91038400I150000J0D01*
G01*
X213409900Y-91038400D01*
G75*
G02*
X213559900Y-91188400I0J-150000D01*
G01*
G37*
G36*
G01*
X213559900Y-89918400D02*
X213559900Y-90218400D01*
G75*
G02*
X213409900Y-90368400I-150000J0D01*
G01*
X211759900Y-90368400D01*
G75*
G02*
X211609900Y-90218400I0J150000D01*
G01*
X211609900Y-89918400D01*
G75*
G02*
X211759900Y-89768400I150000J0D01*
G01*
X213409900Y-89768400D01*
G75*
G02*
X213559900Y-89918400I0J-150000D01*
G01*
G37*
G36*
G01*
X144264000Y-127541000D02*
X144264000Y-128491000D01*
G75*
G02*
X144014000Y-128741000I-250000J0D01*
G01*
X143514000Y-128741000D01*
G75*
G02*
X143264000Y-128491000I0J250000D01*
G01*
X143264000Y-127541000D01*
G75*
G02*
X143514000Y-127291000I250000J0D01*
G01*
X144014000Y-127291000D01*
G75*
G02*
X144264000Y-127541000I0J-250000D01*
G01*
G37*
G36*
G01*
X142364000Y-127541000D02*
X142364000Y-128491000D01*
G75*
G02*
X142114000Y-128741000I-250000J0D01*
G01*
X141614000Y-128741000D01*
G75*
G02*
X141364000Y-128491000I0J250000D01*
G01*
X141364000Y-127541000D01*
G75*
G02*
X141614000Y-127291000I250000J0D01*
G01*
X142114000Y-127291000D01*
G75*
G02*
X142364000Y-127541000I0J-250000D01*
G01*
G37*
G36*
G01*
X114328000Y-59722600D02*
X114328000Y-60622600D01*
G75*
G02*
X114078000Y-60872600I-250000J0D01*
G01*
X113553000Y-60872600D01*
G75*
G02*
X113303000Y-60622600I0J250000D01*
G01*
X113303000Y-59722600D01*
G75*
G02*
X113553000Y-59472600I250000J0D01*
G01*
X114078000Y-59472600D01*
G75*
G02*
X114328000Y-59722600I0J-250000D01*
G01*
G37*
G36*
G01*
X112503000Y-59722600D02*
X112503000Y-60622600D01*
G75*
G02*
X112253000Y-60872600I-250000J0D01*
G01*
X111728000Y-60872600D01*
G75*
G02*
X111478000Y-60622600I0J250000D01*
G01*
X111478000Y-59722600D01*
G75*
G02*
X111728000Y-59472600I250000J0D01*
G01*
X112253000Y-59472600D01*
G75*
G02*
X112503000Y-59722600I0J-250000D01*
G01*
G37*
G36*
G01*
X71275000Y-61653000D02*
X71275000Y-62553000D01*
G75*
G02*
X71025000Y-62803000I-250000J0D01*
G01*
X70500000Y-62803000D01*
G75*
G02*
X70250000Y-62553000I0J250000D01*
G01*
X70250000Y-61653000D01*
G75*
G02*
X70500000Y-61403000I250000J0D01*
G01*
X71025000Y-61403000D01*
G75*
G02*
X71275000Y-61653000I0J-250000D01*
G01*
G37*
G36*
G01*
X69450000Y-61653000D02*
X69450000Y-62553000D01*
G75*
G02*
X69200000Y-62803000I-250000J0D01*
G01*
X68675000Y-62803000D01*
G75*
G02*
X68425000Y-62553000I0J250000D01*
G01*
X68425000Y-61653000D01*
G75*
G02*
X68675000Y-61403000I250000J0D01*
G01*
X69200000Y-61403000D01*
G75*
G02*
X69450000Y-61653000I0J-250000D01*
G01*
G37*
G36*
G01*
X139159000Y-109786000D02*
X139159000Y-110686000D01*
G75*
G02*
X138909000Y-110936000I-250000J0D01*
G01*
X138384000Y-110936000D01*
G75*
G02*
X138134000Y-110686000I0J250000D01*
G01*
X138134000Y-109786000D01*
G75*
G02*
X138384000Y-109536000I250000J0D01*
G01*
X138909000Y-109536000D01*
G75*
G02*
X139159000Y-109786000I0J-250000D01*
G01*
G37*
G36*
G01*
X137334000Y-109786000D02*
X137334000Y-110686000D01*
G75*
G02*
X137084000Y-110936000I-250000J0D01*
G01*
X136559000Y-110936000D01*
G75*
G02*
X136309000Y-110686000I0J250000D01*
G01*
X136309000Y-109786000D01*
G75*
G02*
X136559000Y-109536000I250000J0D01*
G01*
X137084000Y-109536000D01*
G75*
G02*
X137334000Y-109786000I0J-250000D01*
G01*
G37*
G36*
G01*
X114328000Y-57182600D02*
X114328000Y-58082600D01*
G75*
G02*
X114078000Y-58332600I-250000J0D01*
G01*
X113553000Y-58332600D01*
G75*
G02*
X113303000Y-58082600I0J250000D01*
G01*
X113303000Y-57182600D01*
G75*
G02*
X113553000Y-56932600I250000J0D01*
G01*
X114078000Y-56932600D01*
G75*
G02*
X114328000Y-57182600I0J-250000D01*
G01*
G37*
G36*
G01*
X112503000Y-57182600D02*
X112503000Y-58082600D01*
G75*
G02*
X112253000Y-58332600I-250000J0D01*
G01*
X111728000Y-58332600D01*
G75*
G02*
X111478000Y-58082600I0J250000D01*
G01*
X111478000Y-57182600D01*
G75*
G02*
X111728000Y-56932600I250000J0D01*
G01*
X112253000Y-56932600D01*
G75*
G02*
X112503000Y-57182600I0J-250000D01*
G01*
G37*
G36*
G01*
X108514100Y-93365900D02*
X109414100Y-93365900D01*
G75*
G02*
X109664100Y-93615900I0J-250000D01*
G01*
X109664100Y-94140900D01*
G75*
G02*
X109414100Y-94390900I-250000J0D01*
G01*
X108514100Y-94390900D01*
G75*
G02*
X108264100Y-94140900I0J250000D01*
G01*
X108264100Y-93615900D01*
G75*
G02*
X108514100Y-93365900I250000J0D01*
G01*
G37*
G36*
G01*
X108514100Y-95190900D02*
X109414100Y-95190900D01*
G75*
G02*
X109664100Y-95440900I0J-250000D01*
G01*
X109664100Y-95965900D01*
G75*
G02*
X109414100Y-96215900I-250000J0D01*
G01*
X108514100Y-96215900D01*
G75*
G02*
X108264100Y-95965900I0J250000D01*
G01*
X108264100Y-95440900D01*
G75*
G02*
X108514100Y-95190900I250000J0D01*
G01*
G37*
G36*
G01*
X144264000Y-116365000D02*
X144264000Y-117315000D01*
G75*
G02*
X144014000Y-117565000I-250000J0D01*
G01*
X143514000Y-117565000D01*
G75*
G02*
X143264000Y-117315000I0J250000D01*
G01*
X143264000Y-116365000D01*
G75*
G02*
X143514000Y-116115000I250000J0D01*
G01*
X144014000Y-116115000D01*
G75*
G02*
X144264000Y-116365000I0J-250000D01*
G01*
G37*
G36*
G01*
X142364000Y-116365000D02*
X142364000Y-117315000D01*
G75*
G02*
X142114000Y-117565000I-250000J0D01*
G01*
X141614000Y-117565000D01*
G75*
G02*
X141364000Y-117315000I0J250000D01*
G01*
X141364000Y-116365000D01*
G75*
G02*
X141614000Y-116115000I250000J0D01*
G01*
X142114000Y-116115000D01*
G75*
G02*
X142364000Y-116365000I0J-250000D01*
G01*
G37*
G36*
G01*
X97193000Y-53002600D02*
X97193000Y-52102600D01*
G75*
G02*
X97443000Y-51852600I250000J0D01*
G01*
X97968000Y-51852600D01*
G75*
G02*
X98218000Y-52102600I0J-250000D01*
G01*
X98218000Y-53002600D01*
G75*
G02*
X97968000Y-53252600I-250000J0D01*
G01*
X97443000Y-53252600D01*
G75*
G02*
X97193000Y-53002600I0J250000D01*
G01*
G37*
G36*
G01*
X99018000Y-53002600D02*
X99018000Y-52102600D01*
G75*
G02*
X99268000Y-51852600I250000J0D01*
G01*
X99793000Y-51852600D01*
G75*
G02*
X100043000Y-52102600I0J-250000D01*
G01*
X100043000Y-53002600D01*
G75*
G02*
X99793000Y-53252600I-250000J0D01*
G01*
X99268000Y-53252600D01*
G75*
G02*
X99018000Y-53002600I0J250000D01*
G01*
G37*
G36*
G01*
X114328000Y-52102600D02*
X114328000Y-53002600D01*
G75*
G02*
X114078000Y-53252600I-250000J0D01*
G01*
X113553000Y-53252600D01*
G75*
G02*
X113303000Y-53002600I0J250000D01*
G01*
X113303000Y-52102600D01*
G75*
G02*
X113553000Y-51852600I250000J0D01*
G01*
X114078000Y-51852600D01*
G75*
G02*
X114328000Y-52102600I0J-250000D01*
G01*
G37*
G36*
G01*
X112503000Y-52102600D02*
X112503000Y-53002600D01*
G75*
G02*
X112253000Y-53252600I-250000J0D01*
G01*
X111728000Y-53252600D01*
G75*
G02*
X111478000Y-53002600I0J250000D01*
G01*
X111478000Y-52102600D01*
G75*
G02*
X111728000Y-51852600I250000J0D01*
G01*
X112253000Y-51852600D01*
G75*
G02*
X112503000Y-52102600I0J-250000D01*
G01*
G37*
G36*
G01*
X114328000Y-62262600D02*
X114328000Y-63162600D01*
G75*
G02*
X114078000Y-63412600I-250000J0D01*
G01*
X113553000Y-63412600D01*
G75*
G02*
X113303000Y-63162600I0J250000D01*
G01*
X113303000Y-62262600D01*
G75*
G02*
X113553000Y-62012600I250000J0D01*
G01*
X114078000Y-62012600D01*
G75*
G02*
X114328000Y-62262600I0J-250000D01*
G01*
G37*
G36*
G01*
X112503000Y-62262600D02*
X112503000Y-63162600D01*
G75*
G02*
X112253000Y-63412600I-250000J0D01*
G01*
X111728000Y-63412600D01*
G75*
G02*
X111478000Y-63162600I0J250000D01*
G01*
X111478000Y-62262600D01*
G75*
G02*
X111728000Y-62012600I250000J0D01*
G01*
X112253000Y-62012600D01*
G75*
G02*
X112503000Y-62262600I0J-250000D01*
G01*
G37*
G36*
G01*
X195760400Y-54564500D02*
X195760400Y-55464500D01*
G75*
G02*
X195510400Y-55714500I-250000J0D01*
G01*
X194985400Y-55714500D01*
G75*
G02*
X194735400Y-55464500I0J250000D01*
G01*
X194735400Y-54564500D01*
G75*
G02*
X194985400Y-54314500I250000J0D01*
G01*
X195510400Y-54314500D01*
G75*
G02*
X195760400Y-54564500I0J-250000D01*
G01*
G37*
G36*
G01*
X193935400Y-54564500D02*
X193935400Y-55464500D01*
G75*
G02*
X193685400Y-55714500I-250000J0D01*
G01*
X193160400Y-55714500D01*
G75*
G02*
X192910400Y-55464500I0J250000D01*
G01*
X192910400Y-54564500D01*
G75*
G02*
X193160400Y-54314500I250000J0D01*
G01*
X193685400Y-54314500D01*
G75*
G02*
X193935400Y-54564500I0J-250000D01*
G01*
G37*
G36*
G01*
X136152000Y-95471000D02*
X136152000Y-94521000D01*
G75*
G02*
X136402000Y-94271000I250000J0D01*
G01*
X136902000Y-94271000D01*
G75*
G02*
X137152000Y-94521000I0J-250000D01*
G01*
X137152000Y-95471000D01*
G75*
G02*
X136902000Y-95721000I-250000J0D01*
G01*
X136402000Y-95721000D01*
G75*
G02*
X136152000Y-95471000I0J250000D01*
G01*
G37*
G36*
G01*
X138052000Y-95471000D02*
X138052000Y-94521000D01*
G75*
G02*
X138302000Y-94271000I250000J0D01*
G01*
X138802000Y-94271000D01*
G75*
G02*
X139052000Y-94521000I0J-250000D01*
G01*
X139052000Y-95471000D01*
G75*
G02*
X138802000Y-95721000I-250000J0D01*
G01*
X138302000Y-95721000D01*
G75*
G02*
X138052000Y-95471000I0J250000D01*
G01*
G37*
X197015400Y-119088500D03*
X197015400Y-120038500D03*
X197015400Y-120988500D03*
X194115400Y-120988500D03*
X194115400Y-120038500D03*
X194115400Y-119088500D03*
G36*
G01*
X108514100Y-66037400D02*
X109414100Y-66037400D01*
G75*
G02*
X109664100Y-66287400I0J-250000D01*
G01*
X109664100Y-66812400D01*
G75*
G02*
X109414100Y-67062400I-250000J0D01*
G01*
X108514100Y-67062400D01*
G75*
G02*
X108264100Y-66812400I0J250000D01*
G01*
X108264100Y-66287400D01*
G75*
G02*
X108514100Y-66037400I250000J0D01*
G01*
G37*
G36*
G01*
X108514100Y-67862400D02*
X109414100Y-67862400D01*
G75*
G02*
X109664100Y-68112400I0J-250000D01*
G01*
X109664100Y-68637400D01*
G75*
G02*
X109414100Y-68887400I-250000J0D01*
G01*
X108514100Y-68887400D01*
G75*
G02*
X108264100Y-68637400I0J250000D01*
G01*
X108264100Y-68112400D01*
G75*
G02*
X108514100Y-67862400I250000J0D01*
G01*
G37*
G36*
G01*
X174043400Y-78948500D02*
X174043400Y-79848500D01*
G75*
G02*
X173793400Y-80098500I-250000J0D01*
G01*
X173268400Y-80098500D01*
G75*
G02*
X173018400Y-79848500I0J250000D01*
G01*
X173018400Y-78948500D01*
G75*
G02*
X173268400Y-78698500I250000J0D01*
G01*
X173793400Y-78698500D01*
G75*
G02*
X174043400Y-78948500I0J-250000D01*
G01*
G37*
G36*
G01*
X172218400Y-78948500D02*
X172218400Y-79848500D01*
G75*
G02*
X171968400Y-80098500I-250000J0D01*
G01*
X171443400Y-80098500D01*
G75*
G02*
X171193400Y-79848500I0J250000D01*
G01*
X171193400Y-78948500D01*
G75*
G02*
X171443400Y-78698500I250000J0D01*
G01*
X171968400Y-78698500D01*
G75*
G02*
X172218400Y-78948500I0J-250000D01*
G01*
G37*
G36*
G01*
X139093000Y-122486000D02*
X139093000Y-123386000D01*
G75*
G02*
X138843000Y-123636000I-250000J0D01*
G01*
X138318000Y-123636000D01*
G75*
G02*
X138068000Y-123386000I0J250000D01*
G01*
X138068000Y-122486000D01*
G75*
G02*
X138318000Y-122236000I250000J0D01*
G01*
X138843000Y-122236000D01*
G75*
G02*
X139093000Y-122486000I0J-250000D01*
G01*
G37*
G36*
G01*
X137268000Y-122486000D02*
X137268000Y-123386000D01*
G75*
G02*
X137018000Y-123636000I-250000J0D01*
G01*
X136493000Y-123636000D01*
G75*
G02*
X136243000Y-123386000I0J250000D01*
G01*
X136243000Y-122486000D01*
G75*
G02*
X136493000Y-122236000I250000J0D01*
G01*
X137018000Y-122236000D01*
G75*
G02*
X137268000Y-122486000I0J-250000D01*
G01*
G37*
G36*
G01*
X102872600Y-79204400D02*
X102872600Y-80104400D01*
G75*
G02*
X102622600Y-80354400I-250000J0D01*
G01*
X102097600Y-80354400D01*
G75*
G02*
X101847600Y-80104400I0J250000D01*
G01*
X101847600Y-79204400D01*
G75*
G02*
X102097600Y-78954400I250000J0D01*
G01*
X102622600Y-78954400D01*
G75*
G02*
X102872600Y-79204400I0J-250000D01*
G01*
G37*
G36*
G01*
X101047600Y-79204400D02*
X101047600Y-80104400D01*
G75*
G02*
X100797600Y-80354400I-250000J0D01*
G01*
X100272600Y-80354400D01*
G75*
G02*
X100022600Y-80104400I0J250000D01*
G01*
X100022600Y-79204400D01*
G75*
G02*
X100272600Y-78954400I250000J0D01*
G01*
X100797600Y-78954400D01*
G75*
G02*
X101047600Y-79204400I0J-250000D01*
G01*
G37*
G36*
G01*
X107548100Y-102572400D02*
X107548100Y-103472400D01*
G75*
G02*
X107298100Y-103722400I-250000J0D01*
G01*
X106773100Y-103722400D01*
G75*
G02*
X106523100Y-103472400I0J250000D01*
G01*
X106523100Y-102572400D01*
G75*
G02*
X106773100Y-102322400I250000J0D01*
G01*
X107298100Y-102322400D01*
G75*
G02*
X107548100Y-102572400I0J-250000D01*
G01*
G37*
G36*
G01*
X105723100Y-102572400D02*
X105723100Y-103472400D01*
G75*
G02*
X105473100Y-103722400I-250000J0D01*
G01*
X104948100Y-103722400D01*
G75*
G02*
X104698100Y-103472400I0J250000D01*
G01*
X104698100Y-102572400D01*
G75*
G02*
X104948100Y-102322400I250000J0D01*
G01*
X105473100Y-102322400D01*
G75*
G02*
X105723100Y-102572400I0J-250000D01*
G01*
G37*
G36*
G01*
X190673400Y-51943500D02*
X190673400Y-52243500D01*
G75*
G02*
X190523400Y-52393500I-150000J0D01*
G01*
X188873400Y-52393500D01*
G75*
G02*
X188723400Y-52243500I0J150000D01*
G01*
X188723400Y-51943500D01*
G75*
G02*
X188873400Y-51793500I150000J0D01*
G01*
X190523400Y-51793500D01*
G75*
G02*
X190673400Y-51943500I0J-150000D01*
G01*
G37*
G36*
G01*
X190673400Y-53213500D02*
X190673400Y-53513500D01*
G75*
G02*
X190523400Y-53663500I-150000J0D01*
G01*
X188873400Y-53663500D01*
G75*
G02*
X188723400Y-53513500I0J150000D01*
G01*
X188723400Y-53213500D01*
G75*
G02*
X188873400Y-53063500I150000J0D01*
G01*
X190523400Y-53063500D01*
G75*
G02*
X190673400Y-53213500I0J-150000D01*
G01*
G37*
G36*
G01*
X190673400Y-54483500D02*
X190673400Y-54783500D01*
G75*
G02*
X190523400Y-54933500I-150000J0D01*
G01*
X188873400Y-54933500D01*
G75*
G02*
X188723400Y-54783500I0J150000D01*
G01*
X188723400Y-54483500D01*
G75*
G02*
X188873400Y-54333500I150000J0D01*
G01*
X190523400Y-54333500D01*
G75*
G02*
X190673400Y-54483500I0J-150000D01*
G01*
G37*
G36*
G01*
X190673400Y-55753500D02*
X190673400Y-56053500D01*
G75*
G02*
X190523400Y-56203500I-150000J0D01*
G01*
X188873400Y-56203500D01*
G75*
G02*
X188723400Y-56053500I0J150000D01*
G01*
X188723400Y-55753500D01*
G75*
G02*
X188873400Y-55603500I150000J0D01*
G01*
X190523400Y-55603500D01*
G75*
G02*
X190673400Y-55753500I0J-150000D01*
G01*
G37*
G36*
G01*
X185723400Y-55753500D02*
X185723400Y-56053500D01*
G75*
G02*
X185573400Y-56203500I-150000J0D01*
G01*
X183923400Y-56203500D01*
G75*
G02*
X183773400Y-56053500I0J150000D01*
G01*
X183773400Y-55753500D01*
G75*
G02*
X183923400Y-55603500I150000J0D01*
G01*
X185573400Y-55603500D01*
G75*
G02*
X185723400Y-55753500I0J-150000D01*
G01*
G37*
G36*
G01*
X185723400Y-54483500D02*
X185723400Y-54783500D01*
G75*
G02*
X185573400Y-54933500I-150000J0D01*
G01*
X183923400Y-54933500D01*
G75*
G02*
X183773400Y-54783500I0J150000D01*
G01*
X183773400Y-54483500D01*
G75*
G02*
X183923400Y-54333500I150000J0D01*
G01*
X185573400Y-54333500D01*
G75*
G02*
X185723400Y-54483500I0J-150000D01*
G01*
G37*
G36*
G01*
X185723400Y-53213500D02*
X185723400Y-53513500D01*
G75*
G02*
X185573400Y-53663500I-150000J0D01*
G01*
X183923400Y-53663500D01*
G75*
G02*
X183773400Y-53513500I0J150000D01*
G01*
X183773400Y-53213500D01*
G75*
G02*
X183923400Y-53063500I150000J0D01*
G01*
X185573400Y-53063500D01*
G75*
G02*
X185723400Y-53213500I0J-150000D01*
G01*
G37*
G36*
G01*
X185723400Y-51943500D02*
X185723400Y-52243500D01*
G75*
G02*
X185573400Y-52393500I-150000J0D01*
G01*
X183923400Y-52393500D01*
G75*
G02*
X183773400Y-52243500I0J150000D01*
G01*
X183773400Y-51943500D01*
G75*
G02*
X183923400Y-51793500I150000J0D01*
G01*
X185573400Y-51793500D01*
G75*
G02*
X185723400Y-51943500I0J-150000D01*
G01*
G37*
X197015400Y-66256500D03*
X197015400Y-67206500D03*
X197015400Y-68156500D03*
X194115400Y-68156500D03*
X194115400Y-67206500D03*
X194115400Y-66256500D03*
G36*
G01*
X173297900Y-94188500D02*
X173297900Y-95088500D01*
G75*
G02*
X173047900Y-95338500I-250000J0D01*
G01*
X172522900Y-95338500D01*
G75*
G02*
X172272900Y-95088500I0J250000D01*
G01*
X172272900Y-94188500D01*
G75*
G02*
X172522900Y-93938500I250000J0D01*
G01*
X173047900Y-93938500D01*
G75*
G02*
X173297900Y-94188500I0J-250000D01*
G01*
G37*
G36*
G01*
X171472900Y-94188500D02*
X171472900Y-95088500D01*
G75*
G02*
X171222900Y-95338500I-250000J0D01*
G01*
X170697900Y-95338500D01*
G75*
G02*
X170447900Y-95088500I0J250000D01*
G01*
X170447900Y-94188500D01*
G75*
G02*
X170697900Y-93938500I250000J0D01*
G01*
X171222900Y-93938500D01*
G75*
G02*
X171472900Y-94188500I0J-250000D01*
G01*
G37*
G36*
G01*
X139093000Y-114866000D02*
X139093000Y-115766000D01*
G75*
G02*
X138843000Y-116016000I-250000J0D01*
G01*
X138318000Y-116016000D01*
G75*
G02*
X138068000Y-115766000I0J250000D01*
G01*
X138068000Y-114866000D01*
G75*
G02*
X138318000Y-114616000I250000J0D01*
G01*
X138843000Y-114616000D01*
G75*
G02*
X139093000Y-114866000I0J-250000D01*
G01*
G37*
G36*
G01*
X137268000Y-114866000D02*
X137268000Y-115766000D01*
G75*
G02*
X137018000Y-116016000I-250000J0D01*
G01*
X136493000Y-116016000D01*
G75*
G02*
X136243000Y-115766000I0J250000D01*
G01*
X136243000Y-114866000D01*
G75*
G02*
X136493000Y-114616000I250000J0D01*
G01*
X137018000Y-114616000D01*
G75*
G02*
X137268000Y-114866000I0J-250000D01*
G01*
G37*
G36*
G01*
X192806900Y-52924500D02*
X192806900Y-52024500D01*
G75*
G02*
X193056900Y-51774500I250000J0D01*
G01*
X193581900Y-51774500D01*
G75*
G02*
X193831900Y-52024500I0J-250000D01*
G01*
X193831900Y-52924500D01*
G75*
G02*
X193581900Y-53174500I-250000J0D01*
G01*
X193056900Y-53174500D01*
G75*
G02*
X192806900Y-52924500I0J250000D01*
G01*
G37*
G36*
G01*
X194631900Y-52924500D02*
X194631900Y-52024500D01*
G75*
G02*
X194881900Y-51774500I250000J0D01*
G01*
X195406900Y-51774500D01*
G75*
G02*
X195656900Y-52024500I0J-250000D01*
G01*
X195656900Y-52924500D01*
G75*
G02*
X195406900Y-53174500I-250000J0D01*
G01*
X194881900Y-53174500D01*
G75*
G02*
X194631900Y-52924500I0J250000D01*
G01*
G37*
G36*
G01*
X220746900Y-90391400D02*
X220746900Y-89491400D01*
G75*
G02*
X220996900Y-89241400I250000J0D01*
G01*
X221521900Y-89241400D01*
G75*
G02*
X221771900Y-89491400I0J-250000D01*
G01*
X221771900Y-90391400D01*
G75*
G02*
X221521900Y-90641400I-250000J0D01*
G01*
X220996900Y-90641400D01*
G75*
G02*
X220746900Y-90391400I0J250000D01*
G01*
G37*
G36*
G01*
X222571900Y-90391400D02*
X222571900Y-89491400D01*
G75*
G02*
X222821900Y-89241400I250000J0D01*
G01*
X223346900Y-89241400D01*
G75*
G02*
X223596900Y-89491400I0J-250000D01*
G01*
X223596900Y-90391400D01*
G75*
G02*
X223346900Y-90641400I-250000J0D01*
G01*
X222821900Y-90641400D01*
G75*
G02*
X222571900Y-90391400I0J250000D01*
G01*
G37*
G36*
G01*
X176527400Y-86071500D02*
X176527400Y-85171500D01*
G75*
G02*
X176777400Y-84921500I250000J0D01*
G01*
X177302400Y-84921500D01*
G75*
G02*
X177552400Y-85171500I0J-250000D01*
G01*
X177552400Y-86071500D01*
G75*
G02*
X177302400Y-86321500I-250000J0D01*
G01*
X176777400Y-86321500D01*
G75*
G02*
X176527400Y-86071500I0J250000D01*
G01*
G37*
G36*
G01*
X178352400Y-86071500D02*
X178352400Y-85171500D01*
G75*
G02*
X178602400Y-84921500I250000J0D01*
G01*
X179127400Y-84921500D01*
G75*
G02*
X179377400Y-85171500I0J-250000D01*
G01*
X179377400Y-86071500D01*
G75*
G02*
X179127400Y-86321500I-250000J0D01*
G01*
X178602400Y-86321500D01*
G75*
G02*
X178352400Y-86071500I0J250000D01*
G01*
G37*
G36*
G01*
X178789900Y-58004500D02*
X178789900Y-57104500D01*
G75*
G02*
X179039900Y-56854500I250000J0D01*
G01*
X179564900Y-56854500D01*
G75*
G02*
X179814900Y-57104500I0J-250000D01*
G01*
X179814900Y-58004500D01*
G75*
G02*
X179564900Y-58254500I-250000J0D01*
G01*
X179039900Y-58254500D01*
G75*
G02*
X178789900Y-58004500I0J250000D01*
G01*
G37*
G36*
G01*
X180614900Y-58004500D02*
X180614900Y-57104500D01*
G75*
G02*
X180864900Y-56854500I250000J0D01*
G01*
X181389900Y-56854500D01*
G75*
G02*
X181639900Y-57104500I0J-250000D01*
G01*
X181639900Y-58004500D01*
G75*
G02*
X181389900Y-58254500I-250000J0D01*
G01*
X180864900Y-58254500D01*
G75*
G02*
X180614900Y-58004500I0J250000D01*
G01*
G37*
G36*
G01*
X111478000Y-50462600D02*
X111478000Y-49562600D01*
G75*
G02*
X111728000Y-49312600I250000J0D01*
G01*
X112253000Y-49312600D01*
G75*
G02*
X112503000Y-49562600I0J-250000D01*
G01*
X112503000Y-50462600D01*
G75*
G02*
X112253000Y-50712600I-250000J0D01*
G01*
X111728000Y-50712600D01*
G75*
G02*
X111478000Y-50462600I0J250000D01*
G01*
G37*
G36*
G01*
X113303000Y-50462600D02*
X113303000Y-49562600D01*
G75*
G02*
X113553000Y-49312600I250000J0D01*
G01*
X114078000Y-49312600D01*
G75*
G02*
X114328000Y-49562600I0J-250000D01*
G01*
X114328000Y-50462600D01*
G75*
G02*
X114078000Y-50712600I-250000J0D01*
G01*
X113553000Y-50712600D01*
G75*
G02*
X113303000Y-50462600I0J250000D01*
G01*
G37*
X116002100Y-92928400D03*
X116002100Y-93878400D03*
X116002100Y-94828400D03*
X113102100Y-94828400D03*
X113102100Y-93878400D03*
X113102100Y-92928400D03*
G36*
G01*
X173444400Y-102682500D02*
X173444400Y-102982500D01*
G75*
G02*
X173294400Y-103132500I-150000J0D01*
G01*
X172119400Y-103132500D01*
G75*
G02*
X171969400Y-102982500I0J150000D01*
G01*
X171969400Y-102682500D01*
G75*
G02*
X172119400Y-102532500I150000J0D01*
G01*
X173294400Y-102532500D01*
G75*
G02*
X173444400Y-102682500I0J-150000D01*
G01*
G37*
G36*
G01*
X173444400Y-104582500D02*
X173444400Y-104882500D01*
G75*
G02*
X173294400Y-105032500I-150000J0D01*
G01*
X172119400Y-105032500D01*
G75*
G02*
X171969400Y-104882500I0J150000D01*
G01*
X171969400Y-104582500D01*
G75*
G02*
X172119400Y-104432500I150000J0D01*
G01*
X173294400Y-104432500D01*
G75*
G02*
X173444400Y-104582500I0J-150000D01*
G01*
G37*
G36*
G01*
X171569400Y-103632500D02*
X171569400Y-103932500D01*
G75*
G02*
X171419400Y-104082500I-150000J0D01*
G01*
X170244400Y-104082500D01*
G75*
G02*
X170094400Y-103932500I0J150000D01*
G01*
X170094400Y-103632500D01*
G75*
G02*
X170244400Y-103482500I150000J0D01*
G01*
X171419400Y-103482500D01*
G75*
G02*
X171569400Y-103632500I0J-150000D01*
G01*
G37*
G36*
G01*
X195760400Y-59644500D02*
X195760400Y-60544500D01*
G75*
G02*
X195510400Y-60794500I-250000J0D01*
G01*
X194985400Y-60794500D01*
G75*
G02*
X194735400Y-60544500I0J250000D01*
G01*
X194735400Y-59644500D01*
G75*
G02*
X194985400Y-59394500I250000J0D01*
G01*
X195510400Y-59394500D01*
G75*
G02*
X195760400Y-59644500I0J-250000D01*
G01*
G37*
G36*
G01*
X193935400Y-59644500D02*
X193935400Y-60544500D01*
G75*
G02*
X193685400Y-60794500I-250000J0D01*
G01*
X193160400Y-60794500D01*
G75*
G02*
X192910400Y-60544500I0J250000D01*
G01*
X192910400Y-59644500D01*
G75*
G02*
X193160400Y-59394500I250000J0D01*
G01*
X193685400Y-59394500D01*
G75*
G02*
X193935400Y-59644500I0J-250000D01*
G01*
G37*
G36*
G01*
X139184000Y-112301000D02*
X139184000Y-113251000D01*
G75*
G02*
X138934000Y-113501000I-250000J0D01*
G01*
X138434000Y-113501000D01*
G75*
G02*
X138184000Y-113251000I0J250000D01*
G01*
X138184000Y-112301000D01*
G75*
G02*
X138434000Y-112051000I250000J0D01*
G01*
X138934000Y-112051000D01*
G75*
G02*
X139184000Y-112301000I0J-250000D01*
G01*
G37*
G36*
G01*
X137284000Y-112301000D02*
X137284000Y-113251000D01*
G75*
G02*
X137034000Y-113501000I-250000J0D01*
G01*
X136534000Y-113501000D01*
G75*
G02*
X136284000Y-113251000I0J250000D01*
G01*
X136284000Y-112301000D01*
G75*
G02*
X136534000Y-112051000I250000J0D01*
G01*
X137034000Y-112051000D01*
G75*
G02*
X137284000Y-112301000I0J-250000D01*
G01*
G37*
G36*
G01*
X153342000Y-94521000D02*
X153342000Y-95471000D01*
G75*
G02*
X153092000Y-95721000I-250000J0D01*
G01*
X152592000Y-95721000D01*
G75*
G02*
X152342000Y-95471000I0J250000D01*
G01*
X152342000Y-94521000D01*
G75*
G02*
X152592000Y-94271000I250000J0D01*
G01*
X153092000Y-94271000D01*
G75*
G02*
X153342000Y-94521000I0J-250000D01*
G01*
G37*
G36*
G01*
X151442000Y-94521000D02*
X151442000Y-95471000D01*
G75*
G02*
X151192000Y-95721000I-250000J0D01*
G01*
X150692000Y-95721000D01*
G75*
G02*
X150442000Y-95471000I0J250000D01*
G01*
X150442000Y-94521000D01*
G75*
G02*
X150692000Y-94271000I250000J0D01*
G01*
X151192000Y-94271000D01*
G75*
G02*
X151442000Y-94521000I0J-250000D01*
G01*
G37*
X197015400Y-79464500D03*
X197015400Y-80414500D03*
X197015400Y-81364500D03*
X194115400Y-81364500D03*
X194115400Y-80414500D03*
X194115400Y-79464500D03*
G36*
G01*
X148230000Y-94465000D02*
X148230000Y-94765000D01*
G75*
G02*
X148080000Y-94915000I-150000J0D01*
G01*
X146430000Y-94915000D01*
G75*
G02*
X146280000Y-94765000I0J150000D01*
G01*
X146280000Y-94465000D01*
G75*
G02*
X146430000Y-94315000I150000J0D01*
G01*
X148080000Y-94315000D01*
G75*
G02*
X148230000Y-94465000I0J-150000D01*
G01*
G37*
G36*
G01*
X148230000Y-95735000D02*
X148230000Y-96035000D01*
G75*
G02*
X148080000Y-96185000I-150000J0D01*
G01*
X146430000Y-96185000D01*
G75*
G02*
X146280000Y-96035000I0J150000D01*
G01*
X146280000Y-95735000D01*
G75*
G02*
X146430000Y-95585000I150000J0D01*
G01*
X148080000Y-95585000D01*
G75*
G02*
X148230000Y-95735000I0J-150000D01*
G01*
G37*
G36*
G01*
X148230000Y-97005000D02*
X148230000Y-97305000D01*
G75*
G02*
X148080000Y-97455000I-150000J0D01*
G01*
X146430000Y-97455000D01*
G75*
G02*
X146280000Y-97305000I0J150000D01*
G01*
X146280000Y-97005000D01*
G75*
G02*
X146430000Y-96855000I150000J0D01*
G01*
X148080000Y-96855000D01*
G75*
G02*
X148230000Y-97005000I0J-150000D01*
G01*
G37*
G36*
G01*
X148230000Y-98275000D02*
X148230000Y-98575000D01*
G75*
G02*
X148080000Y-98725000I-150000J0D01*
G01*
X146430000Y-98725000D01*
G75*
G02*
X146280000Y-98575000I0J150000D01*
G01*
X146280000Y-98275000D01*
G75*
G02*
X146430000Y-98125000I150000J0D01*
G01*
X148080000Y-98125000D01*
G75*
G02*
X148230000Y-98275000I0J-150000D01*
G01*
G37*
G36*
G01*
X143280000Y-98275000D02*
X143280000Y-98575000D01*
G75*
G02*
X143130000Y-98725000I-150000J0D01*
G01*
X141480000Y-98725000D01*
G75*
G02*
X141330000Y-98575000I0J150000D01*
G01*
X141330000Y-98275000D01*
G75*
G02*
X141480000Y-98125000I150000J0D01*
G01*
X143130000Y-98125000D01*
G75*
G02*
X143280000Y-98275000I0J-150000D01*
G01*
G37*
G36*
G01*
X143280000Y-97005000D02*
X143280000Y-97305000D01*
G75*
G02*
X143130000Y-97455000I-150000J0D01*
G01*
X141480000Y-97455000D01*
G75*
G02*
X141330000Y-97305000I0J150000D01*
G01*
X141330000Y-97005000D01*
G75*
G02*
X141480000Y-96855000I150000J0D01*
G01*
X143130000Y-96855000D01*
G75*
G02*
X143280000Y-97005000I0J-150000D01*
G01*
G37*
G36*
G01*
X143280000Y-95735000D02*
X143280000Y-96035000D01*
G75*
G02*
X143130000Y-96185000I-150000J0D01*
G01*
X141480000Y-96185000D01*
G75*
G02*
X141330000Y-96035000I0J150000D01*
G01*
X141330000Y-95735000D01*
G75*
G02*
X141480000Y-95585000I150000J0D01*
G01*
X143130000Y-95585000D01*
G75*
G02*
X143280000Y-95735000I0J-150000D01*
G01*
G37*
G36*
G01*
X143280000Y-94465000D02*
X143280000Y-94765000D01*
G75*
G02*
X143130000Y-94915000I-150000J0D01*
G01*
X141480000Y-94915000D01*
G75*
G02*
X141330000Y-94765000I0J150000D01*
G01*
X141330000Y-94465000D01*
G75*
G02*
X141480000Y-94315000I150000J0D01*
G01*
X143130000Y-94315000D01*
G75*
G02*
X143280000Y-94465000I0J-150000D01*
G01*
G37*
G36*
G01*
X192885400Y-50409500D02*
X192885400Y-49459500D01*
G75*
G02*
X193135400Y-49209500I250000J0D01*
G01*
X193635400Y-49209500D01*
G75*
G02*
X193885400Y-49459500I0J-250000D01*
G01*
X193885400Y-50409500D01*
G75*
G02*
X193635400Y-50659500I-250000J0D01*
G01*
X193135400Y-50659500D01*
G75*
G02*
X192885400Y-50409500I0J250000D01*
G01*
G37*
G36*
G01*
X194785400Y-50409500D02*
X194785400Y-49459500D01*
G75*
G02*
X195035400Y-49209500I250000J0D01*
G01*
X195535400Y-49209500D01*
G75*
G02*
X195785400Y-49459500I0J-250000D01*
G01*
X195785400Y-50409500D01*
G75*
G02*
X195535400Y-50659500I-250000J0D01*
G01*
X195035400Y-50659500D01*
G75*
G02*
X194785400Y-50409500I0J250000D01*
G01*
G37*
G36*
G01*
X88846600Y-77564400D02*
X88846600Y-76664400D01*
G75*
G02*
X89096600Y-76414400I250000J0D01*
G01*
X89621600Y-76414400D01*
G75*
G02*
X89871600Y-76664400I0J-250000D01*
G01*
X89871600Y-77564400D01*
G75*
G02*
X89621600Y-77814400I-250000J0D01*
G01*
X89096600Y-77814400D01*
G75*
G02*
X88846600Y-77564400I0J250000D01*
G01*
G37*
G36*
G01*
X90671600Y-77564400D02*
X90671600Y-76664400D01*
G75*
G02*
X90921600Y-76414400I250000J0D01*
G01*
X91446600Y-76414400D01*
G75*
G02*
X91696600Y-76664400I0J-250000D01*
G01*
X91696600Y-77564400D01*
G75*
G02*
X91446600Y-77814400I-250000J0D01*
G01*
X90921600Y-77814400D01*
G75*
G02*
X90671600Y-77564400I0J250000D01*
G01*
G37*
G36*
G01*
X136243000Y-97986000D02*
X136243000Y-97086000D01*
G75*
G02*
X136493000Y-96836000I250000J0D01*
G01*
X137018000Y-96836000D01*
G75*
G02*
X137268000Y-97086000I0J-250000D01*
G01*
X137268000Y-97986000D01*
G75*
G02*
X137018000Y-98236000I-250000J0D01*
G01*
X136493000Y-98236000D01*
G75*
G02*
X136243000Y-97986000I0J250000D01*
G01*
G37*
G36*
G01*
X138068000Y-97986000D02*
X138068000Y-97086000D01*
G75*
G02*
X138318000Y-96836000I250000J0D01*
G01*
X138843000Y-96836000D01*
G75*
G02*
X139093000Y-97086000I0J-250000D01*
G01*
X139093000Y-97986000D01*
G75*
G02*
X138843000Y-98236000I-250000J0D01*
G01*
X138318000Y-98236000D01*
G75*
G02*
X138068000Y-97986000I0J250000D01*
G01*
G37*
G36*
G01*
X178274400Y-107904500D02*
X178274400Y-108804500D01*
G75*
G02*
X178024400Y-109054500I-250000J0D01*
G01*
X177499400Y-109054500D01*
G75*
G02*
X177249400Y-108804500I0J250000D01*
G01*
X177249400Y-107904500D01*
G75*
G02*
X177499400Y-107654500I250000J0D01*
G01*
X178024400Y-107654500D01*
G75*
G02*
X178274400Y-107904500I0J-250000D01*
G01*
G37*
G36*
G01*
X176449400Y-107904500D02*
X176449400Y-108804500D01*
G75*
G02*
X176199400Y-109054500I-250000J0D01*
G01*
X175674400Y-109054500D01*
G75*
G02*
X175424400Y-108804500I0J250000D01*
G01*
X175424400Y-107904500D01*
G75*
G02*
X175674400Y-107654500I250000J0D01*
G01*
X176199400Y-107654500D01*
G75*
G02*
X176449400Y-107904500I0J-250000D01*
G01*
G37*
G36*
G01*
X195760400Y-57104500D02*
X195760400Y-58004500D01*
G75*
G02*
X195510400Y-58254500I-250000J0D01*
G01*
X194985400Y-58254500D01*
G75*
G02*
X194735400Y-58004500I0J250000D01*
G01*
X194735400Y-57104500D01*
G75*
G02*
X194985400Y-56854500I250000J0D01*
G01*
X195510400Y-56854500D01*
G75*
G02*
X195760400Y-57104500I0J-250000D01*
G01*
G37*
G36*
G01*
X193935400Y-57104500D02*
X193935400Y-58004500D01*
G75*
G02*
X193685400Y-58254500I-250000J0D01*
G01*
X193160400Y-58254500D01*
G75*
G02*
X192910400Y-58004500I0J250000D01*
G01*
X192910400Y-57104500D01*
G75*
G02*
X193160400Y-56854500I250000J0D01*
G01*
X193685400Y-56854500D01*
G75*
G02*
X193935400Y-57104500I0J-250000D01*
G01*
G37*
G36*
G01*
X94331100Y-86200400D02*
X94331100Y-85300400D01*
G75*
G02*
X94581100Y-85050400I250000J0D01*
G01*
X95106100Y-85050400D01*
G75*
G02*
X95356100Y-85300400I0J-250000D01*
G01*
X95356100Y-86200400D01*
G75*
G02*
X95106100Y-86450400I-250000J0D01*
G01*
X94581100Y-86450400D01*
G75*
G02*
X94331100Y-86200400I0J250000D01*
G01*
G37*
G36*
G01*
X96156100Y-86200400D02*
X96156100Y-85300400D01*
G75*
G02*
X96406100Y-85050400I250000J0D01*
G01*
X96931100Y-85050400D01*
G75*
G02*
X97181100Y-85300400I0J-250000D01*
G01*
X97181100Y-86200400D01*
G75*
G02*
X96931100Y-86450400I-250000J0D01*
G01*
X96406100Y-86450400D01*
G75*
G02*
X96156100Y-86200400I0J250000D01*
G01*
G37*
G36*
G01*
X150363500Y-110686000D02*
X150363500Y-109786000D01*
G75*
G02*
X150613500Y-109536000I250000J0D01*
G01*
X151138500Y-109536000D01*
G75*
G02*
X151388500Y-109786000I0J-250000D01*
G01*
X151388500Y-110686000D01*
G75*
G02*
X151138500Y-110936000I-250000J0D01*
G01*
X150613500Y-110936000D01*
G75*
G02*
X150363500Y-110686000I0J250000D01*
G01*
G37*
G36*
G01*
X152188500Y-110686000D02*
X152188500Y-109786000D01*
G75*
G02*
X152438500Y-109536000I250000J0D01*
G01*
X152963500Y-109536000D01*
G75*
G02*
X153213500Y-109786000I0J-250000D01*
G01*
X153213500Y-110686000D01*
G75*
G02*
X152963500Y-110936000I-250000J0D01*
G01*
X152438500Y-110936000D01*
G75*
G02*
X152188500Y-110686000I0J250000D01*
G01*
G37*
G36*
G01*
X92204600Y-94444400D02*
X92204600Y-95344400D01*
G75*
G02*
X91954600Y-95594400I-250000J0D01*
G01*
X91429600Y-95594400D01*
G75*
G02*
X91179600Y-95344400I0J250000D01*
G01*
X91179600Y-94444400D01*
G75*
G02*
X91429600Y-94194400I250000J0D01*
G01*
X91954600Y-94194400D01*
G75*
G02*
X92204600Y-94444400I0J-250000D01*
G01*
G37*
G36*
G01*
X90379600Y-94444400D02*
X90379600Y-95344400D01*
G75*
G02*
X90129600Y-95594400I-250000J0D01*
G01*
X89604600Y-95594400D01*
G75*
G02*
X89354600Y-95344400I0J250000D01*
G01*
X89354600Y-94444400D01*
G75*
G02*
X89604600Y-94194400I250000J0D01*
G01*
X90129600Y-94194400D01*
G75*
G02*
X90379600Y-94444400I0J-250000D01*
G01*
G37*
G36*
G01*
X108514100Y-106573900D02*
X109414100Y-106573900D01*
G75*
G02*
X109664100Y-106823900I0J-250000D01*
G01*
X109664100Y-107348900D01*
G75*
G02*
X109414100Y-107598900I-250000J0D01*
G01*
X108514100Y-107598900D01*
G75*
G02*
X108264100Y-107348900I0J250000D01*
G01*
X108264100Y-106823900D01*
G75*
G02*
X108514100Y-106573900I250000J0D01*
G01*
G37*
G36*
G01*
X108514100Y-108398900D02*
X109414100Y-108398900D01*
G75*
G02*
X109664100Y-108648900I0J-250000D01*
G01*
X109664100Y-109173900D01*
G75*
G02*
X109414100Y-109423900I-250000J0D01*
G01*
X108514100Y-109423900D01*
G75*
G02*
X108264100Y-109173900I0J250000D01*
G01*
X108264100Y-108648900D01*
G75*
G02*
X108514100Y-108398900I250000J0D01*
G01*
G37*
G36*
G01*
X73046000Y-120881000D02*
X73046000Y-121181000D01*
G75*
G02*
X72896000Y-121331000I-150000J0D01*
G01*
X71246000Y-121331000D01*
G75*
G02*
X71096000Y-121181000I0J150000D01*
G01*
X71096000Y-120881000D01*
G75*
G02*
X71246000Y-120731000I150000J0D01*
G01*
X72896000Y-120731000D01*
G75*
G02*
X73046000Y-120881000I0J-150000D01*
G01*
G37*
G36*
G01*
X73046000Y-122151000D02*
X73046000Y-122451000D01*
G75*
G02*
X72896000Y-122601000I-150000J0D01*
G01*
X71246000Y-122601000D01*
G75*
G02*
X71096000Y-122451000I0J150000D01*
G01*
X71096000Y-122151000D01*
G75*
G02*
X71246000Y-122001000I150000J0D01*
G01*
X72896000Y-122001000D01*
G75*
G02*
X73046000Y-122151000I0J-150000D01*
G01*
G37*
G36*
G01*
X73046000Y-123421000D02*
X73046000Y-123721000D01*
G75*
G02*
X72896000Y-123871000I-150000J0D01*
G01*
X71246000Y-123871000D01*
G75*
G02*
X71096000Y-123721000I0J150000D01*
G01*
X71096000Y-123421000D01*
G75*
G02*
X71246000Y-123271000I150000J0D01*
G01*
X72896000Y-123271000D01*
G75*
G02*
X73046000Y-123421000I0J-150000D01*
G01*
G37*
G36*
G01*
X73046000Y-124691000D02*
X73046000Y-124991000D01*
G75*
G02*
X72896000Y-125141000I-150000J0D01*
G01*
X71246000Y-125141000D01*
G75*
G02*
X71096000Y-124991000I0J150000D01*
G01*
X71096000Y-124691000D01*
G75*
G02*
X71246000Y-124541000I150000J0D01*
G01*
X72896000Y-124541000D01*
G75*
G02*
X73046000Y-124691000I0J-150000D01*
G01*
G37*
G36*
G01*
X68096000Y-124691000D02*
X68096000Y-124991000D01*
G75*
G02*
X67946000Y-125141000I-150000J0D01*
G01*
X66296000Y-125141000D01*
G75*
G02*
X66146000Y-124991000I0J150000D01*
G01*
X66146000Y-124691000D01*
G75*
G02*
X66296000Y-124541000I150000J0D01*
G01*
X67946000Y-124541000D01*
G75*
G02*
X68096000Y-124691000I0J-150000D01*
G01*
G37*
G36*
G01*
X68096000Y-123421000D02*
X68096000Y-123721000D01*
G75*
G02*
X67946000Y-123871000I-150000J0D01*
G01*
X66296000Y-123871000D01*
G75*
G02*
X66146000Y-123721000I0J150000D01*
G01*
X66146000Y-123421000D01*
G75*
G02*
X66296000Y-123271000I150000J0D01*
G01*
X67946000Y-123271000D01*
G75*
G02*
X68096000Y-123421000I0J-150000D01*
G01*
G37*
G36*
G01*
X68096000Y-122151000D02*
X68096000Y-122451000D01*
G75*
G02*
X67946000Y-122601000I-150000J0D01*
G01*
X66296000Y-122601000D01*
G75*
G02*
X66146000Y-122451000I0J150000D01*
G01*
X66146000Y-122151000D01*
G75*
G02*
X66296000Y-122001000I150000J0D01*
G01*
X67946000Y-122001000D01*
G75*
G02*
X68096000Y-122151000I0J-150000D01*
G01*
G37*
G36*
G01*
X68096000Y-120881000D02*
X68096000Y-121181000D01*
G75*
G02*
X67946000Y-121331000I-150000J0D01*
G01*
X66296000Y-121331000D01*
G75*
G02*
X66146000Y-121181000I0J150000D01*
G01*
X66146000Y-120881000D01*
G75*
G02*
X66296000Y-120731000I150000J0D01*
G01*
X67946000Y-120731000D01*
G75*
G02*
X68096000Y-120881000I0J-150000D01*
G01*
G37*
G36*
G01*
X173297900Y-98252500D02*
X173297900Y-99152500D01*
G75*
G02*
X173047900Y-99402500I-250000J0D01*
G01*
X172522900Y-99402500D01*
G75*
G02*
X172272900Y-99152500I0J250000D01*
G01*
X172272900Y-98252500D01*
G75*
G02*
X172522900Y-98002500I250000J0D01*
G01*
X173047900Y-98002500D01*
G75*
G02*
X173297900Y-98252500I0J-250000D01*
G01*
G37*
G36*
G01*
X171472900Y-98252500D02*
X171472900Y-99152500D01*
G75*
G02*
X171222900Y-99402500I-250000J0D01*
G01*
X170697900Y-99402500D01*
G75*
G02*
X170447900Y-99152500I0J250000D01*
G01*
X170447900Y-98252500D01*
G75*
G02*
X170697900Y-98002500I250000J0D01*
G01*
X171222900Y-98002500D01*
G75*
G02*
X171472900Y-98252500I0J-250000D01*
G01*
G37*
G36*
G01*
X190894400Y-59873500D02*
X190894400Y-60823500D01*
G75*
G02*
X190644400Y-61073500I-250000J0D01*
G01*
X190144400Y-61073500D01*
G75*
G02*
X189894400Y-60823500I0J250000D01*
G01*
X189894400Y-59873500D01*
G75*
G02*
X190144400Y-59623500I250000J0D01*
G01*
X190644400Y-59623500D01*
G75*
G02*
X190894400Y-59873500I0J-250000D01*
G01*
G37*
G36*
G01*
X188994400Y-59873500D02*
X188994400Y-60823500D01*
G75*
G02*
X188744400Y-61073500I-250000J0D01*
G01*
X188244400Y-61073500D01*
G75*
G02*
X187994400Y-60823500I0J250000D01*
G01*
X187994400Y-59873500D01*
G75*
G02*
X188244400Y-59623500I250000J0D01*
G01*
X188744400Y-59623500D01*
G75*
G02*
X188994400Y-59873500I0J-250000D01*
G01*
G37*
G36*
G01*
X181432900Y-52024500D02*
X181432900Y-52924500D01*
G75*
G02*
X181182900Y-53174500I-250000J0D01*
G01*
X180657900Y-53174500D01*
G75*
G02*
X180407900Y-52924500I0J250000D01*
G01*
X180407900Y-52024500D01*
G75*
G02*
X180657900Y-51774500I250000J0D01*
G01*
X181182900Y-51774500D01*
G75*
G02*
X181432900Y-52024500I0J-250000D01*
G01*
G37*
G36*
G01*
X179607900Y-52024500D02*
X179607900Y-52924500D01*
G75*
G02*
X179357900Y-53174500I-250000J0D01*
G01*
X178832900Y-53174500D01*
G75*
G02*
X178582900Y-52924500I0J250000D01*
G01*
X178582900Y-52024500D01*
G75*
G02*
X178832900Y-51774500I250000J0D01*
G01*
X179357900Y-51774500D01*
G75*
G02*
X179607900Y-52024500I0J-250000D01*
G01*
G37*
G36*
G01*
X178686400Y-55464500D02*
X178686400Y-54564500D01*
G75*
G02*
X178936400Y-54314500I250000J0D01*
G01*
X179461400Y-54314500D01*
G75*
G02*
X179711400Y-54564500I0J-250000D01*
G01*
X179711400Y-55464500D01*
G75*
G02*
X179461400Y-55714500I-250000J0D01*
G01*
X178936400Y-55714500D01*
G75*
G02*
X178686400Y-55464500I0J250000D01*
G01*
G37*
G36*
G01*
X180511400Y-55464500D02*
X180511400Y-54564500D01*
G75*
G02*
X180761400Y-54314500I250000J0D01*
G01*
X181286400Y-54314500D01*
G75*
G02*
X181536400Y-54564500I0J-250000D01*
G01*
X181536400Y-55464500D01*
G75*
G02*
X181286400Y-55714500I-250000J0D01*
G01*
X180761400Y-55714500D01*
G75*
G02*
X180511400Y-55464500I0J250000D01*
G01*
G37*
G36*
G01*
X139196500Y-107246000D02*
X139196500Y-108146000D01*
G75*
G02*
X138946500Y-108396000I-250000J0D01*
G01*
X138421500Y-108396000D01*
G75*
G02*
X138171500Y-108146000I0J250000D01*
G01*
X138171500Y-107246000D01*
G75*
G02*
X138421500Y-106996000I250000J0D01*
G01*
X138946500Y-106996000D01*
G75*
G02*
X139196500Y-107246000I0J-250000D01*
G01*
G37*
G36*
G01*
X137371500Y-107246000D02*
X137371500Y-108146000D01*
G75*
G02*
X137121500Y-108396000I-250000J0D01*
G01*
X136596500Y-108396000D01*
G75*
G02*
X136346500Y-108146000I0J250000D01*
G01*
X136346500Y-107246000D01*
G75*
G02*
X136596500Y-106996000I250000J0D01*
G01*
X137121500Y-106996000D01*
G75*
G02*
X137371500Y-107246000I0J-250000D01*
G01*
G37*
G36*
G01*
X218554000Y-86088200D02*
X218554000Y-87038200D01*
G75*
G02*
X218304000Y-87288200I-250000J0D01*
G01*
X217804000Y-87288200D01*
G75*
G02*
X217554000Y-87038200I0J250000D01*
G01*
X217554000Y-86088200D01*
G75*
G02*
X217804000Y-85838200I250000J0D01*
G01*
X218304000Y-85838200D01*
G75*
G02*
X218554000Y-86088200I0J-250000D01*
G01*
G37*
G36*
G01*
X216654000Y-86088200D02*
X216654000Y-87038200D01*
G75*
G02*
X216404000Y-87288200I-250000J0D01*
G01*
X215904000Y-87288200D01*
G75*
G02*
X215654000Y-87038200I0J250000D01*
G01*
X215654000Y-86088200D01*
G75*
G02*
X215904000Y-85838200I250000J0D01*
G01*
X216404000Y-85838200D01*
G75*
G02*
X216654000Y-86088200I0J-250000D01*
G01*
G37*
G36*
G01*
X91696600Y-79204400D02*
X91696600Y-80104400D01*
G75*
G02*
X91446600Y-80354400I-250000J0D01*
G01*
X90921600Y-80354400D01*
G75*
G02*
X90671600Y-80104400I0J250000D01*
G01*
X90671600Y-79204400D01*
G75*
G02*
X90921600Y-78954400I250000J0D01*
G01*
X91446600Y-78954400D01*
G75*
G02*
X91696600Y-79204400I0J-250000D01*
G01*
G37*
G36*
G01*
X89871600Y-79204400D02*
X89871600Y-80104400D01*
G75*
G02*
X89621600Y-80354400I-250000J0D01*
G01*
X89096600Y-80354400D01*
G75*
G02*
X88846600Y-80104400I0J250000D01*
G01*
X88846600Y-79204400D01*
G75*
G02*
X89096600Y-78954400I250000J0D01*
G01*
X89621600Y-78954400D01*
G75*
G02*
X89871600Y-79204400I0J-250000D01*
G01*
G37*
G36*
G01*
X100022600Y-82644400D02*
X100022600Y-81744400D01*
G75*
G02*
X100272600Y-81494400I250000J0D01*
G01*
X100797600Y-81494400D01*
G75*
G02*
X101047600Y-81744400I0J-250000D01*
G01*
X101047600Y-82644400D01*
G75*
G02*
X100797600Y-82894400I-250000J0D01*
G01*
X100272600Y-82894400D01*
G75*
G02*
X100022600Y-82644400I0J250000D01*
G01*
G37*
G36*
G01*
X101847600Y-82644400D02*
X101847600Y-81744400D01*
G75*
G02*
X102097600Y-81494400I250000J0D01*
G01*
X102622600Y-81494400D01*
G75*
G02*
X102872600Y-81744400I0J-250000D01*
G01*
X102872600Y-82644400D01*
G75*
G02*
X102622600Y-82894400I-250000J0D01*
G01*
X102097600Y-82894400D01*
G75*
G02*
X101847600Y-82644400I0J250000D01*
G01*
G37*
G36*
G01*
X105275000Y-56014600D02*
X105275000Y-56964600D01*
G75*
G02*
X105025000Y-57214600I-250000J0D01*
G01*
X104525000Y-57214600D01*
G75*
G02*
X104275000Y-56964600I0J250000D01*
G01*
X104275000Y-56014600D01*
G75*
G02*
X104525000Y-55764600I250000J0D01*
G01*
X105025000Y-55764600D01*
G75*
G02*
X105275000Y-56014600I0J-250000D01*
G01*
G37*
G36*
G01*
X103375000Y-56014600D02*
X103375000Y-56964600D01*
G75*
G02*
X103125000Y-57214600I-250000J0D01*
G01*
X102625000Y-57214600D01*
G75*
G02*
X102375000Y-56964600I0J250000D01*
G01*
X102375000Y-56014600D01*
G75*
G02*
X102625000Y-55764600I250000J0D01*
G01*
X103125000Y-55764600D01*
G75*
G02*
X103375000Y-56014600I0J-250000D01*
G01*
G37*
G36*
G01*
X148196000Y-116365000D02*
X148196000Y-117315000D01*
G75*
G02*
X147946000Y-117565000I-250000J0D01*
G01*
X147446000Y-117565000D01*
G75*
G02*
X147196000Y-117315000I0J250000D01*
G01*
X147196000Y-116365000D01*
G75*
G02*
X147446000Y-116115000I250000J0D01*
G01*
X147946000Y-116115000D01*
G75*
G02*
X148196000Y-116365000I0J-250000D01*
G01*
G37*
G36*
G01*
X146296000Y-116365000D02*
X146296000Y-117315000D01*
G75*
G02*
X146046000Y-117565000I-250000J0D01*
G01*
X145546000Y-117565000D01*
G75*
G02*
X145296000Y-117315000I0J250000D01*
G01*
X145296000Y-116365000D01*
G75*
G02*
X145546000Y-116115000I250000J0D01*
G01*
X146046000Y-116115000D01*
G75*
G02*
X146296000Y-116365000I0J-250000D01*
G01*
G37*
G36*
G01*
X139118000Y-99601000D02*
X139118000Y-100551000D01*
G75*
G02*
X138868000Y-100801000I-250000J0D01*
G01*
X138368000Y-100801000D01*
G75*
G02*
X138118000Y-100551000I0J250000D01*
G01*
X138118000Y-99601000D01*
G75*
G02*
X138368000Y-99351000I250000J0D01*
G01*
X138868000Y-99351000D01*
G75*
G02*
X139118000Y-99601000I0J-250000D01*
G01*
G37*
G36*
G01*
X137218000Y-99601000D02*
X137218000Y-100551000D01*
G75*
G02*
X136968000Y-100801000I-250000J0D01*
G01*
X136468000Y-100801000D01*
G75*
G02*
X136218000Y-100551000I0J250000D01*
G01*
X136218000Y-99601000D01*
G75*
G02*
X136468000Y-99351000I250000J0D01*
G01*
X136968000Y-99351000D01*
G75*
G02*
X137218000Y-99601000I0J-250000D01*
G01*
G37*
G36*
G01*
X193514400Y-124160500D02*
X193514400Y-125060500D01*
G75*
G02*
X193264400Y-125310500I-250000J0D01*
G01*
X192739400Y-125310500D01*
G75*
G02*
X192489400Y-125060500I0J250000D01*
G01*
X192489400Y-124160500D01*
G75*
G02*
X192739400Y-123910500I250000J0D01*
G01*
X193264400Y-123910500D01*
G75*
G02*
X193514400Y-124160500I0J-250000D01*
G01*
G37*
G36*
G01*
X191689400Y-124160500D02*
X191689400Y-125060500D01*
G75*
G02*
X191439400Y-125310500I-250000J0D01*
G01*
X190914400Y-125310500D01*
G75*
G02*
X190664400Y-125060500I0J250000D01*
G01*
X190664400Y-124160500D01*
G75*
G02*
X190914400Y-123910500I250000J0D01*
G01*
X191439400Y-123910500D01*
G75*
G02*
X191689400Y-124160500I0J-250000D01*
G01*
G37*
G36*
G01*
X108514100Y-80157900D02*
X109414100Y-80157900D01*
G75*
G02*
X109664100Y-80407900I0J-250000D01*
G01*
X109664100Y-80932900D01*
G75*
G02*
X109414100Y-81182900I-250000J0D01*
G01*
X108514100Y-81182900D01*
G75*
G02*
X108264100Y-80932900I0J250000D01*
G01*
X108264100Y-80407900D01*
G75*
G02*
X108514100Y-80157900I250000J0D01*
G01*
G37*
G36*
G01*
X108514100Y-81982900D02*
X109414100Y-81982900D01*
G75*
G02*
X109664100Y-82232900I0J-250000D01*
G01*
X109664100Y-82757900D01*
G75*
G02*
X109414100Y-83007900I-250000J0D01*
G01*
X108514100Y-83007900D01*
G75*
G02*
X108264100Y-82757900I0J250000D01*
G01*
X108264100Y-82232900D01*
G75*
G02*
X108514100Y-81982900I250000J0D01*
G01*
G37*
G36*
G01*
X181861400Y-82261500D02*
X181861400Y-81361500D01*
G75*
G02*
X182111400Y-81111500I250000J0D01*
G01*
X182636400Y-81111500D01*
G75*
G02*
X182886400Y-81361500I0J-250000D01*
G01*
X182886400Y-82261500D01*
G75*
G02*
X182636400Y-82511500I-250000J0D01*
G01*
X182111400Y-82511500D01*
G75*
G02*
X181861400Y-82261500I0J250000D01*
G01*
G37*
G36*
G01*
X183686400Y-82261500D02*
X183686400Y-81361500D01*
G75*
G02*
X183936400Y-81111500I250000J0D01*
G01*
X184461400Y-81111500D01*
G75*
G02*
X184711400Y-81361500I0J-250000D01*
G01*
X184711400Y-82261500D01*
G75*
G02*
X184461400Y-82511500I-250000J0D01*
G01*
X183936400Y-82511500D01*
G75*
G02*
X183686400Y-82261500I0J250000D01*
G01*
G37*
G36*
G01*
X195760400Y-62184500D02*
X195760400Y-63084500D01*
G75*
G02*
X195510400Y-63334500I-250000J0D01*
G01*
X194985400Y-63334500D01*
G75*
G02*
X194735400Y-63084500I0J250000D01*
G01*
X194735400Y-62184500D01*
G75*
G02*
X194985400Y-61934500I250000J0D01*
G01*
X195510400Y-61934500D01*
G75*
G02*
X195760400Y-62184500I0J-250000D01*
G01*
G37*
G36*
G01*
X193935400Y-62184500D02*
X193935400Y-63084500D01*
G75*
G02*
X193685400Y-63334500I-250000J0D01*
G01*
X193160400Y-63334500D01*
G75*
G02*
X192910400Y-63084500I0J250000D01*
G01*
X192910400Y-62184500D01*
G75*
G02*
X193160400Y-61934500I250000J0D01*
G01*
X193685400Y-61934500D01*
G75*
G02*
X193935400Y-62184500I0J-250000D01*
G01*
G37*
X179402400Y-77432500D03*
X179402400Y-78382500D03*
X179402400Y-79332500D03*
X176502400Y-79332500D03*
X176502400Y-78382500D03*
X176502400Y-77432500D03*
G36*
G01*
X91696600Y-81744400D02*
X91696600Y-82644400D01*
G75*
G02*
X91446600Y-82894400I-250000J0D01*
G01*
X90921600Y-82894400D01*
G75*
G02*
X90671600Y-82644400I0J250000D01*
G01*
X90671600Y-81744400D01*
G75*
G02*
X90921600Y-81494400I250000J0D01*
G01*
X91446600Y-81494400D01*
G75*
G02*
X91696600Y-81744400I0J-250000D01*
G01*
G37*
G36*
G01*
X89871600Y-81744400D02*
X89871600Y-82644400D01*
G75*
G02*
X89621600Y-82894400I-250000J0D01*
G01*
X89096600Y-82894400D01*
G75*
G02*
X88846600Y-82644400I0J250000D01*
G01*
X88846600Y-81744400D01*
G75*
G02*
X89096600Y-81494400I250000J0D01*
G01*
X89621600Y-81494400D01*
G75*
G02*
X89871600Y-81744400I0J-250000D01*
G01*
G37*
G36*
G01*
X92101100Y-99016400D02*
X92101100Y-99916400D01*
G75*
G02*
X91851100Y-100166400I-250000J0D01*
G01*
X91326100Y-100166400D01*
G75*
G02*
X91076100Y-99916400I0J250000D01*
G01*
X91076100Y-99016400D01*
G75*
G02*
X91326100Y-98766400I250000J0D01*
G01*
X91851100Y-98766400D01*
G75*
G02*
X92101100Y-99016400I0J-250000D01*
G01*
G37*
G36*
G01*
X90276100Y-99016400D02*
X90276100Y-99916400D01*
G75*
G02*
X90026100Y-100166400I-250000J0D01*
G01*
X89501100Y-100166400D01*
G75*
G02*
X89251100Y-99916400I0J250000D01*
G01*
X89251100Y-99016400D01*
G75*
G02*
X89501100Y-98766400I250000J0D01*
G01*
X90026100Y-98766400D01*
G75*
G02*
X90276100Y-99016400I0J-250000D01*
G01*
G37*
G36*
G01*
X100068000Y-46997600D02*
X100068000Y-47947600D01*
G75*
G02*
X99818000Y-48197600I-250000J0D01*
G01*
X99318000Y-48197600D01*
G75*
G02*
X99068000Y-47947600I0J250000D01*
G01*
X99068000Y-46997600D01*
G75*
G02*
X99318000Y-46747600I250000J0D01*
G01*
X99818000Y-46747600D01*
G75*
G02*
X100068000Y-46997600I0J-250000D01*
G01*
G37*
G36*
G01*
X98168000Y-46997600D02*
X98168000Y-47947600D01*
G75*
G02*
X97918000Y-48197600I-250000J0D01*
G01*
X97418000Y-48197600D01*
G75*
G02*
X97168000Y-47947600I0J250000D01*
G01*
X97168000Y-46997600D01*
G75*
G02*
X97418000Y-46747600I250000J0D01*
G01*
X97918000Y-46747600D01*
G75*
G02*
X98168000Y-46997600I0J-250000D01*
G01*
G37*
G36*
G01*
X220850400Y-92931400D02*
X220850400Y-92031400D01*
G75*
G02*
X221100400Y-91781400I250000J0D01*
G01*
X221625400Y-91781400D01*
G75*
G02*
X221875400Y-92031400I0J-250000D01*
G01*
X221875400Y-92931400D01*
G75*
G02*
X221625400Y-93181400I-250000J0D01*
G01*
X221100400Y-93181400D01*
G75*
G02*
X220850400Y-92931400I0J250000D01*
G01*
G37*
G36*
G01*
X222675400Y-92931400D02*
X222675400Y-92031400D01*
G75*
G02*
X222925400Y-91781400I250000J0D01*
G01*
X223450400Y-91781400D01*
G75*
G02*
X223700400Y-92031400I0J-250000D01*
G01*
X223700400Y-92931400D01*
G75*
G02*
X223450400Y-93181400I-250000J0D01*
G01*
X222925400Y-93181400D01*
G75*
G02*
X222675400Y-92931400I0J250000D01*
G01*
G37*
G36*
G01*
X139093000Y-102166000D02*
X139093000Y-103066000D01*
G75*
G02*
X138843000Y-103316000I-250000J0D01*
G01*
X138318000Y-103316000D01*
G75*
G02*
X138068000Y-103066000I0J250000D01*
G01*
X138068000Y-102166000D01*
G75*
G02*
X138318000Y-101916000I250000J0D01*
G01*
X138843000Y-101916000D01*
G75*
G02*
X139093000Y-102166000I0J-250000D01*
G01*
G37*
G36*
G01*
X137268000Y-102166000D02*
X137268000Y-103066000D01*
G75*
G02*
X137018000Y-103316000I-250000J0D01*
G01*
X136493000Y-103316000D01*
G75*
G02*
X136243000Y-103066000I0J250000D01*
G01*
X136243000Y-102166000D01*
G75*
G02*
X136493000Y-101916000I250000J0D01*
G01*
X137018000Y-101916000D01*
G75*
G02*
X137268000Y-102166000I0J-250000D01*
G01*
G37*
G36*
G01*
X75283000Y-124402000D02*
X75283000Y-123502000D01*
G75*
G02*
X75533000Y-123252000I250000J0D01*
G01*
X76058000Y-123252000D01*
G75*
G02*
X76308000Y-123502000I0J-250000D01*
G01*
X76308000Y-124402000D01*
G75*
G02*
X76058000Y-124652000I-250000J0D01*
G01*
X75533000Y-124652000D01*
G75*
G02*
X75283000Y-124402000I0J250000D01*
G01*
G37*
G36*
G01*
X77108000Y-124402000D02*
X77108000Y-123502000D01*
G75*
G02*
X77358000Y-123252000I250000J0D01*
G01*
X77883000Y-123252000D01*
G75*
G02*
X78133000Y-123502000I0J-250000D01*
G01*
X78133000Y-124402000D01*
G75*
G02*
X77883000Y-124652000I-250000J0D01*
G01*
X77358000Y-124652000D01*
G75*
G02*
X77108000Y-124402000I0J250000D01*
G01*
G37*
X97153100Y-81818400D03*
X97153100Y-82768400D03*
X97153100Y-83718400D03*
X94253100Y-83718400D03*
X94253100Y-82768400D03*
X94253100Y-81818400D03*
G36*
G01*
X93651600Y-105138400D02*
X93651600Y-104838400D01*
G75*
G02*
X93801600Y-104688400I150000J0D01*
G01*
X94976600Y-104688400D01*
G75*
G02*
X95126600Y-104838400I0J-150000D01*
G01*
X95126600Y-105138400D01*
G75*
G02*
X94976600Y-105288400I-150000J0D01*
G01*
X93801600Y-105288400D01*
G75*
G02*
X93651600Y-105138400I0J150000D01*
G01*
G37*
G36*
G01*
X93651600Y-103238400D02*
X93651600Y-102938400D01*
G75*
G02*
X93801600Y-102788400I150000J0D01*
G01*
X94976600Y-102788400D01*
G75*
G02*
X95126600Y-102938400I0J-150000D01*
G01*
X95126600Y-103238400D01*
G75*
G02*
X94976600Y-103388400I-150000J0D01*
G01*
X93801600Y-103388400D01*
G75*
G02*
X93651600Y-103238400I0J150000D01*
G01*
G37*
G36*
G01*
X95526600Y-104188400D02*
X95526600Y-103888400D01*
G75*
G02*
X95676600Y-103738400I150000J0D01*
G01*
X96851600Y-103738400D01*
G75*
G02*
X97001600Y-103888400I0J-150000D01*
G01*
X97001600Y-104188400D01*
G75*
G02*
X96851600Y-104338400I-150000J0D01*
G01*
X95676600Y-104338400D01*
G75*
G02*
X95526600Y-104188400I0J150000D01*
G01*
G37*
G36*
G01*
X204182400Y-114508500D02*
X204182400Y-115408500D01*
G75*
G02*
X203932400Y-115658500I-250000J0D01*
G01*
X203407400Y-115658500D01*
G75*
G02*
X203157400Y-115408500I0J250000D01*
G01*
X203157400Y-114508500D01*
G75*
G02*
X203407400Y-114258500I250000J0D01*
G01*
X203932400Y-114258500D01*
G75*
G02*
X204182400Y-114508500I0J-250000D01*
G01*
G37*
G36*
G01*
X202357400Y-114508500D02*
X202357400Y-115408500D01*
G75*
G02*
X202107400Y-115658500I-250000J0D01*
G01*
X201582400Y-115658500D01*
G75*
G02*
X201332400Y-115408500I0J250000D01*
G01*
X201332400Y-114508500D01*
G75*
G02*
X201582400Y-114258500I250000J0D01*
G01*
X202107400Y-114258500D01*
G75*
G02*
X202357400Y-114508500I0J-250000D01*
G01*
G37*
G36*
G01*
X171193400Y-77308500D02*
X171193400Y-76408500D01*
G75*
G02*
X171443400Y-76158500I250000J0D01*
G01*
X171968400Y-76158500D01*
G75*
G02*
X172218400Y-76408500I0J-250000D01*
G01*
X172218400Y-77308500D01*
G75*
G02*
X171968400Y-77558500I-250000J0D01*
G01*
X171443400Y-77558500D01*
G75*
G02*
X171193400Y-77308500I0J250000D01*
G01*
G37*
G36*
G01*
X173018400Y-77308500D02*
X173018400Y-76408500D01*
G75*
G02*
X173268400Y-76158500I250000J0D01*
G01*
X173793400Y-76158500D01*
G75*
G02*
X174043400Y-76408500I0J-250000D01*
G01*
X174043400Y-77308500D01*
G75*
G02*
X173793400Y-77558500I-250000J0D01*
G01*
X173268400Y-77558500D01*
G75*
G02*
X173018400Y-77308500I0J250000D01*
G01*
G37*
M02*
