%FSLAX45Y45*%
G04 Gerber Fmt 4.5, Leading zero omitted, Abs format (unit mm)*
G04 Created by KiCad (PCBNEW 6.0.5+dfsg-1~bpo11+1) date 2022-08-16 14:47:16*
%MOMM*%
%LPD*%
G01*
G04 APERTURE LIST*
%TA.AperFunction,Profile*%
%ADD10C,0.100000*%
%TD*%
%ADD11C,0.200000*%
%ADD12C,0.040000*%
%ADD13C,0.050000*%
%ADD14C,0.080000*%
%ADD15C,0.100000*%
%ADD16C,0.110000*%
%ADD17C,0.119000*%
G04 APERTURE END LIST*
D10*
X6096000Y-14605000D02*
X6096000Y-4445000D01*
X22860000Y-14605000D02*
X6096000Y-14605000D01*
X6096000Y-4445000D02*
X22860000Y-4445000D01*
X22860000Y-4445000D02*
X22860000Y-14605000D01*
D11*
D12*
X6330000Y-6139500D02*
X6370000Y-6179500D01*
X6370000Y-6139500D02*
X6330000Y-6179500D01*
X6346450Y-6273675D02*
X6386450Y-6313675D01*
X6386450Y-6273675D02*
X6346450Y-6313675D01*
X6412001Y-6349128D02*
X6452001Y-6389128D01*
X6452001Y-6349128D02*
X6412001Y-6389128D01*
X6507800Y-14000800D02*
X6547800Y-14040800D01*
X6547800Y-14000800D02*
X6507800Y-14040800D01*
X6532348Y-6341848D02*
X6572348Y-6381848D01*
X6572348Y-6341848D02*
X6532348Y-6381848D01*
X6634800Y-13035600D02*
X6674800Y-13075600D01*
X6674800Y-13035600D02*
X6634800Y-13075600D01*
X6838000Y-13035600D02*
X6878000Y-13075600D01*
X6878000Y-13035600D02*
X6838000Y-13075600D01*
X7041200Y-6380800D02*
X7081200Y-6420800D01*
X7081200Y-6380800D02*
X7041200Y-6420800D01*
X7041200Y-13035600D02*
X7081200Y-13075600D01*
X7081200Y-13035600D02*
X7041200Y-13075600D01*
X7244400Y-13035600D02*
X7284400Y-13075600D01*
X7284400Y-13035600D02*
X7244400Y-13075600D01*
X7600000Y-9886000D02*
X7640000Y-9926000D01*
X7640000Y-9886000D02*
X7600000Y-9926000D01*
X7600000Y-11918000D02*
X7640000Y-11958000D01*
X7640000Y-11918000D02*
X7600000Y-11958000D01*
X7854000Y-8971600D02*
X7894000Y-9011600D01*
X7894000Y-8971600D02*
X7854000Y-9011600D01*
X8235000Y-8743000D02*
X8275000Y-8783000D01*
X8275000Y-8743000D02*
X8235000Y-8783000D01*
X8235000Y-9124000D02*
X8275000Y-9164000D01*
X8275000Y-9124000D02*
X8235000Y-9164000D01*
X8235000Y-9886000D02*
X8275000Y-9926000D01*
X8275000Y-9886000D02*
X8235000Y-9926000D01*
X8235000Y-10902000D02*
X8275000Y-10942000D01*
X8275000Y-10902000D02*
X8235000Y-10942000D01*
X8235000Y-11283000D02*
X8275000Y-11323000D01*
X8275000Y-11283000D02*
X8235000Y-11323000D01*
X8362000Y-5441000D02*
X8402000Y-5481000D01*
X8402000Y-5441000D02*
X8362000Y-5481000D01*
X8362000Y-6711000D02*
X8402000Y-6751000D01*
X8402000Y-6711000D02*
X8362000Y-6751000D01*
X8514400Y-11054400D02*
X8554400Y-11094400D01*
X8554400Y-11054400D02*
X8514400Y-11094400D01*
X8616000Y-6406200D02*
X8656000Y-6446200D01*
X8656000Y-6406200D02*
X8616000Y-6446200D01*
X8803960Y-10841040D02*
X8843960Y-10881040D01*
X8843960Y-10841040D02*
X8803960Y-10881040D01*
X8870000Y-6711000D02*
X8910000Y-6751000D01*
X8910000Y-6711000D02*
X8870000Y-6751000D01*
X8870000Y-13315000D02*
X8910000Y-13355000D01*
X8910000Y-13315000D02*
X8870000Y-13355000D01*
X9835200Y-6406200D02*
X9875200Y-6446200D01*
X9875200Y-6406200D02*
X9835200Y-6446200D01*
X10127300Y-4689160D02*
X10167300Y-4729160D01*
X10167300Y-4689160D02*
X10127300Y-4729160D01*
X10394000Y-13315000D02*
X10434000Y-13355000D01*
X10434000Y-13315000D02*
X10394000Y-13355000D01*
X10584500Y-6368100D02*
X10624500Y-6408100D01*
X10624500Y-6368100D02*
X10584500Y-6408100D01*
X10698800Y-6457000D02*
X10738800Y-6497000D01*
X10738800Y-6457000D02*
X10698800Y-6497000D01*
X10851200Y-12476800D02*
X10891200Y-12516800D01*
X10891200Y-12476800D02*
X10851200Y-12516800D01*
X11101640Y-6631240D02*
X11141640Y-6671240D01*
X11141640Y-6631240D02*
X11101640Y-6671240D01*
X11537000Y-5885500D02*
X11577000Y-5925500D01*
X11577000Y-5885500D02*
X11537000Y-5925500D01*
X11600500Y-5631500D02*
X11640500Y-5671500D01*
X11640500Y-5631500D02*
X11600500Y-5671500D01*
X11727500Y-6275450D02*
X11767500Y-6315450D01*
X11767500Y-6275450D02*
X11727500Y-6315450D01*
X11740200Y-6812600D02*
X11780200Y-6852600D01*
X11780200Y-6812600D02*
X11740200Y-6852600D01*
X11901550Y-6066646D02*
X11941550Y-6106646D01*
X11941550Y-6066646D02*
X11901550Y-6106646D01*
X12045000Y-6186550D02*
X12085000Y-6226550D01*
X12085000Y-6186550D02*
X12045000Y-6226550D01*
X12172000Y-12070400D02*
X12212000Y-12110400D01*
X12212000Y-12070400D02*
X12172000Y-12110400D01*
X12248200Y-10749600D02*
X12288200Y-10789600D01*
X12288200Y-10749600D02*
X12248200Y-10789600D01*
X12553000Y-5441000D02*
X12593000Y-5481000D01*
X12593000Y-5441000D02*
X12553000Y-5481000D01*
X12553000Y-5898200D02*
X12593000Y-5938200D01*
X12593000Y-5898200D02*
X12553000Y-5938200D01*
X12553000Y-6711000D02*
X12593000Y-6751000D01*
X12593000Y-6711000D02*
X12553000Y-6751000D01*
X12553000Y-8743000D02*
X12593000Y-8783000D01*
X12593000Y-8743000D02*
X12553000Y-8783000D01*
X12553000Y-9124000D02*
X12593000Y-9164000D01*
X12593000Y-9124000D02*
X12553000Y-9164000D01*
X12553000Y-10140000D02*
X12593000Y-10180000D01*
X12593000Y-10140000D02*
X12553000Y-10180000D01*
X12553000Y-10521000D02*
X12593000Y-10561000D01*
X12593000Y-10521000D02*
X12553000Y-10561000D01*
X12553000Y-10902000D02*
X12593000Y-10942000D01*
X12593000Y-10902000D02*
X12553000Y-10942000D01*
X12553000Y-11791000D02*
X12593000Y-11831000D01*
X12593000Y-11791000D02*
X12553000Y-11831000D01*
X12553000Y-12426000D02*
X12593000Y-12466000D01*
X12593000Y-12426000D02*
X12553000Y-12466000D01*
X12743500Y-12273600D02*
X12783500Y-12313600D01*
X12783500Y-12273600D02*
X12743500Y-12313600D01*
X12934000Y-6711000D02*
X12974000Y-6751000D01*
X12974000Y-6711000D02*
X12934000Y-6751000D01*
X12934000Y-8743000D02*
X12974000Y-8783000D01*
X12974000Y-8743000D02*
X12934000Y-8783000D01*
X12934000Y-9124000D02*
X12974000Y-9164000D01*
X12974000Y-9124000D02*
X12934000Y-9164000D01*
X12934000Y-10140000D02*
X12974000Y-10180000D01*
X12974000Y-10140000D02*
X12934000Y-10180000D01*
X12934000Y-10521000D02*
X12974000Y-10561000D01*
X12974000Y-10521000D02*
X12934000Y-10561000D01*
X12934000Y-10902000D02*
X12974000Y-10942000D01*
X12974000Y-10902000D02*
X12934000Y-10942000D01*
X12934000Y-11791000D02*
X12974000Y-11831000D01*
X12974000Y-11791000D02*
X12934000Y-11831000D01*
X12934000Y-12426000D02*
X12974000Y-12466000D01*
X12974000Y-12426000D02*
X12934000Y-12466000D01*
X13188000Y-8975543D02*
X13228000Y-9015543D01*
X13228000Y-8975543D02*
X13188000Y-9015543D01*
X13213400Y-10749600D02*
X13253400Y-10789600D01*
X13253400Y-10749600D02*
X13213400Y-10789600D01*
X13378500Y-10330500D02*
X13418500Y-10370500D01*
X13418500Y-10330500D02*
X13378500Y-10370500D01*
X13569000Y-12426000D02*
X13609000Y-12466000D01*
X13609000Y-12426000D02*
X13569000Y-12466000D01*
X13721400Y-14051600D02*
X13761400Y-14091600D01*
X13761400Y-14051600D02*
X13721400Y-14091600D01*
X14178600Y-6177600D02*
X14218600Y-6217600D01*
X14218600Y-6177600D02*
X14178600Y-6217600D01*
X14204000Y-5441000D02*
X14244000Y-5481000D01*
X14244000Y-5441000D02*
X14204000Y-5481000D01*
X14204000Y-6711000D02*
X14244000Y-6751000D01*
X14244000Y-6711000D02*
X14204000Y-6751000D01*
X14305600Y-9225600D02*
X14345600Y-9265600D01*
X14345600Y-9225600D02*
X14305600Y-9265600D01*
X14407200Y-11968800D02*
X14447200Y-12008800D01*
X14447200Y-11968800D02*
X14407200Y-12008800D01*
X14468190Y-6017700D02*
X14508190Y-6057700D01*
X14508190Y-6017700D02*
X14468190Y-6057700D01*
X14712000Y-6097650D02*
X14752000Y-6137650D01*
X14752000Y-6097650D02*
X14712000Y-6137650D01*
X14712000Y-6711000D02*
X14752000Y-6751000D01*
X14752000Y-6711000D02*
X14712000Y-6751000D01*
X15270800Y-12426000D02*
X15310800Y-12466000D01*
X15310800Y-12426000D02*
X15270800Y-12466000D01*
X15423200Y-11638600D02*
X15463200Y-11678600D01*
X15463200Y-11638600D02*
X15423200Y-11678600D01*
X15428280Y-10353360D02*
X15468280Y-10393360D01*
X15468280Y-10353360D02*
X15428280Y-10393360D01*
X15588300Y-8920800D02*
X15628300Y-8960800D01*
X15628300Y-8920800D02*
X15588300Y-8960800D01*
X15673450Y-10749600D02*
X15713450Y-10789600D01*
X15713450Y-10749600D02*
X15673450Y-10789600D01*
X15728000Y-6711000D02*
X15768000Y-6751000D01*
X15768000Y-6711000D02*
X15728000Y-6751000D01*
X15728000Y-8743000D02*
X15768000Y-8783000D01*
X15768000Y-8743000D02*
X15728000Y-8783000D01*
X15728000Y-9124000D02*
X15768000Y-9164000D01*
X15768000Y-9124000D02*
X15728000Y-9164000D01*
X15728000Y-10521000D02*
X15768000Y-10561000D01*
X15768000Y-10521000D02*
X15728000Y-10561000D01*
X15728000Y-10902000D02*
X15768000Y-10942000D01*
X15768000Y-10902000D02*
X15728000Y-10942000D01*
X15728000Y-11791000D02*
X15768000Y-11831000D01*
X15768000Y-11791000D02*
X15728000Y-11831000D01*
X15728000Y-12426000D02*
X15768000Y-12466000D01*
X15768000Y-12426000D02*
X15728000Y-12466000D01*
X15784533Y-6121067D02*
X15824533Y-6161067D01*
X15824533Y-6121067D02*
X15784533Y-6161067D01*
X15931200Y-12299000D02*
X15971200Y-12339000D01*
X15971200Y-12299000D02*
X15931200Y-12339000D01*
X16032800Y-5825750D02*
X16072800Y-5865750D01*
X16072800Y-5825750D02*
X16032800Y-5865750D01*
X16109000Y-5745800D02*
X16149000Y-5785800D01*
X16149000Y-5745800D02*
X16109000Y-5785800D01*
X16198101Y-5985487D02*
X16238101Y-6025487D01*
X16238101Y-5985487D02*
X16198101Y-6025487D01*
X16363000Y-5441000D02*
X16403000Y-5481000D01*
X16403000Y-5441000D02*
X16363000Y-5481000D01*
X16363000Y-6711000D02*
X16403000Y-6751000D01*
X16403000Y-6711000D02*
X16363000Y-6751000D01*
X16363000Y-8743000D02*
X16403000Y-8783000D01*
X16403000Y-8743000D02*
X16363000Y-8783000D01*
X16363000Y-9124000D02*
X16403000Y-9164000D01*
X16403000Y-9124000D02*
X16363000Y-9164000D01*
X16363000Y-10521000D02*
X16403000Y-10561000D01*
X16403000Y-10521000D02*
X16363000Y-10561000D01*
X16363000Y-10902000D02*
X16403000Y-10942000D01*
X16403000Y-10902000D02*
X16363000Y-10942000D01*
X16363000Y-11791000D02*
X16403000Y-11831000D01*
X16403000Y-11791000D02*
X16363000Y-11831000D01*
X16363000Y-12426000D02*
X16403000Y-12466000D01*
X16403000Y-12426000D02*
X16363000Y-12466000D01*
X16871000Y-9870760D02*
X16911000Y-9910760D01*
X16911000Y-9870760D02*
X16871000Y-9910760D01*
X16921800Y-10902000D02*
X16961800Y-10942000D01*
X16961800Y-10902000D02*
X16921800Y-10942000D01*
X16998000Y-6711000D02*
X17038000Y-6751000D01*
X17038000Y-6711000D02*
X16998000Y-6751000D01*
X17252000Y-13315000D02*
X17292000Y-13355000D01*
X17292000Y-13315000D02*
X17252000Y-13355000D01*
X17384080Y-9865680D02*
X17424080Y-9905680D01*
X17424080Y-9865680D02*
X17384080Y-9905680D01*
X17432340Y-9685340D02*
X17472340Y-9725340D01*
X17472340Y-9685340D02*
X17432340Y-9725340D01*
X17437316Y-5742050D02*
X17477316Y-5782050D01*
X17477316Y-5742050D02*
X17437316Y-5782050D01*
X17468090Y-7818250D02*
X17508090Y-7858250D01*
X17508090Y-7818250D02*
X17468090Y-7858250D01*
X17475520Y-8318820D02*
X17515520Y-8358820D01*
X17515520Y-8318820D02*
X17475520Y-8358820D01*
X17836200Y-10142540D02*
X17876200Y-10182540D01*
X17876200Y-10142540D02*
X17836200Y-10182540D01*
X17930180Y-10360980D02*
X17970180Y-10400980D01*
X17970180Y-10360980D02*
X17930180Y-10400980D01*
X18069880Y-8102920D02*
X18109880Y-8142920D01*
X18109880Y-8102920D02*
X18069880Y-8142920D01*
X18268000Y-5822000D02*
X18308000Y-5862000D01*
X18308000Y-5822000D02*
X18268000Y-5862000D01*
X18395000Y-6711000D02*
X18435000Y-6751000D01*
X18435000Y-6711000D02*
X18395000Y-6751000D01*
X18567720Y-10137460D02*
X18607720Y-10177460D01*
X18607720Y-10137460D02*
X18567720Y-10177460D01*
X18572800Y-7549200D02*
X18612800Y-7589200D01*
X18612800Y-7549200D02*
X18572800Y-7589200D01*
X18750600Y-6279200D02*
X18790600Y-6319200D01*
X18790600Y-6279200D02*
X18750600Y-6319200D01*
X18830550Y-6384550D02*
X18870550Y-6424550D01*
X18870550Y-6384550D02*
X18830550Y-6424550D01*
X18928400Y-6279200D02*
X18968400Y-6319200D01*
X18968400Y-6279200D02*
X18928400Y-6319200D01*
X19030000Y-13315000D02*
X19070000Y-13355000D01*
X19070000Y-13315000D02*
X19030000Y-13355000D01*
X19131600Y-5822000D02*
X19171600Y-5862000D01*
X19171600Y-5822000D02*
X19131600Y-5862000D01*
X19195100Y-6609400D02*
X19235100Y-6649400D01*
X19235100Y-6609400D02*
X19195100Y-6649400D01*
X19240820Y-11966051D02*
X19280820Y-12006051D01*
X19280820Y-11966051D02*
X19240820Y-12006051D01*
X19680240Y-7838760D02*
X19720240Y-7878760D01*
X19720240Y-7838760D02*
X19680240Y-7878760D01*
X19680240Y-9159560D02*
X19720240Y-9199560D01*
X19720240Y-9159560D02*
X19680240Y-9199560D01*
X19690400Y-10485440D02*
X19730400Y-10525440D01*
X19730400Y-10485440D02*
X19690400Y-10525440D01*
X19817400Y-6787200D02*
X19857400Y-6827200D01*
X19857400Y-6787200D02*
X19817400Y-6827200D01*
X19974880Y-10490520D02*
X20014880Y-10530520D01*
X20014880Y-10490520D02*
X19974880Y-10530520D01*
X19982500Y-5822000D02*
X20022500Y-5862000D01*
X20022500Y-5822000D02*
X19982500Y-5862000D01*
X19984284Y-5943040D02*
X20024284Y-5983040D01*
X20024284Y-5943040D02*
X19984284Y-5983040D01*
X19995200Y-7848920D02*
X20035200Y-7888920D01*
X20035200Y-7848920D02*
X19995200Y-7888920D01*
X20005360Y-9164640D02*
X20045360Y-9204640D01*
X20045360Y-9164640D02*
X20005360Y-9204640D01*
X20046000Y-6097650D02*
X20086000Y-6137650D01*
X20086000Y-6097650D02*
X20046000Y-6137650D01*
X20173000Y-6076000D02*
X20213000Y-6116000D01*
X20213000Y-6076000D02*
X20173000Y-6116000D01*
X20173000Y-6711000D02*
X20213000Y-6751000D01*
X20213000Y-6711000D02*
X20173000Y-6751000D01*
X20300000Y-8743000D02*
X20340000Y-8783000D01*
X20340000Y-8743000D02*
X20300000Y-8783000D01*
X20300000Y-9124000D02*
X20340000Y-9164000D01*
X20340000Y-9124000D02*
X20300000Y-9164000D01*
X20338100Y-10838500D02*
X20378100Y-10878500D01*
X20378100Y-10838500D02*
X20338100Y-10878500D01*
X20617500Y-11664000D02*
X20657500Y-11704000D01*
X20657500Y-11664000D02*
X20617500Y-11704000D01*
X20617500Y-12680000D02*
X20657500Y-12720000D01*
X20657500Y-12680000D02*
X20617500Y-12720000D01*
X20935000Y-11029000D02*
X20975000Y-11069000D01*
X20975000Y-11029000D02*
X20935000Y-11069000D01*
X21189000Y-5441000D02*
X21229000Y-5481000D01*
X21229000Y-5441000D02*
X21189000Y-5481000D01*
X21189000Y-6711000D02*
X21229000Y-6751000D01*
X21229000Y-6711000D02*
X21189000Y-6751000D01*
X21189000Y-8235000D02*
X21229000Y-8275000D01*
X21229000Y-8235000D02*
X21189000Y-8275000D01*
X21189000Y-11727500D02*
X21229000Y-11767500D01*
X21229000Y-11727500D02*
X21189000Y-11767500D01*
X21417600Y-6275450D02*
X21457600Y-6315450D01*
X21457600Y-6275450D02*
X21417600Y-6315450D01*
X21522950Y-6380800D02*
X21562950Y-6420800D01*
X21562950Y-6380800D02*
X21522950Y-6420800D01*
X21697000Y-6711000D02*
X21737000Y-6751000D01*
X21737000Y-6711000D02*
X21697000Y-6751000D01*
X21697000Y-8235000D02*
X21737000Y-8275000D01*
X21737000Y-8235000D02*
X21697000Y-8275000D01*
X22738400Y-4577400D02*
X22778400Y-4617400D01*
X22778400Y-4577400D02*
X22738400Y-4617400D01*
D13*
X8750950Y-9959340D02*
G75*
G03*
X8750950Y-9959340I-25000J0D01*
G01*
X8785460Y-7838440D02*
G75*
G03*
X8785460Y-7838440I-25000J0D01*
G01*
X9280656Y-7818224D02*
G75*
G03*
X9280656Y-7818224I-25000J0D01*
G01*
X9280760Y-8371840D02*
G75*
G03*
X9280760Y-8371840I-25000J0D01*
G01*
X9306160Y-9946640D02*
G75*
G03*
X9306160Y-9946640I-25000J0D01*
G01*
X9331560Y-9756140D02*
G75*
G03*
X9331560Y-9756140I-25000J0D01*
G01*
X9737960Y-10238740D02*
G75*
G03*
X9737960Y-10238740I-25000J0D01*
G01*
X9826860Y-10403840D02*
G75*
G03*
X9826860Y-10403840I-25000J0D01*
G01*
X9905600Y-8173720D02*
G75*
G03*
X9905600Y-8173720I-25000J0D01*
G01*
X10299300Y-5864860D02*
G75*
G03*
X10299300Y-5864860I-25000J0D01*
G01*
X10400378Y-10293664D02*
G75*
G03*
X10400378Y-10293664I-25000J0D01*
G01*
X10499960Y-7825740D02*
G75*
G03*
X10499960Y-7825740I-25000J0D01*
G01*
X10896200Y-5864860D02*
G75*
G03*
X10896200Y-5864860I-25000J0D01*
G01*
X11160360Y-12029440D02*
G75*
G03*
X11160360Y-12029440I-25000J0D01*
G01*
X11642960Y-7863840D02*
G75*
G03*
X11642960Y-7863840I-25000J0D01*
G01*
X11642960Y-9184640D02*
G75*
G03*
X11642960Y-9184640I-25000J0D01*
G01*
X11642960Y-10530840D02*
G75*
G03*
X11642960Y-10530840I-25000J0D01*
G01*
X11858860Y-7914640D02*
G75*
G03*
X11858860Y-7914640I-25000J0D01*
G01*
X11909660Y-9222740D02*
G75*
G03*
X11909660Y-9222740I-25000J0D01*
G01*
X11922360Y-10530840D02*
G75*
G03*
X11922360Y-10530840I-25000J0D01*
G01*
X13258400Y-11176000D02*
G75*
G03*
X13258400Y-11176000I-25000J0D01*
G01*
X13525100Y-10134600D02*
G75*
G03*
X13525100Y-10134600I-25000J0D01*
G01*
X13563200Y-11176000D02*
G75*
G03*
X13563200Y-11176000I-25000J0D01*
G01*
X14020400Y-10439400D02*
G75*
G03*
X14020400Y-10439400I-25000J0D01*
G01*
X14045800Y-9093200D02*
G75*
G03*
X14045800Y-9093200I-25000J0D01*
G01*
X14071200Y-9855200D02*
G75*
G03*
X14071200Y-9855200I-25000J0D01*
G01*
X14071200Y-11049000D02*
G75*
G03*
X14071200Y-11049000I-25000J0D01*
G01*
X14071200Y-12801600D02*
G75*
G03*
X14071200Y-12801600I-25000J0D01*
G01*
X14084950Y-10718800D02*
G75*
G03*
X14084950Y-10718800I-25000J0D01*
G01*
X14096704Y-11480904D02*
G75*
G03*
X14096704Y-11480904I-25000J0D01*
G01*
X14198200Y-11861800D02*
G75*
G03*
X14198200Y-11861800I-25000J0D01*
G01*
X14553800Y-11417300D02*
G75*
G03*
X14553800Y-11417300I-25000J0D01*
G01*
X14807800Y-11861800D02*
G75*
G03*
X14807800Y-11861800I-25000J0D01*
G01*
X14934800Y-9728200D02*
G75*
G03*
X14934800Y-9728200I-25000J0D01*
G01*
X14934800Y-12801600D02*
G75*
G03*
X14934800Y-12801600I-25000J0D01*
G01*
X14947500Y-11023600D02*
G75*
G03*
X14947500Y-11023600I-25000J0D01*
G01*
X14960200Y-9093200D02*
G75*
G03*
X14960200Y-9093200I-25000J0D01*
G01*
X14960200Y-11557000D02*
G75*
G03*
X14960200Y-11557000I-25000J0D01*
G01*
X15442800Y-10134600D02*
G75*
G03*
X15442800Y-10134600I-25000J0D01*
G01*
X15442800Y-11404600D02*
G75*
G03*
X15442800Y-11404600I-25000J0D01*
G01*
X15658700Y-11137900D02*
G75*
G03*
X15658700Y-11137900I-25000J0D01*
G01*
X22021400Y-9169400D02*
G75*
G03*
X22021400Y-9169400I-25000J0D01*
G01*
X22046800Y-9512300D02*
G75*
G03*
X22046800Y-9512300I-25000J0D01*
G01*
D14*
X8923210Y-7315840D02*
X8923210Y-7395840D01*
X8883210Y-7355840D02*
X8963210Y-7355840D01*
X9220010Y-11430640D02*
X9220010Y-11510640D01*
X9180010Y-11470640D02*
X9260010Y-11470640D01*
X9220010Y-11684640D02*
X9220010Y-11764640D01*
X9180010Y-11724640D02*
X9260010Y-11724640D01*
X9220010Y-11938640D02*
X9220010Y-12018640D01*
X9180010Y-11978640D02*
X9260010Y-11978640D01*
X9423210Y-7315840D02*
X9423210Y-7395840D01*
X9383210Y-7355840D02*
X9463210Y-7355840D01*
X9728010Y-7315840D02*
X9728010Y-7395840D01*
X9688010Y-7355840D02*
X9768010Y-7355840D01*
X9931210Y-11430640D02*
X9931210Y-11510640D01*
X9891210Y-11470640D02*
X9971210Y-11470640D01*
X9931210Y-11684640D02*
X9931210Y-11764640D01*
X9891210Y-11724640D02*
X9971210Y-11724640D01*
X9931210Y-11938640D02*
X9931210Y-12018640D01*
X9891210Y-11978640D02*
X9971210Y-11978640D01*
X10087610Y-8941440D02*
X10087610Y-9021440D01*
X10047610Y-8981440D02*
X10127610Y-8981440D01*
X10087610Y-9805040D02*
X10087610Y-9885040D01*
X10047610Y-9845040D02*
X10127610Y-9845040D01*
X10087610Y-10668640D02*
X10087610Y-10748640D01*
X10047610Y-10708640D02*
X10127610Y-10708640D01*
X10228010Y-7315840D02*
X10228010Y-7395840D01*
X10188010Y-7355840D02*
X10268010Y-7355840D01*
X10337610Y-8941440D02*
X10337610Y-9021440D01*
X10297610Y-8981440D02*
X10377610Y-8981440D01*
X10337610Y-9805040D02*
X10337610Y-9885040D01*
X10297610Y-9845040D02*
X10377610Y-9845040D01*
X10337610Y-10668640D02*
X10337610Y-10748640D01*
X10297610Y-10708640D02*
X10377610Y-10708640D01*
X10642410Y-11430640D02*
X10642410Y-11510640D01*
X10602410Y-11470640D02*
X10682410Y-11470640D01*
X10642410Y-11684640D02*
X10642410Y-11764640D01*
X10602410Y-11724640D02*
X10682410Y-11724640D01*
X10642410Y-11938640D02*
X10642410Y-12018640D01*
X10602410Y-11978640D02*
X10682410Y-11978640D01*
X11209210Y-7417440D02*
X11209210Y-7497440D01*
X11169210Y-7457440D02*
X11249210Y-7457440D01*
X11209210Y-8738240D02*
X11209210Y-8818240D01*
X11169210Y-8778240D02*
X11249210Y-8778240D01*
X11209210Y-10059040D02*
X11209210Y-10139040D01*
X11169210Y-10099040D02*
X11249210Y-10099040D01*
X11209210Y-11379840D02*
X11209210Y-11459840D01*
X11169210Y-11419840D02*
X11249210Y-11419840D01*
X11709210Y-7417440D02*
X11709210Y-7497440D01*
X11669210Y-7457440D02*
X11749210Y-7457440D01*
X11709210Y-8738240D02*
X11709210Y-8818240D01*
X11669210Y-8778240D02*
X11749210Y-8778240D01*
X11709210Y-10059040D02*
X11709210Y-10139040D01*
X11669210Y-10099040D02*
X11749210Y-10099040D01*
X11709210Y-11379840D02*
X11709210Y-11459840D01*
X11669210Y-11419840D02*
X11749210Y-11419840D01*
X12064810Y-12192640D02*
X12064810Y-12272640D01*
X12024810Y-12232640D02*
X12104810Y-12232640D01*
X12314810Y-12192640D02*
X12314810Y-12272640D01*
X12274810Y-12232640D02*
X12354810Y-12232640D01*
X13262800Y-12964800D02*
X13262800Y-13044800D01*
X13222800Y-13004800D02*
X13302800Y-13004800D01*
X13266738Y-13739500D02*
X13266738Y-13819500D01*
X13226738Y-13779500D02*
X13306738Y-13779500D01*
X13512800Y-12964800D02*
X13512800Y-13044800D01*
X13472800Y-13004800D02*
X13552800Y-13004800D01*
X13516738Y-13739500D02*
X13516738Y-13819500D01*
X13476738Y-13779500D02*
X13556738Y-13779500D01*
X17134140Y-7188650D02*
X17134140Y-7268650D01*
X17094140Y-7228650D02*
X17174140Y-7228650D01*
X17329340Y-11405050D02*
X17329340Y-11485050D01*
X17289340Y-11445050D02*
X17369340Y-11445050D01*
X17329340Y-11659050D02*
X17329340Y-11739050D01*
X17289340Y-11699050D02*
X17369340Y-11699050D01*
X17329340Y-11913050D02*
X17329340Y-11993050D01*
X17289340Y-11953050D02*
X17369340Y-11953050D01*
X17634140Y-7188650D02*
X17634140Y-7268650D01*
X17594140Y-7228650D02*
X17674140Y-7228650D01*
X17940400Y-7188840D02*
X17940400Y-7268840D01*
X17900400Y-7228840D02*
X17980400Y-7228840D01*
X18040540Y-11406050D02*
X18040540Y-11486050D01*
X18000540Y-11446050D02*
X18080540Y-11446050D01*
X18040540Y-11660050D02*
X18040540Y-11740050D01*
X18000540Y-11700050D02*
X18080540Y-11700050D01*
X18040540Y-11914050D02*
X18040540Y-11994050D01*
X18000540Y-11954050D02*
X18080540Y-11954050D01*
X18247740Y-8915850D02*
X18247740Y-8995850D01*
X18207740Y-8955850D02*
X18287740Y-8955850D01*
X18247740Y-9779450D02*
X18247740Y-9859450D01*
X18207740Y-9819450D02*
X18287740Y-9819450D01*
X18247740Y-10643050D02*
X18247740Y-10723050D01*
X18207740Y-10683050D02*
X18287740Y-10683050D01*
X18440400Y-7188840D02*
X18440400Y-7268840D01*
X18400400Y-7228840D02*
X18480400Y-7228840D01*
X18497740Y-8915850D02*
X18497740Y-8995850D01*
X18457740Y-8955850D02*
X18537740Y-8955850D01*
X18497740Y-9779450D02*
X18497740Y-9859450D01*
X18457740Y-9819450D02*
X18537740Y-9819450D01*
X18497740Y-10643050D02*
X18497740Y-10723050D01*
X18457740Y-10683050D02*
X18537740Y-10683050D01*
X18751740Y-11405050D02*
X18751740Y-11485050D01*
X18711740Y-11445050D02*
X18791740Y-11445050D01*
X18751740Y-11659050D02*
X18751740Y-11739050D01*
X18711740Y-11699050D02*
X18791740Y-11699050D01*
X18751740Y-11913050D02*
X18751740Y-11993050D01*
X18711740Y-11953050D02*
X18791740Y-11953050D01*
X19310540Y-7391850D02*
X19310540Y-7471850D01*
X19270540Y-7431850D02*
X19350540Y-7431850D01*
X19310540Y-8712650D02*
X19310540Y-8792650D01*
X19270540Y-8752650D02*
X19350540Y-8752650D01*
X19310540Y-10033450D02*
X19310540Y-10113450D01*
X19270540Y-10073450D02*
X19350540Y-10073450D01*
X19310540Y-11354250D02*
X19310540Y-11434250D01*
X19270540Y-11394250D02*
X19350540Y-11394250D01*
X19810540Y-7391850D02*
X19810540Y-7471850D01*
X19770540Y-7431850D02*
X19850540Y-7431850D01*
X19810540Y-8712650D02*
X19810540Y-8792650D01*
X19770540Y-8752650D02*
X19850540Y-8752650D01*
X19810540Y-10033450D02*
X19810540Y-10113450D01*
X19770540Y-10073450D02*
X19850540Y-10073450D01*
X19810540Y-11354250D02*
X19810540Y-11434250D01*
X19770540Y-11394250D02*
X19850540Y-11394250D01*
X20123340Y-12167050D02*
X20123340Y-12247050D01*
X20083340Y-12207050D02*
X20163340Y-12207050D01*
X20373340Y-12167050D02*
X20373340Y-12247050D01*
X20333340Y-12207050D02*
X20413340Y-12207050D01*
D15*
X6643356Y-5877356D02*
X6643356Y-5806644D01*
X6572644Y-5806644D01*
X6572644Y-5877356D01*
X6643356Y-5877356D01*
X6643356Y-11592356D02*
X6643356Y-11521644D01*
X6572644Y-11521644D01*
X6572644Y-11592356D01*
X6643356Y-11592356D01*
X6893356Y-5877356D02*
X6893356Y-5806644D01*
X6822644Y-5806644D01*
X6822644Y-5877356D01*
X6893356Y-5877356D01*
X6893356Y-11592356D02*
X6893356Y-11521644D01*
X6822644Y-11521644D01*
X6822644Y-11592356D01*
X6893356Y-11592356D01*
X7143356Y-5877356D02*
X7143356Y-5806644D01*
X7072644Y-5806644D01*
X7072644Y-5877356D01*
X7143356Y-5877356D01*
X7143356Y-11592356D02*
X7143356Y-11521644D01*
X7072644Y-11521644D01*
X7072644Y-11592356D01*
X7143356Y-11592356D01*
X7972856Y-5178856D02*
X7972856Y-5108144D01*
X7902144Y-5108144D01*
X7902144Y-5178856D01*
X7972856Y-5178856D01*
X8544356Y-12036856D02*
X8544356Y-11966144D01*
X8473644Y-11966144D01*
X8473644Y-12036856D01*
X8544356Y-12036856D01*
X8544356Y-13179856D02*
X8544356Y-13109144D01*
X8473644Y-13109144D01*
X8473644Y-13179856D01*
X8544356Y-13179856D01*
X8544356Y-14322856D02*
X8544356Y-14252144D01*
X8473644Y-14252144D01*
X8473644Y-14322856D01*
X8544356Y-14322856D01*
X9052356Y-5178856D02*
X9052356Y-5108144D01*
X8981644Y-5108144D01*
X8981644Y-5178856D01*
X9052356Y-5178856D01*
X11338356Y-13687856D02*
X11338356Y-13617144D01*
X11267644Y-13617144D01*
X11267644Y-13687856D01*
X11338356Y-13687856D01*
X11338356Y-13941856D02*
X11338356Y-13871144D01*
X11267644Y-13871144D01*
X11267644Y-13941856D01*
X11338356Y-13941856D01*
X11592356Y-13687856D02*
X11592356Y-13617144D01*
X11521644Y-13617144D01*
X11521644Y-13687856D01*
X11592356Y-13687856D01*
X11592356Y-13941856D02*
X11592356Y-13871144D01*
X11521644Y-13871144D01*
X11521644Y-13941856D01*
X11592356Y-13941856D01*
X11846356Y-13687856D02*
X11846356Y-13617144D01*
X11775644Y-13617144D01*
X11775644Y-13687856D01*
X11846356Y-13687856D01*
X11846356Y-13941856D02*
X11846356Y-13871144D01*
X11775644Y-13871144D01*
X11775644Y-13941856D01*
X11846356Y-13941856D01*
X12100356Y-13687856D02*
X12100356Y-13617144D01*
X12029644Y-13617144D01*
X12029644Y-13687856D01*
X12100356Y-13687856D01*
X12100356Y-13941856D02*
X12100356Y-13871144D01*
X12029644Y-13871144D01*
X12029644Y-13941856D01*
X12100356Y-13941856D01*
X12354356Y-13687856D02*
X12354356Y-13617144D01*
X12283644Y-13617144D01*
X12283644Y-13687856D01*
X12354356Y-13687856D01*
X12354356Y-13941856D02*
X12354356Y-13871144D01*
X12283644Y-13871144D01*
X12283644Y-13941856D01*
X12354356Y-13941856D01*
X14263356Y-8734856D02*
X14263356Y-8664144D01*
X14192644Y-8664144D01*
X14192644Y-8734856D01*
X14263356Y-8734856D01*
X14263356Y-14449856D02*
X14263356Y-14379144D01*
X14192644Y-14379144D01*
X14192644Y-14449856D01*
X14263356Y-14449856D01*
X14513356Y-8734856D02*
X14513356Y-8664144D01*
X14442644Y-8664144D01*
X14442644Y-8734856D01*
X14513356Y-8734856D01*
X14513356Y-14449856D02*
X14513356Y-14379144D01*
X14442644Y-14379144D01*
X14442644Y-14449856D01*
X14513356Y-14449856D01*
X14763356Y-8734856D02*
X14763356Y-8664144D01*
X14692644Y-8664144D01*
X14692644Y-8734856D01*
X14763356Y-8734856D01*
X14763356Y-14449856D02*
X14763356Y-14379144D01*
X14692644Y-14379144D01*
X14692644Y-14449856D01*
X14763356Y-14449856D01*
X16037356Y-5178856D02*
X16037356Y-5108144D01*
X15966644Y-5108144D01*
X15966644Y-5178856D01*
X16037356Y-5178856D01*
X17116856Y-5178856D02*
X17116856Y-5108144D01*
X17046144Y-5108144D01*
X17046144Y-5178856D01*
X17116856Y-5178856D01*
X21053856Y-12036856D02*
X21053856Y-11966144D01*
X20983144Y-11966144D01*
X20983144Y-12036856D01*
X21053856Y-12036856D01*
X21053856Y-13179856D02*
X21053856Y-13109144D01*
X20983144Y-13109144D01*
X20983144Y-13179856D01*
X21053856Y-13179856D01*
X21053856Y-14322856D02*
X21053856Y-14252144D01*
X20983144Y-14252144D01*
X20983144Y-14322856D01*
X21053856Y-14322856D01*
X21883356Y-5877356D02*
X21883356Y-5806644D01*
X21812644Y-5806644D01*
X21812644Y-5877356D01*
X21883356Y-5877356D01*
X21883356Y-11592356D02*
X21883356Y-11521644D01*
X21812644Y-11521644D01*
X21812644Y-11592356D01*
X21883356Y-11592356D01*
X22133356Y-5877356D02*
X22133356Y-5806644D01*
X22062644Y-5806644D01*
X22062644Y-5877356D01*
X22133356Y-5877356D01*
X22133356Y-11592356D02*
X22133356Y-11521644D01*
X22062644Y-11521644D01*
X22062644Y-11592356D01*
X22133356Y-11592356D01*
X22383356Y-5877356D02*
X22383356Y-5806644D01*
X22312644Y-5806644D01*
X22312644Y-5877356D01*
X22383356Y-5877356D01*
X22383356Y-11592356D02*
X22383356Y-11521644D01*
X22312644Y-11521644D01*
X22312644Y-11592356D01*
X22383356Y-11592356D01*
D16*
X6378000Y-5147000D02*
X6433000Y-5092000D01*
X6378000Y-5037000D01*
X6323000Y-5092000D01*
X6378000Y-5147000D01*
D11*
X6423000Y-5127000D02*
X6423000Y-5057000D01*
X6333000Y-5127000D02*
X6333000Y-5057000D01*
X6423000Y-5057000D02*
G75*
G03*
X6333000Y-5057000I-45000J0D01*
G01*
X6333000Y-5127000D02*
G75*
G03*
X6423000Y-5127000I45000J0D01*
G01*
D16*
X6378000Y-10862000D02*
X6433000Y-10807000D01*
X6378000Y-10752000D01*
X6323000Y-10807000D01*
X6378000Y-10862000D01*
D11*
X6423000Y-10842000D02*
X6423000Y-10772000D01*
X6333000Y-10842000D02*
X6333000Y-10772000D01*
X6423000Y-10772000D02*
G75*
G03*
X6333000Y-10772000I-45000J0D01*
G01*
X6333000Y-10842000D02*
G75*
G03*
X6423000Y-10842000I45000J0D01*
G01*
D16*
X7338000Y-5147000D02*
X7393000Y-5092000D01*
X7338000Y-5037000D01*
X7283000Y-5092000D01*
X7338000Y-5147000D01*
D11*
X7383000Y-5127000D02*
X7383000Y-5057000D01*
X7293000Y-5127000D02*
X7293000Y-5057000D01*
X7383000Y-5057000D02*
G75*
G03*
X7293000Y-5057000I-45000J0D01*
G01*
X7293000Y-5127000D02*
G75*
G03*
X7383000Y-5127000I45000J0D01*
G01*
D16*
X7338000Y-10862000D02*
X7393000Y-10807000D01*
X7338000Y-10752000D01*
X7283000Y-10807000D01*
X7338000Y-10862000D01*
D11*
X7383000Y-10842000D02*
X7383000Y-10772000D01*
X7293000Y-10842000D02*
X7293000Y-10772000D01*
X7383000Y-10772000D02*
G75*
G03*
X7293000Y-10772000I-45000J0D01*
G01*
X7293000Y-10842000D02*
G75*
G03*
X7383000Y-10842000I45000J0D01*
G01*
D16*
X13998000Y-8004500D02*
X14053000Y-7949500D01*
X13998000Y-7894500D01*
X13943000Y-7949500D01*
X13998000Y-8004500D01*
D11*
X14043000Y-7984500D02*
X14043000Y-7914500D01*
X13953000Y-7984500D02*
X13953000Y-7914500D01*
X14043000Y-7914500D02*
G75*
G03*
X13953000Y-7914500I-45000J0D01*
G01*
X13953000Y-7984500D02*
G75*
G03*
X14043000Y-7984500I45000J0D01*
G01*
D16*
X13998000Y-13719500D02*
X14053000Y-13664500D01*
X13998000Y-13609500D01*
X13943000Y-13664500D01*
X13998000Y-13719500D01*
D11*
X14043000Y-13699500D02*
X14043000Y-13629500D01*
X13953000Y-13699500D02*
X13953000Y-13629500D01*
X14043000Y-13629500D02*
G75*
G03*
X13953000Y-13629500I-45000J0D01*
G01*
X13953000Y-13699500D02*
G75*
G03*
X14043000Y-13699500I45000J0D01*
G01*
D16*
X14958000Y-8004500D02*
X15013000Y-7949500D01*
X14958000Y-7894500D01*
X14903000Y-7949500D01*
X14958000Y-8004500D01*
D11*
X15003000Y-7984500D02*
X15003000Y-7914500D01*
X14913000Y-7984500D02*
X14913000Y-7914500D01*
X15003000Y-7914500D02*
G75*
G03*
X14913000Y-7914500I-45000J0D01*
G01*
X14913000Y-7984500D02*
G75*
G03*
X15003000Y-7984500I45000J0D01*
G01*
D16*
X14958000Y-13719500D02*
X15013000Y-13664500D01*
X14958000Y-13609500D01*
X14903000Y-13664500D01*
X14958000Y-13719500D01*
D11*
X15003000Y-13699500D02*
X15003000Y-13629500D01*
X14913000Y-13699500D02*
X14913000Y-13629500D01*
X15003000Y-13629500D02*
G75*
G03*
X14913000Y-13629500I-45000J0D01*
G01*
X14913000Y-13699500D02*
G75*
G03*
X15003000Y-13699500I45000J0D01*
G01*
D16*
X21618000Y-5147000D02*
X21673000Y-5092000D01*
X21618000Y-5037000D01*
X21563000Y-5092000D01*
X21618000Y-5147000D01*
D11*
X21663000Y-5127000D02*
X21663000Y-5057000D01*
X21573000Y-5127000D02*
X21573000Y-5057000D01*
X21663000Y-5057000D02*
G75*
G03*
X21573000Y-5057000I-45000J0D01*
G01*
X21573000Y-5127000D02*
G75*
G03*
X21663000Y-5127000I45000J0D01*
G01*
D16*
X21618000Y-10862000D02*
X21673000Y-10807000D01*
X21618000Y-10752000D01*
X21563000Y-10807000D01*
X21618000Y-10862000D01*
D11*
X21663000Y-10842000D02*
X21663000Y-10772000D01*
X21573000Y-10842000D02*
X21573000Y-10772000D01*
X21663000Y-10772000D02*
G75*
G03*
X21573000Y-10772000I-45000J0D01*
G01*
X21573000Y-10842000D02*
G75*
G03*
X21663000Y-10842000I45000J0D01*
G01*
D16*
X22578000Y-5147000D02*
X22633000Y-5092000D01*
X22578000Y-5037000D01*
X22523000Y-5092000D01*
X22578000Y-5147000D01*
D11*
X22623000Y-5127000D02*
X22623000Y-5057000D01*
X22533000Y-5127000D02*
X22533000Y-5057000D01*
X22623000Y-5057000D02*
G75*
G03*
X22533000Y-5057000I-45000J0D01*
G01*
X22533000Y-5127000D02*
G75*
G03*
X22623000Y-5127000I45000J0D01*
G01*
D16*
X22578000Y-10862000D02*
X22633000Y-10807000D01*
X22578000Y-10752000D01*
X22523000Y-10807000D01*
X22578000Y-10862000D01*
D11*
X22623000Y-10842000D02*
X22623000Y-10772000D01*
X22533000Y-10842000D02*
X22533000Y-10772000D01*
X22623000Y-10772000D02*
G75*
G03*
X22533000Y-10772000I-45000J0D01*
G01*
X22533000Y-10842000D02*
G75*
G03*
X22623000Y-10842000I45000J0D01*
G01*
D17*
X6671500Y-6989000D02*
X6790500Y-7108000D01*
X6790500Y-6989000D02*
X6671500Y-7108000D01*
X6790500Y-7048500D02*
G75*
G03*
X6790500Y-7048500I-59500J0D01*
G01*
X6671500Y-7243000D02*
X6790500Y-7362000D01*
X6790500Y-7243000D02*
X6671500Y-7362000D01*
X6790500Y-7302500D02*
G75*
G03*
X6790500Y-7302500I-59500J0D01*
G01*
X6671500Y-7497000D02*
X6790500Y-7616000D01*
X6790500Y-7497000D02*
X6671500Y-7616000D01*
X6790500Y-7556500D02*
G75*
G03*
X6790500Y-7556500I-59500J0D01*
G01*
X6671500Y-7751000D02*
X6790500Y-7870000D01*
X6790500Y-7751000D02*
X6671500Y-7870000D01*
X6790500Y-7810500D02*
G75*
G03*
X6790500Y-7810500I-59500J0D01*
G01*
X6671500Y-8005000D02*
X6790500Y-8124000D01*
X6790500Y-8005000D02*
X6671500Y-8124000D01*
X6790500Y-8064500D02*
G75*
G03*
X6790500Y-8064500I-59500J0D01*
G01*
X6671500Y-8830500D02*
X6790500Y-8949500D01*
X6790500Y-8830500D02*
X6671500Y-8949500D01*
X6790500Y-8890000D02*
G75*
G03*
X6790500Y-8890000I-59500J0D01*
G01*
X6671500Y-9084500D02*
X6790500Y-9203500D01*
X6790500Y-9084500D02*
X6671500Y-9203500D01*
X6790500Y-9144000D02*
G75*
G03*
X6790500Y-9144000I-59500J0D01*
G01*
X6671500Y-9338500D02*
X6790500Y-9457500D01*
X6790500Y-9338500D02*
X6671500Y-9457500D01*
X6790500Y-9398000D02*
G75*
G03*
X6790500Y-9398000I-59500J0D01*
G01*
X6671500Y-9592500D02*
X6790500Y-9711500D01*
X6790500Y-9592500D02*
X6671500Y-9711500D01*
X6790500Y-9652000D02*
G75*
G03*
X6790500Y-9652000I-59500J0D01*
G01*
X15815500Y-13974000D02*
X15934500Y-14093000D01*
X15934500Y-13974000D02*
X15815500Y-14093000D01*
X15934500Y-14033500D02*
G75*
G03*
X15934500Y-14033500I-59500J0D01*
G01*
X16069500Y-13974000D02*
X16188500Y-14093000D01*
X16188500Y-13974000D02*
X16069500Y-14093000D01*
X16188500Y-14033500D02*
G75*
G03*
X16188500Y-14033500I-59500J0D01*
G01*
X16323500Y-13974000D02*
X16442500Y-14093000D01*
X16442500Y-13974000D02*
X16323500Y-14093000D01*
X16442500Y-14033500D02*
G75*
G03*
X16442500Y-14033500I-59500J0D01*
G01*
X22165500Y-12005500D02*
X22284500Y-12124500D01*
X22284500Y-12005500D02*
X22165500Y-12124500D01*
X22284500Y-12065000D02*
G75*
G03*
X22284500Y-12065000I-59500J0D01*
G01*
X22165500Y-12259500D02*
X22284500Y-12378500D01*
X22284500Y-12259500D02*
X22165500Y-12378500D01*
X22284500Y-12319000D02*
G75*
G03*
X22284500Y-12319000I-59500J0D01*
G01*
X22165500Y-12513500D02*
X22284500Y-12632500D01*
X22284500Y-12513500D02*
X22165500Y-12632500D01*
X22284500Y-12573000D02*
G75*
G03*
X22284500Y-12573000I-59500J0D01*
G01*
X22165500Y-12767500D02*
X22284500Y-12886500D01*
X22284500Y-12767500D02*
X22165500Y-12886500D01*
X22284500Y-12827000D02*
G75*
G03*
X22284500Y-12827000I-59500J0D01*
G01*
X22165500Y-13021500D02*
X22284500Y-13140500D01*
X22284500Y-13021500D02*
X22165500Y-13140500D01*
X22284500Y-13081000D02*
G75*
G03*
X22284500Y-13081000I-59500J0D01*
G01*
X22165500Y-13275500D02*
X22284500Y-13394500D01*
X22284500Y-13275500D02*
X22165500Y-13394500D01*
X22284500Y-13335000D02*
G75*
G03*
X22284500Y-13335000I-59500J0D01*
G01*
X22165500Y-13529500D02*
X22284500Y-13648500D01*
X22284500Y-13529500D02*
X22165500Y-13648500D01*
X22284500Y-13589000D02*
G75*
G03*
X22284500Y-13589000I-59500J0D01*
G01*
X22165500Y-13783500D02*
X22284500Y-13902500D01*
X22284500Y-13783500D02*
X22165500Y-13902500D01*
X22284500Y-13843000D02*
G75*
G03*
X22284500Y-13843000I-59500J0D01*
G01*
D11*
X6348619Y-14920476D02*
X6348619Y-14720476D01*
X6396238Y-14720476D01*
X6424809Y-14730000D01*
X6443857Y-14749048D01*
X6453381Y-14768095D01*
X6462905Y-14806190D01*
X6462905Y-14834762D01*
X6453381Y-14872857D01*
X6443857Y-14891905D01*
X6424809Y-14910952D01*
X6396238Y-14920476D01*
X6348619Y-14920476D01*
X6548619Y-14920476D02*
X6548619Y-14787143D01*
X6548619Y-14825238D02*
X6558143Y-14806190D01*
X6567667Y-14796667D01*
X6586714Y-14787143D01*
X6605762Y-14787143D01*
X6672428Y-14920476D02*
X6672428Y-14787143D01*
X6672428Y-14720476D02*
X6662905Y-14730000D01*
X6672428Y-14739524D01*
X6681952Y-14730000D01*
X6672428Y-14720476D01*
X6672428Y-14739524D01*
X6796238Y-14920476D02*
X6777190Y-14910952D01*
X6767667Y-14891905D01*
X6767667Y-14720476D01*
X6901000Y-14920476D02*
X6881952Y-14910952D01*
X6872428Y-14891905D01*
X6872428Y-14720476D01*
X7129571Y-14920476D02*
X7129571Y-14720476D01*
X7196238Y-14863333D01*
X7262905Y-14720476D01*
X7262905Y-14920476D01*
X7443857Y-14920476D02*
X7443857Y-14815714D01*
X7434333Y-14796667D01*
X7415286Y-14787143D01*
X7377190Y-14787143D01*
X7358143Y-14796667D01*
X7443857Y-14910952D02*
X7424809Y-14920476D01*
X7377190Y-14920476D01*
X7358143Y-14910952D01*
X7348619Y-14891905D01*
X7348619Y-14872857D01*
X7358143Y-14853809D01*
X7377190Y-14844286D01*
X7424809Y-14844286D01*
X7443857Y-14834762D01*
X7539095Y-14787143D02*
X7539095Y-14987143D01*
X7539095Y-14796667D02*
X7558143Y-14787143D01*
X7596238Y-14787143D01*
X7615286Y-14796667D01*
X7624809Y-14806190D01*
X7634333Y-14825238D01*
X7634333Y-14882381D01*
X7624809Y-14901428D01*
X7615286Y-14910952D01*
X7596238Y-14920476D01*
X7558143Y-14920476D01*
X7539095Y-14910952D01*
X7720048Y-14901428D02*
X7729571Y-14910952D01*
X7720048Y-14920476D01*
X7710524Y-14910952D01*
X7720048Y-14901428D01*
X7720048Y-14920476D01*
X7720048Y-14796667D02*
X7729571Y-14806190D01*
X7720048Y-14815714D01*
X7710524Y-14806190D01*
X7720048Y-14796667D01*
X7720048Y-14815714D01*
D12*
X6051000Y-15230000D02*
X6091000Y-15270000D01*
X6091000Y-15230000D02*
X6051000Y-15270000D01*
D11*
X6386714Y-15140476D02*
X6405762Y-15140476D01*
X6424809Y-15150000D01*
X6434333Y-15159524D01*
X6443857Y-15178571D01*
X6453381Y-15216667D01*
X6453381Y-15264286D01*
X6443857Y-15302381D01*
X6434333Y-15321428D01*
X6424809Y-15330952D01*
X6405762Y-15340476D01*
X6386714Y-15340476D01*
X6367667Y-15330952D01*
X6358143Y-15321428D01*
X6348619Y-15302381D01*
X6339095Y-15264286D01*
X6339095Y-15216667D01*
X6348619Y-15178571D01*
X6358143Y-15159524D01*
X6367667Y-15150000D01*
X6386714Y-15140476D01*
X6539095Y-15321428D02*
X6548619Y-15330952D01*
X6539095Y-15340476D01*
X6529571Y-15330952D01*
X6539095Y-15321428D01*
X6539095Y-15340476D01*
X6720048Y-15207143D02*
X6720048Y-15340476D01*
X6672428Y-15130952D02*
X6624809Y-15273809D01*
X6748619Y-15273809D01*
X6862905Y-15140476D02*
X6881952Y-15140476D01*
X6901000Y-15150000D01*
X6910524Y-15159524D01*
X6920048Y-15178571D01*
X6929571Y-15216667D01*
X6929571Y-15264286D01*
X6920048Y-15302381D01*
X6910524Y-15321428D01*
X6901000Y-15330952D01*
X6881952Y-15340476D01*
X6862905Y-15340476D01*
X6843857Y-15330952D01*
X6834333Y-15321428D01*
X6824809Y-15302381D01*
X6815286Y-15264286D01*
X6815286Y-15216667D01*
X6824809Y-15178571D01*
X6834333Y-15159524D01*
X6843857Y-15150000D01*
X6862905Y-15140476D01*
X7053381Y-15140476D02*
X7072428Y-15140476D01*
X7091476Y-15150000D01*
X7101000Y-15159524D01*
X7110524Y-15178571D01*
X7120048Y-15216667D01*
X7120048Y-15264286D01*
X7110524Y-15302381D01*
X7101000Y-15321428D01*
X7091476Y-15330952D01*
X7072428Y-15340476D01*
X7053381Y-15340476D01*
X7034333Y-15330952D01*
X7024809Y-15321428D01*
X7015286Y-15302381D01*
X7005762Y-15264286D01*
X7005762Y-15216667D01*
X7015286Y-15178571D01*
X7024809Y-15159524D01*
X7034333Y-15150000D01*
X7053381Y-15140476D01*
X7205762Y-15340476D02*
X7205762Y-15207143D01*
X7205762Y-15226190D02*
X7215286Y-15216667D01*
X7234333Y-15207143D01*
X7262905Y-15207143D01*
X7281952Y-15216667D01*
X7291476Y-15235714D01*
X7291476Y-15340476D01*
X7291476Y-15235714D02*
X7301000Y-15216667D01*
X7320048Y-15207143D01*
X7348619Y-15207143D01*
X7367667Y-15216667D01*
X7377190Y-15235714D01*
X7377190Y-15340476D01*
X7472428Y-15340476D02*
X7472428Y-15207143D01*
X7472428Y-15226190D02*
X7481952Y-15216667D01*
X7501000Y-15207143D01*
X7529571Y-15207143D01*
X7548619Y-15216667D01*
X7558143Y-15235714D01*
X7558143Y-15340476D01*
X7558143Y-15235714D02*
X7567667Y-15216667D01*
X7586714Y-15207143D01*
X7615286Y-15207143D01*
X7634333Y-15216667D01*
X7643857Y-15235714D01*
X7643857Y-15340476D01*
X8034333Y-15130952D02*
X7862905Y-15388095D01*
X8291476Y-15140476D02*
X8310524Y-15140476D01*
X8329571Y-15150000D01*
X8339095Y-15159524D01*
X8348619Y-15178571D01*
X8358143Y-15216667D01*
X8358143Y-15264286D01*
X8348619Y-15302381D01*
X8339095Y-15321428D01*
X8329571Y-15330952D01*
X8310524Y-15340476D01*
X8291476Y-15340476D01*
X8272428Y-15330952D01*
X8262905Y-15321428D01*
X8253381Y-15302381D01*
X8243857Y-15264286D01*
X8243857Y-15216667D01*
X8253381Y-15178571D01*
X8262905Y-15159524D01*
X8272428Y-15150000D01*
X8291476Y-15140476D01*
X8443857Y-15321428D02*
X8453381Y-15330952D01*
X8443857Y-15340476D01*
X8434333Y-15330952D01*
X8443857Y-15321428D01*
X8443857Y-15340476D01*
X8577190Y-15140476D02*
X8596238Y-15140476D01*
X8615286Y-15150000D01*
X8624810Y-15159524D01*
X8634333Y-15178571D01*
X8643857Y-15216667D01*
X8643857Y-15264286D01*
X8634333Y-15302381D01*
X8624810Y-15321428D01*
X8615286Y-15330952D01*
X8596238Y-15340476D01*
X8577190Y-15340476D01*
X8558143Y-15330952D01*
X8548619Y-15321428D01*
X8539095Y-15302381D01*
X8529571Y-15264286D01*
X8529571Y-15216667D01*
X8539095Y-15178571D01*
X8548619Y-15159524D01*
X8558143Y-15150000D01*
X8577190Y-15140476D01*
X8834333Y-15340476D02*
X8720048Y-15340476D01*
X8777190Y-15340476D02*
X8777190Y-15140476D01*
X8758143Y-15169048D01*
X8739095Y-15188095D01*
X8720048Y-15197619D01*
X9015286Y-15140476D02*
X8920048Y-15140476D01*
X8910524Y-15235714D01*
X8920048Y-15226190D01*
X8939095Y-15216667D01*
X8986714Y-15216667D01*
X9005762Y-15226190D01*
X9015286Y-15235714D01*
X9024810Y-15254762D01*
X9024810Y-15302381D01*
X9015286Y-15321428D01*
X9005762Y-15330952D01*
X8986714Y-15340476D01*
X8939095Y-15340476D01*
X8920048Y-15330952D01*
X8910524Y-15321428D01*
X9091476Y-15140476D02*
X9224810Y-15140476D01*
X9139095Y-15340476D01*
X9291476Y-15140476D02*
X9291476Y-15178571D01*
X9367667Y-15140476D02*
X9367667Y-15178571D01*
X9662905Y-15416667D02*
X9653381Y-15407143D01*
X9634333Y-15378571D01*
X9624810Y-15359524D01*
X9615286Y-15330952D01*
X9605762Y-15283333D01*
X9605762Y-15245238D01*
X9615286Y-15197619D01*
X9624810Y-15169048D01*
X9634333Y-15150000D01*
X9653381Y-15121428D01*
X9662905Y-15111905D01*
X9843857Y-15340476D02*
X9729571Y-15340476D01*
X9786714Y-15340476D02*
X9786714Y-15140476D01*
X9767667Y-15169048D01*
X9748619Y-15188095D01*
X9729571Y-15197619D01*
X10015286Y-15207143D02*
X10015286Y-15340476D01*
X9967667Y-15130952D02*
X9920048Y-15273809D01*
X10043857Y-15273809D01*
X10101000Y-15140476D02*
X10234333Y-15140476D01*
X10148619Y-15340476D01*
X10462905Y-15340476D02*
X10462905Y-15140476D01*
X10548619Y-15340476D02*
X10548619Y-15235714D01*
X10539095Y-15216667D01*
X10520048Y-15207143D01*
X10491476Y-15207143D01*
X10472429Y-15216667D01*
X10462905Y-15226190D01*
X10672429Y-15340476D02*
X10653381Y-15330952D01*
X10643857Y-15321428D01*
X10634333Y-15302381D01*
X10634333Y-15245238D01*
X10643857Y-15226190D01*
X10653381Y-15216667D01*
X10672429Y-15207143D01*
X10701000Y-15207143D01*
X10720048Y-15216667D01*
X10729571Y-15226190D01*
X10739095Y-15245238D01*
X10739095Y-15302381D01*
X10729571Y-15321428D01*
X10720048Y-15330952D01*
X10701000Y-15340476D01*
X10672429Y-15340476D01*
X10853381Y-15340476D02*
X10834333Y-15330952D01*
X10824810Y-15311905D01*
X10824810Y-15140476D01*
X11005762Y-15330952D02*
X10986714Y-15340476D01*
X10948619Y-15340476D01*
X10929571Y-15330952D01*
X10920048Y-15311905D01*
X10920048Y-15235714D01*
X10929571Y-15216667D01*
X10948619Y-15207143D01*
X10986714Y-15207143D01*
X11005762Y-15216667D01*
X11015286Y-15235714D01*
X11015286Y-15254762D01*
X10920048Y-15273809D01*
X11091476Y-15330952D02*
X11110524Y-15340476D01*
X11148619Y-15340476D01*
X11167667Y-15330952D01*
X11177190Y-15311905D01*
X11177190Y-15302381D01*
X11167667Y-15283333D01*
X11148619Y-15273809D01*
X11120048Y-15273809D01*
X11101000Y-15264286D01*
X11091476Y-15245238D01*
X11091476Y-15235714D01*
X11101000Y-15216667D01*
X11120048Y-15207143D01*
X11148619Y-15207143D01*
X11167667Y-15216667D01*
X11243857Y-15416667D02*
X11253381Y-15407143D01*
X11272428Y-15378571D01*
X11281952Y-15359524D01*
X11291476Y-15330952D01*
X11301000Y-15283333D01*
X11301000Y-15245238D01*
X11291476Y-15197619D01*
X11281952Y-15169048D01*
X11272428Y-15150000D01*
X11253381Y-15121428D01*
X11243857Y-15111905D01*
D13*
X6091000Y-15514000D02*
G75*
G03*
X6091000Y-15514000I-25000J0D01*
G01*
D11*
X6386714Y-15404476D02*
X6405762Y-15404476D01*
X6424809Y-15414000D01*
X6434333Y-15423524D01*
X6443857Y-15442571D01*
X6453381Y-15480667D01*
X6453381Y-15528286D01*
X6443857Y-15566381D01*
X6434333Y-15585428D01*
X6424809Y-15594952D01*
X6405762Y-15604476D01*
X6386714Y-15604476D01*
X6367667Y-15594952D01*
X6358143Y-15585428D01*
X6348619Y-15566381D01*
X6339095Y-15528286D01*
X6339095Y-15480667D01*
X6348619Y-15442571D01*
X6358143Y-15423524D01*
X6367667Y-15414000D01*
X6386714Y-15404476D01*
X6539095Y-15585428D02*
X6548619Y-15594952D01*
X6539095Y-15604476D01*
X6529571Y-15594952D01*
X6539095Y-15585428D01*
X6539095Y-15604476D01*
X6729571Y-15404476D02*
X6634333Y-15404476D01*
X6624809Y-15499714D01*
X6634333Y-15490190D01*
X6653381Y-15480667D01*
X6701000Y-15480667D01*
X6720048Y-15490190D01*
X6729571Y-15499714D01*
X6739095Y-15518762D01*
X6739095Y-15566381D01*
X6729571Y-15585428D01*
X6720048Y-15594952D01*
X6701000Y-15604476D01*
X6653381Y-15604476D01*
X6634333Y-15594952D01*
X6624809Y-15585428D01*
X6862905Y-15404476D02*
X6881952Y-15404476D01*
X6901000Y-15414000D01*
X6910524Y-15423524D01*
X6920048Y-15442571D01*
X6929571Y-15480667D01*
X6929571Y-15528286D01*
X6920048Y-15566381D01*
X6910524Y-15585428D01*
X6901000Y-15594952D01*
X6881952Y-15604476D01*
X6862905Y-15604476D01*
X6843857Y-15594952D01*
X6834333Y-15585428D01*
X6824809Y-15566381D01*
X6815286Y-15528286D01*
X6815286Y-15480667D01*
X6824809Y-15442571D01*
X6834333Y-15423524D01*
X6843857Y-15414000D01*
X6862905Y-15404476D01*
X7053381Y-15404476D02*
X7072428Y-15404476D01*
X7091476Y-15414000D01*
X7101000Y-15423524D01*
X7110524Y-15442571D01*
X7120048Y-15480667D01*
X7120048Y-15528286D01*
X7110524Y-15566381D01*
X7101000Y-15585428D01*
X7091476Y-15594952D01*
X7072428Y-15604476D01*
X7053381Y-15604476D01*
X7034333Y-15594952D01*
X7024809Y-15585428D01*
X7015286Y-15566381D01*
X7005762Y-15528286D01*
X7005762Y-15480667D01*
X7015286Y-15442571D01*
X7024809Y-15423524D01*
X7034333Y-15414000D01*
X7053381Y-15404476D01*
X7205762Y-15604476D02*
X7205762Y-15471143D01*
X7205762Y-15490190D02*
X7215286Y-15480667D01*
X7234333Y-15471143D01*
X7262905Y-15471143D01*
X7281952Y-15480667D01*
X7291476Y-15499714D01*
X7291476Y-15604476D01*
X7291476Y-15499714D02*
X7301000Y-15480667D01*
X7320048Y-15471143D01*
X7348619Y-15471143D01*
X7367667Y-15480667D01*
X7377190Y-15499714D01*
X7377190Y-15604476D01*
X7472428Y-15604476D02*
X7472428Y-15471143D01*
X7472428Y-15490190D02*
X7481952Y-15480667D01*
X7501000Y-15471143D01*
X7529571Y-15471143D01*
X7548619Y-15480667D01*
X7558143Y-15499714D01*
X7558143Y-15604476D01*
X7558143Y-15499714D02*
X7567667Y-15480667D01*
X7586714Y-15471143D01*
X7615286Y-15471143D01*
X7634333Y-15480667D01*
X7643857Y-15499714D01*
X7643857Y-15604476D01*
X8034333Y-15394952D02*
X7862905Y-15652095D01*
X8291476Y-15404476D02*
X8310524Y-15404476D01*
X8329571Y-15414000D01*
X8339095Y-15423524D01*
X8348619Y-15442571D01*
X8358143Y-15480667D01*
X8358143Y-15528286D01*
X8348619Y-15566381D01*
X8339095Y-15585428D01*
X8329571Y-15594952D01*
X8310524Y-15604476D01*
X8291476Y-15604476D01*
X8272428Y-15594952D01*
X8262905Y-15585428D01*
X8253381Y-15566381D01*
X8243857Y-15528286D01*
X8243857Y-15480667D01*
X8253381Y-15442571D01*
X8262905Y-15423524D01*
X8272428Y-15414000D01*
X8291476Y-15404476D01*
X8443857Y-15585428D02*
X8453381Y-15594952D01*
X8443857Y-15604476D01*
X8434333Y-15594952D01*
X8443857Y-15585428D01*
X8443857Y-15604476D01*
X8577190Y-15404476D02*
X8596238Y-15404476D01*
X8615286Y-15414000D01*
X8624810Y-15423524D01*
X8634333Y-15442571D01*
X8643857Y-15480667D01*
X8643857Y-15528286D01*
X8634333Y-15566381D01*
X8624810Y-15585428D01*
X8615286Y-15594952D01*
X8596238Y-15604476D01*
X8577190Y-15604476D01*
X8558143Y-15594952D01*
X8548619Y-15585428D01*
X8539095Y-15566381D01*
X8529571Y-15528286D01*
X8529571Y-15480667D01*
X8539095Y-15442571D01*
X8548619Y-15423524D01*
X8558143Y-15414000D01*
X8577190Y-15404476D01*
X8834333Y-15604476D02*
X8720048Y-15604476D01*
X8777190Y-15604476D02*
X8777190Y-15404476D01*
X8758143Y-15433048D01*
X8739095Y-15452095D01*
X8720048Y-15461619D01*
X8929571Y-15604476D02*
X8967667Y-15604476D01*
X8986714Y-15594952D01*
X8996238Y-15585428D01*
X9015286Y-15556857D01*
X9024810Y-15518762D01*
X9024810Y-15442571D01*
X9015286Y-15423524D01*
X9005762Y-15414000D01*
X8986714Y-15404476D01*
X8948619Y-15404476D01*
X8929571Y-15414000D01*
X8920048Y-15423524D01*
X8910524Y-15442571D01*
X8910524Y-15490190D01*
X8920048Y-15509238D01*
X8929571Y-15518762D01*
X8948619Y-15528286D01*
X8986714Y-15528286D01*
X9005762Y-15518762D01*
X9015286Y-15509238D01*
X9024810Y-15490190D01*
X9091476Y-15404476D02*
X9224810Y-15404476D01*
X9139095Y-15604476D01*
X9291476Y-15404476D02*
X9291476Y-15442571D01*
X9367667Y-15404476D02*
X9367667Y-15442571D01*
X9662905Y-15680667D02*
X9653381Y-15671143D01*
X9634333Y-15642571D01*
X9624810Y-15623524D01*
X9615286Y-15594952D01*
X9605762Y-15547333D01*
X9605762Y-15509238D01*
X9615286Y-15461619D01*
X9624810Y-15433048D01*
X9634333Y-15414000D01*
X9653381Y-15385428D01*
X9662905Y-15375905D01*
X9824810Y-15471143D02*
X9824810Y-15604476D01*
X9777190Y-15394952D02*
X9729571Y-15537809D01*
X9853381Y-15537809D01*
X9910524Y-15404476D02*
X10034333Y-15404476D01*
X9967667Y-15480667D01*
X9996238Y-15480667D01*
X10015286Y-15490190D01*
X10024810Y-15499714D01*
X10034333Y-15518762D01*
X10034333Y-15566381D01*
X10024810Y-15585428D01*
X10015286Y-15594952D01*
X9996238Y-15604476D01*
X9939095Y-15604476D01*
X9920048Y-15594952D01*
X9910524Y-15585428D01*
X10272429Y-15604476D02*
X10272429Y-15404476D01*
X10358143Y-15604476D02*
X10358143Y-15499714D01*
X10348619Y-15480667D01*
X10329571Y-15471143D01*
X10301000Y-15471143D01*
X10281952Y-15480667D01*
X10272429Y-15490190D01*
X10481952Y-15604476D02*
X10462905Y-15594952D01*
X10453381Y-15585428D01*
X10443857Y-15566381D01*
X10443857Y-15509238D01*
X10453381Y-15490190D01*
X10462905Y-15480667D01*
X10481952Y-15471143D01*
X10510524Y-15471143D01*
X10529571Y-15480667D01*
X10539095Y-15490190D01*
X10548619Y-15509238D01*
X10548619Y-15566381D01*
X10539095Y-15585428D01*
X10529571Y-15594952D01*
X10510524Y-15604476D01*
X10481952Y-15604476D01*
X10662905Y-15604476D02*
X10643857Y-15594952D01*
X10634333Y-15575905D01*
X10634333Y-15404476D01*
X10815286Y-15594952D02*
X10796238Y-15604476D01*
X10758143Y-15604476D01*
X10739095Y-15594952D01*
X10729571Y-15575905D01*
X10729571Y-15499714D01*
X10739095Y-15480667D01*
X10758143Y-15471143D01*
X10796238Y-15471143D01*
X10815286Y-15480667D01*
X10824810Y-15499714D01*
X10824810Y-15518762D01*
X10729571Y-15537809D01*
X10901000Y-15594952D02*
X10920048Y-15604476D01*
X10958143Y-15604476D01*
X10977190Y-15594952D01*
X10986714Y-15575905D01*
X10986714Y-15566381D01*
X10977190Y-15547333D01*
X10958143Y-15537809D01*
X10929571Y-15537809D01*
X10910524Y-15528286D01*
X10901000Y-15509238D01*
X10901000Y-15499714D01*
X10910524Y-15480667D01*
X10929571Y-15471143D01*
X10958143Y-15471143D01*
X10977190Y-15480667D01*
X11053381Y-15680667D02*
X11062905Y-15671143D01*
X11081952Y-15642571D01*
X11091476Y-15623524D01*
X11101000Y-15594952D01*
X11110524Y-15547333D01*
X11110524Y-15509238D01*
X11101000Y-15461619D01*
X11091476Y-15433048D01*
X11081952Y-15414000D01*
X11062905Y-15385428D01*
X11053381Y-15375905D01*
D14*
X6051000Y-15738000D02*
X6051000Y-15818000D01*
X6011000Y-15778000D02*
X6091000Y-15778000D01*
D11*
X6386714Y-15668476D02*
X6405762Y-15668476D01*
X6424809Y-15678000D01*
X6434333Y-15687524D01*
X6443857Y-15706571D01*
X6453381Y-15744667D01*
X6453381Y-15792286D01*
X6443857Y-15830381D01*
X6434333Y-15849428D01*
X6424809Y-15858952D01*
X6405762Y-15868476D01*
X6386714Y-15868476D01*
X6367667Y-15858952D01*
X6358143Y-15849428D01*
X6348619Y-15830381D01*
X6339095Y-15792286D01*
X6339095Y-15744667D01*
X6348619Y-15706571D01*
X6358143Y-15687524D01*
X6367667Y-15678000D01*
X6386714Y-15668476D01*
X6539095Y-15849428D02*
X6548619Y-15858952D01*
X6539095Y-15868476D01*
X6529571Y-15858952D01*
X6539095Y-15849428D01*
X6539095Y-15868476D01*
X6662905Y-15754190D02*
X6643857Y-15744667D01*
X6634333Y-15735143D01*
X6624809Y-15716095D01*
X6624809Y-15706571D01*
X6634333Y-15687524D01*
X6643857Y-15678000D01*
X6662905Y-15668476D01*
X6701000Y-15668476D01*
X6720048Y-15678000D01*
X6729571Y-15687524D01*
X6739095Y-15706571D01*
X6739095Y-15716095D01*
X6729571Y-15735143D01*
X6720048Y-15744667D01*
X6701000Y-15754190D01*
X6662905Y-15754190D01*
X6643857Y-15763714D01*
X6634333Y-15773238D01*
X6624809Y-15792286D01*
X6624809Y-15830381D01*
X6634333Y-15849428D01*
X6643857Y-15858952D01*
X6662905Y-15868476D01*
X6701000Y-15868476D01*
X6720048Y-15858952D01*
X6729571Y-15849428D01*
X6739095Y-15830381D01*
X6739095Y-15792286D01*
X6729571Y-15773238D01*
X6720048Y-15763714D01*
X6701000Y-15754190D01*
X6862905Y-15668476D02*
X6881952Y-15668476D01*
X6901000Y-15678000D01*
X6910524Y-15687524D01*
X6920048Y-15706571D01*
X6929571Y-15744667D01*
X6929571Y-15792286D01*
X6920048Y-15830381D01*
X6910524Y-15849428D01*
X6901000Y-15858952D01*
X6881952Y-15868476D01*
X6862905Y-15868476D01*
X6843857Y-15858952D01*
X6834333Y-15849428D01*
X6824809Y-15830381D01*
X6815286Y-15792286D01*
X6815286Y-15744667D01*
X6824809Y-15706571D01*
X6834333Y-15687524D01*
X6843857Y-15678000D01*
X6862905Y-15668476D01*
X7053381Y-15668476D02*
X7072428Y-15668476D01*
X7091476Y-15678000D01*
X7101000Y-15687524D01*
X7110524Y-15706571D01*
X7120048Y-15744667D01*
X7120048Y-15792286D01*
X7110524Y-15830381D01*
X7101000Y-15849428D01*
X7091476Y-15858952D01*
X7072428Y-15868476D01*
X7053381Y-15868476D01*
X7034333Y-15858952D01*
X7024809Y-15849428D01*
X7015286Y-15830381D01*
X7005762Y-15792286D01*
X7005762Y-15744667D01*
X7015286Y-15706571D01*
X7024809Y-15687524D01*
X7034333Y-15678000D01*
X7053381Y-15668476D01*
X7205762Y-15868476D02*
X7205762Y-15735143D01*
X7205762Y-15754190D02*
X7215286Y-15744667D01*
X7234333Y-15735143D01*
X7262905Y-15735143D01*
X7281952Y-15744667D01*
X7291476Y-15763714D01*
X7291476Y-15868476D01*
X7291476Y-15763714D02*
X7301000Y-15744667D01*
X7320048Y-15735143D01*
X7348619Y-15735143D01*
X7367667Y-15744667D01*
X7377190Y-15763714D01*
X7377190Y-15868476D01*
X7472428Y-15868476D02*
X7472428Y-15735143D01*
X7472428Y-15754190D02*
X7481952Y-15744667D01*
X7501000Y-15735143D01*
X7529571Y-15735143D01*
X7548619Y-15744667D01*
X7558143Y-15763714D01*
X7558143Y-15868476D01*
X7558143Y-15763714D02*
X7567667Y-15744667D01*
X7586714Y-15735143D01*
X7615286Y-15735143D01*
X7634333Y-15744667D01*
X7643857Y-15763714D01*
X7643857Y-15868476D01*
X8034333Y-15658952D02*
X7862905Y-15916095D01*
X8291476Y-15668476D02*
X8310524Y-15668476D01*
X8329571Y-15678000D01*
X8339095Y-15687524D01*
X8348619Y-15706571D01*
X8358143Y-15744667D01*
X8358143Y-15792286D01*
X8348619Y-15830381D01*
X8339095Y-15849428D01*
X8329571Y-15858952D01*
X8310524Y-15868476D01*
X8291476Y-15868476D01*
X8272428Y-15858952D01*
X8262905Y-15849428D01*
X8253381Y-15830381D01*
X8243857Y-15792286D01*
X8243857Y-15744667D01*
X8253381Y-15706571D01*
X8262905Y-15687524D01*
X8272428Y-15678000D01*
X8291476Y-15668476D01*
X8443857Y-15849428D02*
X8453381Y-15858952D01*
X8443857Y-15868476D01*
X8434333Y-15858952D01*
X8443857Y-15849428D01*
X8443857Y-15868476D01*
X8577190Y-15668476D02*
X8596238Y-15668476D01*
X8615286Y-15678000D01*
X8624810Y-15687524D01*
X8634333Y-15706571D01*
X8643857Y-15744667D01*
X8643857Y-15792286D01*
X8634333Y-15830381D01*
X8624810Y-15849428D01*
X8615286Y-15858952D01*
X8596238Y-15868476D01*
X8577190Y-15868476D01*
X8558143Y-15858952D01*
X8548619Y-15849428D01*
X8539095Y-15830381D01*
X8529571Y-15792286D01*
X8529571Y-15744667D01*
X8539095Y-15706571D01*
X8548619Y-15687524D01*
X8558143Y-15678000D01*
X8577190Y-15668476D01*
X8710524Y-15668476D02*
X8834333Y-15668476D01*
X8767667Y-15744667D01*
X8796238Y-15744667D01*
X8815286Y-15754190D01*
X8824810Y-15763714D01*
X8834333Y-15782762D01*
X8834333Y-15830381D01*
X8824810Y-15849428D01*
X8815286Y-15858952D01*
X8796238Y-15868476D01*
X8739095Y-15868476D01*
X8720048Y-15858952D01*
X8710524Y-15849428D01*
X9024810Y-15868476D02*
X8910524Y-15868476D01*
X8967667Y-15868476D02*
X8967667Y-15668476D01*
X8948619Y-15697048D01*
X8929571Y-15716095D01*
X8910524Y-15725619D01*
X9205762Y-15668476D02*
X9110524Y-15668476D01*
X9101000Y-15763714D01*
X9110524Y-15754190D01*
X9129571Y-15744667D01*
X9177190Y-15744667D01*
X9196238Y-15754190D01*
X9205762Y-15763714D01*
X9215286Y-15782762D01*
X9215286Y-15830381D01*
X9205762Y-15849428D01*
X9196238Y-15858952D01*
X9177190Y-15868476D01*
X9129571Y-15868476D01*
X9110524Y-15858952D01*
X9101000Y-15849428D01*
X9291476Y-15668476D02*
X9291476Y-15706571D01*
X9367667Y-15668476D02*
X9367667Y-15706571D01*
X9662905Y-15944667D02*
X9653381Y-15935143D01*
X9634333Y-15906571D01*
X9624810Y-15887524D01*
X9615286Y-15858952D01*
X9605762Y-15811333D01*
X9605762Y-15773238D01*
X9615286Y-15725619D01*
X9624810Y-15697048D01*
X9634333Y-15678000D01*
X9653381Y-15649428D01*
X9662905Y-15639905D01*
X9824810Y-15668476D02*
X9786714Y-15668476D01*
X9767667Y-15678000D01*
X9758143Y-15687524D01*
X9739095Y-15716095D01*
X9729571Y-15754190D01*
X9729571Y-15830381D01*
X9739095Y-15849428D01*
X9748619Y-15858952D01*
X9767667Y-15868476D01*
X9805762Y-15868476D01*
X9824810Y-15858952D01*
X9834333Y-15849428D01*
X9843857Y-15830381D01*
X9843857Y-15782762D01*
X9834333Y-15763714D01*
X9824810Y-15754190D01*
X9805762Y-15744667D01*
X9767667Y-15744667D01*
X9748619Y-15754190D01*
X9739095Y-15763714D01*
X9729571Y-15782762D01*
X9920048Y-15687524D02*
X9929571Y-15678000D01*
X9948619Y-15668476D01*
X9996238Y-15668476D01*
X10015286Y-15678000D01*
X10024810Y-15687524D01*
X10034333Y-15706571D01*
X10034333Y-15725619D01*
X10024810Y-15754190D01*
X9910524Y-15868476D01*
X10034333Y-15868476D01*
X10272429Y-15868476D02*
X10272429Y-15668476D01*
X10358143Y-15868476D02*
X10358143Y-15763714D01*
X10348619Y-15744667D01*
X10329571Y-15735143D01*
X10301000Y-15735143D01*
X10281952Y-15744667D01*
X10272429Y-15754190D01*
X10481952Y-15868476D02*
X10462905Y-15858952D01*
X10453381Y-15849428D01*
X10443857Y-15830381D01*
X10443857Y-15773238D01*
X10453381Y-15754190D01*
X10462905Y-15744667D01*
X10481952Y-15735143D01*
X10510524Y-15735143D01*
X10529571Y-15744667D01*
X10539095Y-15754190D01*
X10548619Y-15773238D01*
X10548619Y-15830381D01*
X10539095Y-15849428D01*
X10529571Y-15858952D01*
X10510524Y-15868476D01*
X10481952Y-15868476D01*
X10662905Y-15868476D02*
X10643857Y-15858952D01*
X10634333Y-15839905D01*
X10634333Y-15668476D01*
X10815286Y-15858952D02*
X10796238Y-15868476D01*
X10758143Y-15868476D01*
X10739095Y-15858952D01*
X10729571Y-15839905D01*
X10729571Y-15763714D01*
X10739095Y-15744667D01*
X10758143Y-15735143D01*
X10796238Y-15735143D01*
X10815286Y-15744667D01*
X10824810Y-15763714D01*
X10824810Y-15782762D01*
X10729571Y-15801809D01*
X10901000Y-15858952D02*
X10920048Y-15868476D01*
X10958143Y-15868476D01*
X10977190Y-15858952D01*
X10986714Y-15839905D01*
X10986714Y-15830381D01*
X10977190Y-15811333D01*
X10958143Y-15801809D01*
X10929571Y-15801809D01*
X10910524Y-15792286D01*
X10901000Y-15773238D01*
X10901000Y-15763714D01*
X10910524Y-15744667D01*
X10929571Y-15735143D01*
X10958143Y-15735143D01*
X10977190Y-15744667D01*
X11053381Y-15944667D02*
X11062905Y-15935143D01*
X11081952Y-15906571D01*
X11091476Y-15887524D01*
X11101000Y-15858952D01*
X11110524Y-15811333D01*
X11110524Y-15773238D01*
X11101000Y-15725619D01*
X11091476Y-15697048D01*
X11081952Y-15678000D01*
X11062905Y-15649428D01*
X11053381Y-15639905D01*
D15*
X6076356Y-16077356D02*
X6076356Y-16006644D01*
X6005644Y-16006644D01*
X6005644Y-16077356D01*
X6076356Y-16077356D01*
D11*
X6453381Y-16132476D02*
X6339095Y-16132476D01*
X6396238Y-16132476D02*
X6396238Y-15932476D01*
X6377190Y-15961048D01*
X6358143Y-15980095D01*
X6339095Y-15989619D01*
X6539095Y-16113428D02*
X6548619Y-16122952D01*
X6539095Y-16132476D01*
X6529571Y-16122952D01*
X6539095Y-16113428D01*
X6539095Y-16132476D01*
X6672428Y-15932476D02*
X6691476Y-15932476D01*
X6710524Y-15942000D01*
X6720048Y-15951524D01*
X6729571Y-15970571D01*
X6739095Y-16008667D01*
X6739095Y-16056286D01*
X6729571Y-16094381D01*
X6720048Y-16113428D01*
X6710524Y-16122952D01*
X6691476Y-16132476D01*
X6672428Y-16132476D01*
X6653381Y-16122952D01*
X6643857Y-16113428D01*
X6634333Y-16094381D01*
X6624809Y-16056286D01*
X6624809Y-16008667D01*
X6634333Y-15970571D01*
X6643857Y-15951524D01*
X6653381Y-15942000D01*
X6672428Y-15932476D01*
X6862905Y-15932476D02*
X6881952Y-15932476D01*
X6901000Y-15942000D01*
X6910524Y-15951524D01*
X6920048Y-15970571D01*
X6929571Y-16008667D01*
X6929571Y-16056286D01*
X6920048Y-16094381D01*
X6910524Y-16113428D01*
X6901000Y-16122952D01*
X6881952Y-16132476D01*
X6862905Y-16132476D01*
X6843857Y-16122952D01*
X6834333Y-16113428D01*
X6824809Y-16094381D01*
X6815286Y-16056286D01*
X6815286Y-16008667D01*
X6824809Y-15970571D01*
X6834333Y-15951524D01*
X6843857Y-15942000D01*
X6862905Y-15932476D01*
X7053381Y-15932476D02*
X7072428Y-15932476D01*
X7091476Y-15942000D01*
X7101000Y-15951524D01*
X7110524Y-15970571D01*
X7120048Y-16008667D01*
X7120048Y-16056286D01*
X7110524Y-16094381D01*
X7101000Y-16113428D01*
X7091476Y-16122952D01*
X7072428Y-16132476D01*
X7053381Y-16132476D01*
X7034333Y-16122952D01*
X7024809Y-16113428D01*
X7015286Y-16094381D01*
X7005762Y-16056286D01*
X7005762Y-16008667D01*
X7015286Y-15970571D01*
X7024809Y-15951524D01*
X7034333Y-15942000D01*
X7053381Y-15932476D01*
X7205762Y-16132476D02*
X7205762Y-15999143D01*
X7205762Y-16018190D02*
X7215286Y-16008667D01*
X7234333Y-15999143D01*
X7262905Y-15999143D01*
X7281952Y-16008667D01*
X7291476Y-16027714D01*
X7291476Y-16132476D01*
X7291476Y-16027714D02*
X7301000Y-16008667D01*
X7320048Y-15999143D01*
X7348619Y-15999143D01*
X7367667Y-16008667D01*
X7377190Y-16027714D01*
X7377190Y-16132476D01*
X7472428Y-16132476D02*
X7472428Y-15999143D01*
X7472428Y-16018190D02*
X7481952Y-16008667D01*
X7501000Y-15999143D01*
X7529571Y-15999143D01*
X7548619Y-16008667D01*
X7558143Y-16027714D01*
X7558143Y-16132476D01*
X7558143Y-16027714D02*
X7567667Y-16008667D01*
X7586714Y-15999143D01*
X7615286Y-15999143D01*
X7634333Y-16008667D01*
X7643857Y-16027714D01*
X7643857Y-16132476D01*
X8034333Y-15922952D02*
X7862905Y-16180095D01*
X8291476Y-15932476D02*
X8310524Y-15932476D01*
X8329571Y-15942000D01*
X8339095Y-15951524D01*
X8348619Y-15970571D01*
X8358143Y-16008667D01*
X8358143Y-16056286D01*
X8348619Y-16094381D01*
X8339095Y-16113428D01*
X8329571Y-16122952D01*
X8310524Y-16132476D01*
X8291476Y-16132476D01*
X8272428Y-16122952D01*
X8262905Y-16113428D01*
X8253381Y-16094381D01*
X8243857Y-16056286D01*
X8243857Y-16008667D01*
X8253381Y-15970571D01*
X8262905Y-15951524D01*
X8272428Y-15942000D01*
X8291476Y-15932476D01*
X8443857Y-16113428D02*
X8453381Y-16122952D01*
X8443857Y-16132476D01*
X8434333Y-16122952D01*
X8443857Y-16113428D01*
X8443857Y-16132476D01*
X8577190Y-15932476D02*
X8596238Y-15932476D01*
X8615286Y-15942000D01*
X8624810Y-15951524D01*
X8634333Y-15970571D01*
X8643857Y-16008667D01*
X8643857Y-16056286D01*
X8634333Y-16094381D01*
X8624810Y-16113428D01*
X8615286Y-16122952D01*
X8596238Y-16132476D01*
X8577190Y-16132476D01*
X8558143Y-16122952D01*
X8548619Y-16113428D01*
X8539095Y-16094381D01*
X8529571Y-16056286D01*
X8529571Y-16008667D01*
X8539095Y-15970571D01*
X8548619Y-15951524D01*
X8558143Y-15942000D01*
X8577190Y-15932476D01*
X8710524Y-15932476D02*
X8834333Y-15932476D01*
X8767667Y-16008667D01*
X8796238Y-16008667D01*
X8815286Y-16018190D01*
X8824810Y-16027714D01*
X8834333Y-16046762D01*
X8834333Y-16094381D01*
X8824810Y-16113428D01*
X8815286Y-16122952D01*
X8796238Y-16132476D01*
X8739095Y-16132476D01*
X8720048Y-16122952D01*
X8710524Y-16113428D01*
X8929571Y-16132476D02*
X8967667Y-16132476D01*
X8986714Y-16122952D01*
X8996238Y-16113428D01*
X9015286Y-16084857D01*
X9024810Y-16046762D01*
X9024810Y-15970571D01*
X9015286Y-15951524D01*
X9005762Y-15942000D01*
X8986714Y-15932476D01*
X8948619Y-15932476D01*
X8929571Y-15942000D01*
X8920048Y-15951524D01*
X8910524Y-15970571D01*
X8910524Y-16018190D01*
X8920048Y-16037238D01*
X8929571Y-16046762D01*
X8948619Y-16056286D01*
X8986714Y-16056286D01*
X9005762Y-16046762D01*
X9015286Y-16037238D01*
X9024810Y-16018190D01*
X9196238Y-15999143D02*
X9196238Y-16132476D01*
X9148619Y-15922952D02*
X9101000Y-16065809D01*
X9224810Y-16065809D01*
X9291476Y-15932476D02*
X9291476Y-15970571D01*
X9367667Y-15932476D02*
X9367667Y-15970571D01*
X9662905Y-16208667D02*
X9653381Y-16199143D01*
X9634333Y-16170571D01*
X9624810Y-16151524D01*
X9615286Y-16122952D01*
X9605762Y-16075333D01*
X9605762Y-16037238D01*
X9615286Y-15989619D01*
X9624810Y-15961048D01*
X9634333Y-15942000D01*
X9653381Y-15913428D01*
X9662905Y-15903905D01*
X9720048Y-15932476D02*
X9843857Y-15932476D01*
X9777190Y-16008667D01*
X9805762Y-16008667D01*
X9824810Y-16018190D01*
X9834333Y-16027714D01*
X9843857Y-16046762D01*
X9843857Y-16094381D01*
X9834333Y-16113428D01*
X9824810Y-16122952D01*
X9805762Y-16132476D01*
X9748619Y-16132476D01*
X9729571Y-16122952D01*
X9720048Y-16113428D01*
X9958143Y-16018190D02*
X9939095Y-16008667D01*
X9929571Y-15999143D01*
X9920048Y-15980095D01*
X9920048Y-15970571D01*
X9929571Y-15951524D01*
X9939095Y-15942000D01*
X9958143Y-15932476D01*
X9996238Y-15932476D01*
X10015286Y-15942000D01*
X10024810Y-15951524D01*
X10034333Y-15970571D01*
X10034333Y-15980095D01*
X10024810Y-15999143D01*
X10015286Y-16008667D01*
X9996238Y-16018190D01*
X9958143Y-16018190D01*
X9939095Y-16027714D01*
X9929571Y-16037238D01*
X9920048Y-16056286D01*
X9920048Y-16094381D01*
X9929571Y-16113428D01*
X9939095Y-16122952D01*
X9958143Y-16132476D01*
X9996238Y-16132476D01*
X10015286Y-16122952D01*
X10024810Y-16113428D01*
X10034333Y-16094381D01*
X10034333Y-16056286D01*
X10024810Y-16037238D01*
X10015286Y-16027714D01*
X9996238Y-16018190D01*
X10272429Y-16132476D02*
X10272429Y-15932476D01*
X10358143Y-16132476D02*
X10358143Y-16027714D01*
X10348619Y-16008667D01*
X10329571Y-15999143D01*
X10301000Y-15999143D01*
X10281952Y-16008667D01*
X10272429Y-16018190D01*
X10481952Y-16132476D02*
X10462905Y-16122952D01*
X10453381Y-16113428D01*
X10443857Y-16094381D01*
X10443857Y-16037238D01*
X10453381Y-16018190D01*
X10462905Y-16008667D01*
X10481952Y-15999143D01*
X10510524Y-15999143D01*
X10529571Y-16008667D01*
X10539095Y-16018190D01*
X10548619Y-16037238D01*
X10548619Y-16094381D01*
X10539095Y-16113428D01*
X10529571Y-16122952D01*
X10510524Y-16132476D01*
X10481952Y-16132476D01*
X10662905Y-16132476D02*
X10643857Y-16122952D01*
X10634333Y-16103905D01*
X10634333Y-15932476D01*
X10815286Y-16122952D02*
X10796238Y-16132476D01*
X10758143Y-16132476D01*
X10739095Y-16122952D01*
X10729571Y-16103905D01*
X10729571Y-16027714D01*
X10739095Y-16008667D01*
X10758143Y-15999143D01*
X10796238Y-15999143D01*
X10815286Y-16008667D01*
X10824810Y-16027714D01*
X10824810Y-16046762D01*
X10729571Y-16065809D01*
X10901000Y-16122952D02*
X10920048Y-16132476D01*
X10958143Y-16132476D01*
X10977190Y-16122952D01*
X10986714Y-16103905D01*
X10986714Y-16094381D01*
X10977190Y-16075333D01*
X10958143Y-16065809D01*
X10929571Y-16065809D01*
X10910524Y-16056286D01*
X10901000Y-16037238D01*
X10901000Y-16027714D01*
X10910524Y-16008667D01*
X10929571Y-15999143D01*
X10958143Y-15999143D01*
X10977190Y-16008667D01*
X11053381Y-16208667D02*
X11062905Y-16199143D01*
X11081952Y-16170571D01*
X11091476Y-16151524D01*
X11101000Y-16122952D01*
X11110524Y-16075333D01*
X11110524Y-16037238D01*
X11101000Y-15989619D01*
X11091476Y-15961048D01*
X11081952Y-15942000D01*
X11062905Y-15913428D01*
X11053381Y-15903905D01*
D16*
X6036000Y-16361000D02*
X6091000Y-16306000D01*
X6036000Y-16251000D01*
X5981000Y-16306000D01*
X6036000Y-16361000D01*
D11*
X6453381Y-16396476D02*
X6339095Y-16396476D01*
X6396238Y-16396476D02*
X6396238Y-16196476D01*
X6377190Y-16225048D01*
X6358143Y-16244095D01*
X6339095Y-16253619D01*
X6539095Y-16377428D02*
X6548619Y-16386952D01*
X6539095Y-16396476D01*
X6529571Y-16386952D01*
X6539095Y-16377428D01*
X6539095Y-16396476D01*
X6739095Y-16396476D02*
X6624809Y-16396476D01*
X6681952Y-16396476D02*
X6681952Y-16196476D01*
X6662905Y-16225048D01*
X6643857Y-16244095D01*
X6624809Y-16253619D01*
X6862905Y-16196476D02*
X6881952Y-16196476D01*
X6901000Y-16206000D01*
X6910524Y-16215524D01*
X6920048Y-16234571D01*
X6929571Y-16272667D01*
X6929571Y-16320286D01*
X6920048Y-16358381D01*
X6910524Y-16377428D01*
X6901000Y-16386952D01*
X6881952Y-16396476D01*
X6862905Y-16396476D01*
X6843857Y-16386952D01*
X6834333Y-16377428D01*
X6824809Y-16358381D01*
X6815286Y-16320286D01*
X6815286Y-16272667D01*
X6824809Y-16234571D01*
X6834333Y-16215524D01*
X6843857Y-16206000D01*
X6862905Y-16196476D01*
X7053381Y-16196476D02*
X7072428Y-16196476D01*
X7091476Y-16206000D01*
X7101000Y-16215524D01*
X7110524Y-16234571D01*
X7120048Y-16272667D01*
X7120048Y-16320286D01*
X7110524Y-16358381D01*
X7101000Y-16377428D01*
X7091476Y-16386952D01*
X7072428Y-16396476D01*
X7053381Y-16396476D01*
X7034333Y-16386952D01*
X7024809Y-16377428D01*
X7015286Y-16358381D01*
X7005762Y-16320286D01*
X7005762Y-16272667D01*
X7015286Y-16234571D01*
X7024809Y-16215524D01*
X7034333Y-16206000D01*
X7053381Y-16196476D01*
X7205762Y-16396476D02*
X7205762Y-16263143D01*
X7205762Y-16282190D02*
X7215286Y-16272667D01*
X7234333Y-16263143D01*
X7262905Y-16263143D01*
X7281952Y-16272667D01*
X7291476Y-16291714D01*
X7291476Y-16396476D01*
X7291476Y-16291714D02*
X7301000Y-16272667D01*
X7320048Y-16263143D01*
X7348619Y-16263143D01*
X7367667Y-16272667D01*
X7377190Y-16291714D01*
X7377190Y-16396476D01*
X7472428Y-16396476D02*
X7472428Y-16263143D01*
X7472428Y-16282190D02*
X7481952Y-16272667D01*
X7501000Y-16263143D01*
X7529571Y-16263143D01*
X7548619Y-16272667D01*
X7558143Y-16291714D01*
X7558143Y-16396476D01*
X7558143Y-16291714D02*
X7567667Y-16272667D01*
X7586714Y-16263143D01*
X7615286Y-16263143D01*
X7634333Y-16272667D01*
X7643857Y-16291714D01*
X7643857Y-16396476D01*
X8034333Y-16186952D02*
X7862905Y-16444095D01*
X8291476Y-16196476D02*
X8310524Y-16196476D01*
X8329571Y-16206000D01*
X8339095Y-16215524D01*
X8348619Y-16234571D01*
X8358143Y-16272667D01*
X8358143Y-16320286D01*
X8348619Y-16358381D01*
X8339095Y-16377428D01*
X8329571Y-16386952D01*
X8310524Y-16396476D01*
X8291476Y-16396476D01*
X8272428Y-16386952D01*
X8262905Y-16377428D01*
X8253381Y-16358381D01*
X8243857Y-16320286D01*
X8243857Y-16272667D01*
X8253381Y-16234571D01*
X8262905Y-16215524D01*
X8272428Y-16206000D01*
X8291476Y-16196476D01*
X8443857Y-16377428D02*
X8453381Y-16386952D01*
X8443857Y-16396476D01*
X8434333Y-16386952D01*
X8443857Y-16377428D01*
X8443857Y-16396476D01*
X8577190Y-16196476D02*
X8596238Y-16196476D01*
X8615286Y-16206000D01*
X8624810Y-16215524D01*
X8634333Y-16234571D01*
X8643857Y-16272667D01*
X8643857Y-16320286D01*
X8634333Y-16358381D01*
X8624810Y-16377428D01*
X8615286Y-16386952D01*
X8596238Y-16396476D01*
X8577190Y-16396476D01*
X8558143Y-16386952D01*
X8548619Y-16377428D01*
X8539095Y-16358381D01*
X8529571Y-16320286D01*
X8529571Y-16272667D01*
X8539095Y-16234571D01*
X8548619Y-16215524D01*
X8558143Y-16206000D01*
X8577190Y-16196476D01*
X8815286Y-16263143D02*
X8815286Y-16396476D01*
X8767667Y-16186952D02*
X8720048Y-16329809D01*
X8843857Y-16329809D01*
X8901000Y-16196476D02*
X9024810Y-16196476D01*
X8958143Y-16272667D01*
X8986714Y-16272667D01*
X9005762Y-16282190D01*
X9015286Y-16291714D01*
X9024810Y-16310762D01*
X9024810Y-16358381D01*
X9015286Y-16377428D01*
X9005762Y-16386952D01*
X8986714Y-16396476D01*
X8929571Y-16396476D01*
X8910524Y-16386952D01*
X8901000Y-16377428D01*
X9091476Y-16196476D02*
X9215286Y-16196476D01*
X9148619Y-16272667D01*
X9177190Y-16272667D01*
X9196238Y-16282190D01*
X9205762Y-16291714D01*
X9215286Y-16310762D01*
X9215286Y-16358381D01*
X9205762Y-16377428D01*
X9196238Y-16386952D01*
X9177190Y-16396476D01*
X9120048Y-16396476D01*
X9101000Y-16386952D01*
X9091476Y-16377428D01*
X9291476Y-16196476D02*
X9291476Y-16234571D01*
X9367667Y-16196476D02*
X9367667Y-16234571D01*
X9662905Y-16472667D02*
X9653381Y-16463143D01*
X9634333Y-16434571D01*
X9624810Y-16415524D01*
X9615286Y-16386952D01*
X9605762Y-16339333D01*
X9605762Y-16301238D01*
X9615286Y-16253619D01*
X9624810Y-16225048D01*
X9634333Y-16206000D01*
X9653381Y-16177428D01*
X9662905Y-16167905D01*
X9777190Y-16196476D02*
X9796238Y-16196476D01*
X9815286Y-16206000D01*
X9824810Y-16215524D01*
X9834333Y-16234571D01*
X9843857Y-16272667D01*
X9843857Y-16320286D01*
X9834333Y-16358381D01*
X9824810Y-16377428D01*
X9815286Y-16386952D01*
X9796238Y-16396476D01*
X9777190Y-16396476D01*
X9758143Y-16386952D01*
X9748619Y-16377428D01*
X9739095Y-16358381D01*
X9729571Y-16320286D01*
X9729571Y-16272667D01*
X9739095Y-16234571D01*
X9748619Y-16215524D01*
X9758143Y-16206000D01*
X9777190Y-16196476D01*
X10081952Y-16396476D02*
X10081952Y-16196476D01*
X10167667Y-16396476D02*
X10167667Y-16291714D01*
X10158143Y-16272667D01*
X10139095Y-16263143D01*
X10110524Y-16263143D01*
X10091476Y-16272667D01*
X10081952Y-16282190D01*
X10291476Y-16396476D02*
X10272429Y-16386952D01*
X10262905Y-16377428D01*
X10253381Y-16358381D01*
X10253381Y-16301238D01*
X10262905Y-16282190D01*
X10272429Y-16272667D01*
X10291476Y-16263143D01*
X10320048Y-16263143D01*
X10339095Y-16272667D01*
X10348619Y-16282190D01*
X10358143Y-16301238D01*
X10358143Y-16358381D01*
X10348619Y-16377428D01*
X10339095Y-16386952D01*
X10320048Y-16396476D01*
X10291476Y-16396476D01*
X10472429Y-16396476D02*
X10453381Y-16386952D01*
X10443857Y-16367905D01*
X10443857Y-16196476D01*
X10624810Y-16386952D02*
X10605762Y-16396476D01*
X10567667Y-16396476D01*
X10548619Y-16386952D01*
X10539095Y-16367905D01*
X10539095Y-16291714D01*
X10548619Y-16272667D01*
X10567667Y-16263143D01*
X10605762Y-16263143D01*
X10624810Y-16272667D01*
X10634333Y-16291714D01*
X10634333Y-16310762D01*
X10539095Y-16329809D01*
X10710524Y-16386952D02*
X10729571Y-16396476D01*
X10767667Y-16396476D01*
X10786714Y-16386952D01*
X10796238Y-16367905D01*
X10796238Y-16358381D01*
X10786714Y-16339333D01*
X10767667Y-16329809D01*
X10739095Y-16329809D01*
X10720048Y-16320286D01*
X10710524Y-16301238D01*
X10710524Y-16291714D01*
X10720048Y-16272667D01*
X10739095Y-16263143D01*
X10767667Y-16263143D01*
X10786714Y-16272667D01*
X11034333Y-16320286D02*
X11186714Y-16320286D01*
X11110524Y-16396476D02*
X11110524Y-16244095D01*
X11539095Y-16396476D02*
X11424809Y-16396476D01*
X11481952Y-16396476D02*
X11481952Y-16196476D01*
X11462905Y-16225048D01*
X11443857Y-16244095D01*
X11424809Y-16253619D01*
X11615286Y-16215524D02*
X11624809Y-16206000D01*
X11643857Y-16196476D01*
X11691476Y-16196476D01*
X11710524Y-16206000D01*
X11720048Y-16215524D01*
X11729571Y-16234571D01*
X11729571Y-16253619D01*
X11720048Y-16282190D01*
X11605762Y-16396476D01*
X11729571Y-16396476D01*
X11958143Y-16386952D02*
X11977190Y-16396476D01*
X12015286Y-16396476D01*
X12034333Y-16386952D01*
X12043857Y-16367905D01*
X12043857Y-16358381D01*
X12034333Y-16339333D01*
X12015286Y-16329809D01*
X11986714Y-16329809D01*
X11967667Y-16320286D01*
X11958143Y-16301238D01*
X11958143Y-16291714D01*
X11967667Y-16272667D01*
X11986714Y-16263143D01*
X12015286Y-16263143D01*
X12034333Y-16272667D01*
X12158143Y-16396476D02*
X12139095Y-16386952D01*
X12129571Y-16367905D01*
X12129571Y-16196476D01*
X12262905Y-16396476D02*
X12243857Y-16386952D01*
X12234333Y-16377428D01*
X12224809Y-16358381D01*
X12224809Y-16301238D01*
X12234333Y-16282190D01*
X12243857Y-16272667D01*
X12262905Y-16263143D01*
X12291476Y-16263143D01*
X12310524Y-16272667D01*
X12320048Y-16282190D01*
X12329571Y-16301238D01*
X12329571Y-16358381D01*
X12320048Y-16377428D01*
X12310524Y-16386952D01*
X12291476Y-16396476D01*
X12262905Y-16396476D01*
X12386714Y-16263143D02*
X12462905Y-16263143D01*
X12415286Y-16196476D02*
X12415286Y-16367905D01*
X12424809Y-16386952D01*
X12443857Y-16396476D01*
X12462905Y-16396476D01*
X12520048Y-16386952D02*
X12539095Y-16396476D01*
X12577190Y-16396476D01*
X12596238Y-16386952D01*
X12605762Y-16367905D01*
X12605762Y-16358381D01*
X12596238Y-16339333D01*
X12577190Y-16329809D01*
X12548619Y-16329809D01*
X12529571Y-16320286D01*
X12520048Y-16301238D01*
X12520048Y-16291714D01*
X12529571Y-16272667D01*
X12548619Y-16263143D01*
X12577190Y-16263143D01*
X12596238Y-16272667D01*
X12672428Y-16472667D02*
X12681952Y-16463143D01*
X12701000Y-16434571D01*
X12710524Y-16415524D01*
X12720048Y-16386952D01*
X12729571Y-16339333D01*
X12729571Y-16301238D01*
X12720048Y-16253619D01*
X12710524Y-16225048D01*
X12701000Y-16206000D01*
X12681952Y-16177428D01*
X12672428Y-16167905D01*
D17*
X5972000Y-16510500D02*
X6091000Y-16629500D01*
X6091000Y-16510500D02*
X5972000Y-16629500D01*
X6091000Y-16570000D02*
G75*
G03*
X6091000Y-16570000I-59500J0D01*
G01*
D11*
X6453381Y-16660476D02*
X6339095Y-16660476D01*
X6396238Y-16660476D02*
X6396238Y-16460476D01*
X6377190Y-16489048D01*
X6358143Y-16508095D01*
X6339095Y-16517619D01*
X6539095Y-16641428D02*
X6548619Y-16650952D01*
X6539095Y-16660476D01*
X6529571Y-16650952D01*
X6539095Y-16641428D01*
X6539095Y-16660476D01*
X6739095Y-16660476D02*
X6624809Y-16660476D01*
X6681952Y-16660476D02*
X6681952Y-16460476D01*
X6662905Y-16489048D01*
X6643857Y-16508095D01*
X6624809Y-16517619D01*
X6834333Y-16660476D02*
X6872428Y-16660476D01*
X6891476Y-16650952D01*
X6901000Y-16641428D01*
X6920048Y-16612857D01*
X6929571Y-16574762D01*
X6929571Y-16498571D01*
X6920048Y-16479524D01*
X6910524Y-16470000D01*
X6891476Y-16460476D01*
X6853381Y-16460476D01*
X6834333Y-16470000D01*
X6824809Y-16479524D01*
X6815286Y-16498571D01*
X6815286Y-16546190D01*
X6824809Y-16565238D01*
X6834333Y-16574762D01*
X6853381Y-16584286D01*
X6891476Y-16584286D01*
X6910524Y-16574762D01*
X6920048Y-16565238D01*
X6929571Y-16546190D01*
X7053381Y-16460476D02*
X7072428Y-16460476D01*
X7091476Y-16470000D01*
X7101000Y-16479524D01*
X7110524Y-16498571D01*
X7120048Y-16536667D01*
X7120048Y-16584286D01*
X7110524Y-16622381D01*
X7101000Y-16641428D01*
X7091476Y-16650952D01*
X7072428Y-16660476D01*
X7053381Y-16660476D01*
X7034333Y-16650952D01*
X7024809Y-16641428D01*
X7015286Y-16622381D01*
X7005762Y-16584286D01*
X7005762Y-16536667D01*
X7015286Y-16498571D01*
X7024809Y-16479524D01*
X7034333Y-16470000D01*
X7053381Y-16460476D01*
X7205762Y-16660476D02*
X7205762Y-16527143D01*
X7205762Y-16546190D02*
X7215286Y-16536667D01*
X7234333Y-16527143D01*
X7262905Y-16527143D01*
X7281952Y-16536667D01*
X7291476Y-16555714D01*
X7291476Y-16660476D01*
X7291476Y-16555714D02*
X7301000Y-16536667D01*
X7320048Y-16527143D01*
X7348619Y-16527143D01*
X7367667Y-16536667D01*
X7377190Y-16555714D01*
X7377190Y-16660476D01*
X7472428Y-16660476D02*
X7472428Y-16527143D01*
X7472428Y-16546190D02*
X7481952Y-16536667D01*
X7501000Y-16527143D01*
X7529571Y-16527143D01*
X7548619Y-16536667D01*
X7558143Y-16555714D01*
X7558143Y-16660476D01*
X7558143Y-16555714D02*
X7567667Y-16536667D01*
X7586714Y-16527143D01*
X7615286Y-16527143D01*
X7634333Y-16536667D01*
X7643857Y-16555714D01*
X7643857Y-16660476D01*
X8034333Y-16450952D02*
X7862905Y-16708095D01*
X8291476Y-16460476D02*
X8310524Y-16460476D01*
X8329571Y-16470000D01*
X8339095Y-16479524D01*
X8348619Y-16498571D01*
X8358143Y-16536667D01*
X8358143Y-16584286D01*
X8348619Y-16622381D01*
X8339095Y-16641428D01*
X8329571Y-16650952D01*
X8310524Y-16660476D01*
X8291476Y-16660476D01*
X8272428Y-16650952D01*
X8262905Y-16641428D01*
X8253381Y-16622381D01*
X8243857Y-16584286D01*
X8243857Y-16536667D01*
X8253381Y-16498571D01*
X8262905Y-16479524D01*
X8272428Y-16470000D01*
X8291476Y-16460476D01*
X8443857Y-16641428D02*
X8453381Y-16650952D01*
X8443857Y-16660476D01*
X8434333Y-16650952D01*
X8443857Y-16641428D01*
X8443857Y-16660476D01*
X8577190Y-16460476D02*
X8596238Y-16460476D01*
X8615286Y-16470000D01*
X8624810Y-16479524D01*
X8634333Y-16498571D01*
X8643857Y-16536667D01*
X8643857Y-16584286D01*
X8634333Y-16622381D01*
X8624810Y-16641428D01*
X8615286Y-16650952D01*
X8596238Y-16660476D01*
X8577190Y-16660476D01*
X8558143Y-16650952D01*
X8548619Y-16641428D01*
X8539095Y-16622381D01*
X8529571Y-16584286D01*
X8529571Y-16536667D01*
X8539095Y-16498571D01*
X8548619Y-16479524D01*
X8558143Y-16470000D01*
X8577190Y-16460476D01*
X8815286Y-16527143D02*
X8815286Y-16660476D01*
X8767667Y-16450952D02*
X8720048Y-16593809D01*
X8843857Y-16593809D01*
X9005762Y-16460476D02*
X8967667Y-16460476D01*
X8948619Y-16470000D01*
X8939095Y-16479524D01*
X8920048Y-16508095D01*
X8910524Y-16546190D01*
X8910524Y-16622381D01*
X8920048Y-16641428D01*
X8929571Y-16650952D01*
X8948619Y-16660476D01*
X8986714Y-16660476D01*
X9005762Y-16650952D01*
X9015286Y-16641428D01*
X9024810Y-16622381D01*
X9024810Y-16574762D01*
X9015286Y-16555714D01*
X9005762Y-16546190D01*
X8986714Y-16536667D01*
X8948619Y-16536667D01*
X8929571Y-16546190D01*
X8920048Y-16555714D01*
X8910524Y-16574762D01*
X9120048Y-16660476D02*
X9158143Y-16660476D01*
X9177190Y-16650952D01*
X9186714Y-16641428D01*
X9205762Y-16612857D01*
X9215286Y-16574762D01*
X9215286Y-16498571D01*
X9205762Y-16479524D01*
X9196238Y-16470000D01*
X9177190Y-16460476D01*
X9139095Y-16460476D01*
X9120048Y-16470000D01*
X9110524Y-16479524D01*
X9101000Y-16498571D01*
X9101000Y-16546190D01*
X9110524Y-16565238D01*
X9120048Y-16574762D01*
X9139095Y-16584286D01*
X9177190Y-16584286D01*
X9196238Y-16574762D01*
X9205762Y-16565238D01*
X9215286Y-16546190D01*
X9291476Y-16460476D02*
X9291476Y-16498571D01*
X9367667Y-16460476D02*
X9367667Y-16498571D01*
X9662905Y-16736667D02*
X9653381Y-16727143D01*
X9634333Y-16698571D01*
X9624810Y-16679524D01*
X9615286Y-16650952D01*
X9605762Y-16603333D01*
X9605762Y-16565238D01*
X9615286Y-16517619D01*
X9624810Y-16489048D01*
X9634333Y-16470000D01*
X9653381Y-16441428D01*
X9662905Y-16431905D01*
X9729571Y-16479524D02*
X9739095Y-16470000D01*
X9758143Y-16460476D01*
X9805762Y-16460476D01*
X9824810Y-16470000D01*
X9834333Y-16479524D01*
X9843857Y-16498571D01*
X9843857Y-16517619D01*
X9834333Y-16546190D01*
X9720048Y-16660476D01*
X9843857Y-16660476D01*
X9967667Y-16460476D02*
X9986714Y-16460476D01*
X10005762Y-16470000D01*
X10015286Y-16479524D01*
X10024810Y-16498571D01*
X10034333Y-16536667D01*
X10034333Y-16584286D01*
X10024810Y-16622381D01*
X10015286Y-16641428D01*
X10005762Y-16650952D01*
X9986714Y-16660476D01*
X9967667Y-16660476D01*
X9948619Y-16650952D01*
X9939095Y-16641428D01*
X9929571Y-16622381D01*
X9920048Y-16584286D01*
X9920048Y-16536667D01*
X9929571Y-16498571D01*
X9939095Y-16479524D01*
X9948619Y-16470000D01*
X9967667Y-16460476D01*
X10272429Y-16660476D02*
X10272429Y-16460476D01*
X10358143Y-16660476D02*
X10358143Y-16555714D01*
X10348619Y-16536667D01*
X10329571Y-16527143D01*
X10301000Y-16527143D01*
X10281952Y-16536667D01*
X10272429Y-16546190D01*
X10481952Y-16660476D02*
X10462905Y-16650952D01*
X10453381Y-16641428D01*
X10443857Y-16622381D01*
X10443857Y-16565238D01*
X10453381Y-16546190D01*
X10462905Y-16536667D01*
X10481952Y-16527143D01*
X10510524Y-16527143D01*
X10529571Y-16536667D01*
X10539095Y-16546190D01*
X10548619Y-16565238D01*
X10548619Y-16622381D01*
X10539095Y-16641428D01*
X10529571Y-16650952D01*
X10510524Y-16660476D01*
X10481952Y-16660476D01*
X10662905Y-16660476D02*
X10643857Y-16650952D01*
X10634333Y-16631905D01*
X10634333Y-16460476D01*
X10815286Y-16650952D02*
X10796238Y-16660476D01*
X10758143Y-16660476D01*
X10739095Y-16650952D01*
X10729571Y-16631905D01*
X10729571Y-16555714D01*
X10739095Y-16536667D01*
X10758143Y-16527143D01*
X10796238Y-16527143D01*
X10815286Y-16536667D01*
X10824810Y-16555714D01*
X10824810Y-16574762D01*
X10729571Y-16593809D01*
X10901000Y-16650952D02*
X10920048Y-16660476D01*
X10958143Y-16660476D01*
X10977190Y-16650952D01*
X10986714Y-16631905D01*
X10986714Y-16622381D01*
X10977190Y-16603333D01*
X10958143Y-16593809D01*
X10929571Y-16593809D01*
X10910524Y-16584286D01*
X10901000Y-16565238D01*
X10901000Y-16555714D01*
X10910524Y-16536667D01*
X10929571Y-16527143D01*
X10958143Y-16527143D01*
X10977190Y-16536667D01*
X11053381Y-16736667D02*
X11062905Y-16727143D01*
X11081952Y-16698571D01*
X11091476Y-16679524D01*
X11101000Y-16650952D01*
X11110524Y-16603333D01*
X11110524Y-16565238D01*
X11101000Y-16517619D01*
X11091476Y-16489048D01*
X11081952Y-16470000D01*
X11062905Y-16441428D01*
X11053381Y-16431905D01*
M02*
