G04 #@! TF.GenerationSoftware,KiCad,Pcbnew,6.0.5+dfsg-1~bpo11+1*
G04 #@! TF.CreationDate,2022-08-16T14:47:16+00:00*
G04 #@! TF.ProjectId,filter_board,66696c74-6572-45f6-926f-6172642e6b69,0*
G04 #@! TF.SameCoordinates,Original*
G04 #@! TF.FileFunction,Soldermask,Top*
G04 #@! TF.FilePolarity,Negative*
%FSLAX46Y46*%
G04 Gerber Fmt 4.6, Leading zero omitted, Abs format (unit mm)*
G04 Created by KiCad (PCBNEW 6.0.5+dfsg-1~bpo11+1) date 2022-08-16 14:47:16*
%MOMM*%
%LPD*%
G01*
G04 APERTURE LIST*
%ADD10O,2.720000X3.240000*%
%ADD11R,1.800000X1.800000*%
%ADD12C,1.800000*%
%ADD13C,1.600000*%
%ADD14R,1.600000X1.600000*%
%ADD15C,1.440000*%
%ADD16O,2.190000X1.740000*%
%ADD17C,2.000000*%
%ADD18C,1.700000*%
%ADD19O,1.740000X2.190000*%
G04 APERTURE END LIST*
D10*
X73380000Y-108070000D03*
X63780000Y-108070000D03*
D11*
X66080000Y-115570000D03*
D12*
X68580000Y-115570000D03*
X71080000Y-115570000D03*
D10*
X73380000Y-50920000D03*
X63780000Y-50920000D03*
D11*
X66080000Y-58420000D03*
D12*
X68580000Y-58420000D03*
X71080000Y-58420000D03*
D10*
X139980000Y-79495000D03*
X149580000Y-79495000D03*
D11*
X142280000Y-86995000D03*
D12*
X144780000Y-86995000D03*
X147280000Y-86995000D03*
D10*
X149580000Y-136645000D03*
X139980000Y-136645000D03*
D11*
X142280000Y-144145000D03*
D12*
X144780000Y-144145000D03*
X147280000Y-144145000D03*
D10*
X225780000Y-50920000D03*
X216180000Y-50920000D03*
D11*
X218480000Y-58420000D03*
D12*
X220980000Y-58420000D03*
X223480000Y-58420000D03*
D10*
X225780000Y-108070000D03*
X216180000Y-108070000D03*
D11*
X218480000Y-115570000D03*
D12*
X220980000Y-115570000D03*
X223480000Y-115570000D03*
D13*
X198105400Y-74318500D03*
X193105400Y-74318500D03*
X171341400Y-72286500D03*
X176341400Y-72286500D03*
D14*
X103376100Y-98450400D03*
D13*
X100876100Y-98450400D03*
X184404000Y-72288400D03*
X179404000Y-72288400D03*
D15*
X106424100Y-119786400D03*
X106424100Y-117246400D03*
X106424100Y-114706400D03*
G36*
G01*
X66465000Y-88030000D02*
X68155000Y-88030000D01*
G75*
G02*
X68405000Y-88280000I0J-250000D01*
G01*
X68405000Y-89520000D01*
G75*
G02*
X68155000Y-89770000I-250000J0D01*
G01*
X66465000Y-89770000D01*
G75*
G02*
X66215000Y-89520000I0J250000D01*
G01*
X66215000Y-88280000D01*
G75*
G02*
X66465000Y-88030000I250000J0D01*
G01*
G37*
D16*
X67310000Y-91440000D03*
X67310000Y-93980000D03*
X67310000Y-96520000D03*
D17*
X90170000Y-51435000D03*
D15*
X180405400Y-119540500D03*
X180405400Y-117000500D03*
X180405400Y-114460500D03*
D17*
X170815000Y-51435000D03*
D15*
X173293400Y-119530500D03*
X173293400Y-116990500D03*
X173293400Y-114450500D03*
D13*
X193105400Y-87526500D03*
X198105400Y-87526500D03*
D17*
X210185000Y-142875000D03*
X160020000Y-51435000D03*
D13*
X89232100Y-73558400D03*
X94232100Y-73558400D03*
G36*
G01*
X223095000Y-139300000D02*
X221405000Y-139300000D01*
G75*
G02*
X221155000Y-139050000I0J250000D01*
G01*
X221155000Y-137810000D01*
G75*
G02*
X221405000Y-137560000I250000J0D01*
G01*
X223095000Y-137560000D01*
G75*
G02*
X223345000Y-137810000I0J-250000D01*
G01*
X223345000Y-139050000D01*
G75*
G02*
X223095000Y-139300000I-250000J0D01*
G01*
G37*
D16*
X222250000Y-135890000D03*
X222250000Y-133350000D03*
X222250000Y-130810000D03*
X222250000Y-128270000D03*
X222250000Y-125730000D03*
X222250000Y-123190000D03*
X222250000Y-120650000D03*
D13*
X112092100Y-87782400D03*
X117092100Y-87782400D03*
D17*
X85090000Y-131445000D03*
X79375000Y-51435000D03*
X210185000Y-120015000D03*
G36*
G01*
X123790000Y-139915000D02*
X122590000Y-139915000D01*
G75*
G02*
X122340000Y-139665000I0J250000D01*
G01*
X122340000Y-138465000D01*
G75*
G02*
X122590000Y-138215000I250000J0D01*
G01*
X123790000Y-138215000D01*
G75*
G02*
X124040000Y-138465000I0J-250000D01*
G01*
X124040000Y-139665000D01*
G75*
G02*
X123790000Y-139915000I-250000J0D01*
G01*
G37*
D18*
X123190000Y-136525000D03*
X120650000Y-139065000D03*
X120650000Y-136525000D03*
X118110000Y-139065000D03*
X118110000Y-136525000D03*
X115570000Y-139065000D03*
X115570000Y-136525000D03*
X113030000Y-139065000D03*
X113030000Y-136525000D03*
D14*
X184977400Y-98194500D03*
D13*
X182477400Y-98194500D03*
X193105400Y-113942500D03*
X198105400Y-113942500D03*
D14*
X184977400Y-106830500D03*
D13*
X182477400Y-106830500D03*
D14*
X103376100Y-107086400D03*
D13*
X100876100Y-107086400D03*
D14*
X184977400Y-89558500D03*
D13*
X182477400Y-89558500D03*
D14*
X135167380Y-137795000D03*
D13*
X132667380Y-137795000D03*
X198105400Y-100734500D03*
X193105400Y-100734500D03*
D15*
X99312100Y-119786400D03*
X99312100Y-117246400D03*
X99312100Y-114706400D03*
D13*
X112092100Y-114198400D03*
X117092100Y-114198400D03*
D14*
X203733400Y-122070500D03*
D13*
X201233400Y-122070500D03*
X117092100Y-100990400D03*
X112092100Y-100990400D03*
D15*
X92200100Y-119786400D03*
X92200100Y-117246400D03*
X92200100Y-114706400D03*
D17*
X85090000Y-120015000D03*
D15*
X187517400Y-119530500D03*
X187517400Y-116990500D03*
X187517400Y-114450500D03*
G36*
G01*
X157880000Y-141180000D02*
X157880000Y-139490000D01*
G75*
G02*
X158130000Y-139240000I250000J0D01*
G01*
X159370000Y-139240000D01*
G75*
G02*
X159620000Y-139490000I0J-250000D01*
G01*
X159620000Y-141180000D01*
G75*
G02*
X159370000Y-141430000I-250000J0D01*
G01*
X158130000Y-141430000D01*
G75*
G02*
X157880000Y-141180000I0J250000D01*
G01*
G37*
D19*
X161290000Y-140335000D03*
X163830000Y-140335000D03*
D14*
X123148100Y-122326400D03*
D13*
X120648100Y-122326400D03*
D17*
X210185000Y-131445000D03*
D14*
X135128000Y-130048000D03*
D13*
X132628000Y-130048000D03*
D17*
X85090000Y-142875000D03*
G36*
G01*
X66465000Y-69615000D02*
X68155000Y-69615000D01*
G75*
G02*
X68405000Y-69865000I0J-250000D01*
G01*
X68405000Y-71105000D01*
G75*
G02*
X68155000Y-71355000I-250000J0D01*
G01*
X66465000Y-71355000D01*
G75*
G02*
X66215000Y-71105000I0J250000D01*
G01*
X66215000Y-69865000D01*
G75*
G02*
X66465000Y-69615000I250000J0D01*
G01*
G37*
D16*
X67310000Y-73025000D03*
X67310000Y-75565000D03*
X67310000Y-78105000D03*
X67310000Y-80645000D03*
D13*
X117092100Y-74574400D03*
X112092100Y-74574400D03*
X102280100Y-73558400D03*
X97280100Y-73558400D03*
D14*
X103376100Y-89814400D03*
D13*
X100876100Y-89814400D03*
M02*
