M48
; DRILL file {KiCad 6.0.5+dfsg-1~bpo11+1} date Tue Aug 16 14:47:16 2022
; FORMAT={-:-/ absolute / metric / decimal}
; #@! TF.CreationDate,2022-08-16T14:47:16+00:00
; #@! TF.GenerationSoftware,Kicad,Pcbnew,6.0.5+dfsg-1~bpo11+1
; #@! TF.FileFunction,Plated,1,2,PTH
FMAT,2
METRIC
; #@! TA.AperFunction,Plated,PTH,ViaDrill
T1C0.400
; #@! TA.AperFunction,Plated,PTH,ViaDrill
T2C0.500
; #@! TA.AperFunction,Plated,PTH,ComponentDrill
T3C0.800
; #@! TA.AperFunction,Plated,PTH,ComponentDrill
T4C1.000
; #@! TA.AperFunction,Plated,PTH,ComponentDrill
T5C1.100
; #@! TA.AperFunction,Plated,PTH,ComponentDrill
T6C1.190
%
G90
G05
T1
X63.5Y-61.595
X63.664Y-62.937
X64.32Y-63.691
X65.278Y-140.208
X65.523Y-63.618
X66.548Y-130.556
X68.58Y-130.556
X70.612Y-64.008
X70.612Y-130.556
X72.644Y-130.556
X76.2Y-99.06
X76.2Y-119.38
X78.74Y-89.916
X82.55Y-87.63
X82.55Y-91.44
X82.55Y-99.06
X82.55Y-109.22
X82.55Y-113.03
X83.82Y-54.61
X83.82Y-67.31
X85.344Y-110.744
X86.36Y-64.262
X88.24Y-108.61
X88.9Y-67.31
X88.9Y-133.35
X98.552Y-64.262
X101.473Y-47.092
X104.14Y-133.35
X106.045Y-63.881
X107.188Y-64.77
X108.712Y-124.968
X111.216Y-66.512
X115.57Y-59.055
X116.205Y-56.515
X117.475Y-62.954
X117.602Y-68.326
X119.215Y-60.866
X120.65Y-62.066
X121.92Y-120.904
X122.682Y-107.696
X125.73Y-54.61
X125.73Y-59.182
X125.73Y-67.31
X125.73Y-87.63
X125.73Y-91.44
X125.73Y-101.6
X125.73Y-105.41
X125.73Y-109.22
X125.73Y-118.11
X125.73Y-124.46
X127.635Y-122.936
X129.54Y-67.31
X129.54Y-87.63
X129.54Y-91.44
X129.54Y-101.6
X129.54Y-105.41
X129.54Y-109.22
X129.54Y-118.11
X129.54Y-124.46
X132.08Y-89.955
X132.334Y-107.696
X133.985Y-103.505
X135.89Y-124.46
X137.414Y-140.716
X141.986Y-61.976
X142.24Y-54.61
X142.24Y-67.31
X143.256Y-92.456
X144.272Y-119.888
X144.882Y-60.377
X147.32Y-61.176
X147.32Y-67.31
X152.908Y-124.46
X154.432Y-116.586
X154.483Y-103.734
X156.083Y-89.408
X156.934Y-107.696
X157.48Y-67.31
X157.48Y-87.63
X157.48Y-91.44
X157.48Y-105.41
X157.48Y-109.22
X157.48Y-118.11
X157.48Y-124.46
X158.045Y-61.411
X159.512Y-123.19
X160.528Y-58.457
X161.29Y-57.658
X162.181Y-60.055
X163.83Y-54.61
X163.83Y-67.31
X163.83Y-87.63
X163.83Y-91.44
X163.83Y-105.41
X163.83Y-109.22
X163.83Y-118.11
X163.83Y-124.46
X168.91Y-98.908
X169.418Y-109.22
X170.18Y-67.31
X172.72Y-133.35
X174.041Y-98.857
X174.523Y-97.053
X174.573Y-57.62
X174.881Y-78.382
X174.955Y-83.388
X178.562Y-101.625
X179.502Y-103.81
X180.899Y-81.229
X182.88Y-58.42
X184.15Y-67.31
X185.877Y-101.575
X185.928Y-75.692
X187.706Y-62.992
X188.506Y-64.046
X189.484Y-62.992
X190.5Y-133.35
X191.516Y-58.42
X192.151Y-66.294
X192.608Y-119.861
X197.002Y-78.588
X197.002Y-91.796
X197.104Y-105.054
X198.374Y-68.072
X199.949Y-105.105
X200.025Y-58.42
X200.043Y-59.63
X200.152Y-78.689
X200.254Y-91.846
X200.66Y-61.176
X201.93Y-60.96
X201.93Y-67.31
X203.2Y-87.63
X203.2Y-91.44
X203.581Y-108.585
X206.375Y-116.84
X206.375Y-127.0
X209.55Y-110.49
X212.09Y-54.61
X212.09Y-67.31
X212.09Y-82.55
X212.09Y-117.475
X214.376Y-62.954
X215.429Y-64.008
X217.17Y-67.31
X217.17Y-82.55
X227.584Y-45.974
T2
X87.26Y-99.593
X87.605Y-78.384
X92.557Y-78.182
X92.558Y-83.718
X92.812Y-99.466
X93.066Y-97.561
X97.13Y-102.387
X98.019Y-104.038
X98.806Y-81.737
X102.743Y-58.649
X103.754Y-102.937
X104.75Y-78.257
X108.712Y-58.649
X111.354Y-120.294
X116.18Y-78.638
X116.18Y-91.846
X116.18Y-105.308
X118.339Y-79.146
X118.847Y-92.227
X118.974Y-105.308
X132.334Y-111.76
X135.001Y-101.346
X135.382Y-111.76
X139.954Y-104.394
X140.208Y-90.932
X140.462Y-98.552
X140.462Y-110.49
X140.462Y-128.016
X140.6Y-107.188
X140.717Y-114.809
X141.732Y-118.618
X145.288Y-114.173
X147.828Y-118.618
X149.098Y-97.282
X149.098Y-128.016
X149.225Y-110.236
X149.352Y-90.932
X149.352Y-115.57
X154.178Y-101.346
X154.178Y-114.046
X156.337Y-111.379
X219.964Y-91.694
X220.218Y-95.123
T3
X89.232Y-73.558
X92.2Y-114.706
X92.2Y-117.246
X92.2Y-119.786
X94.232Y-73.558
X97.28Y-73.558
X99.312Y-114.706
X99.312Y-117.246
X99.312Y-119.786
X100.876Y-89.814
X100.876Y-98.45
X100.876Y-107.086
X102.28Y-73.558
X103.376Y-89.814
X103.376Y-98.45
X103.376Y-107.086
X106.424Y-114.706
X106.424Y-117.246
X106.424Y-119.786
X112.092Y-74.574
X112.092Y-87.782
X112.092Y-100.99
X112.092Y-114.198
X117.092Y-74.574
X117.092Y-87.782
X117.092Y-100.99
X117.092Y-114.198
X120.648Y-122.326
X123.148Y-122.326
X132.628Y-130.048
X132.667Y-137.795
X135.128Y-130.048
X135.167Y-137.795
X171.341Y-72.287
X173.293Y-114.45
X173.293Y-116.99
X173.293Y-119.53
X176.341Y-72.287
X179.404Y-72.288
X180.405Y-114.46
X180.405Y-117.0
X180.405Y-119.54
X182.477Y-89.558
X182.477Y-98.194
X182.477Y-106.831
X184.404Y-72.288
X184.977Y-89.558
X184.977Y-98.194
X184.977Y-106.831
X187.517Y-114.45
X187.517Y-116.99
X187.517Y-119.53
X193.105Y-74.319
X193.105Y-87.526
X193.105Y-100.734
X193.105Y-113.942
X198.105Y-74.319
X198.105Y-87.526
X198.105Y-100.734
X198.105Y-113.942
X201.233Y-122.07
X203.733Y-122.07
T4
X66.08Y-58.42
X66.08Y-115.57
X68.58Y-58.42
X68.58Y-115.57
X71.08Y-58.42
X71.08Y-115.57
X79.375Y-51.435
X85.09Y-120.015
X85.09Y-131.445
X85.09Y-142.875
X90.17Y-51.435
X113.03Y-136.525
X113.03Y-139.065
X115.57Y-136.525
X115.57Y-139.065
X118.11Y-136.525
X118.11Y-139.065
X120.65Y-136.525
X120.65Y-139.065
X123.19Y-136.525
X123.19Y-139.065
X142.28Y-86.995
X142.28Y-144.145
X144.78Y-86.995
X144.78Y-144.145
X147.28Y-86.995
X147.28Y-144.145
X160.02Y-51.435
X170.815Y-51.435
X210.185Y-120.015
X210.185Y-131.445
X210.185Y-142.875
X218.48Y-58.42
X218.48Y-115.57
X220.98Y-58.42
X220.98Y-115.57
X223.48Y-58.42
X223.48Y-115.57
T6
X67.31Y-70.485
X67.31Y-73.025
X67.31Y-75.565
X67.31Y-78.105
X67.31Y-80.645
X67.31Y-88.9
X67.31Y-91.44
X67.31Y-93.98
X67.31Y-96.52
X158.75Y-140.335
X161.29Y-140.335
X163.83Y-140.335
X222.25Y-120.65
X222.25Y-123.19
X222.25Y-125.73
X222.25Y-128.27
X222.25Y-130.81
X222.25Y-133.35
X222.25Y-135.89
X222.25Y-138.43
T5
X63.78Y-51.27G85X63.78Y-50.57
G05
X63.78Y-108.42G85X63.78Y-107.72
G05
X73.38Y-51.27G85X73.38Y-50.57
G05
X73.38Y-108.42G85X73.38Y-107.72
G05
X139.98Y-79.845G85X139.98Y-79.145
G05
X139.98Y-136.995G85X139.98Y-136.295
G05
X149.58Y-79.845G85X149.58Y-79.145
G05
X149.58Y-136.995G85X149.58Y-136.295
G05
X216.18Y-51.27G85X216.18Y-50.57
G05
X216.18Y-108.42G85X216.18Y-107.72
G05
X225.78Y-51.27G85X225.78Y-50.57
G05
X225.78Y-108.42G85X225.78Y-107.72
G05
T0
M30
