  0
SECTION
  2
HEADER
  9
$ANGBASE
  50
0.0
  9
$ANGDIR
  70
1
  9
$MEASUREMENT
  70
1
  0
ENDSEC
  0
SECTION
  2
TABLES
  0
TABLE
  2
LTYPE
  70
4
  0
LTYPE
  5
40F
  2
CONTINUOUS
  70
0
  3
Solid line
  72
65
  73
0
  40
0.0
  0
LTYPE
  5
410
  2
DASHDOT
 70
0
  3
Dash Dot ____ _ ____ _
 72
65
 73
4
 40
2.0
 49
1.25
 49
-0.25
 49
0.25
 49
-0.25
  0
LTYPE
  5
411
  2
DASHED
 70
0
  3
Dashed __ __ __ __ __
 72
65
 73
2
 40
0.75
 49
0.5
 49
-0.25
  0
LTYPE
  5
43B
  2
DOTTED
 70
0
  3
Dotted .  .  .  .
 72
65
 73
2
 40
0.2
 49
0.0
 49
-0.2
  0
ENDTAB
  0
TABLE
  2
STYLE
  70
4
  0
STYLE
  2
KICAD
  70
0
  40
0
  41
1
  42
1
  50
0
  71
0
  3
isocp.shx
  0
STYLE
  2
KICADB
  70
0
  40
0
  41
1
  42
1
  50
0
  71
0
  3
isocp.shx
  0
STYLE
  2
KICADI
  70
0
  40
0
  41
1
  42
1
  50
15
  71
0
  3
isocp.shx
  0
STYLE
  2
KICADBI
  70
0
  40
0
  41
1
  42
1
  50
15
  71
0
  3
isocp.shx
  0
ENDTAB
  0
TABLE
  2
LAYER
  70
1
  0
LAYER
  2
BLACK
  70
0
  62
7
  6
CONTINUOUS
  0
ENDTAB
  0
ENDSEC
  0
SECTION
  2
ENTITIES
0
LINE
8
BLACK
6
CONTINUOUS
10
96.2497
20
-224.178
11
96.2816
21
-224.219
0
LINE
8
BLACK
6
CONTINUOUS
10
96.2816
20
-224.219
11
96.5438
21
-225.005
0
LINE
8
BLACK
6
CONTINUOUS
10
96.5438
20
-225.005
11
96.806
21
-224.219
0
LINE
8
BLACK
6
CONTINUOUS
10
96.806
20
-224.219
11
96.8184
21
-224.196
0
LINE
8
BLACK
6
CONTINUOUS
10
96.8184
20
-224.196
11
96.8621
21
-224.169
0
LINE
8
BLACK
6
CONTINUOUS
10
96.8621
20
-224.169
11
96.9129
21
-224.176
0
LINE
8
BLACK
6
CONTINUOUS
10
96.9129
20
-224.176
11
96.9469
21
-224.215
0
LINE
8
BLACK
6
CONTINUOUS
10
96.9469
20
-224.215
11
96.9483
21
-224.266
0
LINE
8
BLACK
6
CONTINUOUS
10
96.9483
20
-224.266
11
96.615
21
-225.266
0
LINE
8
BLACK
6
CONTINUOUS
10
96.615
20
-225.266
11
96.6026
21
-225.289
0
LINE
8
BLACK
6
CONTINUOUS
10
96.6026
20
-225.289
11
96.6007
21
-225.29
0
LINE
8
BLACK
6
CONTINUOUS
10
96.6007
20
-225.29
11
96.5999
21
-225.292
0
LINE
8
BLACK
6
CONTINUOUS
10
96.5999
20
-225.292
11
96.5791
21
-225.303
0
LINE
8
BLACK
6
CONTINUOUS
10
96.5791
20
-225.303
11
96.5588
21
-225.316
0
LINE
8
BLACK
6
CONTINUOUS
10
96.5588
20
-225.316
11
96.5567
21
-225.316
0
LINE
8
BLACK
6
CONTINUOUS
10
96.5567
20
-225.316
11
96.5548
21
-225.317
0
LINE
8
BLACK
6
CONTINUOUS
10
96.5548
20
-225.317
11
96.5316
21
-225.312
0
LINE
8
BLACK
6
CONTINUOUS
10
96.5316
20
-225.312
11
96.5081
21
-225.308
0
LINE
8
BLACK
6
CONTINUOUS
10
96.5081
20
-225.308
11
96.5067
21
-225.307
0
LINE
8
BLACK
6
CONTINUOUS
10
96.5067
20
-225.307
11
96.5045
21
-225.306
0
LINE
8
BLACK
6
CONTINUOUS
10
96.5045
20
-225.306
11
96.4898
21
-225.288
0
LINE
8
BLACK
6
CONTINUOUS
10
96.4898
20
-225.288
11
96.4741
21
-225.27
0
LINE
8
BLACK
6
CONTINUOUS
10
96.4741
20
-225.27
11
96.474
21
-225.268
0
LINE
8
BLACK
6
CONTINUOUS
10
96.474
20
-225.268
11
96.4727
21
-225.266
0
LINE
8
BLACK
6
CONTINUOUS
10
96.4727
20
-225.266
11
96.1393
21
-224.266
0
LINE
8
BLACK
6
CONTINUOUS
10
96.1393
20
-224.266
11
96.1355
21
-224.24
0
LINE
8
BLACK
6
CONTINUOUS
10
96.1355
20
-224.24
11
96.1544
21
-224.193
0
LINE
8
BLACK
6
CONTINUOUS
10
96.1544
20
-224.193
11
96.1995
21
-224.168
0
LINE
8
BLACK
6
CONTINUOUS
10
96.1995
20
-224.168
11
96.2497
21
-224.178
0
LINE
8
BLACK
6
CONTINUOUS
10
95.7599
20
-224.172
11
95.7634
21
-224.175
0
LINE
8
BLACK
6
CONTINUOUS
10
95.7634
20
-224.175
11
95.7678
21
-224.175
0
LINE
8
BLACK
6
CONTINUOUS
10
95.7678
20
-224.175
11
95.8631
21
-224.223
0
LINE
8
BLACK
6
CONTINUOUS
10
95.8631
20
-224.223
11
95.8811
21
-224.236
0
LINE
8
BLACK
6
CONTINUOUS
10
95.8811
20
-224.236
11
95.8826
21
-224.237
0
LINE
8
BLACK
6
CONTINUOUS
10
95.8826
20
-224.237
11
95.9302
21
-224.285
0
LINE
8
BLACK
6
CONTINUOUS
10
95.9302
20
-224.285
11
95.943
21
-224.303
0
LINE
8
BLACK
6
CONTINUOUS
10
95.943
20
-224.303
11
95.9442
21
-224.304
0
LINE
8
BLACK
6
CONTINUOUS
10
95.9442
20
-224.304
11
95.9918
21
-224.399
0
LINE
8
BLACK
6
CONTINUOUS
10
95.9918
20
-224.399
11
95.9993
21
-224.424
0
LINE
8
BLACK
6
CONTINUOUS
10
95.9993
20
-224.424
11
95.9982
21
-224.429
0
LINE
8
BLACK
6
CONTINUOUS
10
95.9982
20
-224.429
11
95.9998
21
-224.433
0
LINE
8
BLACK
6
CONTINUOUS
10
95.9998
20
-224.433
11
95.9998
21
-224.576
0
LINE
8
BLACK
6
CONTINUOUS
10
95.9998
20
-224.576
11
95.9952
21
-224.601
0
LINE
8
BLACK
6
CONTINUOUS
10
95.9952
20
-224.601
11
95.9924
21
-224.605
0
LINE
8
BLACK
6
CONTINUOUS
10
95.9924
20
-224.605
11
95.9918
21
-224.609
0
LINE
8
BLACK
6
CONTINUOUS
10
95.9918
20
-224.609
11
95.9442
21
-224.704
0
LINE
8
BLACK
6
CONTINUOUS
10
95.9442
20
-224.704
11
95.9309
21
-224.723
0
LINE
8
BLACK
6
CONTINUOUS
10
95.9309
20
-224.723
11
95.9302
21
-224.724
0
LINE
8
BLACK
6
CONTINUOUS
10
95.9302
20
-224.724
11
95.8826
21
-224.772
0
LINE
8
BLACK
6
CONTINUOUS
10
95.8826
20
-224.772
11
95.8642
21
-224.784
0
LINE
8
BLACK
6
CONTINUOUS
10
95.8642
20
-224.784
11
95.8631
21
-224.786
0
LINE
8
BLACK
6
CONTINUOUS
10
95.8631
20
-224.786
11
95.7678
21
-224.833
0
LINE
8
BLACK
6
CONTINUOUS
10
95.7678
20
-224.833
11
95.7429
21
-224.841
0
LINE
8
BLACK
6
CONTINUOUS
10
95.7429
20
-224.841
11
95.7385
21
-224.84
0
LINE
8
BLACK
6
CONTINUOUS
10
95.7385
20
-224.84
11
95.7352
21
-224.841
0
LINE
8
BLACK
6
CONTINUOUS
10
95.7352
20
-224.841
11
95.9862
21
-225.199
0
LINE
8
BLACK
6
CONTINUOUS
10
95.9862
20
-225.199
11
95.9972
21
-225.223
0
LINE
8
BLACK
6
CONTINUOUS
10
95.9972
20
-225.223
11
95.9927
21
-225.274
0
LINE
8
BLACK
6
CONTINUOUS
10
95.9927
20
-225.274
11
95.9564
21
-225.31
0
LINE
8
BLACK
6
CONTINUOUS
10
95.9564
20
-225.31
11
95.9053
21
-225.315
0
LINE
8
BLACK
6
CONTINUOUS
10
95.9053
20
-225.315
11
95.8633
21
-225.285
0
LINE
8
BLACK
6
CONTINUOUS
10
95.8633
20
-225.285
11
95.5524
21
-224.841
0
LINE
8
BLACK
6
CONTINUOUS
10
95.5524
20
-224.841
11
95.4283
21
-224.841
0
LINE
8
BLACK
6
CONTINUOUS
10
95.4283
20
-224.841
11
95.4283
21
-225.242
0
LINE
8
BLACK
6
CONTINUOUS
10
95.4283
20
-225.242
11
95.4238
21
-225.268
0
LINE
8
BLACK
6
CONTINUOUS
10
95.4238
20
-225.268
11
95.3908
21
-225.307
0
LINE
8
BLACK
6
CONTINUOUS
10
95.3908
20
-225.307
11
95.3403
21
-225.316
0
LINE
8
BLACK
6
CONTINUOUS
10
95.3403
20
-225.316
11
95.2959
21
-225.291
0
LINE
8
BLACK
6
CONTINUOUS
10
95.2959
20
-225.291
11
95.2783
21
-225.242
0
LINE
8
BLACK
6
CONTINUOUS
10
95.2783
20
-225.242
11
95.2783
21
-224.242
0
LINE
8
BLACK
6
CONTINUOUS
10
95.2783
20
-224.242
11
95.2801
21
-224.233
0
LINE
8
BLACK
6
CONTINUOUS
10
95.2801
20
-224.233
11
95.2795
21
-224.229
0
LINE
8
BLACK
6
CONTINUOUS
10
95.2795
20
-224.229
11
95.2811
21
-224.226
0
LINE
8
BLACK
6
CONTINUOUS
10
95.2811
20
-224.226
11
95.2829
21
-224.217
0
LINE
8
BLACK
6
CONTINUOUS
10
95.2829
20
-224.217
11
95.2954
21
-224.202
0
LINE
8
BLACK
6
CONTINUOUS
10
95.2954
20
-224.202
11
95.3051
21
-224.185
0
LINE
8
BLACK
6
CONTINUOUS
10
95.3051
20
-224.185
11
95.3115
21
-224.183
0
LINE
8
BLACK
6
CONTINUOUS
10
95.3115
20
-224.183
11
95.3158
21
-224.177
0
LINE
8
BLACK
6
CONTINUOUS
10
95.3158
20
-224.177
11
95.335
21
-224.174
0
LINE
8
BLACK
6
CONTINUOUS
10
95.335
20
-224.174
11
95.3533
21
-224.167
0
LINE
8
BLACK
6
CONTINUOUS
10
95.3533
20
-224.167
11
95.7343
21
-224.167
0
LINE
8
BLACK
6
CONTINUOUS
10
95.7343
20
-224.167
11
95.7599
21
-224.172
0
LINE
8
BLACK
6
CONTINUOUS
10
95.4283
20
-224.317
11
95.4283
21
-224.691
0
LINE
8
BLACK
6
CONTINUOUS
10
95.4283
20
-224.691
11
95.7166
21
-224.691
0
LINE
8
BLACK
6
CONTINUOUS
10
95.7166
20
-224.691
11
95.7851
21
-224.657
0
LINE
8
BLACK
6
CONTINUOUS
10
95.7851
20
-224.657
11
95.8155
21
-224.627
0
LINE
8
BLACK
6
CONTINUOUS
10
95.8155
20
-224.627
11
95.8498
21
-224.558
0
LINE
8
BLACK
6
CONTINUOUS
10
95.8498
20
-224.558
11
95.8498
21
-224.451
0
LINE
8
BLACK
6
CONTINUOUS
10
95.8498
20
-224.451
11
95.8155
21
-224.382
0
LINE
8
BLACK
6
CONTINUOUS
10
95.8155
20
-224.382
11
95.7851
21
-224.352
0
LINE
8
BLACK
6
CONTINUOUS
10
95.7851
20
-224.352
11
95.7166
21
-224.317
0
LINE
8
BLACK
6
CONTINUOUS
10
95.7166
20
-224.317
11
95.4283
21
-224.317
0
LINE
8
BLACK
6
CONTINUOUS
10
97.4367
20
-224.129
11
97.4707
21
-224.167
0
LINE
8
BLACK
6
CONTINUOUS
10
97.4707
20
-224.167
11
97.4721
21
-224.218
0
LINE
8
BLACK
6
CONTINUOUS
10
97.4721
20
-224.218
11
97.2669
21
-224.834
0
LINE
8
BLACK
6
CONTINUOUS
10
97.2669
20
-224.834
11
97.564
21
-224.834
0
LINE
8
BLACK
6
CONTINUOUS
10
97.564
20
-224.834
11
97.564
21
-224.576
0
LINE
8
BLACK
6
CONTINUOUS
10
97.564
20
-224.576
11
97.5686
21
-224.55
0
LINE
8
BLACK
6
CONTINUOUS
10
97.5686
20
-224.55
11
97.6015
21
-224.511
0
LINE
8
BLACK
6
CONTINUOUS
10
97.6015
20
-224.511
11
97.6521
21
-224.502
0
LINE
8
BLACK
6
CONTINUOUS
10
97.6521
20
-224.502
11
97.6965
21
-224.528
0
LINE
8
BLACK
6
CONTINUOUS
10
97.6965
20
-224.528
11
97.714
21
-224.576
0
LINE
8
BLACK
6
CONTINUOUS
10
97.714
20
-224.576
11
97.714
21
-224.834
0
LINE
8
BLACK
6
CONTINUOUS
10
97.714
20
-224.834
11
97.7819
21
-224.834
0
LINE
8
BLACK
6
CONTINUOUS
10
97.7819
20
-224.834
11
97.8076
21
-224.839
0
LINE
8
BLACK
6
CONTINUOUS
10
97.8076
20
-224.839
11
97.8469
21
-224.872
0
LINE
8
BLACK
6
CONTINUOUS
10
97.8469
20
-224.872
11
97.8558
21
-224.922
0
LINE
8
BLACK
6
CONTINUOUS
10
97.8558
20
-224.922
11
97.8301
21
-224.966
0
LINE
8
BLACK
6
CONTINUOUS
10
97.8301
20
-224.966
11
97.7819
21
-224.984
0
LINE
8
BLACK
6
CONTINUOUS
10
97.7819
20
-224.984
11
97.714
21
-224.984
0
LINE
8
BLACK
6
CONTINUOUS
10
97.714
20
-224.984
11
97.714
21
-225.242
0
LINE
8
BLACK
6
CONTINUOUS
10
97.714
20
-225.242
11
97.7095
21
-225.268
0
LINE
8
BLACK
6
CONTINUOUS
10
97.7095
20
-225.268
11
97.6765
21
-225.307
0
LINE
8
BLACK
6
CONTINUOUS
10
97.6765
20
-225.307
11
97.626
21
-225.316
0
LINE
8
BLACK
6
CONTINUOUS
10
97.626
20
-225.316
11
97.5816
21
-225.291
0
LINE
8
BLACK
6
CONTINUOUS
10
97.5816
20
-225.291
11
97.564
21
-225.242
0
LINE
8
BLACK
6
CONTINUOUS
10
97.564
20
-225.242
11
97.564
21
-224.984
0
LINE
8
BLACK
6
CONTINUOUS
10
97.564
20
-224.984
11
97.1629
21
-224.984
0
LINE
8
BLACK
6
CONTINUOUS
10
97.1629
20
-224.984
11
97.1372
21
-224.98
0
LINE
8
BLACK
6
CONTINUOUS
10
97.1372
20
-224.98
11
97.1328
21
-224.976
0
LINE
8
BLACK
6
CONTINUOUS
10
97.1328
20
-224.976
11
97.1271
21
-224.975
0
LINE
8
BLACK
6
CONTINUOUS
10
97.1271
20
-224.975
11
97.1136
21
-224.96
0
LINE
8
BLACK
6
CONTINUOUS
10
97.1136
20
-224.96
11
97.0979
21
-224.947
0
LINE
8
BLACK
6
CONTINUOUS
10
97.0979
20
-224.947
11
97.0969
21
-224.941
0
LINE
8
BLACK
6
CONTINUOUS
10
97.0969
20
-224.941
11
97.0931
21
-224.937
0
LINE
8
BLACK
6
CONTINUOUS
10
97.0931
20
-224.937
11
97.0925
21
-224.916
0
LINE
8
BLACK
6
CONTINUOUS
10
97.0925
20
-224.916
11
97.089
21
-224.896
0
LINE
8
BLACK
6
CONTINUOUS
10
97.089
20
-224.896
11
97.0919
21
-224.891
0
LINE
8
BLACK
6
CONTINUOUS
10
97.0919
20
-224.891
11
97.0917
21
-224.885
0
LINE
8
BLACK
6
CONTINUOUS
10
97.0917
20
-224.885
11
97.3298
21
-224.171
0
LINE
8
BLACK
6
CONTINUOUS
10
97.3298
20
-224.171
11
97.3422
21
-224.148
0
LINE
8
BLACK
6
CONTINUOUS
10
97.3422
20
-224.148
11
97.3859
21
-224.121
0
LINE
8
BLACK
6
CONTINUOUS
10
97.3859
20
-224.121
11
97.4367
21
-224.129
0
LINE
8
BLACK
6
CONTINUOUS
10
104.898
20
-223.952
11
104.88
21
-223.91
0
LINE
8
BLACK
6
CONTINUOUS
10
104.88
20
-223.91
11
104.898
21
-223.868
0
LINE
8
BLACK
6
CONTINUOUS
10
104.898
20
-223.868
11
104.94
21
-223.85
0
LINE
8
BLACK
6
CONTINUOUS
10
104.94
20
-223.85
11
106.37
21
-223.85
0
LINE
8
BLACK
6
CONTINUOUS
10
106.37
20
-223.85
11
106.37
21
-219.19
0
LINE
8
BLACK
6
CONTINUOUS
10
106.37
20
-219.19
11
106.388
21
-219.148
0
LINE
8
BLACK
6
CONTINUOUS
10
106.388
20
-219.148
11
106.43
21
-219.13
0
LINE
8
BLACK
6
CONTINUOUS
10
106.43
20
-219.13
11
106.472
21
-219.148
0
LINE
8
BLACK
6
CONTINUOUS
10
106.472
20
-219.148
11
106.49
21
-219.19
0
LINE
8
BLACK
6
CONTINUOUS
10
106.49
20
-219.19
11
106.49
21
-223.91
0
LINE
8
BLACK
6
CONTINUOUS
10
106.49
20
-223.91
11
106.472
21
-223.952
0
LINE
8
BLACK
6
CONTINUOUS
10
106.472
20
-223.952
11
106.43
21
-223.97
0
LINE
8
BLACK
6
CONTINUOUS
10
106.43
20
-223.97
11
104.94
21
-223.97
0
LINE
8
BLACK
6
CONTINUOUS
10
104.94
20
-223.97
11
104.898
21
-223.952
0
LINE
8
BLACK
6
CONTINUOUS
10
96.7224
20
-219.148
11
96.74
21
-219.19
0
LINE
8
BLACK
6
CONTINUOUS
10
96.74
20
-219.19
11
96.74
21
-223.85
0
LINE
8
BLACK
6
CONTINUOUS
10
96.74
20
-223.85
11
97.87
21
-223.85
0
LINE
8
BLACK
6
CONTINUOUS
10
97.87
20
-223.85
11
97.9124
21
-223.868
0
LINE
8
BLACK
6
CONTINUOUS
10
97.9124
20
-223.868
11
97.93
21
-223.91
0
LINE
8
BLACK
6
CONTINUOUS
10
97.93
20
-223.91
11
97.9124
21
-223.952
0
LINE
8
BLACK
6
CONTINUOUS
10
97.9124
20
-223.952
11
97.87
21
-223.97
0
LINE
8
BLACK
6
CONTINUOUS
10
97.87
20
-223.97
11
96.69
21
-223.97
0
LINE
8
BLACK
6
CONTINUOUS
10
96.69
20
-223.97
11
96.685
21
-223.968
0
LINE
8
BLACK
6
CONTINUOUS
10
96.685
20
-223.968
11
96.68
21
-223.97
0
LINE
8
BLACK
6
CONTINUOUS
10
96.68
20
-223.97
11
96.6376
21
-223.952
0
LINE
8
BLACK
6
CONTINUOUS
10
96.6376
20
-223.952
11
96.62
21
-223.91
0
LINE
8
BLACK
6
CONTINUOUS
10
96.62
20
-223.91
11
96.62
21
-219.19
0
LINE
8
BLACK
6
CONTINUOUS
10
96.62
20
-219.19
11
96.6376
21
-219.148
0
LINE
8
BLACK
6
CONTINUOUS
10
96.6376
20
-219.148
11
96.68
21
-219.13
0
LINE
8
BLACK
6
CONTINUOUS
10
96.68
20
-219.13
11
96.7224
21
-219.148
0
LINE
8
BLACK
6
CONTINUOUS
10
100.812
20
-223.868
11
100.83
21
-223.91
0
LINE
8
BLACK
6
CONTINUOUS
10
100.83
20
-223.91
11
100.812
21
-223.952
0
LINE
8
BLACK
6
CONTINUOUS
10
100.812
20
-223.952
11
100.77
21
-223.97
0
LINE
8
BLACK
6
CONTINUOUS
10
100.77
20
-223.97
11
100.24
21
-223.97
0
LINE
8
BLACK
6
CONTINUOUS
10
100.24
20
-223.97
11
100.198
21
-223.952
0
LINE
8
BLACK
6
CONTINUOUS
10
100.198
20
-223.952
11
100.18
21
-223.91
0
LINE
8
BLACK
6
CONTINUOUS
10
100.18
20
-223.91
11
100.198
21
-223.868
0
LINE
8
BLACK
6
CONTINUOUS
10
100.198
20
-223.868
11
100.24
21
-223.85
0
LINE
8
BLACK
6
CONTINUOUS
10
100.24
20
-223.85
11
100.77
21
-223.85
0
LINE
8
BLACK
6
CONTINUOUS
10
100.77
20
-223.85
11
100.812
21
-223.868
0
LINE
8
BLACK
6
CONTINUOUS
10
103.262
20
-223.868
11
103.28
21
-223.91
0
LINE
8
BLACK
6
CONTINUOUS
10
103.28
20
-223.91
11
103.262
21
-223.952
0
LINE
8
BLACK
6
CONTINUOUS
10
103.262
20
-223.952
11
103.22
21
-223.97
0
LINE
8
BLACK
6
CONTINUOUS
10
103.22
20
-223.97
11
102.39
21
-223.97
0
LINE
8
BLACK
6
CONTINUOUS
10
102.39
20
-223.97
11
102.348
21
-223.952
0
LINE
8
BLACK
6
CONTINUOUS
10
102.348
20
-223.952
11
102.33
21
-223.91
0
LINE
8
BLACK
6
CONTINUOUS
10
102.33
20
-223.91
11
102.348
21
-223.868
0
LINE
8
BLACK
6
CONTINUOUS
10
102.348
20
-223.868
11
102.39
21
-223.85
0
LINE
8
BLACK
6
CONTINUOUS
10
102.39
20
-223.85
11
103.22
21
-223.85
0
LINE
8
BLACK
6
CONTINUOUS
10
103.22
20
-223.85
11
103.262
21
-223.868
0
LINE
8
BLACK
6
CONTINUOUS
10
106.472
20
-212.278
11
106.49
21
-212.32
0
LINE
8
BLACK
6
CONTINUOUS
10
106.49
20
-212.32
11
106.49
21
-215.38
0
LINE
8
BLACK
6
CONTINUOUS
10
106.49
20
-215.38
11
106.472
21
-215.422
0
LINE
8
BLACK
6
CONTINUOUS
10
106.472
20
-215.422
11
106.43
21
-215.44
0
LINE
8
BLACK
6
CONTINUOUS
10
106.43
20
-215.44
11
106.388
21
-215.422
0
LINE
8
BLACK
6
CONTINUOUS
10
106.388
20
-215.422
11
106.37
21
-215.38
0
LINE
8
BLACK
6
CONTINUOUS
10
106.37
20
-215.38
11
106.37
21
-212.38
0
LINE
8
BLACK
6
CONTINUOUS
10
106.37
20
-212.38
11
96.75
21
-212.38
0
LINE
8
BLACK
6
CONTINUOUS
10
96.75
20
-212.38
11
96.75
21
-215.38
0
LINE
8
BLACK
6
CONTINUOUS
10
96.75
20
-215.38
11
96.7324
21
-215.422
0
LINE
8
BLACK
6
CONTINUOUS
10
96.7324
20
-215.422
11
96.69
21
-215.44
0
LINE
8
BLACK
6
CONTINUOUS
10
96.69
20
-215.44
11
96.6476
21
-215.422
0
LINE
8
BLACK
6
CONTINUOUS
10
96.6476
20
-215.422
11
96.63
21
-215.38
0
LINE
8
BLACK
6
CONTINUOUS
10
96.63
20
-215.38
11
96.63
21
-212.32
0
LINE
8
BLACK
6
CONTINUOUS
10
96.63
20
-212.32
11
96.6476
21
-212.278
0
LINE
8
BLACK
6
CONTINUOUS
10
96.6476
20
-212.278
11
96.69
21
-212.26
0
LINE
8
BLACK
6
CONTINUOUS
10
96.69
20
-212.26
11
106.43
21
-212.26
0
LINE
8
BLACK
6
CONTINUOUS
10
106.43
20
-212.26
11
106.472
21
-212.278
0
LINE
8
BLACK
6
CONTINUOUS
10
97.7454
20
-167.019
11
97.7488
21
-167.019
0
LINE
8
BLACK
6
CONTINUOUS
10
97.7488
20
-167.019
11
97.7515
21
-167.02
0
LINE
8
BLACK
6
CONTINUOUS
10
97.7515
20
-167.02
11
97.7599
21
-167.022
0
LINE
8
BLACK
6
CONTINUOUS
10
97.7599
20
-167.022
11
97.7754
21
-167.035
0
LINE
8
BLACK
6
CONTINUOUS
10
97.7754
20
-167.035
11
97.7927
21
-167.045
0
LINE
8
BLACK
6
CONTINUOUS
10
97.7927
20
-167.045
11
97.7947
21
-167.051
0
LINE
8
BLACK
6
CONTINUOUS
10
97.7947
20
-167.051
11
97.7992
21
-167.055
0
LINE
8
BLACK
6
CONTINUOUS
10
97.7992
20
-167.055
11
97.8027
21
-167.075
0
LINE
8
BLACK
6
CONTINUOUS
10
97.8027
20
-167.075
11
97.8093
21
-167.094
0
LINE
8
BLACK
6
CONTINUOUS
10
97.8093
20
-167.094
11
97.8071
21
-167.1
0
LINE
8
BLACK
6
CONTINUOUS
10
97.8071
20
-167.1
11
97.8081
21
-167.105
0
LINE
8
BLACK
6
CONTINUOUS
10
97.8081
20
-167.105
11
97.798
21
-167.123
0
LINE
8
BLACK
6
CONTINUOUS
10
97.798
20
-167.123
11
97.7907
21
-167.142
0
LINE
8
BLACK
6
CONTINUOUS
10
97.7907
20
-167.142
11
97.5632
21
-167.402
0
LINE
8
BLACK
6
CONTINUOUS
10
97.5632
20
-167.402
11
97.5695
21
-167.403
0
LINE
8
BLACK
6
CONTINUOUS
10
97.5695
20
-167.403
11
97.5729
21
-167.406
0
LINE
8
BLACK
6
CONTINUOUS
10
97.5729
20
-167.406
11
97.5773
21
-167.406
0
LINE
8
BLACK
6
CONTINUOUS
10
97.5773
20
-167.406
11
97.6726
21
-167.454
0
LINE
8
BLACK
6
CONTINUOUS
10
97.6726
20
-167.454
11
97.6906
21
-167.467
0
LINE
8
BLACK
6
CONTINUOUS
10
97.6906
20
-167.467
11
97.6921
21
-167.468
0
LINE
8
BLACK
6
CONTINUOUS
10
97.6921
20
-167.468
11
97.7397
21
-167.516
0
LINE
8
BLACK
6
CONTINUOUS
10
97.7397
20
-167.516
11
97.7526
21
-167.534
0
LINE
8
BLACK
6
CONTINUOUS
10
97.7526
20
-167.534
11
97.7537
21
-167.535
0
LINE
8
BLACK
6
CONTINUOUS
10
97.7537
20
-167.535
11
97.8014
21
-167.63
0
LINE
8
BLACK
6
CONTINUOUS
10
97.8014
20
-167.63
11
97.8088
21
-167.655
0
LINE
8
BLACK
6
CONTINUOUS
10
97.8088
20
-167.655
11
97.8078
21
-167.66
0
LINE
8
BLACK
6
CONTINUOUS
10
97.8078
20
-167.66
11
97.8093
21
-167.664
0
LINE
8
BLACK
6
CONTINUOUS
10
97.8093
20
-167.664
11
97.8093
21
-167.902
0
LINE
8
BLACK
6
CONTINUOUS
10
97.8093
20
-167.902
11
97.8048
21
-167.928
0
LINE
8
BLACK
6
CONTINUOUS
10
97.8048
20
-167.928
11
97.8019
21
-167.931
0
LINE
8
BLACK
6
CONTINUOUS
10
97.8019
20
-167.931
11
97.8014
21
-167.935
0
LINE
8
BLACK
6
CONTINUOUS
10
97.8014
20
-167.935
11
97.7537
21
-168.031
0
LINE
8
BLACK
6
CONTINUOUS
10
97.7537
20
-168.031
11
97.7404
21
-168.049
0
LINE
8
BLACK
6
CONTINUOUS
10
97.7404
20
-168.049
11
97.7397
21
-168.05
0
LINE
8
BLACK
6
CONTINUOUS
10
97.7397
20
-168.05
11
97.6921
21
-168.098
0
LINE
8
BLACK
6
CONTINUOUS
10
97.6921
20
-168.098
11
97.6737
21
-168.111
0
LINE
8
BLACK
6
CONTINUOUS
10
97.6737
20
-168.111
11
97.6726
21
-168.112
0
LINE
8
BLACK
6
CONTINUOUS
10
97.6726
20
-168.112
11
97.5773
21
-168.159
0
LINE
8
BLACK
6
CONTINUOUS
10
97.5773
20
-168.159
11
97.5524
21
-168.167
0
LINE
8
BLACK
6
CONTINUOUS
10
97.5524
20
-168.167
11
97.548
21
-168.166
0
LINE
8
BLACK
6
CONTINUOUS
10
97.548
20
-168.166
11
97.5438
21
-168.167
0
LINE
8
BLACK
6
CONTINUOUS
10
97.5438
20
-168.167
11
97.2581
21
-168.167
0
LINE
8
BLACK
6
CONTINUOUS
10
97.2581
20
-168.167
11
97.2324
21
-168.163
0
LINE
8
BLACK
6
CONTINUOUS
10
97.2324
20
-168.163
11
97.229
21
-168.16
0
LINE
8
BLACK
6
CONTINUOUS
10
97.229
20
-168.16
11
97.2246
21
-168.159
0
LINE
8
BLACK
6
CONTINUOUS
10
97.2246
20
-168.159
11
97.1293
21
-168.112
0
LINE
8
BLACK
6
CONTINUOUS
10
97.1293
20
-168.112
11
97.1113
21
-168.098
0
LINE
8
BLACK
6
CONTINUOUS
10
97.1113
20
-168.098
11
97.1098
21
-168.098
0
LINE
8
BLACK
6
CONTINUOUS
10
97.1098
20
-168.098
11
97.0622
21
-168.05
0
LINE
8
BLACK
6
CONTINUOUS
10
97.0622
20
-168.05
11
97.0473
21
-168.029
0
LINE
8
BLACK
6
CONTINUOUS
10
97.0473
20
-168.029
11
97.0428
21
-167.978
0
LINE
8
BLACK
6
CONTINUOUS
10
97.0428
20
-167.978
11
97.0722
21
-167.936
0
LINE
8
BLACK
6
CONTINUOUS
10
97.0722
20
-167.936
11
97.1218
21
-167.922
0
LINE
8
BLACK
6
CONTINUOUS
10
97.1218
20
-167.922
11
97.1683
21
-167.944
0
LINE
8
BLACK
6
CONTINUOUS
10
97.1683
20
-167.944
11
97.2073
21
-167.983
0
LINE
8
BLACK
6
CONTINUOUS
10
97.2073
20
-167.983
11
97.2758
21
-168.017
0
LINE
8
BLACK
6
CONTINUOUS
10
97.2758
20
-168.017
11
97.5261
21
-168.017
0
LINE
8
BLACK
6
CONTINUOUS
10
97.5261
20
-168.017
11
97.5946
21
-167.983
0
LINE
8
BLACK
6
CONTINUOUS
10
97.5946
20
-167.983
11
97.625
21
-167.953
0
LINE
8
BLACK
6
CONTINUOUS
10
97.625
20
-167.953
11
97.6593
21
-167.884
0
LINE
8
BLACK
6
CONTINUOUS
10
97.6593
20
-167.884
11
97.6593
21
-167.682
0
LINE
8
BLACK
6
CONTINUOUS
10
97.6593
20
-167.682
11
97.625
21
-167.613
0
LINE
8
BLACK
6
CONTINUOUS
10
97.625
20
-167.613
11
97.5946
21
-167.583
0
LINE
8
BLACK
6
CONTINUOUS
10
97.5946
20
-167.583
11
97.5261
21
-167.548
0
LINE
8
BLACK
6
CONTINUOUS
10
97.5261
20
-167.548
11
97.401
21
-167.548
0
LINE
8
BLACK
6
CONTINUOUS
10
97.401
20
-167.548
11
97.3898
21
-167.546
0
LINE
8
BLACK
6
CONTINUOUS
10
97.3898
20
-167.546
11
97.3864
21
-167.547
0
LINE
8
BLACK
6
CONTINUOUS
10
97.3864
20
-167.547
11
97.3837
21
-167.545
0
LINE
8
BLACK
6
CONTINUOUS
10
97.3837
20
-167.545
11
97.3753
21
-167.544
0
LINE
8
BLACK
6
CONTINUOUS
10
97.3753
20
-167.544
11
97.3598
21
-167.531
0
LINE
8
BLACK
6
CONTINUOUS
10
97.3598
20
-167.531
11
97.3425
21
-167.52
0
LINE
8
BLACK
6
CONTINUOUS
10
97.3425
20
-167.52
11
97.3406
21
-167.515
0
LINE
8
BLACK
6
CONTINUOUS
10
97.3406
20
-167.515
11
97.336
21
-167.511
0
LINE
8
BLACK
6
CONTINUOUS
10
97.336
20
-167.511
11
97.3325
21
-167.491
0
LINE
8
BLACK
6
CONTINUOUS
10
97.3325
20
-167.491
11
97.326
21
-167.472
0
LINE
8
BLACK
6
CONTINUOUS
10
97.326
20
-167.472
11
97.3281
21
-167.466
0
LINE
8
BLACK
6
CONTINUOUS
10
97.3281
20
-167.466
11
97.3271
21
-167.46
0
LINE
8
BLACK
6
CONTINUOUS
10
97.3271
20
-167.46
11
97.3372
21
-167.443
0
LINE
8
BLACK
6
CONTINUOUS
10
97.3372
20
-167.443
11
97.3445
21
-167.424
0
LINE
8
BLACK
6
CONTINUOUS
10
97.3445
20
-167.424
11
97.569
21
-167.167
0
LINE
8
BLACK
6
CONTINUOUS
10
97.569
20
-167.167
11
97.1152
21
-167.167
0
LINE
8
BLACK
6
CONTINUOUS
10
97.1152
20
-167.167
11
97.0896
21
-167.163
0
LINE
8
BLACK
6
CONTINUOUS
10
97.0896
20
-167.163
11
97.0503
21
-167.13
0
LINE
8
BLACK
6
CONTINUOUS
10
97.0503
20
-167.13
11
97.0414
21
-167.079
0
LINE
8
BLACK
6
CONTINUOUS
10
97.0414
20
-167.079
11
97.067
21
-167.035
0
LINE
8
BLACK
6
CONTINUOUS
10
97.067
20
-167.035
11
97.1152
21
-167.017
0
LINE
8
BLACK
6
CONTINUOUS
10
97.1152
20
-167.017
11
97.7343
21
-167.017
0
LINE
8
BLACK
6
CONTINUOUS
10
97.7343
20
-167.017
11
97.7454
21
-167.019
0
LINE
8
BLACK
6
CONTINUOUS
10
96.2497
20
-167.028
11
96.2816
21
-167.069
0
LINE
8
BLACK
6
CONTINUOUS
10
96.2816
20
-167.069
11
96.5438
21
-167.855
0
LINE
8
BLACK
6
CONTINUOUS
10
96.5438
20
-167.855
11
96.806
21
-167.069
0
LINE
8
BLACK
6
CONTINUOUS
10
96.806
20
-167.069
11
96.8184
21
-167.046
0
LINE
8
BLACK
6
CONTINUOUS
10
96.8184
20
-167.046
11
96.8621
21
-167.019
0
LINE
8
BLACK
6
CONTINUOUS
10
96.8621
20
-167.019
11
96.9129
21
-167.026
0
LINE
8
BLACK
6
CONTINUOUS
10
96.9129
20
-167.026
11
96.9469
21
-167.065
0
LINE
8
BLACK
6
CONTINUOUS
10
96.9469
20
-167.065
11
96.9483
21
-167.116
0
LINE
8
BLACK
6
CONTINUOUS
10
96.9483
20
-167.116
11
96.615
21
-168.116
0
LINE
8
BLACK
6
CONTINUOUS
10
96.615
20
-168.116
11
96.6026
21
-168.139
0
LINE
8
BLACK
6
CONTINUOUS
10
96.6026
20
-168.139
11
96.6007
21
-168.14
0
LINE
8
BLACK
6
CONTINUOUS
10
96.6007
20
-168.14
11
96.5999
21
-168.142
0
LINE
8
BLACK
6
CONTINUOUS
10
96.5999
20
-168.142
11
96.5791
21
-168.153
0
LINE
8
BLACK
6
CONTINUOUS
10
96.5791
20
-168.153
11
96.5588
21
-168.166
0
LINE
8
BLACK
6
CONTINUOUS
10
96.5588
20
-168.166
11
96.5567
21
-168.166
0
LINE
8
BLACK
6
CONTINUOUS
10
96.5567
20
-168.166
11
96.5548
21
-168.167
0
LINE
8
BLACK
6
CONTINUOUS
10
96.5548
20
-168.167
11
96.5316
21
-168.162
0
LINE
8
BLACK
6
CONTINUOUS
10
96.5316
20
-168.162
11
96.5081
21
-168.158
0
LINE
8
BLACK
6
CONTINUOUS
10
96.5081
20
-168.158
11
96.5067
21
-168.157
0
LINE
8
BLACK
6
CONTINUOUS
10
96.5067
20
-168.157
11
96.5045
21
-168.156
0
LINE
8
BLACK
6
CONTINUOUS
10
96.5045
20
-168.156
11
96.4898
21
-168.138
0
LINE
8
BLACK
6
CONTINUOUS
10
96.4898
20
-168.138
11
96.4741
21
-168.12
0
LINE
8
BLACK
6
CONTINUOUS
10
96.4741
20
-168.12
11
96.474
21
-168.118
0
LINE
8
BLACK
6
CONTINUOUS
10
96.474
20
-168.118
11
96.4727
21
-168.116
0
LINE
8
BLACK
6
CONTINUOUS
10
96.4727
20
-168.116
11
96.1393
21
-167.116
0
LINE
8
BLACK
6
CONTINUOUS
10
96.1393
20
-167.116
11
96.1355
21
-167.09
0
LINE
8
BLACK
6
CONTINUOUS
10
96.1355
20
-167.09
11
96.1544
21
-167.043
0
LINE
8
BLACK
6
CONTINUOUS
10
96.1544
20
-167.043
11
96.1995
21
-167.018
0
LINE
8
BLACK
6
CONTINUOUS
10
96.1995
20
-167.018
11
96.2497
21
-167.028
0
LINE
8
BLACK
6
CONTINUOUS
10
95.7599
20
-167.022
11
95.7634
21
-167.025
0
LINE
8
BLACK
6
CONTINUOUS
10
95.7634
20
-167.025
11
95.7678
21
-167.025
0
LINE
8
BLACK
6
CONTINUOUS
10
95.7678
20
-167.025
11
95.8631
21
-167.073
0
LINE
8
BLACK
6
CONTINUOUS
10
95.8631
20
-167.073
11
95.8811
21
-167.086
0
LINE
8
BLACK
6
CONTINUOUS
10
95.8811
20
-167.086
11
95.8826
21
-167.087
0
LINE
8
BLACK
6
CONTINUOUS
10
95.8826
20
-167.087
11
95.9302
21
-167.135
0
LINE
8
BLACK
6
CONTINUOUS
10
95.9302
20
-167.135
11
95.943
21
-167.153
0
LINE
8
BLACK
6
CONTINUOUS
10
95.943
20
-167.153
11
95.9442
21
-167.154
0
LINE
8
BLACK
6
CONTINUOUS
10
95.9442
20
-167.154
11
95.9918
21
-167.249
0
LINE
8
BLACK
6
CONTINUOUS
10
95.9918
20
-167.249
11
95.9993
21
-167.274
0
LINE
8
BLACK
6
CONTINUOUS
10
95.9993
20
-167.274
11
95.9982
21
-167.279
0
LINE
8
BLACK
6
CONTINUOUS
10
95.9982
20
-167.279
11
95.9998
21
-167.283
0
LINE
8
BLACK
6
CONTINUOUS
10
95.9998
20
-167.283
11
95.9998
21
-167.426
0
LINE
8
BLACK
6
CONTINUOUS
10
95.9998
20
-167.426
11
95.9952
21
-167.451
0
LINE
8
BLACK
6
CONTINUOUS
10
95.9952
20
-167.451
11
95.9924
21
-167.455
0
LINE
8
BLACK
6
CONTINUOUS
10
95.9924
20
-167.455
11
95.9918
21
-167.459
0
LINE
8
BLACK
6
CONTINUOUS
10
95.9918
20
-167.459
11
95.9442
21
-167.554
0
LINE
8
BLACK
6
CONTINUOUS
10
95.9442
20
-167.554
11
95.9309
21
-167.573
0
LINE
8
BLACK
6
CONTINUOUS
10
95.9309
20
-167.573
11
95.9302
21
-167.574
0
LINE
8
BLACK
6
CONTINUOUS
10
95.9302
20
-167.574
11
95.8826
21
-167.622
0
LINE
8
BLACK
6
CONTINUOUS
10
95.8826
20
-167.622
11
95.8642
21
-167.634
0
LINE
8
BLACK
6
CONTINUOUS
10
95.8642
20
-167.634
11
95.8631
21
-167.636
0
LINE
8
BLACK
6
CONTINUOUS
10
95.8631
20
-167.636
11
95.7678
21
-167.683
0
LINE
8
BLACK
6
CONTINUOUS
10
95.7678
20
-167.683
11
95.7429
21
-167.691
0
LINE
8
BLACK
6
CONTINUOUS
10
95.7429
20
-167.691
11
95.7385
21
-167.69
0
LINE
8
BLACK
6
CONTINUOUS
10
95.7385
20
-167.69
11
95.7352
21
-167.691
0
LINE
8
BLACK
6
CONTINUOUS
10
95.7352
20
-167.691
11
95.9862
21
-168.049
0
LINE
8
BLACK
6
CONTINUOUS
10
95.9862
20
-168.049
11
95.9972
21
-168.073
0
LINE
8
BLACK
6
CONTINUOUS
10
95.9972
20
-168.073
11
95.9927
21
-168.124
0
LINE
8
BLACK
6
CONTINUOUS
10
95.9927
20
-168.124
11
95.9564
21
-168.16
0
LINE
8
BLACK
6
CONTINUOUS
10
95.9564
20
-168.16
11
95.9053
21
-168.165
0
LINE
8
BLACK
6
CONTINUOUS
10
95.9053
20
-168.165
11
95.8633
21
-168.135
0
LINE
8
BLACK
6
CONTINUOUS
10
95.8633
20
-168.135
11
95.5524
21
-167.691
0
LINE
8
BLACK
6
CONTINUOUS
10
95.5524
20
-167.691
11
95.4283
21
-167.691
0
LINE
8
BLACK
6
CONTINUOUS
10
95.4283
20
-167.691
11
95.4283
21
-168.092
0
LINE
8
BLACK
6
CONTINUOUS
10
95.4283
20
-168.092
11
95.4238
21
-168.118
0
LINE
8
BLACK
6
CONTINUOUS
10
95.4238
20
-168.118
11
95.3908
21
-168.157
0
LINE
8
BLACK
6
CONTINUOUS
10
95.3908
20
-168.157
11
95.3403
21
-168.166
0
LINE
8
BLACK
6
CONTINUOUS
10
95.3403
20
-168.166
11
95.2959
21
-168.141
0
LINE
8
BLACK
6
CONTINUOUS
10
95.2959
20
-168.141
11
95.2783
21
-168.092
0
LINE
8
BLACK
6
CONTINUOUS
10
95.2783
20
-168.092
11
95.2783
21
-167.092
0
LINE
8
BLACK
6
CONTINUOUS
10
95.2783
20
-167.092
11
95.2801
21
-167.083
0
LINE
8
BLACK
6
CONTINUOUS
10
95.2801
20
-167.083
11
95.2795
21
-167.079
0
LINE
8
BLACK
6
CONTINUOUS
10
95.2795
20
-167.079
11
95.2811
21
-167.076
0
LINE
8
BLACK
6
CONTINUOUS
10
95.2811
20
-167.076
11
95.2829
21
-167.067
0
LINE
8
BLACK
6
CONTINUOUS
10
95.2829
20
-167.067
11
95.2954
21
-167.052
0
LINE
8
BLACK
6
CONTINUOUS
10
95.2954
20
-167.052
11
95.3051
21
-167.035
0
LINE
8
BLACK
6
CONTINUOUS
10
95.3051
20
-167.035
11
95.3115
21
-167.033
0
LINE
8
BLACK
6
CONTINUOUS
10
95.3115
20
-167.033
11
95.3158
21
-167.027
0
LINE
8
BLACK
6
CONTINUOUS
10
95.3158
20
-167.027
11
95.335
21
-167.024
0
LINE
8
BLACK
6
CONTINUOUS
10
95.335
20
-167.024
11
95.3533
21
-167.017
0
LINE
8
BLACK
6
CONTINUOUS
10
95.3533
20
-167.017
11
95.7343
21
-167.017
0
LINE
8
BLACK
6
CONTINUOUS
10
95.7343
20
-167.017
11
95.7599
21
-167.022
0
LINE
8
BLACK
6
CONTINUOUS
10
95.4283
20
-167.167
11
95.4283
21
-167.541
0
LINE
8
BLACK
6
CONTINUOUS
10
95.4283
20
-167.541
11
95.7166
21
-167.541
0
LINE
8
BLACK
6
CONTINUOUS
10
95.7166
20
-167.541
11
95.7851
21
-167.507
0
LINE
8
BLACK
6
CONTINUOUS
10
95.7851
20
-167.507
11
95.8155
21
-167.477
0
LINE
8
BLACK
6
CONTINUOUS
10
95.8155
20
-167.477
11
95.8498
21
-167.408
0
LINE
8
BLACK
6
CONTINUOUS
10
95.8498
20
-167.408
11
95.8498
21
-167.301
0
LINE
8
BLACK
6
CONTINUOUS
10
95.8498
20
-167.301
11
95.8155
21
-167.232
0
LINE
8
BLACK
6
CONTINUOUS
10
95.8155
20
-167.232
11
95.7851
21
-167.202
0
LINE
8
BLACK
6
CONTINUOUS
10
95.7851
20
-167.202
11
95.7166
21
-167.167
0
LINE
8
BLACK
6
CONTINUOUS
10
95.7166
20
-167.167
11
95.4283
21
-167.167
0
LINE
8
BLACK
6
CONTINUOUS
10
100.812
20
-166.718
11
100.83
21
-166.76
0
LINE
8
BLACK
6
CONTINUOUS
10
100.83
20
-166.76
11
100.812
21
-166.802
0
LINE
8
BLACK
6
CONTINUOUS
10
100.812
20
-166.802
11
100.77
21
-166.82
0
LINE
8
BLACK
6
CONTINUOUS
10
100.77
20
-166.82
11
100.24
21
-166.82
0
LINE
8
BLACK
6
CONTINUOUS
10
100.24
20
-166.82
11
100.198
21
-166.802
0
LINE
8
BLACK
6
CONTINUOUS
10
100.198
20
-166.802
11
100.18
21
-166.76
0
LINE
8
BLACK
6
CONTINUOUS
10
100.18
20
-166.76
11
100.198
21
-166.718
0
LINE
8
BLACK
6
CONTINUOUS
10
100.198
20
-166.718
11
100.24
21
-166.7
0
LINE
8
BLACK
6
CONTINUOUS
10
100.24
20
-166.7
11
100.77
21
-166.7
0
LINE
8
BLACK
6
CONTINUOUS
10
100.77
20
-166.7
11
100.812
21
-166.718
0
LINE
8
BLACK
6
CONTINUOUS
10
104.898
20
-166.802
11
104.88
21
-166.76
0
LINE
8
BLACK
6
CONTINUOUS
10
104.88
20
-166.76
11
104.898
21
-166.718
0
LINE
8
BLACK
6
CONTINUOUS
10
104.898
20
-166.718
11
104.94
21
-166.7
0
LINE
8
BLACK
6
CONTINUOUS
10
104.94
20
-166.7
11
106.37
21
-166.7
0
LINE
8
BLACK
6
CONTINUOUS
10
106.37
20
-166.7
11
106.37
21
-162.04
0
LINE
8
BLACK
6
CONTINUOUS
10
106.37
20
-162.04
11
106.388
21
-161.998
0
LINE
8
BLACK
6
CONTINUOUS
10
106.388
20
-161.998
11
106.43
21
-161.98
0
LINE
8
BLACK
6
CONTINUOUS
10
106.43
20
-161.98
11
106.472
21
-161.998
0
LINE
8
BLACK
6
CONTINUOUS
10
106.472
20
-161.998
11
106.49
21
-162.04
0
LINE
8
BLACK
6
CONTINUOUS
10
106.49
20
-162.04
11
106.49
21
-166.76
0
LINE
8
BLACK
6
CONTINUOUS
10
106.49
20
-166.76
11
106.472
21
-166.802
0
LINE
8
BLACK
6
CONTINUOUS
10
106.472
20
-166.802
11
106.43
21
-166.82
0
LINE
8
BLACK
6
CONTINUOUS
10
106.43
20
-166.82
11
104.94
21
-166.82
0
LINE
8
BLACK
6
CONTINUOUS
10
104.94
20
-166.82
11
104.898
21
-166.802
0
LINE
8
BLACK
6
CONTINUOUS
10
96.7224
20
-161.998
11
96.74
21
-162.04
0
LINE
8
BLACK
6
CONTINUOUS
10
96.74
20
-162.04
11
96.74
21
-166.7
0
LINE
8
BLACK
6
CONTINUOUS
10
96.74
20
-166.7
11
97.87
21
-166.7
0
LINE
8
BLACK
6
CONTINUOUS
10
97.87
20
-166.7
11
97.9124
21
-166.718
0
LINE
8
BLACK
6
CONTINUOUS
10
97.9124
20
-166.718
11
97.93
21
-166.76
0
LINE
8
BLACK
6
CONTINUOUS
10
97.93
20
-166.76
11
97.9124
21
-166.802
0
LINE
8
BLACK
6
CONTINUOUS
10
97.9124
20
-166.802
11
97.87
21
-166.82
0
LINE
8
BLACK
6
CONTINUOUS
10
97.87
20
-166.82
11
96.69
21
-166.82
0
LINE
8
BLACK
6
CONTINUOUS
10
96.69
20
-166.82
11
96.685
21
-166.818
0
LINE
8
BLACK
6
CONTINUOUS
10
96.685
20
-166.818
11
96.68
21
-166.82
0
LINE
8
BLACK
6
CONTINUOUS
10
96.68
20
-166.82
11
96.6376
21
-166.802
0
LINE
8
BLACK
6
CONTINUOUS
10
96.6376
20
-166.802
11
96.62
21
-166.76
0
LINE
8
BLACK
6
CONTINUOUS
10
96.62
20
-166.76
11
96.62
21
-162.04
0
LINE
8
BLACK
6
CONTINUOUS
10
96.62
20
-162.04
11
96.6376
21
-161.998
0
LINE
8
BLACK
6
CONTINUOUS
10
96.6376
20
-161.998
11
96.68
21
-161.98
0
LINE
8
BLACK
6
CONTINUOUS
10
96.68
20
-161.98
11
96.7224
21
-161.998
0
LINE
8
BLACK
6
CONTINUOUS
10
103.262
20
-166.718
11
103.28
21
-166.76
0
LINE
8
BLACK
6
CONTINUOUS
10
103.28
20
-166.76
11
103.262
21
-166.802
0
LINE
8
BLACK
6
CONTINUOUS
10
103.262
20
-166.802
11
103.22
21
-166.82
0
LINE
8
BLACK
6
CONTINUOUS
10
103.22
20
-166.82
11
102.39
21
-166.82
0
LINE
8
BLACK
6
CONTINUOUS
10
102.39
20
-166.82
11
102.348
21
-166.802
0
LINE
8
BLACK
6
CONTINUOUS
10
102.348
20
-166.802
11
102.33
21
-166.76
0
LINE
8
BLACK
6
CONTINUOUS
10
102.33
20
-166.76
11
102.348
21
-166.718
0
LINE
8
BLACK
6
CONTINUOUS
10
102.348
20
-166.718
11
102.39
21
-166.7
0
LINE
8
BLACK
6
CONTINUOUS
10
102.39
20
-166.7
11
103.22
21
-166.7
0
LINE
8
BLACK
6
CONTINUOUS
10
103.22
20
-166.7
11
103.262
21
-166.718
0
LINE
8
BLACK
6
CONTINUOUS
10
106.472
20
-155.128
11
106.49
21
-155.17
0
LINE
8
BLACK
6
CONTINUOUS
10
106.49
20
-155.17
11
106.49
21
-158.23
0
LINE
8
BLACK
6
CONTINUOUS
10
106.49
20
-158.23
11
106.472
21
-158.272
0
LINE
8
BLACK
6
CONTINUOUS
10
106.472
20
-158.272
11
106.43
21
-158.29
0
LINE
8
BLACK
6
CONTINUOUS
10
106.43
20
-158.29
11
106.388
21
-158.272
0
LINE
8
BLACK
6
CONTINUOUS
10
106.388
20
-158.272
11
106.37
21
-158.23
0
LINE
8
BLACK
6
CONTINUOUS
10
106.37
20
-158.23
11
106.37
21
-155.23
0
LINE
8
BLACK
6
CONTINUOUS
10
106.37
20
-155.23
11
96.75
21
-155.23
0
LINE
8
BLACK
6
CONTINUOUS
10
96.75
20
-155.23
11
96.75
21
-158.23
0
LINE
8
BLACK
6
CONTINUOUS
10
96.75
20
-158.23
11
96.7324
21
-158.272
0
LINE
8
BLACK
6
CONTINUOUS
10
96.7324
20
-158.272
11
96.69
21
-158.29
0
LINE
8
BLACK
6
CONTINUOUS
10
96.69
20
-158.29
11
96.6476
21
-158.272
0
LINE
8
BLACK
6
CONTINUOUS
10
96.6476
20
-158.272
11
96.63
21
-158.23
0
LINE
8
BLACK
6
CONTINUOUS
10
96.63
20
-158.23
11
96.63
21
-155.17
0
LINE
8
BLACK
6
CONTINUOUS
10
96.63
20
-155.17
11
96.6476
21
-155.128
0
LINE
8
BLACK
6
CONTINUOUS
10
96.6476
20
-155.128
11
96.69
21
-155.11
0
LINE
8
BLACK
6
CONTINUOUS
10
96.69
20
-155.11
11
106.43
21
-155.11
0
LINE
8
BLACK
6
CONTINUOUS
10
106.43
20
-155.11
11
106.472
21
-155.128
0
LINE
8
BLACK
6
CONTINUOUS
10
94.3958
20
-110.417
11
94.3992
21
-110.417
0
LINE
8
BLACK
6
CONTINUOUS
10
94.3992
20
-110.417
11
94.4019
21
-110.418
0
LINE
8
BLACK
6
CONTINUOUS
10
94.4019
20
-110.418
11
94.4103
21
-110.42
0
LINE
8
BLACK
6
CONTINUOUS
10
94.4103
20
-110.42
11
94.4258
21
-110.433
0
LINE
8
BLACK
6
CONTINUOUS
10
94.4258
20
-110.433
11
94.4431
21
-110.443
0
LINE
8
BLACK
6
CONTINUOUS
10
94.4431
20
-110.443
11
94.445
21
-110.449
0
LINE
8
BLACK
6
CONTINUOUS
10
94.445
20
-110.449
11
94.4496
21
-110.453
0
LINE
8
BLACK
6
CONTINUOUS
10
94.4496
20
-110.453
11
94.4531
21
-110.473
0
LINE
8
BLACK
6
CONTINUOUS
10
94.4531
20
-110.473
11
94.4596
21
-110.492
0
LINE
8
BLACK
6
CONTINUOUS
10
94.4596
20
-110.492
11
94.4575
21
-110.498
0
LINE
8
BLACK
6
CONTINUOUS
10
94.4575
20
-110.498
11
94.4585
21
-110.503
0
LINE
8
BLACK
6
CONTINUOUS
10
94.4585
20
-110.503
11
94.4484
21
-110.521
0
LINE
8
BLACK
6
CONTINUOUS
10
94.4484
20
-110.521
11
94.4411
21
-110.54
0
LINE
8
BLACK
6
CONTINUOUS
10
94.4411
20
-110.54
11
94.2136
21
-110.8
0
LINE
8
BLACK
6
CONTINUOUS
10
94.2136
20
-110.8
11
94.2198
21
-110.801
0
LINE
8
BLACK
6
CONTINUOUS
10
94.2198
20
-110.801
11
94.2233
21
-110.804
0
LINE
8
BLACK
6
CONTINUOUS
10
94.2233
20
-110.804
11
94.2277
21
-110.804
0
LINE
8
BLACK
6
CONTINUOUS
10
94.2277
20
-110.804
11
94.323
21
-110.852
0
LINE
8
BLACK
6
CONTINUOUS
10
94.323
20
-110.852
11
94.341
21
-110.865
0
LINE
8
BLACK
6
CONTINUOUS
10
94.341
20
-110.865
11
94.3425
21
-110.866
0
LINE
8
BLACK
6
CONTINUOUS
10
94.3425
20
-110.866
11
94.3901
21
-110.914
0
LINE
8
BLACK
6
CONTINUOUS
10
94.3901
20
-110.914
11
94.4029
21
-110.932
0
LINE
8
BLACK
6
CONTINUOUS
10
94.4029
20
-110.932
11
94.4041
21
-110.933
0
LINE
8
BLACK
6
CONTINUOUS
10
94.4041
20
-110.933
11
94.4517
21
-111.028
0
LINE
8
BLACK
6
CONTINUOUS
10
94.4517
20
-111.028
11
94.4592
21
-111.053
0
LINE
8
BLACK
6
CONTINUOUS
10
94.4592
20
-111.053
11
94.4581
21
-111.058
0
LINE
8
BLACK
6
CONTINUOUS
10
94.4581
20
-111.058
11
94.4597
21
-111.062
0
LINE
8
BLACK
6
CONTINUOUS
10
94.4597
20
-111.062
11
94.4597
21
-111.3
0
LINE
8
BLACK
6
CONTINUOUS
10
94.4597
20
-111.3
11
94.4551
21
-111.326
0
LINE
8
BLACK
6
CONTINUOUS
10
94.4551
20
-111.326
11
94.4523
21
-111.329
0
LINE
8
BLACK
6
CONTINUOUS
10
94.4523
20
-111.329
11
94.4517
21
-111.333
0
LINE
8
BLACK
6
CONTINUOUS
10
94.4517
20
-111.333
11
94.4041
21
-111.429
0
LINE
8
BLACK
6
CONTINUOUS
10
94.4041
20
-111.429
11
94.3908
21
-111.447
0
LINE
8
BLACK
6
CONTINUOUS
10
94.3908
20
-111.447
11
94.3901
21
-111.448
0
LINE
8
BLACK
6
CONTINUOUS
10
94.3901
20
-111.448
11
94.3425
21
-111.496
0
LINE
8
BLACK
6
CONTINUOUS
10
94.3425
20
-111.496
11
94.3241
21
-111.509
0
LINE
8
BLACK
6
CONTINUOUS
10
94.3241
20
-111.509
11
94.323
21
-111.51
0
LINE
8
BLACK
6
CONTINUOUS
10
94.323
20
-111.51
11
94.2277
21
-111.557
0
LINE
8
BLACK
6
CONTINUOUS
10
94.2277
20
-111.557
11
94.2028
21
-111.565
0
LINE
8
BLACK
6
CONTINUOUS
10
94.2028
20
-111.565
11
94.1984
21
-111.564
0
LINE
8
BLACK
6
CONTINUOUS
10
94.1984
20
-111.564
11
94.1942
21
-111.565
0
LINE
8
BLACK
6
CONTINUOUS
10
94.1942
20
-111.565
11
93.9085
21
-111.565
0
LINE
8
BLACK
6
CONTINUOUS
10
93.9085
20
-111.565
11
93.8828
21
-111.561
0
LINE
8
BLACK
6
CONTINUOUS
10
93.8828
20
-111.561
11
93.8794
21
-111.558
0
LINE
8
BLACK
6
CONTINUOUS
10
93.8794
20
-111.558
11
93.8749
21
-111.557
0
LINE
8
BLACK
6
CONTINUOUS
10
93.8749
20
-111.557
11
93.7797
21
-111.51
0
LINE
8
BLACK
6
CONTINUOUS
10
93.7797
20
-111.51
11
93.7617
21
-111.496
0
LINE
8
BLACK
6
CONTINUOUS
10
93.7617
20
-111.496
11
93.7602
21
-111.496
0
LINE
8
BLACK
6
CONTINUOUS
10
93.7602
20
-111.496
11
93.7126
21
-111.448
0
LINE
8
BLACK
6
CONTINUOUS
10
93.7126
20
-111.448
11
93.6976
21
-111.427
0
LINE
8
BLACK
6
CONTINUOUS
10
93.6976
20
-111.427
11
93.6932
21
-111.376
0
LINE
8
BLACK
6
CONTINUOUS
10
93.6932
20
-111.376
11
93.7226
21
-111.334
0
LINE
8
BLACK
6
CONTINUOUS
10
93.7226
20
-111.334
11
93.7722
21
-111.32
0
LINE
8
BLACK
6
CONTINUOUS
10
93.7722
20
-111.32
11
93.8187
21
-111.342
0
LINE
8
BLACK
6
CONTINUOUS
10
93.8187
20
-111.342
11
93.8577
21
-111.381
0
LINE
8
BLACK
6
CONTINUOUS
10
93.8577
20
-111.381
11
93.9262
21
-111.415
0
LINE
8
BLACK
6
CONTINUOUS
10
93.9262
20
-111.415
11
94.1765
21
-111.415
0
LINE
8
BLACK
6
CONTINUOUS
10
94.1765
20
-111.415
11
94.245
21
-111.381
0
LINE
8
BLACK
6
CONTINUOUS
10
94.245
20
-111.381
11
94.2754
21
-111.351
0
LINE
8
BLACK
6
CONTINUOUS
10
94.2754
20
-111.351
11
94.3097
21
-111.282
0
LINE
8
BLACK
6
CONTINUOUS
10
94.3097
20
-111.282
11
94.3097
21
-111.08
0
LINE
8
BLACK
6
CONTINUOUS
10
94.3097
20
-111.08
11
94.2754
21
-111.011
0
LINE
8
BLACK
6
CONTINUOUS
10
94.2754
20
-111.011
11
94.245
21
-110.981
0
LINE
8
BLACK
6
CONTINUOUS
10
94.245
20
-110.981
11
94.1765
21
-110.946
0
LINE
8
BLACK
6
CONTINUOUS
10
94.1765
20
-110.946
11
94.0513
21
-110.946
0
LINE
8
BLACK
6
CONTINUOUS
10
94.0513
20
-110.946
11
94.0402
21
-110.944
0
LINE
8
BLACK
6
CONTINUOUS
10
94.0402
20
-110.944
11
94.0368
21
-110.945
0
LINE
8
BLACK
6
CONTINUOUS
10
94.0368
20
-110.945
11
94.0341
21
-110.943
0
LINE
8
BLACK
6
CONTINUOUS
10
94.0341
20
-110.943
11
94.0257
21
-110.942
0
LINE
8
BLACK
6
CONTINUOUS
10
94.0257
20
-110.942
11
94.0102
21
-110.929
0
LINE
8
BLACK
6
CONTINUOUS
10
94.0102
20
-110.929
11
93.9929
21
-110.918
0
LINE
8
BLACK
6
CONTINUOUS
10
93.9929
20
-110.918
11
93.991
21
-110.913
0
LINE
8
BLACK
6
CONTINUOUS
10
93.991
20
-110.913
11
93.9864
21
-110.909
0
LINE
8
BLACK
6
CONTINUOUS
10
93.9864
20
-110.909
11
93.9829
21
-110.889
0
LINE
8
BLACK
6
CONTINUOUS
10
93.9829
20
-110.889
11
93.9763
21
-110.87
0
LINE
8
BLACK
6
CONTINUOUS
10
93.9763
20
-110.87
11
93.9785
21
-110.864
0
LINE
8
BLACK
6
CONTINUOUS
10
93.9785
20
-110.864
11
93.9775
21
-110.858
0
LINE
8
BLACK
6
CONTINUOUS
10
93.9775
20
-110.858
11
93.9876
21
-110.841
0
LINE
8
BLACK
6
CONTINUOUS
10
93.9876
20
-110.841
11
93.9949
21
-110.822
0
LINE
8
BLACK
6
CONTINUOUS
10
93.9949
20
-110.822
11
94.2194
21
-110.565
0
LINE
8
BLACK
6
CONTINUOUS
10
94.2194
20
-110.565
11
93.7656
21
-110.565
0
LINE
8
BLACK
6
CONTINUOUS
10
93.7656
20
-110.565
11
93.74
21
-110.561
0
LINE
8
BLACK
6
CONTINUOUS
10
93.74
20
-110.561
11
93.7007
21
-110.528
0
LINE
8
BLACK
6
CONTINUOUS
10
93.7007
20
-110.528
11
93.6918
21
-110.477
0
LINE
8
BLACK
6
CONTINUOUS
10
93.6918
20
-110.477
11
93.7174
21
-110.433
0
LINE
8
BLACK
6
CONTINUOUS
10
93.7174
20
-110.433
11
93.7656
21
-110.415
0
LINE
8
BLACK
6
CONTINUOUS
10
93.7656
20
-110.415
11
94.3847
21
-110.415
0
LINE
8
BLACK
6
CONTINUOUS
10
94.3847
20
-110.415
11
94.3958
21
-110.417
0
LINE
8
BLACK
6
CONTINUOUS
10
92.5532
20
-110.42
11
92.5925
21
-110.453
0
LINE
8
BLACK
6
CONTINUOUS
10
92.5925
20
-110.453
11
92.6014
21
-110.503
0
LINE
8
BLACK
6
CONTINUOUS
10
92.6014
20
-110.503
11
92.5757
21
-110.548
0
LINE
8
BLACK
6
CONTINUOUS
10
92.5757
20
-110.548
11
92.5275
21
-110.565
0
LINE
8
BLACK
6
CONTINUOUS
10
92.5275
20
-110.565
11
92.3168
21
-110.565
0
LINE
8
BLACK
6
CONTINUOUS
10
92.3168
20
-110.565
11
92.3168
21
-111.49
0
LINE
8
BLACK
6
CONTINUOUS
10
92.3168
20
-111.49
11
92.3123
21
-111.516
0
LINE
8
BLACK
6
CONTINUOUS
10
92.3123
20
-111.516
11
92.2793
21
-111.555
0
LINE
8
BLACK
6
CONTINUOUS
10
92.2793
20
-111.555
11
92.2288
21
-111.564
0
LINE
8
BLACK
6
CONTINUOUS
10
92.2288
20
-111.564
11
92.1844
21
-111.539
0
LINE
8
BLACK
6
CONTINUOUS
10
92.1844
20
-111.539
11
92.1668
21
-111.49
0
LINE
8
BLACK
6
CONTINUOUS
10
92.1668
20
-111.49
11
92.1668
21
-110.565
0
LINE
8
BLACK
6
CONTINUOUS
10
92.1668
20
-110.565
11
91.9561
21
-110.565
0
LINE
8
BLACK
6
CONTINUOUS
10
91.9561
20
-110.565
11
91.9304
21
-110.561
0
LINE
8
BLACK
6
CONTINUOUS
10
91.9304
20
-110.561
11
91.8911
21
-110.528
0
LINE
8
BLACK
6
CONTINUOUS
10
91.8911
20
-110.528
11
91.8822
21
-110.477
0
LINE
8
BLACK
6
CONTINUOUS
10
91.8822
20
-110.477
11
91.9079
21
-110.433
0
LINE
8
BLACK
6
CONTINUOUS
10
91.9079
20
-110.433
11
91.9561
21
-110.415
0
LINE
8
BLACK
6
CONTINUOUS
10
91.9561
20
-110.415
11
92.5275
21
-110.415
0
LINE
8
BLACK
6
CONTINUOUS
10
92.5275
20
-110.415
11
92.5532
21
-110.42
0
LINE
8
BLACK
6
CONTINUOUS
10
93.2675
20
-110.42
11
93.2709
21
-110.423
0
LINE
8
BLACK
6
CONTINUOUS
10
93.2709
20
-110.423
11
93.2754
21
-110.423
0
LINE
8
BLACK
6
CONTINUOUS
10
93.2754
20
-110.423
11
93.3706
21
-110.471
0
LINE
8
BLACK
6
CONTINUOUS
10
93.3706
20
-110.471
11
93.3886
21
-110.484
0
LINE
8
BLACK
6
CONTINUOUS
10
93.3886
20
-110.484
11
93.3901
21
-110.485
0
LINE
8
BLACK
6
CONTINUOUS
10
93.3901
20
-110.485
11
93.4377
21
-110.533
0
LINE
8
BLACK
6
CONTINUOUS
10
93.4377
20
-110.533
11
93.4506
21
-110.551
0
LINE
8
BLACK
6
CONTINUOUS
10
93.4506
20
-110.551
11
93.4517
21
-110.552
0
LINE
8
BLACK
6
CONTINUOUS
10
93.4517
20
-110.552
11
93.4994
21
-110.647
0
LINE
8
BLACK
6
CONTINUOUS
10
93.4994
20
-110.647
11
93.5068
21
-110.672
0
LINE
8
BLACK
6
CONTINUOUS
10
93.5068
20
-110.672
11
93.5058
21
-110.677
0
LINE
8
BLACK
6
CONTINUOUS
10
93.5058
20
-110.677
11
93.5073
21
-110.681
0
LINE
8
BLACK
6
CONTINUOUS
10
93.5073
20
-110.681
11
93.5073
21
-110.824
0
LINE
8
BLACK
6
CONTINUOUS
10
93.5073
20
-110.824
11
93.5028
21
-110.849
0
LINE
8
BLACK
6
CONTINUOUS
10
93.5028
20
-110.849
11
93.4999
21
-110.853
0
LINE
8
BLACK
6
CONTINUOUS
10
93.4999
20
-110.853
11
93.4994
21
-110.857
0
LINE
8
BLACK
6
CONTINUOUS
10
93.4994
20
-110.857
11
93.4517
21
-110.952
0
LINE
8
BLACK
6
CONTINUOUS
10
93.4517
20
-110.952
11
93.4384
21
-110.971
0
LINE
8
BLACK
6
CONTINUOUS
10
93.4384
20
-110.971
11
93.4377
21
-110.972
0
LINE
8
BLACK
6
CONTINUOUS
10
93.4377
20
-110.972
11
93.3901
21
-111.02
0
LINE
8
BLACK
6
CONTINUOUS
10
93.3901
20
-111.02
11
93.3717
21
-111.032
0
LINE
8
BLACK
6
CONTINUOUS
10
93.3717
20
-111.032
11
93.3706
21
-111.034
0
LINE
8
BLACK
6
CONTINUOUS
10
93.3706
20
-111.034
11
93.2753
21
-111.081
0
LINE
8
BLACK
6
CONTINUOUS
10
93.2753
20
-111.081
11
93.2504
21
-111.089
0
LINE
8
BLACK
6
CONTINUOUS
10
93.2504
20
-111.089
11
93.246
21
-111.088
0
LINE
8
BLACK
6
CONTINUOUS
10
93.246
20
-111.088
11
93.2418
21
-111.089
0
LINE
8
BLACK
6
CONTINUOUS
10
93.2418
20
-111.089
11
92.9359
21
-111.089
0
LINE
8
BLACK
6
CONTINUOUS
10
92.9359
20
-111.089
11
92.9359
21
-111.49
0
LINE
8
BLACK
6
CONTINUOUS
10
92.9359
20
-111.49
11
92.9313
21
-111.516
0
LINE
8
BLACK
6
CONTINUOUS
10
92.9313
20
-111.516
11
92.8984
21
-111.555
0
LINE
8
BLACK
6
CONTINUOUS
10
92.8984
20
-111.555
11
92.8478
21
-111.564
0
LINE
8
BLACK
6
CONTINUOUS
10
92.8478
20
-111.564
11
92.8034
21
-111.539
0
LINE
8
BLACK
6
CONTINUOUS
10
92.8034
20
-111.539
11
92.7859
21
-111.49
0
LINE
8
BLACK
6
CONTINUOUS
10
92.7859
20
-111.49
11
92.7859
21
-110.49
0
LINE
8
BLACK
6
CONTINUOUS
10
92.7859
20
-110.49
11
92.7876
21
-110.481
0
LINE
8
BLACK
6
CONTINUOUS
10
92.7876
20
-110.481
11
92.787
21
-110.477
0
LINE
8
BLACK
6
CONTINUOUS
10
92.787
20
-110.477
11
92.7887
21
-110.474
0
LINE
8
BLACK
6
CONTINUOUS
10
92.7887
20
-110.474
11
92.7904
21
-110.465
0
LINE
8
BLACK
6
CONTINUOUS
10
92.7904
20
-110.465
11
92.8029
21
-110.45
0
LINE
8
BLACK
6
CONTINUOUS
10
92.8029
20
-110.45
11
92.8126
21
-110.433
0
LINE
8
BLACK
6
CONTINUOUS
10
92.8126
20
-110.433
11
92.819
21
-110.431
0
LINE
8
BLACK
6
CONTINUOUS
10
92.819
20
-110.431
11
92.8234
21
-110.425
0
LINE
8
BLACK
6
CONTINUOUS
10
92.8234
20
-110.425
11
92.8425
21
-110.422
0
LINE
8
BLACK
6
CONTINUOUS
10
92.8425
20
-110.422
11
92.8609
21
-110.415
0
LINE
8
BLACK
6
CONTINUOUS
10
92.8609
20
-110.415
11
93.2418
21
-110.415
0
LINE
8
BLACK
6
CONTINUOUS
10
93.2418
20
-110.415
11
93.2675
21
-110.42
0
LINE
8
BLACK
6
CONTINUOUS
10
92.9359
20
-110.565
11
92.9359
21
-110.939
0
LINE
8
BLACK
6
CONTINUOUS
10
92.9359
20
-110.939
11
93.2241
21
-110.939
0
LINE
8
BLACK
6
CONTINUOUS
10
93.2241
20
-110.939
11
93.2926
21
-110.905
0
LINE
8
BLACK
6
CONTINUOUS
10
93.2926
20
-110.905
11
93.323
21
-110.875
0
LINE
8
BLACK
6
CONTINUOUS
10
93.323
20
-110.875
11
93.3573
21
-110.806
0
LINE
8
BLACK
6
CONTINUOUS
10
93.3573
20
-110.806
11
93.3573
21
-110.699
0
LINE
8
BLACK
6
CONTINUOUS
10
93.3573
20
-110.699
11
93.323
21
-110.63
0
LINE
8
BLACK
6
CONTINUOUS
10
93.323
20
-110.63
11
93.2926
21
-110.6
0
LINE
8
BLACK
6
CONTINUOUS
10
93.2926
20
-110.6
11
93.2241
21
-110.565
0
LINE
8
BLACK
6
CONTINUOUS
10
93.2241
20
-110.565
11
92.9359
21
-110.565
0
LINE
8
BLACK
6
CONTINUOUS
10
97.5695
20
-109.872
11
97.5729
21
-109.875
0
LINE
8
BLACK
6
CONTINUOUS
10
97.5729
20
-109.875
11
97.5774
21
-109.875
0
LINE
8
BLACK
6
CONTINUOUS
10
97.5774
20
-109.875
11
97.6726
21
-109.923
0
LINE
8
BLACK
6
CONTINUOUS
10
97.6726
20
-109.923
11
97.6906
21
-109.936
0
LINE
8
BLACK
6
CONTINUOUS
10
97.6906
20
-109.936
11
97.6921
21
-109.937
0
LINE
8
BLACK
6
CONTINUOUS
10
97.6921
20
-109.937
11
97.7397
21
-109.985
0
LINE
8
BLACK
6
CONTINUOUS
10
97.7397
20
-109.985
11
97.7526
21
-110.003
0
LINE
8
BLACK
6
CONTINUOUS
10
97.7526
20
-110.003
11
97.7537
21
-110.004
0
LINE
8
BLACK
6
CONTINUOUS
10
97.7537
20
-110.004
11
97.8014
21
-110.099
0
LINE
8
BLACK
6
CONTINUOUS
10
97.8014
20
-110.099
11
97.8088
21
-110.124
0
LINE
8
BLACK
6
CONTINUOUS
10
97.8088
20
-110.124
11
97.8078
21
-110.129
0
LINE
8
BLACK
6
CONTINUOUS
10
97.8078
20
-110.129
11
97.8093
21
-110.133
0
LINE
8
BLACK
6
CONTINUOUS
10
97.8093
20
-110.133
11
97.8093
21
-110.228
0
LINE
8
BLACK
6
CONTINUOUS
10
97.8093
20
-110.228
11
97.8054
21
-110.25
0
LINE
8
BLACK
6
CONTINUOUS
10
97.8054
20
-110.25
11
97.8054
21
-110.252
0
LINE
8
BLACK
6
CONTINUOUS
10
97.8054
20
-110.252
11
97.7578
21
-110.395
0
LINE
8
BLACK
6
CONTINUOUS
10
97.7578
20
-110.395
11
97.7454
21
-110.418
0
LINE
8
BLACK
6
CONTINUOUS
10
97.7454
20
-110.418
11
97.7416
21
-110.42
0
LINE
8
BLACK
6
CONTINUOUS
10
97.7416
20
-110.42
11
97.7397
21
-110.424
0
LINE
8
BLACK
6
CONTINUOUS
10
97.7397
20
-110.424
11
97.2963
21
-110.867
0
LINE
8
BLACK
6
CONTINUOUS
10
97.2963
20
-110.867
11
97.7343
21
-110.867
0
LINE
8
BLACK
6
CONTINUOUS
10
97.7343
20
-110.867
11
97.7599
21
-110.872
0
LINE
8
BLACK
6
CONTINUOUS
10
97.7599
20
-110.872
11
97.7992
21
-110.905
0
LINE
8
BLACK
6
CONTINUOUS
10
97.7992
20
-110.905
11
97.8081
21
-110.955
0
LINE
8
BLACK
6
CONTINUOUS
10
97.8081
20
-110.955
11
97.7825
21
-111
0
LINE
8
BLACK
6
CONTINUOUS
10
97.7825
20
-111
11
97.7343
21
-111.017
0
LINE
8
BLACK
6
CONTINUOUS
10
97.7343
20
-111.017
11
97.1152
21
-111.017
0
LINE
8
BLACK
6
CONTINUOUS
10
97.1152
20
-111.017
11
97.0991
21
-111.015
0
LINE
8
BLACK
6
CONTINUOUS
10
97.0991
20
-111.015
11
97.0958
21
-111.015
0
LINE
8
BLACK
6
CONTINUOUS
10
97.0958
20
-111.015
11
97.0942
21
-111.014
0
LINE
8
BLACK
6
CONTINUOUS
10
97.0942
20
-111.014
11
97.0896
21
-111.013
0
LINE
8
BLACK
6
CONTINUOUS
10
97.0896
20
-111.013
11
97.0723
21
-110.998
0
LINE
8
BLACK
6
CONTINUOUS
10
97.0723
20
-110.998
11
97.0538
21
-110.985
0
LINE
8
BLACK
6
CONTINUOUS
10
97.0538
20
-110.985
11
97.0529
21
-110.982
0
LINE
8
BLACK
6
CONTINUOUS
10
97.0529
20
-110.982
11
97.0503
21
-110.98
0
LINE
8
BLACK
6
CONTINUOUS
10
97.0503
20
-110.98
11
97.0464
21
-110.958
0
LINE
8
BLACK
6
CONTINUOUS
10
97.0464
20
-110.958
11
97.0405
21
-110.936
0
LINE
8
BLACK
6
CONTINUOUS
10
97.0405
20
-110.936
11
97.042
21
-110.933
0
LINE
8
BLACK
6
CONTINUOUS
10
97.042
20
-110.933
11
97.0414
21
-110.929
0
LINE
8
BLACK
6
CONTINUOUS
10
97.0414
20
-110.929
11
97.0527
21
-110.91
0
LINE
8
BLACK
6
CONTINUOUS
10
97.0527
20
-110.91
11
97.0622
21
-110.889
0
LINE
8
BLACK
6
CONTINUOUS
10
97.0622
20
-110.889
11
97.6211
21
-110.33
0
LINE
8
BLACK
6
CONTINUOUS
10
97.6211
20
-110.33
11
97.6593
21
-110.216
0
LINE
8
BLACK
6
CONTINUOUS
10
97.6593
20
-110.216
11
97.6593
21
-110.151
0
LINE
8
BLACK
6
CONTINUOUS
10
97.6593
20
-110.151
11
97.625
21
-110.082
0
LINE
8
BLACK
6
CONTINUOUS
10
97.625
20
-110.082
11
97.5946
21
-110.052
0
LINE
8
BLACK
6
CONTINUOUS
10
97.5946
20
-110.052
11
97.5261
21
-110.017
0
LINE
8
BLACK
6
CONTINUOUS
10
97.5261
20
-110.017
11
97.3234
21
-110.017
0
LINE
8
BLACK
6
CONTINUOUS
10
97.3234
20
-110.017
11
97.2549
21
-110.052
0
LINE
8
BLACK
6
CONTINUOUS
10
97.2549
20
-110.052
11
97.2159
21
-110.091
0
LINE
8
BLACK
6
CONTINUOUS
10
97.2159
20
-110.091
11
97.1946
21
-110.106
0
LINE
8
BLACK
6
CONTINUOUS
10
97.1946
20
-110.106
11
97.1434
21
-110.11
0
LINE
8
BLACK
6
CONTINUOUS
10
97.1434
20
-110.11
11
97.1014
21
-110.081
0
LINE
8
BLACK
6
CONTINUOUS
10
97.1014
20
-110.081
11
97.0881
21
-110.031
0
LINE
8
BLACK
6
CONTINUOUS
10
97.0881
20
-110.031
11
97.1098
21
-109.985
0
LINE
8
BLACK
6
CONTINUOUS
10
97.1098
20
-109.985
11
97.1574
21
-109.937
0
LINE
8
BLACK
6
CONTINUOUS
10
97.1574
20
-109.937
11
97.1758
21
-109.924
0
LINE
8
BLACK
6
CONTINUOUS
10
97.1758
20
-109.924
11
97.1769
21
-109.923
0
LINE
8
BLACK
6
CONTINUOUS
10
97.1769
20
-109.923
11
97.2722
21
-109.875
0
LINE
8
BLACK
6
CONTINUOUS
10
97.2722
20
-109.875
11
97.2971
21
-109.868
0
LINE
8
BLACK
6
CONTINUOUS
10
97.2971
20
-109.868
11
97.3015
21
-109.869
0
LINE
8
BLACK
6
CONTINUOUS
10
97.3015
20
-109.869
11
97.3057
21
-109.867
0
LINE
8
BLACK
6
CONTINUOUS
10
97.3057
20
-109.867
11
97.5438
21
-109.867
0
LINE
8
BLACK
6
CONTINUOUS
10
97.5438
20
-109.867
11
97.5695
21
-109.872
0
LINE
8
BLACK
6
CONTINUOUS
10
96.2497
20
-109.878
11
96.2816
21
-109.919
0
LINE
8
BLACK
6
CONTINUOUS
10
96.2816
20
-109.919
11
96.5438
21
-110.705
0
LINE
8
BLACK
6
CONTINUOUS
10
96.5438
20
-110.705
11
96.806
21
-109.919
0
LINE
8
BLACK
6
CONTINUOUS
10
96.806
20
-109.919
11
96.8184
21
-109.896
0
LINE
8
BLACK
6
CONTINUOUS
10
96.8184
20
-109.896
11
96.8621
21
-109.869
0
LINE
8
BLACK
6
CONTINUOUS
10
96.8621
20
-109.869
11
96.9129
21
-109.876
0
LINE
8
BLACK
6
CONTINUOUS
10
96.9129
20
-109.876
11
96.9469
21
-109.915
0
LINE
8
BLACK
6
CONTINUOUS
10
96.9469
20
-109.915
11
96.9483
21
-109.966
0
LINE
8
BLACK
6
CONTINUOUS
10
96.9483
20
-109.966
11
96.615
21
-110.966
0
LINE
8
BLACK
6
CONTINUOUS
10
96.615
20
-110.966
11
96.6026
21
-110.989
0
LINE
8
BLACK
6
CONTINUOUS
10
96.6026
20
-110.989
11
96.6007
21
-110.99
0
LINE
8
BLACK
6
CONTINUOUS
10
96.6007
20
-110.99
11
96.5999
21
-110.992
0
LINE
8
BLACK
6
CONTINUOUS
10
96.5999
20
-110.992
11
96.5791
21
-111.003
0
LINE
8
BLACK
6
CONTINUOUS
10
96.5791
20
-111.003
11
96.5588
21
-111.016
0
LINE
8
BLACK
6
CONTINUOUS
10
96.5588
20
-111.016
11
96.5567
21
-111.016
0
LINE
8
BLACK
6
CONTINUOUS
10
96.5567
20
-111.016
11
96.5548
21
-111.017
0
LINE
8
BLACK
6
CONTINUOUS
10
96.5548
20
-111.017
11
96.5316
21
-111.012
0
LINE
8
BLACK
6
CONTINUOUS
10
96.5316
20
-111.012
11
96.5081
21
-111.008
0
LINE
8
BLACK
6
CONTINUOUS
10
96.5081
20
-111.008
11
96.5067
21
-111.007
0
LINE
8
BLACK
6
CONTINUOUS
10
96.5067
20
-111.007
11
96.5045
21
-111.006
0
LINE
8
BLACK
6
CONTINUOUS
10
96.5045
20
-111.006
11
96.4898
21
-110.988
0
LINE
8
BLACK
6
CONTINUOUS
10
96.4898
20
-110.988
11
96.4741
21
-110.97
0
LINE
8
BLACK
6
CONTINUOUS
10
96.4741
20
-110.97
11
96.474
21
-110.968
0
LINE
8
BLACK
6
CONTINUOUS
10
96.474
20
-110.968
11
96.4727
21
-110.966
0
LINE
8
BLACK
6
CONTINUOUS
10
96.4727
20
-110.966
11
96.1393
21
-109.966
0
LINE
8
BLACK
6
CONTINUOUS
10
96.1393
20
-109.966
11
96.1355
21
-109.94
0
LINE
8
BLACK
6
CONTINUOUS
10
96.1355
20
-109.94
11
96.1544
21
-109.893
0
LINE
8
BLACK
6
CONTINUOUS
10
96.1544
20
-109.893
11
96.1995
21
-109.868
0
LINE
8
BLACK
6
CONTINUOUS
10
96.1995
20
-109.868
11
96.2497
21
-109.878
0
LINE
8
BLACK
6
CONTINUOUS
10
95.7599
20
-109.872
11
95.7634
21
-109.875
0
LINE
8
BLACK
6
CONTINUOUS
10
95.7634
20
-109.875
11
95.7678
21
-109.875
0
LINE
8
BLACK
6
CONTINUOUS
10
95.7678
20
-109.875
11
95.8631
21
-109.923
0
LINE
8
BLACK
6
CONTINUOUS
10
95.8631
20
-109.923
11
95.8811
21
-109.936
0
LINE
8
BLACK
6
CONTINUOUS
10
95.8811
20
-109.936
11
95.8826
21
-109.937
0
LINE
8
BLACK
6
CONTINUOUS
10
95.8826
20
-109.937
11
95.9302
21
-109.985
0
LINE
8
BLACK
6
CONTINUOUS
10
95.9302
20
-109.985
11
95.943
21
-110.003
0
LINE
8
BLACK
6
CONTINUOUS
10
95.943
20
-110.003
11
95.9442
21
-110.004
0
LINE
8
BLACK
6
CONTINUOUS
10
95.9442
20
-110.004
11
95.9918
21
-110.099
0
LINE
8
BLACK
6
CONTINUOUS
10
95.9918
20
-110.099
11
95.9993
21
-110.124
0
LINE
8
BLACK
6
CONTINUOUS
10
95.9993
20
-110.124
11
95.9982
21
-110.129
0
LINE
8
BLACK
6
CONTINUOUS
10
95.9982
20
-110.129
11
95.9998
21
-110.133
0
LINE
8
BLACK
6
CONTINUOUS
10
95.9998
20
-110.133
11
95.9998
21
-110.276
0
LINE
8
BLACK
6
CONTINUOUS
10
95.9998
20
-110.276
11
95.9952
21
-110.301
0
LINE
8
BLACK
6
CONTINUOUS
10
95.9952
20
-110.301
11
95.9924
21
-110.305
0
LINE
8
BLACK
6
CONTINUOUS
10
95.9924
20
-110.305
11
95.9918
21
-110.309
0
LINE
8
BLACK
6
CONTINUOUS
10
95.9918
20
-110.309
11
95.9442
21
-110.404
0
LINE
8
BLACK
6
CONTINUOUS
10
95.9442
20
-110.404
11
95.9309
21
-110.423
0
LINE
8
BLACK
6
CONTINUOUS
10
95.9309
20
-110.423
11
95.9302
21
-110.424
0
LINE
8
BLACK
6
CONTINUOUS
10
95.9302
20
-110.424
11
95.8826
21
-110.472
0
LINE
8
BLACK
6
CONTINUOUS
10
95.8826
20
-110.472
11
95.8642
21
-110.484
0
LINE
8
BLACK
6
CONTINUOUS
10
95.8642
20
-110.484
11
95.8631
21
-110.486
0
LINE
8
BLACK
6
CONTINUOUS
10
95.8631
20
-110.486
11
95.7678
21
-110.533
0
LINE
8
BLACK
6
CONTINUOUS
10
95.7678
20
-110.533
11
95.7429
21
-110.541
0
LINE
8
BLACK
6
CONTINUOUS
10
95.7429
20
-110.541
11
95.7385
21
-110.54
0
LINE
8
BLACK
6
CONTINUOUS
10
95.7385
20
-110.54
11
95.7352
21
-110.541
0
LINE
8
BLACK
6
CONTINUOUS
10
95.7352
20
-110.541
11
95.9862
21
-110.899
0
LINE
8
BLACK
6
CONTINUOUS
10
95.9862
20
-110.899
11
95.9972
21
-110.923
0
LINE
8
BLACK
6
CONTINUOUS
10
95.9972
20
-110.923
11
95.9927
21
-110.974
0
LINE
8
BLACK
6
CONTINUOUS
10
95.9927
20
-110.974
11
95.9564
21
-111.01
0
LINE
8
BLACK
6
CONTINUOUS
10
95.9564
20
-111.01
11
95.9053
21
-111.015
0
LINE
8
BLACK
6
CONTINUOUS
10
95.9053
20
-111.015
11
95.8633
21
-110.985
0
LINE
8
BLACK
6
CONTINUOUS
10
95.8633
20
-110.985
11
95.5524
21
-110.541
0
LINE
8
BLACK
6
CONTINUOUS
10
95.5524
20
-110.541
11
95.4283
21
-110.541
0
LINE
8
BLACK
6
CONTINUOUS
10
95.4283
20
-110.541
11
95.4283
21
-110.942
0
LINE
8
BLACK
6
CONTINUOUS
10
95.4283
20
-110.942
11
95.4238
21
-110.968
0
LINE
8
BLACK
6
CONTINUOUS
10
95.4238
20
-110.968
11
95.3908
21
-111.007
0
LINE
8
BLACK
6
CONTINUOUS
10
95.3908
20
-111.007
11
95.3403
21
-111.016
0
LINE
8
BLACK
6
CONTINUOUS
10
95.3403
20
-111.016
11
95.2959
21
-110.991
0
LINE
8
BLACK
6
CONTINUOUS
10
95.2959
20
-110.991
11
95.2783
21
-110.942
0
LINE
8
BLACK
6
CONTINUOUS
10
95.2783
20
-110.942
11
95.2783
21
-109.942
0
LINE
8
BLACK
6
CONTINUOUS
10
95.2783
20
-109.942
11
95.2801
21
-109.933
0
LINE
8
BLACK
6
CONTINUOUS
10
95.2801
20
-109.933
11
95.2795
21
-109.929
0
LINE
8
BLACK
6
CONTINUOUS
10
95.2795
20
-109.929
11
95.2811
21
-109.926
0
LINE
8
BLACK
6
CONTINUOUS
10
95.2811
20
-109.926
11
95.2829
21
-109.917
0
LINE
8
BLACK
6
CONTINUOUS
10
95.2829
20
-109.917
11
95.2954
21
-109.902
0
LINE
8
BLACK
6
CONTINUOUS
10
95.2954
20
-109.902
11
95.3051
21
-109.885
0
LINE
8
BLACK
6
CONTINUOUS
10
95.3051
20
-109.885
11
95.3115
21
-109.883
0
LINE
8
BLACK
6
CONTINUOUS
10
95.3115
20
-109.883
11
95.3158
21
-109.877
0
LINE
8
BLACK
6
CONTINUOUS
10
95.3158
20
-109.877
11
95.335
21
-109.874
0
LINE
8
BLACK
6
CONTINUOUS
10
95.335
20
-109.874
11
95.3533
21
-109.867
0
LINE
8
BLACK
6
CONTINUOUS
10
95.3533
20
-109.867
11
95.7343
21
-109.867
0
LINE
8
BLACK
6
CONTINUOUS
10
95.7343
20
-109.867
11
95.7599
21
-109.872
0
LINE
8
BLACK
6
CONTINUOUS
10
95.4283
20
-110.017
11
95.4283
21
-110.391
0
LINE
8
BLACK
6
CONTINUOUS
10
95.4283
20
-110.391
11
95.7166
21
-110.391
0
LINE
8
BLACK
6
CONTINUOUS
10
95.7166
20
-110.391
11
95.7851
21
-110.357
0
LINE
8
BLACK
6
CONTINUOUS
10
95.7851
20
-110.357
11
95.8155
21
-110.327
0
LINE
8
BLACK
6
CONTINUOUS
10
95.8155
20
-110.327
11
95.8498
21
-110.258
0
LINE
8
BLACK
6
CONTINUOUS
10
95.8498
20
-110.258
11
95.8498
21
-110.151
0
LINE
8
BLACK
6
CONTINUOUS
10
95.8498
20
-110.151
11
95.8155
21
-110.082
0
LINE
8
BLACK
6
CONTINUOUS
10
95.8155
20
-110.082
11
95.7851
21
-110.052
0
LINE
8
BLACK
6
CONTINUOUS
10
95.7851
20
-110.052
11
95.7166
21
-110.017
0
LINE
8
BLACK
6
CONTINUOUS
10
95.7166
20
-110.017
11
95.4283
21
-110.017
0
LINE
8
BLACK
6
CONTINUOUS
10
100.852
20
-109.568
11
100.87
21
-109.61
0
LINE
8
BLACK
6
CONTINUOUS
10
100.87
20
-109.61
11
100.852
21
-109.652
0
LINE
8
BLACK
6
CONTINUOUS
10
100.852
20
-109.652
11
100.81
21
-109.67
0
LINE
8
BLACK
6
CONTINUOUS
10
100.81
20
-109.67
11
100.28
21
-109.67
0
LINE
8
BLACK
6
CONTINUOUS
10
100.28
20
-109.67
11
100.238
21
-109.652
0
LINE
8
BLACK
6
CONTINUOUS
10
100.238
20
-109.652
11
100.22
21
-109.61
0
LINE
8
BLACK
6
CONTINUOUS
10
100.22
20
-109.61
11
100.238
21
-109.568
0
LINE
8
BLACK
6
CONTINUOUS
10
100.238
20
-109.568
11
100.28
21
-109.55
0
LINE
8
BLACK
6
CONTINUOUS
10
100.28
20
-109.55
11
100.81
21
-109.55
0
LINE
8
BLACK
6
CONTINUOUS
10
100.81
20
-109.55
11
100.852
21
-109.568
0
LINE
8
BLACK
6
CONTINUOUS
10
104.938
20
-109.652
11
104.92
21
-109.61
0
LINE
8
BLACK
6
CONTINUOUS
10
104.92
20
-109.61
11
104.938
21
-109.568
0
LINE
8
BLACK
6
CONTINUOUS
10
104.938
20
-109.568
11
104.98
21
-109.55
0
LINE
8
BLACK
6
CONTINUOUS
10
104.98
20
-109.55
11
106.41
21
-109.55
0
LINE
8
BLACK
6
CONTINUOUS
10
106.41
20
-109.55
11
106.41
21
-104.89
0
LINE
8
BLACK
6
CONTINUOUS
10
106.41
20
-104.89
11
106.428
21
-104.848
0
LINE
8
BLACK
6
CONTINUOUS
10
106.428
20
-104.848
11
106.47
21
-104.83
0
LINE
8
BLACK
6
CONTINUOUS
10
106.47
20
-104.83
11
106.512
21
-104.848
0
LINE
8
BLACK
6
CONTINUOUS
10
106.512
20
-104.848
11
106.53
21
-104.89
0
LINE
8
BLACK
6
CONTINUOUS
10
106.53
20
-104.89
11
106.53
21
-109.61
0
LINE
8
BLACK
6
CONTINUOUS
10
106.53
20
-109.61
11
106.512
21
-109.652
0
LINE
8
BLACK
6
CONTINUOUS
10
106.512
20
-109.652
11
106.47
21
-109.67
0
LINE
8
BLACK
6
CONTINUOUS
10
106.47
20
-109.67
11
104.98
21
-109.67
0
LINE
8
BLACK
6
CONTINUOUS
10
104.98
20
-109.67
11
104.938
21
-109.652
0
LINE
8
BLACK
6
CONTINUOUS
10
96.7624
20
-104.848
11
96.78
21
-104.89
0
LINE
8
BLACK
6
CONTINUOUS
10
96.78
20
-104.89
11
96.78
21
-109.55
0
LINE
8
BLACK
6
CONTINUOUS
10
96.78
20
-109.55
11
97.91
21
-109.55
0
LINE
8
BLACK
6
CONTINUOUS
10
97.91
20
-109.55
11
97.9524
21
-109.568
0
LINE
8
BLACK
6
CONTINUOUS
10
97.9524
20
-109.568
11
97.97
21
-109.61
0
LINE
8
BLACK
6
CONTINUOUS
10
97.97
20
-109.61
11
97.9524
21
-109.652
0
LINE
8
BLACK
6
CONTINUOUS
10
97.9524
20
-109.652
11
97.91
21
-109.67
0
LINE
8
BLACK
6
CONTINUOUS
10
97.91
20
-109.67
11
96.73
21
-109.67
0
LINE
8
BLACK
6
CONTINUOUS
10
96.73
20
-109.67
11
96.725
21
-109.668
0
LINE
8
BLACK
6
CONTINUOUS
10
96.725
20
-109.668
11
96.72
21
-109.67
0
LINE
8
BLACK
6
CONTINUOUS
10
96.72
20
-109.67
11
96.6776
21
-109.652
0
LINE
8
BLACK
6
CONTINUOUS
10
96.6776
20
-109.652
11
96.66
21
-109.61
0
LINE
8
BLACK
6
CONTINUOUS
10
96.66
20
-109.61
11
96.66
21
-104.89
0
LINE
8
BLACK
6
CONTINUOUS
10
96.66
20
-104.89
11
96.6776
21
-104.848
0
LINE
8
BLACK
6
CONTINUOUS
10
96.6776
20
-104.848
11
96.72
21
-104.83
0
LINE
8
BLACK
6
CONTINUOUS
10
96.72
20
-104.83
11
96.7624
21
-104.848
0
LINE
8
BLACK
6
CONTINUOUS
10
103.302
20
-109.568
11
103.32
21
-109.61
0
LINE
8
BLACK
6
CONTINUOUS
10
103.32
20
-109.61
11
103.302
21
-109.652
0
LINE
8
BLACK
6
CONTINUOUS
10
103.302
20
-109.652
11
103.26
21
-109.67
0
LINE
8
BLACK
6
CONTINUOUS
10
103.26
20
-109.67
11
102.43
21
-109.67
0
LINE
8
BLACK
6
CONTINUOUS
10
102.43
20
-109.67
11
102.388
21
-109.652
0
LINE
8
BLACK
6
CONTINUOUS
10
102.388
20
-109.652
11
102.37
21
-109.61
0
LINE
8
BLACK
6
CONTINUOUS
10
102.37
20
-109.61
11
102.388
21
-109.568
0
LINE
8
BLACK
6
CONTINUOUS
10
102.388
20
-109.568
11
102.43
21
-109.55
0
LINE
8
BLACK
6
CONTINUOUS
10
102.43
20
-109.55
11
103.26
21
-109.55
0
LINE
8
BLACK
6
CONTINUOUS
10
103.26
20
-109.55
11
103.302
21
-109.568
0
LINE
8
BLACK
6
CONTINUOUS
10
106.512
20
-97.9776
11
106.53
21
-98.02
0
LINE
8
BLACK
6
CONTINUOUS
10
106.53
20
-98.02
11
106.53
21
-101.08
0
LINE
8
BLACK
6
CONTINUOUS
10
106.53
20
-101.08
11
106.512
21
-101.122
0
LINE
8
BLACK
6
CONTINUOUS
10
106.512
20
-101.122
11
106.47
21
-101.14
0
LINE
8
BLACK
6
CONTINUOUS
10
106.47
20
-101.14
11
106.428
21
-101.122
0
LINE
8
BLACK
6
CONTINUOUS
10
106.428
20
-101.122
11
106.41
21
-101.08
0
LINE
8
BLACK
6
CONTINUOUS
10
106.41
20
-101.08
11
106.41
21
-98.08
0
LINE
8
BLACK
6
CONTINUOUS
10
106.41
20
-98.08
11
96.79
21
-98.08
0
LINE
8
BLACK
6
CONTINUOUS
10
96.79
20
-98.08
11
96.79
21
-101.08
0
LINE
8
BLACK
6
CONTINUOUS
10
96.79
20
-101.08
11
96.7724
21
-101.122
0
LINE
8
BLACK
6
CONTINUOUS
10
96.7724
20
-101.122
11
96.73
21
-101.14
0
LINE
8
BLACK
6
CONTINUOUS
10
96.73
20
-101.14
11
96.6876
21
-101.122
0
LINE
8
BLACK
6
CONTINUOUS
10
96.6876
20
-101.122
11
96.67
21
-101.08
0
LINE
8
BLACK
6
CONTINUOUS
10
96.67
20
-101.08
11
96.67
21
-98.02
0
LINE
8
BLACK
6
CONTINUOUS
10
96.67
20
-98.02
11
96.6876
21
-97.9776
0
LINE
8
BLACK
6
CONTINUOUS
10
96.6876
20
-97.9776
11
96.73
21
-97.96
0
LINE
8
BLACK
6
CONTINUOUS
10
96.73
20
-97.96
11
106.47
21
-97.96
0
LINE
8
BLACK
6
CONTINUOUS
10
106.47
20
-97.96
11
106.512
21
-97.9776
0
LINE
8
BLACK
6
CONTINUOUS
10
101.601
20
-71.2501
11
101.929
21
-71.2678
0
LINE
8
BLACK
6
CONTINUOUS
10
101.929
20
-71.2678
11
102.255
21
-71.3211
0
LINE
8
BLACK
6
CONTINUOUS
10
102.255
20
-71.3211
11
102.573
21
-71.4094
0
LINE
8
BLACK
6
CONTINUOUS
10
102.573
20
-71.4094
11
102.88
21
-71.5315
0
LINE
8
BLACK
6
CONTINUOUS
10
102.88
20
-71.5315
11
103.171
21
-71.686
0
LINE
8
BLACK
6
CONTINUOUS
10
103.171
20
-71.686
11
103.445
21
-71.8711
0
LINE
8
BLACK
6
CONTINUOUS
10
103.445
20
-71.8711
11
103.696
21
-72.0847
0
LINE
8
BLACK
6
CONTINUOUS
10
103.696
20
-72.0847
11
103.924
21
-72.3242
0
LINE
8
BLACK
6
CONTINUOUS
10
103.924
20
-72.3242
11
104.123
21
-72.5869
0
LINE
8
BLACK
6
CONTINUOUS
10
104.123
20
-72.5869
11
104.294
21
-72.8697
0
LINE
8
BLACK
6
CONTINUOUS
10
104.294
20
-72.8697
11
104.433
21
-73.1692
0
LINE
8
BLACK
6
CONTINUOUS
10
104.433
20
-73.1692
11
104.538
21
-73.4819
0
LINE
8
BLACK
6
CONTINUOUS
10
104.538
20
-73.4819
11
104.609
21
-73.8042
0
LINE
8
BLACK
6
CONTINUOUS
10
104.609
20
-73.8042
11
104.645
21
-74.1324
0
LINE
8
BLACK
6
CONTINUOUS
10
104.645
20
-74.1324
11
104.646
21
-74.4625
0
LINE
8
BLACK
6
CONTINUOUS
10
104.646
20
-74.4625
11
104.61
21
-74.7907
0
LINE
8
BLACK
6
CONTINUOUS
10
104.61
20
-74.7907
11
104.54
21
-75.1131
0
LINE
8
BLACK
6
CONTINUOUS
10
104.54
20
-75.1131
11
104.435
21
-75.4261
0
LINE
8
BLACK
6
CONTINUOUS
10
104.435
20
-75.4261
11
104.296
21
-75.7258
0
LINE
8
BLACK
6
CONTINUOUS
10
104.296
20
-75.7258
11
104.126
21
-76.0088
0
LINE
8
BLACK
6
CONTINUOUS
10
104.126
20
-76.0088
11
103.927
21
-76.2718
0
LINE
8
BLACK
6
CONTINUOUS
10
103.927
20
-76.2718
11
103.7
21
-76.5118
0
LINE
8
BLACK
6
CONTINUOUS
10
103.7
20
-76.5118
11
103.449
21
-76.7258
0
LINE
8
BLACK
6
CONTINUOUS
10
103.449
20
-76.7258
11
103.176
21
-76.9114
0
LINE
8
BLACK
6
CONTINUOUS
10
103.176
20
-76.9114
11
103.16
21
-76.9138
0
LINE
8
BLACK
6
CONTINUOUS
10
103.16
20
-76.9138
11
103.145
21
-76.92
0
LINE
8
BLACK
6
CONTINUOUS
10
103.145
20
-76.92
11
100.055
21
-76.92
0
LINE
8
BLACK
6
CONTINUOUS
10
100.055
20
-76.92
11
100.04
21
-76.9138
0
LINE
8
BLACK
6
CONTINUOUS
10
100.04
20
-76.9138
11
100.024
21
-76.9114
0
LINE
8
BLACK
6
CONTINUOUS
10
100.024
20
-76.9114
11
100.024
21
-76.9114
0
LINE
8
BLACK
6
CONTINUOUS
10
100.024
20
-76.9114
11
99.7512
21
-76.7258
0
LINE
8
BLACK
6
CONTINUOUS
10
99.7512
20
-76.7258
11
99.4999
21
-76.5118
0
LINE
8
BLACK
6
CONTINUOUS
10
99.4999
20
-76.5118
11
99.2731
21
-76.2718
0
LINE
8
BLACK
6
CONTINUOUS
10
99.2731
20
-76.2718
11
99.0737
21
-76.0088
0
LINE
8
BLACK
6
CONTINUOUS
10
99.0737
20
-76.0088
11
98.9038
21
-75.7258
0
LINE
8
BLACK
6
CONTINUOUS
10
98.9038
20
-75.7258
11
98.7655
21
-75.4261
0
LINE
8
BLACK
6
CONTINUOUS
10
98.7655
20
-75.4261
11
98.6604
21
-75.1131
0
LINE
8
BLACK
6
CONTINUOUS
10
98.6604
20
-75.1131
11
98.5897
21
-74.7907
0
LINE
8
BLACK
6
CONTINUOUS
10
98.5897
20
-74.7907
11
98.5543
21
-74.4625
0
LINE
8
BLACK
6
CONTINUOUS
10
98.5543
20
-74.4625
11
98.5546
21
-74.1324
0
LINE
8
BLACK
6
CONTINUOUS
10
98.5546
20
-74.1324
11
98.5906
21
-73.8042
0
LINE
8
BLACK
6
CONTINUOUS
10
98.5906
20
-73.8042
11
98.6618
21
-73.4819
0
LINE
8
BLACK
6
CONTINUOUS
10
98.6618
20
-73.4819
11
98.7674
21
-73.1692
0
LINE
8
BLACK
6
CONTINUOUS
10
98.7674
20
-73.1692
11
98.9062
21
-72.8697
0
LINE
8
BLACK
6
CONTINUOUS
10
98.9062
20
-72.8697
11
99.0765
21
-72.5869
0
LINE
8
BLACK
6
CONTINUOUS
10
99.0765
20
-72.5869
11
99.2765
21
-72.3242
0
LINE
8
BLACK
6
CONTINUOUS
10
99.2765
20
-72.3242
11
99.5036
21
-72.0847
0
LINE
8
BLACK
6
CONTINUOUS
10
99.5036
20
-72.0847
11
99.7553
21
-71.8711
0
LINE
8
BLACK
6
CONTINUOUS
10
99.7553
20
-71.8711
11
100.029
21
-71.686
0
LINE
8
BLACK
6
CONTINUOUS
10
100.029
20
-71.686
11
100.32
21
-71.5315
0
LINE
8
BLACK
6
CONTINUOUS
10
100.32
20
-71.5315
11
100.627
21
-71.4094
0
LINE
8
BLACK
6
CONTINUOUS
10
100.627
20
-71.4094
11
100.945
21
-71.3211
0
LINE
8
BLACK
6
CONTINUOUS
10
100.945
20
-71.3211
11
101.271
21
-71.2678
0
LINE
8
BLACK
6
CONTINUOUS
10
101.271
20
-71.2678
11
101.599
21
-71.2501
0
LINE
8
BLACK
6
CONTINUOUS
10
101.599
20
-71.2501
11
101.6
21
-71.25
0
LINE
8
BLACK
6
CONTINUOUS
10
101.6
20
-71.25
11
101.6
21
-71.25
0
LINE
8
BLACK
6
CONTINUOUS
10
101.6
20
-71.25
11
101.6
21
-71.25
0
LINE
8
BLACK
6
CONTINUOUS
10
101.6
20
-71.25
11
101.6
21
-71.25
0
LINE
8
BLACK
6
CONTINUOUS
10
101.6
20
-71.25
11
101.601
21
-71.2501
0
LINE
8
BLACK
6
CONTINUOUS
10
99.232
20
-74.908
11
99.3269
21
-75.2
0
LINE
8
BLACK
6
CONTINUOUS
10
99.3269
20
-75.2
11
99.4576
21
-75.4778
0
LINE
8
BLACK
6
CONTINUOUS
10
99.4576
20
-75.4778
11
99.6221
21
-75.737
0
LINE
8
BLACK
6
CONTINUOUS
10
99.6221
20
-75.737
11
99.8178
21
-75.9736
0
LINE
8
BLACK
6
CONTINUOUS
10
99.8178
20
-75.9736
11
100.042
21
-76.1838
0
LINE
8
BLACK
6
CONTINUOUS
10
100.042
20
-76.1838
11
100.29
21
-76.3642
0
LINE
8
BLACK
6
CONTINUOUS
10
100.29
20
-76.3642
11
100.559
21
-76.5121
0
LINE
8
BLACK
6
CONTINUOUS
10
100.559
20
-76.5121
11
100.845
21
-76.6252
0
LINE
8
BLACK
6
CONTINUOUS
10
100.845
20
-76.6252
11
101.142
21
-76.7015
0
LINE
8
BLACK
6
CONTINUOUS
10
101.142
20
-76.7015
11
101.446
21
-76.74
0
LINE
8
BLACK
6
CONTINUOUS
10
101.446
20
-76.74
11
101.754
21
-76.74
0
LINE
8
BLACK
6
CONTINUOUS
10
101.754
20
-76.74
11
102.058
21
-76.7015
0
LINE
8
BLACK
6
CONTINUOUS
10
102.058
20
-76.7015
11
102.355
21
-76.6252
0
LINE
8
BLACK
6
CONTINUOUS
10
102.355
20
-76.6252
11
102.641
21
-76.5121
0
LINE
8
BLACK
6
CONTINUOUS
10
102.641
20
-76.5121
11
102.91
21
-76.3642
0
LINE
8
BLACK
6
CONTINUOUS
10
102.91
20
-76.3642
11
103.158
21
-76.1838
0
LINE
8
BLACK
6
CONTINUOUS
10
103.158
20
-76.1838
11
103.382
21
-75.9736
0
LINE
8
BLACK
6
CONTINUOUS
10
103.382
20
-75.9736
11
103.578
21
-75.737
0
LINE
8
BLACK
6
CONTINUOUS
10
103.578
20
-75.737
11
103.742
21
-75.4778
0
LINE
8
BLACK
6
CONTINUOUS
10
103.742
20
-75.4778
11
103.873
21
-75.2
0
LINE
8
BLACK
6
CONTINUOUS
10
103.873
20
-75.2
11
103.968
21
-74.908
0
LINE
8
BLACK
6
CONTINUOUS
10
103.968
20
-74.908
11
104.026
21
-74.6064
0
LINE
8
BLACK
6
CONTINUOUS
10
104.026
20
-74.6064
11
104.045
21
-74.3
0
LINE
8
BLACK
6
CONTINUOUS
10
104.045
20
-74.3
11
104.026
21
-73.9936
0
LINE
8
BLACK
6
CONTINUOUS
10
104.026
20
-73.9936
11
103.968
21
-73.692
0
LINE
8
BLACK
6
CONTINUOUS
10
103.968
20
-73.692
11
103.873
21
-73.4
0
LINE
8
BLACK
6
CONTINUOUS
10
103.873
20
-73.4
11
103.742
21
-73.1222
0
LINE
8
BLACK
6
CONTINUOUS
10
103.742
20
-73.1222
11
103.578
21
-72.863
0
LINE
8
BLACK
6
CONTINUOUS
10
103.578
20
-72.863
11
103.382
21
-72.6264
0
LINE
8
BLACK
6
CONTINUOUS
10
103.382
20
-72.6264
11
103.158
21
-72.4162
0
LINE
8
BLACK
6
CONTINUOUS
10
103.158
20
-72.4162
11
102.91
21
-72.2358
0
LINE
8
BLACK
6
CONTINUOUS
10
102.91
20
-72.2358
11
102.641
21
-72.0879
0
LINE
8
BLACK
6
CONTINUOUS
10
102.641
20
-72.0879
11
102.355
21
-71.9748
0
LINE
8
BLACK
6
CONTINUOUS
10
102.355
20
-71.9748
11
102.058
21
-71.8985
0
LINE
8
BLACK
6
CONTINUOUS
10
102.058
20
-71.8985
11
101.754
21
-71.86
0
LINE
8
BLACK
6
CONTINUOUS
10
101.754
20
-71.86
11
101.446
21
-71.86
0
LINE
8
BLACK
6
CONTINUOUS
10
101.446
20
-71.86
11
101.142
21
-71.8985
0
LINE
8
BLACK
6
CONTINUOUS
10
101.142
20
-71.8985
11
100.845
21
-71.9748
0
LINE
8
BLACK
6
CONTINUOUS
10
100.845
20
-71.9748
11
100.559
21
-72.0879
0
LINE
8
BLACK
6
CONTINUOUS
10
100.559
20
-72.0879
11
100.29
21
-72.2358
0
LINE
8
BLACK
6
CONTINUOUS
10
100.29
20
-72.2358
11
100.042
21
-72.4162
0
LINE
8
BLACK
6
CONTINUOUS
10
100.042
20
-72.4162
11
99.8178
21
-72.6264
0
LINE
8
BLACK
6
CONTINUOUS
10
99.8178
20
-72.6264
11
99.6221
21
-72.863
0
LINE
8
BLACK
6
CONTINUOUS
10
99.6221
20
-72.863
11
99.4576
21
-73.1222
0
LINE
8
BLACK
6
CONTINUOUS
10
99.4576
20
-73.1222
11
99.3269
21
-73.4
0
LINE
8
BLACK
6
CONTINUOUS
10
99.3269
20
-73.4
11
99.232
21
-73.692
0
LINE
8
BLACK
6
CONTINUOUS
10
99.232
20
-73.692
11
99.1745
21
-73.9936
0
LINE
8
BLACK
6
CONTINUOUS
10
99.1745
20
-73.9936
11
99.1552
21
-74.3
0
LINE
8
BLACK
6
CONTINUOUS
10
99.1552
20
-74.3
11
99.1745
21
-74.6064
0
LINE
8
BLACK
6
CONTINUOUS
10
99.1745
20
-74.6064
11
99.232
21
-74.908
0
LINE
8
BLACK
6
CONTINUOUS
10
99.1204
20
-73.6634
11
99.2198
21
-73.3576
0
LINE
8
BLACK
6
CONTINUOUS
10
99.2198
20
-73.3576
11
99.3567
21
-73.0667
0
LINE
8
BLACK
6
CONTINUOUS
10
99.3567
20
-73.0667
11
99.5289
21
-72.7953
0
LINE
8
BLACK
6
CONTINUOUS
10
99.5289
20
-72.7953
11
99.7338
21
-72.5476
0
LINE
8
BLACK
6
CONTINUOUS
10
99.7338
20
-72.5476
11
99.9682
21
-72.3275
0
LINE
8
BLACK
6
CONTINUOUS
10
99.9682
20
-72.3275
11
100.228
21
-72.1385
0
LINE
8
BLACK
6
CONTINUOUS
10
100.228
20
-72.1385
11
100.51
21
-71.9836
0
LINE
8
BLACK
6
CONTINUOUS
10
100.51
20
-71.9836
11
100.809
21
-71.8653
0
LINE
8
BLACK
6
CONTINUOUS
10
100.809
20
-71.8653
11
101.12
21
-71.7853
0
LINE
8
BLACK
6
CONTINUOUS
10
101.12
20
-71.7853
11
101.439
21
-71.7451
0
LINE
8
BLACK
6
CONTINUOUS
10
101.439
20
-71.7451
11
101.761
21
-71.7451
0
LINE
8
BLACK
6
CONTINUOUS
10
101.761
20
-71.7451
11
102.08
21
-71.7853
0
LINE
8
BLACK
6
CONTINUOUS
10
102.08
20
-71.7853
11
102.391
21
-71.8653
0
LINE
8
BLACK
6
CONTINUOUS
10
102.391
20
-71.8653
11
102.69
21
-71.9836
0
LINE
8
BLACK
6
CONTINUOUS
10
102.69
20
-71.9836
11
102.972
21
-72.1385
0
LINE
8
BLACK
6
CONTINUOUS
10
102.972
20
-72.1385
11
103.232
21
-72.3275
0
LINE
8
BLACK
6
CONTINUOUS
10
103.232
20
-72.3275
11
103.466
21
-72.5476
0
LINE
8
BLACK
6
CONTINUOUS
10
103.466
20
-72.5476
11
103.671
21
-72.7953
0
LINE
8
BLACK
6
CONTINUOUS
10
103.671
20
-72.7953
11
103.843
21
-73.0667
0
LINE
8
BLACK
6
CONTINUOUS
10
103.843
20
-73.0667
11
103.98
21
-73.3576
0
LINE
8
BLACK
6
CONTINUOUS
10
103.98
20
-73.3576
11
104.08
21
-73.6634
0
LINE
8
BLACK
6
CONTINUOUS
10
104.08
20
-73.6634
11
104.14
21
-73.9791
0
LINE
8
BLACK
6
CONTINUOUS
10
104.14
20
-73.9791
11
104.16
21
-74.3
0
LINE
8
BLACK
6
CONTINUOUS
10
104.16
20
-74.3
11
104.14
21
-74.6209
0
LINE
8
BLACK
6
CONTINUOUS
10
104.14
20
-74.6209
11
104.08
21
-74.9366
0
LINE
8
BLACK
6
CONTINUOUS
10
104.08
20
-74.9366
11
103.98
21
-75.2424
0
LINE
8
BLACK
6
CONTINUOUS
10
103.98
20
-75.2424
11
103.843
21
-75.5333
0
LINE
8
BLACK
6
CONTINUOUS
10
103.843
20
-75.5333
11
103.671
21
-75.8047
0
LINE
8
BLACK
6
CONTINUOUS
10
103.671
20
-75.8047
11
103.466
21
-76.0524
0
LINE
8
BLACK
6
CONTINUOUS
10
103.466
20
-76.0524
11
103.232
21
-76.2725
0
LINE
8
BLACK
6
CONTINUOUS
10
103.232
20
-76.2725
11
102.972
21
-76.4615
0
LINE
8
BLACK
6
CONTINUOUS
10
102.972
20
-76.4615
11
102.69
21
-76.6164
0
LINE
8
BLACK
6
CONTINUOUS
10
102.69
20
-76.6164
11
102.391
21
-76.7347
0
LINE
8
BLACK
6
CONTINUOUS
10
102.391
20
-76.7347
11
102.137
21
-76.8
0
LINE
8
BLACK
6
CONTINUOUS
10
102.137
20
-76.8
11
103.135
21
-76.8
0
LINE
8
BLACK
6
CONTINUOUS
10
103.135
20
-76.8
11
103.39
21
-76.6256
0
LINE
8
BLACK
6
CONTINUOUS
10
103.39
20
-76.6256
11
103.641
21
-76.409
0
LINE
8
BLACK
6
CONTINUOUS
10
103.641
20
-76.409
11
103.865
21
-76.1654
0
LINE
8
BLACK
6
CONTINUOUS
10
103.865
20
-76.1654
11
104.061
21
-75.8981
0
LINE
8
BLACK
6
CONTINUOUS
10
104.061
20
-75.8981
11
104.226
21
-75.6104
0
LINE
8
BLACK
6
CONTINUOUS
10
104.226
20
-75.6104
11
104.357
21
-75.306
0
LINE
8
BLACK
6
CONTINUOUS
10
104.357
20
-75.306
11
104.453
21
-74.9887
0
LINE
8
BLACK
6
CONTINUOUS
10
104.453
20
-74.9887
11
104.512
21
-74.6627
0
LINE
8
BLACK
6
CONTINUOUS
10
104.512
20
-74.6627
11
104.534
21
-74.3321
0
LINE
8
BLACK
6
CONTINUOUS
10
104.534
20
-74.3321
11
104.519
21
-74.001
0
LINE
8
BLACK
6
CONTINUOUS
10
104.519
20
-74.001
11
104.467
21
-73.6737
0
LINE
8
BLACK
6
CONTINUOUS
10
104.467
20
-73.6737
11
104.378
21
-73.3545
0
LINE
8
BLACK
6
CONTINUOUS
10
104.378
20
-73.3545
11
104.254
21
-73.0473
0
LINE
8
BLACK
6
CONTINUOUS
10
104.254
20
-73.0473
11
104.096
21
-72.756
0
LINE
8
BLACK
6
CONTINUOUS
10
104.096
20
-72.756
11
103.906
21
-72.4845
0
LINE
8
BLACK
6
CONTINUOUS
10
103.906
20
-72.4845
11
103.686
21
-72.2361
0
LINE
8
BLACK
6
CONTINUOUS
10
103.686
20
-72.2361
11
103.44
21
-72.0141
0
LINE
8
BLACK
6
CONTINUOUS
10
103.44
20
-72.0141
11
103.171
21
-71.8211
0
LINE
8
BLACK
6
CONTINUOUS
10
103.171
20
-71.8211
11
102.881
21
-71.6598
0
LINE
8
BLACK
6
CONTINUOUS
10
102.881
20
-71.6598
11
102.575
21
-71.5322
0
LINE
8
BLACK
6
CONTINUOUS
10
102.575
20
-71.5322
11
102.257
21
-71.4399
0
LINE
8
BLACK
6
CONTINUOUS
10
102.257
20
-71.4399
11
101.93
21
-71.384
0
LINE
8
BLACK
6
CONTINUOUS
10
101.93
20
-71.384
11
101.61
21
-71.366
0
LINE
8
BLACK
6
CONTINUOUS
10
101.61
20
-71.366
11
101.6
21
-71.37
0
LINE
8
BLACK
6
CONTINUOUS
10
101.6
20
-71.37
11
101.6
21
-71.3698
0
LINE
8
BLACK
6
CONTINUOUS
10
101.6
20
-71.3698
11
101.6
21
-71.37
0
LINE
8
BLACK
6
CONTINUOUS
10
101.6
20
-71.37
11
101.59
21
-71.366
0
LINE
8
BLACK
6
CONTINUOUS
10
101.59
20
-71.366
11
101.27
21
-71.384
0
LINE
8
BLACK
6
CONTINUOUS
10
101.27
20
-71.384
11
100.943
21
-71.4399
0
LINE
8
BLACK
6
CONTINUOUS
10
100.943
20
-71.4399
11
100.625
21
-71.5322
0
LINE
8
BLACK
6
CONTINUOUS
10
100.625
20
-71.5322
11
100.319
21
-71.6598
0
LINE
8
BLACK
6
CONTINUOUS
10
100.319
20
-71.6598
11
100.029
21
-71.8211
0
LINE
8
BLACK
6
CONTINUOUS
10
100.029
20
-71.8211
11
99.7598
21
-72.0141
0
LINE
8
BLACK
6
CONTINUOUS
10
99.7598
20
-72.0141
11
99.5138
21
-72.2361
0
LINE
8
BLACK
6
CONTINUOUS
10
99.5138
20
-72.2361
11
99.2944
21
-72.4845
0
LINE
8
BLACK
6
CONTINUOUS
10
99.2944
20
-72.4845
11
99.1044
21
-72.756
0
LINE
8
BLACK
6
CONTINUOUS
10
99.1044
20
-72.756
11
98.9462
21
-73.0473
0
LINE
8
BLACK
6
CONTINUOUS
10
98.9462
20
-73.0473
11
98.8219
21
-73.3545
0
LINE
8
BLACK
6
CONTINUOUS
10
98.8219
20
-73.3545
11
98.733
21
-73.6737
0
LINE
8
BLACK
6
CONTINUOUS
10
98.733
20
-73.6737
11
98.6807
21
-74.001
0
LINE
8
BLACK
6
CONTINUOUS
10
98.6807
20
-74.001
11
98.6656
21
-74.3321
0
LINE
8
BLACK
6
CONTINUOUS
10
98.6656
20
-74.3321
11
98.6879
21
-74.6627
0
LINE
8
BLACK
6
CONTINUOUS
10
98.6879
20
-74.6627
11
98.7474
21
-74.9887
0
LINE
8
BLACK
6
CONTINUOUS
10
98.7474
20
-74.9887
11
98.8432
21
-75.306
0
LINE
8
BLACK
6
CONTINUOUS
10
98.8432
20
-75.306
11
98.9742
21
-75.6104
0
LINE
8
BLACK
6
CONTINUOUS
10
98.9742
20
-75.6104
11
99.1387
21
-75.8981
0
LINE
8
BLACK
6
CONTINUOUS
10
99.1387
20
-75.8981
11
99.3346
21
-76.1654
0
LINE
8
BLACK
6
CONTINUOUS
10
99.3346
20
-76.1654
11
99.5594
21
-76.409
0
LINE
8
BLACK
6
CONTINUOUS
10
99.5594
20
-76.409
11
99.8102
21
-76.6256
0
LINE
8
BLACK
6
CONTINUOUS
10
99.8102
20
-76.6256
11
100.065
21
-76.8
0
LINE
8
BLACK
6
CONTINUOUS
10
100.065
20
-76.8
11
101.063
21
-76.8
0
LINE
8
BLACK
6
CONTINUOUS
10
101.063
20
-76.8
11
100.809
21
-76.7347
0
LINE
8
BLACK
6
CONTINUOUS
10
100.809
20
-76.7347
11
100.51
21
-76.6164
0
LINE
8
BLACK
6
CONTINUOUS
10
100.51
20
-76.6164
11
100.228
21
-76.4615
0
LINE
8
BLACK
6
CONTINUOUS
10
100.228
20
-76.4615
11
99.9682
21
-76.2725
0
LINE
8
BLACK
6
CONTINUOUS
10
99.9682
20
-76.2725
11
99.7338
21
-76.0524
0
LINE
8
BLACK
6
CONTINUOUS
10
99.7338
20
-76.0524
11
99.5289
21
-75.8047
0
LINE
8
BLACK
6
CONTINUOUS
10
99.5289
20
-75.8047
11
99.3567
21
-75.5333
0
LINE
8
BLACK
6
CONTINUOUS
10
99.3567
20
-75.5333
11
99.2198
21
-75.2424
0
LINE
8
BLACK
6
CONTINUOUS
10
99.2198
20
-75.2424
11
99.1204
21
-74.9366
0
LINE
8
BLACK
6
CONTINUOUS
10
99.1204
20
-74.9366
11
99.0602
21
-74.6209
0
LINE
8
BLACK
6
CONTINUOUS
10
99.0602
20
-74.6209
11
99.04
21
-74.3
0
LINE
8
BLACK
6
CONTINUOUS
10
99.04
20
-74.3
11
99.0602
21
-73.9791
0
LINE
8
BLACK
6
CONTINUOUS
10
99.0602
20
-73.9791
11
99.1204
21
-73.6634
0
LINE
8
BLACK
6
CONTINUOUS
10
101.122
20
-69.7393
11
101.124
21
-69.7392
0
LINE
8
BLACK
6
CONTINUOUS
10
101.124
20
-69.7392
11
101.267
21
-69.7868
0
LINE
8
BLACK
6
CONTINUOUS
10
101.267
20
-69.7868
11
101.289
21
-69.7993
0
LINE
8
BLACK
6
CONTINUOUS
10
101.289
20
-69.7993
11
101.292
21
-69.8031
0
LINE
8
BLACK
6
CONTINUOUS
10
101.292
20
-69.8031
11
101.296
21
-69.805
0
LINE
8
BLACK
6
CONTINUOUS
10
101.296
20
-69.805
11
101.391
21
-69.9002
0
LINE
8
BLACK
6
CONTINUOUS
10
101.391
20
-69.9002
11
101.404
21
-69.9186
0
LINE
8
BLACK
6
CONTINUOUS
10
101.404
20
-69.9186
11
101.405
21
-69.9197
0
LINE
8
BLACK
6
CONTINUOUS
10
101.405
20
-69.9197
11
101.453
21
-70.0149
0
LINE
8
BLACK
6
CONTINUOUS
10
101.453
20
-70.0149
11
101.456
21
-70.0273
0
LINE
8
BLACK
6
CONTINUOUS
10
101.456
20
-70.0273
11
101.458
21
-70.0303
0
LINE
8
BLACK
6
CONTINUOUS
10
101.458
20
-70.0303
11
101.506
21
-70.2208
0
LINE
8
BLACK
6
CONTINUOUS
10
101.506
20
-70.2208
11
101.507
21
-70.2357
0
LINE
8
BLACK
6
CONTINUOUS
10
101.507
20
-70.2357
11
101.508
21
-70.239
0
LINE
8
BLACK
6
CONTINUOUS
10
101.508
20
-70.239
11
101.508
21
-70.3818
0
LINE
8
BLACK
6
CONTINUOUS
10
101.508
20
-70.3818
11
101.506
21
-70.3966
0
LINE
8
BLACK
6
CONTINUOUS
10
101.506
20
-70.3966
11
101.506
21
-70.4
0
LINE
8
BLACK
6
CONTINUOUS
10
101.506
20
-70.4
11
101.458
21
-70.5905
0
LINE
8
BLACK
6
CONTINUOUS
10
101.458
20
-70.5905
11
101.453
21
-70.6023
0
LINE
8
BLACK
6
CONTINUOUS
10
101.453
20
-70.6023
11
101.453
21
-70.6058
0
LINE
8
BLACK
6
CONTINUOUS
10
101.453
20
-70.6058
11
101.405
21
-70.7011
0
LINE
8
BLACK
6
CONTINUOUS
10
101.405
20
-70.7011
11
101.392
21
-70.7191
0
LINE
8
BLACK
6
CONTINUOUS
10
101.392
20
-70.7191
11
101.391
21
-70.7206
0
LINE
8
BLACK
6
CONTINUOUS
10
101.391
20
-70.7206
11
101.296
21
-70.8158
0
LINE
8
BLACK
6
CONTINUOUS
10
101.296
20
-70.8158
11
101.275
21
-70.8307
0
LINE
8
BLACK
6
CONTINUOUS
10
101.275
20
-70.8307
11
101.27
21
-70.8311
0
LINE
8
BLACK
6
CONTINUOUS
10
101.27
20
-70.8311
11
101.267
21
-70.8339
0
LINE
8
BLACK
6
CONTINUOUS
10
101.267
20
-70.8339
11
101.124
21
-70.8815
0
LINE
8
BLACK
6
CONTINUOUS
10
101.124
20
-70.8815
11
101.102
21
-70.8848
0
LINE
8
BLACK
6
CONTINUOUS
10
101.102
20
-70.8848
11
101.1
21
-70.8854
0
LINE
8
BLACK
6
CONTINUOUS
10
101.1
20
-70.8854
11
100.862
21
-70.8854
0
LINE
8
BLACK
6
CONTINUOUS
10
100.862
20
-70.8854
11
100.852
21
-70.8837
0
LINE
8
BLACK
6
CONTINUOUS
10
100.852
20
-70.8837
11
100.849
21
-70.8842
0
LINE
8
BLACK
6
CONTINUOUS
10
100.849
20
-70.8842
11
100.846
21
-70.8826
0
LINE
8
BLACK
6
CONTINUOUS
10
100.846
20
-70.8826
11
100.836
21
-70.8809
0
LINE
8
BLACK
6
CONTINUOUS
10
100.836
20
-70.8809
11
100.821
21
-70.8683
0
LINE
8
BLACK
6
CONTINUOUS
10
100.821
20
-70.8683
11
100.804
21
-70.8586
0
LINE
8
BLACK
6
CONTINUOUS
10
100.804
20
-70.8586
11
100.802
21
-70.8522
0
LINE
8
BLACK
6
CONTINUOUS
10
100.802
20
-70.8522
11
100.797
21
-70.8479
0
LINE
8
BLACK
6
CONTINUOUS
10
100.797
20
-70.8479
11
100.794
21
-70.8287
0
LINE
8
BLACK
6
CONTINUOUS
10
100.794
20
-70.8287
11
100.787
21
-70.8104
0
LINE
8
BLACK
6
CONTINUOUS
10
100.787
20
-70.8104
11
100.787
21
-69.8104
0
LINE
8
BLACK
6
CONTINUOUS
10
100.787
20
-69.8104
11
100.789
21
-69.8006
0
LINE
8
BLACK
6
CONTINUOUS
10
100.789
20
-69.8006
11
100.788
21
-69.7974
0
LINE
8
BLACK
6
CONTINUOUS
10
100.788
20
-69.7974
11
100.79
21
-69.7945
0
LINE
8
BLACK
6
CONTINUOUS
10
100.79
20
-69.7945
11
100.791
21
-69.7847
0
LINE
8
BLACK
6
CONTINUOUS
10
100.791
20
-69.7847
11
100.804
21
-69.7698
0
LINE
8
BLACK
6
CONTINUOUS
10
100.804
20
-69.7698
11
100.814
21
-69.7529
0
LINE
8
BLACK
6
CONTINUOUS
10
100.814
20
-69.7529
11
100.82
21
-69.7506
0
LINE
8
BLACK
6
CONTINUOUS
10
100.82
20
-69.7506
11
100.824
21
-69.7454
0
LINE
8
BLACK
6
CONTINUOUS
10
100.824
20
-69.7454
11
100.844
21
-69.742
0
LINE
8
BLACK
6
CONTINUOUS
10
100.844
20
-69.742
11
100.862
21
-69.7354
0
LINE
8
BLACK
6
CONTINUOUS
10
100.862
20
-69.7354
11
101.1
21
-69.7354
0
LINE
8
BLACK
6
CONTINUOUS
10
101.1
20
-69.7354
11
101.122
21
-69.7393
0
LINE
8
BLACK
6
CONTINUOUS
10
100.937
20
-69.8854
11
100.937
21
-70.7354
0
LINE
8
BLACK
6
CONTINUOUS
10
100.937
20
-70.7354
11
101.088
21
-70.7354
0
LINE
8
BLACK
6
CONTINUOUS
10
101.088
20
-70.7354
11
101.202
21
-70.6972
0
LINE
8
BLACK
6
CONTINUOUS
10
101.202
20
-70.6972
11
101.276
21
-70.6231
0
LINE
8
BLACK
6
CONTINUOUS
10
101.276
20
-70.6231
11
101.315
21
-70.5461
0
LINE
8
BLACK
6
CONTINUOUS
10
101.315
20
-70.5461
11
101.358
21
-70.3726
0
LINE
8
BLACK
6
CONTINUOUS
10
101.358
20
-70.3726
11
101.358
21
-70.2482
0
LINE
8
BLACK
6
CONTINUOUS
10
101.358
20
-70.2482
11
101.315
21
-70.0747
0
LINE
8
BLACK
6
CONTINUOUS
10
101.315
20
-70.0747
11
101.276
21
-69.9977
0
LINE
8
BLACK
6
CONTINUOUS
10
101.276
20
-69.9977
11
101.202
21
-69.9236
0
LINE
8
BLACK
6
CONTINUOUS
10
101.202
20
-69.9236
11
101.088
21
-69.8854
0
LINE
8
BLACK
6
CONTINUOUS
10
101.088
20
-69.8854
11
100.937
21
-69.8854
0
LINE
8
BLACK
6
CONTINUOUS
10
102.459
20
-69.7399
11
102.466
21
-69.7456
0
LINE
8
BLACK
6
CONTINUOUS
10
102.466
20
-69.7456
11
102.474
21
-69.7476
0
LINE
8
BLACK
6
CONTINUOUS
10
102.474
20
-69.7476
11
102.485
21
-69.7616
0
LINE
8
BLACK
6
CONTINUOUS
10
102.485
20
-69.7616
11
102.498
21
-69.7729
0
LINE
8
BLACK
6
CONTINUOUS
10
102.498
20
-69.7729
11
102.5
21
-69.7816
0
LINE
8
BLACK
6
CONTINUOUS
10
102.5
20
-69.7816
11
102.505
21
-69.7887
0
LINE
8
BLACK
6
CONTINUOUS
10
102.505
20
-69.7887
11
102.504
21
-69.8062
0
LINE
8
BLACK
6
CONTINUOUS
10
102.504
20
-69.8062
11
102.507
21
-69.8234
0
LINE
8
BLACK
6
CONTINUOUS
10
102.507
20
-69.8234
11
102.503
21
-69.8311
0
LINE
8
BLACK
6
CONTINUOUS
10
102.503
20
-69.8311
11
102.502
21
-69.8399
0
LINE
8
BLACK
6
CONTINUOUS
10
102.502
20
-69.8399
11
102.074
21
-70.8399
0
LINE
8
BLACK
6
CONTINUOUS
10
102.074
20
-70.8399
11
102.059
21
-70.8617
0
LINE
8
BLACK
6
CONTINUOUS
10
102.059
20
-70.8617
11
102.014
21
-70.8849
0
LINE
8
BLACK
6
CONTINUOUS
10
102.014
20
-70.8849
11
101.964
21
-70.8731
0
LINE
8
BLACK
6
CONTINUOUS
10
101.964
20
-70.8731
11
101.933
21
-70.8321
0
LINE
8
BLACK
6
CONTINUOUS
10
101.933
20
-70.8321
11
101.936
21
-70.7808
0
LINE
8
BLACK
6
CONTINUOUS
10
101.936
20
-70.7808
11
102.32
21
-69.8854
0
LINE
8
BLACK
6
CONTINUOUS
10
102.32
20
-69.8854
11
101.767
21
-69.8854
0
LINE
8
BLACK
6
CONTINUOUS
10
101.767
20
-69.8854
11
101.741
21
-69.8809
0
LINE
8
BLACK
6
CONTINUOUS
10
101.741
20
-69.8809
11
101.702
21
-69.8479
0
LINE
8
BLACK
6
CONTINUOUS
10
101.702
20
-69.8479
11
101.693
21
-69.7974
0
LINE
8
BLACK
6
CONTINUOUS
10
101.693
20
-69.7974
11
101.718
21
-69.7529
0
LINE
8
BLACK
6
CONTINUOUS
10
101.718
20
-69.7529
11
101.767
21
-69.7354
0
LINE
8
BLACK
6
CONTINUOUS
10
101.767
20
-69.7354
11
102.433
21
-69.7354
0
LINE
8
BLACK
6
CONTINUOUS
10
102.433
20
-69.7354
11
102.459
21
-69.7399
0
LINE
8
BLACK
6
CONTINUOUS
10
97.4573
20
-52.7193
11
97.4616
21
-52.7185
0
LINE
8
BLACK
6
CONTINUOUS
10
97.4616
20
-52.7185
11
97.4804
21
-52.7294
0
LINE
8
BLACK
6
CONTINUOUS
10
97.4804
20
-52.7294
11
97.5004
21
-52.7381
0
LINE
8
BLACK
6
CONTINUOUS
10
97.5004
20
-52.7381
11
97.5023
21
-52.742
0
LINE
8
BLACK
6
CONTINUOUS
10
97.5023
20
-52.742
11
97.506
21
-52.7442
0
LINE
8
BLACK
6
CONTINUOUS
10
97.506
20
-52.7442
11
97.5135
21
-52.7646
0
LINE
8
BLACK
6
CONTINUOUS
10
97.5135
20
-52.7646
11
97.5231
21
-52.7841
0
LINE
8
BLACK
6
CONTINUOUS
10
97.5231
20
-52.7841
11
97.5221
21
-52.7883
0
LINE
8
BLACK
6
CONTINUOUS
10
97.5221
20
-52.7883
11
97.5236
21
-52.7924
0
LINE
8
BLACK
6
CONTINUOUS
10
97.5236
20
-52.7924
11
97.5236
21
-53.7174
0
LINE
8
BLACK
6
CONTINUOUS
10
97.5236
20
-53.7174
11
97.7343
21
-53.7174
0
LINE
8
BLACK
6
CONTINUOUS
10
97.7343
20
-53.7174
11
97.7599
21
-53.7219
0
LINE
8
BLACK
6
CONTINUOUS
10
97.7599
20
-53.7219
11
97.7992
21
-53.7549
0
LINE
8
BLACK
6
CONTINUOUS
10
97.7992
20
-53.7549
11
97.8081
21
-53.8054
0
LINE
8
BLACK
6
CONTINUOUS
10
97.8081
20
-53.8054
11
97.7825
21
-53.8498
0
LINE
8
BLACK
6
CONTINUOUS
10
97.7825
20
-53.8498
11
97.7343
21
-53.8674
0
LINE
8
BLACK
6
CONTINUOUS
10
97.7343
20
-53.8674
11
97.1629
21
-53.8674
0
LINE
8
BLACK
6
CONTINUOUS
10
97.1629
20
-53.8674
11
97.1372
21
-53.8629
0
LINE
8
BLACK
6
CONTINUOUS
10
97.1372
20
-53.8629
11
97.0979
21
-53.8299
0
LINE
8
BLACK
6
CONTINUOUS
10
97.0979
20
-53.8299
11
97.089
21
-53.7794
0
LINE
8
BLACK
6
CONTINUOUS
10
97.089
20
-53.7794
11
97.1146
21
-53.7349
0
LINE
8
BLACK
6
CONTINUOUS
10
97.1146
20
-53.7349
11
97.1629
21
-53.7174
0
LINE
8
BLACK
6
CONTINUOUS
10
97.1629
20
-53.7174
11
97.3736
21
-53.7174
0
LINE
8
BLACK
6
CONTINUOUS
10
97.3736
20
-53.7174
11
97.3736
21
-53.0211
0
LINE
8
BLACK
6
CONTINUOUS
10
97.3736
20
-53.0211
11
97.3111
21
-53.0835
0
LINE
8
BLACK
6
CONTINUOUS
10
97.3111
20
-53.0835
11
97.2928
21
-53.0964
0
LINE
8
BLACK
6
CONTINUOUS
10
97.2928
20
-53.0964
11
97.2916
21
-53.0976
0
LINE
8
BLACK
6
CONTINUOUS
10
97.2916
20
-53.0976
11
97.1964
21
-53.1452
0
LINE
8
BLACK
6
CONTINUOUS
10
97.1964
20
-53.1452
11
97.1714
21
-53.1526
0
LINE
8
BLACK
6
CONTINUOUS
10
97.1714
20
-53.1526
11
97.1215
21
-53.1407
0
LINE
8
BLACK
6
CONTINUOUS
10
97.1215
20
-53.1407
11
97.091
21
-53.0995
0
LINE
8
BLACK
6
CONTINUOUS
10
97.091
20
-53.0995
11
97.094
21
-53.0483
0
LINE
8
BLACK
6
CONTINUOUS
10
97.094
20
-53.0483
11
97.1293
21
-53.011
0
LINE
8
BLACK
6
CONTINUOUS
10
97.1293
20
-53.011
11
97.2137
21
-52.9688
0
LINE
8
BLACK
6
CONTINUOUS
10
97.2137
20
-52.9688
11
97.295
21
-52.8875
0
LINE
8
BLACK
6
CONTINUOUS
10
97.295
20
-52.8875
11
97.3862
21
-52.7508
0
LINE
8
BLACK
6
CONTINUOUS
10
97.3862
20
-52.7508
11
97.4042
21
-52.7319
0
LINE
8
BLACK
6
CONTINUOUS
10
97.4042
20
-52.7319
11
97.4083
21
-52.7307
0
LINE
8
BLACK
6
CONTINUOUS
10
97.4083
20
-52.7307
11
97.4111
21
-52.7274
0
LINE
8
BLACK
6
CONTINUOUS
10
97.4111
20
-52.7274
11
97.4325
21
-52.7236
0
LINE
8
BLACK
6
CONTINUOUS
10
97.4325
20
-52.7236
11
97.4534
21
-52.7175
0
LINE
8
BLACK
6
CONTINUOUS
10
97.4534
20
-52.7175
11
97.4573
21
-52.7193
0
LINE
8
BLACK
6
CONTINUOUS
10
96.2497
20
-52.7285
11
96.2816
21
-52.7687
0
LINE
8
BLACK
6
CONTINUOUS
10
96.2816
20
-52.7687
11
96.5438
21
-53.5552
0
LINE
8
BLACK
6
CONTINUOUS
10
96.5438
20
-53.5552
11
96.806
21
-52.7687
0
LINE
8
BLACK
6
CONTINUOUS
10
96.806
20
-52.7687
11
96.8184
21
-52.7458
0
LINE
8
BLACK
6
CONTINUOUS
10
96.8184
20
-52.7458
11
96.8621
21
-52.7189
0
LINE
8
BLACK
6
CONTINUOUS
10
96.8621
20
-52.7189
11
96.9129
21
-52.7264
0
LINE
8
BLACK
6
CONTINUOUS
10
96.9129
20
-52.7264
11
96.9469
21
-52.7648
0
LINE
8
BLACK
6
CONTINUOUS
10
96.9469
20
-52.7648
11
96.9483
21
-52.8161
0
LINE
8
BLACK
6
CONTINUOUS
10
96.9483
20
-52.8161
11
96.615
21
-53.8161
0
LINE
8
BLACK
6
CONTINUOUS
10
96.615
20
-53.8161
11
96.6026
21
-53.839
0
LINE
8
BLACK
6
CONTINUOUS
10
96.6026
20
-53.839
11
96.6007
21
-53.8401
0
LINE
8
BLACK
6
CONTINUOUS
10
96.6007
20
-53.8401
11
96.5999
21
-53.8421
0
LINE
8
BLACK
6
CONTINUOUS
10
96.5999
20
-53.8421
11
96.5791
21
-53.8534
0
LINE
8
BLACK
6
CONTINUOUS
10
96.5791
20
-53.8534
11
96.5588
21
-53.8659
0
LINE
8
BLACK
6
CONTINUOUS
10
96.5588
20
-53.8659
11
96.5567
21
-53.8655
0
LINE
8
BLACK
6
CONTINUOUS
10
96.5567
20
-53.8655
11
96.5548
21
-53.8666
0
LINE
8
BLACK
6
CONTINUOUS
10
96.5548
20
-53.8666
11
96.5316
21
-53.8618
0
LINE
8
BLACK
6
CONTINUOUS
10
96.5316
20
-53.8618
11
96.5081
21
-53.8583
0
LINE
8
BLACK
6
CONTINUOUS
10
96.5081
20
-53.8583
11
96.5067
21
-53.8567
0
LINE
8
BLACK
6
CONTINUOUS
10
96.5067
20
-53.8567
11
96.5045
21
-53.8563
0
LINE
8
BLACK
6
CONTINUOUS
10
96.5045
20
-53.8563
11
96.4898
21
-53.8377
0
LINE
8
BLACK
6
CONTINUOUS
10
96.4898
20
-53.8377
11
96.4741
21
-53.8199
0
LINE
8
BLACK
6
CONTINUOUS
10
96.4741
20
-53.8199
11
96.474
21
-53.8178
0
LINE
8
BLACK
6
CONTINUOUS
10
96.474
20
-53.8178
11
96.4727
21
-53.8161
0
LINE
8
BLACK
6
CONTINUOUS
10
96.4727
20
-53.8161
11
96.1393
21
-52.8161
0
LINE
8
BLACK
6
CONTINUOUS
10
96.1393
20
-52.8161
11
96.1355
21
-52.7903
0
LINE
8
BLACK
6
CONTINUOUS
10
96.1355
20
-52.7903
11
96.1544
21
-52.7426
0
LINE
8
BLACK
6
CONTINUOUS
10
96.1544
20
-52.7426
11
96.1995
21
-52.7182
0
LINE
8
BLACK
6
CONTINUOUS
10
96.1995
20
-52.7182
11
96.2497
21
-52.7285
0
LINE
8
BLACK
6
CONTINUOUS
10
95.7599
20
-52.7219
11
95.7634
21
-52.7248
0
LINE
8
BLACK
6
CONTINUOUS
10
95.7634
20
-52.7248
11
95.7678
21
-52.7253
0
LINE
8
BLACK
6
CONTINUOUS
10
95.7678
20
-52.7253
11
95.8631
21
-52.7729
0
LINE
8
BLACK
6
CONTINUOUS
10
95.8631
20
-52.7729
11
95.8811
21
-52.7863
0
LINE
8
BLACK
6
CONTINUOUS
10
95.8811
20
-52.7863
11
95.8826
21
-52.787
0
LINE
8
BLACK
6
CONTINUOUS
10
95.8826
20
-52.787
11
95.9302
21
-52.8346
0
LINE
8
BLACK
6
CONTINUOUS
10
95.9302
20
-52.8346
11
95.943
21
-52.853
0
LINE
8
BLACK
6
CONTINUOUS
10
95.943
20
-52.853
11
95.9442
21
-52.8541
0
LINE
8
BLACK
6
CONTINUOUS
10
95.9442
20
-52.8541
11
95.9918
21
-52.9493
0
LINE
8
BLACK
6
CONTINUOUS
10
95.9918
20
-52.9493
11
95.9993
21
-52.9743
0
LINE
8
BLACK
6
CONTINUOUS
10
95.9993
20
-52.9743
11
95.9982
21
-52.9786
0
LINE
8
BLACK
6
CONTINUOUS
10
95.9982
20
-52.9786
11
95.9998
21
-52.9829
0
LINE
8
BLACK
6
CONTINUOUS
10
95.9998
20
-52.9829
11
95.9998
21
-53.1257
0
LINE
8
BLACK
6
CONTINUOUS
10
95.9998
20
-53.1257
11
95.9952
21
-53.1514
0
LINE
8
BLACK
6
CONTINUOUS
10
95.9952
20
-53.1514
11
95.9924
21
-53.1548
0
LINE
8
BLACK
6
CONTINUOUS
10
95.9924
20
-53.1548
11
95.9918
21
-53.1593
0
LINE
8
BLACK
6
CONTINUOUS
10
95.9918
20
-53.1593
11
95.9442
21
-53.2545
0
LINE
8
BLACK
6
CONTINUOUS
10
95.9442
20
-53.2545
11
95.9309
21
-53.2725
0
LINE
8
BLACK
6
CONTINUOUS
10
95.9309
20
-53.2725
11
95.9302
21
-53.274
0
LINE
8
BLACK
6
CONTINUOUS
10
95.9302
20
-53.274
11
95.8826
21
-53.3216
0
LINE
8
BLACK
6
CONTINUOUS
10
95.8826
20
-53.3216
11
95.8642
21
-53.3345
0
LINE
8
BLACK
6
CONTINUOUS
10
95.8642
20
-53.3345
11
95.8631
21
-53.3357
0
LINE
8
BLACK
6
CONTINUOUS
10
95.8631
20
-53.3357
11
95.7678
21
-53.3833
0
LINE
8
BLACK
6
CONTINUOUS
10
95.7678
20
-53.3833
11
95.7429
21
-53.3907
0
LINE
8
BLACK
6
CONTINUOUS
10
95.7429
20
-53.3907
11
95.7385
21
-53.3897
0
LINE
8
BLACK
6
CONTINUOUS
10
95.7385
20
-53.3897
11
95.7352
21
-53.3908
0
LINE
8
BLACK
6
CONTINUOUS
10
95.7352
20
-53.3908
11
95.9862
21
-53.7494
0
LINE
8
BLACK
6
CONTINUOUS
10
95.9862
20
-53.7494
11
95.9972
21
-53.773
0
LINE
8
BLACK
6
CONTINUOUS
10
95.9972
20
-53.773
11
95.9927
21
-53.8241
0
LINE
8
BLACK
6
CONTINUOUS
10
95.9927
20
-53.8241
11
95.9564
21
-53.8604
0
LINE
8
BLACK
6
CONTINUOUS
10
95.9564
20
-53.8604
11
95.9053
21
-53.8648
0
LINE
8
BLACK
6
CONTINUOUS
10
95.9053
20
-53.8648
11
95.8633
21
-53.8354
0
LINE
8
BLACK
6
CONTINUOUS
10
95.8633
20
-53.8354
11
95.5524
21
-53.3912
0
LINE
8
BLACK
6
CONTINUOUS
10
95.5524
20
-53.3912
11
95.4283
21
-53.3912
0
LINE
8
BLACK
6
CONTINUOUS
10
95.4283
20
-53.3912
11
95.4283
21
-53.7924
0
LINE
8
BLACK
6
CONTINUOUS
10
95.4283
20
-53.7924
11
95.4238
21
-53.818
0
LINE
8
BLACK
6
CONTINUOUS
10
95.4238
20
-53.818
11
95.3908
21
-53.8573
0
LINE
8
BLACK
6
CONTINUOUS
10
95.3908
20
-53.8573
11
95.3403
21
-53.8662
0
LINE
8
BLACK
6
CONTINUOUS
10
95.3403
20
-53.8662
11
95.2959
21
-53.8406
0
LINE
8
BLACK
6
CONTINUOUS
10
95.2959
20
-53.8406
11
95.2783
21
-53.7924
0
LINE
8
BLACK
6
CONTINUOUS
10
95.2783
20
-53.7924
11
95.2783
21
-52.7924
0
LINE
8
BLACK
6
CONTINUOUS
10
95.2783
20
-52.7924
11
95.2801
21
-52.7826
0
LINE
8
BLACK
6
CONTINUOUS
10
95.2801
20
-52.7826
11
95.2795
21
-52.7794
0
LINE
8
BLACK
6
CONTINUOUS
10
95.2795
20
-52.7794
11
95.2811
21
-52.7765
0
LINE
8
BLACK
6
CONTINUOUS
10
95.2811
20
-52.7765
11
95.2829
21
-52.7667
0
LINE
8
BLACK
6
CONTINUOUS
10
95.2829
20
-52.7667
11
95.2954
21
-52.7518
0
LINE
8
BLACK
6
CONTINUOUS
10
95.2954
20
-52.7518
11
95.3051
21
-52.7349
0
LINE
8
BLACK
6
CONTINUOUS
10
95.3051
20
-52.7349
11
95.3115
21
-52.7326
0
LINE
8
BLACK
6
CONTINUOUS
10
95.3115
20
-52.7326
11
95.3158
21
-52.7274
0
LINE
8
BLACK
6
CONTINUOUS
10
95.3158
20
-52.7274
11
95.335
21
-52.724
0
LINE
8
BLACK
6
CONTINUOUS
10
95.335
20
-52.724
11
95.3533
21
-52.7174
0
LINE
8
BLACK
6
CONTINUOUS
10
95.3533
20
-52.7174
11
95.7343
21
-52.7174
0
LINE
8
BLACK
6
CONTINUOUS
10
95.7343
20
-52.7174
11
95.7599
21
-52.7219
0
LINE
8
BLACK
6
CONTINUOUS
10
95.4283
20
-52.8674
11
95.4283
21
-53.2412
0
LINE
8
BLACK
6
CONTINUOUS
10
95.4283
20
-53.2412
11
95.7166
21
-53.2412
0
LINE
8
BLACK
6
CONTINUOUS
10
95.7166
20
-53.2412
11
95.7851
21
-53.2069
0
LINE
8
BLACK
6
CONTINUOUS
10
95.7851
20
-53.2069
11
95.8155
21
-53.1765
0
LINE
8
BLACK
6
CONTINUOUS
10
95.8155
20
-53.1765
11
95.8498
21
-53.108
0
LINE
8
BLACK
6
CONTINUOUS
10
95.8498
20
-53.108
11
95.8498
21
-53.0006
0
LINE
8
BLACK
6
CONTINUOUS
10
95.8498
20
-53.0006
11
95.8155
21
-52.932
0
LINE
8
BLACK
6
CONTINUOUS
10
95.8155
20
-52.932
11
95.7851
21
-52.9016
0
LINE
8
BLACK
6
CONTINUOUS
10
95.7851
20
-52.9016
11
95.7166
21
-52.8674
0
LINE
8
BLACK
6
CONTINUOUS
10
95.7166
20
-52.8674
11
95.4283
21
-52.8674
0
LINE
8
BLACK
6
CONTINUOUS
10
104.938
20
-52.5024
11
104.92
21
-52.46
0
LINE
8
BLACK
6
CONTINUOUS
10
104.92
20
-52.46
11
104.938
21
-52.4176
0
LINE
8
BLACK
6
CONTINUOUS
10
104.938
20
-52.4176
11
104.98
21
-52.4
0
LINE
8
BLACK
6
CONTINUOUS
10
104.98
20
-52.4
11
106.41
21
-52.4
0
LINE
8
BLACK
6
CONTINUOUS
10
106.41
20
-52.4
11
106.41
21
-47.74
0
LINE
8
BLACK
6
CONTINUOUS
10
106.41
20
-47.74
11
106.428
21
-47.6976
0
LINE
8
BLACK
6
CONTINUOUS
10
106.428
20
-47.6976
11
106.47
21
-47.68
0
LINE
8
BLACK
6
CONTINUOUS
10
106.47
20
-47.68
11
106.512
21
-47.6976
0
LINE
8
BLACK
6
CONTINUOUS
10
106.512
20
-47.6976
11
106.53
21
-47.74
0
LINE
8
BLACK
6
CONTINUOUS
10
106.53
20
-47.74
11
106.53
21
-52.46
0
LINE
8
BLACK
6
CONTINUOUS
10
106.53
20
-52.46
11
106.512
21
-52.5024
0
LINE
8
BLACK
6
CONTINUOUS
10
106.512
20
-52.5024
11
106.47
21
-52.52
0
LINE
8
BLACK
6
CONTINUOUS
10
106.47
20
-52.52
11
104.98
21
-52.52
0
LINE
8
BLACK
6
CONTINUOUS
10
104.98
20
-52.52
11
104.938
21
-52.5024
0
LINE
8
BLACK
6
CONTINUOUS
10
103.302
20
-52.4176
11
103.32
21
-52.46
0
LINE
8
BLACK
6
CONTINUOUS
10
103.32
20
-52.46
11
103.302
21
-52.5024
0
LINE
8
BLACK
6
CONTINUOUS
10
103.302
20
-52.5024
11
103.26
21
-52.52
0
LINE
8
BLACK
6
CONTINUOUS
10
103.26
20
-52.52
11
102.43
21
-52.52
0
LINE
8
BLACK
6
CONTINUOUS
10
102.43
20
-52.52
11
102.388
21
-52.5024
0
LINE
8
BLACK
6
CONTINUOUS
10
102.388
20
-52.5024
11
102.37
21
-52.46
0
LINE
8
BLACK
6
CONTINUOUS
10
102.37
20
-52.46
11
102.388
21
-52.4176
0
LINE
8
BLACK
6
CONTINUOUS
10
102.388
20
-52.4176
11
102.43
21
-52.4
0
LINE
8
BLACK
6
CONTINUOUS
10
102.43
20
-52.4
11
103.26
21
-52.4
0
LINE
8
BLACK
6
CONTINUOUS
10
103.26
20
-52.4
11
103.302
21
-52.4176
0
LINE
8
BLACK
6
CONTINUOUS
10
96.7624
20
-47.6976
11
96.78
21
-47.74
0
LINE
8
BLACK
6
CONTINUOUS
10
96.78
20
-47.74
11
96.78
21
-52.4
0
LINE
8
BLACK
6
CONTINUOUS
10
96.78
20
-52.4
11
97.91
21
-52.4
0
LINE
8
BLACK
6
CONTINUOUS
10
97.91
20
-52.4
11
97.9524
21
-52.4176
0
LINE
8
BLACK
6
CONTINUOUS
10
97.9524
20
-52.4176
11
97.97
21
-52.46
0
LINE
8
BLACK
6
CONTINUOUS
10
97.97
20
-52.46
11
97.9524
21
-52.5024
0
LINE
8
BLACK
6
CONTINUOUS
10
97.9524
20
-52.5024
11
97.91
21
-52.52
0
LINE
8
BLACK
6
CONTINUOUS
10
97.91
20
-52.52
11
96.73
21
-52.52
0
LINE
8
BLACK
6
CONTINUOUS
10
96.73
20
-52.52
11
96.725
21
-52.5179
0
LINE
8
BLACK
6
CONTINUOUS
10
96.725
20
-52.5179
11
96.72
21
-52.52
0
LINE
8
BLACK
6
CONTINUOUS
10
96.72
20
-52.52
11
96.6776
21
-52.5024
0
LINE
8
BLACK
6
CONTINUOUS
10
96.6776
20
-52.5024
11
96.66
21
-52.46
0
LINE
8
BLACK
6
CONTINUOUS
10
96.66
20
-52.46
11
96.66
21
-47.74
0
LINE
8
BLACK
6
CONTINUOUS
10
96.66
20
-47.74
11
96.6776
21
-47.6976
0
LINE
8
BLACK
6
CONTINUOUS
10
96.6776
20
-47.6976
11
96.72
21
-47.68
0
LINE
8
BLACK
6
CONTINUOUS
10
96.72
20
-47.68
11
96.7624
21
-47.6976
0
LINE
8
BLACK
6
CONTINUOUS
10
100.852
20
-52.4176
11
100.87
21
-52.46
0
LINE
8
BLACK
6
CONTINUOUS
10
100.87
20
-52.46
11
100.852
21
-52.5024
0
LINE
8
BLACK
6
CONTINUOUS
10
100.852
20
-52.5024
11
100.81
21
-52.52
0
LINE
8
BLACK
6
CONTINUOUS
10
100.81
20
-52.52
11
100.28
21
-52.52
0
LINE
8
BLACK
6
CONTINUOUS
10
100.28
20
-52.52
11
100.238
21
-52.5024
0
LINE
8
BLACK
6
CONTINUOUS
10
100.238
20
-52.5024
11
100.22
21
-52.46
0
LINE
8
BLACK
6
CONTINUOUS
10
100.22
20
-52.46
11
100.238
21
-52.4176
0
LINE
8
BLACK
6
CONTINUOUS
10
100.238
20
-52.4176
11
100.28
21
-52.4
0
LINE
8
BLACK
6
CONTINUOUS
10
100.28
20
-52.4
11
100.81
21
-52.4
0
LINE
8
BLACK
6
CONTINUOUS
10
100.81
20
-52.4
11
100.852
21
-52.4176
0
LINE
8
BLACK
6
CONTINUOUS
10
106.512
20
-40.8276
11
106.53
21
-40.87
0
LINE
8
BLACK
6
CONTINUOUS
10
106.53
20
-40.87
11
106.53
21
-43.93
0
LINE
8
BLACK
6
CONTINUOUS
10
106.53
20
-43.93
11
106.512
21
-43.9724
0
LINE
8
BLACK
6
CONTINUOUS
10
106.512
20
-43.9724
11
106.47
21
-43.99
0
LINE
8
BLACK
6
CONTINUOUS
10
106.47
20
-43.99
11
106.428
21
-43.9724
0
LINE
8
BLACK
6
CONTINUOUS
10
106.428
20
-43.9724
11
106.41
21
-43.93
0
LINE
8
BLACK
6
CONTINUOUS
10
106.41
20
-43.93
11
106.41
21
-40.93
0
LINE
8
BLACK
6
CONTINUOUS
10
106.41
20
-40.93
11
96.79
21
-40.93
0
LINE
8
BLACK
6
CONTINUOUS
10
96.79
20
-40.93
11
96.79
21
-43.93
0
LINE
8
BLACK
6
CONTINUOUS
10
96.79
20
-43.93
11
96.7724
21
-43.9724
0
LINE
8
BLACK
6
CONTINUOUS
10
96.7724
20
-43.9724
11
96.73
21
-43.99
0
LINE
8
BLACK
6
CONTINUOUS
10
96.73
20
-43.99
11
96.6876
21
-43.9724
0
LINE
8
BLACK
6
CONTINUOUS
10
96.6876
20
-43.9724
11
96.67
21
-43.93
0
LINE
8
BLACK
6
CONTINUOUS
10
96.67
20
-43.93
11
96.67
21
-40.87
0
LINE
8
BLACK
6
CONTINUOUS
10
96.67
20
-40.87
11
96.6876
21
-40.8276
0
LINE
8
BLACK
6
CONTINUOUS
10
96.6876
20
-40.8276
11
96.73
21
-40.81
0
LINE
8
BLACK
6
CONTINUOUS
10
96.73
20
-40.81
11
106.47
21
-40.81
0
LINE
8
BLACK
6
CONTINUOUS
10
106.47
20
-40.81
11
106.512
21
-40.8276
0
LINE
8
BLACK
6
CONTINUOUS
10
91.7691
20
-113.262
11
91.8337
21
-113.029
0
LINE
8
BLACK
6
CONTINUOUS
10
91.8337
20
-113.029
11
91.9355
21
-112.809
0
LINE
8
BLACK
6
CONTINUOUS
10
91.9355
20
-112.809
11
92.0717
21
-112.61
0
LINE
8
BLACK
6
CONTINUOUS
10
92.0717
20
-112.61
11
92.2387
21
-112.435
0
LINE
8
BLACK
6
CONTINUOUS
10
92.2387
20
-112.435
11
92.432
21
-112.29
0
LINE
8
BLACK
6
CONTINUOUS
10
92.432
20
-112.29
11
92.6464
21
-112.178
0
LINE
8
BLACK
6
CONTINUOUS
10
92.6464
20
-112.178
11
92.8762
21
-112.103
0
LINE
8
BLACK
6
CONTINUOUS
10
92.8762
20
-112.103
11
93.1151
21
-112.067
0
LINE
8
BLACK
6
CONTINUOUS
10
93.1151
20
-112.067
11
93.3568
21
-112.07
0
LINE
8
BLACK
6
CONTINUOUS
10
93.3568
20
-112.07
11
93.5948
21
-112.112
0
LINE
8
BLACK
6
CONTINUOUS
10
93.5948
20
-112.112
11
93.8226
21
-112.193
0
LINE
8
BLACK
6
CONTINUOUS
10
93.8226
20
-112.193
11
94.0343
21
-112.309
0
LINE
8
BLACK
6
CONTINUOUS
10
94.0343
20
-112.309
11
94.2239
21
-112.459
0
LINE
8
BLACK
6
CONTINUOUS
10
94.2239
20
-112.459
11
94.3866
21
-112.638
0
LINE
8
BLACK
6
CONTINUOUS
10
94.3866
20
-112.638
11
94.5179
21
-112.841
0
LINE
8
BLACK
6
CONTINUOUS
10
94.5179
20
-112.841
11
94.6143
21
-113.063
0
LINE
8
BLACK
6
CONTINUOUS
10
94.6143
20
-113.063
11
94.6732
21
-113.297
0
LINE
8
BLACK
6
CONTINUOUS
10
94.6732
20
-113.297
11
94.693
21
-113.538
0
LINE
8
BLACK
6
CONTINUOUS
10
94.693
20
-113.538
11
94.6912
21
-113.61
0
LINE
8
BLACK
6
CONTINUOUS
10
94.6912
20
-113.61
11
94.6597
21
-113.85
0
LINE
8
BLACK
6
CONTINUOUS
10
94.6597
20
-113.85
11
94.5894
21
-114.081
0
LINE
8
BLACK
6
CONTINUOUS
10
94.5894
20
-114.081
11
94.4823
21
-114.298
0
LINE
8
BLACK
6
CONTINUOUS
10
94.4823
20
-114.298
11
94.3413
21
-114.494
0
LINE
8
BLACK
6
CONTINUOUS
10
94.3413
20
-114.494
11
94.17
21
-114.665
0
LINE
8
BLACK
6
CONTINUOUS
10
94.17
20
-114.665
11
93.9733
21
-114.805
0
LINE
8
BLACK
6
CONTINUOUS
10
93.9733
20
-114.805
11
93.7562
21
-114.911
0
LINE
8
BLACK
6
CONTINUOUS
10
93.7562
20
-114.911
11
93.5247
21
-114.981
0
LINE
8
BLACK
6
CONTINUOUS
10
93.5247
20
-114.981
11
93.2849
21
-115.011
0
LINE
8
BLACK
6
CONTINUOUS
10
93.2849
20
-115.011
11
93.0434
21
-115.003
0
LINE
8
BLACK
6
CONTINUOUS
10
93.0434
20
-115.003
11
92.8065
21
-114.954
0
LINE
8
BLACK
6
CONTINUOUS
10
92.8065
20
-114.954
11
92.5807
21
-114.868
0
LINE
8
BLACK
6
CONTINUOUS
10
92.5807
20
-114.868
11
92.372
21
-114.746
0
LINE
8
BLACK
6
CONTINUOUS
10
92.372
20
-114.746
11
92.186
21
-114.592
0
LINE
8
BLACK
6
CONTINUOUS
10
92.186
20
-114.592
11
92.0277
21
-114.409
0
LINE
8
BLACK
6
CONTINUOUS
10
92.0277
20
-114.409
11
91.9014
21
-114.203
0
LINE
8
BLACK
6
CONTINUOUS
10
91.9014
20
-114.203
11
91.8105
21
-113.979
0
LINE
8
BLACK
6
CONTINUOUS
10
91.8105
20
-113.979
11
91.7574
21
-113.743
0
LINE
8
BLACK
6
CONTINUOUS
10
91.7574
20
-113.743
11
91.7455
21
-113.538
0
LINE
8
BLACK
6
CONTINUOUS
10
91.7455
20
-113.538
11
91.7434
21
-113.502
0
LINE
8
BLACK
6
CONTINUOUS
10
91.7434
20
-113.502
11
91.7691
21
-113.262
0
LINE
8
BLACK
6
CONTINUOUS
10
91.9682
20
-113.993
11
92.0661
21
-114.203
0
LINE
8
BLACK
6
CONTINUOUS
10
92.0661
20
-114.203
11
92.1991
21
-114.393
0
LINE
8
BLACK
6
CONTINUOUS
10
92.1991
20
-114.393
11
92.3631
21
-114.557
0
LINE
8
BLACK
6
CONTINUOUS
10
92.3631
20
-114.557
11
92.553
21
-114.69
0
LINE
8
BLACK
6
CONTINUOUS
10
92.553
20
-114.69
11
92.7631
21
-114.788
0
LINE
8
BLACK
6
CONTINUOUS
10
92.7631
20
-114.788
11
92.987
21
-114.848
0
LINE
8
BLACK
6
CONTINUOUS
10
92.987
20
-114.848
11
93.218
21
-114.868
0
LINE
8
BLACK
6
CONTINUOUS
10
93.218
20
-114.868
11
93.449
21
-114.848
0
LINE
8
BLACK
6
CONTINUOUS
10
93.449
20
-114.848
11
93.6729
21
-114.788
0
LINE
8
BLACK
6
CONTINUOUS
10
93.6729
20
-114.788
11
93.883
21
-114.69
0
LINE
8
BLACK
6
CONTINUOUS
10
93.883
20
-114.69
11
94.0729
21
-114.557
0
LINE
8
BLACK
6
CONTINUOUS
10
94.0729
20
-114.557
11
94.2369
21
-114.393
0
LINE
8
BLACK
6
CONTINUOUS
10
94.2369
20
-114.393
11
94.3699
21
-114.203
0
LINE
8
BLACK
6
CONTINUOUS
10
94.3699
20
-114.203
11
94.4678
21
-113.993
0
LINE
8
BLACK
6
CONTINUOUS
10
94.4678
20
-113.993
11
94.5279
21
-113.769
0
LINE
8
BLACK
6
CONTINUOUS
10
94.5279
20
-113.769
11
94.5481
21
-113.538
0
LINE
8
BLACK
6
CONTINUOUS
10
94.5481
20
-113.538
11
94.5279
21
-113.307
0
LINE
8
BLACK
6
CONTINUOUS
10
94.5279
20
-113.307
11
94.4678
21
-113.083
0
LINE
8
BLACK
6
CONTINUOUS
10
94.4678
20
-113.083
11
94.3699
21
-112.873
0
LINE
8
BLACK
6
CONTINUOUS
10
94.3699
20
-112.873
11
94.2369
21
-112.683
0
LINE
8
BLACK
6
CONTINUOUS
10
94.2369
20
-112.683
11
94.0729
21
-112.519
0
LINE
8
BLACK
6
CONTINUOUS
10
94.0729
20
-112.519
11
93.883
21
-112.386
0
LINE
8
BLACK
6
CONTINUOUS
10
93.883
20
-112.386
11
93.6729
21
-112.288
0
LINE
8
BLACK
6
CONTINUOUS
10
93.6729
20
-112.288
11
93.449
21
-112.228
0
LINE
8
BLACK
6
CONTINUOUS
10
93.449
20
-112.228
11
93.218
21
-112.208
0
LINE
8
BLACK
6
CONTINUOUS
10
93.218
20
-112.208
11
92.987
21
-112.228
0
LINE
8
BLACK
6
CONTINUOUS
10
92.987
20
-112.228
11
92.7631
21
-112.288
0
LINE
8
BLACK
6
CONTINUOUS
10
92.7631
20
-112.288
11
92.553
21
-112.386
0
LINE
8
BLACK
6
CONTINUOUS
10
92.553
20
-112.386
11
92.3631
21
-112.519
0
LINE
8
BLACK
6
CONTINUOUS
10
92.3631
20
-112.519
11
92.1991
21
-112.683
0
LINE
8
BLACK
6
CONTINUOUS
10
92.1991
20
-112.683
11
92.0661
21
-112.873
0
LINE
8
BLACK
6
CONTINUOUS
10
92.0661
20
-112.873
11
91.9682
21
-113.083
0
LINE
8
BLACK
6
CONTINUOUS
10
91.9682
20
-113.083
11
91.9081
21
-113.307
0
LINE
8
BLACK
6
CONTINUOUS
10
91.9081
20
-113.307
11
91.8879
21
-113.538
0
LINE
8
BLACK
6
CONTINUOUS
10
91.8879
20
-113.538
11
91.9081
21
-113.769
0
LINE
8
BLACK
6
CONTINUOUS
10
91.9081
20
-113.769
11
91.9682
21
-113.993
0
LINE
8
BLACK
6
CONTINUOUS
10
105.856
20
-45.4097
11
105.898
21
-45.2663
0
LINE
8
BLACK
6
CONTINUOUS
10
105.898
20
-45.2663
11
105.976
21
-45.1394
0
LINE
8
BLACK
6
CONTINUOUS
10
105.976
20
-45.1394
11
106.086
21
-45.0384
0
LINE
8
BLACK
6
CONTINUOUS
10
106.086
20
-45.0384
11
106.219
21
-44.9706
0
LINE
8
BLACK
6
CONTINUOUS
10
106.219
20
-44.9706
11
106.365
21
-44.9411
0
LINE
8
BLACK
6
CONTINUOUS
10
106.365
20
-44.9411
11
106.514
21
-44.952
0
LINE
8
BLACK
6
CONTINUOUS
10
106.514
20
-44.952
11
106.655
21
-45.0026
0
LINE
8
BLACK
6
CONTINUOUS
10
106.655
20
-45.0026
11
106.777
21
-45.0891
0
LINE
8
BLACK
6
CONTINUOUS
10
106.777
20
-45.0891
11
106.87
21
-45.2051
0
LINE
8
BLACK
6
CONTINUOUS
10
106.87
20
-45.2051
11
106.93
21
-45.3421
0
LINE
8
BLACK
6
CONTINUOUS
10
106.93
20
-45.3421
11
106.95
21
-45.49
0
LINE
8
BLACK
6
CONTINUOUS
10
106.95
20
-45.49
11
106.95
21
-46.19
0
LINE
8
BLACK
6
CONTINUOUS
10
106.95
20
-46.19
11
106.944
21
-46.2703
0
LINE
8
BLACK
6
CONTINUOUS
10
106.944
20
-46.2703
11
106.902
21
-46.4137
0
LINE
8
BLACK
6
CONTINUOUS
10
106.902
20
-46.4137
11
106.824
21
-46.5406
0
LINE
8
BLACK
6
CONTINUOUS
10
106.824
20
-46.5406
11
106.714
21
-46.6416
0
LINE
8
BLACK
6
CONTINUOUS
10
106.714
20
-46.6416
11
106.581
21
-46.7094
0
LINE
8
BLACK
6
CONTINUOUS
10
106.581
20
-46.7094
11
106.435
21
-46.7389
0
LINE
8
BLACK
6
CONTINUOUS
10
106.435
20
-46.7389
11
106.286
21
-46.728
0
LINE
8
BLACK
6
CONTINUOUS
10
106.286
20
-46.728
11
106.145
21
-46.6774
0
LINE
8
BLACK
6
CONTINUOUS
10
106.145
20
-46.6774
11
106.023
21
-46.5909
0
LINE
8
BLACK
6
CONTINUOUS
10
106.023
20
-46.5909
11
105.93
21
-46.4749
0
LINE
8
BLACK
6
CONTINUOUS
10
105.93
20
-46.4749
11
105.87
21
-46.3379
0
LINE
8
BLACK
6
CONTINUOUS
10
105.87
20
-46.3379
11
105.85
21
-46.19
0
LINE
8
BLACK
6
CONTINUOUS
10
105.85
20
-46.19
11
105.85
21
-45.49
0
LINE
8
BLACK
6
CONTINUOUS
10
105.85
20
-45.49
11
105.856
21
-45.4097
0
LINE
8
BLACK
6
CONTINUOUS
10
96.2559
20
-45.4097
11
96.2976
21
-45.2663
0
LINE
8
BLACK
6
CONTINUOUS
10
96.2976
20
-45.2663
11
96.3762
21
-45.1394
0
LINE
8
BLACK
6
CONTINUOUS
10
96.3762
20
-45.1394
11
96.4861
21
-45.0384
0
LINE
8
BLACK
6
CONTINUOUS
10
96.4861
20
-45.0384
11
96.6191
21
-44.9706
0
LINE
8
BLACK
6
CONTINUOUS
10
96.6191
20
-44.9706
11
96.7655
21
-44.9411
0
LINE
8
BLACK
6
CONTINUOUS
10
96.7655
20
-44.9411
11
96.9144
21
-44.952
0
LINE
8
BLACK
6
CONTINUOUS
10
96.9144
20
-44.952
11
97.0548
21
-45.0026
0
LINE
8
BLACK
6
CONTINUOUS
10
97.0548
20
-45.0026
11
97.1765
21
-45.0891
0
LINE
8
BLACK
6
CONTINUOUS
10
97.1765
20
-45.0891
11
97.2704
21
-45.2051
0
LINE
8
BLACK
6
CONTINUOUS
10
97.2704
20
-45.2051
11
97.3297
21
-45.3421
0
LINE
8
BLACK
6
CONTINUOUS
10
97.3297
20
-45.3421
11
97.35
21
-45.49
0
LINE
8
BLACK
6
CONTINUOUS
10
97.35
20
-45.49
11
97.35
21
-46.19
0
LINE
8
BLACK
6
CONTINUOUS
10
97.35
20
-46.19
11
97.3441
21
-46.2703
0
LINE
8
BLACK
6
CONTINUOUS
10
97.3441
20
-46.2703
11
97.3024
21
-46.4137
0
LINE
8
BLACK
6
CONTINUOUS
10
97.3024
20
-46.4137
11
97.2238
21
-46.5406
0
LINE
8
BLACK
6
CONTINUOUS
10
97.2238
20
-46.5406
11
97.1139
21
-46.6416
0
LINE
8
BLACK
6
CONTINUOUS
10
97.1139
20
-46.6416
11
96.9809
21
-46.7094
0
LINE
8
BLACK
6
CONTINUOUS
10
96.9809
20
-46.7094
11
96.8345
21
-46.7389
0
LINE
8
BLACK
6
CONTINUOUS
10
96.8345
20
-46.7389
11
96.6856
21
-46.728
0
LINE
8
BLACK
6
CONTINUOUS
10
96.6856
20
-46.728
11
96.5452
21
-46.6774
0
LINE
8
BLACK
6
CONTINUOUS
10
96.5452
20
-46.6774
11
96.4235
21
-46.5909
0
LINE
8
BLACK
6
CONTINUOUS
10
96.4235
20
-46.5909
11
96.3295
21
-46.4749
0
LINE
8
BLACK
6
CONTINUOUS
10
96.3295
20
-46.4749
11
96.2703
21
-46.3379
0
LINE
8
BLACK
6
CONTINUOUS
10
96.2703
20
-46.3379
11
96.25
21
-46.19
0
LINE
8
BLACK
6
CONTINUOUS
10
96.25
20
-46.19
11
96.25
21
-45.49
0
LINE
8
BLACK
6
CONTINUOUS
10
96.25
20
-45.49
11
96.2559
21
-45.4097
0
CIRCLE
8
BLACK
10
99.1
20
-53.34
40
0.5
0
CIRCLE
8
BLACK
10
101.6
20
-53.34
40
0.5
0
CIRCLE
8
BLACK
10
104.1
20
-53.34
40
0.5
0
CIRCLE
8
BLACK
10
101.6
20
-75.57
40
0.45
0
CIRCLE
8
BLACK
10
101.6
20
-73.03
40
0.45
0
LINE
8
BLACK
6
CONTINUOUS
10
105.856
20
-102.56
11
105.898
21
-102.416
0
LINE
8
BLACK
6
CONTINUOUS
10
105.898
20
-102.416
11
105.976
21
-102.289
0
LINE
8
BLACK
6
CONTINUOUS
10
105.976
20
-102.289
11
106.086
21
-102.188
0
LINE
8
BLACK
6
CONTINUOUS
10
106.086
20
-102.188
11
106.219
21
-102.121
0
LINE
8
BLACK
6
CONTINUOUS
10
106.219
20
-102.121
11
106.365
21
-102.091
0
LINE
8
BLACK
6
CONTINUOUS
10
106.365
20
-102.091
11
106.514
21
-102.102
0
LINE
8
BLACK
6
CONTINUOUS
10
106.514
20
-102.102
11
106.655
21
-102.153
0
LINE
8
BLACK
6
CONTINUOUS
10
106.655
20
-102.153
11
106.777
21
-102.239
0
LINE
8
BLACK
6
CONTINUOUS
10
106.777
20
-102.239
11
106.87
21
-102.355
0
LINE
8
BLACK
6
CONTINUOUS
10
106.87
20
-102.355
11
106.93
21
-102.492
0
LINE
8
BLACK
6
CONTINUOUS
10
106.93
20
-102.492
11
106.95
21
-102.64
0
LINE
8
BLACK
6
CONTINUOUS
10
106.95
20
-102.64
11
106.95
21
-103.34
0
LINE
8
BLACK
6
CONTINUOUS
10
106.95
20
-103.34
11
106.944
21
-103.42
0
LINE
8
BLACK
6
CONTINUOUS
10
106.944
20
-103.42
11
106.902
21
-103.564
0
LINE
8
BLACK
6
CONTINUOUS
10
106.902
20
-103.564
11
106.824
21
-103.691
0
LINE
8
BLACK
6
CONTINUOUS
10
106.824
20
-103.691
11
106.714
21
-103.792
0
LINE
8
BLACK
6
CONTINUOUS
10
106.714
20
-103.792
11
106.581
21
-103.859
0
LINE
8
BLACK
6
CONTINUOUS
10
106.581
20
-103.859
11
106.435
21
-103.889
0
LINE
8
BLACK
6
CONTINUOUS
10
106.435
20
-103.889
11
106.286
21
-103.878
0
LINE
8
BLACK
6
CONTINUOUS
10
106.286
20
-103.878
11
106.145
21
-103.827
0
LINE
8
BLACK
6
CONTINUOUS
10
106.145
20
-103.827
11
106.023
21
-103.741
0
LINE
8
BLACK
6
CONTINUOUS
10
106.023
20
-103.741
11
105.93
21
-103.625
0
LINE
8
BLACK
6
CONTINUOUS
10
105.93
20
-103.625
11
105.87
21
-103.488
0
LINE
8
BLACK
6
CONTINUOUS
10
105.87
20
-103.488
11
105.85
21
-103.34
0
LINE
8
BLACK
6
CONTINUOUS
10
105.85
20
-103.34
11
105.85
21
-102.64
0
LINE
8
BLACK
6
CONTINUOUS
10
105.85
20
-102.64
11
105.856
21
-102.56
0
LINE
8
BLACK
6
CONTINUOUS
10
96.2559
20
-102.56
11
96.2976
21
-102.416
0
LINE
8
BLACK
6
CONTINUOUS
10
96.2976
20
-102.416
11
96.3762
21
-102.289
0
LINE
8
BLACK
6
CONTINUOUS
10
96.3762
20
-102.289
11
96.4861
21
-102.188
0
LINE
8
BLACK
6
CONTINUOUS
10
96.4861
20
-102.188
11
96.6191
21
-102.121
0
LINE
8
BLACK
6
CONTINUOUS
10
96.6191
20
-102.121
11
96.7655
21
-102.091
0
LINE
8
BLACK
6
CONTINUOUS
10
96.7655
20
-102.091
11
96.9144
21
-102.102
0
LINE
8
BLACK
6
CONTINUOUS
10
96.9144
20
-102.102
11
97.0548
21
-102.153
0
LINE
8
BLACK
6
CONTINUOUS
10
97.0548
20
-102.153
11
97.1765
21
-102.239
0
LINE
8
BLACK
6
CONTINUOUS
10
97.1765
20
-102.239
11
97.2704
21
-102.355
0
LINE
8
BLACK
6
CONTINUOUS
10
97.2704
20
-102.355
11
97.3297
21
-102.492
0
LINE
8
BLACK
6
CONTINUOUS
10
97.3297
20
-102.492
11
97.35
21
-102.64
0
LINE
8
BLACK
6
CONTINUOUS
10
97.35
20
-102.64
11
97.35
21
-103.34
0
LINE
8
BLACK
6
CONTINUOUS
10
97.35
20
-103.34
11
97.3441
21
-103.42
0
LINE
8
BLACK
6
CONTINUOUS
10
97.3441
20
-103.42
11
97.3024
21
-103.564
0
LINE
8
BLACK
6
CONTINUOUS
10
97.3024
20
-103.564
11
97.2238
21
-103.691
0
LINE
8
BLACK
6
CONTINUOUS
10
97.2238
20
-103.691
11
97.1139
21
-103.792
0
LINE
8
BLACK
6
CONTINUOUS
10
97.1139
20
-103.792
11
96.9809
21
-103.859
0
LINE
8
BLACK
6
CONTINUOUS
10
96.9809
20
-103.859
11
96.8345
21
-103.889
0
LINE
8
BLACK
6
CONTINUOUS
10
96.8345
20
-103.889
11
96.6856
21
-103.878
0
LINE
8
BLACK
6
CONTINUOUS
10
96.6856
20
-103.878
11
96.5452
21
-103.827
0
LINE
8
BLACK
6
CONTINUOUS
10
96.5452
20
-103.827
11
96.4235
21
-103.741
0
LINE
8
BLACK
6
CONTINUOUS
10
96.4235
20
-103.741
11
96.3295
21
-103.625
0
LINE
8
BLACK
6
CONTINUOUS
10
96.3295
20
-103.625
11
96.2703
21
-103.488
0
LINE
8
BLACK
6
CONTINUOUS
10
96.2703
20
-103.488
11
96.25
21
-103.34
0
LINE
8
BLACK
6
CONTINUOUS
10
96.25
20
-103.34
11
96.25
21
-102.64
0
LINE
8
BLACK
6
CONTINUOUS
10
96.25
20
-102.64
11
96.2559
21
-102.56
0
CIRCLE
8
BLACK
10
99.1
20
-110.49
40
0.5
0
CIRCLE
8
BLACK
10
101.6
20
-110.49
40
0.5
0
CIRCLE
8
BLACK
10
104.1
20
-110.49
40
0.5
0
LINE
8
BLACK
6
CONTINUOUS
10
96.2159
20
-216.86
11
96.2575
21
-216.716
0
LINE
8
BLACK
6
CONTINUOUS
10
96.2575
20
-216.716
11
96.3362
21
-216.589
0
LINE
8
BLACK
6
CONTINUOUS
10
96.3362
20
-216.589
11
96.4461
21
-216.488
0
LINE
8
BLACK
6
CONTINUOUS
10
96.4461
20
-216.488
11
96.5791
21
-216.421
0
LINE
8
BLACK
6
CONTINUOUS
10
96.5791
20
-216.421
11
96.7255
21
-216.391
0
LINE
8
BLACK
6
CONTINUOUS
10
96.7255
20
-216.391
11
96.8744
21
-216.402
0
LINE
8
BLACK
6
CONTINUOUS
10
96.8744
20
-216.402
11
97.0148
21
-216.453
0
LINE
8
BLACK
6
CONTINUOUS
10
97.0148
20
-216.453
11
97.1365
21
-216.539
0
LINE
8
BLACK
6
CONTINUOUS
10
97.1365
20
-216.539
11
97.2304
21
-216.655
0
LINE
8
BLACK
6
CONTINUOUS
10
97.2304
20
-216.655
11
97.2897
21
-216.792
0
LINE
8
BLACK
6
CONTINUOUS
10
97.2897
20
-216.792
11
97.31
21
-216.94
0
LINE
8
BLACK
6
CONTINUOUS
10
97.31
20
-216.94
11
97.31
21
-217.64
0
LINE
8
BLACK
6
CONTINUOUS
10
97.31
20
-217.64
11
97.3041
21
-217.72
0
LINE
8
BLACK
6
CONTINUOUS
10
97.3041
20
-217.72
11
97.2625
21
-217.864
0
LINE
8
BLACK
6
CONTINUOUS
10
97.2625
20
-217.864
11
97.1838
21
-217.991
0
LINE
8
BLACK
6
CONTINUOUS
10
97.1838
20
-217.991
11
97.0739
21
-218.092
0
LINE
8
BLACK
6
CONTINUOUS
10
97.0739
20
-218.092
11
96.9409
21
-218.159
0
LINE
8
BLACK
6
CONTINUOUS
10
96.9409
20
-218.159
11
96.7945
21
-218.189
0
LINE
8
BLACK
6
CONTINUOUS
10
96.7945
20
-218.189
11
96.6456
21
-218.178
0
LINE
8
BLACK
6
CONTINUOUS
10
96.6456
20
-218.178
11
96.5052
21
-218.127
0
LINE
8
BLACK
6
CONTINUOUS
10
96.5052
20
-218.127
11
96.3835
21
-218.041
0
LINE
8
BLACK
6
CONTINUOUS
10
96.3835
20
-218.041
11
96.2895
21
-217.925
0
LINE
8
BLACK
6
CONTINUOUS
10
96.2895
20
-217.925
11
96.2303
21
-217.788
0
LINE
8
BLACK
6
CONTINUOUS
10
96.2303
20
-217.788
11
96.21
21
-217.64
0
LINE
8
BLACK
6
CONTINUOUS
10
96.21
20
-217.64
11
96.21
21
-216.94
0
LINE
8
BLACK
6
CONTINUOUS
10
96.21
20
-216.94
11
96.2159
21
-216.86
0
LINE
8
BLACK
6
CONTINUOUS
10
105.816
20
-216.86
11
105.858
21
-216.716
0
LINE
8
BLACK
6
CONTINUOUS
10
105.858
20
-216.716
11
105.936
21
-216.589
0
LINE
8
BLACK
6
CONTINUOUS
10
105.936
20
-216.589
11
106.046
21
-216.488
0
LINE
8
BLACK
6
CONTINUOUS
10
106.046
20
-216.488
11
106.179
21
-216.421
0
LINE
8
BLACK
6
CONTINUOUS
10
106.179
20
-216.421
11
106.325
21
-216.391
0
LINE
8
BLACK
6
CONTINUOUS
10
106.325
20
-216.391
11
106.474
21
-216.402
0
LINE
8
BLACK
6
CONTINUOUS
10
106.474
20
-216.402
11
106.615
21
-216.453
0
LINE
8
BLACK
6
CONTINUOUS
10
106.615
20
-216.453
11
106.737
21
-216.539
0
LINE
8
BLACK
6
CONTINUOUS
10
106.737
20
-216.539
11
106.83
21
-216.655
0
LINE
8
BLACK
6
CONTINUOUS
10
106.83
20
-216.655
11
106.89
21
-216.792
0
LINE
8
BLACK
6
CONTINUOUS
10
106.89
20
-216.792
11
106.91
21
-216.94
0
LINE
8
BLACK
6
CONTINUOUS
10
106.91
20
-216.94
11
106.91
21
-217.64
0
LINE
8
BLACK
6
CONTINUOUS
10
106.91
20
-217.64
11
106.904
21
-217.72
0
LINE
8
BLACK
6
CONTINUOUS
10
106.904
20
-217.72
11
106.862
21
-217.864
0
LINE
8
BLACK
6
CONTINUOUS
10
106.862
20
-217.864
11
106.784
21
-217.991
0
LINE
8
BLACK
6
CONTINUOUS
10
106.784
20
-217.991
11
106.674
21
-218.092
0
LINE
8
BLACK
6
CONTINUOUS
10
106.674
20
-218.092
11
106.541
21
-218.159
0
LINE
8
BLACK
6
CONTINUOUS
10
106.541
20
-218.159
11
106.395
21
-218.189
0
LINE
8
BLACK
6
CONTINUOUS
10
106.395
20
-218.189
11
106.246
21
-218.178
0
LINE
8
BLACK
6
CONTINUOUS
10
106.246
20
-218.178
11
106.105
21
-218.127
0
LINE
8
BLACK
6
CONTINUOUS
10
106.105
20
-218.127
11
105.983
21
-218.041
0
LINE
8
BLACK
6
CONTINUOUS
10
105.983
20
-218.041
11
105.89
21
-217.925
0
LINE
8
BLACK
6
CONTINUOUS
10
105.89
20
-217.925
11
105.83
21
-217.788
0
LINE
8
BLACK
6
CONTINUOUS
10
105.83
20
-217.788
11
105.81
21
-217.64
0
LINE
8
BLACK
6
CONTINUOUS
10
105.81
20
-217.64
11
105.81
21
-216.94
0
LINE
8
BLACK
6
CONTINUOUS
10
105.81
20
-216.94
11
105.816
21
-216.86
0
CIRCLE
8
BLACK
10
99.06
20
-224.79
40
0.5
0
CIRCLE
8
BLACK
10
101.56
20
-224.79
40
0.5
0
CIRCLE
8
BLACK
10
104.06
20
-224.79
40
0.5
0
LINE
8
BLACK
6
CONTINUOUS
10
96.2159
20
-159.71
11
96.2575
21
-159.566
0
LINE
8
BLACK
6
CONTINUOUS
10
96.2575
20
-159.566
11
96.3362
21
-159.439
0
LINE
8
BLACK
6
CONTINUOUS
10
96.3362
20
-159.439
11
96.4461
21
-159.338
0
LINE
8
BLACK
6
CONTINUOUS
10
96.4461
20
-159.338
11
96.5791
21
-159.271
0
LINE
8
BLACK
6
CONTINUOUS
10
96.5791
20
-159.271
11
96.7255
21
-159.241
0
LINE
8
BLACK
6
CONTINUOUS
10
96.7255
20
-159.241
11
96.8744
21
-159.252
0
LINE
8
BLACK
6
CONTINUOUS
10
96.8744
20
-159.252
11
97.0148
21
-159.303
0
LINE
8
BLACK
6
CONTINUOUS
10
97.0148
20
-159.303
11
97.1365
21
-159.389
0
LINE
8
BLACK
6
CONTINUOUS
10
97.1365
20
-159.389
11
97.2304
21
-159.505
0
LINE
8
BLACK
6
CONTINUOUS
10
97.2304
20
-159.505
11
97.2897
21
-159.642
0
LINE
8
BLACK
6
CONTINUOUS
10
97.2897
20
-159.642
11
97.31
21
-159.79
0
LINE
8
BLACK
6
CONTINUOUS
10
97.31
20
-159.79
11
97.31
21
-160.49
0
LINE
8
BLACK
6
CONTINUOUS
10
97.31
20
-160.49
11
97.3041
21
-160.57
0
LINE
8
BLACK
6
CONTINUOUS
10
97.3041
20
-160.57
11
97.2625
21
-160.714
0
LINE
8
BLACK
6
CONTINUOUS
10
97.2625
20
-160.714
11
97.1838
21
-160.841
0
LINE
8
BLACK
6
CONTINUOUS
10
97.1838
20
-160.841
11
97.0739
21
-160.942
0
LINE
8
BLACK
6
CONTINUOUS
10
97.0739
20
-160.942
11
96.9409
21
-161.009
0
LINE
8
BLACK
6
CONTINUOUS
10
96.9409
20
-161.009
11
96.7945
21
-161.039
0
LINE
8
BLACK
6
CONTINUOUS
10
96.7945
20
-161.039
11
96.6456
21
-161.028
0
LINE
8
BLACK
6
CONTINUOUS
10
96.6456
20
-161.028
11
96.5052
21
-160.977
0
LINE
8
BLACK
6
CONTINUOUS
10
96.5052
20
-160.977
11
96.3835
21
-160.891
0
LINE
8
BLACK
6
CONTINUOUS
10
96.3835
20
-160.891
11
96.2895
21
-160.775
0
LINE
8
BLACK
6
CONTINUOUS
10
96.2895
20
-160.775
11
96.2303
21
-160.638
0
LINE
8
BLACK
6
CONTINUOUS
10
96.2303
20
-160.638
11
96.21
21
-160.49
0
LINE
8
BLACK
6
CONTINUOUS
10
96.21
20
-160.49
11
96.21
21
-159.79
0
LINE
8
BLACK
6
CONTINUOUS
10
96.21
20
-159.79
11
96.2159
21
-159.71
0
LINE
8
BLACK
6
CONTINUOUS
10
105.816
20
-159.71
11
105.858
21
-159.566
0
LINE
8
BLACK
6
CONTINUOUS
10
105.858
20
-159.566
11
105.936
21
-159.439
0
LINE
8
BLACK
6
CONTINUOUS
10
105.936
20
-159.439
11
106.046
21
-159.338
0
LINE
8
BLACK
6
CONTINUOUS
10
106.046
20
-159.338
11
106.179
21
-159.271
0
LINE
8
BLACK
6
CONTINUOUS
10
106.179
20
-159.271
11
106.325
21
-159.241
0
LINE
8
BLACK
6
CONTINUOUS
10
106.325
20
-159.241
11
106.474
21
-159.252
0
LINE
8
BLACK
6
CONTINUOUS
10
106.474
20
-159.252
11
106.615
21
-159.303
0
LINE
8
BLACK
6
CONTINUOUS
10
106.615
20
-159.303
11
106.737
21
-159.389
0
LINE
8
BLACK
6
CONTINUOUS
10
106.737
20
-159.389
11
106.83
21
-159.505
0
LINE
8
BLACK
6
CONTINUOUS
10
106.83
20
-159.505
11
106.89
21
-159.642
0
LINE
8
BLACK
6
CONTINUOUS
10
106.89
20
-159.642
11
106.91
21
-159.79
0
LINE
8
BLACK
6
CONTINUOUS
10
106.91
20
-159.79
11
106.91
21
-160.49
0
LINE
8
BLACK
6
CONTINUOUS
10
106.91
20
-160.49
11
106.904
21
-160.57
0
LINE
8
BLACK
6
CONTINUOUS
10
106.904
20
-160.57
11
106.862
21
-160.714
0
LINE
8
BLACK
6
CONTINUOUS
10
106.862
20
-160.714
11
106.784
21
-160.841
0
LINE
8
BLACK
6
CONTINUOUS
10
106.784
20
-160.841
11
106.674
21
-160.942
0
LINE
8
BLACK
6
CONTINUOUS
10
106.674
20
-160.942
11
106.541
21
-161.009
0
LINE
8
BLACK
6
CONTINUOUS
10
106.541
20
-161.009
11
106.395
21
-161.039
0
LINE
8
BLACK
6
CONTINUOUS
10
106.395
20
-161.039
11
106.246
21
-161.028
0
LINE
8
BLACK
6
CONTINUOUS
10
106.246
20
-161.028
11
106.105
21
-160.977
0
LINE
8
BLACK
6
CONTINUOUS
10
106.105
20
-160.977
11
105.983
21
-160.891
0
LINE
8
BLACK
6
CONTINUOUS
10
105.983
20
-160.891
11
105.89
21
-160.775
0
LINE
8
BLACK
6
CONTINUOUS
10
105.89
20
-160.775
11
105.83
21
-160.638
0
LINE
8
BLACK
6
CONTINUOUS
10
105.83
20
-160.638
11
105.81
21
-160.49
0
LINE
8
BLACK
6
CONTINUOUS
10
105.81
20
-160.49
11
105.81
21
-159.79
0
LINE
8
BLACK
6
CONTINUOUS
10
105.81
20
-159.79
11
105.816
21
-159.71
0
CIRCLE
8
BLACK
10
99.06
20
-167.64
40
0.5
0
CIRCLE
8
BLACK
10
101.56
20
-167.64
40
0.5
0
CIRCLE
8
BLACK
10
104.06
20
-167.64
40
0.5
0
CIRCLE
8
BLACK
10
93.218
20
-113.538
40
0.5
0
CIRCLE
8
BLACK
10
106.68
20
-203.952
40
0.5
0
CIRCLE
8
BLACK
10
106.68
20
-201.412
40
0.5
0
CIRCLE
8
BLACK
10
104.14
20
-203.952
40
0.5
0
CIRCLE
8
BLACK
10
104.14
20
-201.412
40
0.5
0
CIRCLE
8
BLACK
10
101.6
20
-203.952
40
0.5
0
CIRCLE
8
BLACK
10
101.6
20
-201.412
40
0.5
0
CIRCLE
8
BLACK
10
99.06
20
-203.952
40
0.5
0
CIRCLE
8
BLACK
10
99.06
20
-201.412
40
0.5
0
CIRCLE
8
BLACK
10
96.52
20
-203.952
40
0.5
0
CIRCLE
8
BLACK
10
96.52
20
-201.412
40
0.5
0
CIRCLE
8
BLACK
10
93.218
20
-75.438
40
0.5
0
CIRCLE
8
BLACK
10
112.99
20
-137.922
40
0.4
0
CIRCLE
8
BLACK
10
107.99
20
-137.922
40
0.4
0
CIRCLE
8
BLACK
10
93.98
20
-93.98
40
0.595
0
CIRCLE
8
BLACK
10
93.98
20
-96.52
40
0.595
0
CIRCLE
8
BLACK
10
93.98
20
-99.06
40
0.595
0
CIRCLE
8
BLACK
10
106.64
20
-191.77
40
0.4
0
CIRCLE
8
BLACK
10
104.14
20
-191.77
40
0.4
0
CIRCLE
8
BLACK
10
99.06
20
-191.516
40
0.4
0
CIRCLE
8
BLACK
10
96.56
20
-191.516
40
0.4
0
CIRCLE
8
BLACK
10
109.2
20
-90.17
40
0.595
0
CIRCLE
8
BLACK
10
109.2
20
-87.63
40
0.595
0
CIRCLE
8
BLACK
10
109.2
20
-85.09
40
0.595
0
CIRCLE
8
BLACK
10
109.2
20
-82.55
40
0.595
0
CIRCLE
8
BLACK
10
93.472
20
-48.768
40
0.5
0
CIRCLE
8
BLACK
10
109.982
20
-170.688
40
0.5
0
CIRCLE
8
BLACK
10
94.488
20
-141.478
40
0.4
0
CIRCLE
8
BLACK
10
91.988
20
-141.478
40
0.4
0
CIRCLE
8
BLACK
10
93.218
20
-170.688
40
0.5
0
CIRCLE
8
BLACK
10
112.736
20
-127.762
40
0.4
0
CIRCLE
8
BLACK
10
107.736
20
-127.762
40
0.4
  0
ENDSEC
  0
EOF
