G04 #@! TF.GenerationSoftware,KiCad,Pcbnew,6.0.5+dfsg-1~bpo11+1*
G04 #@! TF.CreationDate,2023-04-15T13:36:49+00:00*
G04 #@! TF.ProjectId,lfo_and_power_supply,6c666f5f-616e-4645-9f70-6f7765725f73,0*
G04 #@! TF.SameCoordinates,Original*
G04 #@! TF.FileFunction,Legend,Top*
G04 #@! TF.FilePolarity,Positive*
%FSLAX46Y46*%
G04 Gerber Fmt 4.6, Leading zero omitted, Abs format (unit mm)*
G04 Created by KiCad (PCBNEW 6.0.5+dfsg-1~bpo11+1) date 2023-04-15 13:36:49*
%MOMM*%
%LPD*%
G01*
G04 APERTURE LIST*
%ADD10C,0.120000*%
%ADD11C,0.150000*%
%ADD12C,0.127000*%
%ADD13C,0.080000*%
%ADD14C,3.000000*%
%ADD15C,1.451600*%
%ADD16C,2.500000*%
%ADD17O,2.720000X3.240000*%
%ADD18R,1.800000X1.800000*%
%ADD19C,1.800000*%
%ADD20R,2.200000X2.200000*%
%ADD21O,2.200000X2.200000*%
%ADD22R,1.600000X1.600000*%
%ADD23C,1.600000*%
%ADD24C,1.700000*%
%ADD25C,2.000000*%
%ADD26O,3.500000X3.500000*%
%ADD27R,2.000000X1.905000*%
%ADD28O,2.000000X1.905000*%
%ADD29R,1.700000X1.700000*%
%ADD30O,1.700000X1.700000*%
%ADD31R,2.400000X2.400000*%
%ADD32C,2.400000*%
%ADD33O,2.700000X3.300000*%
%ADD34C,2.600000*%
%ADD35C,1.440000*%
%ADD36O,2.190000X1.740000*%
%ADD37O,1.740000X2.190000*%
G04 APERTURE END LIST*
D10*
X141720494Y-86582867D02*
X141930721Y-86539848D01*
X142224551Y-86370205D01*
X142308154Y-86243582D01*
X142332992Y-86150887D01*
X142323900Y-85999427D01*
X142256043Y-85881895D01*
X142129420Y-85798291D01*
X142036726Y-85773454D01*
X141885265Y-85782545D01*
X141616272Y-85859493D01*
X141464812Y-85868584D01*
X141372117Y-85843747D01*
X141245494Y-85760143D01*
X141177637Y-85642611D01*
X141168546Y-85491151D01*
X141193383Y-85398456D01*
X141276987Y-85271833D01*
X141570817Y-85102190D01*
X141781043Y-85059170D01*
X142158477Y-84762904D02*
X143164807Y-85827348D01*
X142890942Y-84810143D01*
X143634935Y-85555919D01*
X143216265Y-84152190D01*
X143695484Y-84032222D02*
X143720322Y-83939528D01*
X143803925Y-83812904D01*
X144097755Y-83643262D01*
X144249216Y-83634170D01*
X144341910Y-83659008D01*
X144468533Y-83742611D01*
X144536391Y-83860143D01*
X144579410Y-84070370D01*
X144281361Y-85182705D01*
X145045319Y-84741633D01*
D11*
X185356666Y-115974761D02*
X185499523Y-116022380D01*
X185737619Y-116022380D01*
X185832857Y-115974761D01*
X185880476Y-115927142D01*
X185928095Y-115831904D01*
X185928095Y-115736666D01*
X185880476Y-115641428D01*
X185832857Y-115593809D01*
X185737619Y-115546190D01*
X185547142Y-115498571D01*
X185451904Y-115450952D01*
X185404285Y-115403333D01*
X185356666Y-115308095D01*
X185356666Y-115212857D01*
X185404285Y-115117619D01*
X185451904Y-115070000D01*
X185547142Y-115022380D01*
X185785238Y-115022380D01*
X185928095Y-115070000D01*
X186261428Y-115022380D02*
X186499523Y-116022380D01*
X186690000Y-115308095D01*
X186880476Y-116022380D01*
X187118571Y-115022380D01*
X187404285Y-115022380D02*
X188023333Y-115022380D01*
X187690000Y-115403333D01*
X187832857Y-115403333D01*
X187928095Y-115450952D01*
X187975714Y-115498571D01*
X188023333Y-115593809D01*
X188023333Y-115831904D01*
X187975714Y-115927142D01*
X187928095Y-115974761D01*
X187832857Y-116022380D01*
X187547142Y-116022380D01*
X187451904Y-115974761D01*
X187404285Y-115927142D01*
X218479761Y-131262380D02*
X218146428Y-130786190D01*
X217908333Y-131262380D02*
X217908333Y-130262380D01*
X218289285Y-130262380D01*
X218384523Y-130310000D01*
X218432142Y-130357619D01*
X218479761Y-130452857D01*
X218479761Y-130595714D01*
X218432142Y-130690952D01*
X218384523Y-130738571D01*
X218289285Y-130786190D01*
X217908333Y-130786190D01*
X218765476Y-130262380D02*
X219098809Y-131262380D01*
X219432142Y-130262380D01*
X219670238Y-130262380D02*
X220289285Y-130262380D01*
X219955952Y-130643333D01*
X220098809Y-130643333D01*
X220194047Y-130690952D01*
X220241666Y-130738571D01*
X220289285Y-130833809D01*
X220289285Y-131071904D01*
X220241666Y-131167142D01*
X220194047Y-131214761D01*
X220098809Y-131262380D01*
X219813095Y-131262380D01*
X219717857Y-131214761D01*
X219670238Y-131167142D01*
X109156666Y-115974761D02*
X109299523Y-116022380D01*
X109537619Y-116022380D01*
X109632857Y-115974761D01*
X109680476Y-115927142D01*
X109728095Y-115831904D01*
X109728095Y-115736666D01*
X109680476Y-115641428D01*
X109632857Y-115593809D01*
X109537619Y-115546190D01*
X109347142Y-115498571D01*
X109251904Y-115450952D01*
X109204285Y-115403333D01*
X109156666Y-115308095D01*
X109156666Y-115212857D01*
X109204285Y-115117619D01*
X109251904Y-115070000D01*
X109347142Y-115022380D01*
X109585238Y-115022380D01*
X109728095Y-115070000D01*
X110061428Y-115022380D02*
X110299523Y-116022380D01*
X110490000Y-115308095D01*
X110680476Y-116022380D01*
X110918571Y-115022380D01*
X111823333Y-116022380D02*
X111251904Y-116022380D01*
X111537619Y-116022380D02*
X111537619Y-115022380D01*
X111442380Y-115165238D01*
X111347142Y-115260476D01*
X111251904Y-115308095D01*
X218479761Y-74112380D02*
X218146428Y-73636190D01*
X217908333Y-74112380D02*
X217908333Y-73112380D01*
X218289285Y-73112380D01*
X218384523Y-73160000D01*
X218432142Y-73207619D01*
X218479761Y-73302857D01*
X218479761Y-73445714D01*
X218432142Y-73540952D01*
X218384523Y-73588571D01*
X218289285Y-73636190D01*
X217908333Y-73636190D01*
X218765476Y-73112380D02*
X219098809Y-74112380D01*
X219432142Y-73112380D01*
X219717857Y-73207619D02*
X219765476Y-73160000D01*
X219860714Y-73112380D01*
X220098809Y-73112380D01*
X220194047Y-73160000D01*
X220241666Y-73207619D01*
X220289285Y-73302857D01*
X220289285Y-73398095D01*
X220241666Y-73540952D01*
X219670238Y-74112380D01*
X220289285Y-74112380D01*
X66460761Y-74112380D02*
X66127428Y-73636190D01*
X65889333Y-74112380D02*
X65889333Y-73112380D01*
X66270285Y-73112380D01*
X66365523Y-73160000D01*
X66413142Y-73207619D01*
X66460761Y-73302857D01*
X66460761Y-73445714D01*
X66413142Y-73540952D01*
X66365523Y-73588571D01*
X66270285Y-73636190D01*
X65889333Y-73636190D01*
X66746476Y-73112380D02*
X67079809Y-74112380D01*
X67413142Y-73112380D01*
X68270285Y-74112380D02*
X67698857Y-74112380D01*
X67984571Y-74112380D02*
X67984571Y-73112380D01*
X67889333Y-73255238D01*
X67794095Y-73350476D01*
X67698857Y-73398095D01*
D12*
X145575194Y-105593203D02*
X146094809Y-105293203D01*
X151604806Y-83636797D02*
X137575194Y-91736797D01*
X137575194Y-91736797D02*
X141257694Y-98115074D01*
X146094809Y-105293203D02*
X159085191Y-97793203D01*
X148090000Y-93748975D02*
X149090000Y-95481025D01*
X149456025Y-94115000D02*
X147723975Y-95115000D01*
X159085191Y-97793203D02*
X159604806Y-97493203D01*
D10*
X145575194Y-105593203D02*
X142972194Y-101084675D01*
D12*
X155287306Y-90015074D02*
X151604806Y-83636797D01*
D10*
X159604806Y-97493203D02*
X157001806Y-92984675D01*
D13*
X152590000Y-94615000D02*
G75*
G03*
X152590000Y-94615000I-4000000J0D01*
G01*
D10*
X183190000Y-129540000D02*
X183190000Y-116840000D01*
X183190000Y-116840000D02*
X190190000Y-116840000D01*
X190190000Y-129540000D02*
X183190000Y-129540000D01*
X190190000Y-116840000D02*
X190190000Y-129540000D01*
X229660000Y-118340000D02*
X219920000Y-118340000D01*
X229660000Y-129930000D02*
X229660000Y-125210000D01*
X224000000Y-129930000D02*
X223470000Y-129930000D01*
X219910000Y-129930000D02*
X219910000Y-125210000D01*
X229660000Y-129930000D02*
X228170000Y-129930000D01*
X226450000Y-129930000D02*
X225620000Y-129930000D01*
X219920000Y-121400000D02*
X219920000Y-118340000D01*
X221100000Y-129930000D02*
X219920000Y-129930000D01*
X229660000Y-121400000D02*
X229660000Y-118340000D01*
X113990000Y-129540000D02*
X106990000Y-129540000D01*
X113990000Y-116840000D02*
X113990000Y-129540000D01*
X106990000Y-129540000D02*
X106990000Y-116840000D01*
X106990000Y-116840000D02*
X113990000Y-116840000D01*
X229660000Y-64250000D02*
X229660000Y-61190000D01*
X229660000Y-72780000D02*
X229660000Y-68060000D01*
X229660000Y-72780000D02*
X228170000Y-72780000D01*
X224000000Y-72780000D02*
X223470000Y-72780000D01*
X219910000Y-72780000D02*
X219910000Y-68060000D01*
X221100000Y-72780000D02*
X219920000Y-72780000D01*
X229660000Y-61190000D02*
X219920000Y-61190000D01*
X226450000Y-72780000D02*
X225620000Y-72780000D01*
X219920000Y-64250000D02*
X219920000Y-61190000D01*
X77260000Y-72780000D02*
X75770000Y-72780000D01*
X71600000Y-72780000D02*
X71070000Y-72780000D01*
X68700000Y-72780000D02*
X67520000Y-72780000D01*
X67520000Y-64250000D02*
X67520000Y-61190000D01*
X74050000Y-72780000D02*
X73220000Y-72780000D01*
X77260000Y-64250000D02*
X77260000Y-61190000D01*
X77260000Y-72780000D02*
X77260000Y-68060000D01*
X67510000Y-72780000D02*
X67510000Y-68060000D01*
X77260000Y-61190000D02*
X67520000Y-61190000D01*
%LPC*%
D14*
X156068203Y-91567628D03*
X142211797Y-99567628D03*
D15*
X139684873Y-89190868D03*
X141849936Y-87940868D03*
X144015000Y-86690868D03*
X146180064Y-85440868D03*
X148345127Y-84190868D03*
X157495127Y-100039132D03*
X155330064Y-101289132D03*
X153165000Y-102539132D03*
X150999936Y-103789132D03*
X148834873Y-105039132D03*
D16*
X186690000Y-118490000D03*
X186690000Y-123190000D03*
X186690000Y-127890000D03*
D17*
X229590000Y-123310000D03*
X219990000Y-123310000D03*
D18*
X222290000Y-130810000D03*
D19*
X224790000Y-130810000D03*
X227290000Y-130810000D03*
D16*
X110490000Y-118490000D03*
X110490000Y-123190000D03*
X110490000Y-127890000D03*
D17*
X219990000Y-66160000D03*
X229590000Y-66160000D03*
D18*
X222290000Y-73660000D03*
D19*
X224790000Y-73660000D03*
X227290000Y-73660000D03*
D17*
X77190000Y-66160000D03*
X67590000Y-66160000D03*
D18*
X69890000Y-73660000D03*
D19*
X72390000Y-73660000D03*
X74890000Y-73660000D03*
D20*
X78740000Y-78232000D03*
D21*
X68580000Y-78232000D03*
D20*
X78740000Y-88392000D03*
D21*
X68580000Y-88392000D03*
D22*
X132120000Y-88900000D03*
D23*
X134620000Y-88900000D03*
G36*
G01*
X204137500Y-78070000D02*
X204137500Y-76870000D01*
G75*
G02*
X204387500Y-76620000I250000J0D01*
G01*
X205587500Y-76620000D01*
G75*
G02*
X205837500Y-76870000I0J-250000D01*
G01*
X205837500Y-78070000D01*
G75*
G02*
X205587500Y-78320000I-250000J0D01*
G01*
X204387500Y-78320000D01*
G75*
G02*
X204137500Y-78070000I0J250000D01*
G01*
G37*
D24*
X207527500Y-77470000D03*
X204987500Y-74930000D03*
X207527500Y-74930000D03*
X204987500Y-72390000D03*
X207527500Y-72390000D03*
X204987500Y-69850000D03*
X207527500Y-69850000D03*
X204987500Y-67310000D03*
X207527500Y-67310000D03*
D20*
X68580000Y-93472000D03*
D21*
X78740000Y-93472000D03*
D25*
X135890000Y-64770000D03*
G36*
G01*
X180125000Y-78070000D02*
X180125000Y-76870000D01*
G75*
G02*
X180375000Y-76620000I250000J0D01*
G01*
X181575000Y-76620000D01*
G75*
G02*
X181825000Y-76870000I0J-250000D01*
G01*
X181825000Y-78070000D01*
G75*
G02*
X181575000Y-78320000I-250000J0D01*
G01*
X180375000Y-78320000D01*
G75*
G02*
X180125000Y-78070000I0J250000D01*
G01*
G37*
D24*
X183515000Y-77470000D03*
X180975000Y-74930000D03*
X183515000Y-74930000D03*
X180975000Y-72390000D03*
X183515000Y-72390000D03*
X180975000Y-69850000D03*
X183515000Y-69850000D03*
X180975000Y-67310000D03*
X183515000Y-67310000D03*
D26*
X119780000Y-78740000D03*
D27*
X103980000Y-81280000D03*
D28*
X103980000Y-78740000D03*
X103980000Y-76200000D03*
D25*
X159512000Y-64770000D03*
D20*
X68580000Y-83185000D03*
D21*
X78740000Y-83185000D03*
D22*
X140931500Y-127508000D03*
D23*
X143431500Y-127508000D03*
D26*
X119780000Y-91440000D03*
D27*
X103980000Y-93980000D03*
D28*
X103980000Y-91440000D03*
X103980000Y-88900000D03*
G36*
G01*
X168060000Y-78070000D02*
X168060000Y-76870000D01*
G75*
G02*
X168310000Y-76620000I250000J0D01*
G01*
X169510000Y-76620000D01*
G75*
G02*
X169760000Y-76870000I0J-250000D01*
G01*
X169760000Y-78070000D01*
G75*
G02*
X169510000Y-78320000I-250000J0D01*
G01*
X168310000Y-78320000D01*
G75*
G02*
X168060000Y-78070000I0J250000D01*
G01*
G37*
D24*
X171450000Y-77470000D03*
X168910000Y-74930000D03*
X171450000Y-74930000D03*
X168910000Y-72390000D03*
X171450000Y-72390000D03*
X168910000Y-69850000D03*
X171450000Y-69850000D03*
X168910000Y-67310000D03*
X171450000Y-67310000D03*
D29*
X148590000Y-111506000D03*
D30*
X148590000Y-114046000D03*
X148590000Y-116586000D03*
X148590000Y-119126000D03*
D20*
X113030000Y-68580000D03*
D21*
X123190000Y-68580000D03*
D25*
X135890000Y-104140000D03*
D31*
X89020000Y-74930000D03*
D32*
X96520000Y-74930000D03*
D25*
X155194000Y-129032000D03*
D22*
X132120000Y-81280000D03*
D23*
X134620000Y-81280000D03*
D20*
X129540000Y-93980000D03*
D21*
X129540000Y-104140000D03*
D20*
X129540000Y-76200000D03*
D21*
X129540000Y-66040000D03*
G36*
G01*
X71040000Y-105959999D02*
X71040000Y-103160001D01*
G75*
G02*
X71290001Y-102910000I250001J0D01*
G01*
X73489999Y-102910000D01*
G75*
G02*
X73740000Y-103160001I0J-250001D01*
G01*
X73740000Y-105959999D01*
G75*
G02*
X73489999Y-106210000I-250001J0D01*
G01*
X71290001Y-106210000D01*
G75*
G02*
X71040000Y-105959999I0J250001D01*
G01*
G37*
D33*
X76590000Y-104560000D03*
X72390000Y-99060000D03*
X76590000Y-99060000D03*
D34*
X144780000Y-80518000D03*
X152400000Y-80518000D03*
D25*
X142748000Y-64770000D03*
D31*
X89020000Y-93980000D03*
D32*
X96520000Y-93980000D03*
D35*
X107950000Y-66040000D03*
X105410000Y-66040000D03*
X102870000Y-66040000D03*
X102860000Y-102870000D03*
X105400000Y-102870000D03*
X107940000Y-102870000D03*
G36*
G01*
X192190000Y-78070000D02*
X192190000Y-76870000D01*
G75*
G02*
X192440000Y-76620000I250000J0D01*
G01*
X193640000Y-76620000D01*
G75*
G02*
X193890000Y-76870000I0J-250000D01*
G01*
X193890000Y-78070000D01*
G75*
G02*
X193640000Y-78320000I-250000J0D01*
G01*
X192440000Y-78320000D01*
G75*
G02*
X192190000Y-78070000I0J250000D01*
G01*
G37*
D24*
X195580000Y-77470000D03*
X193040000Y-74930000D03*
X195580000Y-74930000D03*
X193040000Y-72390000D03*
X195580000Y-72390000D03*
X193040000Y-69850000D03*
X195580000Y-69850000D03*
X193040000Y-67310000D03*
X195580000Y-67310000D03*
G36*
G01*
X95695000Y-117240000D02*
X97385000Y-117240000D01*
G75*
G02*
X97635000Y-117490000I0J-250000D01*
G01*
X97635000Y-118730000D01*
G75*
G02*
X97385000Y-118980000I-250000J0D01*
G01*
X95695000Y-118980000D01*
G75*
G02*
X95445000Y-118730000I0J250000D01*
G01*
X95445000Y-117490000D01*
G75*
G02*
X95695000Y-117240000I250000J0D01*
G01*
G37*
D36*
X96540000Y-120650000D03*
X96540000Y-123190000D03*
X96540000Y-125730000D03*
X96540000Y-128270000D03*
D20*
X123190000Y-101600000D03*
D21*
X113030000Y-101600000D03*
G36*
G01*
X154540000Y-63925000D02*
X154540000Y-65615000D01*
G75*
G02*
X154290000Y-65865000I-250000J0D01*
G01*
X153050000Y-65865000D01*
G75*
G02*
X152800000Y-65615000I0J250000D01*
G01*
X152800000Y-63925000D01*
G75*
G02*
X153050000Y-63675000I250000J0D01*
G01*
X154290000Y-63675000D01*
G75*
G02*
X154540000Y-63925000I0J-250000D01*
G01*
G37*
D37*
X151130000Y-64770000D03*
X148590000Y-64770000D03*
M02*
