M48
; DRILL file {KiCad 6.0.5+dfsg-1~bpo11+1} date Sat Apr 15 13:36:49 2023
; FORMAT={-:-/ absolute / metric / decimal}
; #@! TF.CreationDate,2023-04-15T13:36:49+00:00
; #@! TF.GenerationSoftware,Kicad,Pcbnew,6.0.5+dfsg-1~bpo11+1
; #@! TF.FileFunction,Plated,1,2,PTH
FMAT,2
METRIC
; #@! TA.AperFunction,Plated,PTH,ViaDrill
T1C0.500
; #@! TA.AperFunction,Plated,PTH,ComponentDrill
T2C0.800
; #@! TA.AperFunction,Plated,PTH,ComponentDrill
T3C0.900
; #@! TA.AperFunction,Plated,PTH,ComponentDrill
T4C1.000
; #@! TA.AperFunction,Plated,PTH,ComponentDrill
T5C1.100
; #@! TA.AperFunction,Plated,PTH,ComponentDrill
T6C1.190
; #@! TA.AperFunction,Plated,PTH,ComponentDrill
T7C1.200
; #@! TA.AperFunction,Plated,PTH,ComponentDrill
T8C1.300
; #@! TA.AperFunction,Plated,PTH,ComponentDrill
T9C1.400
; #@! TA.AperFunction,Plated,PTH,ComponentDrill
T10C1.850
; #@! TA.AperFunction,Plated,PTH,ComponentDrill
T11C2.000
%
G90
G05
T1
X92.202Y-119.38
X155.702Y-116.332
X155.702Y-118.872
X155.702Y-121.412
X160.274Y-107.442
X160.528Y-100.33
X160.782Y-116.078
X163.068Y-109.982
X165.1Y-92.964
X165.608Y-123.444
X166.878Y-97.79
X168.402Y-132.334
X169.164Y-103.632
X170.815Y-97.79
X170.942Y-121.92
X170.942Y-124.46
X170.978Y-114.531
X171.196Y-103.632
X172.212Y-116.078
X172.72Y-114.554
X172.974Y-97.79
X173.99Y-121.666
X174.752Y-91.694
X177.038Y-133.604
X178.054Y-100.33
X224.79Y-117.094
T2
X102.86Y-102.87
X102.87Y-66.04
X105.4Y-102.87
X105.41Y-66.04
X107.94Y-102.87
X107.95Y-66.04
X132.12Y-81.28
X132.12Y-88.9
X134.62Y-81.28
X134.62Y-88.9
X140.931Y-127.508
X143.431Y-127.508
T3
X139.685Y-89.191
X141.85Y-87.941
X144.015Y-86.691
X146.18Y-85.441
X148.345Y-84.191
X148.835Y-105.039
X151.0Y-103.789
X153.165Y-102.539
X155.33Y-101.289
X157.495Y-100.039
T4
X69.89Y-73.66
X72.39Y-73.66
X74.89Y-73.66
X135.89Y-64.77
X135.89Y-104.14
X142.748Y-64.77
X148.59Y-111.506
X148.59Y-114.046
X148.59Y-116.586
X148.59Y-119.126
X155.194Y-129.032
X159.512Y-64.77
X168.91Y-67.31
X168.91Y-69.85
X168.91Y-72.39
X168.91Y-74.93
X168.91Y-77.47
X171.45Y-67.31
X171.45Y-69.85
X171.45Y-72.39
X171.45Y-74.93
X171.45Y-77.47
X180.975Y-67.31
X180.975Y-69.85
X180.975Y-72.39
X180.975Y-74.93
X180.975Y-77.47
X183.515Y-67.31
X183.515Y-69.85
X183.515Y-72.39
X183.515Y-74.93
X183.515Y-77.47
X193.04Y-67.31
X193.04Y-69.85
X193.04Y-72.39
X193.04Y-74.93
X193.04Y-77.47
X195.58Y-67.31
X195.58Y-69.85
X195.58Y-72.39
X195.58Y-74.93
X195.58Y-77.47
X204.987Y-67.31
X204.987Y-69.85
X204.987Y-72.39
X204.987Y-74.93
X204.987Y-77.47
X207.528Y-67.31
X207.528Y-69.85
X207.528Y-72.39
X207.528Y-74.93
X207.528Y-77.47
X222.29Y-73.66
X222.29Y-130.81
X224.79Y-73.66
X224.79Y-130.81
X227.29Y-73.66
X227.29Y-130.81
T5
X68.58Y-78.232
X68.58Y-83.185
X68.58Y-88.392
X68.58Y-93.472
X78.74Y-78.232
X78.74Y-83.185
X78.74Y-88.392
X78.74Y-93.472
X113.03Y-68.58
X113.03Y-101.6
X123.19Y-68.58
X123.19Y-101.6
X129.54Y-66.04
X129.54Y-76.2
X129.54Y-93.98
X129.54Y-104.14
T6
X96.54Y-118.11
X96.54Y-120.65
X96.54Y-123.19
X96.54Y-125.73
X96.54Y-128.27
X148.59Y-64.77
X151.13Y-64.77
X153.67Y-64.77
T7
X89.02Y-74.93
X89.02Y-93.98
X96.52Y-74.93
X96.52Y-93.98
X103.98Y-76.2
X103.98Y-78.74
X103.98Y-81.28
X103.98Y-88.9
X103.98Y-91.44
X103.98Y-93.98
T8
X144.78Y-80.518
X152.4Y-80.518
T9
X72.39Y-99.06
X72.39Y-104.56
X76.59Y-99.06
X76.59Y-104.56
T10
X110.49Y-118.49
X110.49Y-123.19
X110.49Y-127.89
X186.69Y-118.49
X186.69Y-123.19
X186.69Y-127.89
T11
X142.212Y-99.568
X156.068Y-91.568
T5
X67.59Y-66.51G85X67.59Y-65.81
G05
X77.19Y-66.51G85X77.19Y-65.81
G05
X219.99Y-66.51G85X219.99Y-65.81
G05
X219.99Y-123.66G85X219.99Y-122.96
G05
X229.59Y-66.51G85X229.59Y-65.81
G05
X229.59Y-123.66G85X229.59Y-122.96
G05
T0
M30
