%FSLAX45Y45*%
G04 Gerber Fmt 4.5, Leading zero omitted, Abs format (unit mm)*
G04 Created by KiCad (PCBNEW 6.0.5+dfsg-1~bpo11+1) date 2022-08-16 14:50:18*
%MOMM*%
%LPD*%
G01*
G04 APERTURE LIST*
%TA.AperFunction,Profile*%
%ADD10C,0.100000*%
%TD*%
%ADD11C,0.200000*%
%ADD12C,0.350000*%
G04 APERTURE END LIST*
D10*
X23368000Y-13462000D02*
X8890000Y-13462000D01*
X6350000Y-5842000D02*
X23368000Y-5842000D01*
X6350000Y-10922000D02*
X6350000Y-5842000D01*
X8382000Y-10922000D02*
X6350000Y-10922000D01*
X8890000Y-13462000D02*
X8890000Y-11430000D01*
X8890000Y-11430000D02*
G75*
G03*
X8382000Y-10922000I-508000J0D01*
G01*
X23368000Y-5842000D02*
X23368000Y-13462000D01*
D11*
D12*
X11803000Y-7699000D02*
X12153000Y-8049000D01*
X12153000Y-7699000D02*
X11803000Y-8049000D01*
X11803000Y-8969000D02*
X12153000Y-9319000D01*
X12153000Y-8969000D02*
X11803000Y-9319000D01*
D11*
X6602619Y-13777476D02*
X6602619Y-13577476D01*
X6650238Y-13577476D01*
X6678809Y-13587000D01*
X6697857Y-13606048D01*
X6707381Y-13625095D01*
X6716905Y-13663190D01*
X6716905Y-13691762D01*
X6707381Y-13729857D01*
X6697857Y-13748905D01*
X6678809Y-13767952D01*
X6650238Y-13777476D01*
X6602619Y-13777476D01*
X6802619Y-13777476D02*
X6802619Y-13644143D01*
X6802619Y-13682238D02*
X6812143Y-13663190D01*
X6821667Y-13653667D01*
X6840714Y-13644143D01*
X6859762Y-13644143D01*
X6926428Y-13777476D02*
X6926428Y-13644143D01*
X6926428Y-13577476D02*
X6916905Y-13587000D01*
X6926428Y-13596524D01*
X6935952Y-13587000D01*
X6926428Y-13577476D01*
X6926428Y-13596524D01*
X7050238Y-13777476D02*
X7031190Y-13767952D01*
X7021667Y-13748905D01*
X7021667Y-13577476D01*
X7155000Y-13777476D02*
X7135952Y-13767952D01*
X7126428Y-13748905D01*
X7126428Y-13577476D01*
X7383571Y-13777476D02*
X7383571Y-13577476D01*
X7450238Y-13720333D01*
X7516905Y-13577476D01*
X7516905Y-13777476D01*
X7697857Y-13777476D02*
X7697857Y-13672714D01*
X7688333Y-13653667D01*
X7669286Y-13644143D01*
X7631190Y-13644143D01*
X7612143Y-13653667D01*
X7697857Y-13767952D02*
X7678809Y-13777476D01*
X7631190Y-13777476D01*
X7612143Y-13767952D01*
X7602619Y-13748905D01*
X7602619Y-13729857D01*
X7612143Y-13710809D01*
X7631190Y-13701286D01*
X7678809Y-13701286D01*
X7697857Y-13691762D01*
X7793095Y-13644143D02*
X7793095Y-13844143D01*
X7793095Y-13653667D02*
X7812143Y-13644143D01*
X7850238Y-13644143D01*
X7869286Y-13653667D01*
X7878809Y-13663190D01*
X7888333Y-13682238D01*
X7888333Y-13739381D01*
X7878809Y-13758428D01*
X7869286Y-13767952D01*
X7850238Y-13777476D01*
X7812143Y-13777476D01*
X7793095Y-13767952D01*
X7974048Y-13758428D02*
X7983571Y-13767952D01*
X7974048Y-13777476D01*
X7964524Y-13767952D01*
X7974048Y-13758428D01*
X7974048Y-13777476D01*
X7974048Y-13653667D02*
X7983571Y-13663190D01*
X7974048Y-13672714D01*
X7964524Y-13663190D01*
X7974048Y-13653667D01*
X7974048Y-13672714D01*
X6145000Y-14007000D02*
X6345000Y-14207000D01*
X6345000Y-14007000D02*
X6145000Y-14207000D01*
X6583571Y-13997476D02*
X6707381Y-13997476D01*
X6640714Y-14073667D01*
X6669286Y-14073667D01*
X6688333Y-14083190D01*
X6697857Y-14092714D01*
X6707381Y-14111762D01*
X6707381Y-14159381D01*
X6697857Y-14178428D01*
X6688333Y-14187952D01*
X6669286Y-14197476D01*
X6612143Y-14197476D01*
X6593095Y-14187952D01*
X6583571Y-14178428D01*
X6793095Y-14178428D02*
X6802619Y-14187952D01*
X6793095Y-14197476D01*
X6783571Y-14187952D01*
X6793095Y-14178428D01*
X6793095Y-14197476D01*
X6983571Y-13997476D02*
X6888333Y-13997476D01*
X6878809Y-14092714D01*
X6888333Y-14083190D01*
X6907381Y-14073667D01*
X6955000Y-14073667D01*
X6974048Y-14083190D01*
X6983571Y-14092714D01*
X6993095Y-14111762D01*
X6993095Y-14159381D01*
X6983571Y-14178428D01*
X6974048Y-14187952D01*
X6955000Y-14197476D01*
X6907381Y-14197476D01*
X6888333Y-14187952D01*
X6878809Y-14178428D01*
X7116905Y-13997476D02*
X7135952Y-13997476D01*
X7155000Y-14007000D01*
X7164524Y-14016524D01*
X7174048Y-14035571D01*
X7183571Y-14073667D01*
X7183571Y-14121286D01*
X7174048Y-14159381D01*
X7164524Y-14178428D01*
X7155000Y-14187952D01*
X7135952Y-14197476D01*
X7116905Y-14197476D01*
X7097857Y-14187952D01*
X7088333Y-14178428D01*
X7078809Y-14159381D01*
X7069286Y-14121286D01*
X7069286Y-14073667D01*
X7078809Y-14035571D01*
X7088333Y-14016524D01*
X7097857Y-14007000D01*
X7116905Y-13997476D01*
X7307381Y-13997476D02*
X7326428Y-13997476D01*
X7345476Y-14007000D01*
X7355000Y-14016524D01*
X7364524Y-14035571D01*
X7374048Y-14073667D01*
X7374048Y-14121286D01*
X7364524Y-14159381D01*
X7355000Y-14178428D01*
X7345476Y-14187952D01*
X7326428Y-14197476D01*
X7307381Y-14197476D01*
X7288333Y-14187952D01*
X7278809Y-14178428D01*
X7269286Y-14159381D01*
X7259762Y-14121286D01*
X7259762Y-14073667D01*
X7269286Y-14035571D01*
X7278809Y-14016524D01*
X7288333Y-14007000D01*
X7307381Y-13997476D01*
X7459762Y-14197476D02*
X7459762Y-14064143D01*
X7459762Y-14083190D02*
X7469286Y-14073667D01*
X7488333Y-14064143D01*
X7516905Y-14064143D01*
X7535952Y-14073667D01*
X7545476Y-14092714D01*
X7545476Y-14197476D01*
X7545476Y-14092714D02*
X7555000Y-14073667D01*
X7574048Y-14064143D01*
X7602619Y-14064143D01*
X7621667Y-14073667D01*
X7631190Y-14092714D01*
X7631190Y-14197476D01*
X7726428Y-14197476D02*
X7726428Y-14064143D01*
X7726428Y-14083190D02*
X7735952Y-14073667D01*
X7755000Y-14064143D01*
X7783571Y-14064143D01*
X7802619Y-14073667D01*
X7812143Y-14092714D01*
X7812143Y-14197476D01*
X7812143Y-14092714D02*
X7821667Y-14073667D01*
X7840714Y-14064143D01*
X7869286Y-14064143D01*
X7888333Y-14073667D01*
X7897857Y-14092714D01*
X7897857Y-14197476D01*
X8288333Y-13987952D02*
X8116905Y-14245095D01*
X8545476Y-13997476D02*
X8564524Y-13997476D01*
X8583571Y-14007000D01*
X8593095Y-14016524D01*
X8602619Y-14035571D01*
X8612143Y-14073667D01*
X8612143Y-14121286D01*
X8602619Y-14159381D01*
X8593095Y-14178428D01*
X8583571Y-14187952D01*
X8564524Y-14197476D01*
X8545476Y-14197476D01*
X8526429Y-14187952D01*
X8516905Y-14178428D01*
X8507381Y-14159381D01*
X8497857Y-14121286D01*
X8497857Y-14073667D01*
X8507381Y-14035571D01*
X8516905Y-14016524D01*
X8526429Y-14007000D01*
X8545476Y-13997476D01*
X8697857Y-14178428D02*
X8707381Y-14187952D01*
X8697857Y-14197476D01*
X8688333Y-14187952D01*
X8697857Y-14178428D01*
X8697857Y-14197476D01*
X8897857Y-14197476D02*
X8783571Y-14197476D01*
X8840714Y-14197476D02*
X8840714Y-13997476D01*
X8821667Y-14026048D01*
X8802619Y-14045095D01*
X8783571Y-14054619D01*
X8964524Y-13997476D02*
X9088333Y-13997476D01*
X9021667Y-14073667D01*
X9050238Y-14073667D01*
X9069286Y-14083190D01*
X9078810Y-14092714D01*
X9088333Y-14111762D01*
X9088333Y-14159381D01*
X9078810Y-14178428D01*
X9069286Y-14187952D01*
X9050238Y-14197476D01*
X8993095Y-14197476D01*
X8974048Y-14187952D01*
X8964524Y-14178428D01*
X9155000Y-13997476D02*
X9288333Y-13997476D01*
X9202619Y-14197476D01*
X9393095Y-14083190D02*
X9374048Y-14073667D01*
X9364524Y-14064143D01*
X9355000Y-14045095D01*
X9355000Y-14035571D01*
X9364524Y-14016524D01*
X9374048Y-14007000D01*
X9393095Y-13997476D01*
X9431190Y-13997476D01*
X9450238Y-14007000D01*
X9459762Y-14016524D01*
X9469286Y-14035571D01*
X9469286Y-14045095D01*
X9459762Y-14064143D01*
X9450238Y-14073667D01*
X9431190Y-14083190D01*
X9393095Y-14083190D01*
X9374048Y-14092714D01*
X9364524Y-14102238D01*
X9355000Y-14121286D01*
X9355000Y-14159381D01*
X9364524Y-14178428D01*
X9374048Y-14187952D01*
X9393095Y-14197476D01*
X9431190Y-14197476D01*
X9450238Y-14187952D01*
X9459762Y-14178428D01*
X9469286Y-14159381D01*
X9469286Y-14121286D01*
X9459762Y-14102238D01*
X9450238Y-14092714D01*
X9431190Y-14083190D01*
X9545476Y-13997476D02*
X9545476Y-14035571D01*
X9621667Y-13997476D02*
X9621667Y-14035571D01*
X9916905Y-14273667D02*
X9907381Y-14264143D01*
X9888333Y-14235571D01*
X9878810Y-14216524D01*
X9869286Y-14187952D01*
X9859762Y-14140333D01*
X9859762Y-14102238D01*
X9869286Y-14054619D01*
X9878810Y-14026048D01*
X9888333Y-14007000D01*
X9907381Y-13978428D01*
X9916905Y-13968905D01*
X9983571Y-14016524D02*
X9993095Y-14007000D01*
X10012143Y-13997476D01*
X10059762Y-13997476D01*
X10078810Y-14007000D01*
X10088333Y-14016524D01*
X10097857Y-14035571D01*
X10097857Y-14054619D01*
X10088333Y-14083190D01*
X9974048Y-14197476D01*
X10097857Y-14197476D01*
X10335952Y-14197476D02*
X10335952Y-13997476D01*
X10421667Y-14197476D02*
X10421667Y-14092714D01*
X10412143Y-14073667D01*
X10393095Y-14064143D01*
X10364524Y-14064143D01*
X10345476Y-14073667D01*
X10335952Y-14083190D01*
X10545476Y-14197476D02*
X10526429Y-14187952D01*
X10516905Y-14178428D01*
X10507381Y-14159381D01*
X10507381Y-14102238D01*
X10516905Y-14083190D01*
X10526429Y-14073667D01*
X10545476Y-14064143D01*
X10574048Y-14064143D01*
X10593095Y-14073667D01*
X10602619Y-14083190D01*
X10612143Y-14102238D01*
X10612143Y-14159381D01*
X10602619Y-14178428D01*
X10593095Y-14187952D01*
X10574048Y-14197476D01*
X10545476Y-14197476D01*
X10726429Y-14197476D02*
X10707381Y-14187952D01*
X10697857Y-14168905D01*
X10697857Y-13997476D01*
X10878810Y-14187952D02*
X10859762Y-14197476D01*
X10821667Y-14197476D01*
X10802619Y-14187952D01*
X10793095Y-14168905D01*
X10793095Y-14092714D01*
X10802619Y-14073667D01*
X10821667Y-14064143D01*
X10859762Y-14064143D01*
X10878810Y-14073667D01*
X10888333Y-14092714D01*
X10888333Y-14111762D01*
X10793095Y-14130809D01*
X10964524Y-14187952D02*
X10983571Y-14197476D01*
X11021667Y-14197476D01*
X11040714Y-14187952D01*
X11050238Y-14168905D01*
X11050238Y-14159381D01*
X11040714Y-14140333D01*
X11021667Y-14130809D01*
X10993095Y-14130809D01*
X10974048Y-14121286D01*
X10964524Y-14102238D01*
X10964524Y-14092714D01*
X10974048Y-14073667D01*
X10993095Y-14064143D01*
X11021667Y-14064143D01*
X11040714Y-14073667D01*
X11116905Y-14273667D02*
X11126429Y-14264143D01*
X11145476Y-14235571D01*
X11155000Y-14216524D01*
X11164524Y-14187952D01*
X11174048Y-14140333D01*
X11174048Y-14102238D01*
X11164524Y-14054619D01*
X11155000Y-14026048D01*
X11145476Y-14007000D01*
X11126429Y-13978428D01*
X11116905Y-13968905D01*
X11478809Y-14273667D02*
X11469286Y-14264143D01*
X11450238Y-14235571D01*
X11440714Y-14216524D01*
X11431190Y-14187952D01*
X11421667Y-14140333D01*
X11421667Y-14102238D01*
X11431190Y-14054619D01*
X11440714Y-14026048D01*
X11450238Y-14007000D01*
X11469286Y-13978428D01*
X11478809Y-13968905D01*
X11555000Y-14064143D02*
X11555000Y-14197476D01*
X11555000Y-14083190D02*
X11564524Y-14073667D01*
X11583571Y-14064143D01*
X11612143Y-14064143D01*
X11631190Y-14073667D01*
X11640714Y-14092714D01*
X11640714Y-14197476D01*
X11764524Y-14197476D02*
X11745476Y-14187952D01*
X11735952Y-14178428D01*
X11726428Y-14159381D01*
X11726428Y-14102238D01*
X11735952Y-14083190D01*
X11745476Y-14073667D01*
X11764524Y-14064143D01*
X11793095Y-14064143D01*
X11812143Y-14073667D01*
X11821667Y-14083190D01*
X11831190Y-14102238D01*
X11831190Y-14159381D01*
X11821667Y-14178428D01*
X11812143Y-14187952D01*
X11793095Y-14197476D01*
X11764524Y-14197476D01*
X11888333Y-14064143D02*
X11964524Y-14064143D01*
X11916905Y-13997476D02*
X11916905Y-14168905D01*
X11926428Y-14187952D01*
X11945476Y-14197476D01*
X11964524Y-14197476D01*
X12183571Y-14064143D02*
X12183571Y-14264143D01*
X12183571Y-14073667D02*
X12202619Y-14064143D01*
X12240714Y-14064143D01*
X12259762Y-14073667D01*
X12269286Y-14083190D01*
X12278809Y-14102238D01*
X12278809Y-14159381D01*
X12269286Y-14178428D01*
X12259762Y-14187952D01*
X12240714Y-14197476D01*
X12202619Y-14197476D01*
X12183571Y-14187952D01*
X12393095Y-14197476D02*
X12374048Y-14187952D01*
X12364524Y-14168905D01*
X12364524Y-13997476D01*
X12555000Y-14197476D02*
X12555000Y-14092714D01*
X12545476Y-14073667D01*
X12526428Y-14064143D01*
X12488333Y-14064143D01*
X12469286Y-14073667D01*
X12555000Y-14187952D02*
X12535952Y-14197476D01*
X12488333Y-14197476D01*
X12469286Y-14187952D01*
X12459762Y-14168905D01*
X12459762Y-14149857D01*
X12469286Y-14130809D01*
X12488333Y-14121286D01*
X12535952Y-14121286D01*
X12555000Y-14111762D01*
X12621667Y-14064143D02*
X12697857Y-14064143D01*
X12650238Y-13997476D02*
X12650238Y-14168905D01*
X12659762Y-14187952D01*
X12678809Y-14197476D01*
X12697857Y-14197476D01*
X12840714Y-14187952D02*
X12821667Y-14197476D01*
X12783571Y-14197476D01*
X12764524Y-14187952D01*
X12755000Y-14168905D01*
X12755000Y-14092714D01*
X12764524Y-14073667D01*
X12783571Y-14064143D01*
X12821667Y-14064143D01*
X12840714Y-14073667D01*
X12850238Y-14092714D01*
X12850238Y-14111762D01*
X12755000Y-14130809D01*
X13021667Y-14197476D02*
X13021667Y-13997476D01*
X13021667Y-14187952D02*
X13002619Y-14197476D01*
X12964524Y-14197476D01*
X12945476Y-14187952D01*
X12935952Y-14178428D01*
X12926428Y-14159381D01*
X12926428Y-14102238D01*
X12935952Y-14083190D01*
X12945476Y-14073667D01*
X12964524Y-14064143D01*
X13002619Y-14064143D01*
X13021667Y-14073667D01*
X13097857Y-14273667D02*
X13107381Y-14264143D01*
X13126428Y-14235571D01*
X13135952Y-14216524D01*
X13145476Y-14187952D01*
X13155000Y-14140333D01*
X13155000Y-14102238D01*
X13145476Y-14054619D01*
X13135952Y-14026048D01*
X13126428Y-14007000D01*
X13107381Y-13978428D01*
X13097857Y-13968905D01*
M02*
