G04 #@! TF.GenerationSoftware,KiCad,Pcbnew,6.0.5+dfsg-1~bpo11+1*
G04 #@! TF.CreationDate,2022-08-16T14:50:18+00:00*
G04 #@! TF.ProjectId,lfo_and_power_supply,6c666f5f-616e-4645-9f70-6f7765725f73,0*
G04 #@! TF.SameCoordinates,Original*
G04 #@! TF.FileFunction,Soldermask,Top*
G04 #@! TF.FilePolarity,Negative*
%FSLAX46Y46*%
G04 Gerber Fmt 4.6, Leading zero omitted, Abs format (unit mm)*
G04 Created by KiCad (PCBNEW 6.0.5+dfsg-1~bpo11+1) date 2022-08-16 14:50:18*
%MOMM*%
%LPD*%
G01*
G04 APERTURE LIST*
%ADD10C,3.000000*%
%ADD11C,1.451600*%
%ADD12C,2.500000*%
%ADD13O,2.720000X3.240000*%
%ADD14R,1.800000X1.800000*%
%ADD15C,1.800000*%
%ADD16R,2.200000X2.200000*%
%ADD17O,2.200000X2.200000*%
%ADD18R,1.600000X1.600000*%
%ADD19C,1.600000*%
%ADD20C,1.700000*%
%ADD21C,2.000000*%
%ADD22O,3.500000X3.500000*%
%ADD23R,2.000000X1.905000*%
%ADD24O,2.000000X1.905000*%
%ADD25R,1.700000X1.700000*%
%ADD26O,1.700000X1.700000*%
%ADD27R,2.400000X2.400000*%
%ADD28C,2.400000*%
%ADD29O,2.700000X3.300000*%
%ADD30C,2.600000*%
%ADD31C,1.440000*%
%ADD32O,2.190000X1.740000*%
%ADD33O,1.740000X2.190000*%
G04 APERTURE END LIST*
D10*
X156068203Y-91567628D03*
X142211797Y-99567628D03*
D11*
X139684873Y-89190868D03*
X141849936Y-87940868D03*
X144015000Y-86690868D03*
X146180064Y-85440868D03*
X148345127Y-84190868D03*
X157495127Y-100039132D03*
X155330064Y-101289132D03*
X153165000Y-102539132D03*
X150999936Y-103789132D03*
X148834873Y-105039132D03*
D12*
X186690000Y-118490000D03*
X186690000Y-123190000D03*
X186690000Y-127890000D03*
D13*
X229590000Y-123310000D03*
X219990000Y-123310000D03*
D14*
X222290000Y-130810000D03*
D15*
X224790000Y-130810000D03*
X227290000Y-130810000D03*
D12*
X110490000Y-118490000D03*
X110490000Y-123190000D03*
X110490000Y-127890000D03*
D13*
X219990000Y-66160000D03*
X229590000Y-66160000D03*
D14*
X222290000Y-73660000D03*
D15*
X224790000Y-73660000D03*
X227290000Y-73660000D03*
D13*
X77190000Y-66160000D03*
X67590000Y-66160000D03*
D14*
X69890000Y-73660000D03*
D15*
X72390000Y-73660000D03*
X74890000Y-73660000D03*
D16*
X78740000Y-78232000D03*
D17*
X68580000Y-78232000D03*
D16*
X78740000Y-88392000D03*
D17*
X68580000Y-88392000D03*
D18*
X132120000Y-88900000D03*
D19*
X134620000Y-88900000D03*
G36*
G01*
X204137500Y-78070000D02*
X204137500Y-76870000D01*
G75*
G02*
X204387500Y-76620000I250000J0D01*
G01*
X205587500Y-76620000D01*
G75*
G02*
X205837500Y-76870000I0J-250000D01*
G01*
X205837500Y-78070000D01*
G75*
G02*
X205587500Y-78320000I-250000J0D01*
G01*
X204387500Y-78320000D01*
G75*
G02*
X204137500Y-78070000I0J250000D01*
G01*
G37*
D20*
X207527500Y-77470000D03*
X204987500Y-74930000D03*
X207527500Y-74930000D03*
X204987500Y-72390000D03*
X207527500Y-72390000D03*
X204987500Y-69850000D03*
X207527500Y-69850000D03*
X204987500Y-67310000D03*
X207527500Y-67310000D03*
D16*
X68580000Y-93472000D03*
D17*
X78740000Y-93472000D03*
D21*
X135890000Y-64770000D03*
G36*
G01*
X180125000Y-78070000D02*
X180125000Y-76870000D01*
G75*
G02*
X180375000Y-76620000I250000J0D01*
G01*
X181575000Y-76620000D01*
G75*
G02*
X181825000Y-76870000I0J-250000D01*
G01*
X181825000Y-78070000D01*
G75*
G02*
X181575000Y-78320000I-250000J0D01*
G01*
X180375000Y-78320000D01*
G75*
G02*
X180125000Y-78070000I0J250000D01*
G01*
G37*
D20*
X183515000Y-77470000D03*
X180975000Y-74930000D03*
X183515000Y-74930000D03*
X180975000Y-72390000D03*
X183515000Y-72390000D03*
X180975000Y-69850000D03*
X183515000Y-69850000D03*
X180975000Y-67310000D03*
X183515000Y-67310000D03*
D22*
X119780000Y-78740000D03*
D23*
X103980000Y-81280000D03*
D24*
X103980000Y-78740000D03*
X103980000Y-76200000D03*
D21*
X159512000Y-64770000D03*
D16*
X68580000Y-83185000D03*
D17*
X78740000Y-83185000D03*
D18*
X140931500Y-127508000D03*
D19*
X143431500Y-127508000D03*
D22*
X119780000Y-91440000D03*
D23*
X103980000Y-93980000D03*
D24*
X103980000Y-91440000D03*
X103980000Y-88900000D03*
G36*
G01*
X168060000Y-78070000D02*
X168060000Y-76870000D01*
G75*
G02*
X168310000Y-76620000I250000J0D01*
G01*
X169510000Y-76620000D01*
G75*
G02*
X169760000Y-76870000I0J-250000D01*
G01*
X169760000Y-78070000D01*
G75*
G02*
X169510000Y-78320000I-250000J0D01*
G01*
X168310000Y-78320000D01*
G75*
G02*
X168060000Y-78070000I0J250000D01*
G01*
G37*
D20*
X171450000Y-77470000D03*
X168910000Y-74930000D03*
X171450000Y-74930000D03*
X168910000Y-72390000D03*
X171450000Y-72390000D03*
X168910000Y-69850000D03*
X171450000Y-69850000D03*
X168910000Y-67310000D03*
X171450000Y-67310000D03*
D25*
X148590000Y-111506000D03*
D26*
X148590000Y-114046000D03*
X148590000Y-116586000D03*
X148590000Y-119126000D03*
D16*
X113030000Y-68580000D03*
D17*
X123190000Y-68580000D03*
D21*
X135890000Y-104140000D03*
D27*
X89020000Y-74930000D03*
D28*
X96520000Y-74930000D03*
D21*
X155194000Y-129032000D03*
D18*
X132120000Y-81280000D03*
D19*
X134620000Y-81280000D03*
D16*
X129540000Y-93980000D03*
D17*
X129540000Y-104140000D03*
D16*
X129540000Y-76200000D03*
D17*
X129540000Y-66040000D03*
G36*
G01*
X71040000Y-105959999D02*
X71040000Y-103160001D01*
G75*
G02*
X71290001Y-102910000I250001J0D01*
G01*
X73489999Y-102910000D01*
G75*
G02*
X73740000Y-103160001I0J-250001D01*
G01*
X73740000Y-105959999D01*
G75*
G02*
X73489999Y-106210000I-250001J0D01*
G01*
X71290001Y-106210000D01*
G75*
G02*
X71040000Y-105959999I0J250001D01*
G01*
G37*
D29*
X76590000Y-104560000D03*
X72390000Y-99060000D03*
X76590000Y-99060000D03*
D30*
X144780000Y-80518000D03*
X152400000Y-80518000D03*
D21*
X142748000Y-64770000D03*
D27*
X89020000Y-93980000D03*
D28*
X96520000Y-93980000D03*
D31*
X107950000Y-66040000D03*
X105410000Y-66040000D03*
X102870000Y-66040000D03*
X102860000Y-102870000D03*
X105400000Y-102870000D03*
X107940000Y-102870000D03*
G36*
G01*
X192190000Y-78070000D02*
X192190000Y-76870000D01*
G75*
G02*
X192440000Y-76620000I250000J0D01*
G01*
X193640000Y-76620000D01*
G75*
G02*
X193890000Y-76870000I0J-250000D01*
G01*
X193890000Y-78070000D01*
G75*
G02*
X193640000Y-78320000I-250000J0D01*
G01*
X192440000Y-78320000D01*
G75*
G02*
X192190000Y-78070000I0J250000D01*
G01*
G37*
D20*
X195580000Y-77470000D03*
X193040000Y-74930000D03*
X195580000Y-74930000D03*
X193040000Y-72390000D03*
X195580000Y-72390000D03*
X193040000Y-69850000D03*
X195580000Y-69850000D03*
X193040000Y-67310000D03*
X195580000Y-67310000D03*
G36*
G01*
X95695000Y-117240000D02*
X97385000Y-117240000D01*
G75*
G02*
X97635000Y-117490000I0J-250000D01*
G01*
X97635000Y-118730000D01*
G75*
G02*
X97385000Y-118980000I-250000J0D01*
G01*
X95695000Y-118980000D01*
G75*
G02*
X95445000Y-118730000I0J250000D01*
G01*
X95445000Y-117490000D01*
G75*
G02*
X95695000Y-117240000I250000J0D01*
G01*
G37*
D32*
X96540000Y-120650000D03*
X96540000Y-123190000D03*
X96540000Y-125730000D03*
X96540000Y-128270000D03*
D16*
X123190000Y-101600000D03*
D17*
X113030000Y-101600000D03*
G36*
G01*
X154540000Y-63925000D02*
X154540000Y-65615000D01*
G75*
G02*
X154290000Y-65865000I-250000J0D01*
G01*
X153050000Y-65865000D01*
G75*
G02*
X152800000Y-65615000I0J250000D01*
G01*
X152800000Y-63925000D01*
G75*
G02*
X153050000Y-63675000I250000J0D01*
G01*
X154290000Y-63675000D01*
G75*
G02*
X154540000Y-63925000I0J-250000D01*
G01*
G37*
D33*
X151130000Y-64770000D03*
X148590000Y-64770000D03*
M02*
