G04 #@! TF.GenerationSoftware,KiCad,Pcbnew,6.0.5+dfsg-1~bpo11+1*
G04 #@! TF.CreationDate,2022-08-16T14:50:18+00:00*
G04 #@! TF.ProjectId,lfo_and_power_supply,6c666f5f-616e-4645-9f70-6f7765725f73,0*
G04 #@! TF.SameCoordinates,Original*
G04 #@! TF.FileFunction,Soldermask,Bot*
G04 #@! TF.FilePolarity,Negative*
%FSLAX46Y46*%
G04 Gerber Fmt 4.6, Leading zero omitted, Abs format (unit mm)*
G04 Created by KiCad (PCBNEW 6.0.5+dfsg-1~bpo11+1) date 2022-08-16 14:50:18*
%MOMM*%
%LPD*%
G01*
G04 APERTURE LIST*
%ADD10C,3.000000*%
%ADD11C,1.451600*%
%ADD12C,2.500000*%
%ADD13O,2.720000X3.240000*%
%ADD14R,1.800000X1.800000*%
%ADD15C,1.800000*%
%ADD16R,2.200000X2.200000*%
%ADD17O,2.200000X2.200000*%
%ADD18R,1.600000X1.600000*%
%ADD19C,1.600000*%
%ADD20C,1.700000*%
%ADD21C,2.000000*%
%ADD22O,3.500000X3.500000*%
%ADD23R,2.000000X1.905000*%
%ADD24O,2.000000X1.905000*%
%ADD25R,1.700000X1.700000*%
%ADD26O,1.700000X1.700000*%
%ADD27R,2.400000X2.400000*%
%ADD28C,2.400000*%
%ADD29O,2.700000X3.300000*%
%ADD30C,2.600000*%
%ADD31C,1.440000*%
%ADD32O,2.190000X1.740000*%
%ADD33R,1.300000X0.900000*%
%ADD34O,1.740000X2.190000*%
%ADD35R,1.100000X0.400000*%
G04 APERTURE END LIST*
D10*
X156068203Y-91567628D03*
X142211797Y-99567628D03*
D11*
X139684873Y-89190868D03*
X141849936Y-87940868D03*
X144015000Y-86690868D03*
X146180064Y-85440868D03*
X148345127Y-84190868D03*
X157495127Y-100039132D03*
X155330064Y-101289132D03*
X153165000Y-102539132D03*
X150999936Y-103789132D03*
X148834873Y-105039132D03*
D12*
X186690000Y-118490000D03*
X186690000Y-123190000D03*
X186690000Y-127890000D03*
D13*
X229590000Y-123310000D03*
X219990000Y-123310000D03*
D14*
X222290000Y-130810000D03*
D15*
X224790000Y-130810000D03*
X227290000Y-130810000D03*
D12*
X110490000Y-118490000D03*
X110490000Y-123190000D03*
X110490000Y-127890000D03*
D13*
X219990000Y-66160000D03*
X229590000Y-66160000D03*
D14*
X222290000Y-73660000D03*
D15*
X224790000Y-73660000D03*
X227290000Y-73660000D03*
D13*
X77190000Y-66160000D03*
X67590000Y-66160000D03*
D14*
X69890000Y-73660000D03*
D15*
X72390000Y-73660000D03*
X74890000Y-73660000D03*
D16*
X78740000Y-78232000D03*
D17*
X68580000Y-78232000D03*
G36*
G01*
X164586500Y-105697000D02*
X164586500Y-106647000D01*
G75*
G02*
X164336500Y-106897000I-250000J0D01*
G01*
X163836500Y-106897000D01*
G75*
G02*
X163586500Y-106647000I0J250000D01*
G01*
X163586500Y-105697000D01*
G75*
G02*
X163836500Y-105447000I250000J0D01*
G01*
X164336500Y-105447000D01*
G75*
G02*
X164586500Y-105697000I0J-250000D01*
G01*
G37*
G36*
G01*
X162686500Y-105697000D02*
X162686500Y-106647000D01*
G75*
G02*
X162436500Y-106897000I-250000J0D01*
G01*
X161936500Y-106897000D01*
G75*
G02*
X161686500Y-106647000I0J250000D01*
G01*
X161686500Y-105697000D01*
G75*
G02*
X161936500Y-105447000I250000J0D01*
G01*
X162436500Y-105447000D01*
G75*
G02*
X162686500Y-105697000I0J-250000D01*
G01*
G37*
G36*
G01*
X159598000Y-119667000D02*
X159598000Y-120617000D01*
G75*
G02*
X159348000Y-120867000I-250000J0D01*
G01*
X158848000Y-120867000D01*
G75*
G02*
X158598000Y-120617000I0J250000D01*
G01*
X158598000Y-119667000D01*
G75*
G02*
X158848000Y-119417000I250000J0D01*
G01*
X159348000Y-119417000D01*
G75*
G02*
X159598000Y-119667000I0J-250000D01*
G01*
G37*
G36*
G01*
X157698000Y-119667000D02*
X157698000Y-120617000D01*
G75*
G02*
X157448000Y-120867000I-250000J0D01*
G01*
X156948000Y-120867000D01*
G75*
G02*
X156698000Y-120617000I0J250000D01*
G01*
X156698000Y-119667000D01*
G75*
G02*
X156948000Y-119417000I250000J0D01*
G01*
X157448000Y-119417000D01*
G75*
G02*
X157698000Y-119667000I0J-250000D01*
G01*
G37*
D16*
X78740000Y-88392000D03*
D17*
X68580000Y-88392000D03*
G36*
G01*
X175613000Y-96368000D02*
X175613000Y-95468000D01*
G75*
G02*
X175863000Y-95218000I250000J0D01*
G01*
X176388000Y-95218000D01*
G75*
G02*
X176638000Y-95468000I0J-250000D01*
G01*
X176638000Y-96368000D01*
G75*
G02*
X176388000Y-96618000I-250000J0D01*
G01*
X175863000Y-96618000D01*
G75*
G02*
X175613000Y-96368000I0J250000D01*
G01*
G37*
G36*
G01*
X177438000Y-96368000D02*
X177438000Y-95468000D01*
G75*
G02*
X177688000Y-95218000I250000J0D01*
G01*
X178213000Y-95218000D01*
G75*
G02*
X178463000Y-95468000I0J-250000D01*
G01*
X178463000Y-96368000D01*
G75*
G02*
X178213000Y-96618000I-250000J0D01*
G01*
X177688000Y-96618000D01*
G75*
G02*
X177438000Y-96368000I0J250000D01*
G01*
G37*
D18*
X132120000Y-88900000D03*
D19*
X134620000Y-88900000D03*
G36*
G01*
X204137500Y-78070000D02*
X204137500Y-76870000D01*
G75*
G02*
X204387500Y-76620000I250000J0D01*
G01*
X205587500Y-76620000D01*
G75*
G02*
X205837500Y-76870000I0J-250000D01*
G01*
X205837500Y-78070000D01*
G75*
G02*
X205587500Y-78320000I-250000J0D01*
G01*
X204387500Y-78320000D01*
G75*
G02*
X204137500Y-78070000I0J250000D01*
G01*
G37*
D20*
X207527500Y-77470000D03*
X204987500Y-74930000D03*
X207527500Y-74930000D03*
X204987500Y-72390000D03*
X207527500Y-72390000D03*
X204987500Y-69850000D03*
X207527500Y-69850000D03*
X204987500Y-67310000D03*
X207527500Y-67310000D03*
D16*
X68580000Y-93472000D03*
D17*
X78740000Y-93472000D03*
G36*
G01*
X163985000Y-89880000D02*
X163985000Y-90780000D01*
G75*
G02*
X163735000Y-91030000I-250000J0D01*
G01*
X163210000Y-91030000D01*
G75*
G02*
X162960000Y-90780000I0J250000D01*
G01*
X162960000Y-89880000D01*
G75*
G02*
X163210000Y-89630000I250000J0D01*
G01*
X163735000Y-89630000D01*
G75*
G02*
X163985000Y-89880000I0J-250000D01*
G01*
G37*
G36*
G01*
X162160000Y-89880000D02*
X162160000Y-90780000D01*
G75*
G02*
X161910000Y-91030000I-250000J0D01*
G01*
X161385000Y-91030000D01*
G75*
G02*
X161135000Y-90780000I0J250000D01*
G01*
X161135000Y-89880000D01*
G75*
G02*
X161385000Y-89630000I250000J0D01*
G01*
X161910000Y-89630000D01*
G75*
G02*
X162160000Y-89880000I0J-250000D01*
G01*
G37*
G36*
G01*
X174826000Y-110711000D02*
X174826000Y-109761000D01*
G75*
G02*
X175076000Y-109511000I250000J0D01*
G01*
X175576000Y-109511000D01*
G75*
G02*
X175826000Y-109761000I0J-250000D01*
G01*
X175826000Y-110711000D01*
G75*
G02*
X175576000Y-110961000I-250000J0D01*
G01*
X175076000Y-110961000D01*
G75*
G02*
X174826000Y-110711000I0J250000D01*
G01*
G37*
G36*
G01*
X176726000Y-110711000D02*
X176726000Y-109761000D01*
G75*
G02*
X176976000Y-109511000I250000J0D01*
G01*
X177476000Y-109511000D01*
G75*
G02*
X177726000Y-109761000I0J-250000D01*
G01*
X177726000Y-110711000D01*
G75*
G02*
X177476000Y-110961000I-250000J0D01*
G01*
X176976000Y-110961000D01*
G75*
G02*
X176726000Y-110711000I0J250000D01*
G01*
G37*
G36*
G01*
X99240000Y-64295000D02*
X99240000Y-65245000D01*
G75*
G02*
X98990000Y-65495000I-250000J0D01*
G01*
X98490000Y-65495000D01*
G75*
G02*
X98240000Y-65245000I0J250000D01*
G01*
X98240000Y-64295000D01*
G75*
G02*
X98490000Y-64045000I250000J0D01*
G01*
X98990000Y-64045000D01*
G75*
G02*
X99240000Y-64295000I0J-250000D01*
G01*
G37*
G36*
G01*
X97340000Y-64295000D02*
X97340000Y-65245000D01*
G75*
G02*
X97090000Y-65495000I-250000J0D01*
G01*
X96590000Y-65495000D01*
G75*
G02*
X96340000Y-65245000I0J250000D01*
G01*
X96340000Y-64295000D01*
G75*
G02*
X96590000Y-64045000I250000J0D01*
G01*
X97090000Y-64045000D01*
G75*
G02*
X97340000Y-64295000I0J-250000D01*
G01*
G37*
G36*
G01*
X99240000Y-103665000D02*
X99240000Y-104615000D01*
G75*
G02*
X98990000Y-104865000I-250000J0D01*
G01*
X98490000Y-104865000D01*
G75*
G02*
X98240000Y-104615000I0J250000D01*
G01*
X98240000Y-103665000D01*
G75*
G02*
X98490000Y-103415000I250000J0D01*
G01*
X98990000Y-103415000D01*
G75*
G02*
X99240000Y-103665000I0J-250000D01*
G01*
G37*
G36*
G01*
X97340000Y-103665000D02*
X97340000Y-104615000D01*
G75*
G02*
X97090000Y-104865000I-250000J0D01*
G01*
X96590000Y-104865000D01*
G75*
G02*
X96340000Y-104615000I0J250000D01*
G01*
X96340000Y-103665000D01*
G75*
G02*
X96590000Y-103415000I250000J0D01*
G01*
X97090000Y-103415000D01*
G75*
G02*
X97340000Y-103665000I0J-250000D01*
G01*
G37*
G36*
G01*
X166648000Y-126111250D02*
X166648000Y-125348750D01*
G75*
G02*
X166866750Y-125130000I218750J0D01*
G01*
X167304250Y-125130000D01*
G75*
G02*
X167523000Y-125348750I0J-218750D01*
G01*
X167523000Y-126111250D01*
G75*
G02*
X167304250Y-126330000I-218750J0D01*
G01*
X166866750Y-126330000D01*
G75*
G02*
X166648000Y-126111250I0J218750D01*
G01*
G37*
G36*
G01*
X168773000Y-126111250D02*
X168773000Y-125348750D01*
G75*
G02*
X168991750Y-125130000I218750J0D01*
G01*
X169429250Y-125130000D01*
G75*
G02*
X169648000Y-125348750I0J-218750D01*
G01*
X169648000Y-126111250D01*
G75*
G02*
X169429250Y-126330000I-218750J0D01*
G01*
X168991750Y-126330000D01*
G75*
G02*
X168773000Y-126111250I0J218750D01*
G01*
G37*
G36*
G01*
X169344000Y-95697000D02*
X169344000Y-96647000D01*
G75*
G02*
X169094000Y-96897000I-250000J0D01*
G01*
X168594000Y-96897000D01*
G75*
G02*
X168344000Y-96647000I0J250000D01*
G01*
X168344000Y-95697000D01*
G75*
G02*
X168594000Y-95447000I250000J0D01*
G01*
X169094000Y-95447000D01*
G75*
G02*
X169344000Y-95697000I0J-250000D01*
G01*
G37*
G36*
G01*
X167444000Y-95697000D02*
X167444000Y-96647000D01*
G75*
G02*
X167194000Y-96897000I-250000J0D01*
G01*
X166694000Y-96897000D01*
G75*
G02*
X166444000Y-96647000I0J250000D01*
G01*
X166444000Y-95697000D01*
G75*
G02*
X166694000Y-95447000I250000J0D01*
G01*
X167194000Y-95447000D01*
G75*
G02*
X167444000Y-95697000I0J-250000D01*
G01*
G37*
D21*
X135890000Y-64770000D03*
G36*
G01*
X133170000Y-95725000D02*
X133170000Y-94775000D01*
G75*
G02*
X133420000Y-94525000I250000J0D01*
G01*
X133920000Y-94525000D01*
G75*
G02*
X134170000Y-94775000I0J-250000D01*
G01*
X134170000Y-95725000D01*
G75*
G02*
X133920000Y-95975000I-250000J0D01*
G01*
X133420000Y-95975000D01*
G75*
G02*
X133170000Y-95725000I0J250000D01*
G01*
G37*
G36*
G01*
X135070000Y-95725000D02*
X135070000Y-94775000D01*
G75*
G02*
X135320000Y-94525000I250000J0D01*
G01*
X135820000Y-94525000D01*
G75*
G02*
X136070000Y-94775000I0J-250000D01*
G01*
X136070000Y-95725000D01*
G75*
G02*
X135820000Y-95975000I-250000J0D01*
G01*
X135320000Y-95975000D01*
G75*
G02*
X135070000Y-95725000I0J250000D01*
G01*
G37*
G36*
G01*
X159598000Y-117127000D02*
X159598000Y-118077000D01*
G75*
G02*
X159348000Y-118327000I-250000J0D01*
G01*
X158848000Y-118327000D01*
G75*
G02*
X158598000Y-118077000I0J250000D01*
G01*
X158598000Y-117127000D01*
G75*
G02*
X158848000Y-116877000I250000J0D01*
G01*
X159348000Y-116877000D01*
G75*
G02*
X159598000Y-117127000I0J-250000D01*
G01*
G37*
G36*
G01*
X157698000Y-117127000D02*
X157698000Y-118077000D01*
G75*
G02*
X157448000Y-118327000I-250000J0D01*
G01*
X156948000Y-118327000D01*
G75*
G02*
X156698000Y-118077000I0J250000D01*
G01*
X156698000Y-117127000D01*
G75*
G02*
X156948000Y-116877000I250000J0D01*
G01*
X157448000Y-116877000D01*
G75*
G02*
X157698000Y-117127000I0J-250000D01*
G01*
G37*
G36*
G01*
X180125000Y-78070000D02*
X180125000Y-76870000D01*
G75*
G02*
X180375000Y-76620000I250000J0D01*
G01*
X181575000Y-76620000D01*
G75*
G02*
X181825000Y-76870000I0J-250000D01*
G01*
X181825000Y-78070000D01*
G75*
G02*
X181575000Y-78320000I-250000J0D01*
G01*
X180375000Y-78320000D01*
G75*
G02*
X180125000Y-78070000I0J250000D01*
G01*
G37*
D20*
X183515000Y-77470000D03*
X180975000Y-74930000D03*
X183515000Y-74930000D03*
X180975000Y-72390000D03*
X183515000Y-72390000D03*
X180975000Y-69850000D03*
X183515000Y-69850000D03*
X180975000Y-67310000D03*
X183515000Y-67310000D03*
G36*
G01*
X166698000Y-123665000D02*
X166698000Y-122715000D01*
G75*
G02*
X166948000Y-122465000I250000J0D01*
G01*
X167448000Y-122465000D01*
G75*
G02*
X167698000Y-122715000I0J-250000D01*
G01*
X167698000Y-123665000D01*
G75*
G02*
X167448000Y-123915000I-250000J0D01*
G01*
X166948000Y-123915000D01*
G75*
G02*
X166698000Y-123665000I0J250000D01*
G01*
G37*
G36*
G01*
X168598000Y-123665000D02*
X168598000Y-122715000D01*
G75*
G02*
X168848000Y-122465000I250000J0D01*
G01*
X169348000Y-122465000D01*
G75*
G02*
X169598000Y-122715000I0J-250000D01*
G01*
X169598000Y-123665000D01*
G75*
G02*
X169348000Y-123915000I-250000J0D01*
G01*
X168848000Y-123915000D01*
G75*
G02*
X168598000Y-123665000I0J250000D01*
G01*
G37*
G36*
G01*
X159692000Y-122207000D02*
X159692000Y-123157000D01*
G75*
G02*
X159442000Y-123407000I-250000J0D01*
G01*
X158942000Y-123407000D01*
G75*
G02*
X158692000Y-123157000I0J250000D01*
G01*
X158692000Y-122207000D01*
G75*
G02*
X158942000Y-121957000I250000J0D01*
G01*
X159442000Y-121957000D01*
G75*
G02*
X159692000Y-122207000I0J-250000D01*
G01*
G37*
G36*
G01*
X157792000Y-122207000D02*
X157792000Y-123157000D01*
G75*
G02*
X157542000Y-123407000I-250000J0D01*
G01*
X157042000Y-123407000D01*
G75*
G02*
X156792000Y-123157000I0J250000D01*
G01*
X156792000Y-122207000D01*
G75*
G02*
X157042000Y-121957000I250000J0D01*
G01*
X157542000Y-121957000D01*
G75*
G02*
X157792000Y-122207000I0J-250000D01*
G01*
G37*
D22*
X119780000Y-78740000D03*
D23*
X103980000Y-81280000D03*
D24*
X103980000Y-78740000D03*
X103980000Y-76200000D03*
D21*
X159512000Y-64770000D03*
G36*
G01*
X116685000Y-64966000D02*
X116685000Y-64066000D01*
G75*
G02*
X116935000Y-63816000I250000J0D01*
G01*
X117460000Y-63816000D01*
G75*
G02*
X117710000Y-64066000I0J-250000D01*
G01*
X117710000Y-64966000D01*
G75*
G02*
X117460000Y-65216000I-250000J0D01*
G01*
X116935000Y-65216000D01*
G75*
G02*
X116685000Y-64966000I0J250000D01*
G01*
G37*
G36*
G01*
X118510000Y-64966000D02*
X118510000Y-64066000D01*
G75*
G02*
X118760000Y-63816000I250000J0D01*
G01*
X119285000Y-63816000D01*
G75*
G02*
X119535000Y-64066000I0J-250000D01*
G01*
X119535000Y-64966000D01*
G75*
G02*
X119285000Y-65216000I-250000J0D01*
G01*
X118760000Y-65216000D01*
G75*
G02*
X118510000Y-64966000I0J250000D01*
G01*
G37*
D16*
X68580000Y-83185000D03*
D17*
X78740000Y-83185000D03*
G36*
G01*
X159598000Y-114587000D02*
X159598000Y-115537000D01*
G75*
G02*
X159348000Y-115787000I-250000J0D01*
G01*
X158848000Y-115787000D01*
G75*
G02*
X158598000Y-115537000I0J250000D01*
G01*
X158598000Y-114587000D01*
G75*
G02*
X158848000Y-114337000I250000J0D01*
G01*
X159348000Y-114337000D01*
G75*
G02*
X159598000Y-114587000I0J-250000D01*
G01*
G37*
G36*
G01*
X157698000Y-114587000D02*
X157698000Y-115537000D01*
G75*
G02*
X157448000Y-115787000I-250000J0D01*
G01*
X156948000Y-115787000D01*
G75*
G02*
X156698000Y-115537000I0J250000D01*
G01*
X156698000Y-114587000D01*
G75*
G02*
X156948000Y-114337000I250000J0D01*
G01*
X157448000Y-114337000D01*
G75*
G02*
X157698000Y-114587000I0J-250000D01*
G01*
G37*
G36*
G01*
X133170000Y-75405000D02*
X133170000Y-74455000D01*
G75*
G02*
X133420000Y-74205000I250000J0D01*
G01*
X133920000Y-74205000D01*
G75*
G02*
X134170000Y-74455000I0J-250000D01*
G01*
X134170000Y-75405000D01*
G75*
G02*
X133920000Y-75655000I-250000J0D01*
G01*
X133420000Y-75655000D01*
G75*
G02*
X133170000Y-75405000I0J250000D01*
G01*
G37*
G36*
G01*
X135070000Y-75405000D02*
X135070000Y-74455000D01*
G75*
G02*
X135320000Y-74205000I250000J0D01*
G01*
X135820000Y-74205000D01*
G75*
G02*
X136070000Y-74455000I0J-250000D01*
G01*
X136070000Y-75405000D01*
G75*
G02*
X135820000Y-75655000I-250000J0D01*
G01*
X135320000Y-75655000D01*
G75*
G02*
X135070000Y-75405000I0J250000D01*
G01*
G37*
G36*
G01*
X174826000Y-118331000D02*
X174826000Y-117381000D01*
G75*
G02*
X175076000Y-117131000I250000J0D01*
G01*
X175576000Y-117131000D01*
G75*
G02*
X175826000Y-117381000I0J-250000D01*
G01*
X175826000Y-118331000D01*
G75*
G02*
X175576000Y-118581000I-250000J0D01*
G01*
X175076000Y-118581000D01*
G75*
G02*
X174826000Y-118331000I0J250000D01*
G01*
G37*
G36*
G01*
X176726000Y-118331000D02*
X176726000Y-117381000D01*
G75*
G02*
X176976000Y-117131000I250000J0D01*
G01*
X177476000Y-117131000D01*
G75*
G02*
X177726000Y-117381000I0J-250000D01*
G01*
X177726000Y-118331000D01*
G75*
G02*
X177476000Y-118581000I-250000J0D01*
G01*
X176976000Y-118581000D01*
G75*
G02*
X176726000Y-118331000I0J250000D01*
G01*
G37*
G36*
G01*
X174826000Y-108171000D02*
X174826000Y-107221000D01*
G75*
G02*
X175076000Y-106971000I250000J0D01*
G01*
X175576000Y-106971000D01*
G75*
G02*
X175826000Y-107221000I0J-250000D01*
G01*
X175826000Y-108171000D01*
G75*
G02*
X175576000Y-108421000I-250000J0D01*
G01*
X175076000Y-108421000D01*
G75*
G02*
X174826000Y-108171000I0J250000D01*
G01*
G37*
G36*
G01*
X176726000Y-108171000D02*
X176726000Y-107221000D01*
G75*
G02*
X176976000Y-106971000I250000J0D01*
G01*
X177476000Y-106971000D01*
G75*
G02*
X177726000Y-107221000I0J-250000D01*
G01*
X177726000Y-108171000D01*
G75*
G02*
X177476000Y-108421000I-250000J0D01*
G01*
X176976000Y-108421000D01*
G75*
G02*
X176726000Y-108171000I0J250000D01*
G01*
G37*
G36*
G01*
X177701000Y-114866000D02*
X177701000Y-115766000D01*
G75*
G02*
X177451000Y-116016000I-250000J0D01*
G01*
X176926000Y-116016000D01*
G75*
G02*
X176676000Y-115766000I0J250000D01*
G01*
X176676000Y-114866000D01*
G75*
G02*
X176926000Y-114616000I250000J0D01*
G01*
X177451000Y-114616000D01*
G75*
G02*
X177701000Y-114866000I0J-250000D01*
G01*
G37*
G36*
G01*
X175876000Y-114866000D02*
X175876000Y-115766000D01*
G75*
G02*
X175626000Y-116016000I-250000J0D01*
G01*
X175101000Y-116016000D01*
G75*
G02*
X174851000Y-115766000I0J250000D01*
G01*
X174851000Y-114866000D01*
G75*
G02*
X175101000Y-114616000I250000J0D01*
G01*
X175626000Y-114616000D01*
G75*
G02*
X175876000Y-114866000I0J-250000D01*
G01*
G37*
G36*
G01*
X178463000Y-92674000D02*
X178463000Y-93574000D01*
G75*
G02*
X178213000Y-93824000I-250000J0D01*
G01*
X177688000Y-93824000D01*
G75*
G02*
X177438000Y-93574000I0J250000D01*
G01*
X177438000Y-92674000D01*
G75*
G02*
X177688000Y-92424000I250000J0D01*
G01*
X178213000Y-92424000D01*
G75*
G02*
X178463000Y-92674000I0J-250000D01*
G01*
G37*
G36*
G01*
X176638000Y-92674000D02*
X176638000Y-93574000D01*
G75*
G02*
X176388000Y-93824000I-250000J0D01*
G01*
X175863000Y-93824000D01*
G75*
G02*
X175613000Y-93574000I0J250000D01*
G01*
X175613000Y-92674000D01*
G75*
G02*
X175863000Y-92424000I250000J0D01*
G01*
X176388000Y-92424000D01*
G75*
G02*
X176638000Y-92674000I0J-250000D01*
G01*
G37*
G36*
G01*
X169208000Y-112291000D02*
X169208000Y-112491000D01*
G75*
G02*
X169108000Y-112591000I-100000J0D01*
G01*
X167833000Y-112591000D01*
G75*
G02*
X167733000Y-112491000I0J100000D01*
G01*
X167733000Y-112291000D01*
G75*
G02*
X167833000Y-112191000I100000J0D01*
G01*
X169108000Y-112191000D01*
G75*
G02*
X169208000Y-112291000I0J-100000D01*
G01*
G37*
G36*
G01*
X169208000Y-112941000D02*
X169208000Y-113141000D01*
G75*
G02*
X169108000Y-113241000I-100000J0D01*
G01*
X167833000Y-113241000D01*
G75*
G02*
X167733000Y-113141000I0J100000D01*
G01*
X167733000Y-112941000D01*
G75*
G02*
X167833000Y-112841000I100000J0D01*
G01*
X169108000Y-112841000D01*
G75*
G02*
X169208000Y-112941000I0J-100000D01*
G01*
G37*
G36*
G01*
X169208000Y-113591000D02*
X169208000Y-113791000D01*
G75*
G02*
X169108000Y-113891000I-100000J0D01*
G01*
X167833000Y-113891000D01*
G75*
G02*
X167733000Y-113791000I0J100000D01*
G01*
X167733000Y-113591000D01*
G75*
G02*
X167833000Y-113491000I100000J0D01*
G01*
X169108000Y-113491000D01*
G75*
G02*
X169208000Y-113591000I0J-100000D01*
G01*
G37*
G36*
G01*
X169208000Y-114241000D02*
X169208000Y-114441000D01*
G75*
G02*
X169108000Y-114541000I-100000J0D01*
G01*
X167833000Y-114541000D01*
G75*
G02*
X167733000Y-114441000I0J100000D01*
G01*
X167733000Y-114241000D01*
G75*
G02*
X167833000Y-114141000I100000J0D01*
G01*
X169108000Y-114141000D01*
G75*
G02*
X169208000Y-114241000I0J-100000D01*
G01*
G37*
G36*
G01*
X169208000Y-114891000D02*
X169208000Y-115091000D01*
G75*
G02*
X169108000Y-115191000I-100000J0D01*
G01*
X167833000Y-115191000D01*
G75*
G02*
X167733000Y-115091000I0J100000D01*
G01*
X167733000Y-114891000D01*
G75*
G02*
X167833000Y-114791000I100000J0D01*
G01*
X169108000Y-114791000D01*
G75*
G02*
X169208000Y-114891000I0J-100000D01*
G01*
G37*
G36*
G01*
X169208000Y-115541000D02*
X169208000Y-115741000D01*
G75*
G02*
X169108000Y-115841000I-100000J0D01*
G01*
X167833000Y-115841000D01*
G75*
G02*
X167733000Y-115741000I0J100000D01*
G01*
X167733000Y-115541000D01*
G75*
G02*
X167833000Y-115441000I100000J0D01*
G01*
X169108000Y-115441000D01*
G75*
G02*
X169208000Y-115541000I0J-100000D01*
G01*
G37*
G36*
G01*
X169208000Y-116191000D02*
X169208000Y-116391000D01*
G75*
G02*
X169108000Y-116491000I-100000J0D01*
G01*
X167833000Y-116491000D01*
G75*
G02*
X167733000Y-116391000I0J100000D01*
G01*
X167733000Y-116191000D01*
G75*
G02*
X167833000Y-116091000I100000J0D01*
G01*
X169108000Y-116091000D01*
G75*
G02*
X169208000Y-116191000I0J-100000D01*
G01*
G37*
G36*
G01*
X169208000Y-116841000D02*
X169208000Y-117041000D01*
G75*
G02*
X169108000Y-117141000I-100000J0D01*
G01*
X167833000Y-117141000D01*
G75*
G02*
X167733000Y-117041000I0J100000D01*
G01*
X167733000Y-116841000D01*
G75*
G02*
X167833000Y-116741000I100000J0D01*
G01*
X169108000Y-116741000D01*
G75*
G02*
X169208000Y-116841000I0J-100000D01*
G01*
G37*
G36*
G01*
X169208000Y-117491000D02*
X169208000Y-117691000D01*
G75*
G02*
X169108000Y-117791000I-100000J0D01*
G01*
X167833000Y-117791000D01*
G75*
G02*
X167733000Y-117691000I0J100000D01*
G01*
X167733000Y-117491000D01*
G75*
G02*
X167833000Y-117391000I100000J0D01*
G01*
X169108000Y-117391000D01*
G75*
G02*
X169208000Y-117491000I0J-100000D01*
G01*
G37*
G36*
G01*
X169208000Y-118141000D02*
X169208000Y-118341000D01*
G75*
G02*
X169108000Y-118441000I-100000J0D01*
G01*
X167833000Y-118441000D01*
G75*
G02*
X167733000Y-118341000I0J100000D01*
G01*
X167733000Y-118141000D01*
G75*
G02*
X167833000Y-118041000I100000J0D01*
G01*
X169108000Y-118041000D01*
G75*
G02*
X169208000Y-118141000I0J-100000D01*
G01*
G37*
G36*
G01*
X163483000Y-118141000D02*
X163483000Y-118341000D01*
G75*
G02*
X163383000Y-118441000I-100000J0D01*
G01*
X162108000Y-118441000D01*
G75*
G02*
X162008000Y-118341000I0J100000D01*
G01*
X162008000Y-118141000D01*
G75*
G02*
X162108000Y-118041000I100000J0D01*
G01*
X163383000Y-118041000D01*
G75*
G02*
X163483000Y-118141000I0J-100000D01*
G01*
G37*
G36*
G01*
X163483000Y-117491000D02*
X163483000Y-117691000D01*
G75*
G02*
X163383000Y-117791000I-100000J0D01*
G01*
X162108000Y-117791000D01*
G75*
G02*
X162008000Y-117691000I0J100000D01*
G01*
X162008000Y-117491000D01*
G75*
G02*
X162108000Y-117391000I100000J0D01*
G01*
X163383000Y-117391000D01*
G75*
G02*
X163483000Y-117491000I0J-100000D01*
G01*
G37*
G36*
G01*
X163483000Y-116841000D02*
X163483000Y-117041000D01*
G75*
G02*
X163383000Y-117141000I-100000J0D01*
G01*
X162108000Y-117141000D01*
G75*
G02*
X162008000Y-117041000I0J100000D01*
G01*
X162008000Y-116841000D01*
G75*
G02*
X162108000Y-116741000I100000J0D01*
G01*
X163383000Y-116741000D01*
G75*
G02*
X163483000Y-116841000I0J-100000D01*
G01*
G37*
G36*
G01*
X163483000Y-116191000D02*
X163483000Y-116391000D01*
G75*
G02*
X163383000Y-116491000I-100000J0D01*
G01*
X162108000Y-116491000D01*
G75*
G02*
X162008000Y-116391000I0J100000D01*
G01*
X162008000Y-116191000D01*
G75*
G02*
X162108000Y-116091000I100000J0D01*
G01*
X163383000Y-116091000D01*
G75*
G02*
X163483000Y-116191000I0J-100000D01*
G01*
G37*
G36*
G01*
X163483000Y-115541000D02*
X163483000Y-115741000D01*
G75*
G02*
X163383000Y-115841000I-100000J0D01*
G01*
X162108000Y-115841000D01*
G75*
G02*
X162008000Y-115741000I0J100000D01*
G01*
X162008000Y-115541000D01*
G75*
G02*
X162108000Y-115441000I100000J0D01*
G01*
X163383000Y-115441000D01*
G75*
G02*
X163483000Y-115541000I0J-100000D01*
G01*
G37*
G36*
G01*
X163483000Y-114891000D02*
X163483000Y-115091000D01*
G75*
G02*
X163383000Y-115191000I-100000J0D01*
G01*
X162108000Y-115191000D01*
G75*
G02*
X162008000Y-115091000I0J100000D01*
G01*
X162008000Y-114891000D01*
G75*
G02*
X162108000Y-114791000I100000J0D01*
G01*
X163383000Y-114791000D01*
G75*
G02*
X163483000Y-114891000I0J-100000D01*
G01*
G37*
G36*
G01*
X163483000Y-114241000D02*
X163483000Y-114441000D01*
G75*
G02*
X163383000Y-114541000I-100000J0D01*
G01*
X162108000Y-114541000D01*
G75*
G02*
X162008000Y-114441000I0J100000D01*
G01*
X162008000Y-114241000D01*
G75*
G02*
X162108000Y-114141000I100000J0D01*
G01*
X163383000Y-114141000D01*
G75*
G02*
X163483000Y-114241000I0J-100000D01*
G01*
G37*
G36*
G01*
X163483000Y-113591000D02*
X163483000Y-113791000D01*
G75*
G02*
X163383000Y-113891000I-100000J0D01*
G01*
X162108000Y-113891000D01*
G75*
G02*
X162008000Y-113791000I0J100000D01*
G01*
X162008000Y-113591000D01*
G75*
G02*
X162108000Y-113491000I100000J0D01*
G01*
X163383000Y-113491000D01*
G75*
G02*
X163483000Y-113591000I0J-100000D01*
G01*
G37*
G36*
G01*
X163483000Y-112941000D02*
X163483000Y-113141000D01*
G75*
G02*
X163383000Y-113241000I-100000J0D01*
G01*
X162108000Y-113241000D01*
G75*
G02*
X162008000Y-113141000I0J100000D01*
G01*
X162008000Y-112941000D01*
G75*
G02*
X162108000Y-112841000I100000J0D01*
G01*
X163383000Y-112841000D01*
G75*
G02*
X163483000Y-112941000I0J-100000D01*
G01*
G37*
G36*
G01*
X163483000Y-112291000D02*
X163483000Y-112491000D01*
G75*
G02*
X163383000Y-112591000I-100000J0D01*
G01*
X162108000Y-112591000D01*
G75*
G02*
X162008000Y-112491000I0J100000D01*
G01*
X162008000Y-112291000D01*
G75*
G02*
X162108000Y-112191000I100000J0D01*
G01*
X163383000Y-112191000D01*
G75*
G02*
X163483000Y-112291000I0J-100000D01*
G01*
G37*
D18*
X140931500Y-127508000D03*
D19*
X143431500Y-127508000D03*
G36*
G01*
X173315000Y-88783000D02*
X173315000Y-89083000D01*
G75*
G02*
X173165000Y-89233000I-150000J0D01*
G01*
X171515000Y-89233000D01*
G75*
G02*
X171365000Y-89083000I0J150000D01*
G01*
X171365000Y-88783000D01*
G75*
G02*
X171515000Y-88633000I150000J0D01*
G01*
X173165000Y-88633000D01*
G75*
G02*
X173315000Y-88783000I0J-150000D01*
G01*
G37*
G36*
G01*
X173315000Y-90053000D02*
X173315000Y-90353000D01*
G75*
G02*
X173165000Y-90503000I-150000J0D01*
G01*
X171515000Y-90503000D01*
G75*
G02*
X171365000Y-90353000I0J150000D01*
G01*
X171365000Y-90053000D01*
G75*
G02*
X171515000Y-89903000I150000J0D01*
G01*
X173165000Y-89903000D01*
G75*
G02*
X173315000Y-90053000I0J-150000D01*
G01*
G37*
G36*
G01*
X173315000Y-91323000D02*
X173315000Y-91623000D01*
G75*
G02*
X173165000Y-91773000I-150000J0D01*
G01*
X171515000Y-91773000D01*
G75*
G02*
X171365000Y-91623000I0J150000D01*
G01*
X171365000Y-91323000D01*
G75*
G02*
X171515000Y-91173000I150000J0D01*
G01*
X173165000Y-91173000D01*
G75*
G02*
X173315000Y-91323000I0J-150000D01*
G01*
G37*
G36*
G01*
X173315000Y-92593000D02*
X173315000Y-92893000D01*
G75*
G02*
X173165000Y-93043000I-150000J0D01*
G01*
X171515000Y-93043000D01*
G75*
G02*
X171365000Y-92893000I0J150000D01*
G01*
X171365000Y-92593000D01*
G75*
G02*
X171515000Y-92443000I150000J0D01*
G01*
X173165000Y-92443000D01*
G75*
G02*
X173315000Y-92593000I0J-150000D01*
G01*
G37*
G36*
G01*
X168365000Y-92593000D02*
X168365000Y-92893000D01*
G75*
G02*
X168215000Y-93043000I-150000J0D01*
G01*
X166565000Y-93043000D01*
G75*
G02*
X166415000Y-92893000I0J150000D01*
G01*
X166415000Y-92593000D01*
G75*
G02*
X166565000Y-92443000I150000J0D01*
G01*
X168215000Y-92443000D01*
G75*
G02*
X168365000Y-92593000I0J-150000D01*
G01*
G37*
G36*
G01*
X168365000Y-91323000D02*
X168365000Y-91623000D01*
G75*
G02*
X168215000Y-91773000I-150000J0D01*
G01*
X166565000Y-91773000D01*
G75*
G02*
X166415000Y-91623000I0J150000D01*
G01*
X166415000Y-91323000D01*
G75*
G02*
X166565000Y-91173000I150000J0D01*
G01*
X168215000Y-91173000D01*
G75*
G02*
X168365000Y-91323000I0J-150000D01*
G01*
G37*
G36*
G01*
X168365000Y-90053000D02*
X168365000Y-90353000D01*
G75*
G02*
X168215000Y-90503000I-150000J0D01*
G01*
X166565000Y-90503000D01*
G75*
G02*
X166415000Y-90353000I0J150000D01*
G01*
X166415000Y-90053000D01*
G75*
G02*
X166565000Y-89903000I150000J0D01*
G01*
X168215000Y-89903000D01*
G75*
G02*
X168365000Y-90053000I0J-150000D01*
G01*
G37*
G36*
G01*
X168365000Y-88783000D02*
X168365000Y-89083000D01*
G75*
G02*
X168215000Y-89233000I-150000J0D01*
G01*
X166565000Y-89233000D01*
G75*
G02*
X166415000Y-89083000I0J150000D01*
G01*
X166415000Y-88783000D01*
G75*
G02*
X166565000Y-88633000I150000J0D01*
G01*
X168215000Y-88633000D01*
G75*
G02*
X168365000Y-88783000I0J-150000D01*
G01*
G37*
D22*
X119780000Y-91440000D03*
D23*
X103980000Y-93980000D03*
D24*
X103980000Y-91440000D03*
X103980000Y-88900000D03*
G36*
G01*
X166698000Y-121125000D02*
X166698000Y-120175000D01*
G75*
G02*
X166948000Y-119925000I250000J0D01*
G01*
X167448000Y-119925000D01*
G75*
G02*
X167698000Y-120175000I0J-250000D01*
G01*
X167698000Y-121125000D01*
G75*
G02*
X167448000Y-121375000I-250000J0D01*
G01*
X166948000Y-121375000D01*
G75*
G02*
X166698000Y-121125000I0J250000D01*
G01*
G37*
G36*
G01*
X168598000Y-121125000D02*
X168598000Y-120175000D01*
G75*
G02*
X168848000Y-119925000I250000J0D01*
G01*
X169348000Y-119925000D01*
G75*
G02*
X169598000Y-120175000I0J-250000D01*
G01*
X169598000Y-121125000D01*
G75*
G02*
X169348000Y-121375000I-250000J0D01*
G01*
X168848000Y-121375000D01*
G75*
G02*
X168598000Y-121125000I0J250000D01*
G01*
G37*
G36*
G01*
X168060000Y-78070000D02*
X168060000Y-76870000D01*
G75*
G02*
X168310000Y-76620000I250000J0D01*
G01*
X169510000Y-76620000D01*
G75*
G02*
X169760000Y-76870000I0J-250000D01*
G01*
X169760000Y-78070000D01*
G75*
G02*
X169510000Y-78320000I-250000J0D01*
G01*
X168310000Y-78320000D01*
G75*
G02*
X168060000Y-78070000I0J250000D01*
G01*
G37*
D20*
X171450000Y-77470000D03*
X168910000Y-74930000D03*
X171450000Y-74930000D03*
X168910000Y-72390000D03*
X171450000Y-72390000D03*
X168910000Y-69850000D03*
X171450000Y-69850000D03*
X168910000Y-67310000D03*
X171450000Y-67310000D03*
D25*
X148590000Y-111506000D03*
D26*
X148590000Y-114046000D03*
X148590000Y-116586000D03*
X148590000Y-119126000D03*
D16*
X113030000Y-68580000D03*
D17*
X123190000Y-68580000D03*
D21*
X135890000Y-104140000D03*
G36*
G01*
X164010000Y-98237000D02*
X164010000Y-99187000D01*
G75*
G02*
X163760000Y-99437000I-250000J0D01*
G01*
X163260000Y-99437000D01*
G75*
G02*
X163010000Y-99187000I0J250000D01*
G01*
X163010000Y-98237000D01*
G75*
G02*
X163260000Y-97987000I250000J0D01*
G01*
X163760000Y-97987000D01*
G75*
G02*
X164010000Y-98237000I0J-250000D01*
G01*
G37*
G36*
G01*
X162110000Y-98237000D02*
X162110000Y-99187000D01*
G75*
G02*
X161860000Y-99437000I-250000J0D01*
G01*
X161360000Y-99437000D01*
G75*
G02*
X161110000Y-99187000I0J250000D01*
G01*
X161110000Y-98237000D01*
G75*
G02*
X161360000Y-97987000I250000J0D01*
G01*
X161860000Y-97987000D01*
G75*
G02*
X162110000Y-98237000I0J-250000D01*
G01*
G37*
D27*
X89020000Y-74930000D03*
D28*
X96520000Y-74930000D03*
G36*
G01*
X138161500Y-123317250D02*
X138161500Y-122554750D01*
G75*
G02*
X138380250Y-122336000I218750J0D01*
G01*
X138817750Y-122336000D01*
G75*
G02*
X139036500Y-122554750I0J-218750D01*
G01*
X139036500Y-123317250D01*
G75*
G02*
X138817750Y-123536000I-218750J0D01*
G01*
X138380250Y-123536000D01*
G75*
G02*
X138161500Y-123317250I0J218750D01*
G01*
G37*
G36*
G01*
X140286500Y-123317250D02*
X140286500Y-122554750D01*
G75*
G02*
X140505250Y-122336000I218750J0D01*
G01*
X140942750Y-122336000D01*
G75*
G02*
X141161500Y-122554750I0J-218750D01*
G01*
X141161500Y-123317250D01*
G75*
G02*
X140942750Y-123536000I-218750J0D01*
G01*
X140505250Y-123536000D01*
G75*
G02*
X140286500Y-123317250I0J218750D01*
G01*
G37*
G36*
G01*
X174851000Y-123386000D02*
X174851000Y-122486000D01*
G75*
G02*
X175101000Y-122236000I250000J0D01*
G01*
X175626000Y-122236000D01*
G75*
G02*
X175876000Y-122486000I0J-250000D01*
G01*
X175876000Y-123386000D01*
G75*
G02*
X175626000Y-123636000I-250000J0D01*
G01*
X175101000Y-123636000D01*
G75*
G02*
X174851000Y-123386000I0J250000D01*
G01*
G37*
G36*
G01*
X176676000Y-123386000D02*
X176676000Y-122486000D01*
G75*
G02*
X176926000Y-122236000I250000J0D01*
G01*
X177451000Y-122236000D01*
G75*
G02*
X177701000Y-122486000I0J-250000D01*
G01*
X177701000Y-123386000D01*
G75*
G02*
X177451000Y-123636000I-250000J0D01*
G01*
X176926000Y-123636000D01*
G75*
G02*
X176676000Y-123386000I0J250000D01*
G01*
G37*
G36*
G01*
X163985000Y-95468000D02*
X163985000Y-96368000D01*
G75*
G02*
X163735000Y-96618000I-250000J0D01*
G01*
X163210000Y-96618000D01*
G75*
G02*
X162960000Y-96368000I0J250000D01*
G01*
X162960000Y-95468000D01*
G75*
G02*
X163210000Y-95218000I250000J0D01*
G01*
X163735000Y-95218000D01*
G75*
G02*
X163985000Y-95468000I0J-250000D01*
G01*
G37*
G36*
G01*
X162160000Y-95468000D02*
X162160000Y-96368000D01*
G75*
G02*
X161910000Y-96618000I-250000J0D01*
G01*
X161385000Y-96618000D01*
G75*
G02*
X161135000Y-96368000I0J250000D01*
G01*
X161135000Y-95468000D01*
G75*
G02*
X161385000Y-95218000I250000J0D01*
G01*
X161910000Y-95218000D01*
G75*
G02*
X162160000Y-95468000I0J-250000D01*
G01*
G37*
D21*
X155194000Y-129032000D03*
D18*
X132120000Y-81280000D03*
D19*
X134620000Y-81280000D03*
G36*
G01*
X175613000Y-90780000D02*
X175613000Y-89880000D01*
G75*
G02*
X175863000Y-89630000I250000J0D01*
G01*
X176388000Y-89630000D01*
G75*
G02*
X176638000Y-89880000I0J-250000D01*
G01*
X176638000Y-90780000D01*
G75*
G02*
X176388000Y-91030000I-250000J0D01*
G01*
X175863000Y-91030000D01*
G75*
G02*
X175613000Y-90780000I0J250000D01*
G01*
G37*
G36*
G01*
X177438000Y-90780000D02*
X177438000Y-89880000D01*
G75*
G02*
X177688000Y-89630000I250000J0D01*
G01*
X178213000Y-89630000D01*
G75*
G02*
X178463000Y-89880000I0J-250000D01*
G01*
X178463000Y-90780000D01*
G75*
G02*
X178213000Y-91030000I-250000J0D01*
G01*
X177688000Y-91030000D01*
G75*
G02*
X177438000Y-90780000I0J250000D01*
G01*
G37*
G36*
G01*
X174851000Y-113226000D02*
X174851000Y-112326000D01*
G75*
G02*
X175101000Y-112076000I250000J0D01*
G01*
X175626000Y-112076000D01*
G75*
G02*
X175876000Y-112326000I0J-250000D01*
G01*
X175876000Y-113226000D01*
G75*
G02*
X175626000Y-113476000I-250000J0D01*
G01*
X175101000Y-113476000D01*
G75*
G02*
X174851000Y-113226000I0J250000D01*
G01*
G37*
G36*
G01*
X176676000Y-113226000D02*
X176676000Y-112326000D01*
G75*
G02*
X176926000Y-112076000I250000J0D01*
G01*
X177451000Y-112076000D01*
G75*
G02*
X177701000Y-112326000I0J-250000D01*
G01*
X177701000Y-113226000D01*
G75*
G02*
X177451000Y-113476000I-250000J0D01*
G01*
X176926000Y-113476000D01*
G75*
G02*
X176676000Y-113226000I0J250000D01*
G01*
G37*
D16*
X129540000Y-93980000D03*
D17*
X129540000Y-104140000D03*
D16*
X129540000Y-76200000D03*
D17*
X129540000Y-66040000D03*
G36*
G01*
X177701000Y-125026000D02*
X177701000Y-125926000D01*
G75*
G02*
X177451000Y-126176000I-250000J0D01*
G01*
X176926000Y-126176000D01*
G75*
G02*
X176676000Y-125926000I0J250000D01*
G01*
X176676000Y-125026000D01*
G75*
G02*
X176926000Y-124776000I250000J0D01*
G01*
X177451000Y-124776000D01*
G75*
G02*
X177701000Y-125026000I0J-250000D01*
G01*
G37*
G36*
G01*
X175876000Y-125026000D02*
X175876000Y-125926000D01*
G75*
G02*
X175626000Y-126176000I-250000J0D01*
G01*
X175101000Y-126176000D01*
G75*
G02*
X174851000Y-125926000I0J250000D01*
G01*
X174851000Y-125026000D01*
G75*
G02*
X175101000Y-124776000I250000J0D01*
G01*
X175626000Y-124776000D01*
G75*
G02*
X175876000Y-125026000I0J-250000D01*
G01*
G37*
G36*
G01*
X116685000Y-106368000D02*
X116685000Y-105468000D01*
G75*
G02*
X116935000Y-105218000I250000J0D01*
G01*
X117460000Y-105218000D01*
G75*
G02*
X117710000Y-105468000I0J-250000D01*
G01*
X117710000Y-106368000D01*
G75*
G02*
X117460000Y-106618000I-250000J0D01*
G01*
X116935000Y-106618000D01*
G75*
G02*
X116685000Y-106368000I0J250000D01*
G01*
G37*
G36*
G01*
X118510000Y-106368000D02*
X118510000Y-105468000D01*
G75*
G02*
X118760000Y-105218000I250000J0D01*
G01*
X119285000Y-105218000D01*
G75*
G02*
X119535000Y-105468000I0J-250000D01*
G01*
X119535000Y-106368000D01*
G75*
G02*
X119285000Y-106618000I-250000J0D01*
G01*
X118760000Y-106618000D01*
G75*
G02*
X118510000Y-106368000I0J250000D01*
G01*
G37*
G36*
G01*
X71040000Y-105959999D02*
X71040000Y-103160001D01*
G75*
G02*
X71290001Y-102910000I250001J0D01*
G01*
X73489999Y-102910000D01*
G75*
G02*
X73740000Y-103160001I0J-250001D01*
G01*
X73740000Y-105959999D01*
G75*
G02*
X73489999Y-106210000I-250001J0D01*
G01*
X71290001Y-106210000D01*
G75*
G02*
X71040000Y-105959999I0J250001D01*
G01*
G37*
D29*
X76590000Y-104560000D03*
X72390000Y-99060000D03*
X76590000Y-99060000D03*
D30*
X144780000Y-80518000D03*
X152400000Y-80518000D03*
G36*
G01*
X149493500Y-131097000D02*
X149493500Y-132047000D01*
G75*
G02*
X149243500Y-132297000I-250000J0D01*
G01*
X148743500Y-132297000D01*
G75*
G02*
X148493500Y-132047000I0J250000D01*
G01*
X148493500Y-131097000D01*
G75*
G02*
X148743500Y-130847000I250000J0D01*
G01*
X149243500Y-130847000D01*
G75*
G02*
X149493500Y-131097000I0J-250000D01*
G01*
G37*
G36*
G01*
X147593500Y-131097000D02*
X147593500Y-132047000D01*
G75*
G02*
X147343500Y-132297000I-250000J0D01*
G01*
X146843500Y-132297000D01*
G75*
G02*
X146593500Y-132047000I0J250000D01*
G01*
X146593500Y-131097000D01*
G75*
G02*
X146843500Y-130847000I250000J0D01*
G01*
X147343500Y-130847000D01*
G75*
G02*
X147593500Y-131097000I0J-250000D01*
G01*
G37*
G36*
G01*
X161135000Y-93574000D02*
X161135000Y-92674000D01*
G75*
G02*
X161385000Y-92424000I250000J0D01*
G01*
X161910000Y-92424000D01*
G75*
G02*
X162160000Y-92674000I0J-250000D01*
G01*
X162160000Y-93574000D01*
G75*
G02*
X161910000Y-93824000I-250000J0D01*
G01*
X161385000Y-93824000D01*
G75*
G02*
X161135000Y-93574000I0J250000D01*
G01*
G37*
G36*
G01*
X162960000Y-93574000D02*
X162960000Y-92674000D01*
G75*
G02*
X163210000Y-92424000I250000J0D01*
G01*
X163735000Y-92424000D01*
G75*
G02*
X163985000Y-92674000I0J-250000D01*
G01*
X163985000Y-93574000D01*
G75*
G02*
X163735000Y-93824000I-250000J0D01*
G01*
X163210000Y-93824000D01*
G75*
G02*
X162960000Y-93574000I0J250000D01*
G01*
G37*
D21*
X142748000Y-64770000D03*
G36*
G01*
X175588000Y-88011000D02*
X175588000Y-87061000D01*
G75*
G02*
X175838000Y-86811000I250000J0D01*
G01*
X176338000Y-86811000D01*
G75*
G02*
X176588000Y-87061000I0J-250000D01*
G01*
X176588000Y-88011000D01*
G75*
G02*
X176338000Y-88261000I-250000J0D01*
G01*
X175838000Y-88261000D01*
G75*
G02*
X175588000Y-88011000I0J250000D01*
G01*
G37*
G36*
G01*
X177488000Y-88011000D02*
X177488000Y-87061000D01*
G75*
G02*
X177738000Y-86811000I250000J0D01*
G01*
X178238000Y-86811000D01*
G75*
G02*
X178488000Y-87061000I0J-250000D01*
G01*
X178488000Y-88011000D01*
G75*
G02*
X178238000Y-88261000I-250000J0D01*
G01*
X177738000Y-88261000D01*
G75*
G02*
X177488000Y-88011000I0J250000D01*
G01*
G37*
D27*
X89020000Y-93980000D03*
D28*
X96520000Y-93980000D03*
D31*
X107950000Y-66040000D03*
X105410000Y-66040000D03*
X102870000Y-66040000D03*
X102860000Y-102870000D03*
X105400000Y-102870000D03*
X107940000Y-102870000D03*
G36*
G01*
X174851000Y-105606000D02*
X174851000Y-104706000D01*
G75*
G02*
X175101000Y-104456000I250000J0D01*
G01*
X175626000Y-104456000D01*
G75*
G02*
X175876000Y-104706000I0J-250000D01*
G01*
X175876000Y-105606000D01*
G75*
G02*
X175626000Y-105856000I-250000J0D01*
G01*
X175101000Y-105856000D01*
G75*
G02*
X174851000Y-105606000I0J250000D01*
G01*
G37*
G36*
G01*
X176676000Y-105606000D02*
X176676000Y-104706000D01*
G75*
G02*
X176926000Y-104456000I250000J0D01*
G01*
X177451000Y-104456000D01*
G75*
G02*
X177701000Y-104706000I0J-250000D01*
G01*
X177701000Y-105606000D01*
G75*
G02*
X177451000Y-105856000I-250000J0D01*
G01*
X176926000Y-105856000D01*
G75*
G02*
X176676000Y-105606000I0J250000D01*
G01*
G37*
G36*
G01*
X173408000Y-95697000D02*
X173408000Y-96647000D01*
G75*
G02*
X173158000Y-96897000I-250000J0D01*
G01*
X172658000Y-96897000D01*
G75*
G02*
X172408000Y-96647000I0J250000D01*
G01*
X172408000Y-95697000D01*
G75*
G02*
X172658000Y-95447000I250000J0D01*
G01*
X173158000Y-95447000D01*
G75*
G02*
X173408000Y-95697000I0J-250000D01*
G01*
G37*
G36*
G01*
X171508000Y-95697000D02*
X171508000Y-96647000D01*
G75*
G02*
X171258000Y-96897000I-250000J0D01*
G01*
X170758000Y-96897000D01*
G75*
G02*
X170508000Y-96647000I0J250000D01*
G01*
X170508000Y-95697000D01*
G75*
G02*
X170758000Y-95447000I250000J0D01*
G01*
X171258000Y-95447000D01*
G75*
G02*
X171508000Y-95697000I0J-250000D01*
G01*
G37*
G36*
G01*
X174826000Y-120871000D02*
X174826000Y-119921000D01*
G75*
G02*
X175076000Y-119671000I250000J0D01*
G01*
X175576000Y-119671000D01*
G75*
G02*
X175826000Y-119921000I0J-250000D01*
G01*
X175826000Y-120871000D01*
G75*
G02*
X175576000Y-121121000I-250000J0D01*
G01*
X175076000Y-121121000D01*
G75*
G02*
X174826000Y-120871000I0J250000D01*
G01*
G37*
G36*
G01*
X176726000Y-120871000D02*
X176726000Y-119921000D01*
G75*
G02*
X176976000Y-119671000I250000J0D01*
G01*
X177476000Y-119671000D01*
G75*
G02*
X177726000Y-119921000I0J-250000D01*
G01*
X177726000Y-120871000D01*
G75*
G02*
X177476000Y-121121000I-250000J0D01*
G01*
X176976000Y-121121000D01*
G75*
G02*
X176726000Y-120871000I0J250000D01*
G01*
G37*
G36*
G01*
X192190000Y-78070000D02*
X192190000Y-76870000D01*
G75*
G02*
X192440000Y-76620000I250000J0D01*
G01*
X193640000Y-76620000D01*
G75*
G02*
X193890000Y-76870000I0J-250000D01*
G01*
X193890000Y-78070000D01*
G75*
G02*
X193640000Y-78320000I-250000J0D01*
G01*
X192440000Y-78320000D01*
G75*
G02*
X192190000Y-78070000I0J250000D01*
G01*
G37*
D20*
X195580000Y-77470000D03*
X193040000Y-74930000D03*
X195580000Y-74930000D03*
X193040000Y-72390000D03*
X195580000Y-72390000D03*
X193040000Y-69850000D03*
X195580000Y-69850000D03*
X193040000Y-67310000D03*
X195580000Y-67310000D03*
G36*
G01*
X95695000Y-117240000D02*
X97385000Y-117240000D01*
G75*
G02*
X97635000Y-117490000I0J-250000D01*
G01*
X97635000Y-118730000D01*
G75*
G02*
X97385000Y-118980000I-250000J0D01*
G01*
X95695000Y-118980000D01*
G75*
G02*
X95445000Y-118730000I0J250000D01*
G01*
X95445000Y-117490000D01*
G75*
G02*
X95695000Y-117240000I250000J0D01*
G01*
G37*
D32*
X96540000Y-120650000D03*
X96540000Y-123190000D03*
X96540000Y-125730000D03*
X96540000Y-128270000D03*
G36*
G01*
X164586500Y-108237000D02*
X164586500Y-109187000D01*
G75*
G02*
X164336500Y-109437000I-250000J0D01*
G01*
X163836500Y-109437000D01*
G75*
G02*
X163586500Y-109187000I0J250000D01*
G01*
X163586500Y-108237000D01*
G75*
G02*
X163836500Y-107987000I250000J0D01*
G01*
X164336500Y-107987000D01*
G75*
G02*
X164586500Y-108237000I0J-250000D01*
G01*
G37*
G36*
G01*
X162686500Y-108237000D02*
X162686500Y-109187000D01*
G75*
G02*
X162436500Y-109437000I-250000J0D01*
G01*
X161936500Y-109437000D01*
G75*
G02*
X161686500Y-109187000I0J250000D01*
G01*
X161686500Y-108237000D01*
G75*
G02*
X161936500Y-107987000I250000J0D01*
G01*
X162436500Y-107987000D01*
G75*
G02*
X162686500Y-108237000I0J-250000D01*
G01*
G37*
D16*
X123190000Y-101600000D03*
D17*
X113030000Y-101600000D03*
D33*
X147194000Y-129008000D03*
G36*
X151144000Y-128374500D02*
G01*
X148019000Y-128374500D01*
X148019000Y-127958000D01*
X146544000Y-127958000D01*
X146544000Y-127058000D01*
X148019000Y-127058000D01*
X148019000Y-126641500D01*
X151144000Y-126641500D01*
X151144000Y-128374500D01*
G37*
X147194000Y-126008000D03*
G36*
G01*
X164010000Y-87061000D02*
X164010000Y-88011000D01*
G75*
G02*
X163760000Y-88261000I-250000J0D01*
G01*
X163260000Y-88261000D01*
G75*
G02*
X163010000Y-88011000I0J250000D01*
G01*
X163010000Y-87061000D01*
G75*
G02*
X163260000Y-86811000I250000J0D01*
G01*
X163760000Y-86811000D01*
G75*
G02*
X164010000Y-87061000I0J-250000D01*
G01*
G37*
G36*
G01*
X162110000Y-87061000D02*
X162110000Y-88011000D01*
G75*
G02*
X161860000Y-88261000I-250000J0D01*
G01*
X161360000Y-88261000D01*
G75*
G02*
X161110000Y-88011000I0J250000D01*
G01*
X161110000Y-87061000D01*
G75*
G02*
X161360000Y-86811000I250000J0D01*
G01*
X161860000Y-86811000D01*
G75*
G02*
X162110000Y-87061000I0J-250000D01*
G01*
G37*
G36*
G01*
X175588000Y-99187000D02*
X175588000Y-98237000D01*
G75*
G02*
X175838000Y-97987000I250000J0D01*
G01*
X176338000Y-97987000D01*
G75*
G02*
X176588000Y-98237000I0J-250000D01*
G01*
X176588000Y-99187000D01*
G75*
G02*
X176338000Y-99437000I-250000J0D01*
G01*
X175838000Y-99437000D01*
G75*
G02*
X175588000Y-99187000I0J250000D01*
G01*
G37*
G36*
G01*
X177488000Y-99187000D02*
X177488000Y-98237000D01*
G75*
G02*
X177738000Y-97987000I250000J0D01*
G01*
X178238000Y-97987000D01*
G75*
G02*
X178488000Y-98237000I0J-250000D01*
G01*
X178488000Y-99187000D01*
G75*
G02*
X178238000Y-99437000I-250000J0D01*
G01*
X177738000Y-99437000D01*
G75*
G02*
X177488000Y-99187000I0J250000D01*
G01*
G37*
G36*
G01*
X154540000Y-63925000D02*
X154540000Y-65615000D01*
G75*
G02*
X154290000Y-65865000I-250000J0D01*
G01*
X153050000Y-65865000D01*
G75*
G02*
X152800000Y-65615000I0J250000D01*
G01*
X152800000Y-63925000D01*
G75*
G02*
X153050000Y-63675000I250000J0D01*
G01*
X154290000Y-63675000D01*
G75*
G02*
X154540000Y-63925000I0J-250000D01*
G01*
G37*
D34*
X151130000Y-64770000D03*
X148590000Y-64770000D03*
D35*
X167758000Y-101895000D03*
X167758000Y-102545000D03*
X167758000Y-103195000D03*
X167758000Y-103845000D03*
X163458000Y-103845000D03*
X163458000Y-103195000D03*
X163458000Y-102545000D03*
X163458000Y-101895000D03*
M02*
