M48
; DRILL file {KiCad 6.0.5+dfsg-1~bpo11+1} date Tue Aug 16 14:52:49 2022
; FORMAT={-:-/ absolute / metric / decimal}
; #@! TF.CreationDate,2022-08-16T14:52:49+00:00
; #@! TF.GenerationSoftware,Kicad,Pcbnew,6.0.5+dfsg-1~bpo11+1
; #@! TF.FileFunction,Plated,1,2,PTH
FMAT,2
METRIC
; #@! TA.AperFunction,Plated,PTH,ViaDrill
T1C0.500
; #@! TA.AperFunction,Plated,PTH,ComponentDrill
T2C0.800
; #@! TA.AperFunction,Plated,PTH,ComponentDrill
T3C0.900
; #@! TA.AperFunction,Plated,PTH,ComponentDrill
T4C1.000
; #@! TA.AperFunction,Plated,PTH,ComponentDrill
T5C1.100
; #@! TA.AperFunction,Plated,PTH,ComponentDrill
T6C1.190
%
G90
G05
T1
X88.392Y-124.46
X88.646Y-53.086
X88.646Y-119.38
X91.186Y-64.262
X92.71Y-124.714
X93.98Y-181.102
X94.742Y-135.89
X95.758Y-147.32
X96.52Y-65.786
X96.52Y-182.88
X96.774Y-69.088
X98.044Y-139.192
X98.806Y-119.38
X100.584Y-137.922
X100.838Y-147.32
X104.648Y-138.684
X105.918Y-119.38
X106.68Y-69.088
X106.68Y-147.32
X106.68Y-182.88
X106.934Y-61.976
X107.188Y-167.894
X107.442Y-170.688
X109.474Y-110.236
X109.474Y-180.848
X112.268Y-66.802
X112.268Y-119.38
T2
X91.988Y-141.478
X94.488Y-141.478
X96.56Y-191.516
X99.06Y-191.516
X104.14Y-191.77
X106.64Y-191.77
X107.736Y-127.762
X107.99Y-137.922
X112.736Y-127.762
X112.99Y-137.922
T3
X101.6Y-73.03
X101.6Y-75.57
T4
X93.218Y-75.438
X93.218Y-113.538
X93.218Y-170.688
X93.472Y-48.768
X96.52Y-201.412
X96.52Y-203.952
X99.06Y-167.64
X99.06Y-201.412
X99.06Y-203.952
X99.06Y-224.79
X99.1Y-53.34
X99.1Y-110.49
X101.56Y-167.64
X101.56Y-224.79
X101.6Y-53.34
X101.6Y-110.49
X101.6Y-201.412
X101.6Y-203.952
X104.06Y-167.64
X104.06Y-224.79
X104.1Y-53.34
X104.1Y-110.49
X104.14Y-201.412
X104.14Y-203.952
X106.68Y-201.412
X106.68Y-203.952
X109.982Y-170.688
T6
X93.98Y-93.98
X93.98Y-96.52
X93.98Y-99.06
X109.2Y-82.55
X109.2Y-85.09
X109.2Y-87.63
X109.2Y-90.17
T5
X96.76Y-160.49G85X96.76Y-159.79
G05
X96.76Y-217.64G85X96.76Y-216.94
G05
X96.8Y-46.19G85X96.8Y-45.49
G05
X96.8Y-103.34G85X96.8Y-102.64
G05
X106.36Y-160.49G85X106.36Y-159.79
G05
X106.36Y-217.64G85X106.36Y-216.94
G05
X106.4Y-46.19G85X106.4Y-45.49
G05
X106.4Y-103.34G85X106.4Y-102.64
G05
T0
M30
