G04 #@! TF.GenerationSoftware,KiCad,Pcbnew,6.0.5+dfsg-1~bpo11+1*
G04 #@! TF.CreationDate,2022-08-16T14:52:49+00:00*
G04 #@! TF.ProjectId,envelope_follower,656e7665-6c6f-4706-955f-666f6c6c6f77,0*
G04 #@! TF.SameCoordinates,Original*
G04 #@! TF.FileFunction,Paste,Bot*
G04 #@! TF.FilePolarity,Positive*
%FSLAX46Y46*%
G04 Gerber Fmt 4.6, Leading zero omitted, Abs format (unit mm)*
G04 Created by KiCad (PCBNEW 6.0.5+dfsg-1~bpo11+1) date 2022-08-16 14:52:49*
%MOMM*%
%LPD*%
G01*
G04 APERTURE LIST*
%ADD10R,0.900000X1.200000*%
G04 APERTURE END LIST*
G36*
G01*
X105050000Y-175745000D02*
X105050000Y-176045000D01*
G75*
G02*
X104900000Y-176195000I-150000J0D01*
G01*
X103250000Y-176195000D01*
G75*
G02*
X103100000Y-176045000I0J150000D01*
G01*
X103100000Y-175745000D01*
G75*
G02*
X103250000Y-175595000I150000J0D01*
G01*
X104900000Y-175595000D01*
G75*
G02*
X105050000Y-175745000I0J-150000D01*
G01*
G37*
G36*
G01*
X105050000Y-177015000D02*
X105050000Y-177315000D01*
G75*
G02*
X104900000Y-177465000I-150000J0D01*
G01*
X103250000Y-177465000D01*
G75*
G02*
X103100000Y-177315000I0J150000D01*
G01*
X103100000Y-177015000D01*
G75*
G02*
X103250000Y-176865000I150000J0D01*
G01*
X104900000Y-176865000D01*
G75*
G02*
X105050000Y-177015000I0J-150000D01*
G01*
G37*
G36*
G01*
X105050000Y-178285000D02*
X105050000Y-178585000D01*
G75*
G02*
X104900000Y-178735000I-150000J0D01*
G01*
X103250000Y-178735000D01*
G75*
G02*
X103100000Y-178585000I0J150000D01*
G01*
X103100000Y-178285000D01*
G75*
G02*
X103250000Y-178135000I150000J0D01*
G01*
X104900000Y-178135000D01*
G75*
G02*
X105050000Y-178285000I0J-150000D01*
G01*
G37*
G36*
G01*
X105050000Y-179555000D02*
X105050000Y-179855000D01*
G75*
G02*
X104900000Y-180005000I-150000J0D01*
G01*
X103250000Y-180005000D01*
G75*
G02*
X103100000Y-179855000I0J150000D01*
G01*
X103100000Y-179555000D01*
G75*
G02*
X103250000Y-179405000I150000J0D01*
G01*
X104900000Y-179405000D01*
G75*
G02*
X105050000Y-179555000I0J-150000D01*
G01*
G37*
G36*
G01*
X100100000Y-179555000D02*
X100100000Y-179855000D01*
G75*
G02*
X99950000Y-180005000I-150000J0D01*
G01*
X98300000Y-180005000D01*
G75*
G02*
X98150000Y-179855000I0J150000D01*
G01*
X98150000Y-179555000D01*
G75*
G02*
X98300000Y-179405000I150000J0D01*
G01*
X99950000Y-179405000D01*
G75*
G02*
X100100000Y-179555000I0J-150000D01*
G01*
G37*
G36*
G01*
X100100000Y-178285000D02*
X100100000Y-178585000D01*
G75*
G02*
X99950000Y-178735000I-150000J0D01*
G01*
X98300000Y-178735000D01*
G75*
G02*
X98150000Y-178585000I0J150000D01*
G01*
X98150000Y-178285000D01*
G75*
G02*
X98300000Y-178135000I150000J0D01*
G01*
X99950000Y-178135000D01*
G75*
G02*
X100100000Y-178285000I0J-150000D01*
G01*
G37*
G36*
G01*
X100100000Y-177015000D02*
X100100000Y-177315000D01*
G75*
G02*
X99950000Y-177465000I-150000J0D01*
G01*
X98300000Y-177465000D01*
G75*
G02*
X98150000Y-177315000I0J150000D01*
G01*
X98150000Y-177015000D01*
G75*
G02*
X98300000Y-176865000I150000J0D01*
G01*
X99950000Y-176865000D01*
G75*
G02*
X100100000Y-177015000I0J-150000D01*
G01*
G37*
G36*
G01*
X100100000Y-175745000D02*
X100100000Y-176045000D01*
G75*
G02*
X99950000Y-176195000I-150000J0D01*
G01*
X98300000Y-176195000D01*
G75*
G02*
X98150000Y-176045000I0J150000D01*
G01*
X98150000Y-175745000D01*
G75*
G02*
X98300000Y-175595000I150000J0D01*
G01*
X99950000Y-175595000D01*
G75*
G02*
X100100000Y-175745000I0J-150000D01*
G01*
G37*
G36*
G01*
X93063000Y-134562000D02*
X93063000Y-133662000D01*
G75*
G02*
X93313000Y-133412000I250000J0D01*
G01*
X93838000Y-133412000D01*
G75*
G02*
X94088000Y-133662000I0J-250000D01*
G01*
X94088000Y-134562000D01*
G75*
G02*
X93838000Y-134812000I-250000J0D01*
G01*
X93313000Y-134812000D01*
G75*
G02*
X93063000Y-134562000I0J250000D01*
G01*
G37*
G36*
G01*
X94888000Y-134562000D02*
X94888000Y-133662000D01*
G75*
G02*
X95138000Y-133412000I250000J0D01*
G01*
X95663000Y-133412000D01*
G75*
G02*
X95913000Y-133662000I0J-250000D01*
G01*
X95913000Y-134562000D01*
G75*
G02*
X95663000Y-134812000I-250000J0D01*
G01*
X95138000Y-134812000D01*
G75*
G02*
X94888000Y-134562000I0J250000D01*
G01*
G37*
G36*
G01*
X109883000Y-133662000D02*
X109883000Y-134562000D01*
G75*
G02*
X109633000Y-134812000I-250000J0D01*
G01*
X109108000Y-134812000D01*
G75*
G02*
X108858000Y-134562000I0J250000D01*
G01*
X108858000Y-133662000D01*
G75*
G02*
X109108000Y-133412000I250000J0D01*
G01*
X109633000Y-133412000D01*
G75*
G02*
X109883000Y-133662000I0J-250000D01*
G01*
G37*
G36*
G01*
X108058000Y-133662000D02*
X108058000Y-134562000D01*
G75*
G02*
X107808000Y-134812000I-250000J0D01*
G01*
X107283000Y-134812000D01*
G75*
G02*
X107033000Y-134562000I0J250000D01*
G01*
X107033000Y-133662000D01*
G75*
G02*
X107283000Y-133412000I250000J0D01*
G01*
X107808000Y-133412000D01*
G75*
G02*
X108058000Y-133662000I0J-250000D01*
G01*
G37*
G36*
G01*
X105082000Y-68613000D02*
X105082000Y-69563000D01*
G75*
G02*
X104832000Y-69813000I-250000J0D01*
G01*
X104332000Y-69813000D01*
G75*
G02*
X104082000Y-69563000I0J250000D01*
G01*
X104082000Y-68613000D01*
G75*
G02*
X104332000Y-68363000I250000J0D01*
G01*
X104832000Y-68363000D01*
G75*
G02*
X105082000Y-68613000I0J-250000D01*
G01*
G37*
G36*
G01*
X103182000Y-68613000D02*
X103182000Y-69563000D01*
G75*
G02*
X102932000Y-69813000I-250000J0D01*
G01*
X102432000Y-69813000D01*
G75*
G02*
X102182000Y-69563000I0J250000D01*
G01*
X102182000Y-68613000D01*
G75*
G02*
X102432000Y-68363000I250000J0D01*
G01*
X102932000Y-68363000D01*
G75*
G02*
X103182000Y-68613000I0J-250000D01*
G01*
G37*
G36*
G01*
X94793500Y-67622000D02*
X94793500Y-68522000D01*
G75*
G02*
X94543500Y-68772000I-250000J0D01*
G01*
X94018500Y-68772000D01*
G75*
G02*
X93768500Y-68522000I0J250000D01*
G01*
X93768500Y-67622000D01*
G75*
G02*
X94018500Y-67372000I250000J0D01*
G01*
X94543500Y-67372000D01*
G75*
G02*
X94793500Y-67622000I0J-250000D01*
G01*
G37*
G36*
G01*
X92968500Y-67622000D02*
X92968500Y-68522000D01*
G75*
G02*
X92718500Y-68772000I-250000J0D01*
G01*
X92193500Y-68772000D01*
G75*
G02*
X91943500Y-68522000I0J250000D01*
G01*
X91943500Y-67622000D01*
G75*
G02*
X92193500Y-67372000I250000J0D01*
G01*
X92718500Y-67372000D01*
G75*
G02*
X92968500Y-67622000I0J-250000D01*
G01*
G37*
G36*
G01*
X107013259Y-177260000D02*
X107013259Y-176360000D01*
G75*
G02*
X107263259Y-176110000I250000J0D01*
G01*
X107788259Y-176110000D01*
G75*
G02*
X108038259Y-176360000I0J-250000D01*
G01*
X108038259Y-177260000D01*
G75*
G02*
X107788259Y-177510000I-250000J0D01*
G01*
X107263259Y-177510000D01*
G75*
G02*
X107013259Y-177260000I0J250000D01*
G01*
G37*
G36*
G01*
X108838259Y-177260000D02*
X108838259Y-176360000D01*
G75*
G02*
X109088259Y-176110000I250000J0D01*
G01*
X109613259Y-176110000D01*
G75*
G02*
X109863259Y-176360000I0J-250000D01*
G01*
X109863259Y-177260000D01*
G75*
G02*
X109613259Y-177510000I-250000J0D01*
G01*
X109088259Y-177510000D01*
G75*
G02*
X108838259Y-177260000I0J250000D01*
G01*
G37*
G36*
G01*
X109883000Y-131122000D02*
X109883000Y-132022000D01*
G75*
G02*
X109633000Y-132272000I-250000J0D01*
G01*
X109108000Y-132272000D01*
G75*
G02*
X108858000Y-132022000I0J250000D01*
G01*
X108858000Y-131122000D01*
G75*
G02*
X109108000Y-130872000I250000J0D01*
G01*
X109633000Y-130872000D01*
G75*
G02*
X109883000Y-131122000I0J-250000D01*
G01*
G37*
G36*
G01*
X108058000Y-131122000D02*
X108058000Y-132022000D01*
G75*
G02*
X107808000Y-132272000I-250000J0D01*
G01*
X107283000Y-132272000D01*
G75*
G02*
X107033000Y-132022000I0J250000D01*
G01*
X107033000Y-131122000D01*
G75*
G02*
X107283000Y-130872000I250000J0D01*
G01*
X107808000Y-130872000D01*
G75*
G02*
X108058000Y-131122000I0J-250000D01*
G01*
G37*
D10*
X111632000Y-59944000D03*
X108332000Y-59944000D03*
G36*
G01*
X100998259Y-182405000D02*
X100998259Y-183355000D01*
G75*
G02*
X100748259Y-183605000I-250000J0D01*
G01*
X100248259Y-183605000D01*
G75*
G02*
X99998259Y-183355000I0J250000D01*
G01*
X99998259Y-182405000D01*
G75*
G02*
X100248259Y-182155000I250000J0D01*
G01*
X100748259Y-182155000D01*
G75*
G02*
X100998259Y-182405000I0J-250000D01*
G01*
G37*
G36*
G01*
X99098259Y-182405000D02*
X99098259Y-183355000D01*
G75*
G02*
X98848259Y-183605000I-250000J0D01*
G01*
X98348259Y-183605000D01*
G75*
G02*
X98098259Y-183355000I0J250000D01*
G01*
X98098259Y-182405000D01*
G75*
G02*
X98348259Y-182155000I250000J0D01*
G01*
X98848259Y-182155000D01*
G75*
G02*
X99098259Y-182405000I0J-250000D01*
G01*
G37*
G36*
G01*
X105050000Y-129009000D02*
X105050000Y-129309000D01*
G75*
G02*
X104900000Y-129459000I-150000J0D01*
G01*
X103250000Y-129459000D01*
G75*
G02*
X103100000Y-129309000I0J150000D01*
G01*
X103100000Y-129009000D01*
G75*
G02*
X103250000Y-128859000I150000J0D01*
G01*
X104900000Y-128859000D01*
G75*
G02*
X105050000Y-129009000I0J-150000D01*
G01*
G37*
G36*
G01*
X105050000Y-130279000D02*
X105050000Y-130579000D01*
G75*
G02*
X104900000Y-130729000I-150000J0D01*
G01*
X103250000Y-130729000D01*
G75*
G02*
X103100000Y-130579000I0J150000D01*
G01*
X103100000Y-130279000D01*
G75*
G02*
X103250000Y-130129000I150000J0D01*
G01*
X104900000Y-130129000D01*
G75*
G02*
X105050000Y-130279000I0J-150000D01*
G01*
G37*
G36*
G01*
X105050000Y-131549000D02*
X105050000Y-131849000D01*
G75*
G02*
X104900000Y-131999000I-150000J0D01*
G01*
X103250000Y-131999000D01*
G75*
G02*
X103100000Y-131849000I0J150000D01*
G01*
X103100000Y-131549000D01*
G75*
G02*
X103250000Y-131399000I150000J0D01*
G01*
X104900000Y-131399000D01*
G75*
G02*
X105050000Y-131549000I0J-150000D01*
G01*
G37*
G36*
G01*
X105050000Y-132819000D02*
X105050000Y-133119000D01*
G75*
G02*
X104900000Y-133269000I-150000J0D01*
G01*
X103250000Y-133269000D01*
G75*
G02*
X103100000Y-133119000I0J150000D01*
G01*
X103100000Y-132819000D01*
G75*
G02*
X103250000Y-132669000I150000J0D01*
G01*
X104900000Y-132669000D01*
G75*
G02*
X105050000Y-132819000I0J-150000D01*
G01*
G37*
G36*
G01*
X100100000Y-132819000D02*
X100100000Y-133119000D01*
G75*
G02*
X99950000Y-133269000I-150000J0D01*
G01*
X98300000Y-133269000D01*
G75*
G02*
X98150000Y-133119000I0J150000D01*
G01*
X98150000Y-132819000D01*
G75*
G02*
X98300000Y-132669000I150000J0D01*
G01*
X99950000Y-132669000D01*
G75*
G02*
X100100000Y-132819000I0J-150000D01*
G01*
G37*
G36*
G01*
X100100000Y-131549000D02*
X100100000Y-131849000D01*
G75*
G02*
X99950000Y-131999000I-150000J0D01*
G01*
X98300000Y-131999000D01*
G75*
G02*
X98150000Y-131849000I0J150000D01*
G01*
X98150000Y-131549000D01*
G75*
G02*
X98300000Y-131399000I150000J0D01*
G01*
X99950000Y-131399000D01*
G75*
G02*
X100100000Y-131549000I0J-150000D01*
G01*
G37*
G36*
G01*
X100100000Y-130279000D02*
X100100000Y-130579000D01*
G75*
G02*
X99950000Y-130729000I-150000J0D01*
G01*
X98300000Y-130729000D01*
G75*
G02*
X98150000Y-130579000I0J150000D01*
G01*
X98150000Y-130279000D01*
G75*
G02*
X98300000Y-130129000I150000J0D01*
G01*
X99950000Y-130129000D01*
G75*
G02*
X100100000Y-130279000I0J-150000D01*
G01*
G37*
G36*
G01*
X100100000Y-129009000D02*
X100100000Y-129309000D01*
G75*
G02*
X99950000Y-129459000I-150000J0D01*
G01*
X98300000Y-129459000D01*
G75*
G02*
X98150000Y-129309000I0J150000D01*
G01*
X98150000Y-129009000D01*
G75*
G02*
X98300000Y-128859000I150000J0D01*
G01*
X99950000Y-128859000D01*
G75*
G02*
X100100000Y-129009000I0J-150000D01*
G01*
G37*
G36*
G01*
X91943500Y-65982000D02*
X91943500Y-65082000D01*
G75*
G02*
X92193500Y-64832000I250000J0D01*
G01*
X92718500Y-64832000D01*
G75*
G02*
X92968500Y-65082000I0J-250000D01*
G01*
X92968500Y-65982000D01*
G75*
G02*
X92718500Y-66232000I-250000J0D01*
G01*
X92193500Y-66232000D01*
G75*
G02*
X91943500Y-65982000I0J250000D01*
G01*
G37*
G36*
G01*
X93768500Y-65982000D02*
X93768500Y-65082000D01*
G75*
G02*
X94018500Y-64832000I250000J0D01*
G01*
X94543500Y-64832000D01*
G75*
G02*
X94793500Y-65082000I0J-250000D01*
G01*
X94793500Y-65982000D01*
G75*
G02*
X94543500Y-66232000I-250000J0D01*
G01*
X94018500Y-66232000D01*
G75*
G02*
X93768500Y-65982000I0J250000D01*
G01*
G37*
G36*
G01*
X94793500Y-70162000D02*
X94793500Y-71062000D01*
G75*
G02*
X94543500Y-71312000I-250000J0D01*
G01*
X94018500Y-71312000D01*
G75*
G02*
X93768500Y-71062000I0J250000D01*
G01*
X93768500Y-70162000D01*
G75*
G02*
X94018500Y-69912000I250000J0D01*
G01*
X94543500Y-69912000D01*
G75*
G02*
X94793500Y-70162000I0J-250000D01*
G01*
G37*
G36*
G01*
X92968500Y-70162000D02*
X92968500Y-71062000D01*
G75*
G02*
X92718500Y-71312000I-250000J0D01*
G01*
X92193500Y-71312000D01*
G75*
G02*
X91943500Y-71062000I0J250000D01*
G01*
X91943500Y-70162000D01*
G75*
G02*
X92193500Y-69912000I250000J0D01*
G01*
X92718500Y-69912000D01*
G75*
G02*
X92968500Y-70162000I0J-250000D01*
G01*
G37*
G36*
G01*
X101755000Y-79306000D02*
X101755000Y-80206000D01*
G75*
G02*
X101505000Y-80456000I-250000J0D01*
G01*
X100980000Y-80456000D01*
G75*
G02*
X100730000Y-80206000I0J250000D01*
G01*
X100730000Y-79306000D01*
G75*
G02*
X100980000Y-79056000I250000J0D01*
G01*
X101505000Y-79056000D01*
G75*
G02*
X101755000Y-79306000I0J-250000D01*
G01*
G37*
G36*
G01*
X99930000Y-79306000D02*
X99930000Y-80206000D01*
G75*
G02*
X99680000Y-80456000I-250000J0D01*
G01*
X99155000Y-80456000D01*
G75*
G02*
X98905000Y-80206000I0J250000D01*
G01*
X98905000Y-79306000D01*
G75*
G02*
X99155000Y-79056000I250000J0D01*
G01*
X99680000Y-79056000D01*
G75*
G02*
X99930000Y-79306000I0J-250000D01*
G01*
G37*
X111632000Y-62738000D03*
X108332000Y-62738000D03*
G36*
G01*
X108557000Y-68522000D02*
X108557000Y-67622000D01*
G75*
G02*
X108807000Y-67372000I250000J0D01*
G01*
X109332000Y-67372000D01*
G75*
G02*
X109582000Y-67622000I0J-250000D01*
G01*
X109582000Y-68522000D01*
G75*
G02*
X109332000Y-68772000I-250000J0D01*
G01*
X108807000Y-68772000D01*
G75*
G02*
X108557000Y-68522000I0J250000D01*
G01*
G37*
G36*
G01*
X110382000Y-68522000D02*
X110382000Y-67622000D01*
G75*
G02*
X110632000Y-67372000I250000J0D01*
G01*
X111157000Y-67372000D01*
G75*
G02*
X111407000Y-67622000I0J-250000D01*
G01*
X111407000Y-68522000D01*
G75*
G02*
X111157000Y-68772000I-250000J0D01*
G01*
X110632000Y-68772000D01*
G75*
G02*
X110382000Y-68522000I0J250000D01*
G01*
G37*
X95122000Y-60198000D03*
X91822000Y-60198000D03*
G36*
G01*
X105062259Y-182405000D02*
X105062259Y-183355000D01*
G75*
G02*
X104812259Y-183605000I-250000J0D01*
G01*
X104312259Y-183605000D01*
G75*
G02*
X104062259Y-183355000I0J250000D01*
G01*
X104062259Y-182405000D01*
G75*
G02*
X104312259Y-182155000I250000J0D01*
G01*
X104812259Y-182155000D01*
G75*
G02*
X105062259Y-182405000I0J-250000D01*
G01*
G37*
G36*
G01*
X103162259Y-182405000D02*
X103162259Y-183355000D01*
G75*
G02*
X102912259Y-183605000I-250000J0D01*
G01*
X102412259Y-183605000D01*
G75*
G02*
X102162259Y-183355000I0J250000D01*
G01*
X102162259Y-182405000D01*
G75*
G02*
X102412259Y-182155000I250000J0D01*
G01*
X102912259Y-182155000D01*
G75*
G02*
X103162259Y-182405000I0J-250000D01*
G01*
G37*
G36*
G01*
X95913000Y-131122000D02*
X95913000Y-132022000D01*
G75*
G02*
X95663000Y-132272000I-250000J0D01*
G01*
X95138000Y-132272000D01*
G75*
G02*
X94888000Y-132022000I0J250000D01*
G01*
X94888000Y-131122000D01*
G75*
G02*
X95138000Y-130872000I250000J0D01*
G01*
X95663000Y-130872000D01*
G75*
G02*
X95913000Y-131122000I0J-250000D01*
G01*
G37*
G36*
G01*
X94088000Y-131122000D02*
X94088000Y-132022000D01*
G75*
G02*
X93838000Y-132272000I-250000J0D01*
G01*
X93313000Y-132272000D01*
G75*
G02*
X93063000Y-132022000I0J250000D01*
G01*
X93063000Y-131122000D01*
G75*
G02*
X93313000Y-130872000I250000J0D01*
G01*
X93838000Y-130872000D01*
G75*
G02*
X94088000Y-131122000I0J-250000D01*
G01*
G37*
G36*
G01*
X94897000Y-62542000D02*
X94897000Y-63442000D01*
G75*
G02*
X94647000Y-63692000I-250000J0D01*
G01*
X94122000Y-63692000D01*
G75*
G02*
X93872000Y-63442000I0J250000D01*
G01*
X93872000Y-62542000D01*
G75*
G02*
X94122000Y-62292000I250000J0D01*
G01*
X94647000Y-62292000D01*
G75*
G02*
X94897000Y-62542000I0J-250000D01*
G01*
G37*
G36*
G01*
X93072000Y-62542000D02*
X93072000Y-63442000D01*
G75*
G02*
X92822000Y-63692000I-250000J0D01*
G01*
X92297000Y-63692000D01*
G75*
G02*
X92047000Y-63442000I0J250000D01*
G01*
X92047000Y-62542000D01*
G75*
G02*
X92297000Y-62292000I250000J0D01*
G01*
X92822000Y-62292000D01*
G75*
G02*
X93072000Y-62542000I0J-250000D01*
G01*
G37*
G36*
G01*
X96147259Y-176360000D02*
X96147259Y-177260000D01*
G75*
G02*
X95897259Y-177510000I-250000J0D01*
G01*
X95372259Y-177510000D01*
G75*
G02*
X95122259Y-177260000I0J250000D01*
G01*
X95122259Y-176360000D01*
G75*
G02*
X95372259Y-176110000I250000J0D01*
G01*
X95897259Y-176110000D01*
G75*
G02*
X96147259Y-176360000I0J-250000D01*
G01*
G37*
G36*
G01*
X94322259Y-176360000D02*
X94322259Y-177260000D01*
G75*
G02*
X94072259Y-177510000I-250000J0D01*
G01*
X93547259Y-177510000D01*
G75*
G02*
X93297259Y-177260000I0J250000D01*
G01*
X93297259Y-176360000D01*
G75*
G02*
X93547259Y-176110000I250000J0D01*
G01*
X94072259Y-176110000D01*
G75*
G02*
X94322259Y-176360000I0J-250000D01*
G01*
G37*
X95122000Y-57404000D03*
X91822000Y-57404000D03*
G36*
G01*
X93297259Y-179800000D02*
X93297259Y-178900000D01*
G75*
G02*
X93547259Y-178650000I250000J0D01*
G01*
X94072259Y-178650000D01*
G75*
G02*
X94322259Y-178900000I0J-250000D01*
G01*
X94322259Y-179800000D01*
G75*
G02*
X94072259Y-180050000I-250000J0D01*
G01*
X93547259Y-180050000D01*
G75*
G02*
X93297259Y-179800000I0J250000D01*
G01*
G37*
G36*
G01*
X95122259Y-179800000D02*
X95122259Y-178900000D01*
G75*
G02*
X95372259Y-178650000I250000J0D01*
G01*
X95897259Y-178650000D01*
G75*
G02*
X96147259Y-178900000I0J-250000D01*
G01*
X96147259Y-179800000D01*
G75*
G02*
X95897259Y-180050000I-250000J0D01*
G01*
X95372259Y-180050000D01*
G75*
G02*
X95122259Y-179800000I0J250000D01*
G01*
G37*
G36*
G01*
X109863259Y-178900000D02*
X109863259Y-179800000D01*
G75*
G02*
X109613259Y-180050000I-250000J0D01*
G01*
X109088259Y-180050000D01*
G75*
G02*
X108838259Y-179800000I0J250000D01*
G01*
X108838259Y-178900000D01*
G75*
G02*
X109088259Y-178650000I250000J0D01*
G01*
X109613259Y-178650000D01*
G75*
G02*
X109863259Y-178900000I0J-250000D01*
G01*
G37*
G36*
G01*
X108038259Y-178900000D02*
X108038259Y-179800000D01*
G75*
G02*
X107788259Y-180050000I-250000J0D01*
G01*
X107263259Y-180050000D01*
G75*
G02*
X107013259Y-179800000I0J250000D01*
G01*
X107013259Y-178900000D01*
G75*
G02*
X107263259Y-178650000I250000J0D01*
G01*
X107788259Y-178650000D01*
G75*
G02*
X108038259Y-178900000I0J-250000D01*
G01*
G37*
G36*
G01*
X111407000Y-70162000D02*
X111407000Y-71062000D01*
G75*
G02*
X111157000Y-71312000I-250000J0D01*
G01*
X110632000Y-71312000D01*
G75*
G02*
X110382000Y-71062000I0J250000D01*
G01*
X110382000Y-70162000D01*
G75*
G02*
X110632000Y-69912000I250000J0D01*
G01*
X111157000Y-69912000D01*
G75*
G02*
X111407000Y-70162000I0J-250000D01*
G01*
G37*
G36*
G01*
X109582000Y-70162000D02*
X109582000Y-71062000D01*
G75*
G02*
X109332000Y-71312000I-250000J0D01*
G01*
X108807000Y-71312000D01*
G75*
G02*
X108557000Y-71062000I0J250000D01*
G01*
X108557000Y-70162000D01*
G75*
G02*
X108807000Y-69912000I250000J0D01*
G01*
X109332000Y-69912000D01*
G75*
G02*
X109582000Y-70162000I0J-250000D01*
G01*
G37*
X96138000Y-120904000D03*
X92838000Y-120904000D03*
G36*
G01*
X105050000Y-61699000D02*
X105050000Y-61999000D01*
G75*
G02*
X104900000Y-62149000I-150000J0D01*
G01*
X103250000Y-62149000D01*
G75*
G02*
X103100000Y-61999000I0J150000D01*
G01*
X103100000Y-61699000D01*
G75*
G02*
X103250000Y-61549000I150000J0D01*
G01*
X104900000Y-61549000D01*
G75*
G02*
X105050000Y-61699000I0J-150000D01*
G01*
G37*
G36*
G01*
X105050000Y-62969000D02*
X105050000Y-63269000D01*
G75*
G02*
X104900000Y-63419000I-150000J0D01*
G01*
X103250000Y-63419000D01*
G75*
G02*
X103100000Y-63269000I0J150000D01*
G01*
X103100000Y-62969000D01*
G75*
G02*
X103250000Y-62819000I150000J0D01*
G01*
X104900000Y-62819000D01*
G75*
G02*
X105050000Y-62969000I0J-150000D01*
G01*
G37*
G36*
G01*
X105050000Y-64239000D02*
X105050000Y-64539000D01*
G75*
G02*
X104900000Y-64689000I-150000J0D01*
G01*
X103250000Y-64689000D01*
G75*
G02*
X103100000Y-64539000I0J150000D01*
G01*
X103100000Y-64239000D01*
G75*
G02*
X103250000Y-64089000I150000J0D01*
G01*
X104900000Y-64089000D01*
G75*
G02*
X105050000Y-64239000I0J-150000D01*
G01*
G37*
G36*
G01*
X105050000Y-65509000D02*
X105050000Y-65809000D01*
G75*
G02*
X104900000Y-65959000I-150000J0D01*
G01*
X103250000Y-65959000D01*
G75*
G02*
X103100000Y-65809000I0J150000D01*
G01*
X103100000Y-65509000D01*
G75*
G02*
X103250000Y-65359000I150000J0D01*
G01*
X104900000Y-65359000D01*
G75*
G02*
X105050000Y-65509000I0J-150000D01*
G01*
G37*
G36*
G01*
X100100000Y-65509000D02*
X100100000Y-65809000D01*
G75*
G02*
X99950000Y-65959000I-150000J0D01*
G01*
X98300000Y-65959000D01*
G75*
G02*
X98150000Y-65809000I0J150000D01*
G01*
X98150000Y-65509000D01*
G75*
G02*
X98300000Y-65359000I150000J0D01*
G01*
X99950000Y-65359000D01*
G75*
G02*
X100100000Y-65509000I0J-150000D01*
G01*
G37*
G36*
G01*
X100100000Y-64239000D02*
X100100000Y-64539000D01*
G75*
G02*
X99950000Y-64689000I-150000J0D01*
G01*
X98300000Y-64689000D01*
G75*
G02*
X98150000Y-64539000I0J150000D01*
G01*
X98150000Y-64239000D01*
G75*
G02*
X98300000Y-64089000I150000J0D01*
G01*
X99950000Y-64089000D01*
G75*
G02*
X100100000Y-64239000I0J-150000D01*
G01*
G37*
G36*
G01*
X100100000Y-62969000D02*
X100100000Y-63269000D01*
G75*
G02*
X99950000Y-63419000I-150000J0D01*
G01*
X98300000Y-63419000D01*
G75*
G02*
X98150000Y-63269000I0J150000D01*
G01*
X98150000Y-62969000D01*
G75*
G02*
X98300000Y-62819000I150000J0D01*
G01*
X99950000Y-62819000D01*
G75*
G02*
X100100000Y-62969000I0J-150000D01*
G01*
G37*
G36*
G01*
X100100000Y-61699000D02*
X100100000Y-61999000D01*
G75*
G02*
X99950000Y-62149000I-150000J0D01*
G01*
X98300000Y-62149000D01*
G75*
G02*
X98150000Y-61999000I0J150000D01*
G01*
X98150000Y-61699000D01*
G75*
G02*
X98300000Y-61549000I150000J0D01*
G01*
X99950000Y-61549000D01*
G75*
G02*
X100100000Y-61699000I0J-150000D01*
G01*
G37*
G36*
G01*
X108557000Y-65982000D02*
X108557000Y-65082000D01*
G75*
G02*
X108807000Y-64832000I250000J0D01*
G01*
X109332000Y-64832000D01*
G75*
G02*
X109582000Y-65082000I0J-250000D01*
G01*
X109582000Y-65982000D01*
G75*
G02*
X109332000Y-66232000I-250000J0D01*
G01*
X108807000Y-66232000D01*
G75*
G02*
X108557000Y-65982000I0J250000D01*
G01*
G37*
G36*
G01*
X110382000Y-65982000D02*
X110382000Y-65082000D01*
G75*
G02*
X110632000Y-64832000I250000J0D01*
G01*
X111157000Y-64832000D01*
G75*
G02*
X111407000Y-65082000I0J-250000D01*
G01*
X111407000Y-65982000D01*
G75*
G02*
X111157000Y-66232000I-250000J0D01*
G01*
X110632000Y-66232000D01*
G75*
G02*
X110382000Y-65982000I0J250000D01*
G01*
G37*
X95122000Y-54610000D03*
X91822000Y-54610000D03*
G36*
G01*
X101018000Y-135923000D02*
X101018000Y-136873000D01*
G75*
G02*
X100768000Y-137123000I-250000J0D01*
G01*
X100268000Y-137123000D01*
G75*
G02*
X100018000Y-136873000I0J250000D01*
G01*
X100018000Y-135923000D01*
G75*
G02*
X100268000Y-135673000I250000J0D01*
G01*
X100768000Y-135673000D01*
G75*
G02*
X101018000Y-135923000I0J-250000D01*
G01*
G37*
G36*
G01*
X99118000Y-135923000D02*
X99118000Y-136873000D01*
G75*
G02*
X98868000Y-137123000I-250000J0D01*
G01*
X98368000Y-137123000D01*
G75*
G02*
X98118000Y-136873000I0J250000D01*
G01*
X98118000Y-135923000D01*
G75*
G02*
X98368000Y-135673000I250000J0D01*
G01*
X98868000Y-135673000D01*
G75*
G02*
X99118000Y-135923000I0J-250000D01*
G01*
G37*
G36*
G01*
X95913000Y-128582000D02*
X95913000Y-129482000D01*
G75*
G02*
X95663000Y-129732000I-250000J0D01*
G01*
X95138000Y-129732000D01*
G75*
G02*
X94888000Y-129482000I0J250000D01*
G01*
X94888000Y-128582000D01*
G75*
G02*
X95138000Y-128332000I250000J0D01*
G01*
X95663000Y-128332000D01*
G75*
G02*
X95913000Y-128582000I0J-250000D01*
G01*
G37*
G36*
G01*
X94088000Y-128582000D02*
X94088000Y-129482000D01*
G75*
G02*
X93838000Y-129732000I-250000J0D01*
G01*
X93313000Y-129732000D01*
G75*
G02*
X93063000Y-129482000I0J250000D01*
G01*
X93063000Y-128582000D01*
G75*
G02*
X93313000Y-128332000I250000J0D01*
G01*
X93838000Y-128332000D01*
G75*
G02*
X94088000Y-128582000I0J-250000D01*
G01*
G37*
G36*
G01*
X101018000Y-68613000D02*
X101018000Y-69563000D01*
G75*
G02*
X100768000Y-69813000I-250000J0D01*
G01*
X100268000Y-69813000D01*
G75*
G02*
X100018000Y-69563000I0J250000D01*
G01*
X100018000Y-68613000D01*
G75*
G02*
X100268000Y-68363000I250000J0D01*
G01*
X100768000Y-68363000D01*
G75*
G02*
X101018000Y-68613000I0J-250000D01*
G01*
G37*
G36*
G01*
X99118000Y-68613000D02*
X99118000Y-69563000D01*
G75*
G02*
X98868000Y-69813000I-250000J0D01*
G01*
X98368000Y-69813000D01*
G75*
G02*
X98118000Y-69563000I0J250000D01*
G01*
X98118000Y-68613000D01*
G75*
G02*
X98368000Y-68363000I250000J0D01*
G01*
X98868000Y-68363000D01*
G75*
G02*
X99118000Y-68613000I0J-250000D01*
G01*
G37*
G36*
G01*
X96421000Y-122994000D02*
X96421000Y-123894000D01*
G75*
G02*
X96171000Y-124144000I-250000J0D01*
G01*
X95646000Y-124144000D01*
G75*
G02*
X95396000Y-123894000I0J250000D01*
G01*
X95396000Y-122994000D01*
G75*
G02*
X95646000Y-122744000I250000J0D01*
G01*
X96171000Y-122744000D01*
G75*
G02*
X96421000Y-122994000I0J-250000D01*
G01*
G37*
G36*
G01*
X94596000Y-122994000D02*
X94596000Y-123894000D01*
G75*
G02*
X94346000Y-124144000I-250000J0D01*
G01*
X93821000Y-124144000D01*
G75*
G02*
X93571000Y-123894000I0J250000D01*
G01*
X93571000Y-122994000D01*
G75*
G02*
X93821000Y-122744000I250000J0D01*
G01*
X94346000Y-122744000D01*
G75*
G02*
X94596000Y-122994000I0J-250000D01*
G01*
G37*
G36*
G01*
X105082000Y-135923000D02*
X105082000Y-136873000D01*
G75*
G02*
X104832000Y-137123000I-250000J0D01*
G01*
X104332000Y-137123000D01*
G75*
G02*
X104082000Y-136873000I0J250000D01*
G01*
X104082000Y-135923000D01*
G75*
G02*
X104332000Y-135673000I250000J0D01*
G01*
X104832000Y-135673000D01*
G75*
G02*
X105082000Y-135923000I0J-250000D01*
G01*
G37*
G36*
G01*
X103182000Y-135923000D02*
X103182000Y-136873000D01*
G75*
G02*
X102932000Y-137123000I-250000J0D01*
G01*
X102432000Y-137123000D01*
G75*
G02*
X102182000Y-136873000I0J250000D01*
G01*
X102182000Y-135923000D01*
G75*
G02*
X102432000Y-135673000I250000J0D01*
G01*
X102932000Y-135673000D01*
G75*
G02*
X103182000Y-135923000I0J-250000D01*
G01*
G37*
M02*
