G04 #@! TF.GenerationSoftware,KiCad,Pcbnew,6.0.5+dfsg-1~bpo11+1*
G04 #@! TF.CreationDate,2022-08-16T14:52:49+00:00*
G04 #@! TF.ProjectId,envelope_follower,656e7665-6c6f-4706-955f-666f6c6c6f77,0*
G04 #@! TF.SameCoordinates,Original*
G04 #@! TF.FileFunction,Legend,Top*
G04 #@! TF.FilePolarity,Positive*
%FSLAX46Y46*%
G04 Gerber Fmt 4.6, Leading zero omitted, Abs format (unit mm)*
G04 Created by KiCad (PCBNEW 6.0.5+dfsg-1~bpo11+1) date 2022-08-16 14:52:49*
%MOMM*%
%LPD*%
G01*
G04 APERTURE LIST*
%ADD10C,0.150000*%
%ADD11C,0.120000*%
%ADD12O,2.720000X3.240000*%
%ADD13R,1.800000X1.800000*%
%ADD14C,1.800000*%
%ADD15C,2.000000*%
%ADD16C,1.700000*%
%ADD17C,1.600000*%
%ADD18O,2.190000X1.740000*%
%ADD19R,1.600000X1.600000*%
G04 APERTURE END LIST*
D10*
X95924761Y-53792380D02*
X95591428Y-53316190D01*
X95353333Y-53792380D02*
X95353333Y-52792380D01*
X95734285Y-52792380D01*
X95829523Y-52840000D01*
X95877142Y-52887619D01*
X95924761Y-52982857D01*
X95924761Y-53125714D01*
X95877142Y-53220952D01*
X95829523Y-53268571D01*
X95734285Y-53316190D01*
X95353333Y-53316190D01*
X96210476Y-52792380D02*
X96543809Y-53792380D01*
X96877142Y-52792380D01*
X97734285Y-53792380D02*
X97162857Y-53792380D01*
X97448571Y-53792380D02*
X97448571Y-52792380D01*
X97353333Y-52935238D01*
X97258095Y-53030476D01*
X97162857Y-53078095D01*
X100861904Y-70810380D02*
X100861904Y-69810380D01*
X101100000Y-69810380D01*
X101242857Y-69858000D01*
X101338095Y-69953238D01*
X101385714Y-70048476D01*
X101433333Y-70238952D01*
X101433333Y-70381809D01*
X101385714Y-70572285D01*
X101338095Y-70667523D01*
X101242857Y-70762761D01*
X101100000Y-70810380D01*
X100861904Y-70810380D01*
X101766666Y-69810380D02*
X102433333Y-69810380D01*
X102004761Y-70810380D01*
X95924761Y-110942380D02*
X95591428Y-110466190D01*
X95353333Y-110942380D02*
X95353333Y-109942380D01*
X95734285Y-109942380D01*
X95829523Y-109990000D01*
X95877142Y-110037619D01*
X95924761Y-110132857D01*
X95924761Y-110275714D01*
X95877142Y-110370952D01*
X95829523Y-110418571D01*
X95734285Y-110466190D01*
X95353333Y-110466190D01*
X96210476Y-109942380D02*
X96543809Y-110942380D01*
X96877142Y-109942380D01*
X97162857Y-110037619D02*
X97210476Y-109990000D01*
X97305714Y-109942380D01*
X97543809Y-109942380D01*
X97639047Y-109990000D01*
X97686666Y-110037619D01*
X97734285Y-110132857D01*
X97734285Y-110228095D01*
X97686666Y-110370952D01*
X97115238Y-110942380D01*
X97734285Y-110942380D01*
X95924761Y-225242380D02*
X95591428Y-224766190D01*
X95353333Y-225242380D02*
X95353333Y-224242380D01*
X95734285Y-224242380D01*
X95829523Y-224290000D01*
X95877142Y-224337619D01*
X95924761Y-224432857D01*
X95924761Y-224575714D01*
X95877142Y-224670952D01*
X95829523Y-224718571D01*
X95734285Y-224766190D01*
X95353333Y-224766190D01*
X96210476Y-224242380D02*
X96543809Y-225242380D01*
X96877142Y-224242380D01*
X97639047Y-224575714D02*
X97639047Y-225242380D01*
X97400952Y-224194761D02*
X97162857Y-224909047D01*
X97781904Y-224909047D01*
X95924761Y-168092380D02*
X95591428Y-167616190D01*
X95353333Y-168092380D02*
X95353333Y-167092380D01*
X95734285Y-167092380D01*
X95829523Y-167140000D01*
X95877142Y-167187619D01*
X95924761Y-167282857D01*
X95924761Y-167425714D01*
X95877142Y-167520952D01*
X95829523Y-167568571D01*
X95734285Y-167616190D01*
X95353333Y-167616190D01*
X96210476Y-167092380D02*
X96543809Y-168092380D01*
X96877142Y-167092380D01*
X97115238Y-167092380D02*
X97734285Y-167092380D01*
X97400952Y-167473333D01*
X97543809Y-167473333D01*
X97639047Y-167520952D01*
X97686666Y-167568571D01*
X97734285Y-167663809D01*
X97734285Y-167901904D01*
X97686666Y-167997142D01*
X97639047Y-168044761D01*
X97543809Y-168092380D01*
X97258095Y-168092380D01*
X97162857Y-168044761D01*
X97115238Y-167997142D01*
X91956095Y-110490380D02*
X92527523Y-110490380D01*
X92241809Y-111490380D02*
X92241809Y-110490380D01*
X92860857Y-111490380D02*
X92860857Y-110490380D01*
X93241809Y-110490380D01*
X93337047Y-110538000D01*
X93384666Y-110585619D01*
X93432285Y-110680857D01*
X93432285Y-110823714D01*
X93384666Y-110918952D01*
X93337047Y-110966571D01*
X93241809Y-111014190D01*
X92860857Y-111014190D01*
X93765619Y-110490380D02*
X94384666Y-110490380D01*
X94051333Y-110871333D01*
X94194190Y-110871333D01*
X94289428Y-110918952D01*
X94337047Y-110966571D01*
X94384666Y-111061809D01*
X94384666Y-111299904D01*
X94337047Y-111395142D01*
X94289428Y-111442761D01*
X94194190Y-111490380D01*
X93908476Y-111490380D01*
X93813238Y-111442761D01*
X93765619Y-111395142D01*
D11*
X100810000Y-52460000D02*
X100280000Y-52460000D01*
X97910000Y-52460000D02*
X96730000Y-52460000D01*
X103260000Y-52460000D02*
X102430000Y-52460000D01*
X106470000Y-52460000D02*
X104980000Y-52460000D01*
X96730000Y-43930000D02*
X96730000Y-40870000D01*
X106470000Y-40870000D02*
X96730000Y-40870000D01*
X96720000Y-52460000D02*
X96720000Y-47740000D01*
X106470000Y-52460000D02*
X106470000Y-47740000D01*
X106470000Y-43930000D02*
X106470000Y-40870000D01*
X100055000Y-76860000D02*
X103145000Y-76860000D01*
X101600462Y-71310000D02*
G75*
G03*
X100055170Y-76860000I-462J-2990000D01*
G01*
X103144830Y-76860000D02*
G75*
G03*
X101599538Y-71310000I-1544830J2560000D01*
G01*
X104100000Y-74300000D02*
G75*
G03*
X104100000Y-74300000I-2500000J0D01*
G01*
X106470000Y-109610000D02*
X104980000Y-109610000D01*
X106470000Y-101080000D02*
X106470000Y-98020000D01*
X96720000Y-109610000D02*
X96720000Y-104890000D01*
X106470000Y-109610000D02*
X106470000Y-104890000D01*
X96730000Y-101080000D02*
X96730000Y-98020000D01*
X100810000Y-109610000D02*
X100280000Y-109610000D01*
X97910000Y-109610000D02*
X96730000Y-109610000D01*
X103260000Y-109610000D02*
X102430000Y-109610000D01*
X106470000Y-98020000D02*
X96730000Y-98020000D01*
X106430000Y-215380000D02*
X106430000Y-212320000D01*
X103220000Y-223910000D02*
X102390000Y-223910000D01*
X100770000Y-223910000D02*
X100240000Y-223910000D01*
X97870000Y-223910000D02*
X96690000Y-223910000D01*
X106430000Y-212320000D02*
X96690000Y-212320000D01*
X96680000Y-223910000D02*
X96680000Y-219190000D01*
X96690000Y-215380000D02*
X96690000Y-212320000D01*
X106430000Y-223910000D02*
X106430000Y-219190000D01*
X106430000Y-223910000D02*
X104940000Y-223910000D01*
X100770000Y-166760000D02*
X100240000Y-166760000D01*
X96690000Y-158230000D02*
X96690000Y-155170000D01*
X106430000Y-158230000D02*
X106430000Y-155170000D01*
X106430000Y-166760000D02*
X106430000Y-162040000D01*
X97870000Y-166760000D02*
X96690000Y-166760000D01*
X106430000Y-166760000D02*
X104940000Y-166760000D01*
X96680000Y-166760000D02*
X96680000Y-162040000D01*
X106430000Y-155170000D02*
X96690000Y-155170000D01*
X103220000Y-166760000D02*
X102390000Y-166760000D01*
D10*
X94618000Y-113538000D02*
G75*
G03*
X94618000Y-113538000I-1400000J0D01*
G01*
%LPC*%
D12*
X106400000Y-45840000D03*
X96800000Y-45840000D03*
D13*
X99100000Y-53340000D03*
D14*
X101600000Y-53340000D03*
X104100000Y-53340000D03*
D13*
X101600000Y-75570000D03*
D14*
X101600000Y-73030000D03*
D12*
X106400000Y-102990000D03*
X96800000Y-102990000D03*
D13*
X99100000Y-110490000D03*
D14*
X101600000Y-110490000D03*
X104100000Y-110490000D03*
D12*
X96760000Y-217290000D03*
X106360000Y-217290000D03*
D13*
X99060000Y-224790000D03*
D14*
X101560000Y-224790000D03*
X104060000Y-224790000D03*
D12*
X96760000Y-160140000D03*
X106360000Y-160140000D03*
D13*
X99060000Y-167640000D03*
D14*
X101560000Y-167640000D03*
X104060000Y-167640000D03*
D15*
X93218000Y-113538000D03*
G36*
G01*
X107280000Y-204802500D02*
X106080000Y-204802500D01*
G75*
G02*
X105830000Y-204552500I0J250000D01*
G01*
X105830000Y-203352500D01*
G75*
G02*
X106080000Y-203102500I250000J0D01*
G01*
X107280000Y-203102500D01*
G75*
G02*
X107530000Y-203352500I0J-250000D01*
G01*
X107530000Y-204552500D01*
G75*
G02*
X107280000Y-204802500I-250000J0D01*
G01*
G37*
D16*
X106680000Y-201412500D03*
X104140000Y-203952500D03*
X104140000Y-201412500D03*
X101600000Y-203952500D03*
X101600000Y-201412500D03*
X99060000Y-203952500D03*
X99060000Y-201412500D03*
X96520000Y-203952500D03*
X96520000Y-201412500D03*
D15*
X93218000Y-75438000D03*
D17*
X112990000Y-137922000D03*
X107990000Y-137922000D03*
G36*
G01*
X93135000Y-93110000D02*
X94825000Y-93110000D01*
G75*
G02*
X95075000Y-93360000I0J-250000D01*
G01*
X95075000Y-94600000D01*
G75*
G02*
X94825000Y-94850000I-250000J0D01*
G01*
X93135000Y-94850000D01*
G75*
G02*
X92885000Y-94600000I0J250000D01*
G01*
X92885000Y-93360000D01*
G75*
G02*
X93135000Y-93110000I250000J0D01*
G01*
G37*
D18*
X93980000Y-96520000D03*
X93980000Y-99060000D03*
D19*
X106640000Y-191770000D03*
D17*
X104140000Y-191770000D03*
D19*
X99060000Y-191516000D03*
D17*
X96560000Y-191516000D03*
G36*
G01*
X110045000Y-91040000D02*
X108355000Y-91040000D01*
G75*
G02*
X108105000Y-90790000I0J250000D01*
G01*
X108105000Y-89550000D01*
G75*
G02*
X108355000Y-89300000I250000J0D01*
G01*
X110045000Y-89300000D01*
G75*
G02*
X110295000Y-89550000I0J-250000D01*
G01*
X110295000Y-90790000D01*
G75*
G02*
X110045000Y-91040000I-250000J0D01*
G01*
G37*
D18*
X109200000Y-87630000D03*
X109200000Y-85090000D03*
X109200000Y-82550000D03*
D15*
X93472000Y-48768000D03*
X109982000Y-170688000D03*
D19*
X94488000Y-141478000D03*
D17*
X91988000Y-141478000D03*
D15*
X93218000Y-170688000D03*
D17*
X112736000Y-127762000D03*
X107736000Y-127762000D03*
M02*
