G04 #@! TF.GenerationSoftware,KiCad,Pcbnew,6.0.5+dfsg-1~bpo11+1*
G04 #@! TF.CreationDate,2022-08-16T14:52:49+00:00*
G04 #@! TF.ProjectId,envelope_follower,656e7665-6c6f-4706-955f-666f6c6c6f77,0*
G04 #@! TF.SameCoordinates,Original*
G04 #@! TF.FileFunction,Legend,Bot*
G04 #@! TF.FilePolarity,Positive*
%FSLAX46Y46*%
G04 Gerber Fmt 4.6, Leading zero omitted, Abs format (unit mm)*
G04 Created by KiCad (PCBNEW 6.0.5+dfsg-1~bpo11+1) date 2022-08-16 14:52:49*
%MOMM*%
%LPD*%
G01*
G04 APERTURE LIST*
%ADD10C,0.150000*%
%ADD11C,0.300000*%
%ADD12C,0.120000*%
%ADD13O,2.720000X3.240000*%
%ADD14R,1.800000X1.800000*%
%ADD15C,1.800000*%
%ADD16C,2.000000*%
%ADD17C,1.700000*%
%ADD18R,0.900000X1.200000*%
%ADD19C,1.600000*%
%ADD20O,2.190000X1.740000*%
%ADD21R,1.600000X1.600000*%
G04 APERTURE END LIST*
D10*
X99060000Y-196850000D02*
X99060000Y-197485000D01*
X99695000Y-196850000D02*
X99060000Y-196850000D01*
X104140000Y-196850000D02*
X104140000Y-197485000D01*
X103505000Y-196850000D02*
X104140000Y-196850000D01*
X104106023Y-96924761D02*
X103963166Y-96972380D01*
X103725071Y-96972380D01*
X103629833Y-96924761D01*
X103582214Y-96877142D01*
X103534595Y-96781904D01*
X103534595Y-96686666D01*
X103582214Y-96591428D01*
X103629833Y-96543809D01*
X103725071Y-96496190D01*
X103915547Y-96448571D01*
X104010785Y-96400952D01*
X104058404Y-96353333D01*
X104106023Y-96258095D01*
X104106023Y-96162857D01*
X104058404Y-96067619D01*
X104010785Y-96020000D01*
X103915547Y-95972380D01*
X103677452Y-95972380D01*
X103534595Y-96020000D01*
X103106023Y-96972380D02*
X103106023Y-95972380D01*
X102106023Y-96020000D02*
X102201261Y-95972380D01*
X102344119Y-95972380D01*
X102486976Y-96020000D01*
X102582214Y-96115238D01*
X102629833Y-96210476D01*
X102677452Y-96400952D01*
X102677452Y-96543809D01*
X102629833Y-96734285D01*
X102582214Y-96829523D01*
X102486976Y-96924761D01*
X102344119Y-96972380D01*
X102248880Y-96972380D01*
X102106023Y-96924761D01*
X102058404Y-96877142D01*
X102058404Y-96543809D01*
X102248880Y-96543809D01*
X100867928Y-96972380D02*
X100867928Y-95972380D01*
X100391738Y-96972380D02*
X100391738Y-95972380D01*
X99820309Y-96972380D01*
X99820309Y-95972380D01*
X103534595Y-98560000D02*
X103629833Y-98512380D01*
X103772690Y-98512380D01*
X103915547Y-98560000D01*
X104010785Y-98655238D01*
X104058404Y-98750476D01*
X104106023Y-98940952D01*
X104106023Y-99083809D01*
X104058404Y-99274285D01*
X104010785Y-99369523D01*
X103915547Y-99464761D01*
X103772690Y-99512380D01*
X103677452Y-99512380D01*
X103534595Y-99464761D01*
X103486976Y-99417142D01*
X103486976Y-99083809D01*
X103677452Y-99083809D01*
X103058404Y-99512380D02*
X103058404Y-98512380D01*
X102486976Y-99512380D01*
X102486976Y-98512380D01*
X102010785Y-99512380D02*
X102010785Y-98512380D01*
X101772690Y-98512380D01*
X101629833Y-98560000D01*
X101534595Y-98655238D01*
X101486976Y-98750476D01*
X101439357Y-98940952D01*
X101439357Y-99083809D01*
X101486976Y-99274285D01*
X101534595Y-99369523D01*
X101629833Y-99464761D01*
X101772690Y-99512380D01*
X102010785Y-99512380D01*
X94400571Y-51490571D02*
X94733904Y-51490571D01*
X94733904Y-52014380D02*
X94733904Y-51014380D01*
X94257714Y-51014380D01*
X93972000Y-51014380D02*
X93733904Y-52014380D01*
X93543428Y-51300095D01*
X93352952Y-52014380D01*
X93114857Y-51014380D01*
X92162476Y-52014380D02*
X92495809Y-51538190D01*
X92733904Y-52014380D02*
X92733904Y-51014380D01*
X92352952Y-51014380D01*
X92257714Y-51062000D01*
X92210095Y-51109619D01*
X92162476Y-51204857D01*
X92162476Y-51347714D01*
X92210095Y-51442952D01*
X92257714Y-51490571D01*
X92352952Y-51538190D01*
X92733904Y-51538190D01*
X107632380Y-196302380D02*
X107299047Y-197302380D01*
X106965714Y-196302380D01*
X106632380Y-196921428D02*
X105870476Y-196921428D01*
X104530595Y-84590000D02*
X104625833Y-84542380D01*
X104768690Y-84542380D01*
X104911547Y-84590000D01*
X105006785Y-84685238D01*
X105054404Y-84780476D01*
X105102023Y-84970952D01*
X105102023Y-85113809D01*
X105054404Y-85304285D01*
X105006785Y-85399523D01*
X104911547Y-85494761D01*
X104768690Y-85542380D01*
X104673452Y-85542380D01*
X104530595Y-85494761D01*
X104482976Y-85447142D01*
X104482976Y-85113809D01*
X104673452Y-85113809D01*
X104054404Y-85542380D02*
X104054404Y-84542380D01*
X103482976Y-85542380D01*
X103482976Y-84542380D01*
X103006785Y-85542380D02*
X103006785Y-84542380D01*
X102768690Y-84542380D01*
X102625833Y-84590000D01*
X102530595Y-84685238D01*
X102482976Y-84780476D01*
X102435357Y-84970952D01*
X102435357Y-85113809D01*
X102482976Y-85304285D01*
X102530595Y-85399523D01*
X102625833Y-85494761D01*
X102768690Y-85542380D01*
X103006785Y-85542380D01*
X114827619Y-92740952D02*
X113827619Y-92407619D01*
X114827619Y-92074285D01*
X113922857Y-91169523D02*
X113875238Y-91217142D01*
X113827619Y-91360000D01*
X113827619Y-91455238D01*
X113875238Y-91598095D01*
X113970476Y-91693333D01*
X114065714Y-91740952D01*
X114256190Y-91788571D01*
X114399047Y-91788571D01*
X114589523Y-91740952D01*
X114684761Y-91693333D01*
X114780000Y-91598095D01*
X114827619Y-91455238D01*
X114827619Y-91360000D01*
X114780000Y-91217142D01*
X114732380Y-91169523D01*
X114351428Y-90407619D02*
X114351428Y-90740952D01*
X113827619Y-90740952D02*
X114827619Y-90740952D01*
X114827619Y-90264761D01*
X114351428Y-88788571D02*
X114303809Y-88645714D01*
X114256190Y-88598095D01*
X114160952Y-88550476D01*
X114018095Y-88550476D01*
X113922857Y-88598095D01*
X113875238Y-88645714D01*
X113827619Y-88740952D01*
X113827619Y-89121904D01*
X114827619Y-89121904D01*
X114827619Y-88788571D01*
X114780000Y-88693333D01*
X114732380Y-88645714D01*
X114637142Y-88598095D01*
X114541904Y-88598095D01*
X114446666Y-88645714D01*
X114399047Y-88693333D01*
X114351428Y-88788571D01*
X114351428Y-89121904D01*
X114827619Y-87931428D02*
X114827619Y-87740952D01*
X114780000Y-87645714D01*
X114684761Y-87550476D01*
X114494285Y-87502857D01*
X114160952Y-87502857D01*
X113970476Y-87550476D01*
X113875238Y-87645714D01*
X113827619Y-87740952D01*
X113827619Y-87931428D01*
X113875238Y-88026666D01*
X113970476Y-88121904D01*
X114160952Y-88169523D01*
X114494285Y-88169523D01*
X114684761Y-88121904D01*
X114780000Y-88026666D01*
X114827619Y-87931428D01*
X114113333Y-87121904D02*
X114113333Y-86645714D01*
X113827619Y-87217142D02*
X114827619Y-86883809D01*
X113827619Y-86550476D01*
X113827619Y-85645714D02*
X114303809Y-85979047D01*
X113827619Y-86217142D02*
X114827619Y-86217142D01*
X114827619Y-85836190D01*
X114780000Y-85740952D01*
X114732380Y-85693333D01*
X114637142Y-85645714D01*
X114494285Y-85645714D01*
X114399047Y-85693333D01*
X114351428Y-85740952D01*
X114303809Y-85836190D01*
X114303809Y-86217142D01*
X113827619Y-85217142D02*
X114827619Y-85217142D01*
X114827619Y-84979047D01*
X114780000Y-84836190D01*
X114684761Y-84740952D01*
X114589523Y-84693333D01*
X114399047Y-84645714D01*
X114256190Y-84645714D01*
X114065714Y-84693333D01*
X113970476Y-84740952D01*
X113875238Y-84836190D01*
X113827619Y-84979047D01*
X113827619Y-85217142D01*
X113827619Y-83455238D02*
X114827619Y-83455238D01*
X114827619Y-83074285D01*
X114780000Y-82979047D01*
X114732380Y-82931428D01*
X114637142Y-82883809D01*
X114494285Y-82883809D01*
X114399047Y-82931428D01*
X114351428Y-82979047D01*
X114303809Y-83074285D01*
X114303809Y-83455238D01*
X114827619Y-82264761D02*
X114827619Y-82074285D01*
X114780000Y-81979047D01*
X114684761Y-81883809D01*
X114494285Y-81836190D01*
X114160952Y-81836190D01*
X113970476Y-81883809D01*
X113875238Y-81979047D01*
X113827619Y-82074285D01*
X113827619Y-82264761D01*
X113875238Y-82360000D01*
X113970476Y-82455238D01*
X114160952Y-82502857D01*
X114494285Y-82502857D01*
X114684761Y-82455238D01*
X114780000Y-82360000D01*
X114827619Y-82264761D01*
X113827619Y-80836190D02*
X114303809Y-81169523D01*
X113827619Y-81407619D02*
X114827619Y-81407619D01*
X114827619Y-81026666D01*
X114780000Y-80931428D01*
X114732380Y-80883809D01*
X114637142Y-80836190D01*
X114494285Y-80836190D01*
X114399047Y-80883809D01*
X114351428Y-80931428D01*
X114303809Y-81026666D01*
X114303809Y-81407619D01*
X114827619Y-80550476D02*
X114827619Y-79979047D01*
X113827619Y-80264761D02*
X114827619Y-80264761D01*
X102361904Y-196350000D02*
X102457142Y-196302380D01*
X102600000Y-196302380D01*
X102742857Y-196350000D01*
X102838095Y-196445238D01*
X102885714Y-196540476D01*
X102933333Y-196730952D01*
X102933333Y-196873809D01*
X102885714Y-197064285D01*
X102838095Y-197159523D01*
X102742857Y-197254761D01*
X102600000Y-197302380D01*
X102504761Y-197302380D01*
X102361904Y-197254761D01*
X102314285Y-197207142D01*
X102314285Y-196873809D01*
X102504761Y-196873809D01*
X101885714Y-197302380D02*
X101885714Y-196302380D01*
X101314285Y-197302380D01*
X101314285Y-196302380D01*
X100838095Y-197302380D02*
X100838095Y-196302380D01*
X100600000Y-196302380D01*
X100457142Y-196350000D01*
X100361904Y-196445238D01*
X100314285Y-196540476D01*
X100266666Y-196730952D01*
X100266666Y-196873809D01*
X100314285Y-197064285D01*
X100361904Y-197159523D01*
X100457142Y-197254761D01*
X100600000Y-197302380D01*
X100838095Y-197302380D01*
X113964404Y-153258571D02*
X113631071Y-153258571D01*
X113488214Y-153782380D02*
X113964404Y-153782380D01*
X113964404Y-152782380D01*
X113488214Y-152782380D01*
X113059642Y-153115714D02*
X113059642Y-153782380D01*
X113059642Y-153210952D02*
X113012023Y-153163333D01*
X112916785Y-153115714D01*
X112773928Y-153115714D01*
X112678690Y-153163333D01*
X112631071Y-153258571D01*
X112631071Y-153782380D01*
X112250119Y-153115714D02*
X112012023Y-153782380D01*
X111773928Y-153115714D01*
X111012023Y-153734761D02*
X111107261Y-153782380D01*
X111297738Y-153782380D01*
X111392976Y-153734761D01*
X111440595Y-153639523D01*
X111440595Y-153258571D01*
X111392976Y-153163333D01*
X111297738Y-153115714D01*
X111107261Y-153115714D01*
X111012023Y-153163333D01*
X110964404Y-153258571D01*
X110964404Y-153353809D01*
X111440595Y-153449047D01*
X110392976Y-153782380D02*
X110488214Y-153734761D01*
X110535833Y-153639523D01*
X110535833Y-152782380D01*
X109869166Y-153782380D02*
X109964404Y-153734761D01*
X110012023Y-153687142D01*
X110059642Y-153591904D01*
X110059642Y-153306190D01*
X110012023Y-153210952D01*
X109964404Y-153163333D01*
X109869166Y-153115714D01*
X109726309Y-153115714D01*
X109631071Y-153163333D01*
X109583452Y-153210952D01*
X109535833Y-153306190D01*
X109535833Y-153591904D01*
X109583452Y-153687142D01*
X109631071Y-153734761D01*
X109726309Y-153782380D01*
X109869166Y-153782380D01*
X109107261Y-153115714D02*
X109107261Y-154115714D01*
X109107261Y-153163333D02*
X109012023Y-153115714D01*
X108821547Y-153115714D01*
X108726309Y-153163333D01*
X108678690Y-153210952D01*
X108631071Y-153306190D01*
X108631071Y-153591904D01*
X108678690Y-153687142D01*
X108726309Y-153734761D01*
X108821547Y-153782380D01*
X109012023Y-153782380D01*
X109107261Y-153734761D01*
X107821547Y-153734761D02*
X107916785Y-153782380D01*
X108107261Y-153782380D01*
X108202500Y-153734761D01*
X108250119Y-153639523D01*
X108250119Y-153258571D01*
X108202500Y-153163333D01*
X108107261Y-153115714D01*
X107916785Y-153115714D01*
X107821547Y-153163333D01*
X107773928Y-153258571D01*
X107773928Y-153353809D01*
X108250119Y-153449047D01*
X106250119Y-153258571D02*
X106583452Y-153258571D01*
X106583452Y-153782380D02*
X106583452Y-152782380D01*
X106107261Y-152782380D01*
X105583452Y-153782380D02*
X105678690Y-153734761D01*
X105726309Y-153687142D01*
X105773928Y-153591904D01*
X105773928Y-153306190D01*
X105726309Y-153210952D01*
X105678690Y-153163333D01*
X105583452Y-153115714D01*
X105440595Y-153115714D01*
X105345357Y-153163333D01*
X105297738Y-153210952D01*
X105250119Y-153306190D01*
X105250119Y-153591904D01*
X105297738Y-153687142D01*
X105345357Y-153734761D01*
X105440595Y-153782380D01*
X105583452Y-153782380D01*
X104678690Y-153782380D02*
X104773928Y-153734761D01*
X104821547Y-153639523D01*
X104821547Y-152782380D01*
X104154880Y-153782380D02*
X104250119Y-153734761D01*
X104297738Y-153639523D01*
X104297738Y-152782380D01*
X103631071Y-153782380D02*
X103726309Y-153734761D01*
X103773928Y-153687142D01*
X103821547Y-153591904D01*
X103821547Y-153306190D01*
X103773928Y-153210952D01*
X103726309Y-153163333D01*
X103631071Y-153115714D01*
X103488214Y-153115714D01*
X103392976Y-153163333D01*
X103345357Y-153210952D01*
X103297738Y-153306190D01*
X103297738Y-153591904D01*
X103345357Y-153687142D01*
X103392976Y-153734761D01*
X103488214Y-153782380D01*
X103631071Y-153782380D01*
X102964404Y-153115714D02*
X102773928Y-153782380D01*
X102583452Y-153306190D01*
X102392976Y-153782380D01*
X102202500Y-153115714D01*
X101440595Y-153734761D02*
X101535833Y-153782380D01*
X101726309Y-153782380D01*
X101821547Y-153734761D01*
X101869166Y-153639523D01*
X101869166Y-153258571D01*
X101821547Y-153163333D01*
X101726309Y-153115714D01*
X101535833Y-153115714D01*
X101440595Y-153163333D01*
X101392976Y-153258571D01*
X101392976Y-153353809D01*
X101869166Y-153449047D01*
X100964404Y-153782380D02*
X100964404Y-153115714D01*
X100964404Y-153306190D02*
X100916785Y-153210952D01*
X100869166Y-153163333D01*
X100773928Y-153115714D01*
X100678690Y-153115714D01*
X113964404Y-155392380D02*
X113964404Y-154725714D01*
X113964404Y-154916190D02*
X113916785Y-154820952D01*
X113869166Y-154773333D01*
X113773928Y-154725714D01*
X113678690Y-154725714D01*
X112964404Y-155344761D02*
X113059642Y-155392380D01*
X113250119Y-155392380D01*
X113345357Y-155344761D01*
X113392976Y-155249523D01*
X113392976Y-154868571D01*
X113345357Y-154773333D01*
X113250119Y-154725714D01*
X113059642Y-154725714D01*
X112964404Y-154773333D01*
X112916785Y-154868571D01*
X112916785Y-154963809D01*
X113392976Y-155059047D01*
X112583452Y-154725714D02*
X112345357Y-155392380D01*
X112107261Y-154725714D01*
X110773928Y-154392380D02*
X110678690Y-154392380D01*
X110583452Y-154440000D01*
X110535833Y-154487619D01*
X110488214Y-154582857D01*
X110440595Y-154773333D01*
X110440595Y-155011428D01*
X110488214Y-155201904D01*
X110535833Y-155297142D01*
X110583452Y-155344761D01*
X110678690Y-155392380D01*
X110773928Y-155392380D01*
X110869166Y-155344761D01*
X110916785Y-155297142D01*
X110964404Y-155201904D01*
X111012023Y-155011428D01*
X111012023Y-154773333D01*
X110964404Y-154582857D01*
X110916785Y-154487619D01*
X110869166Y-154440000D01*
X110773928Y-154392380D01*
X114012023Y-156097619D02*
X113964404Y-156050000D01*
X113869166Y-156002380D01*
X113631071Y-156002380D01*
X113535833Y-156050000D01*
X113488214Y-156097619D01*
X113440595Y-156192857D01*
X113440595Y-156288095D01*
X113488214Y-156430952D01*
X114059642Y-157002380D01*
X113440595Y-157002380D01*
X112821547Y-156002380D02*
X112726309Y-156002380D01*
X112631071Y-156050000D01*
X112583452Y-156097619D01*
X112535833Y-156192857D01*
X112488214Y-156383333D01*
X112488214Y-156621428D01*
X112535833Y-156811904D01*
X112583452Y-156907142D01*
X112631071Y-156954761D01*
X112726309Y-157002380D01*
X112821547Y-157002380D01*
X112916785Y-156954761D01*
X112964404Y-156907142D01*
X113012023Y-156811904D01*
X113059642Y-156621428D01*
X113059642Y-156383333D01*
X113012023Y-156192857D01*
X112964404Y-156097619D01*
X112916785Y-156050000D01*
X112821547Y-156002380D01*
X112107261Y-156097619D02*
X112059642Y-156050000D01*
X111964404Y-156002380D01*
X111726309Y-156002380D01*
X111631071Y-156050000D01*
X111583452Y-156097619D01*
X111535833Y-156192857D01*
X111535833Y-156288095D01*
X111583452Y-156430952D01*
X112154880Y-157002380D01*
X111535833Y-157002380D01*
X111154880Y-156097619D02*
X111107261Y-156050000D01*
X111012023Y-156002380D01*
X110773928Y-156002380D01*
X110678690Y-156050000D01*
X110631071Y-156097619D01*
X110583452Y-156192857D01*
X110583452Y-156288095D01*
X110631071Y-156430952D01*
X111202500Y-157002380D01*
X110583452Y-157002380D01*
X110154880Y-156621428D02*
X109392976Y-156621428D01*
X108726309Y-156002380D02*
X108631071Y-156002380D01*
X108535833Y-156050000D01*
X108488214Y-156097619D01*
X108440595Y-156192857D01*
X108392976Y-156383333D01*
X108392976Y-156621428D01*
X108440595Y-156811904D01*
X108488214Y-156907142D01*
X108535833Y-156954761D01*
X108631071Y-157002380D01*
X108726309Y-157002380D01*
X108821547Y-156954761D01*
X108869166Y-156907142D01*
X108916785Y-156811904D01*
X108964404Y-156621428D01*
X108964404Y-156383333D01*
X108916785Y-156192857D01*
X108869166Y-156097619D01*
X108821547Y-156050000D01*
X108726309Y-156002380D01*
X107488214Y-156002380D02*
X107964404Y-156002380D01*
X108012023Y-156478571D01*
X107964404Y-156430952D01*
X107869166Y-156383333D01*
X107631071Y-156383333D01*
X107535833Y-156430952D01*
X107488214Y-156478571D01*
X107440595Y-156573809D01*
X107440595Y-156811904D01*
X107488214Y-156907142D01*
X107535833Y-156954761D01*
X107631071Y-157002380D01*
X107869166Y-157002380D01*
X107964404Y-156954761D01*
X108012023Y-156907142D01*
X107012023Y-156621428D02*
X106250119Y-156621428D01*
X105821547Y-156097619D02*
X105773928Y-156050000D01*
X105678690Y-156002380D01*
X105440595Y-156002380D01*
X105345357Y-156050000D01*
X105297738Y-156097619D01*
X105250119Y-156192857D01*
X105250119Y-156288095D01*
X105297738Y-156430952D01*
X105869166Y-157002380D01*
X105250119Y-157002380D01*
X104392976Y-156002380D02*
X104583452Y-156002380D01*
X104678690Y-156050000D01*
X104726309Y-156097619D01*
X104821547Y-156240476D01*
X104869166Y-156430952D01*
X104869166Y-156811904D01*
X104821547Y-156907142D01*
X104773928Y-156954761D01*
X104678690Y-157002380D01*
X104488214Y-157002380D01*
X104392976Y-156954761D01*
X104345357Y-156907142D01*
X104297738Y-156811904D01*
X104297738Y-156573809D01*
X104345357Y-156478571D01*
X104392976Y-156430952D01*
X104488214Y-156383333D01*
X104678690Y-156383333D01*
X104773928Y-156430952D01*
X104821547Y-156478571D01*
X104869166Y-156573809D01*
X105102023Y-82716666D02*
X104625833Y-82716666D01*
X105197261Y-83002380D02*
X104863928Y-82002380D01*
X104530595Y-83002380D01*
X104197261Y-82002380D02*
X104197261Y-82811904D01*
X104149642Y-82907142D01*
X104102023Y-82954761D01*
X104006785Y-83002380D01*
X103816309Y-83002380D01*
X103721071Y-82954761D01*
X103673452Y-82907142D01*
X103625833Y-82811904D01*
X103625833Y-82002380D01*
X103149642Y-83002380D02*
X103149642Y-82002380D01*
X102911547Y-82002380D01*
X102768690Y-82050000D01*
X102673452Y-82145238D01*
X102625833Y-82240476D01*
X102578214Y-82430952D01*
X102578214Y-82573809D01*
X102625833Y-82764285D01*
X102673452Y-82859523D01*
X102768690Y-82954761D01*
X102911547Y-83002380D01*
X103149642Y-83002380D01*
X102149642Y-83002380D02*
X102149642Y-82002380D01*
X101482976Y-82002380D02*
X101292500Y-82002380D01*
X101197261Y-82050000D01*
X101102023Y-82145238D01*
X101054404Y-82335714D01*
X101054404Y-82669047D01*
X101102023Y-82859523D01*
X101197261Y-82954761D01*
X101292500Y-83002380D01*
X101482976Y-83002380D01*
X101578214Y-82954761D01*
X101673452Y-82859523D01*
X101721071Y-82669047D01*
X101721071Y-82335714D01*
X101673452Y-82145238D01*
X101578214Y-82050000D01*
X101482976Y-82002380D01*
X99863928Y-83002380D02*
X99863928Y-82002380D01*
X99387738Y-83002380D02*
X99387738Y-82002380D01*
X98816309Y-83002380D01*
X98816309Y-82002380D01*
X111434380Y-173410571D02*
X111101047Y-173410571D01*
X110958190Y-173934380D02*
X111434380Y-173934380D01*
X111434380Y-172934380D01*
X110958190Y-172934380D01*
X110196285Y-173410571D02*
X110529619Y-173410571D01*
X110529619Y-173934380D02*
X110529619Y-172934380D01*
X110053428Y-172934380D01*
X108958190Y-173648666D02*
X108482000Y-173648666D01*
X109053428Y-173934380D02*
X108720095Y-172934380D01*
X108386761Y-173934380D01*
X105054404Y-87558571D02*
X104721071Y-87558571D01*
X104578214Y-88082380D02*
X105054404Y-88082380D01*
X105054404Y-87082380D01*
X104578214Y-87082380D01*
X103816309Y-87558571D02*
X104149642Y-87558571D01*
X104149642Y-88082380D02*
X104149642Y-87082380D01*
X103673452Y-87082380D01*
X102578214Y-87796666D02*
X102102023Y-87796666D01*
X102673452Y-88082380D02*
X102340119Y-87082380D01*
X102006785Y-88082380D01*
X100721071Y-87082380D02*
X100530595Y-87082380D01*
X100435357Y-87130000D01*
X100340119Y-87225238D01*
X100292500Y-87415714D01*
X100292500Y-87749047D01*
X100340119Y-87939523D01*
X100435357Y-88034761D01*
X100530595Y-88082380D01*
X100721071Y-88082380D01*
X100816309Y-88034761D01*
X100911547Y-87939523D01*
X100959166Y-87749047D01*
X100959166Y-87415714D01*
X100911547Y-87225238D01*
X100816309Y-87130000D01*
X100721071Y-87082380D01*
X99863928Y-87082380D02*
X99863928Y-87891904D01*
X99816309Y-87987142D01*
X99768690Y-88034761D01*
X99673452Y-88082380D01*
X99482976Y-88082380D01*
X99387738Y-88034761D01*
X99340119Y-87987142D01*
X99292500Y-87891904D01*
X99292500Y-87082380D01*
X98959166Y-87082380D02*
X98387738Y-87082380D01*
X98673452Y-88082380D02*
X98673452Y-87082380D01*
X95170380Y-117038380D02*
X95503714Y-116562190D01*
X95741809Y-117038380D02*
X95741809Y-116038380D01*
X95360857Y-116038380D01*
X95265619Y-116086000D01*
X95218000Y-116133619D01*
X95170380Y-116228857D01*
X95170380Y-116371714D01*
X95218000Y-116466952D01*
X95265619Y-116514571D01*
X95360857Y-116562190D01*
X95741809Y-116562190D01*
X94789428Y-116752666D02*
X94313238Y-116752666D01*
X94884666Y-117038380D02*
X94551333Y-116038380D01*
X94218000Y-117038380D01*
X93979904Y-116038380D02*
X93741809Y-117038380D01*
X93551333Y-116324095D01*
X93360857Y-117038380D01*
X93122761Y-116038380D01*
X91979904Y-116514571D02*
X91646571Y-116514571D01*
X91503714Y-117038380D02*
X91979904Y-117038380D01*
X91979904Y-116038380D01*
X91503714Y-116038380D01*
X90741809Y-116514571D02*
X91075142Y-116514571D01*
X91075142Y-117038380D02*
X91075142Y-116038380D01*
X90598952Y-116038380D01*
X104058404Y-94432380D02*
X104058404Y-93432380D01*
X103486976Y-94432380D01*
X103486976Y-93432380D01*
X102439357Y-94432380D02*
X102772690Y-93956190D01*
X103010785Y-94432380D02*
X103010785Y-93432380D01*
X102629833Y-93432380D01*
X102534595Y-93480000D01*
X102486976Y-93527619D01*
X102439357Y-93622857D01*
X102439357Y-93765714D01*
X102486976Y-93860952D01*
X102534595Y-93908571D01*
X102629833Y-93956190D01*
X103010785Y-93956190D01*
X102010785Y-94432380D02*
X102010785Y-93432380D01*
X101677452Y-94146666D01*
X101344119Y-93432380D01*
X101344119Y-94432380D01*
X99915547Y-93432380D02*
X99725071Y-93432380D01*
X99629833Y-93480000D01*
X99534595Y-93575238D01*
X99486976Y-93765714D01*
X99486976Y-94099047D01*
X99534595Y-94289523D01*
X99629833Y-94384761D01*
X99725071Y-94432380D01*
X99915547Y-94432380D01*
X100010785Y-94384761D01*
X100106023Y-94289523D01*
X100153642Y-94099047D01*
X100153642Y-93765714D01*
X100106023Y-93575238D01*
X100010785Y-93480000D01*
X99915547Y-93432380D01*
X99058404Y-93432380D02*
X99058404Y-94241904D01*
X99010785Y-94337142D01*
X98963166Y-94384761D01*
X98867928Y-94432380D01*
X98677452Y-94432380D01*
X98582214Y-94384761D01*
X98534595Y-94337142D01*
X98486976Y-94241904D01*
X98486976Y-93432380D01*
X98153642Y-93432380D02*
X97582214Y-93432380D01*
X97867928Y-94432380D02*
X97867928Y-93432380D01*
X106433333Y-210637380D02*
X106433333Y-209637380D01*
X106195238Y-209637380D01*
X106052380Y-209685000D01*
X105957142Y-209780238D01*
X105909523Y-209875476D01*
X105861904Y-210065952D01*
X105861904Y-210208809D01*
X105909523Y-210399285D01*
X105957142Y-210494523D01*
X106052380Y-210589761D01*
X106195238Y-210637380D01*
X106433333Y-210637380D01*
X104861904Y-210542142D02*
X104909523Y-210589761D01*
X105052380Y-210637380D01*
X105147619Y-210637380D01*
X105290476Y-210589761D01*
X105385714Y-210494523D01*
X105433333Y-210399285D01*
X105480952Y-210208809D01*
X105480952Y-210065952D01*
X105433333Y-209875476D01*
X105385714Y-209780238D01*
X105290476Y-209685000D01*
X105147619Y-209637380D01*
X105052380Y-209637380D01*
X104909523Y-209685000D01*
X104861904Y-209732619D01*
X103671428Y-210637380D02*
X103671428Y-209637380D01*
X103290476Y-209637380D01*
X103195238Y-209685000D01*
X103147619Y-209732619D01*
X103100000Y-209827857D01*
X103100000Y-209970714D01*
X103147619Y-210065952D01*
X103195238Y-210113571D01*
X103290476Y-210161190D01*
X103671428Y-210161190D01*
X102480952Y-209637380D02*
X102290476Y-209637380D01*
X102195238Y-209685000D01*
X102100000Y-209780238D01*
X102052380Y-209970714D01*
X102052380Y-210304047D01*
X102100000Y-210494523D01*
X102195238Y-210589761D01*
X102290476Y-210637380D01*
X102480952Y-210637380D01*
X102576190Y-210589761D01*
X102671428Y-210494523D01*
X102719047Y-210304047D01*
X102719047Y-209970714D01*
X102671428Y-209780238D01*
X102576190Y-209685000D01*
X102480952Y-209637380D01*
X101719047Y-209637380D02*
X101480952Y-210637380D01*
X101290476Y-209923095D01*
X101100000Y-210637380D01*
X100861904Y-209637380D01*
X100480952Y-210113571D02*
X100147619Y-210113571D01*
X100004761Y-210637380D02*
X100480952Y-210637380D01*
X100480952Y-209637380D01*
X100004761Y-209637380D01*
X99004761Y-210637380D02*
X99338095Y-210161190D01*
X99576190Y-210637380D02*
X99576190Y-209637380D01*
X99195238Y-209637380D01*
X99100000Y-209685000D01*
X99052380Y-209732619D01*
X99004761Y-209827857D01*
X99004761Y-209970714D01*
X99052380Y-210065952D01*
X99100000Y-210113571D01*
X99195238Y-210161190D01*
X99576190Y-210161190D01*
X97814285Y-210637380D02*
X97814285Y-209637380D01*
X97338095Y-210637380D02*
X97338095Y-209637380D01*
X96766666Y-210637380D01*
X96766666Y-209637380D01*
X88971428Y-100520000D02*
X88971428Y-100186666D01*
X88447619Y-100043809D02*
X88447619Y-100520000D01*
X89447619Y-100520000D01*
X89447619Y-100043809D01*
X89447619Y-99710476D02*
X88447619Y-99043809D01*
X89447619Y-99043809D02*
X88447619Y-99710476D01*
X89447619Y-98805714D02*
X89447619Y-98234285D01*
X88447619Y-98520000D02*
X89447619Y-98520000D01*
X88971428Y-97139047D02*
X88971428Y-96805714D01*
X88447619Y-96662857D02*
X88447619Y-97139047D01*
X89447619Y-97139047D01*
X89447619Y-96662857D01*
X88447619Y-96234285D02*
X89447619Y-96234285D01*
X88447619Y-95662857D01*
X89447619Y-95662857D01*
X89447619Y-95329523D02*
X88447619Y-94996190D01*
X89447619Y-94662857D01*
X88447619Y-93567619D02*
X89447619Y-93567619D01*
X88447619Y-93091428D02*
X89447619Y-93091428D01*
X88447619Y-92520000D01*
X89447619Y-92520000D01*
D11*
X113628809Y-150764761D02*
X113628809Y-148764761D01*
X112962142Y-150193333D01*
X112295476Y-148764761D01*
X112295476Y-150764761D01*
X111438333Y-150669523D02*
X111152619Y-150764761D01*
X110676428Y-150764761D01*
X110485952Y-150669523D01*
X110390714Y-150574285D01*
X110295476Y-150383809D01*
X110295476Y-150193333D01*
X110390714Y-150002857D01*
X110485952Y-149907619D01*
X110676428Y-149812380D01*
X111057380Y-149717142D01*
X111247857Y-149621904D01*
X111343095Y-149526666D01*
X111438333Y-149336190D01*
X111438333Y-149145714D01*
X111343095Y-148955238D01*
X111247857Y-148860000D01*
X111057380Y-148764761D01*
X110581190Y-148764761D01*
X110295476Y-148860000D01*
X109438333Y-150764761D02*
X109438333Y-148764761D01*
X108771666Y-150193333D01*
X108105000Y-148764761D01*
X108105000Y-150764761D01*
X105724047Y-150669523D02*
X105438333Y-150764761D01*
X104962142Y-150764761D01*
X104771666Y-150669523D01*
X104676428Y-150574285D01*
X104581190Y-150383809D01*
X104581190Y-150193333D01*
X104676428Y-150002857D01*
X104771666Y-149907619D01*
X104962142Y-149812380D01*
X105343095Y-149717142D01*
X105533571Y-149621904D01*
X105628809Y-149526666D01*
X105724047Y-149336190D01*
X105724047Y-149145714D01*
X105628809Y-148955238D01*
X105533571Y-148860000D01*
X105343095Y-148764761D01*
X104866904Y-148764761D01*
X104581190Y-148860000D01*
X104009761Y-149431428D02*
X103247857Y-149431428D01*
X103724047Y-148764761D02*
X103724047Y-150479047D01*
X103628809Y-150669523D01*
X103438333Y-150764761D01*
X103247857Y-150764761D01*
X101819285Y-150669523D02*
X102009761Y-150764761D01*
X102390714Y-150764761D01*
X102581190Y-150669523D01*
X102676428Y-150479047D01*
X102676428Y-149717142D01*
X102581190Y-149526666D01*
X102390714Y-149431428D01*
X102009761Y-149431428D01*
X101819285Y-149526666D01*
X101724047Y-149717142D01*
X101724047Y-149907619D01*
X102676428Y-150098095D01*
X100866904Y-150764761D02*
X100866904Y-149431428D01*
X100866904Y-149812380D02*
X100771666Y-149621904D01*
X100676428Y-149526666D01*
X100485952Y-149431428D01*
X100295476Y-149431428D01*
X98866904Y-150669523D02*
X99057380Y-150764761D01*
X99438333Y-150764761D01*
X99628809Y-150669523D01*
X99724047Y-150479047D01*
X99724047Y-149717142D01*
X99628809Y-149526666D01*
X99438333Y-149431428D01*
X99057380Y-149431428D01*
X98866904Y-149526666D01*
X98771666Y-149717142D01*
X98771666Y-149907619D01*
X99724047Y-150098095D01*
X97628809Y-150764761D02*
X97819285Y-150669523D01*
X97914523Y-150574285D01*
X98009761Y-150383809D01*
X98009761Y-149812380D01*
X97914523Y-149621904D01*
X97819285Y-149526666D01*
X97628809Y-149431428D01*
X97343095Y-149431428D01*
X97152619Y-149526666D01*
X97057380Y-149621904D01*
X96962142Y-149812380D01*
X96962142Y-150383809D01*
X97057380Y-150574285D01*
X97152619Y-150669523D01*
X97343095Y-150764761D01*
X97628809Y-150764761D01*
X93628809Y-150764761D02*
X94581190Y-150764761D01*
X94581190Y-148764761D01*
X92962142Y-150764761D02*
X92962142Y-148764761D01*
X92200238Y-148764761D01*
X92009761Y-148860000D01*
X91914523Y-148955238D01*
X91819285Y-149145714D01*
X91819285Y-149431428D01*
X91914523Y-149621904D01*
X92009761Y-149717142D01*
X92200238Y-149812380D01*
X92962142Y-149812380D01*
X90295476Y-149717142D02*
X90962142Y-149717142D01*
X90962142Y-150764761D02*
X90962142Y-148764761D01*
X90009761Y-148764761D01*
D10*
X94741809Y-173410571D02*
X94408476Y-173410571D01*
X94265619Y-173934380D02*
X94741809Y-173934380D01*
X94741809Y-172934380D01*
X94265619Y-172934380D01*
X93503714Y-173410571D02*
X93837047Y-173410571D01*
X93837047Y-173934380D02*
X93837047Y-172934380D01*
X93360857Y-172934380D01*
X91884666Y-173410571D02*
X91741809Y-173458190D01*
X91694190Y-173505809D01*
X91646571Y-173601047D01*
X91646571Y-173743904D01*
X91694190Y-173839142D01*
X91741809Y-173886761D01*
X91837047Y-173934380D01*
X92218000Y-173934380D01*
X92218000Y-172934380D01*
X91884666Y-172934380D01*
X91789428Y-172982000D01*
X91741809Y-173029619D01*
X91694190Y-173124857D01*
X91694190Y-173220095D01*
X91741809Y-173315333D01*
X91789428Y-173362952D01*
X91884666Y-173410571D01*
X92218000Y-173410571D01*
X94408476Y-78684380D02*
X94408476Y-77684380D01*
X94170380Y-77684380D01*
X94027523Y-77732000D01*
X93932285Y-77827238D01*
X93884666Y-77922476D01*
X93837047Y-78112952D01*
X93837047Y-78255809D01*
X93884666Y-78446285D01*
X93932285Y-78541523D01*
X94027523Y-78636761D01*
X94170380Y-78684380D01*
X94408476Y-78684380D01*
X92837047Y-78684380D02*
X93170380Y-78208190D01*
X93408476Y-78684380D02*
X93408476Y-77684380D01*
X93027523Y-77684380D01*
X92932285Y-77732000D01*
X92884666Y-77779619D01*
X92837047Y-77874857D01*
X92837047Y-78017714D01*
X92884666Y-78112952D01*
X92932285Y-78160571D01*
X93027523Y-78208190D01*
X93408476Y-78208190D01*
X92218000Y-78208190D02*
X92218000Y-78684380D01*
X92551333Y-77684380D02*
X92218000Y-78208190D01*
X91884666Y-77684380D01*
X97472380Y-196302380D02*
X97139047Y-197302380D01*
X96805714Y-196302380D01*
X96472380Y-196921428D02*
X95710476Y-196921428D01*
X96091428Y-197302380D02*
X96091428Y-196540476D01*
X105054404Y-90098571D02*
X104721071Y-90098571D01*
X104578214Y-90622380D02*
X105054404Y-90622380D01*
X105054404Y-89622380D01*
X104578214Y-89622380D01*
X103816309Y-90098571D02*
X104149642Y-90098571D01*
X104149642Y-90622380D02*
X104149642Y-89622380D01*
X103673452Y-89622380D01*
X102197261Y-90098571D02*
X102054404Y-90146190D01*
X102006785Y-90193809D01*
X101959166Y-90289047D01*
X101959166Y-90431904D01*
X102006785Y-90527142D01*
X102054404Y-90574761D01*
X102149642Y-90622380D01*
X102530595Y-90622380D01*
X102530595Y-89622380D01*
X102197261Y-89622380D01*
X102102023Y-89670000D01*
X102054404Y-89717619D01*
X102006785Y-89812857D01*
X102006785Y-89908095D01*
X102054404Y-90003333D01*
X102102023Y-90050952D01*
X102197261Y-90098571D01*
X102530595Y-90098571D01*
X100578214Y-89622380D02*
X100387738Y-89622380D01*
X100292500Y-89670000D01*
X100197261Y-89765238D01*
X100149642Y-89955714D01*
X100149642Y-90289047D01*
X100197261Y-90479523D01*
X100292500Y-90574761D01*
X100387738Y-90622380D01*
X100578214Y-90622380D01*
X100673452Y-90574761D01*
X100768690Y-90479523D01*
X100816309Y-90289047D01*
X100816309Y-89955714D01*
X100768690Y-89765238D01*
X100673452Y-89670000D01*
X100578214Y-89622380D01*
X99721071Y-89622380D02*
X99721071Y-90431904D01*
X99673452Y-90527142D01*
X99625833Y-90574761D01*
X99530595Y-90622380D01*
X99340119Y-90622380D01*
X99244880Y-90574761D01*
X99197261Y-90527142D01*
X99149642Y-90431904D01*
X99149642Y-89622380D01*
X98816309Y-89622380D02*
X98244880Y-89622380D01*
X98530595Y-90622380D02*
X98530595Y-89622380D01*
X102361904Y-173852380D02*
X102361904Y-174661904D01*
X102314285Y-174757142D01*
X102266666Y-174804761D01*
X102171428Y-174852380D01*
X101980952Y-174852380D01*
X101885714Y-174804761D01*
X101838095Y-174757142D01*
X101790476Y-174661904D01*
X101790476Y-173852380D01*
X101409523Y-173852380D02*
X100790476Y-173852380D01*
X101123809Y-174233333D01*
X100980952Y-174233333D01*
X100885714Y-174280952D01*
X100838095Y-174328571D01*
X100790476Y-174423809D01*
X100790476Y-174661904D01*
X100838095Y-174757142D01*
X100885714Y-174804761D01*
X100980952Y-174852380D01*
X101266666Y-174852380D01*
X101361904Y-174804761D01*
X101409523Y-174757142D01*
X91828857Y-134564380D02*
X92162190Y-134088190D01*
X92400285Y-134564380D02*
X92400285Y-133564380D01*
X92019333Y-133564380D01*
X91924095Y-133612000D01*
X91876476Y-133659619D01*
X91828857Y-133754857D01*
X91828857Y-133897714D01*
X91876476Y-133992952D01*
X91924095Y-134040571D01*
X92019333Y-134088190D01*
X92400285Y-134088190D01*
X90876476Y-134564380D02*
X91447904Y-134564380D01*
X91162190Y-134564380D02*
X91162190Y-133564380D01*
X91257428Y-133707238D01*
X91352666Y-133802476D01*
X91447904Y-133850095D01*
X89924095Y-134564380D02*
X90495523Y-134564380D01*
X90209809Y-134564380D02*
X90209809Y-133564380D01*
X90305047Y-133707238D01*
X90400285Y-133802476D01*
X90495523Y-133850095D01*
X111418666Y-134564380D02*
X111752000Y-134088190D01*
X111990095Y-134564380D02*
X111990095Y-133564380D01*
X111609142Y-133564380D01*
X111513904Y-133612000D01*
X111466285Y-133659619D01*
X111418666Y-133754857D01*
X111418666Y-133897714D01*
X111466285Y-133992952D01*
X111513904Y-134040571D01*
X111609142Y-134088190D01*
X111990095Y-134088190D01*
X110847238Y-133992952D02*
X110942476Y-133945333D01*
X110990095Y-133897714D01*
X111037714Y-133802476D01*
X111037714Y-133754857D01*
X110990095Y-133659619D01*
X110942476Y-133612000D01*
X110847238Y-133564380D01*
X110656761Y-133564380D01*
X110561523Y-133612000D01*
X110513904Y-133659619D01*
X110466285Y-133754857D01*
X110466285Y-133802476D01*
X110513904Y-133897714D01*
X110561523Y-133945333D01*
X110656761Y-133992952D01*
X110847238Y-133992952D01*
X110942476Y-134040571D01*
X110990095Y-134088190D01*
X111037714Y-134183428D01*
X111037714Y-134373904D01*
X110990095Y-134469142D01*
X110942476Y-134516761D01*
X110847238Y-134564380D01*
X110656761Y-134564380D01*
X110561523Y-134516761D01*
X110513904Y-134469142D01*
X110466285Y-134373904D01*
X110466285Y-134183428D01*
X110513904Y-134088190D01*
X110561523Y-134040571D01*
X110656761Y-133992952D01*
X108918333Y-209637380D02*
X108918333Y-210351666D01*
X108965952Y-210494523D01*
X109061190Y-210589761D01*
X109204047Y-210637380D01*
X109299285Y-210637380D01*
X108537380Y-209637380D02*
X107918333Y-209637380D01*
X108251666Y-210018333D01*
X108108809Y-210018333D01*
X108013571Y-210065952D01*
X107965952Y-210113571D01*
X107918333Y-210208809D01*
X107918333Y-210446904D01*
X107965952Y-210542142D01*
X108013571Y-210589761D01*
X108108809Y-210637380D01*
X108394523Y-210637380D01*
X108489761Y-210589761D01*
X108537380Y-210542142D01*
X103798666Y-67765142D02*
X103846285Y-67812761D01*
X103989142Y-67860380D01*
X104084380Y-67860380D01*
X104227238Y-67812761D01*
X104322476Y-67717523D01*
X104370095Y-67622285D01*
X104417714Y-67431809D01*
X104417714Y-67288952D01*
X104370095Y-67098476D01*
X104322476Y-67003238D01*
X104227238Y-66908000D01*
X104084380Y-66860380D01*
X103989142Y-66860380D01*
X103846285Y-66908000D01*
X103798666Y-66955619D01*
X103465333Y-66860380D02*
X102798666Y-66860380D01*
X103227238Y-67860380D01*
X94479904Y-72390380D02*
X93908476Y-72390380D01*
X94194190Y-73390380D02*
X94194190Y-72390380D01*
X93575142Y-73390380D02*
X93575142Y-72390380D01*
X93194190Y-72390380D01*
X93098952Y-72438000D01*
X93051333Y-72485619D01*
X93003714Y-72580857D01*
X93003714Y-72723714D01*
X93051333Y-72818952D01*
X93098952Y-72866571D01*
X93194190Y-72914190D01*
X93575142Y-72914190D01*
X92051333Y-73390380D02*
X92622761Y-73390380D01*
X92337047Y-73390380D02*
X92337047Y-72390380D01*
X92432285Y-72533238D01*
X92527523Y-72628476D01*
X92622761Y-72676095D01*
X90741166Y-68524380D02*
X91074500Y-68048190D01*
X91312595Y-68524380D02*
X91312595Y-67524380D01*
X90931642Y-67524380D01*
X90836404Y-67572000D01*
X90788785Y-67619619D01*
X90741166Y-67714857D01*
X90741166Y-67857714D01*
X90788785Y-67952952D01*
X90836404Y-68000571D01*
X90931642Y-68048190D01*
X91312595Y-68048190D01*
X89836404Y-67524380D02*
X90312595Y-67524380D01*
X90360214Y-68000571D01*
X90312595Y-67952952D01*
X90217357Y-67905333D01*
X89979261Y-67905333D01*
X89884023Y-67952952D01*
X89836404Y-68000571D01*
X89788785Y-68095809D01*
X89788785Y-68333904D01*
X89836404Y-68429142D01*
X89884023Y-68476761D01*
X89979261Y-68524380D01*
X90217357Y-68524380D01*
X90312595Y-68476761D01*
X90360214Y-68429142D01*
X112383116Y-177262380D02*
X112716449Y-176786190D01*
X112954544Y-177262380D02*
X112954544Y-176262380D01*
X112573592Y-176262380D01*
X112478354Y-176310000D01*
X112430735Y-176357619D01*
X112383116Y-176452857D01*
X112383116Y-176595714D01*
X112430735Y-176690952D01*
X112478354Y-176738571D01*
X112573592Y-176786190D01*
X112954544Y-176786190D01*
X111430735Y-177262380D02*
X112002163Y-177262380D01*
X111716449Y-177262380D02*
X111716449Y-176262380D01*
X111811687Y-176405238D01*
X111906925Y-176500476D01*
X112002163Y-176548095D01*
X110525973Y-176262380D02*
X111002163Y-176262380D01*
X111049782Y-176738571D01*
X111002163Y-176690952D01*
X110906925Y-176643333D01*
X110668830Y-176643333D01*
X110573592Y-176690952D01*
X110525973Y-176738571D01*
X110478354Y-176833809D01*
X110478354Y-177071904D01*
X110525973Y-177167142D01*
X110573592Y-177214761D01*
X110668830Y-177262380D01*
X110906925Y-177262380D01*
X111002163Y-177214761D01*
X111049782Y-177167142D01*
X111418666Y-132024380D02*
X111752000Y-131548190D01*
X111990095Y-132024380D02*
X111990095Y-131024380D01*
X111609142Y-131024380D01*
X111513904Y-131072000D01*
X111466285Y-131119619D01*
X111418666Y-131214857D01*
X111418666Y-131357714D01*
X111466285Y-131452952D01*
X111513904Y-131500571D01*
X111609142Y-131548190D01*
X111990095Y-131548190D01*
X110942476Y-132024380D02*
X110752000Y-132024380D01*
X110656761Y-131976761D01*
X110609142Y-131929142D01*
X110513904Y-131786285D01*
X110466285Y-131595809D01*
X110466285Y-131214857D01*
X110513904Y-131119619D01*
X110561523Y-131072000D01*
X110656761Y-131024380D01*
X110847238Y-131024380D01*
X110942476Y-131072000D01*
X110990095Y-131119619D01*
X111037714Y-131214857D01*
X111037714Y-131452952D01*
X110990095Y-131548190D01*
X110942476Y-131595809D01*
X110847238Y-131643428D01*
X110656761Y-131643428D01*
X110561523Y-131595809D01*
X110513904Y-131548190D01*
X110466285Y-131452952D01*
X114022095Y-60396380D02*
X114022095Y-59396380D01*
X113784000Y-59396380D01*
X113641142Y-59444000D01*
X113545904Y-59539238D01*
X113498285Y-59634476D01*
X113450666Y-59824952D01*
X113450666Y-59967809D01*
X113498285Y-60158285D01*
X113545904Y-60253523D01*
X113641142Y-60348761D01*
X113784000Y-60396380D01*
X114022095Y-60396380D01*
X113069714Y-59491619D02*
X113022095Y-59444000D01*
X112926857Y-59396380D01*
X112688761Y-59396380D01*
X112593523Y-59444000D01*
X112545904Y-59491619D01*
X112498285Y-59586857D01*
X112498285Y-59682095D01*
X112545904Y-59824952D01*
X113117333Y-60396380D01*
X112498285Y-60396380D01*
X115482666Y-138279142D02*
X115530285Y-138326761D01*
X115673142Y-138374380D01*
X115768380Y-138374380D01*
X115911238Y-138326761D01*
X116006476Y-138231523D01*
X116054095Y-138136285D01*
X116101714Y-137945809D01*
X116101714Y-137802952D01*
X116054095Y-137612476D01*
X116006476Y-137517238D01*
X115911238Y-137422000D01*
X115768380Y-137374380D01*
X115673142Y-137374380D01*
X115530285Y-137422000D01*
X115482666Y-137469619D01*
X115101714Y-137469619D02*
X115054095Y-137422000D01*
X114958857Y-137374380D01*
X114720761Y-137374380D01*
X114625523Y-137422000D01*
X114577904Y-137469619D01*
X114530285Y-137564857D01*
X114530285Y-137660095D01*
X114577904Y-137802952D01*
X115149333Y-138374380D01*
X114530285Y-138374380D01*
X94313333Y-90257380D02*
X94313333Y-90971666D01*
X94360952Y-91114523D01*
X94456190Y-91209761D01*
X94599047Y-91257380D01*
X94694285Y-91257380D01*
X93313333Y-91257380D02*
X93884761Y-91257380D01*
X93599047Y-91257380D02*
X93599047Y-90257380D01*
X93694285Y-90400238D01*
X93789523Y-90495476D01*
X93884761Y-90543095D01*
X100191116Y-181557142D02*
X100238735Y-181604761D01*
X100381592Y-181652380D01*
X100476830Y-181652380D01*
X100619687Y-181604761D01*
X100714925Y-181509523D01*
X100762544Y-181414285D01*
X100810163Y-181223809D01*
X100810163Y-181080952D01*
X100762544Y-180890476D01*
X100714925Y-180795238D01*
X100619687Y-180700000D01*
X100476830Y-180652380D01*
X100381592Y-180652380D01*
X100238735Y-180700000D01*
X100191116Y-180747619D01*
X99238735Y-181652380D02*
X99810163Y-181652380D01*
X99524449Y-181652380D02*
X99524449Y-180652380D01*
X99619687Y-180795238D01*
X99714925Y-180890476D01*
X99810163Y-180938095D01*
X98619687Y-180652380D02*
X98524449Y-180652380D01*
X98429211Y-180700000D01*
X98381592Y-180747619D01*
X98333973Y-180842857D01*
X98286354Y-181033333D01*
X98286354Y-181271428D01*
X98333973Y-181461904D01*
X98381592Y-181557142D01*
X98429211Y-181604761D01*
X98524449Y-181652380D01*
X98619687Y-181652380D01*
X98714925Y-181604761D01*
X98762544Y-181557142D01*
X98810163Y-181461904D01*
X98857782Y-181271428D01*
X98857782Y-181033333D01*
X98810163Y-180842857D01*
X98762544Y-180747619D01*
X98714925Y-180700000D01*
X98619687Y-180652380D01*
X102361904Y-127116380D02*
X102361904Y-127925904D01*
X102314285Y-128021142D01*
X102266666Y-128068761D01*
X102171428Y-128116380D01*
X101980952Y-128116380D01*
X101885714Y-128068761D01*
X101838095Y-128021142D01*
X101790476Y-127925904D01*
X101790476Y-127116380D01*
X101361904Y-127211619D02*
X101314285Y-127164000D01*
X101219047Y-127116380D01*
X100980952Y-127116380D01*
X100885714Y-127164000D01*
X100838095Y-127211619D01*
X100790476Y-127306857D01*
X100790476Y-127402095D01*
X100838095Y-127544952D01*
X101409523Y-128116380D01*
X100790476Y-128116380D01*
X105556666Y-187727142D02*
X105604285Y-187774761D01*
X105747142Y-187822380D01*
X105842380Y-187822380D01*
X105985238Y-187774761D01*
X106080476Y-187679523D01*
X106128095Y-187584285D01*
X106175714Y-187393809D01*
X106175714Y-187250952D01*
X106128095Y-187060476D01*
X106080476Y-186965238D01*
X105985238Y-186870000D01*
X105842380Y-186822380D01*
X105747142Y-186822380D01*
X105604285Y-186870000D01*
X105556666Y-186917619D01*
X104651904Y-186822380D02*
X105128095Y-186822380D01*
X105175714Y-187298571D01*
X105128095Y-187250952D01*
X105032857Y-187203333D01*
X104794761Y-187203333D01*
X104699523Y-187250952D01*
X104651904Y-187298571D01*
X104604285Y-187393809D01*
X104604285Y-187631904D01*
X104651904Y-187727142D01*
X104699523Y-187774761D01*
X104794761Y-187822380D01*
X105032857Y-187822380D01*
X105128095Y-187774761D01*
X105175714Y-187727142D01*
X97976666Y-187473142D02*
X98024285Y-187520761D01*
X98167142Y-187568380D01*
X98262380Y-187568380D01*
X98405238Y-187520761D01*
X98500476Y-187425523D01*
X98548095Y-187330285D01*
X98595714Y-187139809D01*
X98595714Y-186996952D01*
X98548095Y-186806476D01*
X98500476Y-186711238D01*
X98405238Y-186616000D01*
X98262380Y-186568380D01*
X98167142Y-186568380D01*
X98024285Y-186616000D01*
X97976666Y-186663619D01*
X97119523Y-186901714D02*
X97119523Y-187568380D01*
X97357619Y-186520761D02*
X97595714Y-187235047D01*
X96976666Y-187235047D01*
X90741166Y-65984380D02*
X91074500Y-65508190D01*
X91312595Y-65984380D02*
X91312595Y-64984380D01*
X90931642Y-64984380D01*
X90836404Y-65032000D01*
X90788785Y-65079619D01*
X90741166Y-65174857D01*
X90741166Y-65317714D01*
X90788785Y-65412952D01*
X90836404Y-65460571D01*
X90931642Y-65508190D01*
X91312595Y-65508190D01*
X89884023Y-65317714D02*
X89884023Y-65984380D01*
X90122119Y-64936761D02*
X90360214Y-65651047D01*
X89741166Y-65651047D01*
X90741166Y-71064380D02*
X91074500Y-70588190D01*
X91312595Y-71064380D02*
X91312595Y-70064380D01*
X90931642Y-70064380D01*
X90836404Y-70112000D01*
X90788785Y-70159619D01*
X90741166Y-70254857D01*
X90741166Y-70397714D01*
X90788785Y-70492952D01*
X90836404Y-70540571D01*
X90931642Y-70588190D01*
X91312595Y-70588190D01*
X89884023Y-70064380D02*
X90074500Y-70064380D01*
X90169738Y-70112000D01*
X90217357Y-70159619D01*
X90312595Y-70302476D01*
X90360214Y-70492952D01*
X90360214Y-70873904D01*
X90312595Y-70969142D01*
X90264976Y-71016761D01*
X90169738Y-71064380D01*
X89979261Y-71064380D01*
X89884023Y-71016761D01*
X89836404Y-70969142D01*
X89788785Y-70873904D01*
X89788785Y-70635809D01*
X89836404Y-70540571D01*
X89884023Y-70492952D01*
X89979261Y-70445333D01*
X90169738Y-70445333D01*
X90264976Y-70492952D01*
X90312595Y-70540571D01*
X90360214Y-70635809D01*
X100972857Y-78558380D02*
X101306190Y-78082190D01*
X101544285Y-78558380D02*
X101544285Y-77558380D01*
X101163333Y-77558380D01*
X101068095Y-77606000D01*
X101020476Y-77653619D01*
X100972857Y-77748857D01*
X100972857Y-77891714D01*
X101020476Y-77986952D01*
X101068095Y-78034571D01*
X101163333Y-78082190D01*
X101544285Y-78082190D01*
X100020476Y-78558380D02*
X100591904Y-78558380D01*
X100306190Y-78558380D02*
X100306190Y-77558380D01*
X100401428Y-77701238D01*
X100496666Y-77796476D01*
X100591904Y-77844095D01*
X99449047Y-77986952D02*
X99544285Y-77939333D01*
X99591904Y-77891714D01*
X99639523Y-77796476D01*
X99639523Y-77748857D01*
X99591904Y-77653619D01*
X99544285Y-77606000D01*
X99449047Y-77558380D01*
X99258571Y-77558380D01*
X99163333Y-77606000D01*
X99115714Y-77653619D01*
X99068095Y-77748857D01*
X99068095Y-77796476D01*
X99115714Y-77891714D01*
X99163333Y-77939333D01*
X99258571Y-77986952D01*
X99449047Y-77986952D01*
X99544285Y-78034571D01*
X99591904Y-78082190D01*
X99639523Y-78177428D01*
X99639523Y-78367904D01*
X99591904Y-78463142D01*
X99544285Y-78510761D01*
X99449047Y-78558380D01*
X99258571Y-78558380D01*
X99163333Y-78510761D01*
X99115714Y-78463142D01*
X99068095Y-78367904D01*
X99068095Y-78177428D01*
X99115714Y-78082190D01*
X99163333Y-78034571D01*
X99258571Y-77986952D01*
X109533333Y-78827380D02*
X109533333Y-79541666D01*
X109580952Y-79684523D01*
X109676190Y-79779761D01*
X109819047Y-79827380D01*
X109914285Y-79827380D01*
X109104761Y-78922619D02*
X109057142Y-78875000D01*
X108961904Y-78827380D01*
X108723809Y-78827380D01*
X108628571Y-78875000D01*
X108580952Y-78922619D01*
X108533333Y-79017857D01*
X108533333Y-79113095D01*
X108580952Y-79255952D01*
X109152380Y-79827380D01*
X108533333Y-79827380D01*
X94733904Y-45720380D02*
X94162476Y-45720380D01*
X94448190Y-46720380D02*
X94448190Y-45720380D01*
X93829142Y-46720380D02*
X93829142Y-45720380D01*
X93448190Y-45720380D01*
X93352952Y-45768000D01*
X93305333Y-45815619D01*
X93257714Y-45910857D01*
X93257714Y-46053714D01*
X93305333Y-46148952D01*
X93352952Y-46196571D01*
X93448190Y-46244190D01*
X93829142Y-46244190D01*
X92876761Y-45815619D02*
X92829142Y-45768000D01*
X92733904Y-45720380D01*
X92495809Y-45720380D01*
X92400571Y-45768000D01*
X92352952Y-45815619D01*
X92305333Y-45910857D01*
X92305333Y-46006095D01*
X92352952Y-46148952D01*
X92924380Y-46720380D01*
X92305333Y-46720380D01*
X114022095Y-63190380D02*
X114022095Y-62190380D01*
X113784000Y-62190380D01*
X113641142Y-62238000D01*
X113545904Y-62333238D01*
X113498285Y-62428476D01*
X113450666Y-62618952D01*
X113450666Y-62761809D01*
X113498285Y-62952285D01*
X113545904Y-63047523D01*
X113641142Y-63142761D01*
X113784000Y-63190380D01*
X114022095Y-63190380D01*
X112498285Y-63190380D02*
X113069714Y-63190380D01*
X112784000Y-63190380D02*
X112784000Y-62190380D01*
X112879238Y-62333238D01*
X112974476Y-62428476D01*
X113069714Y-62476095D01*
X112942666Y-68524380D02*
X113276000Y-68048190D01*
X113514095Y-68524380D02*
X113514095Y-67524380D01*
X113133142Y-67524380D01*
X113037904Y-67572000D01*
X112990285Y-67619619D01*
X112942666Y-67714857D01*
X112942666Y-67857714D01*
X112990285Y-67952952D01*
X113037904Y-68000571D01*
X113133142Y-68048190D01*
X113514095Y-68048190D01*
X112561714Y-67619619D02*
X112514095Y-67572000D01*
X112418857Y-67524380D01*
X112180761Y-67524380D01*
X112085523Y-67572000D01*
X112037904Y-67619619D01*
X111990285Y-67714857D01*
X111990285Y-67810095D01*
X112037904Y-67952952D01*
X112609333Y-68524380D01*
X111990285Y-68524380D01*
X90654095Y-60650380D02*
X90654095Y-59650380D01*
X90416000Y-59650380D01*
X90273142Y-59698000D01*
X90177904Y-59793238D01*
X90130285Y-59888476D01*
X90082666Y-60078952D01*
X90082666Y-60221809D01*
X90130285Y-60412285D01*
X90177904Y-60507523D01*
X90273142Y-60602761D01*
X90416000Y-60650380D01*
X90654095Y-60650380D01*
X89749333Y-59650380D02*
X89130285Y-59650380D01*
X89463619Y-60031333D01*
X89320761Y-60031333D01*
X89225523Y-60078952D01*
X89177904Y-60126571D01*
X89130285Y-60221809D01*
X89130285Y-60459904D01*
X89177904Y-60555142D01*
X89225523Y-60602761D01*
X89320761Y-60650380D01*
X89606476Y-60650380D01*
X89701714Y-60602761D01*
X89749333Y-60555142D01*
X104255116Y-181557142D02*
X104302735Y-181604761D01*
X104445592Y-181652380D01*
X104540830Y-181652380D01*
X104683687Y-181604761D01*
X104778925Y-181509523D01*
X104826544Y-181414285D01*
X104874163Y-181223809D01*
X104874163Y-181080952D01*
X104826544Y-180890476D01*
X104778925Y-180795238D01*
X104683687Y-180700000D01*
X104540830Y-180652380D01*
X104445592Y-180652380D01*
X104302735Y-180700000D01*
X104255116Y-180747619D01*
X103302735Y-181652380D02*
X103874163Y-181652380D01*
X103588449Y-181652380D02*
X103588449Y-180652380D01*
X103683687Y-180795238D01*
X103778925Y-180890476D01*
X103874163Y-180938095D01*
X102350354Y-181652380D02*
X102921782Y-181652380D01*
X102636068Y-181652380D02*
X102636068Y-180652380D01*
X102731306Y-180795238D01*
X102826544Y-180890476D01*
X102921782Y-180938095D01*
X91828857Y-132024380D02*
X92162190Y-131548190D01*
X92400285Y-132024380D02*
X92400285Y-131024380D01*
X92019333Y-131024380D01*
X91924095Y-131072000D01*
X91876476Y-131119619D01*
X91828857Y-131214857D01*
X91828857Y-131357714D01*
X91876476Y-131452952D01*
X91924095Y-131500571D01*
X92019333Y-131548190D01*
X92400285Y-131548190D01*
X90876476Y-132024380D02*
X91447904Y-132024380D01*
X91162190Y-132024380D02*
X91162190Y-131024380D01*
X91257428Y-131167238D01*
X91352666Y-131262476D01*
X91447904Y-131310095D01*
X90543142Y-131024380D02*
X89924095Y-131024380D01*
X90257428Y-131405333D01*
X90114571Y-131405333D01*
X90019333Y-131452952D01*
X89971714Y-131500571D01*
X89924095Y-131595809D01*
X89924095Y-131833904D01*
X89971714Y-131929142D01*
X90019333Y-131976761D01*
X90114571Y-132024380D01*
X90400285Y-132024380D01*
X90495523Y-131976761D01*
X90543142Y-131929142D01*
X90844666Y-63444380D02*
X91178000Y-62968190D01*
X91416095Y-63444380D02*
X91416095Y-62444380D01*
X91035142Y-62444380D01*
X90939904Y-62492000D01*
X90892285Y-62539619D01*
X90844666Y-62634857D01*
X90844666Y-62777714D01*
X90892285Y-62872952D01*
X90939904Y-62920571D01*
X91035142Y-62968190D01*
X91416095Y-62968190D01*
X90511333Y-62444380D02*
X89844666Y-62444380D01*
X90273238Y-63444380D01*
X111243904Y-167640380D02*
X110672476Y-167640380D01*
X110958190Y-168640380D02*
X110958190Y-167640380D01*
X110339142Y-168640380D02*
X110339142Y-167640380D01*
X109958190Y-167640380D01*
X109862952Y-167688000D01*
X109815333Y-167735619D01*
X109767714Y-167830857D01*
X109767714Y-167973714D01*
X109815333Y-168068952D01*
X109862952Y-168116571D01*
X109958190Y-168164190D01*
X110339142Y-168164190D01*
X108910571Y-167973714D02*
X108910571Y-168640380D01*
X109148666Y-167592761D02*
X109386761Y-168307047D01*
X108767714Y-168307047D01*
X92063116Y-177262380D02*
X92396449Y-176786190D01*
X92634544Y-177262380D02*
X92634544Y-176262380D01*
X92253592Y-176262380D01*
X92158354Y-176310000D01*
X92110735Y-176357619D01*
X92063116Y-176452857D01*
X92063116Y-176595714D01*
X92110735Y-176690952D01*
X92158354Y-176738571D01*
X92253592Y-176786190D01*
X92634544Y-176786190D01*
X91110735Y-177262380D02*
X91682163Y-177262380D01*
X91396449Y-177262380D02*
X91396449Y-176262380D01*
X91491687Y-176405238D01*
X91586925Y-176500476D01*
X91682163Y-176548095D01*
X90777401Y-176262380D02*
X90110735Y-176262380D01*
X90539306Y-177262380D01*
X93404666Y-137435142D02*
X93452285Y-137482761D01*
X93595142Y-137530380D01*
X93690380Y-137530380D01*
X93833238Y-137482761D01*
X93928476Y-137387523D01*
X93976095Y-137292285D01*
X94023714Y-137101809D01*
X94023714Y-136958952D01*
X93976095Y-136768476D01*
X93928476Y-136673238D01*
X93833238Y-136578000D01*
X93690380Y-136530380D01*
X93595142Y-136530380D01*
X93452285Y-136578000D01*
X93404666Y-136625619D01*
X93071333Y-136530380D02*
X92452285Y-136530380D01*
X92785619Y-136911333D01*
X92642761Y-136911333D01*
X92547523Y-136958952D01*
X92499904Y-137006571D01*
X92452285Y-137101809D01*
X92452285Y-137339904D01*
X92499904Y-137435142D01*
X92547523Y-137482761D01*
X92642761Y-137530380D01*
X92928476Y-137530380D01*
X93023714Y-137482761D01*
X93071333Y-137435142D01*
X90654095Y-57856380D02*
X90654095Y-56856380D01*
X90416000Y-56856380D01*
X90273142Y-56904000D01*
X90177904Y-56999238D01*
X90130285Y-57094476D01*
X90082666Y-57284952D01*
X90082666Y-57427809D01*
X90130285Y-57618285D01*
X90177904Y-57713523D01*
X90273142Y-57808761D01*
X90416000Y-57856380D01*
X90654095Y-57856380D01*
X89225523Y-57189714D02*
X89225523Y-57856380D01*
X89463619Y-56808761D02*
X89701714Y-57523047D01*
X89082666Y-57523047D01*
X92063116Y-179802380D02*
X92396449Y-179326190D01*
X92634544Y-179802380D02*
X92634544Y-178802380D01*
X92253592Y-178802380D01*
X92158354Y-178850000D01*
X92110735Y-178897619D01*
X92063116Y-178992857D01*
X92063116Y-179135714D01*
X92110735Y-179230952D01*
X92158354Y-179278571D01*
X92253592Y-179326190D01*
X92634544Y-179326190D01*
X91110735Y-179802380D02*
X91682163Y-179802380D01*
X91396449Y-179802380D02*
X91396449Y-178802380D01*
X91491687Y-178945238D01*
X91586925Y-179040476D01*
X91682163Y-179088095D01*
X90253592Y-178802380D02*
X90444068Y-178802380D01*
X90539306Y-178850000D01*
X90586925Y-178897619D01*
X90682163Y-179040476D01*
X90729782Y-179230952D01*
X90729782Y-179611904D01*
X90682163Y-179707142D01*
X90634544Y-179754761D01*
X90539306Y-179802380D01*
X90348830Y-179802380D01*
X90253592Y-179754761D01*
X90205973Y-179707142D01*
X90158354Y-179611904D01*
X90158354Y-179373809D01*
X90205973Y-179278571D01*
X90253592Y-179230952D01*
X90348830Y-179183333D01*
X90539306Y-179183333D01*
X90634544Y-179230952D01*
X90682163Y-179278571D01*
X90729782Y-179373809D01*
X112383116Y-179802380D02*
X112716449Y-179326190D01*
X112954544Y-179802380D02*
X112954544Y-178802380D01*
X112573592Y-178802380D01*
X112478354Y-178850000D01*
X112430735Y-178897619D01*
X112383116Y-178992857D01*
X112383116Y-179135714D01*
X112430735Y-179230952D01*
X112478354Y-179278571D01*
X112573592Y-179326190D01*
X112954544Y-179326190D01*
X111430735Y-179802380D02*
X112002163Y-179802380D01*
X111716449Y-179802380D02*
X111716449Y-178802380D01*
X111811687Y-178945238D01*
X111906925Y-179040476D01*
X112002163Y-179088095D01*
X110573592Y-179135714D02*
X110573592Y-179802380D01*
X110811687Y-178754761D02*
X111049782Y-179469047D01*
X110430735Y-179469047D01*
X112942666Y-71064380D02*
X113276000Y-70588190D01*
X113514095Y-71064380D02*
X113514095Y-70064380D01*
X113133142Y-70064380D01*
X113037904Y-70112000D01*
X112990285Y-70159619D01*
X112942666Y-70254857D01*
X112942666Y-70397714D01*
X112990285Y-70492952D01*
X113037904Y-70540571D01*
X113133142Y-70588190D01*
X113514095Y-70588190D01*
X111990285Y-71064380D02*
X112561714Y-71064380D01*
X112276000Y-71064380D02*
X112276000Y-70064380D01*
X112371238Y-70207238D01*
X112466476Y-70302476D01*
X112561714Y-70350095D01*
X91670095Y-121356380D02*
X91670095Y-120356380D01*
X91432000Y-120356380D01*
X91289142Y-120404000D01*
X91193904Y-120499238D01*
X91146285Y-120594476D01*
X91098666Y-120784952D01*
X91098666Y-120927809D01*
X91146285Y-121118285D01*
X91193904Y-121213523D01*
X91289142Y-121308761D01*
X91432000Y-121356380D01*
X91670095Y-121356380D01*
X90241523Y-120356380D02*
X90432000Y-120356380D01*
X90527238Y-120404000D01*
X90574857Y-120451619D01*
X90670095Y-120594476D01*
X90717714Y-120784952D01*
X90717714Y-121165904D01*
X90670095Y-121261142D01*
X90622476Y-121308761D01*
X90527238Y-121356380D01*
X90336761Y-121356380D01*
X90241523Y-121308761D01*
X90193904Y-121261142D01*
X90146285Y-121165904D01*
X90146285Y-120927809D01*
X90193904Y-120832571D01*
X90241523Y-120784952D01*
X90336761Y-120737333D01*
X90527238Y-120737333D01*
X90622476Y-120784952D01*
X90670095Y-120832571D01*
X90717714Y-120927809D01*
X102361904Y-59806380D02*
X102361904Y-60615904D01*
X102314285Y-60711142D01*
X102266666Y-60758761D01*
X102171428Y-60806380D01*
X101980952Y-60806380D01*
X101885714Y-60758761D01*
X101838095Y-60711142D01*
X101790476Y-60615904D01*
X101790476Y-59806380D01*
X100790476Y-60806380D02*
X101361904Y-60806380D01*
X101076190Y-60806380D02*
X101076190Y-59806380D01*
X101171428Y-59949238D01*
X101266666Y-60044476D01*
X101361904Y-60092095D01*
X112942666Y-65984380D02*
X113276000Y-65508190D01*
X113514095Y-65984380D02*
X113514095Y-64984380D01*
X113133142Y-64984380D01*
X113037904Y-65032000D01*
X112990285Y-65079619D01*
X112942666Y-65174857D01*
X112942666Y-65317714D01*
X112990285Y-65412952D01*
X113037904Y-65460571D01*
X113133142Y-65508190D01*
X113514095Y-65508190D01*
X112609333Y-64984380D02*
X111990285Y-64984380D01*
X112323619Y-65365333D01*
X112180761Y-65365333D01*
X112085523Y-65412952D01*
X112037904Y-65460571D01*
X111990285Y-65555809D01*
X111990285Y-65793904D01*
X112037904Y-65889142D01*
X112085523Y-65936761D01*
X112180761Y-65984380D01*
X112466476Y-65984380D01*
X112561714Y-65936761D01*
X112609333Y-65889142D01*
X90654095Y-55062380D02*
X90654095Y-54062380D01*
X90416000Y-54062380D01*
X90273142Y-54110000D01*
X90177904Y-54205238D01*
X90130285Y-54300476D01*
X90082666Y-54490952D01*
X90082666Y-54633809D01*
X90130285Y-54824285D01*
X90177904Y-54919523D01*
X90273142Y-55014761D01*
X90416000Y-55062380D01*
X90654095Y-55062380D01*
X89177904Y-54062380D02*
X89654095Y-54062380D01*
X89701714Y-54538571D01*
X89654095Y-54490952D01*
X89558857Y-54443333D01*
X89320761Y-54443333D01*
X89225523Y-54490952D01*
X89177904Y-54538571D01*
X89130285Y-54633809D01*
X89130285Y-54871904D01*
X89177904Y-54967142D01*
X89225523Y-55014761D01*
X89320761Y-55062380D01*
X89558857Y-55062380D01*
X89654095Y-55014761D01*
X89701714Y-54967142D01*
X94479904Y-167640380D02*
X93908476Y-167640380D01*
X94194190Y-168640380D02*
X94194190Y-167640380D01*
X93575142Y-168640380D02*
X93575142Y-167640380D01*
X93194190Y-167640380D01*
X93098952Y-167688000D01*
X93051333Y-167735619D01*
X93003714Y-167830857D01*
X93003714Y-167973714D01*
X93051333Y-168068952D01*
X93098952Y-168116571D01*
X93194190Y-168164190D01*
X93575142Y-168164190D01*
X92098952Y-167640380D02*
X92575142Y-167640380D01*
X92622761Y-168116571D01*
X92575142Y-168068952D01*
X92479904Y-168021333D01*
X92241809Y-168021333D01*
X92146571Y-168068952D01*
X92098952Y-168116571D01*
X92051333Y-168211809D01*
X92051333Y-168449904D01*
X92098952Y-168545142D01*
X92146571Y-168592761D01*
X92241809Y-168640380D01*
X92479904Y-168640380D01*
X92575142Y-168592761D01*
X92622761Y-168545142D01*
X99734666Y-135075142D02*
X99782285Y-135122761D01*
X99925142Y-135170380D01*
X100020380Y-135170380D01*
X100163238Y-135122761D01*
X100258476Y-135027523D01*
X100306095Y-134932285D01*
X100353714Y-134741809D01*
X100353714Y-134598952D01*
X100306095Y-134408476D01*
X100258476Y-134313238D01*
X100163238Y-134218000D01*
X100020380Y-134170380D01*
X99925142Y-134170380D01*
X99782285Y-134218000D01*
X99734666Y-134265619D01*
X99163238Y-134598952D02*
X99258476Y-134551333D01*
X99306095Y-134503714D01*
X99353714Y-134408476D01*
X99353714Y-134360857D01*
X99306095Y-134265619D01*
X99258476Y-134218000D01*
X99163238Y-134170380D01*
X98972761Y-134170380D01*
X98877523Y-134218000D01*
X98829904Y-134265619D01*
X98782285Y-134360857D01*
X98782285Y-134408476D01*
X98829904Y-134503714D01*
X98877523Y-134551333D01*
X98972761Y-134598952D01*
X99163238Y-134598952D01*
X99258476Y-134646571D01*
X99306095Y-134694190D01*
X99353714Y-134789428D01*
X99353714Y-134979904D01*
X99306095Y-135075142D01*
X99258476Y-135122761D01*
X99163238Y-135170380D01*
X98972761Y-135170380D01*
X98877523Y-135122761D01*
X98829904Y-135075142D01*
X98782285Y-134979904D01*
X98782285Y-134789428D01*
X98829904Y-134694190D01*
X98877523Y-134646571D01*
X98972761Y-134598952D01*
X91828857Y-129484380D02*
X92162190Y-129008190D01*
X92400285Y-129484380D02*
X92400285Y-128484380D01*
X92019333Y-128484380D01*
X91924095Y-128532000D01*
X91876476Y-128579619D01*
X91828857Y-128674857D01*
X91828857Y-128817714D01*
X91876476Y-128912952D01*
X91924095Y-128960571D01*
X92019333Y-129008190D01*
X92400285Y-129008190D01*
X90876476Y-129484380D02*
X91447904Y-129484380D01*
X91162190Y-129484380D02*
X91162190Y-128484380D01*
X91257428Y-128627238D01*
X91352666Y-128722476D01*
X91447904Y-128770095D01*
X90495523Y-128579619D02*
X90447904Y-128532000D01*
X90352666Y-128484380D01*
X90114571Y-128484380D01*
X90019333Y-128532000D01*
X89971714Y-128579619D01*
X89924095Y-128674857D01*
X89924095Y-128770095D01*
X89971714Y-128912952D01*
X90543142Y-129484380D01*
X89924095Y-129484380D01*
X99734666Y-67765142D02*
X99782285Y-67812761D01*
X99925142Y-67860380D01*
X100020380Y-67860380D01*
X100163238Y-67812761D01*
X100258476Y-67717523D01*
X100306095Y-67622285D01*
X100353714Y-67431809D01*
X100353714Y-67288952D01*
X100306095Y-67098476D01*
X100258476Y-67003238D01*
X100163238Y-66908000D01*
X100020380Y-66860380D01*
X99925142Y-66860380D01*
X99782285Y-66908000D01*
X99734666Y-66955619D01*
X98877523Y-66860380D02*
X99068000Y-66860380D01*
X99163238Y-66908000D01*
X99210857Y-66955619D01*
X99306095Y-67098476D01*
X99353714Y-67288952D01*
X99353714Y-67669904D01*
X99306095Y-67765142D01*
X99258476Y-67812761D01*
X99163238Y-67860380D01*
X98972761Y-67860380D01*
X98877523Y-67812761D01*
X98829904Y-67765142D01*
X98782285Y-67669904D01*
X98782285Y-67431809D01*
X98829904Y-67336571D01*
X98877523Y-67288952D01*
X98972761Y-67241333D01*
X99163238Y-67241333D01*
X99258476Y-67288952D01*
X99306095Y-67336571D01*
X99353714Y-67431809D01*
X92336857Y-123896380D02*
X92670190Y-123420190D01*
X92908285Y-123896380D02*
X92908285Y-122896380D01*
X92527333Y-122896380D01*
X92432095Y-122944000D01*
X92384476Y-122991619D01*
X92336857Y-123086857D01*
X92336857Y-123229714D01*
X92384476Y-123324952D01*
X92432095Y-123372571D01*
X92527333Y-123420190D01*
X92908285Y-123420190D01*
X91384476Y-123896380D02*
X91955904Y-123896380D01*
X91670190Y-123896380D02*
X91670190Y-122896380D01*
X91765428Y-123039238D01*
X91860666Y-123134476D01*
X91955904Y-123182095D01*
X90765428Y-122896380D02*
X90670190Y-122896380D01*
X90574952Y-122944000D01*
X90527333Y-122991619D01*
X90479714Y-123086857D01*
X90432095Y-123277333D01*
X90432095Y-123515428D01*
X90479714Y-123705904D01*
X90527333Y-123801142D01*
X90574952Y-123848761D01*
X90670190Y-123896380D01*
X90765428Y-123896380D01*
X90860666Y-123848761D01*
X90908285Y-123801142D01*
X90955904Y-123705904D01*
X91003523Y-123515428D01*
X91003523Y-123277333D01*
X90955904Y-123086857D01*
X90908285Y-122991619D01*
X90860666Y-122944000D01*
X90765428Y-122896380D01*
X103798666Y-135075142D02*
X103846285Y-135122761D01*
X103989142Y-135170380D01*
X104084380Y-135170380D01*
X104227238Y-135122761D01*
X104322476Y-135027523D01*
X104370095Y-134932285D01*
X104417714Y-134741809D01*
X104417714Y-134598952D01*
X104370095Y-134408476D01*
X104322476Y-134313238D01*
X104227238Y-134218000D01*
X104084380Y-134170380D01*
X103989142Y-134170380D01*
X103846285Y-134218000D01*
X103798666Y-134265619D01*
X103322476Y-135170380D02*
X103132000Y-135170380D01*
X103036761Y-135122761D01*
X102989142Y-135075142D01*
X102893904Y-134932285D01*
X102846285Y-134741809D01*
X102846285Y-134360857D01*
X102893904Y-134265619D01*
X102941523Y-134218000D01*
X103036761Y-134170380D01*
X103227238Y-134170380D01*
X103322476Y-134218000D01*
X103370095Y-134265619D01*
X103417714Y-134360857D01*
X103417714Y-134598952D01*
X103370095Y-134694190D01*
X103322476Y-134741809D01*
X103227238Y-134789428D01*
X103036761Y-134789428D01*
X102941523Y-134741809D01*
X102893904Y-134694190D01*
X102846285Y-134598952D01*
X115228666Y-128119142D02*
X115276285Y-128166761D01*
X115419142Y-128214380D01*
X115514380Y-128214380D01*
X115657238Y-128166761D01*
X115752476Y-128071523D01*
X115800095Y-127976285D01*
X115847714Y-127785809D01*
X115847714Y-127642952D01*
X115800095Y-127452476D01*
X115752476Y-127357238D01*
X115657238Y-127262000D01*
X115514380Y-127214380D01*
X115419142Y-127214380D01*
X115276285Y-127262000D01*
X115228666Y-127309619D01*
X114276285Y-128214380D02*
X114847714Y-128214380D01*
X114562000Y-128214380D02*
X114562000Y-127214380D01*
X114657238Y-127357238D01*
X114752476Y-127452476D01*
X114847714Y-127500095D01*
D12*
X101600000Y-180360000D02*
X103550000Y-180360000D01*
X101600000Y-175240000D02*
X105050000Y-175240000D01*
X101600000Y-180360000D02*
X99650000Y-180360000D01*
X101600000Y-175240000D02*
X99650000Y-175240000D01*
X94260936Y-134847000D02*
X94715064Y-134847000D01*
X94260936Y-133377000D02*
X94715064Y-133377000D01*
X108685064Y-133377000D02*
X108230936Y-133377000D01*
X108685064Y-134847000D02*
X108230936Y-134847000D01*
X99550000Y-205932500D02*
X99550000Y-205932500D01*
X110590000Y-205932500D02*
X110590000Y-199432500D01*
X92610000Y-199432500D02*
X92610000Y-205932500D01*
X111890000Y-198122500D02*
X91310000Y-198122500D01*
X99550000Y-205932500D02*
X99550000Y-207242500D01*
X111890000Y-207242500D02*
X111890000Y-198122500D01*
X91310000Y-198122500D02*
X91310000Y-207242500D01*
X106680000Y-207632500D02*
X107180000Y-208632500D01*
X103650000Y-207242500D02*
X103650000Y-205932500D01*
X103650000Y-205932500D02*
X110590000Y-205932500D01*
X107180000Y-208632500D02*
X106180000Y-208632500D01*
X106180000Y-208632500D02*
X106680000Y-207632500D01*
X92610000Y-205932500D02*
X99550000Y-205932500D01*
X110590000Y-199432500D02*
X92610000Y-199432500D01*
X91310000Y-207242500D02*
X111890000Y-207242500D01*
X103893252Y-69823000D02*
X103370748Y-69823000D01*
X103893252Y-68353000D02*
X103370748Y-68353000D01*
D10*
X94618000Y-75438000D02*
G75*
G03*
X94618000Y-75438000I-1400000J0D01*
G01*
D12*
X93595564Y-67337000D02*
X93141436Y-67337000D01*
X93595564Y-68807000D02*
X93141436Y-68807000D01*
X108211195Y-177545000D02*
X108665323Y-177545000D01*
X108211195Y-176075000D02*
X108665323Y-176075000D01*
X108685064Y-132307000D02*
X108230936Y-132307000D01*
X108685064Y-130837000D02*
X108230936Y-130837000D01*
X112232000Y-60944000D02*
X108332000Y-60944000D01*
X112232000Y-58944000D02*
X112232000Y-60944000D01*
X112232000Y-58944000D02*
X108332000Y-58944000D01*
X114110000Y-136052000D02*
X106870000Y-136052000D01*
X114110000Y-136052000D02*
X114110000Y-139792000D01*
X114110000Y-139792000D02*
X106870000Y-139792000D01*
X106870000Y-136052000D02*
X106870000Y-139792000D01*
X91550000Y-97320000D02*
X90950000Y-97320000D01*
X90950000Y-95720000D02*
X91550000Y-95720000D01*
X96970000Y-92600000D02*
X96970000Y-100440000D01*
X90950000Y-98260000D02*
X91550000Y-98260000D01*
X95970000Y-93980000D02*
X95970000Y-99060000D01*
X95970000Y-99060000D02*
X96970000Y-99060000D01*
X96970000Y-93980000D02*
X95970000Y-93980000D01*
X91550000Y-99860000D02*
X90950000Y-99860000D01*
X95440000Y-98810000D02*
X95970000Y-99060000D01*
X91550000Y-95720000D02*
X91550000Y-97320000D01*
X90950000Y-92600000D02*
X96970000Y-92600000D01*
X91550000Y-93180000D02*
X91550000Y-94780000D01*
X96970000Y-98810000D02*
X95970000Y-98810000D01*
X96970000Y-100440000D02*
X90950000Y-100440000D01*
X91980000Y-92310000D02*
X95980000Y-92310000D01*
X95970000Y-93980000D02*
X95440000Y-94230000D01*
X90950000Y-93180000D02*
X91550000Y-93180000D01*
X91550000Y-94780000D02*
X90950000Y-94780000D01*
X96970000Y-94230000D02*
X95970000Y-94230000D01*
X90950000Y-100440000D02*
X90950000Y-92600000D01*
X95440000Y-94230000D02*
X95440000Y-98810000D01*
X91550000Y-98260000D02*
X91550000Y-99860000D01*
X99809511Y-183615000D02*
X99287007Y-183615000D01*
X99809511Y-182145000D02*
X99287007Y-182145000D01*
X101600000Y-128504000D02*
X105050000Y-128504000D01*
X101600000Y-133624000D02*
X103550000Y-133624000D01*
X101600000Y-133624000D02*
X99650000Y-133624000D01*
X101600000Y-128504000D02*
X99650000Y-128504000D01*
X103669000Y-192810000D02*
X103669000Y-194512000D01*
X105030000Y-188559000D02*
X105030000Y-190730000D01*
X104069000Y-188818000D02*
X104069000Y-190730000D01*
X102589000Y-190120000D02*
X102589000Y-193420000D01*
X103349000Y-192810000D02*
X103349000Y-194286000D01*
X104149000Y-188784000D02*
X104149000Y-190730000D01*
X103549000Y-192810000D02*
X103549000Y-194434000D01*
X103029000Y-189546000D02*
X103029000Y-193994000D01*
X104229000Y-192810000D02*
X104229000Y-194788000D01*
X104029000Y-192810000D02*
X104029000Y-194704000D01*
X103189000Y-192810000D02*
X103189000Y-194150000D01*
X104469000Y-192810000D02*
X104469000Y-194868000D01*
X103389000Y-189222000D02*
X103389000Y-190730000D01*
X105150000Y-188548000D02*
X105150000Y-190730000D01*
X105350000Y-188540000D02*
X105350000Y-195000000D01*
X103349000Y-189254000D02*
X103349000Y-190730000D01*
X103389000Y-192810000D02*
X103389000Y-194318000D01*
X104589000Y-192810000D02*
X104589000Y-194901000D01*
X103269000Y-192810000D02*
X103269000Y-194220000D01*
X102189000Y-191137000D02*
X102189000Y-192403000D01*
X102349000Y-190605000D02*
X102349000Y-192935000D01*
X104990000Y-188564000D02*
X104990000Y-190730000D01*
X104189000Y-188768000D02*
X104189000Y-190730000D01*
X102469000Y-190338000D02*
X102469000Y-193202000D01*
X103749000Y-188980000D02*
X103749000Y-190730000D01*
X103109000Y-192810000D02*
X103109000Y-194075000D01*
X105390000Y-188540000D02*
X105390000Y-195000000D01*
X103269000Y-189320000D02*
X103269000Y-190730000D01*
X103509000Y-189134000D02*
X103509000Y-190730000D01*
X105110000Y-192810000D02*
X105110000Y-194988000D01*
X104469000Y-188672000D02*
X104469000Y-190730000D01*
X102669000Y-189994000D02*
X102669000Y-193546000D01*
X102309000Y-190711000D02*
X102309000Y-192829000D01*
X103629000Y-192810000D02*
X103629000Y-194486000D01*
X105030000Y-192810000D02*
X105030000Y-194981000D01*
X102629000Y-190056000D02*
X102629000Y-193484000D01*
X102989000Y-189588000D02*
X102989000Y-193952000D01*
X103469000Y-189163000D02*
X103469000Y-190730000D01*
X103589000Y-189080000D02*
X103589000Y-190730000D01*
X105190000Y-188546000D02*
X105190000Y-194994000D01*
X104950000Y-188569000D02*
X104950000Y-190730000D01*
X103509000Y-192810000D02*
X103509000Y-194406000D01*
X103429000Y-189192000D02*
X103429000Y-190730000D01*
X104589000Y-188639000D02*
X104589000Y-190730000D01*
X102869000Y-189726000D02*
X102869000Y-193814000D01*
X102429000Y-190420000D02*
X102429000Y-193120000D01*
X104790000Y-188595000D02*
X104790000Y-190730000D01*
X104269000Y-192810000D02*
X104269000Y-194803000D01*
X105270000Y-188542000D02*
X105270000Y-194998000D01*
X103469000Y-192810000D02*
X103469000Y-194377000D01*
X103549000Y-189106000D02*
X103549000Y-190730000D01*
X104349000Y-192810000D02*
X104349000Y-194831000D01*
X104349000Y-188709000D02*
X104349000Y-190730000D01*
X103669000Y-189028000D02*
X103669000Y-190730000D01*
X103989000Y-192810000D02*
X103989000Y-194686000D01*
X104509000Y-188660000D02*
X104509000Y-190730000D01*
X103189000Y-189390000D02*
X103189000Y-190730000D01*
X104069000Y-192810000D02*
X104069000Y-194722000D01*
X102509000Y-190261000D02*
X102509000Y-193279000D01*
X104189000Y-192810000D02*
X104189000Y-194772000D01*
X102389000Y-190508000D02*
X102389000Y-193032000D01*
X103709000Y-192810000D02*
X103709000Y-194536000D01*
X103069000Y-189505000D02*
X103069000Y-194035000D01*
X104830000Y-192810000D02*
X104830000Y-194952000D01*
X103909000Y-188894000D02*
X103909000Y-190730000D01*
X103789000Y-188958000D02*
X103789000Y-190730000D01*
X104149000Y-192810000D02*
X104149000Y-194756000D01*
X103869000Y-192810000D02*
X103869000Y-194626000D01*
X104109000Y-188800000D02*
X104109000Y-190730000D01*
X104710000Y-188611000D02*
X104710000Y-190730000D01*
X104269000Y-188737000D02*
X104269000Y-190730000D01*
X103309000Y-189286000D02*
X103309000Y-190730000D01*
X102149000Y-191368000D02*
X102149000Y-192172000D01*
X105230000Y-188543000D02*
X105230000Y-194997000D01*
X103429000Y-192810000D02*
X103429000Y-194348000D01*
X104910000Y-188575000D02*
X104910000Y-190730000D01*
X104309000Y-188723000D02*
X104309000Y-190730000D01*
X104990000Y-192810000D02*
X104990000Y-194976000D01*
X104549000Y-188649000D02*
X104549000Y-190730000D01*
X108890241Y-189931000D02*
X108260241Y-189931000D01*
X105310000Y-188540000D02*
X105310000Y-195000000D01*
X103149000Y-189427000D02*
X103149000Y-190730000D01*
X104750000Y-188603000D02*
X104750000Y-190730000D01*
X105070000Y-188555000D02*
X105070000Y-190730000D01*
X103309000Y-192810000D02*
X103309000Y-194254000D01*
X102549000Y-190189000D02*
X102549000Y-193351000D01*
X104870000Y-188581000D02*
X104870000Y-190730000D01*
X103949000Y-188874000D02*
X103949000Y-190730000D01*
X103949000Y-192810000D02*
X103949000Y-194666000D01*
X104309000Y-192810000D02*
X104309000Y-194817000D01*
X104910000Y-192810000D02*
X104910000Y-194965000D01*
X103789000Y-192810000D02*
X103789000Y-194582000D01*
X103109000Y-189465000D02*
X103109000Y-190730000D01*
X102789000Y-189826000D02*
X102789000Y-193714000D01*
X102909000Y-189678000D02*
X102909000Y-193862000D01*
X102949000Y-189633000D02*
X102949000Y-193907000D01*
X104509000Y-192810000D02*
X104509000Y-194880000D01*
X104669000Y-188620000D02*
X104669000Y-190730000D01*
X104629000Y-192810000D02*
X104629000Y-194911000D01*
X103709000Y-189004000D02*
X103709000Y-190730000D01*
X104629000Y-188629000D02*
X104629000Y-190730000D01*
X105070000Y-192810000D02*
X105070000Y-194985000D01*
X103909000Y-192810000D02*
X103909000Y-194646000D01*
X103989000Y-188854000D02*
X103989000Y-190730000D01*
X103829000Y-192810000D02*
X103829000Y-194604000D01*
X103589000Y-192810000D02*
X103589000Y-194460000D01*
X103869000Y-188914000D02*
X103869000Y-190730000D01*
X104109000Y-192810000D02*
X104109000Y-194740000D01*
X108575241Y-189616000D02*
X108575241Y-190246000D01*
X104669000Y-192810000D02*
X104669000Y-194920000D01*
X103629000Y-189054000D02*
X103629000Y-190730000D01*
X104389000Y-188696000D02*
X104389000Y-190730000D01*
X105150000Y-192810000D02*
X105150000Y-194992000D01*
X103149000Y-192810000D02*
X103149000Y-194113000D01*
X103229000Y-192810000D02*
X103229000Y-194186000D01*
X104429000Y-192810000D02*
X104429000Y-194856000D01*
X103829000Y-188936000D02*
X103829000Y-190730000D01*
X102709000Y-189936000D02*
X102709000Y-193604000D01*
X104029000Y-188836000D02*
X104029000Y-190730000D01*
X102229000Y-190968000D02*
X102229000Y-192572000D01*
X104950000Y-192810000D02*
X104950000Y-194971000D01*
X104389000Y-192810000D02*
X104389000Y-194844000D01*
X104229000Y-188752000D02*
X104229000Y-190730000D01*
X102749000Y-189880000D02*
X102749000Y-193660000D01*
X105110000Y-188552000D02*
X105110000Y-190730000D01*
X102269000Y-190830000D02*
X102269000Y-192710000D01*
X103229000Y-189354000D02*
X103229000Y-190730000D01*
X104710000Y-192810000D02*
X104710000Y-194929000D01*
X103749000Y-192810000D02*
X103749000Y-194560000D01*
X102829000Y-189775000D02*
X102829000Y-193765000D01*
X104429000Y-188684000D02*
X104429000Y-190730000D01*
X104549000Y-192810000D02*
X104549000Y-194891000D01*
X104870000Y-192810000D02*
X104870000Y-194959000D01*
X104750000Y-192810000D02*
X104750000Y-194937000D01*
X104830000Y-188588000D02*
X104830000Y-190730000D01*
X104790000Y-192810000D02*
X104790000Y-194945000D01*
X108660000Y-191770000D02*
G75*
G03*
X108660000Y-191770000I-3270000J0D01*
G01*
X95089000Y-189740000D02*
X95089000Y-193292000D01*
X96209000Y-192556000D02*
X96209000Y-194328000D01*
X96529000Y-188546000D02*
X96529000Y-190476000D01*
X97250000Y-188334000D02*
X97250000Y-190476000D01*
X95129000Y-189682000D02*
X95129000Y-193350000D01*
X95329000Y-189424000D02*
X95329000Y-193608000D01*
X97530000Y-188298000D02*
X97530000Y-190476000D01*
X97450000Y-192556000D02*
X97450000Y-194727000D01*
X97570000Y-188294000D02*
X97570000Y-190476000D01*
X97089000Y-188366000D02*
X97089000Y-190476000D01*
X95689000Y-189066000D02*
X95689000Y-190476000D01*
X97410000Y-192556000D02*
X97410000Y-194722000D01*
X96769000Y-192556000D02*
X96769000Y-194577000D01*
X96489000Y-188564000D02*
X96489000Y-190476000D01*
X97250000Y-192556000D02*
X97250000Y-194698000D01*
X95809000Y-192556000D02*
X95809000Y-194064000D01*
X96889000Y-192556000D02*
X96889000Y-194614000D01*
X95489000Y-189251000D02*
X95489000Y-193781000D01*
X95289000Y-189472000D02*
X95289000Y-193560000D01*
X94849000Y-190166000D02*
X94849000Y-192866000D01*
X96169000Y-188726000D02*
X96169000Y-190476000D01*
X96849000Y-192556000D02*
X96849000Y-194602000D01*
X96609000Y-192556000D02*
X96609000Y-194518000D01*
X95689000Y-192556000D02*
X95689000Y-193966000D01*
X96049000Y-188800000D02*
X96049000Y-190476000D01*
X96889000Y-188418000D02*
X96889000Y-190476000D01*
X96249000Y-188682000D02*
X96249000Y-190476000D01*
X94689000Y-190576000D02*
X94689000Y-192456000D01*
X95969000Y-188852000D02*
X95969000Y-190476000D01*
X96609000Y-188514000D02*
X96609000Y-190476000D01*
X96329000Y-192556000D02*
X96329000Y-194392000D01*
X96809000Y-192556000D02*
X96809000Y-194590000D01*
X96409000Y-192556000D02*
X96409000Y-194432000D01*
X95729000Y-192556000D02*
X95729000Y-194000000D01*
X97170000Y-192556000D02*
X97170000Y-194683000D01*
X96089000Y-188774000D02*
X96089000Y-190476000D01*
X97130000Y-192556000D02*
X97130000Y-194675000D01*
X95769000Y-189000000D02*
X95769000Y-190476000D01*
X96489000Y-192556000D02*
X96489000Y-194468000D01*
X96649000Y-192556000D02*
X96649000Y-194534000D01*
X96729000Y-188469000D02*
X96729000Y-190476000D01*
X96529000Y-192556000D02*
X96529000Y-194486000D01*
X95369000Y-189379000D02*
X95369000Y-193653000D01*
X97009000Y-188385000D02*
X97009000Y-190476000D01*
X96649000Y-188498000D02*
X96649000Y-190476000D01*
X96569000Y-192556000D02*
X96569000Y-194502000D01*
X95889000Y-192556000D02*
X95889000Y-194123000D01*
X97089000Y-192556000D02*
X97089000Y-194666000D01*
X97170000Y-188349000D02*
X97170000Y-190476000D01*
X95409000Y-189334000D02*
X95409000Y-193698000D01*
X94889000Y-190084000D02*
X94889000Y-192948000D01*
X96929000Y-188406000D02*
X96929000Y-190476000D01*
X96729000Y-192556000D02*
X96729000Y-194563000D01*
X96209000Y-188704000D02*
X96209000Y-190476000D01*
X95529000Y-192556000D02*
X95529000Y-193821000D01*
X94729000Y-190457000D02*
X94729000Y-192575000D01*
X96969000Y-188395000D02*
X96969000Y-190476000D01*
X95969000Y-192556000D02*
X95969000Y-194180000D01*
X97130000Y-188357000D02*
X97130000Y-190476000D01*
X97290000Y-192556000D02*
X97290000Y-194705000D01*
X96329000Y-188640000D02*
X96329000Y-190476000D01*
X96129000Y-188750000D02*
X96129000Y-190476000D01*
X97730000Y-188286000D02*
X97730000Y-194746000D01*
X96689000Y-188483000D02*
X96689000Y-190476000D01*
X96409000Y-188600000D02*
X96409000Y-190476000D01*
X97330000Y-188321000D02*
X97330000Y-190476000D01*
X96289000Y-192556000D02*
X96289000Y-194372000D01*
X95569000Y-189173000D02*
X95569000Y-190476000D01*
X96249000Y-192556000D02*
X96249000Y-194350000D01*
X97370000Y-192556000D02*
X97370000Y-194717000D01*
X96569000Y-188530000D02*
X96569000Y-190476000D01*
X95849000Y-188938000D02*
X95849000Y-190476000D01*
X94969000Y-189935000D02*
X94969000Y-193097000D01*
X97370000Y-188315000D02*
X97370000Y-190476000D01*
X95889000Y-188909000D02*
X95889000Y-190476000D01*
X96929000Y-192556000D02*
X96929000Y-194626000D01*
X94769000Y-190351000D02*
X94769000Y-192681000D01*
X96449000Y-192556000D02*
X96449000Y-194450000D01*
X95609000Y-192556000D02*
X95609000Y-193896000D01*
X101310241Y-189677000D02*
X100680241Y-189677000D01*
X97450000Y-188305000D02*
X97450000Y-190476000D01*
X96089000Y-192556000D02*
X96089000Y-194258000D01*
X96049000Y-192556000D02*
X96049000Y-194232000D01*
X100995241Y-189362000D02*
X100995241Y-189992000D01*
X94809000Y-190254000D02*
X94809000Y-192778000D01*
X97049000Y-192556000D02*
X97049000Y-194657000D01*
X96369000Y-192556000D02*
X96369000Y-194412000D01*
X96129000Y-192556000D02*
X96129000Y-194282000D01*
X95569000Y-192556000D02*
X95569000Y-193859000D01*
X95609000Y-189136000D02*
X95609000Y-190476000D01*
X96009000Y-192556000D02*
X96009000Y-194206000D01*
X96809000Y-188442000D02*
X96809000Y-190476000D01*
X97290000Y-188327000D02*
X97290000Y-190476000D01*
X96689000Y-192556000D02*
X96689000Y-194549000D01*
X94649000Y-190714000D02*
X94649000Y-192318000D01*
X95209000Y-189572000D02*
X95209000Y-193460000D01*
X97410000Y-188310000D02*
X97410000Y-190476000D01*
X97530000Y-192556000D02*
X97530000Y-194734000D01*
X97210000Y-188341000D02*
X97210000Y-190476000D01*
X97650000Y-188289000D02*
X97650000Y-194743000D01*
X97770000Y-188286000D02*
X97770000Y-194746000D01*
X96289000Y-188660000D02*
X96289000Y-190476000D01*
X95929000Y-188880000D02*
X95929000Y-190476000D01*
X95729000Y-189032000D02*
X95729000Y-190476000D01*
X97490000Y-188301000D02*
X97490000Y-190476000D01*
X97690000Y-188288000D02*
X97690000Y-194744000D01*
X96769000Y-188455000D02*
X96769000Y-190476000D01*
X97570000Y-192556000D02*
X97570000Y-194738000D01*
X95849000Y-192556000D02*
X95849000Y-194094000D01*
X97210000Y-192556000D02*
X97210000Y-194691000D01*
X96969000Y-192556000D02*
X96969000Y-194637000D01*
X95249000Y-189521000D02*
X95249000Y-193511000D01*
X95449000Y-189292000D02*
X95449000Y-193740000D01*
X94609000Y-190883000D02*
X94609000Y-192149000D01*
X95169000Y-189626000D02*
X95169000Y-193406000D01*
X97009000Y-192556000D02*
X97009000Y-194647000D01*
X97490000Y-192556000D02*
X97490000Y-194731000D01*
X97049000Y-188375000D02*
X97049000Y-190476000D01*
X96169000Y-192556000D02*
X96169000Y-194306000D01*
X95929000Y-192556000D02*
X95929000Y-194152000D01*
X96849000Y-188430000D02*
X96849000Y-190476000D01*
X97610000Y-188292000D02*
X97610000Y-194740000D01*
X97330000Y-192556000D02*
X97330000Y-194711000D01*
X94929000Y-190007000D02*
X94929000Y-193025000D01*
X96369000Y-188620000D02*
X96369000Y-190476000D01*
X95529000Y-189211000D02*
X95529000Y-190476000D01*
X94569000Y-191114000D02*
X94569000Y-191918000D01*
X96449000Y-188582000D02*
X96449000Y-190476000D01*
X97810000Y-188286000D02*
X97810000Y-194746000D01*
X95809000Y-188968000D02*
X95809000Y-190476000D01*
X95009000Y-189866000D02*
X95009000Y-193166000D01*
X95649000Y-192556000D02*
X95649000Y-193932000D01*
X95769000Y-192556000D02*
X95769000Y-194032000D01*
X95049000Y-189802000D02*
X95049000Y-193230000D01*
X96009000Y-188826000D02*
X96009000Y-190476000D01*
X95649000Y-189100000D02*
X95649000Y-190476000D01*
X101080000Y-191516000D02*
G75*
G03*
X101080000Y-191516000I-3270000J0D01*
G01*
X93141436Y-64797000D02*
X93595564Y-64797000D01*
X93141436Y-66267000D02*
X93595564Y-66267000D01*
X93595564Y-69877000D02*
X93141436Y-69877000D01*
X93595564Y-71347000D02*
X93141436Y-71347000D01*
X100557064Y-79021000D02*
X100102936Y-79021000D01*
X100557064Y-80491000D02*
X100102936Y-80491000D01*
X111630000Y-81750000D02*
X112230000Y-81750000D01*
X107210000Y-90170000D02*
X107740000Y-89920000D01*
X111630000Y-86830000D02*
X112230000Y-86830000D01*
X111200000Y-91840000D02*
X107200000Y-91840000D01*
X112230000Y-85890000D02*
X111630000Y-85890000D01*
X112230000Y-83350000D02*
X111630000Y-83350000D01*
X106210000Y-89920000D02*
X107210000Y-89920000D01*
X107210000Y-82550000D02*
X106210000Y-82550000D01*
X106210000Y-91550000D02*
X106210000Y-81170000D01*
X112230000Y-81170000D02*
X112230000Y-91550000D01*
X111630000Y-85890000D02*
X111630000Y-84290000D01*
X112230000Y-91550000D02*
X106210000Y-91550000D01*
X112230000Y-90970000D02*
X111630000Y-90970000D01*
X106210000Y-90170000D02*
X107210000Y-90170000D01*
X106210000Y-82800000D02*
X107210000Y-82800000D01*
X107210000Y-90170000D02*
X107210000Y-82550000D01*
X107740000Y-89920000D02*
X107740000Y-82800000D01*
X111630000Y-84290000D02*
X112230000Y-84290000D01*
X111630000Y-88430000D02*
X111630000Y-86830000D01*
X107740000Y-82800000D02*
X107210000Y-82550000D01*
X111630000Y-90970000D02*
X111630000Y-89370000D01*
X111630000Y-89370000D02*
X112230000Y-89370000D01*
X106210000Y-81170000D02*
X112230000Y-81170000D01*
X112230000Y-88430000D02*
X111630000Y-88430000D01*
X111630000Y-83350000D02*
X111630000Y-81750000D01*
D10*
X94872000Y-48768000D02*
G75*
G03*
X94872000Y-48768000I-1400000J0D01*
G01*
D12*
X112232000Y-61738000D02*
X108332000Y-61738000D01*
X112232000Y-63738000D02*
X108332000Y-63738000D01*
X112232000Y-61738000D02*
X112232000Y-63738000D01*
X109754936Y-68807000D02*
X110209064Y-68807000D01*
X109754936Y-67337000D02*
X110209064Y-67337000D01*
X95722000Y-59198000D02*
X91822000Y-59198000D01*
X95722000Y-59198000D02*
X95722000Y-61198000D01*
X95722000Y-61198000D02*
X91822000Y-61198000D01*
X103873511Y-182145000D02*
X103351007Y-182145000D01*
X103873511Y-183615000D02*
X103351007Y-183615000D01*
X94715064Y-132307000D02*
X94260936Y-132307000D01*
X94715064Y-130837000D02*
X94260936Y-130837000D01*
X93699064Y-62257000D02*
X93244936Y-62257000D01*
X93699064Y-63727000D02*
X93244936Y-63727000D01*
D10*
X111382000Y-170688000D02*
G75*
G03*
X111382000Y-170688000I-1400000J0D01*
G01*
D12*
X94949323Y-176075000D02*
X94495195Y-176075000D01*
X94949323Y-177545000D02*
X94495195Y-177545000D01*
X91677000Y-142518000D02*
X91677000Y-144312000D01*
X92517000Y-142518000D02*
X92517000Y-144628000D01*
X90757000Y-139386000D02*
X90757000Y-143570000D01*
X91477000Y-138762000D02*
X91477000Y-140438000D01*
X91277000Y-138900000D02*
X91277000Y-140438000D01*
X92397000Y-138357000D02*
X92397000Y-140438000D01*
X91797000Y-142518000D02*
X91797000Y-144374000D01*
X91517000Y-138736000D02*
X91517000Y-140438000D01*
X92918000Y-138263000D02*
X92918000Y-140438000D01*
X92678000Y-138296000D02*
X92678000Y-140438000D01*
X91157000Y-142518000D02*
X91157000Y-143962000D01*
X91117000Y-142518000D02*
X91117000Y-143928000D01*
X90677000Y-139483000D02*
X90677000Y-143473000D01*
X92758000Y-142518000D02*
X92758000Y-144673000D01*
X91357000Y-138842000D02*
X91357000Y-140438000D01*
X90797000Y-139341000D02*
X90797000Y-143615000D01*
X91917000Y-142518000D02*
X91917000Y-144430000D01*
X91837000Y-142518000D02*
X91837000Y-144394000D01*
X92077000Y-138460000D02*
X92077000Y-140438000D01*
X92598000Y-138311000D02*
X92598000Y-140438000D01*
X91477000Y-142518000D02*
X91477000Y-144194000D01*
X90997000Y-142518000D02*
X90997000Y-143821000D01*
X92718000Y-142518000D02*
X92718000Y-144667000D01*
X91437000Y-142518000D02*
X91437000Y-144168000D01*
X90917000Y-139213000D02*
X90917000Y-143743000D01*
X92077000Y-142518000D02*
X92077000Y-144496000D01*
X91317000Y-138871000D02*
X91317000Y-140438000D01*
X91037000Y-139098000D02*
X91037000Y-140438000D01*
X92397000Y-142518000D02*
X92397000Y-144599000D01*
X91237000Y-142518000D02*
X91237000Y-144026000D01*
X91597000Y-142518000D02*
X91597000Y-144268000D01*
X92037000Y-138476000D02*
X92037000Y-140438000D01*
X92638000Y-142518000D02*
X92638000Y-144653000D01*
X93118000Y-138250000D02*
X93118000Y-144706000D01*
X90957000Y-142518000D02*
X90957000Y-143783000D01*
X92277000Y-138392000D02*
X92277000Y-140438000D01*
X92477000Y-138337000D02*
X92477000Y-140438000D01*
X96423241Y-139324000D02*
X96423241Y-139954000D01*
X90077000Y-140676000D02*
X90077000Y-142280000D01*
X90957000Y-139173000D02*
X90957000Y-140438000D01*
X91277000Y-142518000D02*
X91277000Y-144056000D01*
X92958000Y-142518000D02*
X92958000Y-144696000D01*
X92157000Y-142518000D02*
X92157000Y-144525000D01*
X90317000Y-140046000D02*
X90317000Y-142910000D01*
X92558000Y-142518000D02*
X92558000Y-144637000D01*
X91197000Y-142518000D02*
X91197000Y-143994000D01*
X92277000Y-142518000D02*
X92277000Y-144564000D01*
X92998000Y-142518000D02*
X92998000Y-144700000D01*
X91437000Y-138788000D02*
X91437000Y-140438000D01*
X90557000Y-139644000D02*
X90557000Y-143312000D01*
X91557000Y-142518000D02*
X91557000Y-144244000D01*
X92638000Y-138303000D02*
X92638000Y-140438000D01*
X92357000Y-142518000D02*
X92357000Y-144588000D01*
X91757000Y-142518000D02*
X91757000Y-144354000D01*
X92838000Y-138272000D02*
X92838000Y-140438000D01*
X91877000Y-138544000D02*
X91877000Y-140438000D01*
X92117000Y-142518000D02*
X92117000Y-144511000D01*
X92317000Y-138380000D02*
X92317000Y-140438000D01*
X91717000Y-138622000D02*
X91717000Y-140438000D01*
X91517000Y-142518000D02*
X91517000Y-144220000D01*
X92758000Y-138283000D02*
X92758000Y-140438000D01*
X92878000Y-138267000D02*
X92878000Y-140438000D01*
X92237000Y-142518000D02*
X92237000Y-144552000D01*
X89997000Y-141076000D02*
X89997000Y-141880000D01*
X92437000Y-142518000D02*
X92437000Y-144609000D01*
X90397000Y-139897000D02*
X90397000Y-143059000D01*
X92838000Y-142518000D02*
X92838000Y-144684000D01*
X90837000Y-139296000D02*
X90837000Y-143660000D01*
X96738241Y-139639000D02*
X96108241Y-139639000D01*
X91237000Y-138930000D02*
X91237000Y-140438000D01*
X93038000Y-138254000D02*
X93038000Y-144702000D01*
X91037000Y-142518000D02*
X91037000Y-143858000D01*
X93078000Y-138251000D02*
X93078000Y-144705000D01*
X90517000Y-139702000D02*
X90517000Y-143254000D01*
X90037000Y-140845000D02*
X90037000Y-142111000D01*
X91637000Y-138666000D02*
X91637000Y-140438000D01*
X91397000Y-138814000D02*
X91397000Y-140438000D01*
X92477000Y-142518000D02*
X92477000Y-144619000D01*
X91757000Y-138602000D02*
X91757000Y-140438000D01*
X92357000Y-138368000D02*
X92357000Y-140438000D01*
X93238000Y-138248000D02*
X93238000Y-144708000D01*
X92958000Y-138260000D02*
X92958000Y-140438000D01*
X90477000Y-139764000D02*
X90477000Y-143192000D01*
X90157000Y-140419000D02*
X90157000Y-142537000D01*
X91077000Y-142518000D02*
X91077000Y-143894000D01*
X92998000Y-138256000D02*
X92998000Y-140438000D01*
X92157000Y-138431000D02*
X92157000Y-140438000D01*
X92237000Y-138404000D02*
X92237000Y-140438000D01*
X91077000Y-139062000D02*
X91077000Y-140438000D01*
X90277000Y-140128000D02*
X90277000Y-142828000D01*
X91197000Y-138962000D02*
X91197000Y-140438000D01*
X91917000Y-138526000D02*
X91917000Y-140438000D01*
X90717000Y-139434000D02*
X90717000Y-143522000D01*
X91677000Y-138644000D02*
X91677000Y-140438000D01*
X92197000Y-138417000D02*
X92197000Y-140438000D01*
X91397000Y-142518000D02*
X91397000Y-144142000D01*
X92718000Y-138289000D02*
X92718000Y-140438000D01*
X90357000Y-139969000D02*
X90357000Y-142987000D01*
X90877000Y-139254000D02*
X90877000Y-143702000D01*
X91557000Y-138712000D02*
X91557000Y-140438000D01*
X91997000Y-138492000D02*
X91997000Y-140438000D01*
X91317000Y-142518000D02*
X91317000Y-144085000D01*
X92437000Y-138347000D02*
X92437000Y-140438000D01*
X90997000Y-139135000D02*
X90997000Y-140438000D01*
X90197000Y-140313000D02*
X90197000Y-142643000D01*
X92598000Y-142518000D02*
X92598000Y-144645000D01*
X92878000Y-142518000D02*
X92878000Y-144689000D01*
X93198000Y-138248000D02*
X93198000Y-144708000D01*
X91717000Y-142518000D02*
X91717000Y-144334000D01*
X92798000Y-138277000D02*
X92798000Y-140438000D01*
X92117000Y-138445000D02*
X92117000Y-140438000D01*
X91597000Y-138688000D02*
X91597000Y-140438000D01*
X93158000Y-138248000D02*
X93158000Y-144708000D01*
X92517000Y-138328000D02*
X92517000Y-140438000D01*
X90117000Y-140538000D02*
X90117000Y-142418000D01*
X91877000Y-142518000D02*
X91877000Y-144412000D01*
X92317000Y-142518000D02*
X92317000Y-144576000D01*
X91357000Y-142518000D02*
X91357000Y-144114000D01*
X91157000Y-138994000D02*
X91157000Y-140438000D01*
X91997000Y-142518000D02*
X91997000Y-144464000D01*
X90237000Y-140216000D02*
X90237000Y-142740000D01*
X92558000Y-138319000D02*
X92558000Y-140438000D01*
X92037000Y-142518000D02*
X92037000Y-144480000D01*
X92678000Y-142518000D02*
X92678000Y-144660000D01*
X90637000Y-139534000D02*
X90637000Y-143422000D01*
X91117000Y-139028000D02*
X91117000Y-140438000D01*
X91797000Y-138582000D02*
X91797000Y-140438000D01*
X91957000Y-142518000D02*
X91957000Y-144448000D01*
X92197000Y-142518000D02*
X92197000Y-144539000D01*
X90597000Y-139588000D02*
X90597000Y-143368000D01*
X91637000Y-142518000D02*
X91637000Y-144290000D01*
X91957000Y-138508000D02*
X91957000Y-140438000D01*
X92798000Y-142518000D02*
X92798000Y-144679000D01*
X90437000Y-139828000D02*
X90437000Y-143128000D01*
X92918000Y-142518000D02*
X92918000Y-144693000D01*
X91837000Y-138562000D02*
X91837000Y-140438000D01*
X96508000Y-141478000D02*
G75*
G03*
X96508000Y-141478000I-3270000J0D01*
G01*
X95722000Y-58404000D02*
X91822000Y-58404000D01*
X95722000Y-56404000D02*
X91822000Y-56404000D01*
X95722000Y-56404000D02*
X95722000Y-58404000D01*
X94495195Y-178615000D02*
X94949323Y-178615000D01*
X94495195Y-180085000D02*
X94949323Y-180085000D01*
X108665323Y-178615000D02*
X108211195Y-178615000D01*
X108665323Y-180085000D02*
X108211195Y-180085000D01*
X110209064Y-71347000D02*
X109754936Y-71347000D01*
X110209064Y-69877000D02*
X109754936Y-69877000D01*
X96738000Y-119904000D02*
X96738000Y-121904000D01*
X96738000Y-119904000D02*
X92838000Y-119904000D01*
X96738000Y-121904000D02*
X92838000Y-121904000D01*
X101600000Y-66314000D02*
X103550000Y-66314000D01*
X101600000Y-66314000D02*
X99650000Y-66314000D01*
X101600000Y-61194000D02*
X99650000Y-61194000D01*
X101600000Y-61194000D02*
X105050000Y-61194000D01*
X109754936Y-64797000D02*
X110209064Y-64797000D01*
X109754936Y-66267000D02*
X110209064Y-66267000D01*
X95722000Y-53610000D02*
X95722000Y-55610000D01*
X95722000Y-53610000D02*
X91822000Y-53610000D01*
X95722000Y-55610000D02*
X91822000Y-55610000D01*
D10*
X94618000Y-170688000D02*
G75*
G03*
X94618000Y-170688000I-1400000J0D01*
G01*
D12*
X99829252Y-135663000D02*
X99306748Y-135663000D01*
X99829252Y-137133000D02*
X99306748Y-137133000D01*
X94715064Y-129767000D02*
X94260936Y-129767000D01*
X94715064Y-128297000D02*
X94260936Y-128297000D01*
X99829252Y-68353000D02*
X99306748Y-68353000D01*
X99829252Y-69823000D02*
X99306748Y-69823000D01*
X95223064Y-122709000D02*
X94768936Y-122709000D01*
X95223064Y-124179000D02*
X94768936Y-124179000D01*
X103893252Y-137133000D02*
X103370748Y-137133000D01*
X103893252Y-135663000D02*
X103370748Y-135663000D01*
X113856000Y-129632000D02*
X106616000Y-129632000D01*
X106616000Y-125892000D02*
X106616000Y-129632000D01*
X113856000Y-125892000D02*
X113856000Y-129632000D01*
X113856000Y-125892000D02*
X106616000Y-125892000D01*
%LPC*%
D13*
X106400000Y-45840000D03*
X96800000Y-45840000D03*
D14*
X99100000Y-53340000D03*
D15*
X101600000Y-53340000D03*
X104100000Y-53340000D03*
D14*
X101600000Y-75570000D03*
D15*
X101600000Y-73030000D03*
D13*
X106400000Y-102990000D03*
X96800000Y-102990000D03*
D14*
X99100000Y-110490000D03*
D15*
X101600000Y-110490000D03*
X104100000Y-110490000D03*
D13*
X96760000Y-217290000D03*
X106360000Y-217290000D03*
D14*
X99060000Y-224790000D03*
D15*
X101560000Y-224790000D03*
X104060000Y-224790000D03*
D13*
X96760000Y-160140000D03*
X106360000Y-160140000D03*
D14*
X99060000Y-167640000D03*
D15*
X101560000Y-167640000D03*
X104060000Y-167640000D03*
D16*
X93218000Y-113538000D03*
G36*
G01*
X105050000Y-175745000D02*
X105050000Y-176045000D01*
G75*
G02*
X104900000Y-176195000I-150000J0D01*
G01*
X103250000Y-176195000D01*
G75*
G02*
X103100000Y-176045000I0J150000D01*
G01*
X103100000Y-175745000D01*
G75*
G02*
X103250000Y-175595000I150000J0D01*
G01*
X104900000Y-175595000D01*
G75*
G02*
X105050000Y-175745000I0J-150000D01*
G01*
G37*
G36*
G01*
X105050000Y-177015000D02*
X105050000Y-177315000D01*
G75*
G02*
X104900000Y-177465000I-150000J0D01*
G01*
X103250000Y-177465000D01*
G75*
G02*
X103100000Y-177315000I0J150000D01*
G01*
X103100000Y-177015000D01*
G75*
G02*
X103250000Y-176865000I150000J0D01*
G01*
X104900000Y-176865000D01*
G75*
G02*
X105050000Y-177015000I0J-150000D01*
G01*
G37*
G36*
G01*
X105050000Y-178285000D02*
X105050000Y-178585000D01*
G75*
G02*
X104900000Y-178735000I-150000J0D01*
G01*
X103250000Y-178735000D01*
G75*
G02*
X103100000Y-178585000I0J150000D01*
G01*
X103100000Y-178285000D01*
G75*
G02*
X103250000Y-178135000I150000J0D01*
G01*
X104900000Y-178135000D01*
G75*
G02*
X105050000Y-178285000I0J-150000D01*
G01*
G37*
G36*
G01*
X105050000Y-179555000D02*
X105050000Y-179855000D01*
G75*
G02*
X104900000Y-180005000I-150000J0D01*
G01*
X103250000Y-180005000D01*
G75*
G02*
X103100000Y-179855000I0J150000D01*
G01*
X103100000Y-179555000D01*
G75*
G02*
X103250000Y-179405000I150000J0D01*
G01*
X104900000Y-179405000D01*
G75*
G02*
X105050000Y-179555000I0J-150000D01*
G01*
G37*
G36*
G01*
X100100000Y-179555000D02*
X100100000Y-179855000D01*
G75*
G02*
X99950000Y-180005000I-150000J0D01*
G01*
X98300000Y-180005000D01*
G75*
G02*
X98150000Y-179855000I0J150000D01*
G01*
X98150000Y-179555000D01*
G75*
G02*
X98300000Y-179405000I150000J0D01*
G01*
X99950000Y-179405000D01*
G75*
G02*
X100100000Y-179555000I0J-150000D01*
G01*
G37*
G36*
G01*
X100100000Y-178285000D02*
X100100000Y-178585000D01*
G75*
G02*
X99950000Y-178735000I-150000J0D01*
G01*
X98300000Y-178735000D01*
G75*
G02*
X98150000Y-178585000I0J150000D01*
G01*
X98150000Y-178285000D01*
G75*
G02*
X98300000Y-178135000I150000J0D01*
G01*
X99950000Y-178135000D01*
G75*
G02*
X100100000Y-178285000I0J-150000D01*
G01*
G37*
G36*
G01*
X100100000Y-177015000D02*
X100100000Y-177315000D01*
G75*
G02*
X99950000Y-177465000I-150000J0D01*
G01*
X98300000Y-177465000D01*
G75*
G02*
X98150000Y-177315000I0J150000D01*
G01*
X98150000Y-177015000D01*
G75*
G02*
X98300000Y-176865000I150000J0D01*
G01*
X99950000Y-176865000D01*
G75*
G02*
X100100000Y-177015000I0J-150000D01*
G01*
G37*
G36*
G01*
X100100000Y-175745000D02*
X100100000Y-176045000D01*
G75*
G02*
X99950000Y-176195000I-150000J0D01*
G01*
X98300000Y-176195000D01*
G75*
G02*
X98150000Y-176045000I0J150000D01*
G01*
X98150000Y-175745000D01*
G75*
G02*
X98300000Y-175595000I150000J0D01*
G01*
X99950000Y-175595000D01*
G75*
G02*
X100100000Y-175745000I0J-150000D01*
G01*
G37*
G36*
G01*
X93063000Y-134562000D02*
X93063000Y-133662000D01*
G75*
G02*
X93313000Y-133412000I250000J0D01*
G01*
X93838000Y-133412000D01*
G75*
G02*
X94088000Y-133662000I0J-250000D01*
G01*
X94088000Y-134562000D01*
G75*
G02*
X93838000Y-134812000I-250000J0D01*
G01*
X93313000Y-134812000D01*
G75*
G02*
X93063000Y-134562000I0J250000D01*
G01*
G37*
G36*
G01*
X94888000Y-134562000D02*
X94888000Y-133662000D01*
G75*
G02*
X95138000Y-133412000I250000J0D01*
G01*
X95663000Y-133412000D01*
G75*
G02*
X95913000Y-133662000I0J-250000D01*
G01*
X95913000Y-134562000D01*
G75*
G02*
X95663000Y-134812000I-250000J0D01*
G01*
X95138000Y-134812000D01*
G75*
G02*
X94888000Y-134562000I0J250000D01*
G01*
G37*
G36*
G01*
X109883000Y-133662000D02*
X109883000Y-134562000D01*
G75*
G02*
X109633000Y-134812000I-250000J0D01*
G01*
X109108000Y-134812000D01*
G75*
G02*
X108858000Y-134562000I0J250000D01*
G01*
X108858000Y-133662000D01*
G75*
G02*
X109108000Y-133412000I250000J0D01*
G01*
X109633000Y-133412000D01*
G75*
G02*
X109883000Y-133662000I0J-250000D01*
G01*
G37*
G36*
G01*
X108058000Y-133662000D02*
X108058000Y-134562000D01*
G75*
G02*
X107808000Y-134812000I-250000J0D01*
G01*
X107283000Y-134812000D01*
G75*
G02*
X107033000Y-134562000I0J250000D01*
G01*
X107033000Y-133662000D01*
G75*
G02*
X107283000Y-133412000I250000J0D01*
G01*
X107808000Y-133412000D01*
G75*
G02*
X108058000Y-133662000I0J-250000D01*
G01*
G37*
G36*
G01*
X107280000Y-204802500D02*
X106080000Y-204802500D01*
G75*
G02*
X105830000Y-204552500I0J250000D01*
G01*
X105830000Y-203352500D01*
G75*
G02*
X106080000Y-203102500I250000J0D01*
G01*
X107280000Y-203102500D01*
G75*
G02*
X107530000Y-203352500I0J-250000D01*
G01*
X107530000Y-204552500D01*
G75*
G02*
X107280000Y-204802500I-250000J0D01*
G01*
G37*
D17*
X106680000Y-201412500D03*
X104140000Y-203952500D03*
X104140000Y-201412500D03*
X101600000Y-203952500D03*
X101600000Y-201412500D03*
X99060000Y-203952500D03*
X99060000Y-201412500D03*
X96520000Y-203952500D03*
X96520000Y-201412500D03*
G36*
G01*
X105082000Y-68613000D02*
X105082000Y-69563000D01*
G75*
G02*
X104832000Y-69813000I-250000J0D01*
G01*
X104332000Y-69813000D01*
G75*
G02*
X104082000Y-69563000I0J250000D01*
G01*
X104082000Y-68613000D01*
G75*
G02*
X104332000Y-68363000I250000J0D01*
G01*
X104832000Y-68363000D01*
G75*
G02*
X105082000Y-68613000I0J-250000D01*
G01*
G37*
G36*
G01*
X103182000Y-68613000D02*
X103182000Y-69563000D01*
G75*
G02*
X102932000Y-69813000I-250000J0D01*
G01*
X102432000Y-69813000D01*
G75*
G02*
X102182000Y-69563000I0J250000D01*
G01*
X102182000Y-68613000D01*
G75*
G02*
X102432000Y-68363000I250000J0D01*
G01*
X102932000Y-68363000D01*
G75*
G02*
X103182000Y-68613000I0J-250000D01*
G01*
G37*
D16*
X93218000Y-75438000D03*
G36*
G01*
X94793500Y-67622000D02*
X94793500Y-68522000D01*
G75*
G02*
X94543500Y-68772000I-250000J0D01*
G01*
X94018500Y-68772000D01*
G75*
G02*
X93768500Y-68522000I0J250000D01*
G01*
X93768500Y-67622000D01*
G75*
G02*
X94018500Y-67372000I250000J0D01*
G01*
X94543500Y-67372000D01*
G75*
G02*
X94793500Y-67622000I0J-250000D01*
G01*
G37*
G36*
G01*
X92968500Y-67622000D02*
X92968500Y-68522000D01*
G75*
G02*
X92718500Y-68772000I-250000J0D01*
G01*
X92193500Y-68772000D01*
G75*
G02*
X91943500Y-68522000I0J250000D01*
G01*
X91943500Y-67622000D01*
G75*
G02*
X92193500Y-67372000I250000J0D01*
G01*
X92718500Y-67372000D01*
G75*
G02*
X92968500Y-67622000I0J-250000D01*
G01*
G37*
G36*
G01*
X107013259Y-177260000D02*
X107013259Y-176360000D01*
G75*
G02*
X107263259Y-176110000I250000J0D01*
G01*
X107788259Y-176110000D01*
G75*
G02*
X108038259Y-176360000I0J-250000D01*
G01*
X108038259Y-177260000D01*
G75*
G02*
X107788259Y-177510000I-250000J0D01*
G01*
X107263259Y-177510000D01*
G75*
G02*
X107013259Y-177260000I0J250000D01*
G01*
G37*
G36*
G01*
X108838259Y-177260000D02*
X108838259Y-176360000D01*
G75*
G02*
X109088259Y-176110000I250000J0D01*
G01*
X109613259Y-176110000D01*
G75*
G02*
X109863259Y-176360000I0J-250000D01*
G01*
X109863259Y-177260000D01*
G75*
G02*
X109613259Y-177510000I-250000J0D01*
G01*
X109088259Y-177510000D01*
G75*
G02*
X108838259Y-177260000I0J250000D01*
G01*
G37*
G36*
G01*
X109883000Y-131122000D02*
X109883000Y-132022000D01*
G75*
G02*
X109633000Y-132272000I-250000J0D01*
G01*
X109108000Y-132272000D01*
G75*
G02*
X108858000Y-132022000I0J250000D01*
G01*
X108858000Y-131122000D01*
G75*
G02*
X109108000Y-130872000I250000J0D01*
G01*
X109633000Y-130872000D01*
G75*
G02*
X109883000Y-131122000I0J-250000D01*
G01*
G37*
G36*
G01*
X108058000Y-131122000D02*
X108058000Y-132022000D01*
G75*
G02*
X107808000Y-132272000I-250000J0D01*
G01*
X107283000Y-132272000D01*
G75*
G02*
X107033000Y-132022000I0J250000D01*
G01*
X107033000Y-131122000D01*
G75*
G02*
X107283000Y-130872000I250000J0D01*
G01*
X107808000Y-130872000D01*
G75*
G02*
X108058000Y-131122000I0J-250000D01*
G01*
G37*
D18*
X111632000Y-59944000D03*
X108332000Y-59944000D03*
D19*
X112990000Y-137922000D03*
X107990000Y-137922000D03*
G36*
G01*
X93135000Y-93110000D02*
X94825000Y-93110000D01*
G75*
G02*
X95075000Y-93360000I0J-250000D01*
G01*
X95075000Y-94600000D01*
G75*
G02*
X94825000Y-94850000I-250000J0D01*
G01*
X93135000Y-94850000D01*
G75*
G02*
X92885000Y-94600000I0J250000D01*
G01*
X92885000Y-93360000D01*
G75*
G02*
X93135000Y-93110000I250000J0D01*
G01*
G37*
D20*
X93980000Y-96520000D03*
X93980000Y-99060000D03*
G36*
G01*
X100998259Y-182405000D02*
X100998259Y-183355000D01*
G75*
G02*
X100748259Y-183605000I-250000J0D01*
G01*
X100248259Y-183605000D01*
G75*
G02*
X99998259Y-183355000I0J250000D01*
G01*
X99998259Y-182405000D01*
G75*
G02*
X100248259Y-182155000I250000J0D01*
G01*
X100748259Y-182155000D01*
G75*
G02*
X100998259Y-182405000I0J-250000D01*
G01*
G37*
G36*
G01*
X99098259Y-182405000D02*
X99098259Y-183355000D01*
G75*
G02*
X98848259Y-183605000I-250000J0D01*
G01*
X98348259Y-183605000D01*
G75*
G02*
X98098259Y-183355000I0J250000D01*
G01*
X98098259Y-182405000D01*
G75*
G02*
X98348259Y-182155000I250000J0D01*
G01*
X98848259Y-182155000D01*
G75*
G02*
X99098259Y-182405000I0J-250000D01*
G01*
G37*
G36*
G01*
X105050000Y-129009000D02*
X105050000Y-129309000D01*
G75*
G02*
X104900000Y-129459000I-150000J0D01*
G01*
X103250000Y-129459000D01*
G75*
G02*
X103100000Y-129309000I0J150000D01*
G01*
X103100000Y-129009000D01*
G75*
G02*
X103250000Y-128859000I150000J0D01*
G01*
X104900000Y-128859000D01*
G75*
G02*
X105050000Y-129009000I0J-150000D01*
G01*
G37*
G36*
G01*
X105050000Y-130279000D02*
X105050000Y-130579000D01*
G75*
G02*
X104900000Y-130729000I-150000J0D01*
G01*
X103250000Y-130729000D01*
G75*
G02*
X103100000Y-130579000I0J150000D01*
G01*
X103100000Y-130279000D01*
G75*
G02*
X103250000Y-130129000I150000J0D01*
G01*
X104900000Y-130129000D01*
G75*
G02*
X105050000Y-130279000I0J-150000D01*
G01*
G37*
G36*
G01*
X105050000Y-131549000D02*
X105050000Y-131849000D01*
G75*
G02*
X104900000Y-131999000I-150000J0D01*
G01*
X103250000Y-131999000D01*
G75*
G02*
X103100000Y-131849000I0J150000D01*
G01*
X103100000Y-131549000D01*
G75*
G02*
X103250000Y-131399000I150000J0D01*
G01*
X104900000Y-131399000D01*
G75*
G02*
X105050000Y-131549000I0J-150000D01*
G01*
G37*
G36*
G01*
X105050000Y-132819000D02*
X105050000Y-133119000D01*
G75*
G02*
X104900000Y-133269000I-150000J0D01*
G01*
X103250000Y-133269000D01*
G75*
G02*
X103100000Y-133119000I0J150000D01*
G01*
X103100000Y-132819000D01*
G75*
G02*
X103250000Y-132669000I150000J0D01*
G01*
X104900000Y-132669000D01*
G75*
G02*
X105050000Y-132819000I0J-150000D01*
G01*
G37*
G36*
G01*
X100100000Y-132819000D02*
X100100000Y-133119000D01*
G75*
G02*
X99950000Y-133269000I-150000J0D01*
G01*
X98300000Y-133269000D01*
G75*
G02*
X98150000Y-133119000I0J150000D01*
G01*
X98150000Y-132819000D01*
G75*
G02*
X98300000Y-132669000I150000J0D01*
G01*
X99950000Y-132669000D01*
G75*
G02*
X100100000Y-132819000I0J-150000D01*
G01*
G37*
G36*
G01*
X100100000Y-131549000D02*
X100100000Y-131849000D01*
G75*
G02*
X99950000Y-131999000I-150000J0D01*
G01*
X98300000Y-131999000D01*
G75*
G02*
X98150000Y-131849000I0J150000D01*
G01*
X98150000Y-131549000D01*
G75*
G02*
X98300000Y-131399000I150000J0D01*
G01*
X99950000Y-131399000D01*
G75*
G02*
X100100000Y-131549000I0J-150000D01*
G01*
G37*
G36*
G01*
X100100000Y-130279000D02*
X100100000Y-130579000D01*
G75*
G02*
X99950000Y-130729000I-150000J0D01*
G01*
X98300000Y-130729000D01*
G75*
G02*
X98150000Y-130579000I0J150000D01*
G01*
X98150000Y-130279000D01*
G75*
G02*
X98300000Y-130129000I150000J0D01*
G01*
X99950000Y-130129000D01*
G75*
G02*
X100100000Y-130279000I0J-150000D01*
G01*
G37*
G36*
G01*
X100100000Y-129009000D02*
X100100000Y-129309000D01*
G75*
G02*
X99950000Y-129459000I-150000J0D01*
G01*
X98300000Y-129459000D01*
G75*
G02*
X98150000Y-129309000I0J150000D01*
G01*
X98150000Y-129009000D01*
G75*
G02*
X98300000Y-128859000I150000J0D01*
G01*
X99950000Y-128859000D01*
G75*
G02*
X100100000Y-129009000I0J-150000D01*
G01*
G37*
D21*
X106640000Y-191770000D03*
D19*
X104140000Y-191770000D03*
D21*
X99060000Y-191516000D03*
D19*
X96560000Y-191516000D03*
G36*
G01*
X91943500Y-65982000D02*
X91943500Y-65082000D01*
G75*
G02*
X92193500Y-64832000I250000J0D01*
G01*
X92718500Y-64832000D01*
G75*
G02*
X92968500Y-65082000I0J-250000D01*
G01*
X92968500Y-65982000D01*
G75*
G02*
X92718500Y-66232000I-250000J0D01*
G01*
X92193500Y-66232000D01*
G75*
G02*
X91943500Y-65982000I0J250000D01*
G01*
G37*
G36*
G01*
X93768500Y-65982000D02*
X93768500Y-65082000D01*
G75*
G02*
X94018500Y-64832000I250000J0D01*
G01*
X94543500Y-64832000D01*
G75*
G02*
X94793500Y-65082000I0J-250000D01*
G01*
X94793500Y-65982000D01*
G75*
G02*
X94543500Y-66232000I-250000J0D01*
G01*
X94018500Y-66232000D01*
G75*
G02*
X93768500Y-65982000I0J250000D01*
G01*
G37*
G36*
G01*
X94793500Y-70162000D02*
X94793500Y-71062000D01*
G75*
G02*
X94543500Y-71312000I-250000J0D01*
G01*
X94018500Y-71312000D01*
G75*
G02*
X93768500Y-71062000I0J250000D01*
G01*
X93768500Y-70162000D01*
G75*
G02*
X94018500Y-69912000I250000J0D01*
G01*
X94543500Y-69912000D01*
G75*
G02*
X94793500Y-70162000I0J-250000D01*
G01*
G37*
G36*
G01*
X92968500Y-70162000D02*
X92968500Y-71062000D01*
G75*
G02*
X92718500Y-71312000I-250000J0D01*
G01*
X92193500Y-71312000D01*
G75*
G02*
X91943500Y-71062000I0J250000D01*
G01*
X91943500Y-70162000D01*
G75*
G02*
X92193500Y-69912000I250000J0D01*
G01*
X92718500Y-69912000D01*
G75*
G02*
X92968500Y-70162000I0J-250000D01*
G01*
G37*
G36*
G01*
X101755000Y-79306000D02*
X101755000Y-80206000D01*
G75*
G02*
X101505000Y-80456000I-250000J0D01*
G01*
X100980000Y-80456000D01*
G75*
G02*
X100730000Y-80206000I0J250000D01*
G01*
X100730000Y-79306000D01*
G75*
G02*
X100980000Y-79056000I250000J0D01*
G01*
X101505000Y-79056000D01*
G75*
G02*
X101755000Y-79306000I0J-250000D01*
G01*
G37*
G36*
G01*
X99930000Y-79306000D02*
X99930000Y-80206000D01*
G75*
G02*
X99680000Y-80456000I-250000J0D01*
G01*
X99155000Y-80456000D01*
G75*
G02*
X98905000Y-80206000I0J250000D01*
G01*
X98905000Y-79306000D01*
G75*
G02*
X99155000Y-79056000I250000J0D01*
G01*
X99680000Y-79056000D01*
G75*
G02*
X99930000Y-79306000I0J-250000D01*
G01*
G37*
G36*
G01*
X110045000Y-91040000D02*
X108355000Y-91040000D01*
G75*
G02*
X108105000Y-90790000I0J250000D01*
G01*
X108105000Y-89550000D01*
G75*
G02*
X108355000Y-89300000I250000J0D01*
G01*
X110045000Y-89300000D01*
G75*
G02*
X110295000Y-89550000I0J-250000D01*
G01*
X110295000Y-90790000D01*
G75*
G02*
X110045000Y-91040000I-250000J0D01*
G01*
G37*
D20*
X109200000Y-87630000D03*
X109200000Y-85090000D03*
X109200000Y-82550000D03*
D16*
X93472000Y-48768000D03*
D18*
X111632000Y-62738000D03*
X108332000Y-62738000D03*
G36*
G01*
X108557000Y-68522000D02*
X108557000Y-67622000D01*
G75*
G02*
X108807000Y-67372000I250000J0D01*
G01*
X109332000Y-67372000D01*
G75*
G02*
X109582000Y-67622000I0J-250000D01*
G01*
X109582000Y-68522000D01*
G75*
G02*
X109332000Y-68772000I-250000J0D01*
G01*
X108807000Y-68772000D01*
G75*
G02*
X108557000Y-68522000I0J250000D01*
G01*
G37*
G36*
G01*
X110382000Y-68522000D02*
X110382000Y-67622000D01*
G75*
G02*
X110632000Y-67372000I250000J0D01*
G01*
X111157000Y-67372000D01*
G75*
G02*
X111407000Y-67622000I0J-250000D01*
G01*
X111407000Y-68522000D01*
G75*
G02*
X111157000Y-68772000I-250000J0D01*
G01*
X110632000Y-68772000D01*
G75*
G02*
X110382000Y-68522000I0J250000D01*
G01*
G37*
X95122000Y-60198000D03*
X91822000Y-60198000D03*
G36*
G01*
X105062259Y-182405000D02*
X105062259Y-183355000D01*
G75*
G02*
X104812259Y-183605000I-250000J0D01*
G01*
X104312259Y-183605000D01*
G75*
G02*
X104062259Y-183355000I0J250000D01*
G01*
X104062259Y-182405000D01*
G75*
G02*
X104312259Y-182155000I250000J0D01*
G01*
X104812259Y-182155000D01*
G75*
G02*
X105062259Y-182405000I0J-250000D01*
G01*
G37*
G36*
G01*
X103162259Y-182405000D02*
X103162259Y-183355000D01*
G75*
G02*
X102912259Y-183605000I-250000J0D01*
G01*
X102412259Y-183605000D01*
G75*
G02*
X102162259Y-183355000I0J250000D01*
G01*
X102162259Y-182405000D01*
G75*
G02*
X102412259Y-182155000I250000J0D01*
G01*
X102912259Y-182155000D01*
G75*
G02*
X103162259Y-182405000I0J-250000D01*
G01*
G37*
G36*
G01*
X95913000Y-131122000D02*
X95913000Y-132022000D01*
G75*
G02*
X95663000Y-132272000I-250000J0D01*
G01*
X95138000Y-132272000D01*
G75*
G02*
X94888000Y-132022000I0J250000D01*
G01*
X94888000Y-131122000D01*
G75*
G02*
X95138000Y-130872000I250000J0D01*
G01*
X95663000Y-130872000D01*
G75*
G02*
X95913000Y-131122000I0J-250000D01*
G01*
G37*
G36*
G01*
X94088000Y-131122000D02*
X94088000Y-132022000D01*
G75*
G02*
X93838000Y-132272000I-250000J0D01*
G01*
X93313000Y-132272000D01*
G75*
G02*
X93063000Y-132022000I0J250000D01*
G01*
X93063000Y-131122000D01*
G75*
G02*
X93313000Y-130872000I250000J0D01*
G01*
X93838000Y-130872000D01*
G75*
G02*
X94088000Y-131122000I0J-250000D01*
G01*
G37*
G36*
G01*
X94897000Y-62542000D02*
X94897000Y-63442000D01*
G75*
G02*
X94647000Y-63692000I-250000J0D01*
G01*
X94122000Y-63692000D01*
G75*
G02*
X93872000Y-63442000I0J250000D01*
G01*
X93872000Y-62542000D01*
G75*
G02*
X94122000Y-62292000I250000J0D01*
G01*
X94647000Y-62292000D01*
G75*
G02*
X94897000Y-62542000I0J-250000D01*
G01*
G37*
G36*
G01*
X93072000Y-62542000D02*
X93072000Y-63442000D01*
G75*
G02*
X92822000Y-63692000I-250000J0D01*
G01*
X92297000Y-63692000D01*
G75*
G02*
X92047000Y-63442000I0J250000D01*
G01*
X92047000Y-62542000D01*
G75*
G02*
X92297000Y-62292000I250000J0D01*
G01*
X92822000Y-62292000D01*
G75*
G02*
X93072000Y-62542000I0J-250000D01*
G01*
G37*
D16*
X109982000Y-170688000D03*
G36*
G01*
X96147259Y-176360000D02*
X96147259Y-177260000D01*
G75*
G02*
X95897259Y-177510000I-250000J0D01*
G01*
X95372259Y-177510000D01*
G75*
G02*
X95122259Y-177260000I0J250000D01*
G01*
X95122259Y-176360000D01*
G75*
G02*
X95372259Y-176110000I250000J0D01*
G01*
X95897259Y-176110000D01*
G75*
G02*
X96147259Y-176360000I0J-250000D01*
G01*
G37*
G36*
G01*
X94322259Y-176360000D02*
X94322259Y-177260000D01*
G75*
G02*
X94072259Y-177510000I-250000J0D01*
G01*
X93547259Y-177510000D01*
G75*
G02*
X93297259Y-177260000I0J250000D01*
G01*
X93297259Y-176360000D01*
G75*
G02*
X93547259Y-176110000I250000J0D01*
G01*
X94072259Y-176110000D01*
G75*
G02*
X94322259Y-176360000I0J-250000D01*
G01*
G37*
D21*
X94488000Y-141478000D03*
D19*
X91988000Y-141478000D03*
D18*
X95122000Y-57404000D03*
X91822000Y-57404000D03*
G36*
G01*
X93297259Y-179800000D02*
X93297259Y-178900000D01*
G75*
G02*
X93547259Y-178650000I250000J0D01*
G01*
X94072259Y-178650000D01*
G75*
G02*
X94322259Y-178900000I0J-250000D01*
G01*
X94322259Y-179800000D01*
G75*
G02*
X94072259Y-180050000I-250000J0D01*
G01*
X93547259Y-180050000D01*
G75*
G02*
X93297259Y-179800000I0J250000D01*
G01*
G37*
G36*
G01*
X95122259Y-179800000D02*
X95122259Y-178900000D01*
G75*
G02*
X95372259Y-178650000I250000J0D01*
G01*
X95897259Y-178650000D01*
G75*
G02*
X96147259Y-178900000I0J-250000D01*
G01*
X96147259Y-179800000D01*
G75*
G02*
X95897259Y-180050000I-250000J0D01*
G01*
X95372259Y-180050000D01*
G75*
G02*
X95122259Y-179800000I0J250000D01*
G01*
G37*
G36*
G01*
X109863259Y-178900000D02*
X109863259Y-179800000D01*
G75*
G02*
X109613259Y-180050000I-250000J0D01*
G01*
X109088259Y-180050000D01*
G75*
G02*
X108838259Y-179800000I0J250000D01*
G01*
X108838259Y-178900000D01*
G75*
G02*
X109088259Y-178650000I250000J0D01*
G01*
X109613259Y-178650000D01*
G75*
G02*
X109863259Y-178900000I0J-250000D01*
G01*
G37*
G36*
G01*
X108038259Y-178900000D02*
X108038259Y-179800000D01*
G75*
G02*
X107788259Y-180050000I-250000J0D01*
G01*
X107263259Y-180050000D01*
G75*
G02*
X107013259Y-179800000I0J250000D01*
G01*
X107013259Y-178900000D01*
G75*
G02*
X107263259Y-178650000I250000J0D01*
G01*
X107788259Y-178650000D01*
G75*
G02*
X108038259Y-178900000I0J-250000D01*
G01*
G37*
G36*
G01*
X111407000Y-70162000D02*
X111407000Y-71062000D01*
G75*
G02*
X111157000Y-71312000I-250000J0D01*
G01*
X110632000Y-71312000D01*
G75*
G02*
X110382000Y-71062000I0J250000D01*
G01*
X110382000Y-70162000D01*
G75*
G02*
X110632000Y-69912000I250000J0D01*
G01*
X111157000Y-69912000D01*
G75*
G02*
X111407000Y-70162000I0J-250000D01*
G01*
G37*
G36*
G01*
X109582000Y-70162000D02*
X109582000Y-71062000D01*
G75*
G02*
X109332000Y-71312000I-250000J0D01*
G01*
X108807000Y-71312000D01*
G75*
G02*
X108557000Y-71062000I0J250000D01*
G01*
X108557000Y-70162000D01*
G75*
G02*
X108807000Y-69912000I250000J0D01*
G01*
X109332000Y-69912000D01*
G75*
G02*
X109582000Y-70162000I0J-250000D01*
G01*
G37*
X96138000Y-120904000D03*
X92838000Y-120904000D03*
G36*
G01*
X105050000Y-61699000D02*
X105050000Y-61999000D01*
G75*
G02*
X104900000Y-62149000I-150000J0D01*
G01*
X103250000Y-62149000D01*
G75*
G02*
X103100000Y-61999000I0J150000D01*
G01*
X103100000Y-61699000D01*
G75*
G02*
X103250000Y-61549000I150000J0D01*
G01*
X104900000Y-61549000D01*
G75*
G02*
X105050000Y-61699000I0J-150000D01*
G01*
G37*
G36*
G01*
X105050000Y-62969000D02*
X105050000Y-63269000D01*
G75*
G02*
X104900000Y-63419000I-150000J0D01*
G01*
X103250000Y-63419000D01*
G75*
G02*
X103100000Y-63269000I0J150000D01*
G01*
X103100000Y-62969000D01*
G75*
G02*
X103250000Y-62819000I150000J0D01*
G01*
X104900000Y-62819000D01*
G75*
G02*
X105050000Y-62969000I0J-150000D01*
G01*
G37*
G36*
G01*
X105050000Y-64239000D02*
X105050000Y-64539000D01*
G75*
G02*
X104900000Y-64689000I-150000J0D01*
G01*
X103250000Y-64689000D01*
G75*
G02*
X103100000Y-64539000I0J150000D01*
G01*
X103100000Y-64239000D01*
G75*
G02*
X103250000Y-64089000I150000J0D01*
G01*
X104900000Y-64089000D01*
G75*
G02*
X105050000Y-64239000I0J-150000D01*
G01*
G37*
G36*
G01*
X105050000Y-65509000D02*
X105050000Y-65809000D01*
G75*
G02*
X104900000Y-65959000I-150000J0D01*
G01*
X103250000Y-65959000D01*
G75*
G02*
X103100000Y-65809000I0J150000D01*
G01*
X103100000Y-65509000D01*
G75*
G02*
X103250000Y-65359000I150000J0D01*
G01*
X104900000Y-65359000D01*
G75*
G02*
X105050000Y-65509000I0J-150000D01*
G01*
G37*
G36*
G01*
X100100000Y-65509000D02*
X100100000Y-65809000D01*
G75*
G02*
X99950000Y-65959000I-150000J0D01*
G01*
X98300000Y-65959000D01*
G75*
G02*
X98150000Y-65809000I0J150000D01*
G01*
X98150000Y-65509000D01*
G75*
G02*
X98300000Y-65359000I150000J0D01*
G01*
X99950000Y-65359000D01*
G75*
G02*
X100100000Y-65509000I0J-150000D01*
G01*
G37*
G36*
G01*
X100100000Y-64239000D02*
X100100000Y-64539000D01*
G75*
G02*
X99950000Y-64689000I-150000J0D01*
G01*
X98300000Y-64689000D01*
G75*
G02*
X98150000Y-64539000I0J150000D01*
G01*
X98150000Y-64239000D01*
G75*
G02*
X98300000Y-64089000I150000J0D01*
G01*
X99950000Y-64089000D01*
G75*
G02*
X100100000Y-64239000I0J-150000D01*
G01*
G37*
G36*
G01*
X100100000Y-62969000D02*
X100100000Y-63269000D01*
G75*
G02*
X99950000Y-63419000I-150000J0D01*
G01*
X98300000Y-63419000D01*
G75*
G02*
X98150000Y-63269000I0J150000D01*
G01*
X98150000Y-62969000D01*
G75*
G02*
X98300000Y-62819000I150000J0D01*
G01*
X99950000Y-62819000D01*
G75*
G02*
X100100000Y-62969000I0J-150000D01*
G01*
G37*
G36*
G01*
X100100000Y-61699000D02*
X100100000Y-61999000D01*
G75*
G02*
X99950000Y-62149000I-150000J0D01*
G01*
X98300000Y-62149000D01*
G75*
G02*
X98150000Y-61999000I0J150000D01*
G01*
X98150000Y-61699000D01*
G75*
G02*
X98300000Y-61549000I150000J0D01*
G01*
X99950000Y-61549000D01*
G75*
G02*
X100100000Y-61699000I0J-150000D01*
G01*
G37*
G36*
G01*
X108557000Y-65982000D02*
X108557000Y-65082000D01*
G75*
G02*
X108807000Y-64832000I250000J0D01*
G01*
X109332000Y-64832000D01*
G75*
G02*
X109582000Y-65082000I0J-250000D01*
G01*
X109582000Y-65982000D01*
G75*
G02*
X109332000Y-66232000I-250000J0D01*
G01*
X108807000Y-66232000D01*
G75*
G02*
X108557000Y-65982000I0J250000D01*
G01*
G37*
G36*
G01*
X110382000Y-65982000D02*
X110382000Y-65082000D01*
G75*
G02*
X110632000Y-64832000I250000J0D01*
G01*
X111157000Y-64832000D01*
G75*
G02*
X111407000Y-65082000I0J-250000D01*
G01*
X111407000Y-65982000D01*
G75*
G02*
X111157000Y-66232000I-250000J0D01*
G01*
X110632000Y-66232000D01*
G75*
G02*
X110382000Y-65982000I0J250000D01*
G01*
G37*
X95122000Y-54610000D03*
X91822000Y-54610000D03*
D16*
X93218000Y-170688000D03*
G36*
G01*
X101018000Y-135923000D02*
X101018000Y-136873000D01*
G75*
G02*
X100768000Y-137123000I-250000J0D01*
G01*
X100268000Y-137123000D01*
G75*
G02*
X100018000Y-136873000I0J250000D01*
G01*
X100018000Y-135923000D01*
G75*
G02*
X100268000Y-135673000I250000J0D01*
G01*
X100768000Y-135673000D01*
G75*
G02*
X101018000Y-135923000I0J-250000D01*
G01*
G37*
G36*
G01*
X99118000Y-135923000D02*
X99118000Y-136873000D01*
G75*
G02*
X98868000Y-137123000I-250000J0D01*
G01*
X98368000Y-137123000D01*
G75*
G02*
X98118000Y-136873000I0J250000D01*
G01*
X98118000Y-135923000D01*
G75*
G02*
X98368000Y-135673000I250000J0D01*
G01*
X98868000Y-135673000D01*
G75*
G02*
X99118000Y-135923000I0J-250000D01*
G01*
G37*
G36*
G01*
X95913000Y-128582000D02*
X95913000Y-129482000D01*
G75*
G02*
X95663000Y-129732000I-250000J0D01*
G01*
X95138000Y-129732000D01*
G75*
G02*
X94888000Y-129482000I0J250000D01*
G01*
X94888000Y-128582000D01*
G75*
G02*
X95138000Y-128332000I250000J0D01*
G01*
X95663000Y-128332000D01*
G75*
G02*
X95913000Y-128582000I0J-250000D01*
G01*
G37*
G36*
G01*
X94088000Y-128582000D02*
X94088000Y-129482000D01*
G75*
G02*
X93838000Y-129732000I-250000J0D01*
G01*
X93313000Y-129732000D01*
G75*
G02*
X93063000Y-129482000I0J250000D01*
G01*
X93063000Y-128582000D01*
G75*
G02*
X93313000Y-128332000I250000J0D01*
G01*
X93838000Y-128332000D01*
G75*
G02*
X94088000Y-128582000I0J-250000D01*
G01*
G37*
G36*
G01*
X101018000Y-68613000D02*
X101018000Y-69563000D01*
G75*
G02*
X100768000Y-69813000I-250000J0D01*
G01*
X100268000Y-69813000D01*
G75*
G02*
X100018000Y-69563000I0J250000D01*
G01*
X100018000Y-68613000D01*
G75*
G02*
X100268000Y-68363000I250000J0D01*
G01*
X100768000Y-68363000D01*
G75*
G02*
X101018000Y-68613000I0J-250000D01*
G01*
G37*
G36*
G01*
X99118000Y-68613000D02*
X99118000Y-69563000D01*
G75*
G02*
X98868000Y-69813000I-250000J0D01*
G01*
X98368000Y-69813000D01*
G75*
G02*
X98118000Y-69563000I0J250000D01*
G01*
X98118000Y-68613000D01*
G75*
G02*
X98368000Y-68363000I250000J0D01*
G01*
X98868000Y-68363000D01*
G75*
G02*
X99118000Y-68613000I0J-250000D01*
G01*
G37*
G36*
G01*
X96421000Y-122994000D02*
X96421000Y-123894000D01*
G75*
G02*
X96171000Y-124144000I-250000J0D01*
G01*
X95646000Y-124144000D01*
G75*
G02*
X95396000Y-123894000I0J250000D01*
G01*
X95396000Y-122994000D01*
G75*
G02*
X95646000Y-122744000I250000J0D01*
G01*
X96171000Y-122744000D01*
G75*
G02*
X96421000Y-122994000I0J-250000D01*
G01*
G37*
G36*
G01*
X94596000Y-122994000D02*
X94596000Y-123894000D01*
G75*
G02*
X94346000Y-124144000I-250000J0D01*
G01*
X93821000Y-124144000D01*
G75*
G02*
X93571000Y-123894000I0J250000D01*
G01*
X93571000Y-122994000D01*
G75*
G02*
X93821000Y-122744000I250000J0D01*
G01*
X94346000Y-122744000D01*
G75*
G02*
X94596000Y-122994000I0J-250000D01*
G01*
G37*
G36*
G01*
X105082000Y-135923000D02*
X105082000Y-136873000D01*
G75*
G02*
X104832000Y-137123000I-250000J0D01*
G01*
X104332000Y-137123000D01*
G75*
G02*
X104082000Y-136873000I0J250000D01*
G01*
X104082000Y-135923000D01*
G75*
G02*
X104332000Y-135673000I250000J0D01*
G01*
X104832000Y-135673000D01*
G75*
G02*
X105082000Y-135923000I0J-250000D01*
G01*
G37*
G36*
G01*
X103182000Y-135923000D02*
X103182000Y-136873000D01*
G75*
G02*
X102932000Y-137123000I-250000J0D01*
G01*
X102432000Y-137123000D01*
G75*
G02*
X102182000Y-136873000I0J250000D01*
G01*
X102182000Y-135923000D01*
G75*
G02*
X102432000Y-135673000I250000J0D01*
G01*
X102932000Y-135673000D01*
G75*
G02*
X103182000Y-135923000I0J-250000D01*
G01*
G37*
D19*
X112736000Y-127762000D03*
X107736000Y-127762000D03*
M02*
