G04 #@! TF.GenerationSoftware,KiCad,Pcbnew,6.0.5+dfsg-1~bpo11+1*
G04 #@! TF.CreationDate,2022-08-16T14:52:49+00:00*
G04 #@! TF.ProjectId,envelope_follower,656e7665-6c6f-4706-955f-666f6c6c6f77,0*
G04 #@! TF.SameCoordinates,Original*
G04 #@! TF.FileFunction,Soldermask,Top*
G04 #@! TF.FilePolarity,Negative*
%FSLAX46Y46*%
G04 Gerber Fmt 4.6, Leading zero omitted, Abs format (unit mm)*
G04 Created by KiCad (PCBNEW 6.0.5+dfsg-1~bpo11+1) date 2022-08-16 14:52:49*
%MOMM*%
%LPD*%
G01*
G04 APERTURE LIST*
%ADD10O,2.720000X3.240000*%
%ADD11R,1.800000X1.800000*%
%ADD12C,1.800000*%
%ADD13C,2.000000*%
%ADD14C,1.700000*%
%ADD15C,1.600000*%
%ADD16O,2.190000X1.740000*%
%ADD17R,1.600000X1.600000*%
G04 APERTURE END LIST*
D10*
X106400000Y-45840000D03*
X96800000Y-45840000D03*
D11*
X99100000Y-53340000D03*
D12*
X101600000Y-53340000D03*
X104100000Y-53340000D03*
D11*
X101600000Y-75570000D03*
D12*
X101600000Y-73030000D03*
D10*
X106400000Y-102990000D03*
X96800000Y-102990000D03*
D11*
X99100000Y-110490000D03*
D12*
X101600000Y-110490000D03*
X104100000Y-110490000D03*
D10*
X96760000Y-217290000D03*
X106360000Y-217290000D03*
D11*
X99060000Y-224790000D03*
D12*
X101560000Y-224790000D03*
X104060000Y-224790000D03*
D10*
X96760000Y-160140000D03*
X106360000Y-160140000D03*
D11*
X99060000Y-167640000D03*
D12*
X101560000Y-167640000D03*
X104060000Y-167640000D03*
D13*
X93218000Y-113538000D03*
G36*
G01*
X107280000Y-204802500D02*
X106080000Y-204802500D01*
G75*
G02*
X105830000Y-204552500I0J250000D01*
G01*
X105830000Y-203352500D01*
G75*
G02*
X106080000Y-203102500I250000J0D01*
G01*
X107280000Y-203102500D01*
G75*
G02*
X107530000Y-203352500I0J-250000D01*
G01*
X107530000Y-204552500D01*
G75*
G02*
X107280000Y-204802500I-250000J0D01*
G01*
G37*
D14*
X106680000Y-201412500D03*
X104140000Y-203952500D03*
X104140000Y-201412500D03*
X101600000Y-203952500D03*
X101600000Y-201412500D03*
X99060000Y-203952500D03*
X99060000Y-201412500D03*
X96520000Y-203952500D03*
X96520000Y-201412500D03*
D13*
X93218000Y-75438000D03*
D15*
X112990000Y-137922000D03*
X107990000Y-137922000D03*
G36*
G01*
X93135000Y-93110000D02*
X94825000Y-93110000D01*
G75*
G02*
X95075000Y-93360000I0J-250000D01*
G01*
X95075000Y-94600000D01*
G75*
G02*
X94825000Y-94850000I-250000J0D01*
G01*
X93135000Y-94850000D01*
G75*
G02*
X92885000Y-94600000I0J250000D01*
G01*
X92885000Y-93360000D01*
G75*
G02*
X93135000Y-93110000I250000J0D01*
G01*
G37*
D16*
X93980000Y-96520000D03*
X93980000Y-99060000D03*
D17*
X106640000Y-191770000D03*
D15*
X104140000Y-191770000D03*
D17*
X99060000Y-191516000D03*
D15*
X96560000Y-191516000D03*
G36*
G01*
X110045000Y-91040000D02*
X108355000Y-91040000D01*
G75*
G02*
X108105000Y-90790000I0J250000D01*
G01*
X108105000Y-89550000D01*
G75*
G02*
X108355000Y-89300000I250000J0D01*
G01*
X110045000Y-89300000D01*
G75*
G02*
X110295000Y-89550000I0J-250000D01*
G01*
X110295000Y-90790000D01*
G75*
G02*
X110045000Y-91040000I-250000J0D01*
G01*
G37*
D16*
X109200000Y-87630000D03*
X109200000Y-85090000D03*
X109200000Y-82550000D03*
D13*
X93472000Y-48768000D03*
X109982000Y-170688000D03*
D17*
X94488000Y-141478000D03*
D15*
X91988000Y-141478000D03*
D13*
X93218000Y-170688000D03*
D15*
X112736000Y-127762000D03*
X107736000Y-127762000D03*
M02*
