G04 #@! TF.GenerationSoftware,KiCad,Pcbnew,6.0.5+dfsg-1~bpo11+1*
G04 #@! TF.CreationDate,2023-04-15T13:20:01+00:00*
G04 #@! TF.ProjectId,compressor_distortion,636f6d70-7265-4737-936f-725f64697374,0.1*
G04 #@! TF.SameCoordinates,Original*
G04 #@! TF.FileFunction,Soldermask,Top*
G04 #@! TF.FilePolarity,Negative*
%FSLAX46Y46*%
G04 Gerber Fmt 4.6, Leading zero omitted, Abs format (unit mm)*
G04 Created by KiCad (PCBNEW 6.0.5+dfsg-1~bpo11+1) date 2023-04-15 13:20:01*
%MOMM*%
%LPD*%
G01*
G04 APERTURE LIST*
%ADD10O,2.720000X3.240000*%
%ADD11R,1.800000X1.800000*%
%ADD12C,1.800000*%
%ADD13C,2.500000*%
%ADD14C,2.000000*%
%ADD15R,1.600000X1.600000*%
%ADD16C,1.600000*%
%ADD17R,1.500000X1.500000*%
%ADD18C,1.500000*%
%ADD19O,2.190000X1.740000*%
%ADD20C,1.700000*%
%ADD21C,1.440000*%
%ADD22O,1.600000X1.600000*%
G04 APERTURE END LIST*
D10*
X104430000Y-165300000D03*
X113930000Y-165300000D03*
D11*
X106680000Y-172800000D03*
D12*
X109180000Y-172800000D03*
X111680000Y-172800000D03*
X106680000Y-175300000D03*
X109180000Y-175300000D03*
X111680000Y-175300000D03*
D13*
X127510000Y-217550000D03*
X127510000Y-222250000D03*
X127510000Y-226950000D03*
X122680000Y-217550000D03*
X122680000Y-222250000D03*
X122680000Y-226950000D03*
X95760000Y-217550000D03*
X95760000Y-222250000D03*
X95760000Y-226950000D03*
X90930000Y-217550000D03*
X90930000Y-222250000D03*
X90930000Y-226950000D03*
D10*
X113930000Y-50960000D03*
X104430000Y-50960000D03*
D11*
X106680000Y-58460000D03*
D12*
X109180000Y-58460000D03*
X111680000Y-58460000D03*
X106680000Y-60960000D03*
X109180000Y-60960000D03*
X111680000Y-60960000D03*
D11*
X125095000Y-204475000D03*
D12*
X125095000Y-201935000D03*
D10*
X113930000Y-108110000D03*
X104430000Y-108110000D03*
D11*
X106680000Y-115610000D03*
D12*
X109180000Y-115610000D03*
X111680000Y-115610000D03*
X106680000Y-118110000D03*
X109180000Y-118110000D03*
X111680000Y-118110000D03*
D11*
X93345000Y-204475000D03*
D12*
X93345000Y-201935000D03*
D14*
X91338400Y-172770800D03*
D15*
X118276380Y-145868000D03*
D16*
X115776380Y-145868000D03*
X131064000Y-140828000D03*
X131064000Y-145828000D03*
D17*
X104648000Y-144344000D03*
D18*
X102108000Y-141804000D03*
X99568000Y-144344000D03*
D16*
X101774000Y-91440000D03*
X96774000Y-91440000D03*
G36*
G01*
X129115000Y-125965000D02*
X127425000Y-125965000D01*
G75*
G02*
X127175000Y-125715000I0J250000D01*
G01*
X127175000Y-124475000D01*
G75*
G02*
X127425000Y-124225000I250000J0D01*
G01*
X129115000Y-124225000D01*
G75*
G02*
X129365000Y-124475000I0J-250000D01*
G01*
X129365000Y-125715000D01*
G75*
G02*
X129115000Y-125965000I-250000J0D01*
G01*
G37*
D19*
X128270000Y-122555000D03*
X128270000Y-120015000D03*
X128270000Y-117475000D03*
D16*
X114380000Y-188722000D03*
X119380000Y-188722000D03*
D15*
X114212380Y-210185000D03*
D16*
X111712380Y-210185000D03*
X128016000Y-154606000D03*
X128016000Y-149606000D03*
D15*
X90384000Y-95758000D03*
D16*
X87884000Y-95758000D03*
X116586000Y-85344000D03*
X121586000Y-85344000D03*
G36*
G01*
X114900000Y-223735000D02*
X113700000Y-223735000D01*
G75*
G02*
X113450000Y-223485000I0J250000D01*
G01*
X113450000Y-222285000D01*
G75*
G02*
X113700000Y-222035000I250000J0D01*
G01*
X114900000Y-222035000D01*
G75*
G02*
X115150000Y-222285000I0J-250000D01*
G01*
X115150000Y-223485000D01*
G75*
G02*
X114900000Y-223735000I-250000J0D01*
G01*
G37*
D20*
X114300000Y-220345000D03*
X111760000Y-222885000D03*
X111760000Y-220345000D03*
X109220000Y-222885000D03*
X109220000Y-220345000D03*
X106680000Y-222885000D03*
X106680000Y-220345000D03*
X104140000Y-222885000D03*
X104140000Y-220345000D03*
D16*
X96774000Y-97536000D03*
X101774000Y-97536000D03*
X104648000Y-149606000D03*
X104648000Y-154606000D03*
X108204000Y-140788000D03*
X108204000Y-145788000D03*
X114380000Y-196342000D03*
X119380000Y-196342000D03*
X114380000Y-181102000D03*
X119380000Y-181102000D03*
G36*
G01*
X129115000Y-192005000D02*
X127425000Y-192005000D01*
G75*
G02*
X127175000Y-191755000I0J250000D01*
G01*
X127175000Y-190515000D01*
G75*
G02*
X127425000Y-190265000I250000J0D01*
G01*
X129115000Y-190265000D01*
G75*
G02*
X129365000Y-190515000I0J-250000D01*
G01*
X129365000Y-191755000D01*
G75*
G02*
X129115000Y-192005000I-250000J0D01*
G01*
G37*
D19*
X128270000Y-188595000D03*
X128270000Y-186055000D03*
X128270000Y-183515000D03*
X128270000Y-180975000D03*
X128270000Y-178435000D03*
X128270000Y-175895000D03*
D16*
X101774000Y-85344000D03*
X96774000Y-85344000D03*
D14*
X91363800Y-162763200D03*
D21*
X117856000Y-153234000D03*
X120396000Y-153234000D03*
X122936000Y-153234000D03*
D16*
X121586000Y-103632000D03*
X116586000Y-103632000D03*
D15*
X116332000Y-76454000D03*
D16*
X113832000Y-76454000D03*
X116586000Y-91440000D03*
X121586000Y-91440000D03*
D15*
X95504000Y-146384000D03*
D16*
X93004000Y-146384000D03*
X96774000Y-103632000D03*
X101774000Y-103632000D03*
D14*
X102870000Y-121285000D03*
D17*
X109220000Y-136144000D03*
D18*
X106680000Y-133604000D03*
X104140000Y-136144000D03*
D16*
X114380000Y-172974000D03*
X119380000Y-172974000D03*
D17*
X127508000Y-136224000D03*
D18*
X124968000Y-133684000D03*
X122428000Y-136224000D03*
D17*
X127508000Y-144352000D03*
D18*
X124968000Y-141812000D03*
X122428000Y-144352000D03*
G36*
G01*
X88055000Y-119780000D02*
X89745000Y-119780000D01*
G75*
G02*
X89995000Y-120030000I0J-250000D01*
G01*
X89995000Y-121270000D01*
G75*
G02*
X89745000Y-121520000I-250000J0D01*
G01*
X88055000Y-121520000D01*
G75*
G02*
X87805000Y-121270000I0J250000D01*
G01*
X87805000Y-120030000D01*
G75*
G02*
X88055000Y-119780000I250000J0D01*
G01*
G37*
D19*
X88900000Y-123190000D03*
X88900000Y-125730000D03*
X88900000Y-128270000D03*
X88900000Y-130810000D03*
X88900000Y-133350000D03*
X88900000Y-135890000D03*
X88900000Y-138430000D03*
D15*
X106592380Y-210820000D03*
D16*
X104092380Y-210820000D03*
D15*
X130428380Y-95758000D03*
D16*
X127928380Y-95758000D03*
X121586000Y-97536000D03*
X116586000Y-97536000D03*
D15*
X104140000Y-76454000D03*
D16*
X101640000Y-76454000D03*
D21*
X94996000Y-153234000D03*
X97536000Y-153234000D03*
X100076000Y-153234000D03*
D14*
X115570000Y-121285000D03*
D15*
X112990000Y-81788000D03*
D22*
X112990000Y-84328000D03*
X112990000Y-86868000D03*
X112990000Y-89408000D03*
X112990000Y-91948000D03*
X112990000Y-94488000D03*
X112990000Y-97028000D03*
X112990000Y-99568000D03*
X105370000Y-99568000D03*
X105370000Y-97028000D03*
X105370000Y-94488000D03*
X105370000Y-91948000D03*
X105370000Y-89408000D03*
X105370000Y-86868000D03*
X105370000Y-84328000D03*
X105370000Y-81788000D03*
M02*
