%FSLAX45Y45*%
G04 Gerber Fmt 4.5, Leading zero omitted, Abs format (unit mm)*
G04 Created by KiCad (PCBNEW 6.0.5+dfsg-1~bpo11+1) date 2023-04-15 13:20:01*
%MOMM*%
%LPD*%
G01*
G04 APERTURE LIST*
%TA.AperFunction,Profile*%
%ADD10C,0.100000*%
%TD*%
%ADD11C,0.200000*%
G04 APERTURE END LIST*
D10*
X8255000Y-4445000D02*
X8255000Y-22987000D01*
X13462000Y-22987000D02*
X13462000Y-4445000D01*
X8255000Y-22987000D02*
X13462000Y-22987000D01*
X13462000Y-4445000D02*
X8255000Y-4445000D01*
D11*
X8507619Y-23302476D02*
X8507619Y-23102476D01*
X8555238Y-23102476D01*
X8583810Y-23112000D01*
X8602857Y-23131048D01*
X8612381Y-23150095D01*
X8621905Y-23188190D01*
X8621905Y-23216762D01*
X8612381Y-23254857D01*
X8602857Y-23273905D01*
X8583810Y-23292952D01*
X8555238Y-23302476D01*
X8507619Y-23302476D01*
X8707619Y-23302476D02*
X8707619Y-23169143D01*
X8707619Y-23207238D02*
X8717143Y-23188190D01*
X8726667Y-23178667D01*
X8745714Y-23169143D01*
X8764762Y-23169143D01*
X8831429Y-23302476D02*
X8831429Y-23169143D01*
X8831429Y-23102476D02*
X8821905Y-23112000D01*
X8831429Y-23121524D01*
X8840952Y-23112000D01*
X8831429Y-23102476D01*
X8831429Y-23121524D01*
X8955238Y-23302476D02*
X8936190Y-23292952D01*
X8926667Y-23273905D01*
X8926667Y-23102476D01*
X9060000Y-23302476D02*
X9040952Y-23292952D01*
X9031429Y-23273905D01*
X9031429Y-23102476D01*
X9288571Y-23302476D02*
X9288571Y-23102476D01*
X9355238Y-23245333D01*
X9421905Y-23102476D01*
X9421905Y-23302476D01*
X9602857Y-23302476D02*
X9602857Y-23197714D01*
X9593333Y-23178667D01*
X9574286Y-23169143D01*
X9536190Y-23169143D01*
X9517143Y-23178667D01*
X9602857Y-23292952D02*
X9583810Y-23302476D01*
X9536190Y-23302476D01*
X9517143Y-23292952D01*
X9507619Y-23273905D01*
X9507619Y-23254857D01*
X9517143Y-23235809D01*
X9536190Y-23226286D01*
X9583810Y-23226286D01*
X9602857Y-23216762D01*
X9698095Y-23169143D02*
X9698095Y-23369143D01*
X9698095Y-23178667D02*
X9717143Y-23169143D01*
X9755238Y-23169143D01*
X9774286Y-23178667D01*
X9783810Y-23188190D01*
X9793333Y-23207238D01*
X9793333Y-23264381D01*
X9783810Y-23283428D01*
X9774286Y-23292952D01*
X9755238Y-23302476D01*
X9717143Y-23302476D01*
X9698095Y-23292952D01*
X9879048Y-23283428D02*
X9888571Y-23292952D01*
X9879048Y-23302476D01*
X9869524Y-23292952D01*
X9879048Y-23283428D01*
X9879048Y-23302476D01*
X9879048Y-23178667D02*
X9888571Y-23188190D01*
X9879048Y-23197714D01*
X9869524Y-23188190D01*
X9879048Y-23178667D01*
X9879048Y-23197714D01*
M02*
