G04 #@! TF.GenerationSoftware,KiCad,Pcbnew,6.0.5+dfsg-1~bpo11+1*
G04 #@! TF.CreationDate,2022-08-16T14:51:45+00:00*
G04 #@! TF.ProjectId,compressor_distortion,636f6d70-7265-4737-936f-725f64697374,0*
G04 #@! TF.SameCoordinates,Original*
G04 #@! TF.FileFunction,Paste,Bot*
G04 #@! TF.FilePolarity,Positive*
%FSLAX46Y46*%
G04 Gerber Fmt 4.6, Leading zero omitted, Abs format (unit mm)*
G04 Created by KiCad (PCBNEW 6.0.5+dfsg-1~bpo11+1) date 2022-08-16 14:51:45*
%MOMM*%
%LPD*%
G01*
G04 APERTURE LIST*
G04 APERTURE END LIST*
G36*
G01*
X91580000Y-102649000D02*
X91580000Y-103599000D01*
G75*
G02*
X91330000Y-103849000I-250000J0D01*
G01*
X90830000Y-103849000D01*
G75*
G02*
X90580000Y-103599000I0J250000D01*
G01*
X90580000Y-102649000D01*
G75*
G02*
X90830000Y-102399000I250000J0D01*
G01*
X91330000Y-102399000D01*
G75*
G02*
X91580000Y-102649000I0J-250000D01*
G01*
G37*
G36*
G01*
X89680000Y-102649000D02*
X89680000Y-103599000D01*
G75*
G02*
X89430000Y-103849000I-250000J0D01*
G01*
X88930000Y-103849000D01*
G75*
G02*
X88680000Y-103599000I0J250000D01*
G01*
X88680000Y-102649000D01*
G75*
G02*
X88930000Y-102399000I250000J0D01*
G01*
X89430000Y-102399000D01*
G75*
G02*
X89680000Y-102649000I0J-250000D01*
G01*
G37*
G36*
G01*
X128709000Y-160627000D02*
X129609000Y-160627000D01*
G75*
G02*
X129859000Y-160877000I0J-250000D01*
G01*
X129859000Y-161402000D01*
G75*
G02*
X129609000Y-161652000I-250000J0D01*
G01*
X128709000Y-161652000D01*
G75*
G02*
X128459000Y-161402000I0J250000D01*
G01*
X128459000Y-160877000D01*
G75*
G02*
X128709000Y-160627000I250000J0D01*
G01*
G37*
G36*
G01*
X128709000Y-162452000D02*
X129609000Y-162452000D01*
G75*
G02*
X129859000Y-162702000I0J-250000D01*
G01*
X129859000Y-163227000D01*
G75*
G02*
X129609000Y-163477000I-250000J0D01*
G01*
X128709000Y-163477000D01*
G75*
G02*
X128459000Y-163227000I0J250000D01*
G01*
X128459000Y-162702000D01*
G75*
G02*
X128709000Y-162452000I250000J0D01*
G01*
G37*
G36*
G01*
X111661000Y-202750000D02*
X111661000Y-203650000D01*
G75*
G02*
X111411000Y-203900000I-250000J0D01*
G01*
X110886000Y-203900000D01*
G75*
G02*
X110636000Y-203650000I0J250000D01*
G01*
X110636000Y-202750000D01*
G75*
G02*
X110886000Y-202500000I250000J0D01*
G01*
X111411000Y-202500000D01*
G75*
G02*
X111661000Y-202750000I0J-250000D01*
G01*
G37*
G36*
G01*
X109836000Y-202750000D02*
X109836000Y-203650000D01*
G75*
G02*
X109586000Y-203900000I-250000J0D01*
G01*
X109061000Y-203900000D01*
G75*
G02*
X108811000Y-203650000I0J250000D01*
G01*
X108811000Y-202750000D01*
G75*
G02*
X109061000Y-202500000I250000J0D01*
G01*
X109586000Y-202500000D01*
G75*
G02*
X109836000Y-202750000I0J-250000D01*
G01*
G37*
G36*
G01*
X124862000Y-58651000D02*
X124862000Y-58951000D01*
G75*
G02*
X124712000Y-59101000I-150000J0D01*
G01*
X123062000Y-59101000D01*
G75*
G02*
X122912000Y-58951000I0J150000D01*
G01*
X122912000Y-58651000D01*
G75*
G02*
X123062000Y-58501000I150000J0D01*
G01*
X124712000Y-58501000D01*
G75*
G02*
X124862000Y-58651000I0J-150000D01*
G01*
G37*
G36*
G01*
X124862000Y-59921000D02*
X124862000Y-60221000D01*
G75*
G02*
X124712000Y-60371000I-150000J0D01*
G01*
X123062000Y-60371000D01*
G75*
G02*
X122912000Y-60221000I0J150000D01*
G01*
X122912000Y-59921000D01*
G75*
G02*
X123062000Y-59771000I150000J0D01*
G01*
X124712000Y-59771000D01*
G75*
G02*
X124862000Y-59921000I0J-150000D01*
G01*
G37*
G36*
G01*
X124862000Y-61191000D02*
X124862000Y-61491000D01*
G75*
G02*
X124712000Y-61641000I-150000J0D01*
G01*
X123062000Y-61641000D01*
G75*
G02*
X122912000Y-61491000I0J150000D01*
G01*
X122912000Y-61191000D01*
G75*
G02*
X123062000Y-61041000I150000J0D01*
G01*
X124712000Y-61041000D01*
G75*
G02*
X124862000Y-61191000I0J-150000D01*
G01*
G37*
G36*
G01*
X124862000Y-62461000D02*
X124862000Y-62761000D01*
G75*
G02*
X124712000Y-62911000I-150000J0D01*
G01*
X123062000Y-62911000D01*
G75*
G02*
X122912000Y-62761000I0J150000D01*
G01*
X122912000Y-62461000D01*
G75*
G02*
X123062000Y-62311000I150000J0D01*
G01*
X124712000Y-62311000D01*
G75*
G02*
X124862000Y-62461000I0J-150000D01*
G01*
G37*
G36*
G01*
X119912000Y-62461000D02*
X119912000Y-62761000D01*
G75*
G02*
X119762000Y-62911000I-150000J0D01*
G01*
X118112000Y-62911000D01*
G75*
G02*
X117962000Y-62761000I0J150000D01*
G01*
X117962000Y-62461000D01*
G75*
G02*
X118112000Y-62311000I150000J0D01*
G01*
X119762000Y-62311000D01*
G75*
G02*
X119912000Y-62461000I0J-150000D01*
G01*
G37*
G36*
G01*
X119912000Y-61191000D02*
X119912000Y-61491000D01*
G75*
G02*
X119762000Y-61641000I-150000J0D01*
G01*
X118112000Y-61641000D01*
G75*
G02*
X117962000Y-61491000I0J150000D01*
G01*
X117962000Y-61191000D01*
G75*
G02*
X118112000Y-61041000I150000J0D01*
G01*
X119762000Y-61041000D01*
G75*
G02*
X119912000Y-61191000I0J-150000D01*
G01*
G37*
G36*
G01*
X119912000Y-59921000D02*
X119912000Y-60221000D01*
G75*
G02*
X119762000Y-60371000I-150000J0D01*
G01*
X118112000Y-60371000D01*
G75*
G02*
X117962000Y-60221000I0J150000D01*
G01*
X117962000Y-59921000D01*
G75*
G02*
X118112000Y-59771000I150000J0D01*
G01*
X119762000Y-59771000D01*
G75*
G02*
X119912000Y-59921000I0J-150000D01*
G01*
G37*
G36*
G01*
X119912000Y-58651000D02*
X119912000Y-58951000D01*
G75*
G02*
X119762000Y-59101000I-150000J0D01*
G01*
X118112000Y-59101000D01*
G75*
G02*
X117962000Y-58951000I0J150000D01*
G01*
X117962000Y-58651000D01*
G75*
G02*
X118112000Y-58501000I150000J0D01*
G01*
X119762000Y-58501000D01*
G75*
G02*
X119912000Y-58651000I0J-150000D01*
G01*
G37*
G36*
G01*
X122674000Y-115730000D02*
X122674000Y-116680000D01*
G75*
G02*
X122424000Y-116930000I-250000J0D01*
G01*
X121924000Y-116930000D01*
G75*
G02*
X121674000Y-116680000I0J250000D01*
G01*
X121674000Y-115730000D01*
G75*
G02*
X121924000Y-115480000I250000J0D01*
G01*
X122424000Y-115480000D01*
G75*
G02*
X122674000Y-115730000I0J-250000D01*
G01*
G37*
G36*
G01*
X120774000Y-115730000D02*
X120774000Y-116680000D01*
G75*
G02*
X120524000Y-116930000I-250000J0D01*
G01*
X120024000Y-116930000D01*
G75*
G02*
X119774000Y-116680000I0J250000D01*
G01*
X119774000Y-115730000D01*
G75*
G02*
X120024000Y-115480000I250000J0D01*
G01*
X120524000Y-115480000D01*
G75*
G02*
X120774000Y-115730000I0J-250000D01*
G01*
G37*
G36*
G01*
X107114000Y-196629000D02*
X107114000Y-197579000D01*
G75*
G02*
X106864000Y-197829000I-250000J0D01*
G01*
X106364000Y-197829000D01*
G75*
G02*
X106114000Y-197579000I0J250000D01*
G01*
X106114000Y-196629000D01*
G75*
G02*
X106364000Y-196379000I250000J0D01*
G01*
X106864000Y-196379000D01*
G75*
G02*
X107114000Y-196629000I0J-250000D01*
G01*
G37*
G36*
G01*
X105214000Y-196629000D02*
X105214000Y-197579000D01*
G75*
G02*
X104964000Y-197829000I-250000J0D01*
G01*
X104464000Y-197829000D01*
G75*
G02*
X104214000Y-197579000I0J250000D01*
G01*
X104214000Y-196629000D01*
G75*
G02*
X104464000Y-196379000I250000J0D01*
G01*
X104964000Y-196379000D01*
G75*
G02*
X105214000Y-196629000I0J-250000D01*
G01*
G37*
G36*
G01*
X126799000Y-164879000D02*
X126799000Y-165829000D01*
G75*
G02*
X126549000Y-166079000I-250000J0D01*
G01*
X126049000Y-166079000D01*
G75*
G02*
X125799000Y-165829000I0J250000D01*
G01*
X125799000Y-164879000D01*
G75*
G02*
X126049000Y-164629000I250000J0D01*
G01*
X126549000Y-164629000D01*
G75*
G02*
X126799000Y-164879000I0J-250000D01*
G01*
G37*
G36*
G01*
X124899000Y-164879000D02*
X124899000Y-165829000D01*
G75*
G02*
X124649000Y-166079000I-250000J0D01*
G01*
X124149000Y-166079000D01*
G75*
G02*
X123899000Y-165829000I0J250000D01*
G01*
X123899000Y-164879000D01*
G75*
G02*
X124149000Y-164629000I250000J0D01*
G01*
X124649000Y-164629000D01*
G75*
G02*
X124899000Y-164879000I0J-250000D01*
G01*
G37*
G36*
G01*
X126005000Y-109070000D02*
X126005000Y-109370000D01*
G75*
G02*
X125855000Y-109520000I-150000J0D01*
G01*
X124205000Y-109520000D01*
G75*
G02*
X124055000Y-109370000I0J150000D01*
G01*
X124055000Y-109070000D01*
G75*
G02*
X124205000Y-108920000I150000J0D01*
G01*
X125855000Y-108920000D01*
G75*
G02*
X126005000Y-109070000I0J-150000D01*
G01*
G37*
G36*
G01*
X126005000Y-110340000D02*
X126005000Y-110640000D01*
G75*
G02*
X125855000Y-110790000I-150000J0D01*
G01*
X124205000Y-110790000D01*
G75*
G02*
X124055000Y-110640000I0J150000D01*
G01*
X124055000Y-110340000D01*
G75*
G02*
X124205000Y-110190000I150000J0D01*
G01*
X125855000Y-110190000D01*
G75*
G02*
X126005000Y-110340000I0J-150000D01*
G01*
G37*
G36*
G01*
X126005000Y-111610000D02*
X126005000Y-111910000D01*
G75*
G02*
X125855000Y-112060000I-150000J0D01*
G01*
X124205000Y-112060000D01*
G75*
G02*
X124055000Y-111910000I0J150000D01*
G01*
X124055000Y-111610000D01*
G75*
G02*
X124205000Y-111460000I150000J0D01*
G01*
X125855000Y-111460000D01*
G75*
G02*
X126005000Y-111610000I0J-150000D01*
G01*
G37*
G36*
G01*
X126005000Y-112880000D02*
X126005000Y-113180000D01*
G75*
G02*
X125855000Y-113330000I-150000J0D01*
G01*
X124205000Y-113330000D01*
G75*
G02*
X124055000Y-113180000I0J150000D01*
G01*
X124055000Y-112880000D01*
G75*
G02*
X124205000Y-112730000I150000J0D01*
G01*
X125855000Y-112730000D01*
G75*
G02*
X126005000Y-112880000I0J-150000D01*
G01*
G37*
G36*
G01*
X121055000Y-112880000D02*
X121055000Y-113180000D01*
G75*
G02*
X120905000Y-113330000I-150000J0D01*
G01*
X119255000Y-113330000D01*
G75*
G02*
X119105000Y-113180000I0J150000D01*
G01*
X119105000Y-112880000D01*
G75*
G02*
X119255000Y-112730000I150000J0D01*
G01*
X120905000Y-112730000D01*
G75*
G02*
X121055000Y-112880000I0J-150000D01*
G01*
G37*
G36*
G01*
X121055000Y-111610000D02*
X121055000Y-111910000D01*
G75*
G02*
X120905000Y-112060000I-150000J0D01*
G01*
X119255000Y-112060000D01*
G75*
G02*
X119105000Y-111910000I0J150000D01*
G01*
X119105000Y-111610000D01*
G75*
G02*
X119255000Y-111460000I150000J0D01*
G01*
X120905000Y-111460000D01*
G75*
G02*
X121055000Y-111610000I0J-150000D01*
G01*
G37*
G36*
G01*
X121055000Y-110340000D02*
X121055000Y-110640000D01*
G75*
G02*
X120905000Y-110790000I-150000J0D01*
G01*
X119255000Y-110790000D01*
G75*
G02*
X119105000Y-110640000I0J150000D01*
G01*
X119105000Y-110340000D01*
G75*
G02*
X119255000Y-110190000I150000J0D01*
G01*
X120905000Y-110190000D01*
G75*
G02*
X121055000Y-110340000I0J-150000D01*
G01*
G37*
G36*
G01*
X121055000Y-109070000D02*
X121055000Y-109370000D01*
G75*
G02*
X120905000Y-109520000I-150000J0D01*
G01*
X119255000Y-109520000D01*
G75*
G02*
X119105000Y-109370000I0J150000D01*
G01*
X119105000Y-109070000D01*
G75*
G02*
X119255000Y-108920000I150000J0D01*
G01*
X120905000Y-108920000D01*
G75*
G02*
X121055000Y-109070000I0J-150000D01*
G01*
G37*
G36*
G01*
X92047000Y-185235000D02*
X92047000Y-184335000D01*
G75*
G02*
X92297000Y-184085000I250000J0D01*
G01*
X92822000Y-184085000D01*
G75*
G02*
X93072000Y-184335000I0J-250000D01*
G01*
X93072000Y-185235000D01*
G75*
G02*
X92822000Y-185485000I-250000J0D01*
G01*
X92297000Y-185485000D01*
G75*
G02*
X92047000Y-185235000I0J250000D01*
G01*
G37*
G36*
G01*
X93872000Y-185235000D02*
X93872000Y-184335000D01*
G75*
G02*
X94122000Y-184085000I250000J0D01*
G01*
X94647000Y-184085000D01*
G75*
G02*
X94897000Y-184335000I0J-250000D01*
G01*
X94897000Y-185235000D01*
G75*
G02*
X94647000Y-185485000I-250000J0D01*
G01*
X94122000Y-185485000D01*
G75*
G02*
X93872000Y-185235000I0J250000D01*
G01*
G37*
G36*
G01*
X109215500Y-113226000D02*
X109215500Y-112326000D01*
G75*
G02*
X109465500Y-112076000I250000J0D01*
G01*
X109990500Y-112076000D01*
G75*
G02*
X110240500Y-112326000I0J-250000D01*
G01*
X110240500Y-113226000D01*
G75*
G02*
X109990500Y-113476000I-250000J0D01*
G01*
X109465500Y-113476000D01*
G75*
G02*
X109215500Y-113226000I0J250000D01*
G01*
G37*
G36*
G01*
X111040500Y-113226000D02*
X111040500Y-112326000D01*
G75*
G02*
X111290500Y-112076000I250000J0D01*
G01*
X111815500Y-112076000D01*
G75*
G02*
X112065500Y-112326000I0J-250000D01*
G01*
X112065500Y-113226000D01*
G75*
G02*
X111815500Y-113476000I-250000J0D01*
G01*
X111290500Y-113476000D01*
G75*
G02*
X111040500Y-113226000I0J250000D01*
G01*
G37*
G36*
G01*
X101604500Y-136710000D02*
X101604500Y-137610000D01*
G75*
G02*
X101354500Y-137860000I-250000J0D01*
G01*
X100829500Y-137860000D01*
G75*
G02*
X100579500Y-137610000I0J250000D01*
G01*
X100579500Y-136710000D01*
G75*
G02*
X100829500Y-136460000I250000J0D01*
G01*
X101354500Y-136460000D01*
G75*
G02*
X101604500Y-136710000I0J-250000D01*
G01*
G37*
G36*
G01*
X99779500Y-136710000D02*
X99779500Y-137610000D01*
G75*
G02*
X99529500Y-137860000I-250000J0D01*
G01*
X99004500Y-137860000D01*
G75*
G02*
X98754500Y-137610000I0J250000D01*
G01*
X98754500Y-136710000D01*
G75*
G02*
X99004500Y-136460000I250000J0D01*
G01*
X99529500Y-136460000D01*
G75*
G02*
X99779500Y-136710000I0J-250000D01*
G01*
G37*
G36*
G01*
X117025000Y-160627000D02*
X117925000Y-160627000D01*
G75*
G02*
X118175000Y-160877000I0J-250000D01*
G01*
X118175000Y-161402000D01*
G75*
G02*
X117925000Y-161652000I-250000J0D01*
G01*
X117025000Y-161652000D01*
G75*
G02*
X116775000Y-161402000I0J250000D01*
G01*
X116775000Y-160877000D01*
G75*
G02*
X117025000Y-160627000I250000J0D01*
G01*
G37*
G36*
G01*
X117025000Y-162452000D02*
X117925000Y-162452000D01*
G75*
G02*
X118175000Y-162702000I0J-250000D01*
G01*
X118175000Y-163227000D01*
G75*
G02*
X117925000Y-163477000I-250000J0D01*
G01*
X117025000Y-163477000D01*
G75*
G02*
X116775000Y-163227000I0J250000D01*
G01*
X116775000Y-162702000D01*
G75*
G02*
X117025000Y-162452000I250000J0D01*
G01*
G37*
G36*
G01*
X126845000Y-172535000D02*
X126845000Y-171635000D01*
G75*
G02*
X127095000Y-171385000I250000J0D01*
G01*
X127620000Y-171385000D01*
G75*
G02*
X127870000Y-171635000I0J-250000D01*
G01*
X127870000Y-172535000D01*
G75*
G02*
X127620000Y-172785000I-250000J0D01*
G01*
X127095000Y-172785000D01*
G75*
G02*
X126845000Y-172535000I0J250000D01*
G01*
G37*
G36*
G01*
X128670000Y-172535000D02*
X128670000Y-171635000D01*
G75*
G02*
X128920000Y-171385000I250000J0D01*
G01*
X129445000Y-171385000D01*
G75*
G02*
X129695000Y-171635000I0J-250000D01*
G01*
X129695000Y-172535000D01*
G75*
G02*
X129445000Y-172785000I-250000J0D01*
G01*
X128920000Y-172785000D01*
G75*
G02*
X128670000Y-172535000I0J250000D01*
G01*
G37*
G36*
G01*
X101501000Y-132893750D02*
X101501000Y-133806250D01*
G75*
G02*
X101257250Y-134050000I-243750J0D01*
G01*
X100769750Y-134050000D01*
G75*
G02*
X100526000Y-133806250I0J243750D01*
G01*
X100526000Y-132893750D01*
G75*
G02*
X100769750Y-132650000I243750J0D01*
G01*
X101257250Y-132650000D01*
G75*
G02*
X101501000Y-132893750I0J-243750D01*
G01*
G37*
G36*
G01*
X99626000Y-132893750D02*
X99626000Y-133806250D01*
G75*
G02*
X99382250Y-134050000I-243750J0D01*
G01*
X98894750Y-134050000D01*
G75*
G02*
X98651000Y-133806250I0J243750D01*
G01*
X98651000Y-132893750D01*
G75*
G02*
X98894750Y-132650000I243750J0D01*
G01*
X99382250Y-132650000D01*
G75*
G02*
X99626000Y-132893750I0J-243750D01*
G01*
G37*
G36*
G01*
X107700500Y-112326000D02*
X107700500Y-113226000D01*
G75*
G02*
X107450500Y-113476000I-250000J0D01*
G01*
X106925500Y-113476000D01*
G75*
G02*
X106675500Y-113226000I0J250000D01*
G01*
X106675500Y-112326000D01*
G75*
G02*
X106925500Y-112076000I250000J0D01*
G01*
X107450500Y-112076000D01*
G75*
G02*
X107700500Y-112326000I0J-250000D01*
G01*
G37*
G36*
G01*
X105875500Y-112326000D02*
X105875500Y-113226000D01*
G75*
G02*
X105625500Y-113476000I-250000J0D01*
G01*
X105100500Y-113476000D01*
G75*
G02*
X104850500Y-113226000I0J250000D01*
G01*
X104850500Y-112326000D01*
G75*
G02*
X105100500Y-112076000I250000J0D01*
G01*
X105625500Y-112076000D01*
G75*
G02*
X105875500Y-112326000I0J-250000D01*
G01*
G37*
G36*
G01*
X127099000Y-88842000D02*
X127099000Y-87942000D01*
G75*
G02*
X127349000Y-87692000I250000J0D01*
G01*
X127874000Y-87692000D01*
G75*
G02*
X128124000Y-87942000I0J-250000D01*
G01*
X128124000Y-88842000D01*
G75*
G02*
X127874000Y-89092000I-250000J0D01*
G01*
X127349000Y-89092000D01*
G75*
G02*
X127099000Y-88842000I0J250000D01*
G01*
G37*
G36*
G01*
X128924000Y-88842000D02*
X128924000Y-87942000D01*
G75*
G02*
X129174000Y-87692000I250000J0D01*
G01*
X129699000Y-87692000D01*
G75*
G02*
X129949000Y-87942000I0J-250000D01*
G01*
X129949000Y-88842000D01*
G75*
G02*
X129699000Y-89092000I-250000J0D01*
G01*
X129174000Y-89092000D01*
G75*
G02*
X128924000Y-88842000I0J250000D01*
G01*
G37*
G36*
G01*
X103558000Y-181897000D02*
X103558000Y-182847000D01*
G75*
G02*
X103308000Y-183097000I-250000J0D01*
G01*
X102808000Y-183097000D01*
G75*
G02*
X102558000Y-182847000I0J250000D01*
G01*
X102558000Y-181897000D01*
G75*
G02*
X102808000Y-181647000I250000J0D01*
G01*
X103308000Y-181647000D01*
G75*
G02*
X103558000Y-181897000I0J-250000D01*
G01*
G37*
G36*
G01*
X101658000Y-181897000D02*
X101658000Y-182847000D01*
G75*
G02*
X101408000Y-183097000I-250000J0D01*
G01*
X100908000Y-183097000D01*
G75*
G02*
X100658000Y-182847000I0J250000D01*
G01*
X100658000Y-181897000D01*
G75*
G02*
X100908000Y-181647000I250000J0D01*
G01*
X101408000Y-181647000D01*
G75*
G02*
X101658000Y-181897000I0J-250000D01*
G01*
G37*
G36*
G01*
X129655000Y-100134000D02*
X129655000Y-101034000D01*
G75*
G02*
X129405000Y-101284000I-250000J0D01*
G01*
X128880000Y-101284000D01*
G75*
G02*
X128630000Y-101034000I0J250000D01*
G01*
X128630000Y-100134000D01*
G75*
G02*
X128880000Y-99884000I250000J0D01*
G01*
X129405000Y-99884000D01*
G75*
G02*
X129655000Y-100134000I0J-250000D01*
G01*
G37*
G36*
G01*
X127830000Y-100134000D02*
X127830000Y-101034000D01*
G75*
G02*
X127580000Y-101284000I-250000J0D01*
G01*
X127055000Y-101284000D01*
G75*
G02*
X126805000Y-101034000I0J250000D01*
G01*
X126805000Y-100134000D01*
G75*
G02*
X127055000Y-99884000I250000J0D01*
G01*
X127580000Y-99884000D01*
G75*
G02*
X127830000Y-100134000I0J-250000D01*
G01*
G37*
G36*
G01*
X108105000Y-189542000D02*
X108105000Y-190442000D01*
G75*
G02*
X107855000Y-190692000I-250000J0D01*
G01*
X107330000Y-190692000D01*
G75*
G02*
X107080000Y-190442000I0J250000D01*
G01*
X107080000Y-189542000D01*
G75*
G02*
X107330000Y-189292000I250000J0D01*
G01*
X107855000Y-189292000D01*
G75*
G02*
X108105000Y-189542000I0J-250000D01*
G01*
G37*
G36*
G01*
X106280000Y-189542000D02*
X106280000Y-190442000D01*
G75*
G02*
X106030000Y-190692000I-250000J0D01*
G01*
X105505000Y-190692000D01*
G75*
G02*
X105255000Y-190442000I0J250000D01*
G01*
X105255000Y-189542000D01*
G75*
G02*
X105505000Y-189292000I250000J0D01*
G01*
X106030000Y-189292000D01*
G75*
G02*
X106280000Y-189542000I0J-250000D01*
G01*
G37*
G36*
G01*
X103050000Y-196629000D02*
X103050000Y-197579000D01*
G75*
G02*
X102800000Y-197829000I-250000J0D01*
G01*
X102300000Y-197829000D01*
G75*
G02*
X102050000Y-197579000I0J250000D01*
G01*
X102050000Y-196629000D01*
G75*
G02*
X102300000Y-196379000I250000J0D01*
G01*
X102800000Y-196379000D01*
G75*
G02*
X103050000Y-196629000I0J-250000D01*
G01*
G37*
G36*
G01*
X101150000Y-196629000D02*
X101150000Y-197579000D01*
G75*
G02*
X100900000Y-197829000I-250000J0D01*
G01*
X100400000Y-197829000D01*
G75*
G02*
X100150000Y-197579000I0J250000D01*
G01*
X100150000Y-196629000D01*
G75*
G02*
X100400000Y-196379000I250000J0D01*
G01*
X100900000Y-196379000D01*
G75*
G02*
X101150000Y-196629000I0J-250000D01*
G01*
G37*
G36*
G01*
X93142500Y-214180000D02*
X93142500Y-215080000D01*
G75*
G02*
X92892500Y-215330000I-250000J0D01*
G01*
X92367500Y-215330000D01*
G75*
G02*
X92117500Y-215080000I0J250000D01*
G01*
X92117500Y-214180000D01*
G75*
G02*
X92367500Y-213930000I250000J0D01*
G01*
X92892500Y-213930000D01*
G75*
G02*
X93142500Y-214180000I0J-250000D01*
G01*
G37*
G36*
G01*
X91317500Y-214180000D02*
X91317500Y-215080000D01*
G75*
G02*
X91067500Y-215330000I-250000J0D01*
G01*
X90542500Y-215330000D01*
G75*
G02*
X90292500Y-215080000I0J250000D01*
G01*
X90292500Y-214180000D01*
G75*
G02*
X90542500Y-213930000I250000J0D01*
G01*
X91067500Y-213930000D01*
G75*
G02*
X91317500Y-214180000I0J-250000D01*
G01*
G37*
G36*
G01*
X95857000Y-203650000D02*
X95857000Y-202750000D01*
G75*
G02*
X96107000Y-202500000I250000J0D01*
G01*
X96632000Y-202500000D01*
G75*
G02*
X96882000Y-202750000I0J-250000D01*
G01*
X96882000Y-203650000D01*
G75*
G02*
X96632000Y-203900000I-250000J0D01*
G01*
X96107000Y-203900000D01*
G75*
G02*
X95857000Y-203650000I0J250000D01*
G01*
G37*
G36*
G01*
X97682000Y-203650000D02*
X97682000Y-202750000D01*
G75*
G02*
X97932000Y-202500000I250000J0D01*
G01*
X98457000Y-202500000D01*
G75*
G02*
X98707000Y-202750000I0J-250000D01*
G01*
X98707000Y-203650000D01*
G75*
G02*
X98457000Y-203900000I-250000J0D01*
G01*
X97932000Y-203900000D01*
G75*
G02*
X97682000Y-203650000I0J250000D01*
G01*
G37*
G36*
G01*
X91595000Y-105214000D02*
X91595000Y-106114000D01*
G75*
G02*
X91345000Y-106364000I-250000J0D01*
G01*
X90820000Y-106364000D01*
G75*
G02*
X90570000Y-106114000I0J250000D01*
G01*
X90570000Y-105214000D01*
G75*
G02*
X90820000Y-104964000I250000J0D01*
G01*
X91345000Y-104964000D01*
G75*
G02*
X91595000Y-105214000I0J-250000D01*
G01*
G37*
G36*
G01*
X89770000Y-105214000D02*
X89770000Y-106114000D01*
G75*
G02*
X89520000Y-106364000I-250000J0D01*
G01*
X88995000Y-106364000D01*
G75*
G02*
X88745000Y-106114000I0J250000D01*
G01*
X88745000Y-105214000D01*
G75*
G02*
X88995000Y-104964000I250000J0D01*
G01*
X89520000Y-104964000D01*
G75*
G02*
X89770000Y-105214000I0J-250000D01*
G01*
G37*
G36*
G01*
X126845000Y-197681000D02*
X126845000Y-196781000D01*
G75*
G02*
X127095000Y-196531000I250000J0D01*
G01*
X127620000Y-196531000D01*
G75*
G02*
X127870000Y-196781000I0J-250000D01*
G01*
X127870000Y-197681000D01*
G75*
G02*
X127620000Y-197931000I-250000J0D01*
G01*
X127095000Y-197931000D01*
G75*
G02*
X126845000Y-197681000I0J250000D01*
G01*
G37*
G36*
G01*
X128670000Y-197681000D02*
X128670000Y-196781000D01*
G75*
G02*
X128920000Y-196531000I250000J0D01*
G01*
X129445000Y-196531000D01*
G75*
G02*
X129695000Y-196781000I0J-250000D01*
G01*
X129695000Y-197681000D01*
G75*
G02*
X129445000Y-197931000I-250000J0D01*
G01*
X128920000Y-197931000D01*
G75*
G02*
X128670000Y-197681000I0J250000D01*
G01*
G37*
G36*
G01*
X127059000Y-91382000D02*
X127059000Y-90482000D01*
G75*
G02*
X127309000Y-90232000I250000J0D01*
G01*
X127834000Y-90232000D01*
G75*
G02*
X128084000Y-90482000I0J-250000D01*
G01*
X128084000Y-91382000D01*
G75*
G02*
X127834000Y-91632000I-250000J0D01*
G01*
X127309000Y-91632000D01*
G75*
G02*
X127059000Y-91382000I0J250000D01*
G01*
G37*
G36*
G01*
X128884000Y-91382000D02*
X128884000Y-90482000D01*
G75*
G02*
X129134000Y-90232000I250000J0D01*
G01*
X129659000Y-90232000D01*
G75*
G02*
X129909000Y-90482000I0J-250000D01*
G01*
X129909000Y-91382000D01*
G75*
G02*
X129659000Y-91632000I-250000J0D01*
G01*
X129134000Y-91632000D01*
G75*
G02*
X128884000Y-91382000I0J250000D01*
G01*
G37*
G36*
G01*
X92047000Y-190315000D02*
X92047000Y-189415000D01*
G75*
G02*
X92297000Y-189165000I250000J0D01*
G01*
X92822000Y-189165000D01*
G75*
G02*
X93072000Y-189415000I0J-250000D01*
G01*
X93072000Y-190315000D01*
G75*
G02*
X92822000Y-190565000I-250000J0D01*
G01*
X92297000Y-190565000D01*
G75*
G02*
X92047000Y-190315000I0J250000D01*
G01*
G37*
G36*
G01*
X93872000Y-190315000D02*
X93872000Y-189415000D01*
G75*
G02*
X94122000Y-189165000I250000J0D01*
G01*
X94647000Y-189165000D01*
G75*
G02*
X94897000Y-189415000I0J-250000D01*
G01*
X94897000Y-190315000D01*
G75*
G02*
X94647000Y-190565000I-250000J0D01*
G01*
X94122000Y-190565000D01*
G75*
G02*
X93872000Y-190315000I0J250000D01*
G01*
G37*
G36*
G01*
X91595000Y-87942000D02*
X91595000Y-88842000D01*
G75*
G02*
X91345000Y-89092000I-250000J0D01*
G01*
X90820000Y-89092000D01*
G75*
G02*
X90570000Y-88842000I0J250000D01*
G01*
X90570000Y-87942000D01*
G75*
G02*
X90820000Y-87692000I250000J0D01*
G01*
X91345000Y-87692000D01*
G75*
G02*
X91595000Y-87942000I0J-250000D01*
G01*
G37*
G36*
G01*
X89770000Y-87942000D02*
X89770000Y-88842000D01*
G75*
G02*
X89520000Y-89092000I-250000J0D01*
G01*
X88995000Y-89092000D01*
G75*
G02*
X88745000Y-88842000I0J250000D01*
G01*
X88745000Y-87942000D01*
G75*
G02*
X88995000Y-87692000I250000J0D01*
G01*
X89520000Y-87692000D01*
G75*
G02*
X89770000Y-87942000I0J-250000D01*
G01*
G37*
G36*
G01*
X94897000Y-191955000D02*
X94897000Y-192855000D01*
G75*
G02*
X94647000Y-193105000I-250000J0D01*
G01*
X94122000Y-193105000D01*
G75*
G02*
X93872000Y-192855000I0J250000D01*
G01*
X93872000Y-191955000D01*
G75*
G02*
X94122000Y-191705000I250000J0D01*
G01*
X94647000Y-191705000D01*
G75*
G02*
X94897000Y-191955000I0J-250000D01*
G01*
G37*
G36*
G01*
X93072000Y-191955000D02*
X93072000Y-192855000D01*
G75*
G02*
X92822000Y-193105000I-250000J0D01*
G01*
X92297000Y-193105000D01*
G75*
G02*
X92047000Y-192855000I0J250000D01*
G01*
X92047000Y-191955000D01*
G75*
G02*
X92297000Y-191705000I250000J0D01*
G01*
X92822000Y-191705000D01*
G75*
G02*
X93072000Y-191955000I0J-250000D01*
G01*
G37*
G36*
G01*
X122583620Y-77020000D02*
X122583620Y-77920000D01*
G75*
G02*
X122333620Y-78170000I-250000J0D01*
G01*
X121808620Y-78170000D01*
G75*
G02*
X121558620Y-77920000I0J250000D01*
G01*
X121558620Y-77020000D01*
G75*
G02*
X121808620Y-76770000I250000J0D01*
G01*
X122333620Y-76770000D01*
G75*
G02*
X122583620Y-77020000I0J-250000D01*
G01*
G37*
G36*
G01*
X120758620Y-77020000D02*
X120758620Y-77920000D01*
G75*
G02*
X120508620Y-78170000I-250000J0D01*
G01*
X119983620Y-78170000D01*
G75*
G02*
X119733620Y-77920000I0J250000D01*
G01*
X119733620Y-77020000D01*
G75*
G02*
X119983620Y-76770000I250000J0D01*
G01*
X120508620Y-76770000D01*
G75*
G02*
X120758620Y-77020000I0J-250000D01*
G01*
G37*
G36*
G01*
X101501000Y-129344000D02*
X101501000Y-130244000D01*
G75*
G02*
X101251000Y-130494000I-250000J0D01*
G01*
X100726000Y-130494000D01*
G75*
G02*
X100476000Y-130244000I0J250000D01*
G01*
X100476000Y-129344000D01*
G75*
G02*
X100726000Y-129094000I250000J0D01*
G01*
X101251000Y-129094000D01*
G75*
G02*
X101501000Y-129344000I0J-250000D01*
G01*
G37*
G36*
G01*
X99676000Y-129344000D02*
X99676000Y-130244000D01*
G75*
G02*
X99426000Y-130494000I-250000J0D01*
G01*
X98901000Y-130494000D01*
G75*
G02*
X98651000Y-130244000I0J250000D01*
G01*
X98651000Y-129344000D01*
G75*
G02*
X98901000Y-129094000I250000J0D01*
G01*
X99426000Y-129094000D01*
G75*
G02*
X99676000Y-129344000I0J-250000D01*
G01*
G37*
G36*
G01*
X97437000Y-141282000D02*
X97437000Y-142182000D01*
G75*
G02*
X97187000Y-142432000I-250000J0D01*
G01*
X96662000Y-142432000D01*
G75*
G02*
X96412000Y-142182000I0J250000D01*
G01*
X96412000Y-141282000D01*
G75*
G02*
X96662000Y-141032000I250000J0D01*
G01*
X97187000Y-141032000D01*
G75*
G02*
X97437000Y-141282000I0J-250000D01*
G01*
G37*
G36*
G01*
X95612000Y-141282000D02*
X95612000Y-142182000D01*
G75*
G02*
X95362000Y-142432000I-250000J0D01*
G01*
X94837000Y-142432000D01*
G75*
G02*
X94587000Y-142182000I0J250000D01*
G01*
X94587000Y-141282000D01*
G75*
G02*
X94837000Y-141032000I250000J0D01*
G01*
X95362000Y-141032000D01*
G75*
G02*
X95612000Y-141282000I0J-250000D01*
G01*
G37*
G36*
G01*
X120297000Y-140338000D02*
X120297000Y-141238000D01*
G75*
G02*
X120047000Y-141488000I-250000J0D01*
G01*
X119522000Y-141488000D01*
G75*
G02*
X119272000Y-141238000I0J250000D01*
G01*
X119272000Y-140338000D01*
G75*
G02*
X119522000Y-140088000I250000J0D01*
G01*
X120047000Y-140088000D01*
G75*
G02*
X120297000Y-140338000I0J-250000D01*
G01*
G37*
G36*
G01*
X118472000Y-140338000D02*
X118472000Y-141238000D01*
G75*
G02*
X118222000Y-141488000I-250000J0D01*
G01*
X117697000Y-141488000D01*
G75*
G02*
X117447000Y-141238000I0J250000D01*
G01*
X117447000Y-140338000D01*
G75*
G02*
X117697000Y-140088000I250000J0D01*
G01*
X118222000Y-140088000D01*
G75*
G02*
X118472000Y-140338000I0J-250000D01*
G01*
G37*
G36*
G01*
X120830000Y-65565000D02*
X120830000Y-66515000D01*
G75*
G02*
X120580000Y-66765000I-250000J0D01*
G01*
X120080000Y-66765000D01*
G75*
G02*
X119830000Y-66515000I0J250000D01*
G01*
X119830000Y-65565000D01*
G75*
G02*
X120080000Y-65315000I250000J0D01*
G01*
X120580000Y-65315000D01*
G75*
G02*
X120830000Y-65565000I0J-250000D01*
G01*
G37*
G36*
G01*
X118930000Y-65565000D02*
X118930000Y-66515000D01*
G75*
G02*
X118680000Y-66765000I-250000J0D01*
G01*
X118180000Y-66765000D01*
G75*
G02*
X117930000Y-66515000I0J250000D01*
G01*
X117930000Y-65565000D01*
G75*
G02*
X118180000Y-65315000I250000J0D01*
G01*
X118680000Y-65315000D01*
G75*
G02*
X118930000Y-65565000I0J-250000D01*
G01*
G37*
G36*
G01*
X129695000Y-169349000D02*
X129695000Y-170249000D01*
G75*
G02*
X129445000Y-170499000I-250000J0D01*
G01*
X128920000Y-170499000D01*
G75*
G02*
X128670000Y-170249000I0J250000D01*
G01*
X128670000Y-169349000D01*
G75*
G02*
X128920000Y-169099000I250000J0D01*
G01*
X129445000Y-169099000D01*
G75*
G02*
X129695000Y-169349000I0J-250000D01*
G01*
G37*
G36*
G01*
X127870000Y-169349000D02*
X127870000Y-170249000D01*
G75*
G02*
X127620000Y-170499000I-250000J0D01*
G01*
X127095000Y-170499000D01*
G75*
G02*
X126845000Y-170249000I0J250000D01*
G01*
X126845000Y-169349000D01*
G75*
G02*
X127095000Y-169099000I250000J0D01*
G01*
X127620000Y-169099000D01*
G75*
G02*
X127870000Y-169349000I0J-250000D01*
G01*
G37*
G36*
G01*
X117447000Y-133878250D02*
X117447000Y-132965750D01*
G75*
G02*
X117690750Y-132722000I243750J0D01*
G01*
X118178250Y-132722000D01*
G75*
G02*
X118422000Y-132965750I0J-243750D01*
G01*
X118422000Y-133878250D01*
G75*
G02*
X118178250Y-134122000I-243750J0D01*
G01*
X117690750Y-134122000D01*
G75*
G02*
X117447000Y-133878250I0J243750D01*
G01*
G37*
G36*
G01*
X119322000Y-133878250D02*
X119322000Y-132965750D01*
G75*
G02*
X119565750Y-132722000I243750J0D01*
G01*
X120053250Y-132722000D01*
G75*
G02*
X120297000Y-132965750I0J-243750D01*
G01*
X120297000Y-133878250D01*
G75*
G02*
X120053250Y-134122000I-243750J0D01*
G01*
X119565750Y-134122000D01*
G75*
G02*
X119322000Y-133878250I0J243750D01*
G01*
G37*
G36*
G01*
X103526000Y-186540000D02*
X103526000Y-186840000D01*
G75*
G02*
X103376000Y-186990000I-150000J0D01*
G01*
X101726000Y-186990000D01*
G75*
G02*
X101576000Y-186840000I0J150000D01*
G01*
X101576000Y-186540000D01*
G75*
G02*
X101726000Y-186390000I150000J0D01*
G01*
X103376000Y-186390000D01*
G75*
G02*
X103526000Y-186540000I0J-150000D01*
G01*
G37*
G36*
G01*
X103526000Y-187810000D02*
X103526000Y-188110000D01*
G75*
G02*
X103376000Y-188260000I-150000J0D01*
G01*
X101726000Y-188260000D01*
G75*
G02*
X101576000Y-188110000I0J150000D01*
G01*
X101576000Y-187810000D01*
G75*
G02*
X101726000Y-187660000I150000J0D01*
G01*
X103376000Y-187660000D01*
G75*
G02*
X103526000Y-187810000I0J-150000D01*
G01*
G37*
G36*
G01*
X103526000Y-189080000D02*
X103526000Y-189380000D01*
G75*
G02*
X103376000Y-189530000I-150000J0D01*
G01*
X101726000Y-189530000D01*
G75*
G02*
X101576000Y-189380000I0J150000D01*
G01*
X101576000Y-189080000D01*
G75*
G02*
X101726000Y-188930000I150000J0D01*
G01*
X103376000Y-188930000D01*
G75*
G02*
X103526000Y-189080000I0J-150000D01*
G01*
G37*
G36*
G01*
X103526000Y-190350000D02*
X103526000Y-190650000D01*
G75*
G02*
X103376000Y-190800000I-150000J0D01*
G01*
X101726000Y-190800000D01*
G75*
G02*
X101576000Y-190650000I0J150000D01*
G01*
X101576000Y-190350000D01*
G75*
G02*
X101726000Y-190200000I150000J0D01*
G01*
X103376000Y-190200000D01*
G75*
G02*
X103526000Y-190350000I0J-150000D01*
G01*
G37*
G36*
G01*
X98576000Y-190350000D02*
X98576000Y-190650000D01*
G75*
G02*
X98426000Y-190800000I-150000J0D01*
G01*
X96776000Y-190800000D01*
G75*
G02*
X96626000Y-190650000I0J150000D01*
G01*
X96626000Y-190350000D01*
G75*
G02*
X96776000Y-190200000I150000J0D01*
G01*
X98426000Y-190200000D01*
G75*
G02*
X98576000Y-190350000I0J-150000D01*
G01*
G37*
G36*
G01*
X98576000Y-189080000D02*
X98576000Y-189380000D01*
G75*
G02*
X98426000Y-189530000I-150000J0D01*
G01*
X96776000Y-189530000D01*
G75*
G02*
X96626000Y-189380000I0J150000D01*
G01*
X96626000Y-189080000D01*
G75*
G02*
X96776000Y-188930000I150000J0D01*
G01*
X98426000Y-188930000D01*
G75*
G02*
X98576000Y-189080000I0J-150000D01*
G01*
G37*
G36*
G01*
X98576000Y-187810000D02*
X98576000Y-188110000D01*
G75*
G02*
X98426000Y-188260000I-150000J0D01*
G01*
X96776000Y-188260000D01*
G75*
G02*
X96626000Y-188110000I0J150000D01*
G01*
X96626000Y-187810000D01*
G75*
G02*
X96776000Y-187660000I150000J0D01*
G01*
X98426000Y-187660000D01*
G75*
G02*
X98576000Y-187810000I0J-150000D01*
G01*
G37*
G36*
G01*
X98576000Y-186540000D02*
X98576000Y-186840000D01*
G75*
G02*
X98426000Y-186990000I-150000J0D01*
G01*
X96776000Y-186990000D01*
G75*
G02*
X96626000Y-186840000I0J150000D01*
G01*
X96626000Y-186540000D01*
G75*
G02*
X96776000Y-186390000I150000J0D01*
G01*
X98426000Y-186390000D01*
G75*
G02*
X98576000Y-186540000I0J-150000D01*
G01*
G37*
G36*
G01*
X126845000Y-106114000D02*
X126845000Y-105214000D01*
G75*
G02*
X127095000Y-104964000I250000J0D01*
G01*
X127620000Y-104964000D01*
G75*
G02*
X127870000Y-105214000I0J-250000D01*
G01*
X127870000Y-106114000D01*
G75*
G02*
X127620000Y-106364000I-250000J0D01*
G01*
X127095000Y-106364000D01*
G75*
G02*
X126845000Y-106114000I0J250000D01*
G01*
G37*
G36*
G01*
X128670000Y-106114000D02*
X128670000Y-105214000D01*
G75*
G02*
X128920000Y-104964000I250000J0D01*
G01*
X129445000Y-104964000D01*
G75*
G02*
X129695000Y-105214000I0J-250000D01*
G01*
X129695000Y-106114000D01*
G75*
G02*
X129445000Y-106364000I-250000J0D01*
G01*
X128920000Y-106364000D01*
G75*
G02*
X128670000Y-106114000I0J250000D01*
G01*
G37*
G36*
G01*
X126780000Y-103599000D02*
X126780000Y-102649000D01*
G75*
G02*
X127030000Y-102399000I250000J0D01*
G01*
X127530000Y-102399000D01*
G75*
G02*
X127780000Y-102649000I0J-250000D01*
G01*
X127780000Y-103599000D01*
G75*
G02*
X127530000Y-103849000I-250000J0D01*
G01*
X127030000Y-103849000D01*
G75*
G02*
X126780000Y-103599000I0J250000D01*
G01*
G37*
G36*
G01*
X128680000Y-103599000D02*
X128680000Y-102649000D01*
G75*
G02*
X128930000Y-102399000I250000J0D01*
G01*
X129430000Y-102399000D01*
G75*
G02*
X129680000Y-102649000I0J-250000D01*
G01*
X129680000Y-103599000D01*
G75*
G02*
X129430000Y-103849000I-250000J0D01*
G01*
X128930000Y-103849000D01*
G75*
G02*
X128680000Y-103599000I0J250000D01*
G01*
G37*
G36*
G01*
X88705000Y-101034000D02*
X88705000Y-100134000D01*
G75*
G02*
X88955000Y-99884000I250000J0D01*
G01*
X89480000Y-99884000D01*
G75*
G02*
X89730000Y-100134000I0J-250000D01*
G01*
X89730000Y-101034000D01*
G75*
G02*
X89480000Y-101284000I-250000J0D01*
G01*
X88955000Y-101284000D01*
G75*
G02*
X88705000Y-101034000I0J250000D01*
G01*
G37*
G36*
G01*
X90530000Y-101034000D02*
X90530000Y-100134000D01*
G75*
G02*
X90780000Y-99884000I250000J0D01*
G01*
X91305000Y-99884000D01*
G75*
G02*
X91555000Y-100134000I0J-250000D01*
G01*
X91555000Y-101034000D01*
G75*
G02*
X91305000Y-101284000I-250000J0D01*
G01*
X90780000Y-101284000D01*
G75*
G02*
X90530000Y-101034000I0J250000D01*
G01*
G37*
G36*
G01*
X126767000Y-157711000D02*
X126767000Y-158011000D01*
G75*
G02*
X126617000Y-158161000I-150000J0D01*
G01*
X124967000Y-158161000D01*
G75*
G02*
X124817000Y-158011000I0J150000D01*
G01*
X124817000Y-157711000D01*
G75*
G02*
X124967000Y-157561000I150000J0D01*
G01*
X126617000Y-157561000D01*
G75*
G02*
X126767000Y-157711000I0J-150000D01*
G01*
G37*
G36*
G01*
X126767000Y-158981000D02*
X126767000Y-159281000D01*
G75*
G02*
X126617000Y-159431000I-150000J0D01*
G01*
X124967000Y-159431000D01*
G75*
G02*
X124817000Y-159281000I0J150000D01*
G01*
X124817000Y-158981000D01*
G75*
G02*
X124967000Y-158831000I150000J0D01*
G01*
X126617000Y-158831000D01*
G75*
G02*
X126767000Y-158981000I0J-150000D01*
G01*
G37*
G36*
G01*
X126767000Y-160251000D02*
X126767000Y-160551000D01*
G75*
G02*
X126617000Y-160701000I-150000J0D01*
G01*
X124967000Y-160701000D01*
G75*
G02*
X124817000Y-160551000I0J150000D01*
G01*
X124817000Y-160251000D01*
G75*
G02*
X124967000Y-160101000I150000J0D01*
G01*
X126617000Y-160101000D01*
G75*
G02*
X126767000Y-160251000I0J-150000D01*
G01*
G37*
G36*
G01*
X126767000Y-161521000D02*
X126767000Y-161821000D01*
G75*
G02*
X126617000Y-161971000I-150000J0D01*
G01*
X124967000Y-161971000D01*
G75*
G02*
X124817000Y-161821000I0J150000D01*
G01*
X124817000Y-161521000D01*
G75*
G02*
X124967000Y-161371000I150000J0D01*
G01*
X126617000Y-161371000D01*
G75*
G02*
X126767000Y-161521000I0J-150000D01*
G01*
G37*
G36*
G01*
X121817000Y-161521000D02*
X121817000Y-161821000D01*
G75*
G02*
X121667000Y-161971000I-150000J0D01*
G01*
X120017000Y-161971000D01*
G75*
G02*
X119867000Y-161821000I0J150000D01*
G01*
X119867000Y-161521000D01*
G75*
G02*
X120017000Y-161371000I150000J0D01*
G01*
X121667000Y-161371000D01*
G75*
G02*
X121817000Y-161521000I0J-150000D01*
G01*
G37*
G36*
G01*
X121817000Y-160251000D02*
X121817000Y-160551000D01*
G75*
G02*
X121667000Y-160701000I-150000J0D01*
G01*
X120017000Y-160701000D01*
G75*
G02*
X119867000Y-160551000I0J150000D01*
G01*
X119867000Y-160251000D01*
G75*
G02*
X120017000Y-160101000I150000J0D01*
G01*
X121667000Y-160101000D01*
G75*
G02*
X121817000Y-160251000I0J-150000D01*
G01*
G37*
G36*
G01*
X121817000Y-158981000D02*
X121817000Y-159281000D01*
G75*
G02*
X121667000Y-159431000I-150000J0D01*
G01*
X120017000Y-159431000D01*
G75*
G02*
X119867000Y-159281000I0J150000D01*
G01*
X119867000Y-158981000D01*
G75*
G02*
X120017000Y-158831000I150000J0D01*
G01*
X121667000Y-158831000D01*
G75*
G02*
X121817000Y-158981000I0J-150000D01*
G01*
G37*
G36*
G01*
X121817000Y-157711000D02*
X121817000Y-158011000D01*
G75*
G02*
X121667000Y-158161000I-150000J0D01*
G01*
X120017000Y-158161000D01*
G75*
G02*
X119867000Y-158011000I0J150000D01*
G01*
X119867000Y-157711000D01*
G75*
G02*
X120017000Y-157561000I150000J0D01*
G01*
X121667000Y-157561000D01*
G75*
G02*
X121817000Y-157711000I0J-150000D01*
G01*
G37*
G36*
G01*
X92022000Y-182720000D02*
X92022000Y-181770000D01*
G75*
G02*
X92272000Y-181520000I250000J0D01*
G01*
X92772000Y-181520000D01*
G75*
G02*
X93022000Y-181770000I0J-250000D01*
G01*
X93022000Y-182720000D01*
G75*
G02*
X92772000Y-182970000I-250000J0D01*
G01*
X92272000Y-182970000D01*
G75*
G02*
X92022000Y-182720000I0J250000D01*
G01*
G37*
G36*
G01*
X93922000Y-182720000D02*
X93922000Y-181770000D01*
G75*
G02*
X94172000Y-181520000I250000J0D01*
G01*
X94672000Y-181520000D01*
G75*
G02*
X94922000Y-181770000I0J-250000D01*
G01*
X94922000Y-182720000D01*
G75*
G02*
X94672000Y-182970000I-250000J0D01*
G01*
X94172000Y-182970000D01*
G75*
G02*
X93922000Y-182720000I0J250000D01*
G01*
G37*
G36*
G01*
X108105000Y-129344000D02*
X108105000Y-130244000D01*
G75*
G02*
X107855000Y-130494000I-250000J0D01*
G01*
X107330000Y-130494000D01*
G75*
G02*
X107080000Y-130244000I0J250000D01*
G01*
X107080000Y-129344000D01*
G75*
G02*
X107330000Y-129094000I250000J0D01*
G01*
X107855000Y-129094000D01*
G75*
G02*
X108105000Y-129344000I0J-250000D01*
G01*
G37*
G36*
G01*
X106280000Y-129344000D02*
X106280000Y-130244000D01*
G75*
G02*
X106030000Y-130494000I-250000J0D01*
G01*
X105505000Y-130494000D01*
G75*
G02*
X105255000Y-130244000I0J250000D01*
G01*
X105255000Y-129344000D01*
G75*
G02*
X105505000Y-129094000I250000J0D01*
G01*
X106030000Y-129094000D01*
G75*
G02*
X106280000Y-129344000I0J-250000D01*
G01*
G37*
G36*
G01*
X122735000Y-164879000D02*
X122735000Y-165829000D01*
G75*
G02*
X122485000Y-166079000I-250000J0D01*
G01*
X121985000Y-166079000D01*
G75*
G02*
X121735000Y-165829000I0J250000D01*
G01*
X121735000Y-164879000D01*
G75*
G02*
X121985000Y-164629000I250000J0D01*
G01*
X122485000Y-164629000D01*
G75*
G02*
X122735000Y-164879000I0J-250000D01*
G01*
G37*
G36*
G01*
X120835000Y-164879000D02*
X120835000Y-165829000D01*
G75*
G02*
X120585000Y-166079000I-250000J0D01*
G01*
X120085000Y-166079000D01*
G75*
G02*
X119835000Y-165829000I0J250000D01*
G01*
X119835000Y-164879000D01*
G75*
G02*
X120085000Y-164629000I250000J0D01*
G01*
X120585000Y-164629000D01*
G75*
G02*
X120835000Y-164879000I0J-250000D01*
G01*
G37*
G36*
G01*
X99494000Y-181897000D02*
X99494000Y-182847000D01*
G75*
G02*
X99244000Y-183097000I-250000J0D01*
G01*
X98744000Y-183097000D01*
G75*
G02*
X98494000Y-182847000I0J250000D01*
G01*
X98494000Y-181897000D01*
G75*
G02*
X98744000Y-181647000I250000J0D01*
G01*
X99244000Y-181647000D01*
G75*
G02*
X99494000Y-181897000I0J-250000D01*
G01*
G37*
G36*
G01*
X97594000Y-181897000D02*
X97594000Y-182847000D01*
G75*
G02*
X97344000Y-183097000I-250000J0D01*
G01*
X96844000Y-183097000D01*
G75*
G02*
X96594000Y-182847000I0J250000D01*
G01*
X96594000Y-181897000D01*
G75*
G02*
X96844000Y-181647000I250000J0D01*
G01*
X97344000Y-181647000D01*
G75*
G02*
X97594000Y-181897000I0J-250000D01*
G01*
G37*
G36*
G01*
X114201000Y-135186000D02*
X114201000Y-136086000D01*
G75*
G02*
X113951000Y-136336000I-250000J0D01*
G01*
X113426000Y-136336000D01*
G75*
G02*
X113176000Y-136086000I0J250000D01*
G01*
X113176000Y-135186000D01*
G75*
G02*
X113426000Y-134936000I250000J0D01*
G01*
X113951000Y-134936000D01*
G75*
G02*
X114201000Y-135186000I0J-250000D01*
G01*
G37*
G36*
G01*
X112376000Y-135186000D02*
X112376000Y-136086000D01*
G75*
G02*
X112126000Y-136336000I-250000J0D01*
G01*
X111601000Y-136336000D01*
G75*
G02*
X111351000Y-136086000I0J250000D01*
G01*
X111351000Y-135186000D01*
G75*
G02*
X111601000Y-134936000I250000J0D01*
G01*
X112126000Y-134936000D01*
G75*
G02*
X112376000Y-135186000I0J-250000D01*
G01*
G37*
G36*
G01*
X126393000Y-129344000D02*
X126393000Y-130244000D01*
G75*
G02*
X126143000Y-130494000I-250000J0D01*
G01*
X125618000Y-130494000D01*
G75*
G02*
X125368000Y-130244000I0J250000D01*
G01*
X125368000Y-129344000D01*
G75*
G02*
X125618000Y-129094000I250000J0D01*
G01*
X126143000Y-129094000D01*
G75*
G02*
X126393000Y-129344000I0J-250000D01*
G01*
G37*
G36*
G01*
X124568000Y-129344000D02*
X124568000Y-130244000D01*
G75*
G02*
X124318000Y-130494000I-250000J0D01*
G01*
X123793000Y-130494000D01*
G75*
G02*
X123543000Y-130244000I0J250000D01*
G01*
X123543000Y-129344000D01*
G75*
G02*
X123793000Y-129094000I250000J0D01*
G01*
X124318000Y-129094000D01*
G75*
G02*
X124568000Y-129344000I0J-250000D01*
G01*
G37*
G36*
G01*
X123067500Y-214180000D02*
X123067500Y-215080000D01*
G75*
G02*
X122817500Y-215330000I-250000J0D01*
G01*
X122292500Y-215330000D01*
G75*
G02*
X122042500Y-215080000I0J250000D01*
G01*
X122042500Y-214180000D01*
G75*
G02*
X122292500Y-213930000I250000J0D01*
G01*
X122817500Y-213930000D01*
G75*
G02*
X123067500Y-214180000I0J-250000D01*
G01*
G37*
G36*
G01*
X121242500Y-214180000D02*
X121242500Y-215080000D01*
G75*
G02*
X120992500Y-215330000I-250000J0D01*
G01*
X120467500Y-215330000D01*
G75*
G02*
X120217500Y-215080000I0J250000D01*
G01*
X120217500Y-214180000D01*
G75*
G02*
X120467500Y-213930000I250000J0D01*
G01*
X120992500Y-213930000D01*
G75*
G02*
X121242500Y-214180000I0J-250000D01*
G01*
G37*
G36*
G01*
X106835000Y-177350000D02*
X106835000Y-178250000D01*
G75*
G02*
X106585000Y-178500000I-250000J0D01*
G01*
X106060000Y-178500000D01*
G75*
G02*
X105810000Y-178250000I0J250000D01*
G01*
X105810000Y-177350000D01*
G75*
G02*
X106060000Y-177100000I250000J0D01*
G01*
X106585000Y-177100000D01*
G75*
G02*
X106835000Y-177350000I0J-250000D01*
G01*
G37*
G36*
G01*
X105010000Y-177350000D02*
X105010000Y-178250000D01*
G75*
G02*
X104760000Y-178500000I-250000J0D01*
G01*
X104235000Y-178500000D01*
G75*
G02*
X103985000Y-178250000I0J250000D01*
G01*
X103985000Y-177350000D01*
G75*
G02*
X104235000Y-177100000I250000J0D01*
G01*
X104760000Y-177100000D01*
G75*
G02*
X105010000Y-177350000I0J-250000D01*
G01*
G37*
G36*
G01*
X107343000Y-169730000D02*
X107343000Y-170630000D01*
G75*
G02*
X107093000Y-170880000I-250000J0D01*
G01*
X106568000Y-170880000D01*
G75*
G02*
X106318000Y-170630000I0J250000D01*
G01*
X106318000Y-169730000D01*
G75*
G02*
X106568000Y-169480000I250000J0D01*
G01*
X107093000Y-169480000D01*
G75*
G02*
X107343000Y-169730000I0J-250000D01*
G01*
G37*
G36*
G01*
X105518000Y-169730000D02*
X105518000Y-170630000D01*
G75*
G02*
X105268000Y-170880000I-250000J0D01*
G01*
X104743000Y-170880000D01*
G75*
G02*
X104493000Y-170630000I0J250000D01*
G01*
X104493000Y-169730000D01*
G75*
G02*
X104743000Y-169480000I250000J0D01*
G01*
X105268000Y-169480000D01*
G75*
G02*
X105518000Y-169730000I0J-250000D01*
G01*
G37*
G36*
G01*
X129695000Y-194495000D02*
X129695000Y-195395000D01*
G75*
G02*
X129445000Y-195645000I-250000J0D01*
G01*
X128920000Y-195645000D01*
G75*
G02*
X128670000Y-195395000I0J250000D01*
G01*
X128670000Y-194495000D01*
G75*
G02*
X128920000Y-194245000I250000J0D01*
G01*
X129445000Y-194245000D01*
G75*
G02*
X129695000Y-194495000I0J-250000D01*
G01*
G37*
G36*
G01*
X127870000Y-194495000D02*
X127870000Y-195395000D01*
G75*
G02*
X127620000Y-195645000I-250000J0D01*
G01*
X127095000Y-195645000D01*
G75*
G02*
X126845000Y-195395000I0J250000D01*
G01*
X126845000Y-194495000D01*
G75*
G02*
X127095000Y-194245000I250000J0D01*
G01*
X127620000Y-194245000D01*
G75*
G02*
X127870000Y-194495000I0J-250000D01*
G01*
G37*
G36*
G01*
X114201000Y-129344000D02*
X114201000Y-130244000D01*
G75*
G02*
X113951000Y-130494000I-250000J0D01*
G01*
X113426000Y-130494000D01*
G75*
G02*
X113176000Y-130244000I0J250000D01*
G01*
X113176000Y-129344000D01*
G75*
G02*
X113426000Y-129094000I250000J0D01*
G01*
X113951000Y-129094000D01*
G75*
G02*
X114201000Y-129344000I0J-250000D01*
G01*
G37*
G36*
G01*
X112376000Y-129344000D02*
X112376000Y-130244000D01*
G75*
G02*
X112126000Y-130494000I-250000J0D01*
G01*
X111601000Y-130494000D01*
G75*
G02*
X111351000Y-130244000I0J250000D01*
G01*
X111351000Y-129344000D01*
G75*
G02*
X111601000Y-129094000I250000J0D01*
G01*
X112126000Y-129094000D01*
G75*
G02*
X112376000Y-129344000I0J-250000D01*
G01*
G37*
G36*
G01*
X120297000Y-129344000D02*
X120297000Y-130244000D01*
G75*
G02*
X120047000Y-130494000I-250000J0D01*
G01*
X119522000Y-130494000D01*
G75*
G02*
X119272000Y-130244000I0J250000D01*
G01*
X119272000Y-129344000D01*
G75*
G02*
X119522000Y-129094000I250000J0D01*
G01*
X120047000Y-129094000D01*
G75*
G02*
X120297000Y-129344000I0J-250000D01*
G01*
G37*
G36*
G01*
X118472000Y-129344000D02*
X118472000Y-130244000D01*
G75*
G02*
X118222000Y-130494000I-250000J0D01*
G01*
X117697000Y-130494000D01*
G75*
G02*
X117447000Y-130244000I0J250000D01*
G01*
X117447000Y-129344000D01*
G75*
G02*
X117697000Y-129094000I250000J0D01*
G01*
X118222000Y-129094000D01*
G75*
G02*
X118472000Y-129344000I0J-250000D01*
G01*
G37*
G36*
G01*
X118610000Y-115730000D02*
X118610000Y-116680000D01*
G75*
G02*
X118360000Y-116930000I-250000J0D01*
G01*
X117860000Y-116930000D01*
G75*
G02*
X117610000Y-116680000I0J250000D01*
G01*
X117610000Y-115730000D01*
G75*
G02*
X117860000Y-115480000I250000J0D01*
G01*
X118360000Y-115480000D01*
G75*
G02*
X118610000Y-115730000I0J-250000D01*
G01*
G37*
G36*
G01*
X116710000Y-115730000D02*
X116710000Y-116680000D01*
G75*
G02*
X116460000Y-116930000I-250000J0D01*
G01*
X115960000Y-116930000D01*
G75*
G02*
X115710000Y-116680000I0J250000D01*
G01*
X115710000Y-115730000D01*
G75*
G02*
X115960000Y-115480000I250000J0D01*
G01*
X116460000Y-115480000D01*
G75*
G02*
X116710000Y-115730000I0J-250000D01*
G01*
G37*
G36*
G01*
X91555000Y-90482000D02*
X91555000Y-91382000D01*
G75*
G02*
X91305000Y-91632000I-250000J0D01*
G01*
X90780000Y-91632000D01*
G75*
G02*
X90530000Y-91382000I0J250000D01*
G01*
X90530000Y-90482000D01*
G75*
G02*
X90780000Y-90232000I250000J0D01*
G01*
X91305000Y-90232000D01*
G75*
G02*
X91555000Y-90482000I0J-250000D01*
G01*
G37*
G36*
G01*
X89730000Y-90482000D02*
X89730000Y-91382000D01*
G75*
G02*
X89480000Y-91632000I-250000J0D01*
G01*
X88955000Y-91632000D01*
G75*
G02*
X88705000Y-91382000I0J250000D01*
G01*
X88705000Y-90482000D01*
G75*
G02*
X88955000Y-90232000I250000J0D01*
G01*
X89480000Y-90232000D01*
G75*
G02*
X89730000Y-90482000I0J-250000D01*
G01*
G37*
G36*
G01*
X132235000Y-135258000D02*
X132235000Y-136158000D01*
G75*
G02*
X131985000Y-136408000I-250000J0D01*
G01*
X131460000Y-136408000D01*
G75*
G02*
X131210000Y-136158000I0J250000D01*
G01*
X131210000Y-135258000D01*
G75*
G02*
X131460000Y-135008000I250000J0D01*
G01*
X131985000Y-135008000D01*
G75*
G02*
X132235000Y-135258000I0J-250000D01*
G01*
G37*
G36*
G01*
X130410000Y-135258000D02*
X130410000Y-136158000D01*
G75*
G02*
X130160000Y-136408000I-250000J0D01*
G01*
X129635000Y-136408000D01*
G75*
G02*
X129385000Y-136158000I0J250000D01*
G01*
X129385000Y-135258000D01*
G75*
G02*
X129635000Y-135008000I250000J0D01*
G01*
X130160000Y-135008000D01*
G75*
G02*
X130410000Y-135258000I0J-250000D01*
G01*
G37*
G36*
G01*
X95603620Y-77920000D02*
X95603620Y-77020000D01*
G75*
G02*
X95853620Y-76770000I250000J0D01*
G01*
X96378620Y-76770000D01*
G75*
G02*
X96628620Y-77020000I0J-250000D01*
G01*
X96628620Y-77920000D01*
G75*
G02*
X96378620Y-78170000I-250000J0D01*
G01*
X95853620Y-78170000D01*
G75*
G02*
X95603620Y-77920000I0J250000D01*
G01*
G37*
G36*
G01*
X97428620Y-77920000D02*
X97428620Y-77020000D01*
G75*
G02*
X97678620Y-76770000I250000J0D01*
G01*
X98203620Y-76770000D01*
G75*
G02*
X98453620Y-77020000I0J-250000D01*
G01*
X98453620Y-77920000D01*
G75*
G02*
X98203620Y-78170000I-250000J0D01*
G01*
X97678620Y-78170000D01*
G75*
G02*
X97428620Y-77920000I0J250000D01*
G01*
G37*
G36*
G01*
X129598000Y-110716000D02*
X130498000Y-110716000D01*
G75*
G02*
X130748000Y-110966000I0J-250000D01*
G01*
X130748000Y-111491000D01*
G75*
G02*
X130498000Y-111741000I-250000J0D01*
G01*
X129598000Y-111741000D01*
G75*
G02*
X129348000Y-111491000I0J250000D01*
G01*
X129348000Y-110966000D01*
G75*
G02*
X129598000Y-110716000I250000J0D01*
G01*
G37*
G36*
G01*
X129598000Y-112541000D02*
X130498000Y-112541000D01*
G75*
G02*
X130748000Y-112791000I0J-250000D01*
G01*
X130748000Y-113316000D01*
G75*
G02*
X130498000Y-113566000I-250000J0D01*
G01*
X129598000Y-113566000D01*
G75*
G02*
X129348000Y-113316000I0J250000D01*
G01*
X129348000Y-112791000D01*
G75*
G02*
X129598000Y-112541000I250000J0D01*
G01*
G37*
G36*
G01*
X92047000Y-187775000D02*
X92047000Y-186875000D01*
G75*
G02*
X92297000Y-186625000I250000J0D01*
G01*
X92822000Y-186625000D01*
G75*
G02*
X93072000Y-186875000I0J-250000D01*
G01*
X93072000Y-187775000D01*
G75*
G02*
X92822000Y-188025000I-250000J0D01*
G01*
X92297000Y-188025000D01*
G75*
G02*
X92047000Y-187775000I0J250000D01*
G01*
G37*
G36*
G01*
X93872000Y-187775000D02*
X93872000Y-186875000D01*
G75*
G02*
X94122000Y-186625000I250000J0D01*
G01*
X94647000Y-186625000D01*
G75*
G02*
X94897000Y-186875000I0J-250000D01*
G01*
X94897000Y-187775000D01*
G75*
G02*
X94647000Y-188025000I-250000J0D01*
G01*
X94122000Y-188025000D01*
G75*
G02*
X93872000Y-187775000I0J250000D01*
G01*
G37*
G36*
G01*
X107770000Y-104615000D02*
X107770000Y-103665000D01*
G75*
G02*
X108020000Y-103415000I250000J0D01*
G01*
X108520000Y-103415000D01*
G75*
G02*
X108770000Y-103665000I0J-250000D01*
G01*
X108770000Y-104615000D01*
G75*
G02*
X108520000Y-104865000I-250000J0D01*
G01*
X108020000Y-104865000D01*
G75*
G02*
X107770000Y-104615000I0J250000D01*
G01*
G37*
G36*
G01*
X109670000Y-104615000D02*
X109670000Y-103665000D01*
G75*
G02*
X109920000Y-103415000I250000J0D01*
G01*
X110420000Y-103415000D01*
G75*
G02*
X110670000Y-103665000I0J-250000D01*
G01*
X110670000Y-104615000D01*
G75*
G02*
X110420000Y-104865000I-250000J0D01*
G01*
X109920000Y-104865000D01*
G75*
G02*
X109670000Y-104615000I0J250000D01*
G01*
G37*
G36*
G01*
X124894000Y-65565000D02*
X124894000Y-66515000D01*
G75*
G02*
X124644000Y-66765000I-250000J0D01*
G01*
X124144000Y-66765000D01*
G75*
G02*
X123894000Y-66515000I0J250000D01*
G01*
X123894000Y-65565000D01*
G75*
G02*
X124144000Y-65315000I250000J0D01*
G01*
X124644000Y-65315000D01*
G75*
G02*
X124894000Y-65565000I0J-250000D01*
G01*
G37*
G36*
G01*
X122994000Y-65565000D02*
X122994000Y-66515000D01*
G75*
G02*
X122744000Y-66765000I-250000J0D01*
G01*
X122244000Y-66765000D01*
G75*
G02*
X121994000Y-66515000I0J250000D01*
G01*
X121994000Y-65565000D01*
G75*
G02*
X122244000Y-65315000I250000J0D01*
G01*
X122744000Y-65315000D01*
G75*
G02*
X122994000Y-65565000I0J-250000D01*
G01*
G37*
G36*
G01*
X107082000Y-200383000D02*
X107082000Y-200683000D01*
G75*
G02*
X106932000Y-200833000I-150000J0D01*
G01*
X105282000Y-200833000D01*
G75*
G02*
X105132000Y-200683000I0J150000D01*
G01*
X105132000Y-200383000D01*
G75*
G02*
X105282000Y-200233000I150000J0D01*
G01*
X106932000Y-200233000D01*
G75*
G02*
X107082000Y-200383000I0J-150000D01*
G01*
G37*
G36*
G01*
X107082000Y-201653000D02*
X107082000Y-201953000D01*
G75*
G02*
X106932000Y-202103000I-150000J0D01*
G01*
X105282000Y-202103000D01*
G75*
G02*
X105132000Y-201953000I0J150000D01*
G01*
X105132000Y-201653000D01*
G75*
G02*
X105282000Y-201503000I150000J0D01*
G01*
X106932000Y-201503000D01*
G75*
G02*
X107082000Y-201653000I0J-150000D01*
G01*
G37*
G36*
G01*
X107082000Y-202923000D02*
X107082000Y-203223000D01*
G75*
G02*
X106932000Y-203373000I-150000J0D01*
G01*
X105282000Y-203373000D01*
G75*
G02*
X105132000Y-203223000I0J150000D01*
G01*
X105132000Y-202923000D01*
G75*
G02*
X105282000Y-202773000I150000J0D01*
G01*
X106932000Y-202773000D01*
G75*
G02*
X107082000Y-202923000I0J-150000D01*
G01*
G37*
G36*
G01*
X107082000Y-204193000D02*
X107082000Y-204493000D01*
G75*
G02*
X106932000Y-204643000I-150000J0D01*
G01*
X105282000Y-204643000D01*
G75*
G02*
X105132000Y-204493000I0J150000D01*
G01*
X105132000Y-204193000D01*
G75*
G02*
X105282000Y-204043000I150000J0D01*
G01*
X106932000Y-204043000D01*
G75*
G02*
X107082000Y-204193000I0J-150000D01*
G01*
G37*
G36*
G01*
X102132000Y-204193000D02*
X102132000Y-204493000D01*
G75*
G02*
X101982000Y-204643000I-150000J0D01*
G01*
X100332000Y-204643000D01*
G75*
G02*
X100182000Y-204493000I0J150000D01*
G01*
X100182000Y-204193000D01*
G75*
G02*
X100332000Y-204043000I150000J0D01*
G01*
X101982000Y-204043000D01*
G75*
G02*
X102132000Y-204193000I0J-150000D01*
G01*
G37*
G36*
G01*
X102132000Y-202923000D02*
X102132000Y-203223000D01*
G75*
G02*
X101982000Y-203373000I-150000J0D01*
G01*
X100332000Y-203373000D01*
G75*
G02*
X100182000Y-203223000I0J150000D01*
G01*
X100182000Y-202923000D01*
G75*
G02*
X100332000Y-202773000I150000J0D01*
G01*
X101982000Y-202773000D01*
G75*
G02*
X102132000Y-202923000I0J-150000D01*
G01*
G37*
G36*
G01*
X102132000Y-201653000D02*
X102132000Y-201953000D01*
G75*
G02*
X101982000Y-202103000I-150000J0D01*
G01*
X100332000Y-202103000D01*
G75*
G02*
X100182000Y-201953000I0J150000D01*
G01*
X100182000Y-201653000D01*
G75*
G02*
X100332000Y-201503000I150000J0D01*
G01*
X101982000Y-201503000D01*
G75*
G02*
X102132000Y-201653000I0J-150000D01*
G01*
G37*
G36*
G01*
X102132000Y-200383000D02*
X102132000Y-200683000D01*
G75*
G02*
X101982000Y-200833000I-150000J0D01*
G01*
X100332000Y-200833000D01*
G75*
G02*
X100182000Y-200683000I0J150000D01*
G01*
X100182000Y-200383000D01*
G75*
G02*
X100332000Y-200233000I150000J0D01*
G01*
X101982000Y-200233000D01*
G75*
G02*
X102132000Y-200383000I0J-150000D01*
G01*
G37*
G36*
G01*
X105255000Y-185362000D02*
X105255000Y-184462000D01*
G75*
G02*
X105505000Y-184212000I250000J0D01*
G01*
X106030000Y-184212000D01*
G75*
G02*
X106280000Y-184462000I0J-250000D01*
G01*
X106280000Y-185362000D01*
G75*
G02*
X106030000Y-185612000I-250000J0D01*
G01*
X105505000Y-185612000D01*
G75*
G02*
X105255000Y-185362000I0J250000D01*
G01*
G37*
G36*
G01*
X107080000Y-185362000D02*
X107080000Y-184462000D01*
G75*
G02*
X107330000Y-184212000I250000J0D01*
G01*
X107855000Y-184212000D01*
G75*
G02*
X108105000Y-184462000I0J-250000D01*
G01*
X108105000Y-185362000D01*
G75*
G02*
X107855000Y-185612000I-250000J0D01*
G01*
X107330000Y-185612000D01*
G75*
G02*
X107080000Y-185362000I0J250000D01*
G01*
G37*
G36*
G01*
X115882000Y-110716000D02*
X116782000Y-110716000D01*
G75*
G02*
X117032000Y-110966000I0J-250000D01*
G01*
X117032000Y-111491000D01*
G75*
G02*
X116782000Y-111741000I-250000J0D01*
G01*
X115882000Y-111741000D01*
G75*
G02*
X115632000Y-111491000I0J250000D01*
G01*
X115632000Y-110966000D01*
G75*
G02*
X115882000Y-110716000I250000J0D01*
G01*
G37*
G36*
G01*
X115882000Y-112541000D02*
X116782000Y-112541000D01*
G75*
G02*
X117032000Y-112791000I0J-250000D01*
G01*
X117032000Y-113316000D01*
G75*
G02*
X116782000Y-113566000I-250000J0D01*
G01*
X115882000Y-113566000D01*
G75*
G02*
X115632000Y-113316000I0J250000D01*
G01*
X115632000Y-112791000D01*
G75*
G02*
X115882000Y-112541000I250000J0D01*
G01*
G37*
G36*
G01*
X108105000Y-187002000D02*
X108105000Y-187902000D01*
G75*
G02*
X107855000Y-188152000I-250000J0D01*
G01*
X107330000Y-188152000D01*
G75*
G02*
X107080000Y-187902000I0J250000D01*
G01*
X107080000Y-187002000D01*
G75*
G02*
X107330000Y-186752000I250000J0D01*
G01*
X107855000Y-186752000D01*
G75*
G02*
X108105000Y-187002000I0J-250000D01*
G01*
G37*
G36*
G01*
X106280000Y-187002000D02*
X106280000Y-187902000D01*
G75*
G02*
X106030000Y-188152000I-250000J0D01*
G01*
X105505000Y-188152000D01*
G75*
G02*
X105255000Y-187902000I0J250000D01*
G01*
X105255000Y-187002000D01*
G75*
G02*
X105505000Y-186752000I250000J0D01*
G01*
X106030000Y-186752000D01*
G75*
G02*
X106280000Y-187002000I0J-250000D01*
G01*
G37*
G36*
G01*
X105230000Y-182847000D02*
X105230000Y-181897000D01*
G75*
G02*
X105480000Y-181647000I250000J0D01*
G01*
X105980000Y-181647000D01*
G75*
G02*
X106230000Y-181897000I0J-250000D01*
G01*
X106230000Y-182847000D01*
G75*
G02*
X105980000Y-183097000I-250000J0D01*
G01*
X105480000Y-183097000D01*
G75*
G02*
X105230000Y-182847000I0J250000D01*
G01*
G37*
G36*
G01*
X107130000Y-182847000D02*
X107130000Y-181897000D01*
G75*
G02*
X107380000Y-181647000I250000J0D01*
G01*
X107880000Y-181647000D01*
G75*
G02*
X108130000Y-181897000I0J-250000D01*
G01*
X108130000Y-182847000D01*
G75*
G02*
X107880000Y-183097000I-250000J0D01*
G01*
X107380000Y-183097000D01*
G75*
G02*
X107130000Y-182847000I0J250000D01*
G01*
G37*
G36*
G01*
X120297000Y-136782000D02*
X120297000Y-137682000D01*
G75*
G02*
X120047000Y-137932000I-250000J0D01*
G01*
X119522000Y-137932000D01*
G75*
G02*
X119272000Y-137682000I0J250000D01*
G01*
X119272000Y-136782000D01*
G75*
G02*
X119522000Y-136532000I250000J0D01*
G01*
X120047000Y-136532000D01*
G75*
G02*
X120297000Y-136782000I0J-250000D01*
G01*
G37*
G36*
G01*
X118472000Y-136782000D02*
X118472000Y-137682000D01*
G75*
G02*
X118222000Y-137932000I-250000J0D01*
G01*
X117697000Y-137932000D01*
G75*
G02*
X117447000Y-137682000I0J250000D01*
G01*
X117447000Y-136782000D01*
G75*
G02*
X117697000Y-136532000I250000J0D01*
G01*
X118222000Y-136532000D01*
G75*
G02*
X118472000Y-136782000I0J-250000D01*
G01*
G37*
G36*
G01*
X132235000Y-129344000D02*
X132235000Y-130244000D01*
G75*
G02*
X131985000Y-130494000I-250000J0D01*
G01*
X131460000Y-130494000D01*
G75*
G02*
X131210000Y-130244000I0J250000D01*
G01*
X131210000Y-129344000D01*
G75*
G02*
X131460000Y-129094000I250000J0D01*
G01*
X131985000Y-129094000D01*
G75*
G02*
X132235000Y-129344000I0J-250000D01*
G01*
G37*
G36*
G01*
X130410000Y-129344000D02*
X130410000Y-130244000D01*
G75*
G02*
X130160000Y-130494000I-250000J0D01*
G01*
X129635000Y-130494000D01*
G75*
G02*
X129385000Y-130244000I0J250000D01*
G01*
X129385000Y-129344000D01*
G75*
G02*
X129635000Y-129094000I250000J0D01*
G01*
X130160000Y-129094000D01*
G75*
G02*
X130410000Y-129344000I0J-250000D01*
G01*
G37*
M02*
