M48
; DRILL file {KiCad 6.0.5+dfsg-1~bpo11+1} date Sat Apr 15 13:20:01 2023
; FORMAT={-:-/ absolute / metric / decimal}
; #@! TF.CreationDate,2023-04-15T13:20:01+00:00
; #@! TF.GenerationSoftware,Kicad,Pcbnew,6.0.5+dfsg-1~bpo11+1
; #@! TF.FileFunction,Plated,1,2,PTH
FMAT,2
METRIC
; #@! TA.AperFunction,Plated,PTH,ViaDrill
T1C0.400
; #@! TA.AperFunction,Plated,PTH,ViaDrill
T2C0.500
; #@! TA.AperFunction,Plated,PTH,ComponentDrill
T3C0.800
; #@! TA.AperFunction,Plated,PTH,ComponentDrill
T4C0.900
; #@! TA.AperFunction,Plated,PTH,ComponentDrill
T5C1.000
; #@! TA.AperFunction,Plated,PTH,ComponentDrill
T6C1.100
; #@! TA.AperFunction,Plated,PTH,ComponentDrill
T7C1.190
; #@! TA.AperFunction,Plated,PTH,ComponentDrill
T8C1.850
%
G90
G05
T1
X96.164Y-213.462
X96.266Y-205.359
X108.255Y-200.508
X110.287Y-204.724
X117.551Y-215.9
T2
X83.464Y-190.983
X86.462Y-188.57
X86.538Y-185.928
X87.884Y-104.419
X87.986Y-185.801
X88.214Y-188.798
X90.627Y-188.595
X90.957Y-191.084
X91.364Y-158.852
X91.646Y-157.298
X92.583Y-194.513
X95.682Y-180.492
X95.758Y-184.658
X96.281Y-176.479
X97.282Y-129.769
X97.409Y-137.287
X97.46Y-177.749
X98.628Y-197.079
X103.378Y-112.827
X104.165Y-179.934
X104.242Y-172.618
X104.546Y-192.354
X107.594Y-191.592
X108.687Y-197.104
X109.296Y-188.697
X110.362Y-62.737
X111.658Y-102.362
X113.233Y-184.785
X114.097Y-116.789
X114.452Y-137.338
X116.586Y-66.04
X116.713Y-58.928
X116.84Y-52.705
X117.246Y-138.989
X117.831Y-126.644
X118.166Y-113.062
X118.313Y-213.792
X118.339Y-158.293
X118.339Y-165.354
X120.079Y-67.678
X121.285Y-54.102
X121.641Y-69.063
X121.717Y-111.506
X122.326Y-211.404
X124.079Y-57.404
X124.104Y-116.23
X126.365Y-66.04
X127.889Y-157.023
X128.321Y-110.871
X128.626Y-165.379
X131.191Y-196.012
X131.369Y-101.854
X131.47Y-170.891
X131.866Y-136.976
T3
X87.884Y-95.758
X90.384Y-95.758
X93.004Y-146.384
X94.996Y-153.234
X95.504Y-146.384
X96.774Y-85.344
X96.774Y-91.44
X96.774Y-97.536
X96.774Y-103.632
X97.536Y-153.234
X99.568Y-144.344
X100.076Y-153.234
X101.64Y-76.454
X101.774Y-85.344
X101.774Y-91.44
X101.774Y-97.536
X101.774Y-103.632
X102.108Y-141.804
X104.092Y-210.82
X104.14Y-76.454
X104.14Y-136.144
X104.648Y-144.344
X104.648Y-149.606
X104.648Y-154.606
X105.37Y-81.788
X105.37Y-84.328
X105.37Y-86.868
X105.37Y-89.408
X105.37Y-91.948
X105.37Y-94.488
X105.37Y-97.028
X105.37Y-99.568
X106.592Y-210.82
X106.68Y-133.604
X108.204Y-140.788
X108.204Y-145.788
X109.22Y-136.144
X111.712Y-210.185
X112.99Y-81.788
X112.99Y-84.328
X112.99Y-86.868
X112.99Y-89.408
X112.99Y-91.948
X112.99Y-94.488
X112.99Y-97.028
X112.99Y-99.568
X113.832Y-76.454
X114.212Y-210.185
X114.38Y-172.974
X114.38Y-181.102
X114.38Y-188.722
X114.38Y-196.342
X115.776Y-145.868
X116.332Y-76.454
X116.586Y-85.344
X116.586Y-91.44
X116.586Y-97.536
X116.586Y-103.632
X117.856Y-153.234
X118.276Y-145.868
X119.38Y-172.974
X119.38Y-181.102
X119.38Y-188.722
X119.38Y-196.342
X120.396Y-153.234
X121.586Y-85.344
X121.586Y-91.44
X121.586Y-97.536
X121.586Y-103.632
X122.428Y-136.224
X122.428Y-144.352
X122.936Y-153.234
X124.968Y-133.684
X124.968Y-141.812
X127.508Y-136.224
X127.508Y-144.352
X127.928Y-95.758
X128.016Y-149.606
X128.016Y-154.606
X130.428Y-95.758
X131.064Y-140.828
X131.064Y-145.828
T4
X93.345Y-201.935
X93.345Y-204.475
X125.095Y-201.935
X125.095Y-204.475
T5
X91.338Y-172.771
X91.364Y-162.763
X102.87Y-121.285
X104.14Y-220.345
X104.14Y-222.885
X106.68Y-58.46
X106.68Y-60.96
X106.68Y-115.61
X106.68Y-118.11
X106.68Y-172.8
X106.68Y-175.3
X106.68Y-220.345
X106.68Y-222.885
X109.18Y-58.46
X109.18Y-60.96
X109.18Y-115.61
X109.18Y-118.11
X109.18Y-172.8
X109.18Y-175.3
X109.22Y-220.345
X109.22Y-222.885
X111.68Y-58.46
X111.68Y-60.96
X111.68Y-115.61
X111.68Y-118.11
X111.68Y-172.8
X111.68Y-175.3
X111.76Y-220.345
X111.76Y-222.885
X114.3Y-220.345
X114.3Y-222.885
X115.57Y-121.285
T7
X88.9Y-120.65
X88.9Y-123.19
X88.9Y-125.73
X88.9Y-128.27
X88.9Y-130.81
X88.9Y-133.35
X88.9Y-135.89
X88.9Y-138.43
X128.27Y-117.475
X128.27Y-120.015
X128.27Y-122.555
X128.27Y-125.095
X128.27Y-175.895
X128.27Y-178.435
X128.27Y-180.975
X128.27Y-183.515
X128.27Y-186.055
X128.27Y-188.595
X128.27Y-191.135
T8
X90.93Y-217.55
X90.93Y-222.25
X90.93Y-226.95
X95.76Y-217.55
X95.76Y-222.25
X95.76Y-226.95
X122.68Y-217.55
X122.68Y-222.25
X122.68Y-226.95
X127.51Y-217.55
X127.51Y-222.25
X127.51Y-226.95
T6
X104.43Y-51.31G85X104.43Y-50.61
G05
X104.43Y-108.46G85X104.43Y-107.76
G05
X104.43Y-165.65G85X104.43Y-164.95
G05
X113.93Y-51.31G85X113.93Y-50.61
G05
X113.93Y-108.46G85X113.93Y-107.76
G05
X113.93Y-165.65G85X113.93Y-164.95
G05
T0
M30
