%FSLAX45Y45*%
G04 Gerber Fmt 4.5, Leading zero omitted, Abs format (unit mm)*
G04 Created by KiCad (PCBNEW 6.0.5+dfsg-1~bpo11+1) date 2023-04-15 13:23:45*
%MOMM*%
%LPD*%
G01*
G04 APERTURE LIST*
%TA.AperFunction,Profile*%
%ADD10C,0.100000*%
%TD*%
%ADD11C,0.200000*%
%ADD12C,0.040000*%
%ADD13C,0.050000*%
%ADD14C,0.080000*%
%ADD15C,0.090000*%
%ADD16C,0.100000*%
%ADD17C,0.110000*%
%ADD18C,0.119000*%
%ADD19C,0.185000*%
G04 APERTURE END LIST*
D10*
X8255000Y-4445000D02*
X8255000Y-22987000D01*
X13462000Y-22987000D02*
X13462000Y-4445000D01*
X8255000Y-22987000D02*
X13462000Y-22987000D01*
X13462000Y-4445000D02*
X8255000Y-4445000D01*
D11*
D12*
X9596440Y-21326160D02*
X9636440Y-21366160D01*
X9636440Y-21326160D02*
X9596440Y-21366160D01*
X9606600Y-20515900D02*
X9646600Y-20555900D01*
X9646600Y-20515900D02*
X9606600Y-20555900D01*
X10805480Y-20030760D02*
X10845480Y-20070760D01*
X10845480Y-20030760D02*
X10805480Y-20070760D01*
X11008680Y-20452400D02*
X11048680Y-20492400D01*
X11048680Y-20452400D02*
X11008680Y-20492400D01*
X11735120Y-21570000D02*
X11775120Y-21610000D01*
X11775120Y-21570000D02*
X11735120Y-21610000D01*
D13*
X8371440Y-19098260D02*
G75*
G03*
X8371440Y-19098260I-25000J0D01*
G01*
X8671160Y-18856960D02*
G75*
G03*
X8671160Y-18856960I-25000J0D01*
G01*
X8678780Y-18592800D02*
G75*
G03*
X8678780Y-18592800I-25000J0D01*
G01*
X8813400Y-10441940D02*
G75*
G03*
X8813400Y-10441940I-25000J0D01*
G01*
X8823560Y-18580100D02*
G75*
G03*
X8823560Y-18580100I-25000J0D01*
G01*
X8846420Y-18879820D02*
G75*
G03*
X8846420Y-18879820I-25000J0D01*
G01*
X9087720Y-18859500D02*
G75*
G03*
X9087720Y-18859500I-25000J0D01*
G01*
X9120740Y-19108420D02*
G75*
G03*
X9120740Y-19108420I-25000J0D01*
G01*
X9161380Y-15885160D02*
G75*
G03*
X9161380Y-15885160I-25000J0D01*
G01*
X9189573Y-15729758D02*
G75*
G03*
X9189573Y-15729758I-25000J0D01*
G01*
X9283300Y-19451320D02*
G75*
G03*
X9283300Y-19451320I-25000J0D01*
G01*
X9593180Y-18049240D02*
G75*
G03*
X9593180Y-18049240I-25000J0D01*
G01*
X9600800Y-18465800D02*
G75*
G03*
X9600800Y-18465800I-25000J0D01*
G01*
X9653090Y-17647920D02*
G75*
G03*
X9653090Y-17647920I-25000J0D01*
G01*
X9753200Y-12976860D02*
G75*
G03*
X9753200Y-12976860I-25000J0D01*
G01*
X9765900Y-13728700D02*
G75*
G03*
X9765900Y-13728700I-25000J0D01*
G01*
X9770980Y-17774920D02*
G75*
G03*
X9770980Y-17774920I-25000J0D01*
G01*
X9887820Y-19707860D02*
G75*
G03*
X9887820Y-19707860I-25000J0D01*
G01*
X10362800Y-11282680D02*
G75*
G03*
X10362800Y-11282680I-25000J0D01*
G01*
X10441540Y-17993360D02*
G75*
G03*
X10441540Y-17993360I-25000J0D01*
G01*
X10449160Y-17261840D02*
G75*
G03*
X10449160Y-17261840I-25000J0D01*
G01*
X10479640Y-19235420D02*
G75*
G03*
X10479640Y-19235420I-25000J0D01*
G01*
X10784440Y-19159220D02*
G75*
G03*
X10784440Y-19159220I-25000J0D01*
G01*
X10893660Y-19710400D02*
G75*
G03*
X10893660Y-19710400I-25000J0D01*
G01*
X10954620Y-18869660D02*
G75*
G03*
X10954620Y-18869660I-25000J0D01*
G01*
X11061196Y-6273696D02*
G75*
G03*
X11061196Y-6273696I-25000J0D01*
G01*
X11190840Y-10236200D02*
G75*
G03*
X11190840Y-10236200I-25000J0D01*
G01*
X11348320Y-18478500D02*
G75*
G03*
X11348320Y-18478500I-25000J0D01*
G01*
X11434680Y-11678920D02*
G75*
G03*
X11434680Y-11678920I-25000J0D01*
G01*
X11470240Y-13733780D02*
G75*
G03*
X11470240Y-13733780I-25000J0D01*
G01*
X11683600Y-6604000D02*
G75*
G03*
X11683600Y-6604000I-25000J0D01*
G01*
X11696300Y-5892800D02*
G75*
G03*
X11696300Y-5892800I-25000J0D01*
G01*
X11709000Y-5270500D02*
G75*
G03*
X11709000Y-5270500I-25000J0D01*
G01*
X11749640Y-13898880D02*
G75*
G03*
X11749640Y-13898880I-25000J0D01*
G01*
X11808060Y-12664440D02*
G75*
G03*
X11808060Y-12664440I-25000J0D01*
G01*
X11841571Y-11306221D02*
G75*
G03*
X11841571Y-11306221I-25000J0D01*
G01*
X11856320Y-21379180D02*
G75*
G03*
X11856320Y-21379180I-25000J0D01*
G01*
X11858860Y-15829280D02*
G75*
G03*
X11858860Y-15829280I-25000J0D01*
G01*
X11858860Y-16535400D02*
G75*
G03*
X11858860Y-16535400I-25000J0D01*
G01*
X12032850Y-6767830D02*
G75*
G03*
X12032850Y-6767830I-25000J0D01*
G01*
X12153500Y-5410200D02*
G75*
G03*
X12153500Y-5410200I-25000J0D01*
G01*
X12189060Y-6906260D02*
G75*
G03*
X12189060Y-6906260I-25000J0D01*
G01*
X12196680Y-11150600D02*
G75*
G03*
X12196680Y-11150600I-25000J0D01*
G01*
X12257640Y-21140420D02*
G75*
G03*
X12257640Y-21140420I-25000J0D01*
G01*
X12432900Y-5740400D02*
G75*
G03*
X12432900Y-5740400I-25000J0D01*
G01*
X12435440Y-11623040D02*
G75*
G03*
X12435440Y-11623040I-25000J0D01*
G01*
X12661500Y-6604000D02*
G75*
G03*
X12661500Y-6604000I-25000J0D01*
G01*
X12813900Y-15702280D02*
G75*
G03*
X12813900Y-15702280I-25000J0D01*
G01*
X12857080Y-11087100D02*
G75*
G03*
X12857080Y-11087100I-25000J0D01*
G01*
X12887560Y-16537940D02*
G75*
G03*
X12887560Y-16537940I-25000J0D01*
G01*
X13144100Y-19601180D02*
G75*
G03*
X13144100Y-19601180I-25000J0D01*
G01*
X13161880Y-10185400D02*
G75*
G03*
X13161880Y-10185400I-25000J0D01*
G01*
X13172040Y-17089120D02*
G75*
G03*
X13172040Y-17089120I-25000J0D01*
G01*
X13211630Y-13697590D02*
G75*
G03*
X13211630Y-13697590I-25000J0D01*
G01*
D14*
X8788400Y-9535800D02*
X8788400Y-9615800D01*
X8748400Y-9575800D02*
X8828400Y-9575800D01*
X9038400Y-9535800D02*
X9038400Y-9615800D01*
X8998400Y-9575800D02*
X9078400Y-9575800D01*
X9300400Y-14598400D02*
X9300400Y-14678400D01*
X9260400Y-14638400D02*
X9340400Y-14638400D01*
X9499600Y-15283400D02*
X9499600Y-15363400D01*
X9459600Y-15323400D02*
X9539600Y-15323400D01*
X9550400Y-14598400D02*
X9550400Y-14678400D01*
X9510400Y-14638400D02*
X9590400Y-14638400D01*
X9677400Y-8494400D02*
X9677400Y-8574400D01*
X9637400Y-8534400D02*
X9717400Y-8534400D01*
X9677400Y-9104000D02*
X9677400Y-9184000D01*
X9637400Y-9144000D02*
X9717400Y-9144000D01*
X9677400Y-9713600D02*
X9677400Y-9793600D01*
X9637400Y-9753600D02*
X9717400Y-9753600D01*
X9677400Y-10323200D02*
X9677400Y-10403200D01*
X9637400Y-10363200D02*
X9717400Y-10363200D01*
X9753600Y-15283400D02*
X9753600Y-15363400D01*
X9713600Y-15323400D02*
X9793600Y-15323400D01*
X9956800Y-14394400D02*
X9956800Y-14474400D01*
X9916800Y-14434400D02*
X9996800Y-14434400D01*
X10007600Y-15283400D02*
X10007600Y-15363400D01*
X9967600Y-15323400D02*
X10047600Y-15323400D01*
X10164000Y-7605400D02*
X10164000Y-7685400D01*
X10124000Y-7645400D02*
X10204000Y-7645400D01*
X10177400Y-8494400D02*
X10177400Y-8574400D01*
X10137400Y-8534400D02*
X10217400Y-8534400D01*
X10177400Y-9104000D02*
X10177400Y-9184000D01*
X10137400Y-9144000D02*
X10217400Y-9144000D01*
X10177400Y-9713600D02*
X10177400Y-9793600D01*
X10137400Y-9753600D02*
X10217400Y-9753600D01*
X10177400Y-10323200D02*
X10177400Y-10403200D01*
X10137400Y-10363200D02*
X10217400Y-10363200D01*
X10210800Y-14140400D02*
X10210800Y-14220400D01*
X10170800Y-14180400D02*
X10250800Y-14180400D01*
X10409238Y-21042000D02*
X10409238Y-21122000D01*
X10369238Y-21082000D02*
X10449238Y-21082000D01*
X10414000Y-7605400D02*
X10414000Y-7685400D01*
X10374000Y-7645400D02*
X10454000Y-7645400D01*
X10414000Y-13574400D02*
X10414000Y-13654400D01*
X10374000Y-13614400D02*
X10454000Y-13614400D01*
X10464800Y-14394400D02*
X10464800Y-14474400D01*
X10424800Y-14434400D02*
X10504800Y-14434400D01*
X10464800Y-14920600D02*
X10464800Y-15000600D01*
X10424800Y-14960600D02*
X10504800Y-14960600D01*
X10464800Y-15420600D02*
X10464800Y-15500600D01*
X10424800Y-15460600D02*
X10504800Y-15460600D01*
X10537000Y-8138800D02*
X10537000Y-8218800D01*
X10497000Y-8178800D02*
X10577000Y-8178800D01*
X10537000Y-8392800D02*
X10537000Y-8472800D01*
X10497000Y-8432800D02*
X10577000Y-8432800D01*
X10537000Y-8646800D02*
X10537000Y-8726800D01*
X10497000Y-8686800D02*
X10577000Y-8686800D01*
X10537000Y-8900800D02*
X10537000Y-8980800D01*
X10497000Y-8940800D02*
X10577000Y-8940800D01*
X10537000Y-9154800D02*
X10537000Y-9234800D01*
X10497000Y-9194800D02*
X10577000Y-9194800D01*
X10537000Y-9408800D02*
X10537000Y-9488800D01*
X10497000Y-9448800D02*
X10577000Y-9448800D01*
X10537000Y-9662800D02*
X10537000Y-9742800D01*
X10497000Y-9702800D02*
X10577000Y-9702800D01*
X10537000Y-9916800D02*
X10537000Y-9996800D01*
X10497000Y-9956800D02*
X10577000Y-9956800D01*
X10659238Y-21042000D02*
X10659238Y-21122000D01*
X10619238Y-21082000D02*
X10699238Y-21082000D01*
X10668000Y-13320400D02*
X10668000Y-13400400D01*
X10628000Y-13360400D02*
X10708000Y-13360400D01*
X10820400Y-14038800D02*
X10820400Y-14118800D01*
X10780400Y-14078800D02*
X10860400Y-14078800D01*
X10820400Y-14538800D02*
X10820400Y-14618800D01*
X10780400Y-14578800D02*
X10860400Y-14578800D01*
X10922000Y-13574400D02*
X10922000Y-13654400D01*
X10882000Y-13614400D02*
X10962000Y-13614400D01*
X11171238Y-20978500D02*
X11171238Y-21058500D01*
X11131238Y-21018500D02*
X11211238Y-21018500D01*
X11299000Y-8138800D02*
X11299000Y-8218800D01*
X11259000Y-8178800D02*
X11339000Y-8178800D01*
X11299000Y-8392800D02*
X11299000Y-8472800D01*
X11259000Y-8432800D02*
X11339000Y-8432800D01*
X11299000Y-8646800D02*
X11299000Y-8726800D01*
X11259000Y-8686800D02*
X11339000Y-8686800D01*
X11299000Y-8900800D02*
X11299000Y-8980800D01*
X11259000Y-8940800D02*
X11339000Y-8940800D01*
X11299000Y-9154800D02*
X11299000Y-9234800D01*
X11259000Y-9194800D02*
X11339000Y-9194800D01*
X11299000Y-9408800D02*
X11299000Y-9488800D01*
X11259000Y-9448800D02*
X11339000Y-9448800D01*
X11299000Y-9662800D02*
X11299000Y-9742800D01*
X11259000Y-9702800D02*
X11339000Y-9702800D01*
X11299000Y-9916800D02*
X11299000Y-9996800D01*
X11259000Y-9956800D02*
X11339000Y-9956800D01*
X11383200Y-7605400D02*
X11383200Y-7685400D01*
X11343200Y-7645400D02*
X11423200Y-7645400D01*
X11421238Y-20978500D02*
X11421238Y-21058500D01*
X11381238Y-21018500D02*
X11461238Y-21018500D01*
X11438000Y-17257400D02*
X11438000Y-17337400D01*
X11398000Y-17297400D02*
X11478000Y-17297400D01*
X11438000Y-18070200D02*
X11438000Y-18150200D01*
X11398000Y-18110200D02*
X11478000Y-18110200D01*
X11438000Y-18832200D02*
X11438000Y-18912200D01*
X11398000Y-18872200D02*
X11478000Y-18872200D01*
X11438000Y-19594200D02*
X11438000Y-19674200D01*
X11398000Y-19634200D02*
X11478000Y-19634200D01*
X11577638Y-14546800D02*
X11577638Y-14626800D01*
X11537638Y-14586800D02*
X11617638Y-14586800D01*
X11633200Y-7605400D02*
X11633200Y-7685400D01*
X11593200Y-7645400D02*
X11673200Y-7645400D01*
X11658600Y-8494400D02*
X11658600Y-8574400D01*
X11618600Y-8534400D02*
X11698600Y-8534400D01*
X11658600Y-9104000D02*
X11658600Y-9184000D01*
X11618600Y-9144000D02*
X11698600Y-9144000D01*
X11658600Y-9713600D02*
X11658600Y-9793600D01*
X11618600Y-9753600D02*
X11698600Y-9753600D01*
X11658600Y-10323200D02*
X11658600Y-10403200D01*
X11618600Y-10363200D02*
X11698600Y-10363200D01*
X11785600Y-15283400D02*
X11785600Y-15363400D01*
X11745600Y-15323400D02*
X11825600Y-15323400D01*
X11827638Y-14546800D02*
X11827638Y-14626800D01*
X11787638Y-14586800D02*
X11867638Y-14586800D01*
X11938000Y-17257400D02*
X11938000Y-17337400D01*
X11898000Y-17297400D02*
X11978000Y-17297400D01*
X11938000Y-18070200D02*
X11938000Y-18150200D01*
X11898000Y-18110200D02*
X11978000Y-18110200D01*
X11938000Y-18832200D02*
X11938000Y-18912200D01*
X11898000Y-18872200D02*
X11978000Y-18872200D01*
X11938000Y-19594200D02*
X11938000Y-19674200D01*
X11898000Y-19634200D02*
X11978000Y-19634200D01*
X12039600Y-15283400D02*
X12039600Y-15363400D01*
X11999600Y-15323400D02*
X12079600Y-15323400D01*
X12158600Y-8494400D02*
X12158600Y-8574400D01*
X12118600Y-8534400D02*
X12198600Y-8534400D01*
X12158600Y-9104000D02*
X12158600Y-9184000D01*
X12118600Y-9144000D02*
X12198600Y-9144000D01*
X12158600Y-9713600D02*
X12158600Y-9793600D01*
X12118600Y-9753600D02*
X12198600Y-9753600D01*
X12158600Y-10323200D02*
X12158600Y-10403200D01*
X12118600Y-10363200D02*
X12198600Y-10363200D01*
X12242800Y-13582400D02*
X12242800Y-13662400D01*
X12202800Y-13622400D02*
X12282800Y-13622400D01*
X12242800Y-14395200D02*
X12242800Y-14475200D01*
X12202800Y-14435200D02*
X12282800Y-14435200D01*
X12293600Y-15283400D02*
X12293600Y-15363400D01*
X12253600Y-15323400D02*
X12333600Y-15323400D01*
X12496800Y-13328400D02*
X12496800Y-13408400D01*
X12456800Y-13368400D02*
X12536800Y-13368400D01*
X12496800Y-14141200D02*
X12496800Y-14221200D01*
X12456800Y-14181200D02*
X12536800Y-14181200D01*
X12750800Y-13582400D02*
X12750800Y-13662400D01*
X12710800Y-13622400D02*
X12790800Y-13622400D01*
X12750800Y-14395200D02*
X12750800Y-14475200D01*
X12710800Y-14435200D02*
X12790800Y-14435200D01*
X12792838Y-9535800D02*
X12792838Y-9615800D01*
X12752838Y-9575800D02*
X12832838Y-9575800D01*
X12801600Y-14920600D02*
X12801600Y-15000600D01*
X12761600Y-14960600D02*
X12841600Y-14960600D01*
X12801600Y-15420600D02*
X12801600Y-15500600D01*
X12761600Y-15460600D02*
X12841600Y-15460600D01*
X13042838Y-9535800D02*
X13042838Y-9615800D01*
X13002838Y-9575800D02*
X13082838Y-9575800D01*
X13106400Y-14042800D02*
X13106400Y-14122800D01*
X13066400Y-14082800D02*
X13146400Y-14082800D01*
X13106400Y-14542800D02*
X13106400Y-14622800D01*
X13066400Y-14582800D02*
X13146400Y-14582800D01*
D15*
X9366320Y-20225320D02*
X9366320Y-20161680D01*
X9302680Y-20161680D01*
X9302680Y-20225320D01*
X9366320Y-20225320D01*
X9366320Y-20479320D02*
X9366320Y-20415680D01*
X9302680Y-20415680D01*
X9302680Y-20479320D01*
X9366320Y-20479320D01*
X12541320Y-20225320D02*
X12541320Y-20161680D01*
X12477680Y-20161680D01*
X12477680Y-20225320D01*
X12541320Y-20225320D01*
X12541320Y-20479320D02*
X12541320Y-20415680D01*
X12477680Y-20415680D01*
X12477680Y-20479320D01*
X12541320Y-20479320D01*
D16*
X9133840Y-17327080D02*
X9183840Y-17277080D01*
X9133840Y-17227080D01*
X9083840Y-17277080D01*
X9133840Y-17327080D01*
X9136380Y-16326320D02*
X9186380Y-16276320D01*
X9136380Y-16226320D01*
X9086380Y-16276320D01*
X9136380Y-16326320D01*
X10287000Y-12178500D02*
X10337000Y-12128500D01*
X10287000Y-12078500D01*
X10237000Y-12128500D01*
X10287000Y-12178500D01*
X10414000Y-22084500D02*
X10464000Y-22034500D01*
X10414000Y-21984500D01*
X10364000Y-22034500D01*
X10414000Y-22084500D01*
X10414000Y-22338500D02*
X10464000Y-22288500D01*
X10414000Y-22238500D01*
X10364000Y-22288500D01*
X10414000Y-22338500D01*
X10668000Y-5896000D02*
X10718000Y-5846000D01*
X10668000Y-5796000D01*
X10618000Y-5846000D01*
X10668000Y-5896000D01*
X10668000Y-6146000D02*
X10718000Y-6096000D01*
X10668000Y-6046000D01*
X10618000Y-6096000D01*
X10668000Y-6146000D01*
X10668000Y-11611000D02*
X10718000Y-11561000D01*
X10668000Y-11511000D01*
X10618000Y-11561000D01*
X10668000Y-11611000D01*
X10668000Y-11861000D02*
X10718000Y-11811000D01*
X10668000Y-11761000D01*
X10618000Y-11811000D01*
X10668000Y-11861000D01*
X10668000Y-17330000D02*
X10718000Y-17280000D01*
X10668000Y-17230000D01*
X10618000Y-17280000D01*
X10668000Y-17330000D01*
X10668000Y-17580000D02*
X10718000Y-17530000D01*
X10668000Y-17480000D01*
X10618000Y-17530000D01*
X10668000Y-17580000D01*
X10668000Y-22084500D02*
X10718000Y-22034500D01*
X10668000Y-21984500D01*
X10618000Y-22034500D01*
X10668000Y-22084500D01*
X10668000Y-22338500D02*
X10718000Y-22288500D01*
X10668000Y-22238500D01*
X10618000Y-22288500D01*
X10668000Y-22338500D01*
X10918000Y-5896000D02*
X10968000Y-5846000D01*
X10918000Y-5796000D01*
X10868000Y-5846000D01*
X10918000Y-5896000D01*
X10918000Y-6146000D02*
X10968000Y-6096000D01*
X10918000Y-6046000D01*
X10868000Y-6096000D01*
X10918000Y-6146000D01*
X10918000Y-11611000D02*
X10968000Y-11561000D01*
X10918000Y-11511000D01*
X10868000Y-11561000D01*
X10918000Y-11611000D01*
X10918000Y-11861000D02*
X10968000Y-11811000D01*
X10918000Y-11761000D01*
X10868000Y-11811000D01*
X10918000Y-11861000D01*
X10918000Y-17330000D02*
X10968000Y-17280000D01*
X10918000Y-17230000D01*
X10868000Y-17280000D01*
X10918000Y-17330000D01*
X10918000Y-17580000D02*
X10968000Y-17530000D01*
X10918000Y-17480000D01*
X10868000Y-17530000D01*
X10918000Y-17580000D01*
X10922000Y-22084500D02*
X10972000Y-22034500D01*
X10922000Y-21984500D01*
X10872000Y-22034500D01*
X10922000Y-22084500D01*
X10922000Y-22338500D02*
X10972000Y-22288500D01*
X10922000Y-22238500D01*
X10872000Y-22288500D01*
X10922000Y-22338500D01*
X11168000Y-5896000D02*
X11218000Y-5846000D01*
X11168000Y-5796000D01*
X11118000Y-5846000D01*
X11168000Y-5896000D01*
X11168000Y-6146000D02*
X11218000Y-6096000D01*
X11168000Y-6046000D01*
X11118000Y-6096000D01*
X11168000Y-6146000D01*
X11168000Y-11611000D02*
X11218000Y-11561000D01*
X11168000Y-11511000D01*
X11118000Y-11561000D01*
X11168000Y-11611000D01*
X11168000Y-11861000D02*
X11218000Y-11811000D01*
X11168000Y-11761000D01*
X11118000Y-11811000D01*
X11168000Y-11861000D01*
X11168000Y-17330000D02*
X11218000Y-17280000D01*
X11168000Y-17230000D01*
X11118000Y-17280000D01*
X11168000Y-17330000D01*
X11168000Y-17580000D02*
X11218000Y-17530000D01*
X11168000Y-17480000D01*
X11118000Y-17530000D01*
X11168000Y-17580000D01*
X11176000Y-22084500D02*
X11226000Y-22034500D01*
X11176000Y-21984500D01*
X11126000Y-22034500D01*
X11176000Y-22084500D01*
X11176000Y-22338500D02*
X11226000Y-22288500D01*
X11176000Y-22238500D01*
X11126000Y-22288500D01*
X11176000Y-22338500D01*
X11430000Y-22084500D02*
X11480000Y-22034500D01*
X11430000Y-21984500D01*
X11380000Y-22034500D01*
X11430000Y-22084500D01*
X11430000Y-22338500D02*
X11480000Y-22288500D01*
X11430000Y-22238500D01*
X11380000Y-22288500D01*
X11430000Y-22338500D01*
X11557000Y-12178500D02*
X11607000Y-12128500D01*
X11557000Y-12078500D01*
X11507000Y-12128500D01*
X11557000Y-12178500D01*
D17*
X10388000Y-5041000D02*
X10498000Y-5151000D01*
X10498000Y-5041000D02*
X10388000Y-5151000D01*
X10498000Y-5096000D02*
G75*
G03*
X10498000Y-5096000I-55000J0D01*
G01*
D11*
X10488000Y-5131000D02*
X10488000Y-5061000D01*
X10398000Y-5131000D02*
X10398000Y-5061000D01*
X10488000Y-5061000D02*
G75*
G03*
X10398000Y-5061000I-45000J0D01*
G01*
X10398000Y-5131000D02*
G75*
G03*
X10488000Y-5131000I45000J0D01*
G01*
D17*
X10388000Y-10756000D02*
X10498000Y-10866000D01*
X10498000Y-10756000D02*
X10388000Y-10866000D01*
X10498000Y-10811000D02*
G75*
G03*
X10498000Y-10811000I-55000J0D01*
G01*
D11*
X10488000Y-10846000D02*
X10488000Y-10776000D01*
X10398000Y-10846000D02*
X10398000Y-10776000D01*
X10488000Y-10776000D02*
G75*
G03*
X10398000Y-10776000I-45000J0D01*
G01*
X10398000Y-10846000D02*
G75*
G03*
X10488000Y-10846000I45000J0D01*
G01*
D17*
X10388000Y-16475000D02*
X10498000Y-16585000D01*
X10498000Y-16475000D02*
X10388000Y-16585000D01*
X10498000Y-16530000D02*
G75*
G03*
X10498000Y-16530000I-55000J0D01*
G01*
D11*
X10488000Y-16565000D02*
X10488000Y-16495000D01*
X10398000Y-16565000D02*
X10398000Y-16495000D01*
X10488000Y-16495000D02*
G75*
G03*
X10398000Y-16495000I-45000J0D01*
G01*
X10398000Y-16565000D02*
G75*
G03*
X10488000Y-16565000I45000J0D01*
G01*
D17*
X11338000Y-5041000D02*
X11448000Y-5151000D01*
X11448000Y-5041000D02*
X11338000Y-5151000D01*
X11448000Y-5096000D02*
G75*
G03*
X11448000Y-5096000I-55000J0D01*
G01*
D11*
X11438000Y-5131000D02*
X11438000Y-5061000D01*
X11348000Y-5131000D02*
X11348000Y-5061000D01*
X11438000Y-5061000D02*
G75*
G03*
X11348000Y-5061000I-45000J0D01*
G01*
X11348000Y-5131000D02*
G75*
G03*
X11438000Y-5131000I45000J0D01*
G01*
D17*
X11338000Y-10756000D02*
X11448000Y-10866000D01*
X11448000Y-10756000D02*
X11338000Y-10866000D01*
X11448000Y-10811000D02*
G75*
G03*
X11448000Y-10811000I-55000J0D01*
G01*
D11*
X11438000Y-10846000D02*
X11438000Y-10776000D01*
X11348000Y-10846000D02*
X11348000Y-10776000D01*
X11438000Y-10776000D02*
G75*
G03*
X11348000Y-10776000I-45000J0D01*
G01*
X11348000Y-10846000D02*
G75*
G03*
X11438000Y-10846000I45000J0D01*
G01*
D17*
X11338000Y-16475000D02*
X11448000Y-16585000D01*
X11448000Y-16475000D02*
X11338000Y-16585000D01*
X11448000Y-16530000D02*
G75*
G03*
X11448000Y-16530000I-55000J0D01*
G01*
D11*
X11438000Y-16565000D02*
X11438000Y-16495000D01*
X11348000Y-16565000D02*
X11348000Y-16495000D01*
X11438000Y-16495000D02*
G75*
G03*
X11348000Y-16495000I-45000J0D01*
G01*
X11348000Y-16565000D02*
G75*
G03*
X11438000Y-16565000I45000J0D01*
G01*
D18*
X8830500Y-12005500D02*
X8949500Y-12124500D01*
X8949500Y-12005500D02*
X8830500Y-12124500D01*
X8890000Y-12005500D02*
X8890000Y-12124500D01*
X8830500Y-12065000D02*
X8949500Y-12065000D01*
X8830500Y-12259500D02*
X8949500Y-12378500D01*
X8949500Y-12259500D02*
X8830500Y-12378500D01*
X8890000Y-12259500D02*
X8890000Y-12378500D01*
X8830500Y-12319000D02*
X8949500Y-12319000D01*
X8830500Y-12513500D02*
X8949500Y-12632500D01*
X8949500Y-12513500D02*
X8830500Y-12632500D01*
X8890000Y-12513500D02*
X8890000Y-12632500D01*
X8830500Y-12573000D02*
X8949500Y-12573000D01*
X8830500Y-12767500D02*
X8949500Y-12886500D01*
X8949500Y-12767500D02*
X8830500Y-12886500D01*
X8890000Y-12767500D02*
X8890000Y-12886500D01*
X8830500Y-12827000D02*
X8949500Y-12827000D01*
X8830500Y-13021500D02*
X8949500Y-13140500D01*
X8949500Y-13021500D02*
X8830500Y-13140500D01*
X8890000Y-13021500D02*
X8890000Y-13140500D01*
X8830500Y-13081000D02*
X8949500Y-13081000D01*
X8830500Y-13275500D02*
X8949500Y-13394500D01*
X8949500Y-13275500D02*
X8830500Y-13394500D01*
X8890000Y-13275500D02*
X8890000Y-13394500D01*
X8830500Y-13335000D02*
X8949500Y-13335000D01*
X8830500Y-13529500D02*
X8949500Y-13648500D01*
X8949500Y-13529500D02*
X8830500Y-13648500D01*
X8890000Y-13529500D02*
X8890000Y-13648500D01*
X8830500Y-13589000D02*
X8949500Y-13589000D01*
X8830500Y-13783500D02*
X8949500Y-13902500D01*
X8949500Y-13783500D02*
X8830500Y-13902500D01*
X8890000Y-13783500D02*
X8890000Y-13902500D01*
X8830500Y-13843000D02*
X8949500Y-13843000D01*
X12767500Y-11688000D02*
X12886500Y-11807000D01*
X12886500Y-11688000D02*
X12767500Y-11807000D01*
X12827000Y-11688000D02*
X12827000Y-11807000D01*
X12767500Y-11747500D02*
X12886500Y-11747500D01*
X12767500Y-11942000D02*
X12886500Y-12061000D01*
X12886500Y-11942000D02*
X12767500Y-12061000D01*
X12827000Y-11942000D02*
X12827000Y-12061000D01*
X12767500Y-12001500D02*
X12886500Y-12001500D01*
X12767500Y-12196000D02*
X12886500Y-12315000D01*
X12886500Y-12196000D02*
X12767500Y-12315000D01*
X12827000Y-12196000D02*
X12827000Y-12315000D01*
X12767500Y-12255500D02*
X12886500Y-12255500D01*
X12767500Y-12450000D02*
X12886500Y-12569000D01*
X12886500Y-12450000D02*
X12767500Y-12569000D01*
X12827000Y-12450000D02*
X12827000Y-12569000D01*
X12767500Y-12509500D02*
X12886500Y-12509500D01*
X12767500Y-17530000D02*
X12886500Y-17649000D01*
X12886500Y-17530000D02*
X12767500Y-17649000D01*
X12827000Y-17530000D02*
X12827000Y-17649000D01*
X12767500Y-17589500D02*
X12886500Y-17589500D01*
X12767500Y-17784000D02*
X12886500Y-17903000D01*
X12886500Y-17784000D02*
X12767500Y-17903000D01*
X12827000Y-17784000D02*
X12827000Y-17903000D01*
X12767500Y-17843500D02*
X12886500Y-17843500D01*
X12767500Y-18038000D02*
X12886500Y-18157000D01*
X12886500Y-18038000D02*
X12767500Y-18157000D01*
X12827000Y-18038000D02*
X12827000Y-18157000D01*
X12767500Y-18097500D02*
X12886500Y-18097500D01*
X12767500Y-18292000D02*
X12886500Y-18411000D01*
X12886500Y-18292000D02*
X12767500Y-18411000D01*
X12827000Y-18292000D02*
X12827000Y-18411000D01*
X12767500Y-18351500D02*
X12886500Y-18351500D01*
X12767500Y-18546000D02*
X12886500Y-18665000D01*
X12886500Y-18546000D02*
X12767500Y-18665000D01*
X12827000Y-18546000D02*
X12827000Y-18665000D01*
X12767500Y-18605500D02*
X12886500Y-18605500D01*
X12767500Y-18800000D02*
X12886500Y-18919000D01*
X12886500Y-18800000D02*
X12767500Y-18919000D01*
X12827000Y-18800000D02*
X12827000Y-18919000D01*
X12767500Y-18859500D02*
X12886500Y-18859500D01*
X12767500Y-19054000D02*
X12886500Y-19173000D01*
X12886500Y-19054000D02*
X12767500Y-19173000D01*
X12827000Y-19054000D02*
X12827000Y-19173000D01*
X12767500Y-19113500D02*
X12886500Y-19113500D01*
D19*
X9000500Y-21662500D02*
X9185500Y-21847500D01*
X9185500Y-21662500D02*
X9000500Y-21847500D01*
X9158408Y-21820408D02*
X9158408Y-21689592D01*
X9027592Y-21689592D01*
X9027592Y-21820408D01*
X9158408Y-21820408D01*
X9000500Y-22132500D02*
X9185500Y-22317500D01*
X9185500Y-22132500D02*
X9000500Y-22317500D01*
X9158408Y-22290408D02*
X9158408Y-22159592D01*
X9027592Y-22159592D01*
X9027592Y-22290408D01*
X9158408Y-22290408D01*
X9000500Y-22602500D02*
X9185500Y-22787500D01*
X9185500Y-22602500D02*
X9000500Y-22787500D01*
X9158408Y-22760408D02*
X9158408Y-22629592D01*
X9027592Y-22629592D01*
X9027592Y-22760408D01*
X9158408Y-22760408D01*
X9483500Y-21662500D02*
X9668500Y-21847500D01*
X9668500Y-21662500D02*
X9483500Y-21847500D01*
X9641408Y-21820408D02*
X9641408Y-21689592D01*
X9510592Y-21689592D01*
X9510592Y-21820408D01*
X9641408Y-21820408D01*
X9483500Y-22132500D02*
X9668500Y-22317500D01*
X9668500Y-22132500D02*
X9483500Y-22317500D01*
X9641408Y-22290408D02*
X9641408Y-22159592D01*
X9510592Y-22159592D01*
X9510592Y-22290408D01*
X9641408Y-22290408D01*
X9483500Y-22602500D02*
X9668500Y-22787500D01*
X9668500Y-22602500D02*
X9483500Y-22787500D01*
X9641408Y-22760408D02*
X9641408Y-22629592D01*
X9510592Y-22629592D01*
X9510592Y-22760408D01*
X9641408Y-22760408D01*
X12175500Y-21662500D02*
X12360500Y-21847500D01*
X12360500Y-21662500D02*
X12175500Y-21847500D01*
X12333408Y-21820408D02*
X12333408Y-21689592D01*
X12202592Y-21689592D01*
X12202592Y-21820408D01*
X12333408Y-21820408D01*
X12175500Y-22132500D02*
X12360500Y-22317500D01*
X12360500Y-22132500D02*
X12175500Y-22317500D01*
X12333408Y-22290408D02*
X12333408Y-22159592D01*
X12202592Y-22159592D01*
X12202592Y-22290408D01*
X12333408Y-22290408D01*
X12175500Y-22602500D02*
X12360500Y-22787500D01*
X12360500Y-22602500D02*
X12175500Y-22787500D01*
X12333408Y-22760408D02*
X12333408Y-22629592D01*
X12202592Y-22629592D01*
X12202592Y-22760408D01*
X12333408Y-22760408D01*
X12658500Y-21662500D02*
X12843500Y-21847500D01*
X12843500Y-21662500D02*
X12658500Y-21847500D01*
X12816408Y-21820408D02*
X12816408Y-21689592D01*
X12685592Y-21689592D01*
X12685592Y-21820408D01*
X12816408Y-21820408D01*
X12658500Y-22132500D02*
X12843500Y-22317500D01*
X12843500Y-22132500D02*
X12658500Y-22317500D01*
X12816408Y-22290408D02*
X12816408Y-22159592D01*
X12685592Y-22159592D01*
X12685592Y-22290408D01*
X12816408Y-22290408D01*
X12658500Y-22602500D02*
X12843500Y-22787500D01*
X12843500Y-22602500D02*
X12658500Y-22787500D01*
X12816408Y-22760408D02*
X12816408Y-22629592D01*
X12685592Y-22629592D01*
X12685592Y-22760408D01*
X12816408Y-22760408D01*
D11*
X8507619Y-23302476D02*
X8507619Y-23102476D01*
X8555238Y-23102476D01*
X8583810Y-23112000D01*
X8602857Y-23131048D01*
X8612381Y-23150095D01*
X8621905Y-23188190D01*
X8621905Y-23216762D01*
X8612381Y-23254857D01*
X8602857Y-23273905D01*
X8583810Y-23292952D01*
X8555238Y-23302476D01*
X8507619Y-23302476D01*
X8707619Y-23302476D02*
X8707619Y-23169143D01*
X8707619Y-23207238D02*
X8717143Y-23188190D01*
X8726667Y-23178667D01*
X8745714Y-23169143D01*
X8764762Y-23169143D01*
X8831429Y-23302476D02*
X8831429Y-23169143D01*
X8831429Y-23102476D02*
X8821905Y-23112000D01*
X8831429Y-23121524D01*
X8840952Y-23112000D01*
X8831429Y-23102476D01*
X8831429Y-23121524D01*
X8955238Y-23302476D02*
X8936190Y-23292952D01*
X8926667Y-23273905D01*
X8926667Y-23102476D01*
X9060000Y-23302476D02*
X9040952Y-23292952D01*
X9031429Y-23273905D01*
X9031429Y-23102476D01*
X9288571Y-23302476D02*
X9288571Y-23102476D01*
X9355238Y-23245333D01*
X9421905Y-23102476D01*
X9421905Y-23302476D01*
X9602857Y-23302476D02*
X9602857Y-23197714D01*
X9593333Y-23178667D01*
X9574286Y-23169143D01*
X9536190Y-23169143D01*
X9517143Y-23178667D01*
X9602857Y-23292952D02*
X9583810Y-23302476D01*
X9536190Y-23302476D01*
X9517143Y-23292952D01*
X9507619Y-23273905D01*
X9507619Y-23254857D01*
X9517143Y-23235809D01*
X9536190Y-23226286D01*
X9583810Y-23226286D01*
X9602857Y-23216762D01*
X9698095Y-23169143D02*
X9698095Y-23369143D01*
X9698095Y-23178667D02*
X9717143Y-23169143D01*
X9755238Y-23169143D01*
X9774286Y-23178667D01*
X9783810Y-23188190D01*
X9793333Y-23207238D01*
X9793333Y-23264381D01*
X9783810Y-23283428D01*
X9774286Y-23292952D01*
X9755238Y-23302476D01*
X9717143Y-23302476D01*
X9698095Y-23292952D01*
X9879048Y-23283428D02*
X9888571Y-23292952D01*
X9879048Y-23302476D01*
X9869524Y-23292952D01*
X9879048Y-23283428D01*
X9879048Y-23302476D01*
X9879048Y-23178667D02*
X9888571Y-23188190D01*
X9879048Y-23197714D01*
X9869524Y-23188190D01*
X9879048Y-23178667D01*
X9879048Y-23197714D01*
D12*
X8210000Y-23612000D02*
X8250000Y-23652000D01*
X8250000Y-23612000D02*
X8210000Y-23652000D01*
D11*
X8545714Y-23522476D02*
X8564762Y-23522476D01*
X8583810Y-23532000D01*
X8593333Y-23541524D01*
X8602857Y-23560571D01*
X8612381Y-23598667D01*
X8612381Y-23646286D01*
X8602857Y-23684381D01*
X8593333Y-23703428D01*
X8583810Y-23712952D01*
X8564762Y-23722476D01*
X8545714Y-23722476D01*
X8526667Y-23712952D01*
X8517143Y-23703428D01*
X8507619Y-23684381D01*
X8498095Y-23646286D01*
X8498095Y-23598667D01*
X8507619Y-23560571D01*
X8517143Y-23541524D01*
X8526667Y-23532000D01*
X8545714Y-23522476D01*
X8698095Y-23703428D02*
X8707619Y-23712952D01*
X8698095Y-23722476D01*
X8688571Y-23712952D01*
X8698095Y-23703428D01*
X8698095Y-23722476D01*
X8879048Y-23589143D02*
X8879048Y-23722476D01*
X8831429Y-23512952D02*
X8783810Y-23655809D01*
X8907619Y-23655809D01*
X9021905Y-23522476D02*
X9040952Y-23522476D01*
X9060000Y-23532000D01*
X9069524Y-23541524D01*
X9079048Y-23560571D01*
X9088571Y-23598667D01*
X9088571Y-23646286D01*
X9079048Y-23684381D01*
X9069524Y-23703428D01*
X9060000Y-23712952D01*
X9040952Y-23722476D01*
X9021905Y-23722476D01*
X9002857Y-23712952D01*
X8993333Y-23703428D01*
X8983810Y-23684381D01*
X8974286Y-23646286D01*
X8974286Y-23598667D01*
X8983810Y-23560571D01*
X8993333Y-23541524D01*
X9002857Y-23532000D01*
X9021905Y-23522476D01*
X9212381Y-23522476D02*
X9231429Y-23522476D01*
X9250476Y-23532000D01*
X9260000Y-23541524D01*
X9269524Y-23560571D01*
X9279048Y-23598667D01*
X9279048Y-23646286D01*
X9269524Y-23684381D01*
X9260000Y-23703428D01*
X9250476Y-23712952D01*
X9231429Y-23722476D01*
X9212381Y-23722476D01*
X9193333Y-23712952D01*
X9183810Y-23703428D01*
X9174286Y-23684381D01*
X9164762Y-23646286D01*
X9164762Y-23598667D01*
X9174286Y-23560571D01*
X9183810Y-23541524D01*
X9193333Y-23532000D01*
X9212381Y-23522476D01*
X9364762Y-23722476D02*
X9364762Y-23589143D01*
X9364762Y-23608190D02*
X9374286Y-23598667D01*
X9393333Y-23589143D01*
X9421905Y-23589143D01*
X9440952Y-23598667D01*
X9450476Y-23617714D01*
X9450476Y-23722476D01*
X9450476Y-23617714D02*
X9460000Y-23598667D01*
X9479048Y-23589143D01*
X9507619Y-23589143D01*
X9526667Y-23598667D01*
X9536190Y-23617714D01*
X9536190Y-23722476D01*
X9631429Y-23722476D02*
X9631429Y-23589143D01*
X9631429Y-23608190D02*
X9640952Y-23598667D01*
X9660000Y-23589143D01*
X9688571Y-23589143D01*
X9707619Y-23598667D01*
X9717143Y-23617714D01*
X9717143Y-23722476D01*
X9717143Y-23617714D02*
X9726667Y-23598667D01*
X9745714Y-23589143D01*
X9774286Y-23589143D01*
X9793333Y-23598667D01*
X9802857Y-23617714D01*
X9802857Y-23722476D01*
X10193333Y-23512952D02*
X10021905Y-23770095D01*
X10450476Y-23522476D02*
X10469524Y-23522476D01*
X10488571Y-23532000D01*
X10498095Y-23541524D01*
X10507619Y-23560571D01*
X10517143Y-23598667D01*
X10517143Y-23646286D01*
X10507619Y-23684381D01*
X10498095Y-23703428D01*
X10488571Y-23712952D01*
X10469524Y-23722476D01*
X10450476Y-23722476D01*
X10431429Y-23712952D01*
X10421905Y-23703428D01*
X10412381Y-23684381D01*
X10402857Y-23646286D01*
X10402857Y-23598667D01*
X10412381Y-23560571D01*
X10421905Y-23541524D01*
X10431429Y-23532000D01*
X10450476Y-23522476D01*
X10602857Y-23703428D02*
X10612381Y-23712952D01*
X10602857Y-23722476D01*
X10593333Y-23712952D01*
X10602857Y-23703428D01*
X10602857Y-23722476D01*
X10736190Y-23522476D02*
X10755238Y-23522476D01*
X10774286Y-23532000D01*
X10783810Y-23541524D01*
X10793333Y-23560571D01*
X10802857Y-23598667D01*
X10802857Y-23646286D01*
X10793333Y-23684381D01*
X10783810Y-23703428D01*
X10774286Y-23712952D01*
X10755238Y-23722476D01*
X10736190Y-23722476D01*
X10717143Y-23712952D01*
X10707619Y-23703428D01*
X10698095Y-23684381D01*
X10688571Y-23646286D01*
X10688571Y-23598667D01*
X10698095Y-23560571D01*
X10707619Y-23541524D01*
X10717143Y-23532000D01*
X10736190Y-23522476D01*
X10993333Y-23722476D02*
X10879048Y-23722476D01*
X10936190Y-23722476D02*
X10936190Y-23522476D01*
X10917143Y-23551048D01*
X10898095Y-23570095D01*
X10879048Y-23579619D01*
X11174286Y-23522476D02*
X11079048Y-23522476D01*
X11069524Y-23617714D01*
X11079048Y-23608190D01*
X11098095Y-23598667D01*
X11145714Y-23598667D01*
X11164762Y-23608190D01*
X11174286Y-23617714D01*
X11183810Y-23636762D01*
X11183810Y-23684381D01*
X11174286Y-23703428D01*
X11164762Y-23712952D01*
X11145714Y-23722476D01*
X11098095Y-23722476D01*
X11079048Y-23712952D01*
X11069524Y-23703428D01*
X11250476Y-23522476D02*
X11383809Y-23522476D01*
X11298095Y-23722476D01*
X11450476Y-23522476D02*
X11450476Y-23560571D01*
X11526667Y-23522476D02*
X11526667Y-23560571D01*
X11821905Y-23798667D02*
X11812381Y-23789143D01*
X11793333Y-23760571D01*
X11783809Y-23741524D01*
X11774286Y-23712952D01*
X11764762Y-23665333D01*
X11764762Y-23627238D01*
X11774286Y-23579619D01*
X11783809Y-23551048D01*
X11793333Y-23532000D01*
X11812381Y-23503428D01*
X11821905Y-23493905D01*
X11993333Y-23522476D02*
X11898095Y-23522476D01*
X11888571Y-23617714D01*
X11898095Y-23608190D01*
X11917143Y-23598667D01*
X11964762Y-23598667D01*
X11983809Y-23608190D01*
X11993333Y-23617714D01*
X12002857Y-23636762D01*
X12002857Y-23684381D01*
X11993333Y-23703428D01*
X11983809Y-23712952D01*
X11964762Y-23722476D01*
X11917143Y-23722476D01*
X11898095Y-23712952D01*
X11888571Y-23703428D01*
X12240952Y-23722476D02*
X12240952Y-23522476D01*
X12326667Y-23722476D02*
X12326667Y-23617714D01*
X12317143Y-23598667D01*
X12298095Y-23589143D01*
X12269524Y-23589143D01*
X12250476Y-23598667D01*
X12240952Y-23608190D01*
X12450476Y-23722476D02*
X12431428Y-23712952D01*
X12421905Y-23703428D01*
X12412381Y-23684381D01*
X12412381Y-23627238D01*
X12421905Y-23608190D01*
X12431428Y-23598667D01*
X12450476Y-23589143D01*
X12479048Y-23589143D01*
X12498095Y-23598667D01*
X12507619Y-23608190D01*
X12517143Y-23627238D01*
X12517143Y-23684381D01*
X12507619Y-23703428D01*
X12498095Y-23712952D01*
X12479048Y-23722476D01*
X12450476Y-23722476D01*
X12631428Y-23722476D02*
X12612381Y-23712952D01*
X12602857Y-23693905D01*
X12602857Y-23522476D01*
X12783809Y-23712952D02*
X12764762Y-23722476D01*
X12726667Y-23722476D01*
X12707619Y-23712952D01*
X12698095Y-23693905D01*
X12698095Y-23617714D01*
X12707619Y-23598667D01*
X12726667Y-23589143D01*
X12764762Y-23589143D01*
X12783809Y-23598667D01*
X12793333Y-23617714D01*
X12793333Y-23636762D01*
X12698095Y-23655809D01*
X12869524Y-23712952D02*
X12888571Y-23722476D01*
X12926667Y-23722476D01*
X12945714Y-23712952D01*
X12955238Y-23693905D01*
X12955238Y-23684381D01*
X12945714Y-23665333D01*
X12926667Y-23655809D01*
X12898095Y-23655809D01*
X12879048Y-23646286D01*
X12869524Y-23627238D01*
X12869524Y-23617714D01*
X12879048Y-23598667D01*
X12898095Y-23589143D01*
X12926667Y-23589143D01*
X12945714Y-23598667D01*
X13021905Y-23798667D02*
X13031428Y-23789143D01*
X13050476Y-23760571D01*
X13060000Y-23741524D01*
X13069524Y-23712952D01*
X13079048Y-23665333D01*
X13079048Y-23627238D01*
X13069524Y-23579619D01*
X13060000Y-23551048D01*
X13050476Y-23532000D01*
X13031428Y-23503428D01*
X13021905Y-23493905D01*
D13*
X8250000Y-23896000D02*
G75*
G03*
X8250000Y-23896000I-25000J0D01*
G01*
D11*
X8545714Y-23786476D02*
X8564762Y-23786476D01*
X8583810Y-23796000D01*
X8593333Y-23805524D01*
X8602857Y-23824571D01*
X8612381Y-23862667D01*
X8612381Y-23910286D01*
X8602857Y-23948381D01*
X8593333Y-23967428D01*
X8583810Y-23976952D01*
X8564762Y-23986476D01*
X8545714Y-23986476D01*
X8526667Y-23976952D01*
X8517143Y-23967428D01*
X8507619Y-23948381D01*
X8498095Y-23910286D01*
X8498095Y-23862667D01*
X8507619Y-23824571D01*
X8517143Y-23805524D01*
X8526667Y-23796000D01*
X8545714Y-23786476D01*
X8698095Y-23967428D02*
X8707619Y-23976952D01*
X8698095Y-23986476D01*
X8688571Y-23976952D01*
X8698095Y-23967428D01*
X8698095Y-23986476D01*
X8888571Y-23786476D02*
X8793333Y-23786476D01*
X8783810Y-23881714D01*
X8793333Y-23872190D01*
X8812381Y-23862667D01*
X8860000Y-23862667D01*
X8879048Y-23872190D01*
X8888571Y-23881714D01*
X8898095Y-23900762D01*
X8898095Y-23948381D01*
X8888571Y-23967428D01*
X8879048Y-23976952D01*
X8860000Y-23986476D01*
X8812381Y-23986476D01*
X8793333Y-23976952D01*
X8783810Y-23967428D01*
X9021905Y-23786476D02*
X9040952Y-23786476D01*
X9060000Y-23796000D01*
X9069524Y-23805524D01*
X9079048Y-23824571D01*
X9088571Y-23862667D01*
X9088571Y-23910286D01*
X9079048Y-23948381D01*
X9069524Y-23967428D01*
X9060000Y-23976952D01*
X9040952Y-23986476D01*
X9021905Y-23986476D01*
X9002857Y-23976952D01*
X8993333Y-23967428D01*
X8983810Y-23948381D01*
X8974286Y-23910286D01*
X8974286Y-23862667D01*
X8983810Y-23824571D01*
X8993333Y-23805524D01*
X9002857Y-23796000D01*
X9021905Y-23786476D01*
X9212381Y-23786476D02*
X9231429Y-23786476D01*
X9250476Y-23796000D01*
X9260000Y-23805524D01*
X9269524Y-23824571D01*
X9279048Y-23862667D01*
X9279048Y-23910286D01*
X9269524Y-23948381D01*
X9260000Y-23967428D01*
X9250476Y-23976952D01*
X9231429Y-23986476D01*
X9212381Y-23986476D01*
X9193333Y-23976952D01*
X9183810Y-23967428D01*
X9174286Y-23948381D01*
X9164762Y-23910286D01*
X9164762Y-23862667D01*
X9174286Y-23824571D01*
X9183810Y-23805524D01*
X9193333Y-23796000D01*
X9212381Y-23786476D01*
X9364762Y-23986476D02*
X9364762Y-23853143D01*
X9364762Y-23872190D02*
X9374286Y-23862667D01*
X9393333Y-23853143D01*
X9421905Y-23853143D01*
X9440952Y-23862667D01*
X9450476Y-23881714D01*
X9450476Y-23986476D01*
X9450476Y-23881714D02*
X9460000Y-23862667D01*
X9479048Y-23853143D01*
X9507619Y-23853143D01*
X9526667Y-23862667D01*
X9536190Y-23881714D01*
X9536190Y-23986476D01*
X9631429Y-23986476D02*
X9631429Y-23853143D01*
X9631429Y-23872190D02*
X9640952Y-23862667D01*
X9660000Y-23853143D01*
X9688571Y-23853143D01*
X9707619Y-23862667D01*
X9717143Y-23881714D01*
X9717143Y-23986476D01*
X9717143Y-23881714D02*
X9726667Y-23862667D01*
X9745714Y-23853143D01*
X9774286Y-23853143D01*
X9793333Y-23862667D01*
X9802857Y-23881714D01*
X9802857Y-23986476D01*
X10193333Y-23776952D02*
X10021905Y-24034095D01*
X10450476Y-23786476D02*
X10469524Y-23786476D01*
X10488571Y-23796000D01*
X10498095Y-23805524D01*
X10507619Y-23824571D01*
X10517143Y-23862667D01*
X10517143Y-23910286D01*
X10507619Y-23948381D01*
X10498095Y-23967428D01*
X10488571Y-23976952D01*
X10469524Y-23986476D01*
X10450476Y-23986476D01*
X10431429Y-23976952D01*
X10421905Y-23967428D01*
X10412381Y-23948381D01*
X10402857Y-23910286D01*
X10402857Y-23862667D01*
X10412381Y-23824571D01*
X10421905Y-23805524D01*
X10431429Y-23796000D01*
X10450476Y-23786476D01*
X10602857Y-23967428D02*
X10612381Y-23976952D01*
X10602857Y-23986476D01*
X10593333Y-23976952D01*
X10602857Y-23967428D01*
X10602857Y-23986476D01*
X10736190Y-23786476D02*
X10755238Y-23786476D01*
X10774286Y-23796000D01*
X10783810Y-23805524D01*
X10793333Y-23824571D01*
X10802857Y-23862667D01*
X10802857Y-23910286D01*
X10793333Y-23948381D01*
X10783810Y-23967428D01*
X10774286Y-23976952D01*
X10755238Y-23986476D01*
X10736190Y-23986476D01*
X10717143Y-23976952D01*
X10707619Y-23967428D01*
X10698095Y-23948381D01*
X10688571Y-23910286D01*
X10688571Y-23862667D01*
X10698095Y-23824571D01*
X10707619Y-23805524D01*
X10717143Y-23796000D01*
X10736190Y-23786476D01*
X10993333Y-23986476D02*
X10879048Y-23986476D01*
X10936190Y-23986476D02*
X10936190Y-23786476D01*
X10917143Y-23815048D01*
X10898095Y-23834095D01*
X10879048Y-23843619D01*
X11088571Y-23986476D02*
X11126667Y-23986476D01*
X11145714Y-23976952D01*
X11155238Y-23967428D01*
X11174286Y-23938857D01*
X11183810Y-23900762D01*
X11183810Y-23824571D01*
X11174286Y-23805524D01*
X11164762Y-23796000D01*
X11145714Y-23786476D01*
X11107619Y-23786476D01*
X11088571Y-23796000D01*
X11079048Y-23805524D01*
X11069524Y-23824571D01*
X11069524Y-23872190D01*
X11079048Y-23891238D01*
X11088571Y-23900762D01*
X11107619Y-23910286D01*
X11145714Y-23910286D01*
X11164762Y-23900762D01*
X11174286Y-23891238D01*
X11183810Y-23872190D01*
X11250476Y-23786476D02*
X11383809Y-23786476D01*
X11298095Y-23986476D01*
X11450476Y-23786476D02*
X11450476Y-23824571D01*
X11526667Y-23786476D02*
X11526667Y-23824571D01*
X11821905Y-24062667D02*
X11812381Y-24053143D01*
X11793333Y-24024571D01*
X11783809Y-24005524D01*
X11774286Y-23976952D01*
X11764762Y-23929333D01*
X11764762Y-23891238D01*
X11774286Y-23843619D01*
X11783809Y-23815048D01*
X11793333Y-23796000D01*
X11812381Y-23767428D01*
X11821905Y-23757905D01*
X11993333Y-23786476D02*
X11898095Y-23786476D01*
X11888571Y-23881714D01*
X11898095Y-23872190D01*
X11917143Y-23862667D01*
X11964762Y-23862667D01*
X11983809Y-23872190D01*
X11993333Y-23881714D01*
X12002857Y-23900762D01*
X12002857Y-23948381D01*
X11993333Y-23967428D01*
X11983809Y-23976952D01*
X11964762Y-23986476D01*
X11917143Y-23986476D01*
X11898095Y-23976952D01*
X11888571Y-23967428D01*
X12174286Y-23853143D02*
X12174286Y-23986476D01*
X12126667Y-23776952D02*
X12079048Y-23919809D01*
X12202857Y-23919809D01*
X12431428Y-23986476D02*
X12431428Y-23786476D01*
X12517143Y-23986476D02*
X12517143Y-23881714D01*
X12507619Y-23862667D01*
X12488571Y-23853143D01*
X12460000Y-23853143D01*
X12440952Y-23862667D01*
X12431428Y-23872190D01*
X12640952Y-23986476D02*
X12621905Y-23976952D01*
X12612381Y-23967428D01*
X12602857Y-23948381D01*
X12602857Y-23891238D01*
X12612381Y-23872190D01*
X12621905Y-23862667D01*
X12640952Y-23853143D01*
X12669524Y-23853143D01*
X12688571Y-23862667D01*
X12698095Y-23872190D01*
X12707619Y-23891238D01*
X12707619Y-23948381D01*
X12698095Y-23967428D01*
X12688571Y-23976952D01*
X12669524Y-23986476D01*
X12640952Y-23986476D01*
X12821905Y-23986476D02*
X12802857Y-23976952D01*
X12793333Y-23957905D01*
X12793333Y-23786476D01*
X12974286Y-23976952D02*
X12955238Y-23986476D01*
X12917143Y-23986476D01*
X12898095Y-23976952D01*
X12888571Y-23957905D01*
X12888571Y-23881714D01*
X12898095Y-23862667D01*
X12917143Y-23853143D01*
X12955238Y-23853143D01*
X12974286Y-23862667D01*
X12983809Y-23881714D01*
X12983809Y-23900762D01*
X12888571Y-23919809D01*
X13060000Y-23976952D02*
X13079048Y-23986476D01*
X13117143Y-23986476D01*
X13136190Y-23976952D01*
X13145714Y-23957905D01*
X13145714Y-23948381D01*
X13136190Y-23929333D01*
X13117143Y-23919809D01*
X13088571Y-23919809D01*
X13069524Y-23910286D01*
X13060000Y-23891238D01*
X13060000Y-23881714D01*
X13069524Y-23862667D01*
X13088571Y-23853143D01*
X13117143Y-23853143D01*
X13136190Y-23862667D01*
X13212381Y-24062667D02*
X13221905Y-24053143D01*
X13240952Y-24024571D01*
X13250476Y-24005524D01*
X13260000Y-23976952D01*
X13269524Y-23929333D01*
X13269524Y-23891238D01*
X13260000Y-23843619D01*
X13250476Y-23815048D01*
X13240952Y-23796000D01*
X13221905Y-23767428D01*
X13212381Y-23757905D01*
D14*
X8210000Y-24120000D02*
X8210000Y-24200000D01*
X8170000Y-24160000D02*
X8250000Y-24160000D01*
D11*
X8545714Y-24050476D02*
X8564762Y-24050476D01*
X8583810Y-24060000D01*
X8593333Y-24069524D01*
X8602857Y-24088571D01*
X8612381Y-24126667D01*
X8612381Y-24174286D01*
X8602857Y-24212381D01*
X8593333Y-24231428D01*
X8583810Y-24240952D01*
X8564762Y-24250476D01*
X8545714Y-24250476D01*
X8526667Y-24240952D01*
X8517143Y-24231428D01*
X8507619Y-24212381D01*
X8498095Y-24174286D01*
X8498095Y-24126667D01*
X8507619Y-24088571D01*
X8517143Y-24069524D01*
X8526667Y-24060000D01*
X8545714Y-24050476D01*
X8698095Y-24231428D02*
X8707619Y-24240952D01*
X8698095Y-24250476D01*
X8688571Y-24240952D01*
X8698095Y-24231428D01*
X8698095Y-24250476D01*
X8821905Y-24136190D02*
X8802857Y-24126667D01*
X8793333Y-24117143D01*
X8783810Y-24098095D01*
X8783810Y-24088571D01*
X8793333Y-24069524D01*
X8802857Y-24060000D01*
X8821905Y-24050476D01*
X8860000Y-24050476D01*
X8879048Y-24060000D01*
X8888571Y-24069524D01*
X8898095Y-24088571D01*
X8898095Y-24098095D01*
X8888571Y-24117143D01*
X8879048Y-24126667D01*
X8860000Y-24136190D01*
X8821905Y-24136190D01*
X8802857Y-24145714D01*
X8793333Y-24155238D01*
X8783810Y-24174286D01*
X8783810Y-24212381D01*
X8793333Y-24231428D01*
X8802857Y-24240952D01*
X8821905Y-24250476D01*
X8860000Y-24250476D01*
X8879048Y-24240952D01*
X8888571Y-24231428D01*
X8898095Y-24212381D01*
X8898095Y-24174286D01*
X8888571Y-24155238D01*
X8879048Y-24145714D01*
X8860000Y-24136190D01*
X9021905Y-24050476D02*
X9040952Y-24050476D01*
X9060000Y-24060000D01*
X9069524Y-24069524D01*
X9079048Y-24088571D01*
X9088571Y-24126667D01*
X9088571Y-24174286D01*
X9079048Y-24212381D01*
X9069524Y-24231428D01*
X9060000Y-24240952D01*
X9040952Y-24250476D01*
X9021905Y-24250476D01*
X9002857Y-24240952D01*
X8993333Y-24231428D01*
X8983810Y-24212381D01*
X8974286Y-24174286D01*
X8974286Y-24126667D01*
X8983810Y-24088571D01*
X8993333Y-24069524D01*
X9002857Y-24060000D01*
X9021905Y-24050476D01*
X9212381Y-24050476D02*
X9231429Y-24050476D01*
X9250476Y-24060000D01*
X9260000Y-24069524D01*
X9269524Y-24088571D01*
X9279048Y-24126667D01*
X9279048Y-24174286D01*
X9269524Y-24212381D01*
X9260000Y-24231428D01*
X9250476Y-24240952D01*
X9231429Y-24250476D01*
X9212381Y-24250476D01*
X9193333Y-24240952D01*
X9183810Y-24231428D01*
X9174286Y-24212381D01*
X9164762Y-24174286D01*
X9164762Y-24126667D01*
X9174286Y-24088571D01*
X9183810Y-24069524D01*
X9193333Y-24060000D01*
X9212381Y-24050476D01*
X9364762Y-24250476D02*
X9364762Y-24117143D01*
X9364762Y-24136190D02*
X9374286Y-24126667D01*
X9393333Y-24117143D01*
X9421905Y-24117143D01*
X9440952Y-24126667D01*
X9450476Y-24145714D01*
X9450476Y-24250476D01*
X9450476Y-24145714D02*
X9460000Y-24126667D01*
X9479048Y-24117143D01*
X9507619Y-24117143D01*
X9526667Y-24126667D01*
X9536190Y-24145714D01*
X9536190Y-24250476D01*
X9631429Y-24250476D02*
X9631429Y-24117143D01*
X9631429Y-24136190D02*
X9640952Y-24126667D01*
X9660000Y-24117143D01*
X9688571Y-24117143D01*
X9707619Y-24126667D01*
X9717143Y-24145714D01*
X9717143Y-24250476D01*
X9717143Y-24145714D02*
X9726667Y-24126667D01*
X9745714Y-24117143D01*
X9774286Y-24117143D01*
X9793333Y-24126667D01*
X9802857Y-24145714D01*
X9802857Y-24250476D01*
X10193333Y-24040952D02*
X10021905Y-24298095D01*
X10450476Y-24050476D02*
X10469524Y-24050476D01*
X10488571Y-24060000D01*
X10498095Y-24069524D01*
X10507619Y-24088571D01*
X10517143Y-24126667D01*
X10517143Y-24174286D01*
X10507619Y-24212381D01*
X10498095Y-24231428D01*
X10488571Y-24240952D01*
X10469524Y-24250476D01*
X10450476Y-24250476D01*
X10431429Y-24240952D01*
X10421905Y-24231428D01*
X10412381Y-24212381D01*
X10402857Y-24174286D01*
X10402857Y-24126667D01*
X10412381Y-24088571D01*
X10421905Y-24069524D01*
X10431429Y-24060000D01*
X10450476Y-24050476D01*
X10602857Y-24231428D02*
X10612381Y-24240952D01*
X10602857Y-24250476D01*
X10593333Y-24240952D01*
X10602857Y-24231428D01*
X10602857Y-24250476D01*
X10736190Y-24050476D02*
X10755238Y-24050476D01*
X10774286Y-24060000D01*
X10783810Y-24069524D01*
X10793333Y-24088571D01*
X10802857Y-24126667D01*
X10802857Y-24174286D01*
X10793333Y-24212381D01*
X10783810Y-24231428D01*
X10774286Y-24240952D01*
X10755238Y-24250476D01*
X10736190Y-24250476D01*
X10717143Y-24240952D01*
X10707619Y-24231428D01*
X10698095Y-24212381D01*
X10688571Y-24174286D01*
X10688571Y-24126667D01*
X10698095Y-24088571D01*
X10707619Y-24069524D01*
X10717143Y-24060000D01*
X10736190Y-24050476D01*
X10869524Y-24050476D02*
X10993333Y-24050476D01*
X10926667Y-24126667D01*
X10955238Y-24126667D01*
X10974286Y-24136190D01*
X10983810Y-24145714D01*
X10993333Y-24164762D01*
X10993333Y-24212381D01*
X10983810Y-24231428D01*
X10974286Y-24240952D01*
X10955238Y-24250476D01*
X10898095Y-24250476D01*
X10879048Y-24240952D01*
X10869524Y-24231428D01*
X11183810Y-24250476D02*
X11069524Y-24250476D01*
X11126667Y-24250476D02*
X11126667Y-24050476D01*
X11107619Y-24079048D01*
X11088571Y-24098095D01*
X11069524Y-24107619D01*
X11364762Y-24050476D02*
X11269524Y-24050476D01*
X11260000Y-24145714D01*
X11269524Y-24136190D01*
X11288571Y-24126667D01*
X11336190Y-24126667D01*
X11355238Y-24136190D01*
X11364762Y-24145714D01*
X11374286Y-24164762D01*
X11374286Y-24212381D01*
X11364762Y-24231428D01*
X11355238Y-24240952D01*
X11336190Y-24250476D01*
X11288571Y-24250476D01*
X11269524Y-24240952D01*
X11260000Y-24231428D01*
X11450476Y-24050476D02*
X11450476Y-24088571D01*
X11526667Y-24050476D02*
X11526667Y-24088571D01*
X11821905Y-24326667D02*
X11812381Y-24317143D01*
X11793333Y-24288571D01*
X11783809Y-24269524D01*
X11774286Y-24240952D01*
X11764762Y-24193333D01*
X11764762Y-24155238D01*
X11774286Y-24107619D01*
X11783809Y-24079048D01*
X11793333Y-24060000D01*
X11812381Y-24031428D01*
X11821905Y-24021905D01*
X11926667Y-24136190D02*
X11907619Y-24126667D01*
X11898095Y-24117143D01*
X11888571Y-24098095D01*
X11888571Y-24088571D01*
X11898095Y-24069524D01*
X11907619Y-24060000D01*
X11926667Y-24050476D01*
X11964762Y-24050476D01*
X11983809Y-24060000D01*
X11993333Y-24069524D01*
X12002857Y-24088571D01*
X12002857Y-24098095D01*
X11993333Y-24117143D01*
X11983809Y-24126667D01*
X11964762Y-24136190D01*
X11926667Y-24136190D01*
X11907619Y-24145714D01*
X11898095Y-24155238D01*
X11888571Y-24174286D01*
X11888571Y-24212381D01*
X11898095Y-24231428D01*
X11907619Y-24240952D01*
X11926667Y-24250476D01*
X11964762Y-24250476D01*
X11983809Y-24240952D01*
X11993333Y-24231428D01*
X12002857Y-24212381D01*
X12002857Y-24174286D01*
X11993333Y-24155238D01*
X11983809Y-24145714D01*
X11964762Y-24136190D01*
X12079048Y-24069524D02*
X12088571Y-24060000D01*
X12107619Y-24050476D01*
X12155238Y-24050476D01*
X12174286Y-24060000D01*
X12183809Y-24069524D01*
X12193333Y-24088571D01*
X12193333Y-24107619D01*
X12183809Y-24136190D01*
X12069524Y-24250476D01*
X12193333Y-24250476D01*
X12431428Y-24250476D02*
X12431428Y-24050476D01*
X12517143Y-24250476D02*
X12517143Y-24145714D01*
X12507619Y-24126667D01*
X12488571Y-24117143D01*
X12460000Y-24117143D01*
X12440952Y-24126667D01*
X12431428Y-24136190D01*
X12640952Y-24250476D02*
X12621905Y-24240952D01*
X12612381Y-24231428D01*
X12602857Y-24212381D01*
X12602857Y-24155238D01*
X12612381Y-24136190D01*
X12621905Y-24126667D01*
X12640952Y-24117143D01*
X12669524Y-24117143D01*
X12688571Y-24126667D01*
X12698095Y-24136190D01*
X12707619Y-24155238D01*
X12707619Y-24212381D01*
X12698095Y-24231428D01*
X12688571Y-24240952D01*
X12669524Y-24250476D01*
X12640952Y-24250476D01*
X12821905Y-24250476D02*
X12802857Y-24240952D01*
X12793333Y-24221905D01*
X12793333Y-24050476D01*
X12974286Y-24240952D02*
X12955238Y-24250476D01*
X12917143Y-24250476D01*
X12898095Y-24240952D01*
X12888571Y-24221905D01*
X12888571Y-24145714D01*
X12898095Y-24126667D01*
X12917143Y-24117143D01*
X12955238Y-24117143D01*
X12974286Y-24126667D01*
X12983809Y-24145714D01*
X12983809Y-24164762D01*
X12888571Y-24183809D01*
X13060000Y-24240952D02*
X13079048Y-24250476D01*
X13117143Y-24250476D01*
X13136190Y-24240952D01*
X13145714Y-24221905D01*
X13145714Y-24212381D01*
X13136190Y-24193333D01*
X13117143Y-24183809D01*
X13088571Y-24183809D01*
X13069524Y-24174286D01*
X13060000Y-24155238D01*
X13060000Y-24145714D01*
X13069524Y-24126667D01*
X13088571Y-24117143D01*
X13117143Y-24117143D01*
X13136190Y-24126667D01*
X13212381Y-24326667D02*
X13221905Y-24317143D01*
X13240952Y-24288571D01*
X13250476Y-24269524D01*
X13260000Y-24240952D01*
X13269524Y-24193333D01*
X13269524Y-24155238D01*
X13260000Y-24107619D01*
X13250476Y-24079048D01*
X13240952Y-24060000D01*
X13221905Y-24031428D01*
X13212381Y-24021905D01*
D15*
X8236820Y-24455820D02*
X8236820Y-24392180D01*
X8173180Y-24392180D01*
X8173180Y-24455820D01*
X8236820Y-24455820D01*
D11*
X8545714Y-24314476D02*
X8564762Y-24314476D01*
X8583810Y-24324000D01*
X8593333Y-24333524D01*
X8602857Y-24352571D01*
X8612381Y-24390667D01*
X8612381Y-24438286D01*
X8602857Y-24476381D01*
X8593333Y-24495428D01*
X8583810Y-24504952D01*
X8564762Y-24514476D01*
X8545714Y-24514476D01*
X8526667Y-24504952D01*
X8517143Y-24495428D01*
X8507619Y-24476381D01*
X8498095Y-24438286D01*
X8498095Y-24390667D01*
X8507619Y-24352571D01*
X8517143Y-24333524D01*
X8526667Y-24324000D01*
X8545714Y-24314476D01*
X8698095Y-24495428D02*
X8707619Y-24504952D01*
X8698095Y-24514476D01*
X8688571Y-24504952D01*
X8698095Y-24495428D01*
X8698095Y-24514476D01*
X8802857Y-24514476D02*
X8840952Y-24514476D01*
X8860000Y-24504952D01*
X8869524Y-24495428D01*
X8888571Y-24466857D01*
X8898095Y-24428762D01*
X8898095Y-24352571D01*
X8888571Y-24333524D01*
X8879048Y-24324000D01*
X8860000Y-24314476D01*
X8821905Y-24314476D01*
X8802857Y-24324000D01*
X8793333Y-24333524D01*
X8783810Y-24352571D01*
X8783810Y-24400190D01*
X8793333Y-24419238D01*
X8802857Y-24428762D01*
X8821905Y-24438286D01*
X8860000Y-24438286D01*
X8879048Y-24428762D01*
X8888571Y-24419238D01*
X8898095Y-24400190D01*
X9021905Y-24314476D02*
X9040952Y-24314476D01*
X9060000Y-24324000D01*
X9069524Y-24333524D01*
X9079048Y-24352571D01*
X9088571Y-24390667D01*
X9088571Y-24438286D01*
X9079048Y-24476381D01*
X9069524Y-24495428D01*
X9060000Y-24504952D01*
X9040952Y-24514476D01*
X9021905Y-24514476D01*
X9002857Y-24504952D01*
X8993333Y-24495428D01*
X8983810Y-24476381D01*
X8974286Y-24438286D01*
X8974286Y-24390667D01*
X8983810Y-24352571D01*
X8993333Y-24333524D01*
X9002857Y-24324000D01*
X9021905Y-24314476D01*
X9212381Y-24314476D02*
X9231429Y-24314476D01*
X9250476Y-24324000D01*
X9260000Y-24333524D01*
X9269524Y-24352571D01*
X9279048Y-24390667D01*
X9279048Y-24438286D01*
X9269524Y-24476381D01*
X9260000Y-24495428D01*
X9250476Y-24504952D01*
X9231429Y-24514476D01*
X9212381Y-24514476D01*
X9193333Y-24504952D01*
X9183810Y-24495428D01*
X9174286Y-24476381D01*
X9164762Y-24438286D01*
X9164762Y-24390667D01*
X9174286Y-24352571D01*
X9183810Y-24333524D01*
X9193333Y-24324000D01*
X9212381Y-24314476D01*
X9364762Y-24514476D02*
X9364762Y-24381143D01*
X9364762Y-24400190D02*
X9374286Y-24390667D01*
X9393333Y-24381143D01*
X9421905Y-24381143D01*
X9440952Y-24390667D01*
X9450476Y-24409714D01*
X9450476Y-24514476D01*
X9450476Y-24409714D02*
X9460000Y-24390667D01*
X9479048Y-24381143D01*
X9507619Y-24381143D01*
X9526667Y-24390667D01*
X9536190Y-24409714D01*
X9536190Y-24514476D01*
X9631429Y-24514476D02*
X9631429Y-24381143D01*
X9631429Y-24400190D02*
X9640952Y-24390667D01*
X9660000Y-24381143D01*
X9688571Y-24381143D01*
X9707619Y-24390667D01*
X9717143Y-24409714D01*
X9717143Y-24514476D01*
X9717143Y-24409714D02*
X9726667Y-24390667D01*
X9745714Y-24381143D01*
X9774286Y-24381143D01*
X9793333Y-24390667D01*
X9802857Y-24409714D01*
X9802857Y-24514476D01*
X10193333Y-24304952D02*
X10021905Y-24562095D01*
X10450476Y-24314476D02*
X10469524Y-24314476D01*
X10488571Y-24324000D01*
X10498095Y-24333524D01*
X10507619Y-24352571D01*
X10517143Y-24390667D01*
X10517143Y-24438286D01*
X10507619Y-24476381D01*
X10498095Y-24495428D01*
X10488571Y-24504952D01*
X10469524Y-24514476D01*
X10450476Y-24514476D01*
X10431429Y-24504952D01*
X10421905Y-24495428D01*
X10412381Y-24476381D01*
X10402857Y-24438286D01*
X10402857Y-24390667D01*
X10412381Y-24352571D01*
X10421905Y-24333524D01*
X10431429Y-24324000D01*
X10450476Y-24314476D01*
X10602857Y-24495428D02*
X10612381Y-24504952D01*
X10602857Y-24514476D01*
X10593333Y-24504952D01*
X10602857Y-24495428D01*
X10602857Y-24514476D01*
X10736190Y-24314476D02*
X10755238Y-24314476D01*
X10774286Y-24324000D01*
X10783810Y-24333524D01*
X10793333Y-24352571D01*
X10802857Y-24390667D01*
X10802857Y-24438286D01*
X10793333Y-24476381D01*
X10783810Y-24495428D01*
X10774286Y-24504952D01*
X10755238Y-24514476D01*
X10736190Y-24514476D01*
X10717143Y-24504952D01*
X10707619Y-24495428D01*
X10698095Y-24476381D01*
X10688571Y-24438286D01*
X10688571Y-24390667D01*
X10698095Y-24352571D01*
X10707619Y-24333524D01*
X10717143Y-24324000D01*
X10736190Y-24314476D01*
X10869524Y-24314476D02*
X10993333Y-24314476D01*
X10926667Y-24390667D01*
X10955238Y-24390667D01*
X10974286Y-24400190D01*
X10983810Y-24409714D01*
X10993333Y-24428762D01*
X10993333Y-24476381D01*
X10983810Y-24495428D01*
X10974286Y-24504952D01*
X10955238Y-24514476D01*
X10898095Y-24514476D01*
X10879048Y-24504952D01*
X10869524Y-24495428D01*
X11174286Y-24314476D02*
X11079048Y-24314476D01*
X11069524Y-24409714D01*
X11079048Y-24400190D01*
X11098095Y-24390667D01*
X11145714Y-24390667D01*
X11164762Y-24400190D01*
X11174286Y-24409714D01*
X11183810Y-24428762D01*
X11183810Y-24476381D01*
X11174286Y-24495428D01*
X11164762Y-24504952D01*
X11145714Y-24514476D01*
X11098095Y-24514476D01*
X11079048Y-24504952D01*
X11069524Y-24495428D01*
X11355238Y-24381143D02*
X11355238Y-24514476D01*
X11307619Y-24304952D02*
X11260000Y-24447809D01*
X11383809Y-24447809D01*
X11450476Y-24314476D02*
X11450476Y-24352571D01*
X11526667Y-24314476D02*
X11526667Y-24352571D01*
X11821905Y-24590667D02*
X11812381Y-24581143D01*
X11793333Y-24552571D01*
X11783809Y-24533524D01*
X11774286Y-24504952D01*
X11764762Y-24457333D01*
X11764762Y-24419238D01*
X11774286Y-24371619D01*
X11783809Y-24343048D01*
X11793333Y-24324000D01*
X11812381Y-24295428D01*
X11821905Y-24285905D01*
X11983809Y-24381143D02*
X11983809Y-24514476D01*
X11936190Y-24304952D02*
X11888571Y-24447809D01*
X12012381Y-24447809D01*
X12240952Y-24514476D02*
X12240952Y-24314476D01*
X12326667Y-24514476D02*
X12326667Y-24409714D01*
X12317143Y-24390667D01*
X12298095Y-24381143D01*
X12269524Y-24381143D01*
X12250476Y-24390667D01*
X12240952Y-24400190D01*
X12450476Y-24514476D02*
X12431428Y-24504952D01*
X12421905Y-24495428D01*
X12412381Y-24476381D01*
X12412381Y-24419238D01*
X12421905Y-24400190D01*
X12431428Y-24390667D01*
X12450476Y-24381143D01*
X12479048Y-24381143D01*
X12498095Y-24390667D01*
X12507619Y-24400190D01*
X12517143Y-24419238D01*
X12517143Y-24476381D01*
X12507619Y-24495428D01*
X12498095Y-24504952D01*
X12479048Y-24514476D01*
X12450476Y-24514476D01*
X12631428Y-24514476D02*
X12612381Y-24504952D01*
X12602857Y-24485905D01*
X12602857Y-24314476D01*
X12783809Y-24504952D02*
X12764762Y-24514476D01*
X12726667Y-24514476D01*
X12707619Y-24504952D01*
X12698095Y-24485905D01*
X12698095Y-24409714D01*
X12707619Y-24390667D01*
X12726667Y-24381143D01*
X12764762Y-24381143D01*
X12783809Y-24390667D01*
X12793333Y-24409714D01*
X12793333Y-24428762D01*
X12698095Y-24447809D01*
X12869524Y-24504952D02*
X12888571Y-24514476D01*
X12926667Y-24514476D01*
X12945714Y-24504952D01*
X12955238Y-24485905D01*
X12955238Y-24476381D01*
X12945714Y-24457333D01*
X12926667Y-24447809D01*
X12898095Y-24447809D01*
X12879048Y-24438286D01*
X12869524Y-24419238D01*
X12869524Y-24409714D01*
X12879048Y-24390667D01*
X12898095Y-24381143D01*
X12926667Y-24381143D01*
X12945714Y-24390667D01*
X13021905Y-24590667D02*
X13031428Y-24581143D01*
X13050476Y-24552571D01*
X13060000Y-24533524D01*
X13069524Y-24504952D01*
X13079048Y-24457333D01*
X13079048Y-24419238D01*
X13069524Y-24371619D01*
X13060000Y-24343048D01*
X13050476Y-24324000D01*
X13031428Y-24295428D01*
X13021905Y-24285905D01*
D16*
X8200000Y-24738000D02*
X8250000Y-24688000D01*
X8200000Y-24638000D01*
X8150000Y-24688000D01*
X8200000Y-24738000D01*
D11*
X8612381Y-24778476D02*
X8498095Y-24778476D01*
X8555238Y-24778476D02*
X8555238Y-24578476D01*
X8536190Y-24607048D01*
X8517143Y-24626095D01*
X8498095Y-24635619D01*
X8698095Y-24759428D02*
X8707619Y-24768952D01*
X8698095Y-24778476D01*
X8688571Y-24768952D01*
X8698095Y-24759428D01*
X8698095Y-24778476D01*
X8831429Y-24578476D02*
X8850476Y-24578476D01*
X8869524Y-24588000D01*
X8879048Y-24597524D01*
X8888571Y-24616571D01*
X8898095Y-24654667D01*
X8898095Y-24702286D01*
X8888571Y-24740381D01*
X8879048Y-24759428D01*
X8869524Y-24768952D01*
X8850476Y-24778476D01*
X8831429Y-24778476D01*
X8812381Y-24768952D01*
X8802857Y-24759428D01*
X8793333Y-24740381D01*
X8783810Y-24702286D01*
X8783810Y-24654667D01*
X8793333Y-24616571D01*
X8802857Y-24597524D01*
X8812381Y-24588000D01*
X8831429Y-24578476D01*
X9021905Y-24578476D02*
X9040952Y-24578476D01*
X9060000Y-24588000D01*
X9069524Y-24597524D01*
X9079048Y-24616571D01*
X9088571Y-24654667D01*
X9088571Y-24702286D01*
X9079048Y-24740381D01*
X9069524Y-24759428D01*
X9060000Y-24768952D01*
X9040952Y-24778476D01*
X9021905Y-24778476D01*
X9002857Y-24768952D01*
X8993333Y-24759428D01*
X8983810Y-24740381D01*
X8974286Y-24702286D01*
X8974286Y-24654667D01*
X8983810Y-24616571D01*
X8993333Y-24597524D01*
X9002857Y-24588000D01*
X9021905Y-24578476D01*
X9212381Y-24578476D02*
X9231429Y-24578476D01*
X9250476Y-24588000D01*
X9260000Y-24597524D01*
X9269524Y-24616571D01*
X9279048Y-24654667D01*
X9279048Y-24702286D01*
X9269524Y-24740381D01*
X9260000Y-24759428D01*
X9250476Y-24768952D01*
X9231429Y-24778476D01*
X9212381Y-24778476D01*
X9193333Y-24768952D01*
X9183810Y-24759428D01*
X9174286Y-24740381D01*
X9164762Y-24702286D01*
X9164762Y-24654667D01*
X9174286Y-24616571D01*
X9183810Y-24597524D01*
X9193333Y-24588000D01*
X9212381Y-24578476D01*
X9364762Y-24778476D02*
X9364762Y-24645143D01*
X9364762Y-24664190D02*
X9374286Y-24654667D01*
X9393333Y-24645143D01*
X9421905Y-24645143D01*
X9440952Y-24654667D01*
X9450476Y-24673714D01*
X9450476Y-24778476D01*
X9450476Y-24673714D02*
X9460000Y-24654667D01*
X9479048Y-24645143D01*
X9507619Y-24645143D01*
X9526667Y-24654667D01*
X9536190Y-24673714D01*
X9536190Y-24778476D01*
X9631429Y-24778476D02*
X9631429Y-24645143D01*
X9631429Y-24664190D02*
X9640952Y-24654667D01*
X9660000Y-24645143D01*
X9688571Y-24645143D01*
X9707619Y-24654667D01*
X9717143Y-24673714D01*
X9717143Y-24778476D01*
X9717143Y-24673714D02*
X9726667Y-24654667D01*
X9745714Y-24645143D01*
X9774286Y-24645143D01*
X9793333Y-24654667D01*
X9802857Y-24673714D01*
X9802857Y-24778476D01*
X10193333Y-24568952D02*
X10021905Y-24826095D01*
X10450476Y-24578476D02*
X10469524Y-24578476D01*
X10488571Y-24588000D01*
X10498095Y-24597524D01*
X10507619Y-24616571D01*
X10517143Y-24654667D01*
X10517143Y-24702286D01*
X10507619Y-24740381D01*
X10498095Y-24759428D01*
X10488571Y-24768952D01*
X10469524Y-24778476D01*
X10450476Y-24778476D01*
X10431429Y-24768952D01*
X10421905Y-24759428D01*
X10412381Y-24740381D01*
X10402857Y-24702286D01*
X10402857Y-24654667D01*
X10412381Y-24616571D01*
X10421905Y-24597524D01*
X10431429Y-24588000D01*
X10450476Y-24578476D01*
X10602857Y-24759428D02*
X10612381Y-24768952D01*
X10602857Y-24778476D01*
X10593333Y-24768952D01*
X10602857Y-24759428D01*
X10602857Y-24778476D01*
X10736190Y-24578476D02*
X10755238Y-24578476D01*
X10774286Y-24588000D01*
X10783810Y-24597524D01*
X10793333Y-24616571D01*
X10802857Y-24654667D01*
X10802857Y-24702286D01*
X10793333Y-24740381D01*
X10783810Y-24759428D01*
X10774286Y-24768952D01*
X10755238Y-24778476D01*
X10736190Y-24778476D01*
X10717143Y-24768952D01*
X10707619Y-24759428D01*
X10698095Y-24740381D01*
X10688571Y-24702286D01*
X10688571Y-24654667D01*
X10698095Y-24616571D01*
X10707619Y-24597524D01*
X10717143Y-24588000D01*
X10736190Y-24578476D01*
X10869524Y-24578476D02*
X10993333Y-24578476D01*
X10926667Y-24654667D01*
X10955238Y-24654667D01*
X10974286Y-24664190D01*
X10983810Y-24673714D01*
X10993333Y-24692762D01*
X10993333Y-24740381D01*
X10983810Y-24759428D01*
X10974286Y-24768952D01*
X10955238Y-24778476D01*
X10898095Y-24778476D01*
X10879048Y-24768952D01*
X10869524Y-24759428D01*
X11088571Y-24778476D02*
X11126667Y-24778476D01*
X11145714Y-24768952D01*
X11155238Y-24759428D01*
X11174286Y-24730857D01*
X11183810Y-24692762D01*
X11183810Y-24616571D01*
X11174286Y-24597524D01*
X11164762Y-24588000D01*
X11145714Y-24578476D01*
X11107619Y-24578476D01*
X11088571Y-24588000D01*
X11079048Y-24597524D01*
X11069524Y-24616571D01*
X11069524Y-24664190D01*
X11079048Y-24683238D01*
X11088571Y-24692762D01*
X11107619Y-24702286D01*
X11145714Y-24702286D01*
X11164762Y-24692762D01*
X11174286Y-24683238D01*
X11183810Y-24664190D01*
X11355238Y-24645143D02*
X11355238Y-24778476D01*
X11307619Y-24568952D02*
X11260000Y-24711809D01*
X11383809Y-24711809D01*
X11450476Y-24578476D02*
X11450476Y-24616571D01*
X11526667Y-24578476D02*
X11526667Y-24616571D01*
X11821905Y-24854667D02*
X11812381Y-24845143D01*
X11793333Y-24816571D01*
X11783809Y-24797524D01*
X11774286Y-24768952D01*
X11764762Y-24721333D01*
X11764762Y-24683238D01*
X11774286Y-24635619D01*
X11783809Y-24607048D01*
X11793333Y-24588000D01*
X11812381Y-24559428D01*
X11821905Y-24549905D01*
X11879048Y-24578476D02*
X12002857Y-24578476D01*
X11936190Y-24654667D01*
X11964762Y-24654667D01*
X11983809Y-24664190D01*
X11993333Y-24673714D01*
X12002857Y-24692762D01*
X12002857Y-24740381D01*
X11993333Y-24759428D01*
X11983809Y-24768952D01*
X11964762Y-24778476D01*
X11907619Y-24778476D01*
X11888571Y-24768952D01*
X11879048Y-24759428D01*
X12079048Y-24597524D02*
X12088571Y-24588000D01*
X12107619Y-24578476D01*
X12155238Y-24578476D01*
X12174286Y-24588000D01*
X12183809Y-24597524D01*
X12193333Y-24616571D01*
X12193333Y-24635619D01*
X12183809Y-24664190D01*
X12069524Y-24778476D01*
X12193333Y-24778476D01*
X12431428Y-24778476D02*
X12431428Y-24578476D01*
X12517143Y-24778476D02*
X12517143Y-24673714D01*
X12507619Y-24654667D01*
X12488571Y-24645143D01*
X12460000Y-24645143D01*
X12440952Y-24654667D01*
X12431428Y-24664190D01*
X12640952Y-24778476D02*
X12621905Y-24768952D01*
X12612381Y-24759428D01*
X12602857Y-24740381D01*
X12602857Y-24683238D01*
X12612381Y-24664190D01*
X12621905Y-24654667D01*
X12640952Y-24645143D01*
X12669524Y-24645143D01*
X12688571Y-24654667D01*
X12698095Y-24664190D01*
X12707619Y-24683238D01*
X12707619Y-24740381D01*
X12698095Y-24759428D01*
X12688571Y-24768952D01*
X12669524Y-24778476D01*
X12640952Y-24778476D01*
X12821905Y-24778476D02*
X12802857Y-24768952D01*
X12793333Y-24749905D01*
X12793333Y-24578476D01*
X12974286Y-24768952D02*
X12955238Y-24778476D01*
X12917143Y-24778476D01*
X12898095Y-24768952D01*
X12888571Y-24749905D01*
X12888571Y-24673714D01*
X12898095Y-24654667D01*
X12917143Y-24645143D01*
X12955238Y-24645143D01*
X12974286Y-24654667D01*
X12983809Y-24673714D01*
X12983809Y-24692762D01*
X12888571Y-24711809D01*
X13060000Y-24768952D02*
X13079048Y-24778476D01*
X13117143Y-24778476D01*
X13136190Y-24768952D01*
X13145714Y-24749905D01*
X13145714Y-24740381D01*
X13136190Y-24721333D01*
X13117143Y-24711809D01*
X13088571Y-24711809D01*
X13069524Y-24702286D01*
X13060000Y-24683238D01*
X13060000Y-24673714D01*
X13069524Y-24654667D01*
X13088571Y-24645143D01*
X13117143Y-24645143D01*
X13136190Y-24654667D01*
X13212381Y-24854667D02*
X13221905Y-24845143D01*
X13240952Y-24816571D01*
X13250476Y-24797524D01*
X13260000Y-24768952D01*
X13269524Y-24721333D01*
X13269524Y-24683238D01*
X13260000Y-24635619D01*
X13250476Y-24607048D01*
X13240952Y-24588000D01*
X13221905Y-24559428D01*
X13212381Y-24549905D01*
D17*
X8140000Y-24897000D02*
X8250000Y-25007000D01*
X8250000Y-24897000D02*
X8140000Y-25007000D01*
X8250000Y-24952000D02*
G75*
G03*
X8250000Y-24952000I-55000J0D01*
G01*
D11*
X8612381Y-25042476D02*
X8498095Y-25042476D01*
X8555238Y-25042476D02*
X8555238Y-24842476D01*
X8536190Y-24871048D01*
X8517143Y-24890095D01*
X8498095Y-24899619D01*
X8698095Y-25023428D02*
X8707619Y-25032952D01*
X8698095Y-25042476D01*
X8688571Y-25032952D01*
X8698095Y-25023428D01*
X8698095Y-25042476D01*
X8898095Y-25042476D02*
X8783810Y-25042476D01*
X8840952Y-25042476D02*
X8840952Y-24842476D01*
X8821905Y-24871048D01*
X8802857Y-24890095D01*
X8783810Y-24899619D01*
X9021905Y-24842476D02*
X9040952Y-24842476D01*
X9060000Y-24852000D01*
X9069524Y-24861524D01*
X9079048Y-24880571D01*
X9088571Y-24918667D01*
X9088571Y-24966286D01*
X9079048Y-25004381D01*
X9069524Y-25023428D01*
X9060000Y-25032952D01*
X9040952Y-25042476D01*
X9021905Y-25042476D01*
X9002857Y-25032952D01*
X8993333Y-25023428D01*
X8983810Y-25004381D01*
X8974286Y-24966286D01*
X8974286Y-24918667D01*
X8983810Y-24880571D01*
X8993333Y-24861524D01*
X9002857Y-24852000D01*
X9021905Y-24842476D01*
X9212381Y-24842476D02*
X9231429Y-24842476D01*
X9250476Y-24852000D01*
X9260000Y-24861524D01*
X9269524Y-24880571D01*
X9279048Y-24918667D01*
X9279048Y-24966286D01*
X9269524Y-25004381D01*
X9260000Y-25023428D01*
X9250476Y-25032952D01*
X9231429Y-25042476D01*
X9212381Y-25042476D01*
X9193333Y-25032952D01*
X9183810Y-25023428D01*
X9174286Y-25004381D01*
X9164762Y-24966286D01*
X9164762Y-24918667D01*
X9174286Y-24880571D01*
X9183810Y-24861524D01*
X9193333Y-24852000D01*
X9212381Y-24842476D01*
X9364762Y-25042476D02*
X9364762Y-24909143D01*
X9364762Y-24928190D02*
X9374286Y-24918667D01*
X9393333Y-24909143D01*
X9421905Y-24909143D01*
X9440952Y-24918667D01*
X9450476Y-24937714D01*
X9450476Y-25042476D01*
X9450476Y-24937714D02*
X9460000Y-24918667D01*
X9479048Y-24909143D01*
X9507619Y-24909143D01*
X9526667Y-24918667D01*
X9536190Y-24937714D01*
X9536190Y-25042476D01*
X9631429Y-25042476D02*
X9631429Y-24909143D01*
X9631429Y-24928190D02*
X9640952Y-24918667D01*
X9660000Y-24909143D01*
X9688571Y-24909143D01*
X9707619Y-24918667D01*
X9717143Y-24937714D01*
X9717143Y-25042476D01*
X9717143Y-24937714D02*
X9726667Y-24918667D01*
X9745714Y-24909143D01*
X9774286Y-24909143D01*
X9793333Y-24918667D01*
X9802857Y-24937714D01*
X9802857Y-25042476D01*
X10193333Y-24832952D02*
X10021905Y-25090095D01*
X10450476Y-24842476D02*
X10469524Y-24842476D01*
X10488571Y-24852000D01*
X10498095Y-24861524D01*
X10507619Y-24880571D01*
X10517143Y-24918667D01*
X10517143Y-24966286D01*
X10507619Y-25004381D01*
X10498095Y-25023428D01*
X10488571Y-25032952D01*
X10469524Y-25042476D01*
X10450476Y-25042476D01*
X10431429Y-25032952D01*
X10421905Y-25023428D01*
X10412381Y-25004381D01*
X10402857Y-24966286D01*
X10402857Y-24918667D01*
X10412381Y-24880571D01*
X10421905Y-24861524D01*
X10431429Y-24852000D01*
X10450476Y-24842476D01*
X10602857Y-25023428D02*
X10612381Y-25032952D01*
X10602857Y-25042476D01*
X10593333Y-25032952D01*
X10602857Y-25023428D01*
X10602857Y-25042476D01*
X10736190Y-24842476D02*
X10755238Y-24842476D01*
X10774286Y-24852000D01*
X10783810Y-24861524D01*
X10793333Y-24880571D01*
X10802857Y-24918667D01*
X10802857Y-24966286D01*
X10793333Y-25004381D01*
X10783810Y-25023428D01*
X10774286Y-25032952D01*
X10755238Y-25042476D01*
X10736190Y-25042476D01*
X10717143Y-25032952D01*
X10707619Y-25023428D01*
X10698095Y-25004381D01*
X10688571Y-24966286D01*
X10688571Y-24918667D01*
X10698095Y-24880571D01*
X10707619Y-24861524D01*
X10717143Y-24852000D01*
X10736190Y-24842476D01*
X10974286Y-24909143D02*
X10974286Y-25042476D01*
X10926667Y-24832952D02*
X10879048Y-24975809D01*
X11002857Y-24975809D01*
X11060000Y-24842476D02*
X11183810Y-24842476D01*
X11117143Y-24918667D01*
X11145714Y-24918667D01*
X11164762Y-24928190D01*
X11174286Y-24937714D01*
X11183810Y-24956762D01*
X11183810Y-25004381D01*
X11174286Y-25023428D01*
X11164762Y-25032952D01*
X11145714Y-25042476D01*
X11088571Y-25042476D01*
X11069524Y-25032952D01*
X11060000Y-25023428D01*
X11250476Y-24842476D02*
X11374286Y-24842476D01*
X11307619Y-24918667D01*
X11336190Y-24918667D01*
X11355238Y-24928190D01*
X11364762Y-24937714D01*
X11374286Y-24956762D01*
X11374286Y-25004381D01*
X11364762Y-25023428D01*
X11355238Y-25032952D01*
X11336190Y-25042476D01*
X11279048Y-25042476D01*
X11260000Y-25032952D01*
X11250476Y-25023428D01*
X11450476Y-24842476D02*
X11450476Y-24880571D01*
X11526667Y-24842476D02*
X11526667Y-24880571D01*
X11821905Y-25118667D02*
X11812381Y-25109143D01*
X11793333Y-25080571D01*
X11783809Y-25061524D01*
X11774286Y-25032952D01*
X11764762Y-24985333D01*
X11764762Y-24947238D01*
X11774286Y-24899619D01*
X11783809Y-24871048D01*
X11793333Y-24852000D01*
X11812381Y-24823428D01*
X11821905Y-24813905D01*
X11936190Y-24842476D02*
X11955238Y-24842476D01*
X11974286Y-24852000D01*
X11983809Y-24861524D01*
X11993333Y-24880571D01*
X12002857Y-24918667D01*
X12002857Y-24966286D01*
X11993333Y-25004381D01*
X11983809Y-25023428D01*
X11974286Y-25032952D01*
X11955238Y-25042476D01*
X11936190Y-25042476D01*
X11917143Y-25032952D01*
X11907619Y-25023428D01*
X11898095Y-25004381D01*
X11888571Y-24966286D01*
X11888571Y-24918667D01*
X11898095Y-24880571D01*
X11907619Y-24861524D01*
X11917143Y-24852000D01*
X11936190Y-24842476D01*
X12240952Y-25042476D02*
X12240952Y-24842476D01*
X12326667Y-25042476D02*
X12326667Y-24937714D01*
X12317143Y-24918667D01*
X12298095Y-24909143D01*
X12269524Y-24909143D01*
X12250476Y-24918667D01*
X12240952Y-24928190D01*
X12450476Y-25042476D02*
X12431428Y-25032952D01*
X12421905Y-25023428D01*
X12412381Y-25004381D01*
X12412381Y-24947238D01*
X12421905Y-24928190D01*
X12431428Y-24918667D01*
X12450476Y-24909143D01*
X12479048Y-24909143D01*
X12498095Y-24918667D01*
X12507619Y-24928190D01*
X12517143Y-24947238D01*
X12517143Y-25004381D01*
X12507619Y-25023428D01*
X12498095Y-25032952D01*
X12479048Y-25042476D01*
X12450476Y-25042476D01*
X12631428Y-25042476D02*
X12612381Y-25032952D01*
X12602857Y-25013905D01*
X12602857Y-24842476D01*
X12783809Y-25032952D02*
X12764762Y-25042476D01*
X12726667Y-25042476D01*
X12707619Y-25032952D01*
X12698095Y-25013905D01*
X12698095Y-24937714D01*
X12707619Y-24918667D01*
X12726667Y-24909143D01*
X12764762Y-24909143D01*
X12783809Y-24918667D01*
X12793333Y-24937714D01*
X12793333Y-24956762D01*
X12698095Y-24975809D01*
X12869524Y-25032952D02*
X12888571Y-25042476D01*
X12926667Y-25042476D01*
X12945714Y-25032952D01*
X12955238Y-25013905D01*
X12955238Y-25004381D01*
X12945714Y-24985333D01*
X12926667Y-24975809D01*
X12898095Y-24975809D01*
X12879048Y-24966286D01*
X12869524Y-24947238D01*
X12869524Y-24937714D01*
X12879048Y-24918667D01*
X12898095Y-24909143D01*
X12926667Y-24909143D01*
X12945714Y-24918667D01*
X13193333Y-24966286D02*
X13345714Y-24966286D01*
X13269524Y-25042476D02*
X13269524Y-24890095D01*
X13679048Y-24842476D02*
X13640952Y-24842476D01*
X13621905Y-24852000D01*
X13612381Y-24861524D01*
X13593333Y-24890095D01*
X13583809Y-24928190D01*
X13583809Y-25004381D01*
X13593333Y-25023428D01*
X13602857Y-25032952D01*
X13621905Y-25042476D01*
X13660000Y-25042476D01*
X13679048Y-25032952D01*
X13688571Y-25023428D01*
X13698095Y-25004381D01*
X13698095Y-24956762D01*
X13688571Y-24937714D01*
X13679048Y-24928190D01*
X13660000Y-24918667D01*
X13621905Y-24918667D01*
X13602857Y-24928190D01*
X13593333Y-24937714D01*
X13583809Y-24956762D01*
X13926667Y-25032952D02*
X13945714Y-25042476D01*
X13983809Y-25042476D01*
X14002857Y-25032952D01*
X14012381Y-25013905D01*
X14012381Y-25004381D01*
X14002857Y-24985333D01*
X13983809Y-24975809D01*
X13955238Y-24975809D01*
X13936190Y-24966286D01*
X13926667Y-24947238D01*
X13926667Y-24937714D01*
X13936190Y-24918667D01*
X13955238Y-24909143D01*
X13983809Y-24909143D01*
X14002857Y-24918667D01*
X14126667Y-25042476D02*
X14107619Y-25032952D01*
X14098095Y-25013905D01*
X14098095Y-24842476D01*
X14231428Y-25042476D02*
X14212381Y-25032952D01*
X14202857Y-25023428D01*
X14193333Y-25004381D01*
X14193333Y-24947238D01*
X14202857Y-24928190D01*
X14212381Y-24918667D01*
X14231428Y-24909143D01*
X14260000Y-24909143D01*
X14279048Y-24918667D01*
X14288571Y-24928190D01*
X14298095Y-24947238D01*
X14298095Y-25004381D01*
X14288571Y-25023428D01*
X14279048Y-25032952D01*
X14260000Y-25042476D01*
X14231428Y-25042476D01*
X14355238Y-24909143D02*
X14431428Y-24909143D01*
X14383809Y-24842476D02*
X14383809Y-25013905D01*
X14393333Y-25032952D01*
X14412381Y-25042476D01*
X14431428Y-25042476D01*
X14488571Y-25032952D02*
X14507619Y-25042476D01*
X14545714Y-25042476D01*
X14564762Y-25032952D01*
X14574286Y-25013905D01*
X14574286Y-25004381D01*
X14564762Y-24985333D01*
X14545714Y-24975809D01*
X14517143Y-24975809D01*
X14498095Y-24966286D01*
X14488571Y-24947238D01*
X14488571Y-24937714D01*
X14498095Y-24918667D01*
X14517143Y-24909143D01*
X14545714Y-24909143D01*
X14564762Y-24918667D01*
X14640952Y-25118667D02*
X14650476Y-25109143D01*
X14669524Y-25080571D01*
X14679048Y-25061524D01*
X14688571Y-25032952D01*
X14698095Y-24985333D01*
X14698095Y-24947238D01*
X14688571Y-24899619D01*
X14679048Y-24871048D01*
X14669524Y-24852000D01*
X14650476Y-24823428D01*
X14640952Y-24813905D01*
D18*
X8131000Y-25156500D02*
X8250000Y-25275500D01*
X8250000Y-25156500D02*
X8131000Y-25275500D01*
X8190500Y-25156500D02*
X8190500Y-25275500D01*
X8131000Y-25216000D02*
X8250000Y-25216000D01*
D11*
X8612381Y-25306476D02*
X8498095Y-25306476D01*
X8555238Y-25306476D02*
X8555238Y-25106476D01*
X8536190Y-25135048D01*
X8517143Y-25154095D01*
X8498095Y-25163619D01*
X8698095Y-25287428D02*
X8707619Y-25296952D01*
X8698095Y-25306476D01*
X8688571Y-25296952D01*
X8698095Y-25287428D01*
X8698095Y-25306476D01*
X8898095Y-25306476D02*
X8783810Y-25306476D01*
X8840952Y-25306476D02*
X8840952Y-25106476D01*
X8821905Y-25135048D01*
X8802857Y-25154095D01*
X8783810Y-25163619D01*
X8993333Y-25306476D02*
X9031429Y-25306476D01*
X9050476Y-25296952D01*
X9060000Y-25287428D01*
X9079048Y-25258857D01*
X9088571Y-25220762D01*
X9088571Y-25144571D01*
X9079048Y-25125524D01*
X9069524Y-25116000D01*
X9050476Y-25106476D01*
X9012381Y-25106476D01*
X8993333Y-25116000D01*
X8983810Y-25125524D01*
X8974286Y-25144571D01*
X8974286Y-25192190D01*
X8983810Y-25211238D01*
X8993333Y-25220762D01*
X9012381Y-25230286D01*
X9050476Y-25230286D01*
X9069524Y-25220762D01*
X9079048Y-25211238D01*
X9088571Y-25192190D01*
X9212381Y-25106476D02*
X9231429Y-25106476D01*
X9250476Y-25116000D01*
X9260000Y-25125524D01*
X9269524Y-25144571D01*
X9279048Y-25182667D01*
X9279048Y-25230286D01*
X9269524Y-25268381D01*
X9260000Y-25287428D01*
X9250476Y-25296952D01*
X9231429Y-25306476D01*
X9212381Y-25306476D01*
X9193333Y-25296952D01*
X9183810Y-25287428D01*
X9174286Y-25268381D01*
X9164762Y-25230286D01*
X9164762Y-25182667D01*
X9174286Y-25144571D01*
X9183810Y-25125524D01*
X9193333Y-25116000D01*
X9212381Y-25106476D01*
X9364762Y-25306476D02*
X9364762Y-25173143D01*
X9364762Y-25192190D02*
X9374286Y-25182667D01*
X9393333Y-25173143D01*
X9421905Y-25173143D01*
X9440952Y-25182667D01*
X9450476Y-25201714D01*
X9450476Y-25306476D01*
X9450476Y-25201714D02*
X9460000Y-25182667D01*
X9479048Y-25173143D01*
X9507619Y-25173143D01*
X9526667Y-25182667D01*
X9536190Y-25201714D01*
X9536190Y-25306476D01*
X9631429Y-25306476D02*
X9631429Y-25173143D01*
X9631429Y-25192190D02*
X9640952Y-25182667D01*
X9660000Y-25173143D01*
X9688571Y-25173143D01*
X9707619Y-25182667D01*
X9717143Y-25201714D01*
X9717143Y-25306476D01*
X9717143Y-25201714D02*
X9726667Y-25182667D01*
X9745714Y-25173143D01*
X9774286Y-25173143D01*
X9793333Y-25182667D01*
X9802857Y-25201714D01*
X9802857Y-25306476D01*
X10193333Y-25096952D02*
X10021905Y-25354095D01*
X10450476Y-25106476D02*
X10469524Y-25106476D01*
X10488571Y-25116000D01*
X10498095Y-25125524D01*
X10507619Y-25144571D01*
X10517143Y-25182667D01*
X10517143Y-25230286D01*
X10507619Y-25268381D01*
X10498095Y-25287428D01*
X10488571Y-25296952D01*
X10469524Y-25306476D01*
X10450476Y-25306476D01*
X10431429Y-25296952D01*
X10421905Y-25287428D01*
X10412381Y-25268381D01*
X10402857Y-25230286D01*
X10402857Y-25182667D01*
X10412381Y-25144571D01*
X10421905Y-25125524D01*
X10431429Y-25116000D01*
X10450476Y-25106476D01*
X10602857Y-25287428D02*
X10612381Y-25296952D01*
X10602857Y-25306476D01*
X10593333Y-25296952D01*
X10602857Y-25287428D01*
X10602857Y-25306476D01*
X10736190Y-25106476D02*
X10755238Y-25106476D01*
X10774286Y-25116000D01*
X10783810Y-25125524D01*
X10793333Y-25144571D01*
X10802857Y-25182667D01*
X10802857Y-25230286D01*
X10793333Y-25268381D01*
X10783810Y-25287428D01*
X10774286Y-25296952D01*
X10755238Y-25306476D01*
X10736190Y-25306476D01*
X10717143Y-25296952D01*
X10707619Y-25287428D01*
X10698095Y-25268381D01*
X10688571Y-25230286D01*
X10688571Y-25182667D01*
X10698095Y-25144571D01*
X10707619Y-25125524D01*
X10717143Y-25116000D01*
X10736190Y-25106476D01*
X10974286Y-25173143D02*
X10974286Y-25306476D01*
X10926667Y-25096952D02*
X10879048Y-25239809D01*
X11002857Y-25239809D01*
X11164762Y-25106476D02*
X11126667Y-25106476D01*
X11107619Y-25116000D01*
X11098095Y-25125524D01*
X11079048Y-25154095D01*
X11069524Y-25192190D01*
X11069524Y-25268381D01*
X11079048Y-25287428D01*
X11088571Y-25296952D01*
X11107619Y-25306476D01*
X11145714Y-25306476D01*
X11164762Y-25296952D01*
X11174286Y-25287428D01*
X11183810Y-25268381D01*
X11183810Y-25220762D01*
X11174286Y-25201714D01*
X11164762Y-25192190D01*
X11145714Y-25182667D01*
X11107619Y-25182667D01*
X11088571Y-25192190D01*
X11079048Y-25201714D01*
X11069524Y-25220762D01*
X11279048Y-25306476D02*
X11317143Y-25306476D01*
X11336190Y-25296952D01*
X11345714Y-25287428D01*
X11364762Y-25258857D01*
X11374286Y-25220762D01*
X11374286Y-25144571D01*
X11364762Y-25125524D01*
X11355238Y-25116000D01*
X11336190Y-25106476D01*
X11298095Y-25106476D01*
X11279048Y-25116000D01*
X11269524Y-25125524D01*
X11260000Y-25144571D01*
X11260000Y-25192190D01*
X11269524Y-25211238D01*
X11279048Y-25220762D01*
X11298095Y-25230286D01*
X11336190Y-25230286D01*
X11355238Y-25220762D01*
X11364762Y-25211238D01*
X11374286Y-25192190D01*
X11450476Y-25106476D02*
X11450476Y-25144571D01*
X11526667Y-25106476D02*
X11526667Y-25144571D01*
X11821905Y-25382667D02*
X11812381Y-25373143D01*
X11793333Y-25344571D01*
X11783809Y-25325524D01*
X11774286Y-25296952D01*
X11764762Y-25249333D01*
X11764762Y-25211238D01*
X11774286Y-25163619D01*
X11783809Y-25135048D01*
X11793333Y-25116000D01*
X11812381Y-25087428D01*
X11821905Y-25077905D01*
X12002857Y-25306476D02*
X11888571Y-25306476D01*
X11945714Y-25306476D02*
X11945714Y-25106476D01*
X11926667Y-25135048D01*
X11907619Y-25154095D01*
X11888571Y-25163619D01*
X12098095Y-25306476D02*
X12136190Y-25306476D01*
X12155238Y-25296952D01*
X12164762Y-25287428D01*
X12183809Y-25258857D01*
X12193333Y-25220762D01*
X12193333Y-25144571D01*
X12183809Y-25125524D01*
X12174286Y-25116000D01*
X12155238Y-25106476D01*
X12117143Y-25106476D01*
X12098095Y-25116000D01*
X12088571Y-25125524D01*
X12079048Y-25144571D01*
X12079048Y-25192190D01*
X12088571Y-25211238D01*
X12098095Y-25220762D01*
X12117143Y-25230286D01*
X12155238Y-25230286D01*
X12174286Y-25220762D01*
X12183809Y-25211238D01*
X12193333Y-25192190D01*
X12431428Y-25306476D02*
X12431428Y-25106476D01*
X12517143Y-25306476D02*
X12517143Y-25201714D01*
X12507619Y-25182667D01*
X12488571Y-25173143D01*
X12460000Y-25173143D01*
X12440952Y-25182667D01*
X12431428Y-25192190D01*
X12640952Y-25306476D02*
X12621905Y-25296952D01*
X12612381Y-25287428D01*
X12602857Y-25268381D01*
X12602857Y-25211238D01*
X12612381Y-25192190D01*
X12621905Y-25182667D01*
X12640952Y-25173143D01*
X12669524Y-25173143D01*
X12688571Y-25182667D01*
X12698095Y-25192190D01*
X12707619Y-25211238D01*
X12707619Y-25268381D01*
X12698095Y-25287428D01*
X12688571Y-25296952D01*
X12669524Y-25306476D01*
X12640952Y-25306476D01*
X12821905Y-25306476D02*
X12802857Y-25296952D01*
X12793333Y-25277905D01*
X12793333Y-25106476D01*
X12974286Y-25296952D02*
X12955238Y-25306476D01*
X12917143Y-25306476D01*
X12898095Y-25296952D01*
X12888571Y-25277905D01*
X12888571Y-25201714D01*
X12898095Y-25182667D01*
X12917143Y-25173143D01*
X12955238Y-25173143D01*
X12974286Y-25182667D01*
X12983809Y-25201714D01*
X12983809Y-25220762D01*
X12888571Y-25239809D01*
X13060000Y-25296952D02*
X13079048Y-25306476D01*
X13117143Y-25306476D01*
X13136190Y-25296952D01*
X13145714Y-25277905D01*
X13145714Y-25268381D01*
X13136190Y-25249333D01*
X13117143Y-25239809D01*
X13088571Y-25239809D01*
X13069524Y-25230286D01*
X13060000Y-25211238D01*
X13060000Y-25201714D01*
X13069524Y-25182667D01*
X13088571Y-25173143D01*
X13117143Y-25173143D01*
X13136190Y-25182667D01*
X13212381Y-25382667D02*
X13221905Y-25373143D01*
X13240952Y-25344571D01*
X13250476Y-25325524D01*
X13260000Y-25296952D01*
X13269524Y-25249333D01*
X13269524Y-25211238D01*
X13260000Y-25163619D01*
X13250476Y-25135048D01*
X13240952Y-25116000D01*
X13221905Y-25087428D01*
X13212381Y-25077905D01*
D19*
X8065000Y-25387500D02*
X8250000Y-25572500D01*
X8250000Y-25387500D02*
X8065000Y-25572500D01*
X8222908Y-25545408D02*
X8222908Y-25414592D01*
X8092092Y-25414592D01*
X8092092Y-25545408D01*
X8222908Y-25545408D01*
D11*
X8612381Y-25570476D02*
X8498095Y-25570476D01*
X8555238Y-25570476D02*
X8555238Y-25370476D01*
X8536190Y-25399048D01*
X8517143Y-25418095D01*
X8498095Y-25427619D01*
X8698095Y-25551428D02*
X8707619Y-25560952D01*
X8698095Y-25570476D01*
X8688571Y-25560952D01*
X8698095Y-25551428D01*
X8698095Y-25570476D01*
X8821905Y-25456190D02*
X8802857Y-25446667D01*
X8793333Y-25437143D01*
X8783810Y-25418095D01*
X8783810Y-25408571D01*
X8793333Y-25389524D01*
X8802857Y-25380000D01*
X8821905Y-25370476D01*
X8860000Y-25370476D01*
X8879048Y-25380000D01*
X8888571Y-25389524D01*
X8898095Y-25408571D01*
X8898095Y-25418095D01*
X8888571Y-25437143D01*
X8879048Y-25446667D01*
X8860000Y-25456190D01*
X8821905Y-25456190D01*
X8802857Y-25465714D01*
X8793333Y-25475238D01*
X8783810Y-25494286D01*
X8783810Y-25532381D01*
X8793333Y-25551428D01*
X8802857Y-25560952D01*
X8821905Y-25570476D01*
X8860000Y-25570476D01*
X8879048Y-25560952D01*
X8888571Y-25551428D01*
X8898095Y-25532381D01*
X8898095Y-25494286D01*
X8888571Y-25475238D01*
X8879048Y-25465714D01*
X8860000Y-25456190D01*
X9079048Y-25370476D02*
X8983810Y-25370476D01*
X8974286Y-25465714D01*
X8983810Y-25456190D01*
X9002857Y-25446667D01*
X9050476Y-25446667D01*
X9069524Y-25456190D01*
X9079048Y-25465714D01*
X9088571Y-25484762D01*
X9088571Y-25532381D01*
X9079048Y-25551428D01*
X9069524Y-25560952D01*
X9050476Y-25570476D01*
X9002857Y-25570476D01*
X8983810Y-25560952D01*
X8974286Y-25551428D01*
X9212381Y-25370476D02*
X9231429Y-25370476D01*
X9250476Y-25380000D01*
X9260000Y-25389524D01*
X9269524Y-25408571D01*
X9279048Y-25446667D01*
X9279048Y-25494286D01*
X9269524Y-25532381D01*
X9260000Y-25551428D01*
X9250476Y-25560952D01*
X9231429Y-25570476D01*
X9212381Y-25570476D01*
X9193333Y-25560952D01*
X9183810Y-25551428D01*
X9174286Y-25532381D01*
X9164762Y-25494286D01*
X9164762Y-25446667D01*
X9174286Y-25408571D01*
X9183810Y-25389524D01*
X9193333Y-25380000D01*
X9212381Y-25370476D01*
X9364762Y-25570476D02*
X9364762Y-25437143D01*
X9364762Y-25456190D02*
X9374286Y-25446667D01*
X9393333Y-25437143D01*
X9421905Y-25437143D01*
X9440952Y-25446667D01*
X9450476Y-25465714D01*
X9450476Y-25570476D01*
X9450476Y-25465714D02*
X9460000Y-25446667D01*
X9479048Y-25437143D01*
X9507619Y-25437143D01*
X9526667Y-25446667D01*
X9536190Y-25465714D01*
X9536190Y-25570476D01*
X9631429Y-25570476D02*
X9631429Y-25437143D01*
X9631429Y-25456190D02*
X9640952Y-25446667D01*
X9660000Y-25437143D01*
X9688571Y-25437143D01*
X9707619Y-25446667D01*
X9717143Y-25465714D01*
X9717143Y-25570476D01*
X9717143Y-25465714D02*
X9726667Y-25446667D01*
X9745714Y-25437143D01*
X9774286Y-25437143D01*
X9793333Y-25446667D01*
X9802857Y-25465714D01*
X9802857Y-25570476D01*
X10193333Y-25360952D02*
X10021905Y-25618095D01*
X10450476Y-25370476D02*
X10469524Y-25370476D01*
X10488571Y-25380000D01*
X10498095Y-25389524D01*
X10507619Y-25408571D01*
X10517143Y-25446667D01*
X10517143Y-25494286D01*
X10507619Y-25532381D01*
X10498095Y-25551428D01*
X10488571Y-25560952D01*
X10469524Y-25570476D01*
X10450476Y-25570476D01*
X10431429Y-25560952D01*
X10421905Y-25551428D01*
X10412381Y-25532381D01*
X10402857Y-25494286D01*
X10402857Y-25446667D01*
X10412381Y-25408571D01*
X10421905Y-25389524D01*
X10431429Y-25380000D01*
X10450476Y-25370476D01*
X10602857Y-25551428D02*
X10612381Y-25560952D01*
X10602857Y-25570476D01*
X10593333Y-25560952D01*
X10602857Y-25551428D01*
X10602857Y-25570476D01*
X10736190Y-25370476D02*
X10755238Y-25370476D01*
X10774286Y-25380000D01*
X10783810Y-25389524D01*
X10793333Y-25408571D01*
X10802857Y-25446667D01*
X10802857Y-25494286D01*
X10793333Y-25532381D01*
X10783810Y-25551428D01*
X10774286Y-25560952D01*
X10755238Y-25570476D01*
X10736190Y-25570476D01*
X10717143Y-25560952D01*
X10707619Y-25551428D01*
X10698095Y-25532381D01*
X10688571Y-25494286D01*
X10688571Y-25446667D01*
X10698095Y-25408571D01*
X10707619Y-25389524D01*
X10717143Y-25380000D01*
X10736190Y-25370476D01*
X10869524Y-25370476D02*
X11002857Y-25370476D01*
X10917143Y-25570476D01*
X11069524Y-25389524D02*
X11079048Y-25380000D01*
X11098095Y-25370476D01*
X11145714Y-25370476D01*
X11164762Y-25380000D01*
X11174286Y-25389524D01*
X11183810Y-25408571D01*
X11183810Y-25427619D01*
X11174286Y-25456190D01*
X11060000Y-25570476D01*
X11183810Y-25570476D01*
X11298095Y-25456190D02*
X11279048Y-25446667D01*
X11269524Y-25437143D01*
X11260000Y-25418095D01*
X11260000Y-25408571D01*
X11269524Y-25389524D01*
X11279048Y-25380000D01*
X11298095Y-25370476D01*
X11336190Y-25370476D01*
X11355238Y-25380000D01*
X11364762Y-25389524D01*
X11374286Y-25408571D01*
X11374286Y-25418095D01*
X11364762Y-25437143D01*
X11355238Y-25446667D01*
X11336190Y-25456190D01*
X11298095Y-25456190D01*
X11279048Y-25465714D01*
X11269524Y-25475238D01*
X11260000Y-25494286D01*
X11260000Y-25532381D01*
X11269524Y-25551428D01*
X11279048Y-25560952D01*
X11298095Y-25570476D01*
X11336190Y-25570476D01*
X11355238Y-25560952D01*
X11364762Y-25551428D01*
X11374286Y-25532381D01*
X11374286Y-25494286D01*
X11364762Y-25475238D01*
X11355238Y-25465714D01*
X11336190Y-25456190D01*
X11450476Y-25370476D02*
X11450476Y-25408571D01*
X11526667Y-25370476D02*
X11526667Y-25408571D01*
X11821905Y-25646667D02*
X11812381Y-25637143D01*
X11793333Y-25608571D01*
X11783809Y-25589524D01*
X11774286Y-25560952D01*
X11764762Y-25513333D01*
X11764762Y-25475238D01*
X11774286Y-25427619D01*
X11783809Y-25399048D01*
X11793333Y-25380000D01*
X11812381Y-25351428D01*
X11821905Y-25341905D01*
X12002857Y-25570476D02*
X11888571Y-25570476D01*
X11945714Y-25570476D02*
X11945714Y-25370476D01*
X11926667Y-25399048D01*
X11907619Y-25418095D01*
X11888571Y-25427619D01*
X12079048Y-25389524D02*
X12088571Y-25380000D01*
X12107619Y-25370476D01*
X12155238Y-25370476D01*
X12174286Y-25380000D01*
X12183809Y-25389524D01*
X12193333Y-25408571D01*
X12193333Y-25427619D01*
X12183809Y-25456190D01*
X12069524Y-25570476D01*
X12193333Y-25570476D01*
X12431428Y-25570476D02*
X12431428Y-25370476D01*
X12517143Y-25570476D02*
X12517143Y-25465714D01*
X12507619Y-25446667D01*
X12488571Y-25437143D01*
X12460000Y-25437143D01*
X12440952Y-25446667D01*
X12431428Y-25456190D01*
X12640952Y-25570476D02*
X12621905Y-25560952D01*
X12612381Y-25551428D01*
X12602857Y-25532381D01*
X12602857Y-25475238D01*
X12612381Y-25456190D01*
X12621905Y-25446667D01*
X12640952Y-25437143D01*
X12669524Y-25437143D01*
X12688571Y-25446667D01*
X12698095Y-25456190D01*
X12707619Y-25475238D01*
X12707619Y-25532381D01*
X12698095Y-25551428D01*
X12688571Y-25560952D01*
X12669524Y-25570476D01*
X12640952Y-25570476D01*
X12821905Y-25570476D02*
X12802857Y-25560952D01*
X12793333Y-25541905D01*
X12793333Y-25370476D01*
X12974286Y-25560952D02*
X12955238Y-25570476D01*
X12917143Y-25570476D01*
X12898095Y-25560952D01*
X12888571Y-25541905D01*
X12888571Y-25465714D01*
X12898095Y-25446667D01*
X12917143Y-25437143D01*
X12955238Y-25437143D01*
X12974286Y-25446667D01*
X12983809Y-25465714D01*
X12983809Y-25484762D01*
X12888571Y-25503809D01*
X13060000Y-25560952D02*
X13079048Y-25570476D01*
X13117143Y-25570476D01*
X13136190Y-25560952D01*
X13145714Y-25541905D01*
X13145714Y-25532381D01*
X13136190Y-25513333D01*
X13117143Y-25503809D01*
X13088571Y-25503809D01*
X13069524Y-25494286D01*
X13060000Y-25475238D01*
X13060000Y-25465714D01*
X13069524Y-25446667D01*
X13088571Y-25437143D01*
X13117143Y-25437143D01*
X13136190Y-25446667D01*
X13212381Y-25646667D02*
X13221905Y-25637143D01*
X13240952Y-25608571D01*
X13250476Y-25589524D01*
X13260000Y-25560952D01*
X13269524Y-25513333D01*
X13269524Y-25475238D01*
X13260000Y-25427619D01*
X13250476Y-25399048D01*
X13240952Y-25380000D01*
X13221905Y-25351428D01*
X13212381Y-25341905D01*
M02*
