  0
SECTION
  2
HEADER
  9
$ANGBASE
  50
0.0
  9
$ANGDIR
  70
1
  9
$MEASUREMENT
  70
1
  0
ENDSEC
  0
SECTION
  2
TABLES
  0
TABLE
  2
LTYPE
  70
4
  0
LTYPE
  5
40F
  2
CONTINUOUS
  70
0
  3
Solid line
  72
65
  73
0
  40
0.0
  0
LTYPE
  5
410
  2
DASHDOT
 70
0
  3
Dash Dot ____ _ ____ _
 72
65
 73
4
 40
2.0
 49
1.25
 49
-0.25
 49
0.25
 49
-0.25
  0
LTYPE
  5
411
  2
DASHED
 70
0
  3
Dashed __ __ __ __ __
 72
65
 73
2
 40
0.75
 49
0.5
 49
-0.25
  0
LTYPE
  5
43B
  2
DOTTED
 70
0
  3
Dotted .  .  .  .
 72
65
 73
2
 40
0.2
 49
0.0
 49
-0.2
  0
ENDTAB
  0
TABLE
  2
STYLE
  70
4
  0
STYLE
  2
KICAD
  70
0
  40
0
  41
1
  42
1
  50
0
  71
0
  3
isocp.shx
  0
STYLE
  2
KICADB
  70
0
  40
0
  41
1
  42
1
  50
0
  71
0
  3
isocp.shx
  0
STYLE
  2
KICADI
  70
0
  40
0
  41
1
  42
1
  50
15
  71
0
  3
isocp.shx
  0
STYLE
  2
KICADBI
  70
0
  40
0
  41
1
  42
1
  50
15
  71
0
  3
isocp.shx
  0
ENDTAB
  0
TABLE
  2
LAYER
  70
1
  0
LAYER
  2
BLACK
  70
0
  62
7
  6
CONTINUOUS
  0
ENDTAB
  0
ENDSEC
  0
SECTION
  2
ENTITIES
0
LINE
8
BLACK
6
CONTINUOUS
10
220.3
20
-130.189
11
220.304
21
-130.189
0
LINE
8
BLACK
6
CONTINUOUS
10
220.304
20
-130.189
11
220.306
21
-130.19
0
LINE
8
BLACK
6
CONTINUOUS
10
220.306
20
-130.19
11
220.315
21
-130.192
0
LINE
8
BLACK
6
CONTINUOUS
10
220.315
20
-130.192
11
220.33
21
-130.205
0
LINE
8
BLACK
6
CONTINUOUS
10
220.33
20
-130.205
11
220.348
21
-130.215
0
LINE
8
BLACK
6
CONTINUOUS
10
220.348
20
-130.215
11
220.35
21
-130.221
0
LINE
8
BLACK
6
CONTINUOUS
10
220.35
20
-130.221
11
220.354
21
-130.225
0
LINE
8
BLACK
6
CONTINUOUS
10
220.354
20
-130.225
11
220.358
21
-130.245
0
LINE
8
BLACK
6
CONTINUOUS
10
220.358
20
-130.245
11
220.364
21
-130.264
0
LINE
8
BLACK
6
CONTINUOUS
10
220.364
20
-130.264
11
220.362
21
-130.27
0
LINE
8
BLACK
6
CONTINUOUS
10
220.362
20
-130.27
11
220.363
21
-130.275
0
LINE
8
BLACK
6
CONTINUOUS
10
220.363
20
-130.275
11
220.353
21
-130.293
0
LINE
8
BLACK
6
CONTINUOUS
10
220.353
20
-130.293
11
220.346
21
-130.312
0
LINE
8
BLACK
6
CONTINUOUS
10
220.346
20
-130.312
11
220.118
21
-130.572
0
LINE
8
BLACK
6
CONTINUOUS
10
220.118
20
-130.572
11
220.124
21
-130.573
0
LINE
8
BLACK
6
CONTINUOUS
10
220.124
20
-130.573
11
220.128
21
-130.576
0
LINE
8
BLACK
6
CONTINUOUS
10
220.128
20
-130.576
11
220.132
21
-130.576
0
LINE
8
BLACK
6
CONTINUOUS
10
220.132
20
-130.576
11
220.228
21
-130.624
0
LINE
8
BLACK
6
CONTINUOUS
10
220.228
20
-130.624
11
220.246
21
-130.637
0
LINE
8
BLACK
6
CONTINUOUS
10
220.246
20
-130.637
11
220.247
21
-130.638
0
LINE
8
BLACK
6
CONTINUOUS
10
220.247
20
-130.638
11
220.295
21
-130.686
0
LINE
8
BLACK
6
CONTINUOUS
10
220.295
20
-130.686
11
220.308
21
-130.704
0
LINE
8
BLACK
6
CONTINUOUS
10
220.308
20
-130.704
11
220.309
21
-130.705
0
LINE
8
BLACK
6
CONTINUOUS
10
220.309
20
-130.705
11
220.356
21
-130.8
0
LINE
8
BLACK
6
CONTINUOUS
10
220.356
20
-130.8
11
220.364
21
-130.825
0
LINE
8
BLACK
6
CONTINUOUS
10
220.364
20
-130.825
11
220.363
21
-130.83
0
LINE
8
BLACK
6
CONTINUOUS
10
220.363
20
-130.83
11
220.364
21
-130.834
0
LINE
8
BLACK
6
CONTINUOUS
10
220.364
20
-130.834
11
220.364
21
-131.072
0
LINE
8
BLACK
6
CONTINUOUS
10
220.364
20
-131.072
11
220.36
21
-131.098
0
LINE
8
BLACK
6
CONTINUOUS
10
220.36
20
-131.098
11
220.357
21
-131.101
0
LINE
8
BLACK
6
CONTINUOUS
10
220.357
20
-131.101
11
220.356
21
-131.105
0
LINE
8
BLACK
6
CONTINUOUS
10
220.356
20
-131.105
11
220.309
21
-131.201
0
LINE
8
BLACK
6
CONTINUOUS
10
220.309
20
-131.201
11
220.295
21
-131.219
0
LINE
8
BLACK
6
CONTINUOUS
10
220.295
20
-131.219
11
220.295
21
-131.22
0
LINE
8
BLACK
6
CONTINUOUS
10
220.295
20
-131.22
11
220.247
21
-131.268
0
LINE
8
BLACK
6
CONTINUOUS
10
220.247
20
-131.268
11
220.229
21
-131.281
0
LINE
8
BLACK
6
CONTINUOUS
10
220.229
20
-131.281
11
220.228
21
-131.282
0
LINE
8
BLACK
6
CONTINUOUS
10
220.228
20
-131.282
11
220.132
21
-131.329
0
LINE
8
BLACK
6
CONTINUOUS
10
220.132
20
-131.329
11
220.107
21
-131.337
0
LINE
8
BLACK
6
CONTINUOUS
10
220.107
20
-131.337
11
220.103
21
-131.336
0
LINE
8
BLACK
6
CONTINUOUS
10
220.103
20
-131.336
11
220.099
21
-131.337
0
LINE
8
BLACK
6
CONTINUOUS
10
220.099
20
-131.337
11
219.813
21
-131.337
0
LINE
8
BLACK
6
CONTINUOUS
10
219.813
20
-131.337
11
219.787
21
-131.333
0
LINE
8
BLACK
6
CONTINUOUS
10
219.787
20
-131.333
11
219.784
21
-131.33
0
LINE
8
BLACK
6
CONTINUOUS
10
219.784
20
-131.33
11
219.78
21
-131.329
0
LINE
8
BLACK
6
CONTINUOUS
10
219.78
20
-131.329
11
219.684
21
-131.282
0
LINE
8
BLACK
6
CONTINUOUS
10
219.684
20
-131.282
11
219.666
21
-131.268
0
LINE
8
BLACK
6
CONTINUOUS
10
219.666
20
-131.268
11
219.665
21
-131.268
0
LINE
8
BLACK
6
CONTINUOUS
10
219.665
20
-131.268
11
219.617
21
-131.22
0
LINE
8
BLACK
6
CONTINUOUS
10
219.617
20
-131.22
11
219.602
21
-131.199
0
LINE
8
BLACK
6
CONTINUOUS
10
219.602
20
-131.199
11
219.598
21
-131.148
0
LINE
8
BLACK
6
CONTINUOUS
10
219.598
20
-131.148
11
219.627
21
-131.106
0
LINE
8
BLACK
6
CONTINUOUS
10
219.627
20
-131.106
11
219.677
21
-131.092
0
LINE
8
BLACK
6
CONTINUOUS
10
219.677
20
-131.092
11
219.723
21
-131.114
0
LINE
8
BLACK
6
CONTINUOUS
10
219.723
20
-131.114
11
219.762
21
-131.153
0
LINE
8
BLACK
6
CONTINUOUS
10
219.762
20
-131.153
11
219.831
21
-131.187
0
LINE
8
BLACK
6
CONTINUOUS
10
219.831
20
-131.187
11
220.081
21
-131.187
0
LINE
8
BLACK
6
CONTINUOUS
10
220.081
20
-131.187
11
220.15
21
-131.153
0
LINE
8
BLACK
6
CONTINUOUS
10
220.15
20
-131.153
11
220.18
21
-131.123
0
LINE
8
BLACK
6
CONTINUOUS
10
220.18
20
-131.123
11
220.214
21
-131.054
0
LINE
8
BLACK
6
CONTINUOUS
10
220.214
20
-131.054
11
220.214
21
-130.852
0
LINE
8
BLACK
6
CONTINUOUS
10
220.214
20
-130.852
11
220.18
21
-130.783
0
LINE
8
BLACK
6
CONTINUOUS
10
220.18
20
-130.783
11
220.15
21
-130.753
0
LINE
8
BLACK
6
CONTINUOUS
10
220.15
20
-130.753
11
220.081
21
-130.718
0
LINE
8
BLACK
6
CONTINUOUS
10
220.081
20
-130.718
11
219.956
21
-130.718
0
LINE
8
BLACK
6
CONTINUOUS
10
219.956
20
-130.718
11
219.945
21
-130.716
0
LINE
8
BLACK
6
CONTINUOUS
10
219.945
20
-130.716
11
219.941
21
-130.717
0
LINE
8
BLACK
6
CONTINUOUS
10
219.941
20
-130.717
11
219.939
21
-130.715
0
LINE
8
BLACK
6
CONTINUOUS
10
219.939
20
-130.715
11
219.93
21
-130.714
0
LINE
8
BLACK
6
CONTINUOUS
10
219.93
20
-130.714
11
219.915
21
-130.701
0
LINE
8
BLACK
6
CONTINUOUS
10
219.915
20
-130.701
11
219.898
21
-130.69
0
LINE
8
BLACK
6
CONTINUOUS
10
219.898
20
-130.69
11
219.896
21
-130.685
0
LINE
8
BLACK
6
CONTINUOUS
10
219.896
20
-130.685
11
219.891
21
-130.681
0
LINE
8
BLACK
6
CONTINUOUS
10
219.891
20
-130.681
11
219.887
21
-130.661
0
LINE
8
BLACK
6
CONTINUOUS
10
219.887
20
-130.661
11
219.881
21
-130.642
0
LINE
8
BLACK
6
CONTINUOUS
10
219.881
20
-130.642
11
219.883
21
-130.636
0
LINE
8
BLACK
6
CONTINUOUS
10
219.883
20
-130.636
11
219.882
21
-130.63
0
LINE
8
BLACK
6
CONTINUOUS
10
219.882
20
-130.63
11
219.892
21
-130.613
0
LINE
8
BLACK
6
CONTINUOUS
10
219.892
20
-130.613
11
219.9
21
-130.594
0
LINE
8
BLACK
6
CONTINUOUS
10
219.9
20
-130.594
11
220.124
21
-130.337
0
LINE
8
BLACK
6
CONTINUOUS
10
220.124
20
-130.337
11
219.67
21
-130.337
0
LINE
8
BLACK
6
CONTINUOUS
10
219.67
20
-130.337
11
219.645
21
-130.333
0
LINE
8
BLACK
6
CONTINUOUS
10
219.645
20
-130.333
11
219.605
21
-130.3
0
LINE
8
BLACK
6
CONTINUOUS
10
219.605
20
-130.3
11
219.596
21
-130.249
0
LINE
8
BLACK
6
CONTINUOUS
10
219.596
20
-130.249
11
219.622
21
-130.205
0
LINE
8
BLACK
6
CONTINUOUS
10
219.622
20
-130.205
11
219.67
21
-130.187
0
LINE
8
BLACK
6
CONTINUOUS
10
219.67
20
-130.187
11
220.289
21
-130.187
0
LINE
8
BLACK
6
CONTINUOUS
10
220.289
20
-130.187
11
220.3
21
-130.189
0
LINE
8
BLACK
6
CONTINUOUS
10
218.805
20
-130.198
11
218.837
21
-130.239
0
LINE
8
BLACK
6
CONTINUOUS
10
218.837
20
-130.239
11
219.099
21
-131.025
0
LINE
8
BLACK
6
CONTINUOUS
10
219.099
20
-131.025
11
219.361
21
-130.239
0
LINE
8
BLACK
6
CONTINUOUS
10
219.361
20
-130.239
11
219.373
21
-130.216
0
LINE
8
BLACK
6
CONTINUOUS
10
219.373
20
-130.216
11
219.417
21
-130.189
0
LINE
8
BLACK
6
CONTINUOUS
10
219.417
20
-130.189
11
219.468
21
-130.196
0
LINE
8
BLACK
6
CONTINUOUS
10
219.468
20
-130.196
11
219.502
21
-130.235
0
LINE
8
BLACK
6
CONTINUOUS
10
219.502
20
-130.235
11
219.503
21
-130.286
0
LINE
8
BLACK
6
CONTINUOUS
10
219.503
20
-130.286
11
219.17
21
-131.286
0
LINE
8
BLACK
6
CONTINUOUS
10
219.17
20
-131.286
11
219.158
21
-131.309
0
LINE
8
BLACK
6
CONTINUOUS
10
219.158
20
-131.309
11
219.156
21
-131.31
0
LINE
8
BLACK
6
CONTINUOUS
10
219.156
20
-131.31
11
219.155
21
-131.312
0
LINE
8
BLACK
6
CONTINUOUS
10
219.155
20
-131.312
11
219.134
21
-131.323
0
LINE
8
BLACK
6
CONTINUOUS
10
219.134
20
-131.323
11
219.114
21
-131.336
0
LINE
8
BLACK
6
CONTINUOUS
10
219.114
20
-131.336
11
219.112
21
-131.336
0
LINE
8
BLACK
6
CONTINUOUS
10
219.112
20
-131.336
11
219.11
21
-131.337
0
LINE
8
BLACK
6
CONTINUOUS
10
219.11
20
-131.337
11
219.087
21
-131.332
0
LINE
8
BLACK
6
CONTINUOUS
10
219.087
20
-131.332
11
219.063
21
-131.328
0
LINE
8
BLACK
6
CONTINUOUS
10
219.063
20
-131.328
11
219.062
21
-131.327
0
LINE
8
BLACK
6
CONTINUOUS
10
219.062
20
-131.327
11
219.06
21
-131.326
0
LINE
8
BLACK
6
CONTINUOUS
10
219.06
20
-131.326
11
219.045
21
-131.308
0
LINE
8
BLACK
6
CONTINUOUS
10
219.045
20
-131.308
11
219.029
21
-131.29
0
LINE
8
BLACK
6
CONTINUOUS
10
219.029
20
-131.29
11
219.029
21
-131.288
0
LINE
8
BLACK
6
CONTINUOUS
10
219.029
20
-131.288
11
219.028
21
-131.286
0
LINE
8
BLACK
6
CONTINUOUS
10
219.028
20
-131.286
11
218.694
21
-130.286
0
LINE
8
BLACK
6
CONTINUOUS
10
218.694
20
-130.286
11
218.691
21
-130.26
0
LINE
8
BLACK
6
CONTINUOUS
10
218.691
20
-130.26
11
218.709
21
-130.213
0
LINE
8
BLACK
6
CONTINUOUS
10
218.709
20
-130.213
11
218.754
21
-130.188
0
LINE
8
BLACK
6
CONTINUOUS
10
218.754
20
-130.188
11
218.805
21
-130.198
0
LINE
8
BLACK
6
CONTINUOUS
10
218.315
20
-130.192
11
218.318
21
-130.195
0
LINE
8
BLACK
6
CONTINUOUS
10
218.318
20
-130.195
11
218.323
21
-130.195
0
LINE
8
BLACK
6
CONTINUOUS
10
218.323
20
-130.195
11
218.418
21
-130.243
0
LINE
8
BLACK
6
CONTINUOUS
10
218.418
20
-130.243
11
218.436
21
-130.256
0
LINE
8
BLACK
6
CONTINUOUS
10
218.436
20
-130.256
11
218.438
21
-130.257
0
LINE
8
BLACK
6
CONTINUOUS
10
218.438
20
-130.257
11
218.485
21
-130.305
0
LINE
8
BLACK
6
CONTINUOUS
10
218.485
20
-130.305
11
218.498
21
-130.323
0
LINE
8
BLACK
6
CONTINUOUS
10
218.498
20
-130.323
11
218.499
21
-130.324
0
LINE
8
BLACK
6
CONTINUOUS
10
218.499
20
-130.324
11
218.547
21
-130.419
0
LINE
8
BLACK
6
CONTINUOUS
10
218.547
20
-130.419
11
218.554
21
-130.444
0
LINE
8
BLACK
6
CONTINUOUS
10
218.554
20
-130.444
11
218.553
21
-130.449
0
LINE
8
BLACK
6
CONTINUOUS
10
218.553
20
-130.449
11
218.555
21
-130.453
0
LINE
8
BLACK
6
CONTINUOUS
10
218.555
20
-130.453
11
218.555
21
-130.596
0
LINE
8
BLACK
6
CONTINUOUS
10
218.555
20
-130.596
11
218.55
21
-130.621
0
LINE
8
BLACK
6
CONTINUOUS
10
218.55
20
-130.621
11
218.547
21
-130.625
0
LINE
8
BLACK
6
CONTINUOUS
10
218.547
20
-130.625
11
218.547
21
-130.629
0
LINE
8
BLACK
6
CONTINUOUS
10
218.547
20
-130.629
11
218.499
21
-130.724
0
LINE
8
BLACK
6
CONTINUOUS
10
218.499
20
-130.724
11
218.486
21
-130.743
0
LINE
8
BLACK
6
CONTINUOUS
10
218.486
20
-130.743
11
218.485
21
-130.744
0
LINE
8
BLACK
6
CONTINUOUS
10
218.485
20
-130.744
11
218.438
21
-130.792
0
LINE
8
BLACK
6
CONTINUOUS
10
218.438
20
-130.792
11
218.419
21
-130.804
0
LINE
8
BLACK
6
CONTINUOUS
10
218.419
20
-130.804
11
218.418
21
-130.806
0
LINE
8
BLACK
6
CONTINUOUS
10
218.418
20
-130.806
11
218.323
21
-130.853
0
LINE
8
BLACK
6
CONTINUOUS
10
218.323
20
-130.853
11
218.298
21
-130.861
0
LINE
8
BLACK
6
CONTINUOUS
10
218.298
20
-130.861
11
218.293
21
-130.86
0
LINE
8
BLACK
6
CONTINUOUS
10
218.293
20
-130.86
11
218.29
21
-130.861
0
LINE
8
BLACK
6
CONTINUOUS
10
218.29
20
-130.861
11
218.541
21
-131.219
0
LINE
8
BLACK
6
CONTINUOUS
10
218.541
20
-131.219
11
218.552
21
-131.243
0
LINE
8
BLACK
6
CONTINUOUS
10
218.552
20
-131.243
11
218.548
21
-131.294
0
LINE
8
BLACK
6
CONTINUOUS
10
218.548
20
-131.294
11
218.511
21
-131.33
0
LINE
8
BLACK
6
CONTINUOUS
10
218.511
20
-131.33
11
218.46
21
-131.335
0
LINE
8
BLACK
6
CONTINUOUS
10
218.46
20
-131.335
11
218.418
21
-131.305
0
LINE
8
BLACK
6
CONTINUOUS
10
218.418
20
-131.305
11
218.107
21
-130.861
0
LINE
8
BLACK
6
CONTINUOUS
10
218.107
20
-130.861
11
217.983
21
-130.861
0
LINE
8
BLACK
6
CONTINUOUS
10
217.983
20
-130.861
11
217.983
21
-131.262
0
LINE
8
BLACK
6
CONTINUOUS
10
217.983
20
-131.262
11
217.979
21
-131.288
0
LINE
8
BLACK
6
CONTINUOUS
10
217.979
20
-131.288
11
217.946
21
-131.327
0
LINE
8
BLACK
6
CONTINUOUS
10
217.946
20
-131.327
11
217.895
21
-131.336
0
LINE
8
BLACK
6
CONTINUOUS
10
217.895
20
-131.336
11
217.851
21
-131.311
0
LINE
8
BLACK
6
CONTINUOUS
10
217.851
20
-131.311
11
217.833
21
-131.262
0
LINE
8
BLACK
6
CONTINUOUS
10
217.833
20
-131.262
11
217.833
21
-130.262
0
LINE
8
BLACK
6
CONTINUOUS
10
217.833
20
-130.262
11
217.835
21
-130.253
0
LINE
8
BLACK
6
CONTINUOUS
10
217.835
20
-130.253
11
217.834
21
-130.249
0
LINE
8
BLACK
6
CONTINUOUS
10
217.834
20
-130.249
11
217.836
21
-130.246
0
LINE
8
BLACK
6
CONTINUOUS
10
217.836
20
-130.246
11
217.838
21
-130.237
0
LINE
8
BLACK
6
CONTINUOUS
10
217.838
20
-130.237
11
217.85
21
-130.222
0
LINE
8
BLACK
6
CONTINUOUS
10
217.85
20
-130.222
11
217.86
21
-130.205
0
LINE
8
BLACK
6
CONTINUOUS
10
217.86
20
-130.205
11
217.866
21
-130.203
0
LINE
8
BLACK
6
CONTINUOUS
10
217.866
20
-130.203
11
217.871
21
-130.197
0
LINE
8
BLACK
6
CONTINUOUS
10
217.871
20
-130.197
11
217.89
21
-130.194
0
LINE
8
BLACK
6
CONTINUOUS
10
217.89
20
-130.194
11
217.908
21
-130.187
0
LINE
8
BLACK
6
CONTINUOUS
10
217.908
20
-130.187
11
218.289
21
-130.187
0
LINE
8
BLACK
6
CONTINUOUS
10
218.289
20
-130.187
11
218.315
21
-130.192
0
LINE
8
BLACK
6
CONTINUOUS
10
217.983
20
-130.337
11
217.983
21
-130.711
0
LINE
8
BLACK
6
CONTINUOUS
10
217.983
20
-130.711
11
218.272
21
-130.711
0
LINE
8
BLACK
6
CONTINUOUS
10
218.272
20
-130.711
11
218.34
21
-130.677
0
LINE
8
BLACK
6
CONTINUOUS
10
218.34
20
-130.677
11
218.371
21
-130.647
0
LINE
8
BLACK
6
CONTINUOUS
10
218.371
20
-130.647
11
218.405
21
-130.578
0
LINE
8
BLACK
6
CONTINUOUS
10
218.405
20
-130.578
11
218.405
21
-130.471
0
LINE
8
BLACK
6
CONTINUOUS
10
218.405
20
-130.471
11
218.371
21
-130.402
0
LINE
8
BLACK
6
CONTINUOUS
10
218.371
20
-130.402
11
218.34
21
-130.372
0
LINE
8
BLACK
6
CONTINUOUS
10
218.34
20
-130.372
11
218.272
21
-130.337
0
LINE
8
BLACK
6
CONTINUOUS
10
218.272
20
-130.337
11
217.983
21
-130.337
0
LINE
8
BLACK
6
CONTINUOUS
10
226.492
20
-129.888
11
226.51
21
-129.93
0
LINE
8
BLACK
6
CONTINUOUS
10
226.51
20
-129.93
11
226.492
21
-129.972
0
LINE
8
BLACK
6
CONTINUOUS
10
226.492
20
-129.972
11
226.45
21
-129.99
0
LINE
8
BLACK
6
CONTINUOUS
10
226.45
20
-129.99
11
225.62
21
-129.99
0
LINE
8
BLACK
6
CONTINUOUS
10
225.62
20
-129.99
11
225.578
21
-129.972
0
LINE
8
BLACK
6
CONTINUOUS
10
225.578
20
-129.972
11
225.56
21
-129.93
0
LINE
8
BLACK
6
CONTINUOUS
10
225.56
20
-129.93
11
225.578
21
-129.888
0
LINE
8
BLACK
6
CONTINUOUS
10
225.578
20
-129.888
11
225.62
21
-129.87
0
LINE
8
BLACK
6
CONTINUOUS
10
225.62
20
-129.87
11
226.45
21
-129.87
0
LINE
8
BLACK
6
CONTINUOUS
10
226.45
20
-129.87
11
226.492
21
-129.888
0
LINE
8
BLACK
6
CONTINUOUS
10
228.128
20
-129.972
11
228.11
21
-129.93
0
LINE
8
BLACK
6
CONTINUOUS
10
228.11
20
-129.93
11
228.128
21
-129.888
0
LINE
8
BLACK
6
CONTINUOUS
10
228.128
20
-129.888
11
228.17
21
-129.87
0
LINE
8
BLACK
6
CONTINUOUS
10
228.17
20
-129.87
11
229.6
21
-129.87
0
LINE
8
BLACK
6
CONTINUOUS
10
229.6
20
-129.87
11
229.6
21
-125.21
0
LINE
8
BLACK
6
CONTINUOUS
10
229.6
20
-125.21
11
229.618
21
-125.168
0
LINE
8
BLACK
6
CONTINUOUS
10
229.618
20
-125.168
11
229.66
21
-125.15
0
LINE
8
BLACK
6
CONTINUOUS
10
229.66
20
-125.15
11
229.702
21
-125.168
0
LINE
8
BLACK
6
CONTINUOUS
10
229.702
20
-125.168
11
229.72
21
-125.21
0
LINE
8
BLACK
6
CONTINUOUS
10
229.72
20
-125.21
11
229.72
21
-129.93
0
LINE
8
BLACK
6
CONTINUOUS
10
229.72
20
-129.93
11
229.702
21
-129.972
0
LINE
8
BLACK
6
CONTINUOUS
10
229.702
20
-129.972
11
229.66
21
-129.99
0
LINE
8
BLACK
6
CONTINUOUS
10
229.66
20
-129.99
11
228.17
21
-129.99
0
LINE
8
BLACK
6
CONTINUOUS
10
228.17
20
-129.99
11
228.128
21
-129.972
0
LINE
8
BLACK
6
CONTINUOUS
10
219.952
20
-125.168
11
219.97
21
-125.21
0
LINE
8
BLACK
6
CONTINUOUS
10
219.97
20
-125.21
11
219.97
21
-129.87
0
LINE
8
BLACK
6
CONTINUOUS
10
219.97
20
-129.87
11
221.1
21
-129.87
0
LINE
8
BLACK
6
CONTINUOUS
10
221.1
20
-129.87
11
221.142
21
-129.888
0
LINE
8
BLACK
6
CONTINUOUS
10
221.142
20
-129.888
11
221.16
21
-129.93
0
LINE
8
BLACK
6
CONTINUOUS
10
221.16
20
-129.93
11
221.142
21
-129.972
0
LINE
8
BLACK
6
CONTINUOUS
10
221.142
20
-129.972
11
221.1
21
-129.99
0
LINE
8
BLACK
6
CONTINUOUS
10
221.1
20
-129.99
11
219.92
21
-129.99
0
LINE
8
BLACK
6
CONTINUOUS
10
219.92
20
-129.99
11
219.915
21
-129.988
0
LINE
8
BLACK
6
CONTINUOUS
10
219.915
20
-129.988
11
219.91
21
-129.99
0
LINE
8
BLACK
6
CONTINUOUS
10
219.91
20
-129.99
11
219.868
21
-129.972
0
LINE
8
BLACK
6
CONTINUOUS
10
219.868
20
-129.972
11
219.85
21
-129.93
0
LINE
8
BLACK
6
CONTINUOUS
10
219.85
20
-129.93
11
219.85
21
-125.21
0
LINE
8
BLACK
6
CONTINUOUS
10
219.85
20
-125.21
11
219.868
21
-125.168
0
LINE
8
BLACK
6
CONTINUOUS
10
219.868
20
-125.168
11
219.91
21
-125.15
0
LINE
8
BLACK
6
CONTINUOUS
10
219.91
20
-125.15
11
219.952
21
-125.168
0
LINE
8
BLACK
6
CONTINUOUS
10
224.042
20
-129.888
11
224.06
21
-129.93
0
LINE
8
BLACK
6
CONTINUOUS
10
224.06
20
-129.93
11
224.042
21
-129.972
0
LINE
8
BLACK
6
CONTINUOUS
10
224.042
20
-129.972
11
224
21
-129.99
0
LINE
8
BLACK
6
CONTINUOUS
10
224
20
-129.99
11
223.47
21
-129.99
0
LINE
8
BLACK
6
CONTINUOUS
10
223.47
20
-129.99
11
223.428
21
-129.972
0
LINE
8
BLACK
6
CONTINUOUS
10
223.428
20
-129.972
11
223.41
21
-129.93
0
LINE
8
BLACK
6
CONTINUOUS
10
223.41
20
-129.93
11
223.428
21
-129.888
0
LINE
8
BLACK
6
CONTINUOUS
10
223.428
20
-129.888
11
223.47
21
-129.87
0
LINE
8
BLACK
6
CONTINUOUS
10
223.47
20
-129.87
11
224
21
-129.87
0
LINE
8
BLACK
6
CONTINUOUS
10
224
20
-129.87
11
224.042
21
-129.888
0
LINE
8
BLACK
6
CONTINUOUS
10
106.948
20
-129.582
11
106.93
21
-129.54
0
LINE
8
BLACK
6
CONTINUOUS
10
106.93
20
-129.54
11
106.93
21
-116.84
0
LINE
8
BLACK
6
CONTINUOUS
10
106.93
20
-116.84
11
106.948
21
-116.798
0
LINE
8
BLACK
6
CONTINUOUS
10
106.948
20
-116.798
11
106.99
21
-116.78
0
LINE
8
BLACK
6
CONTINUOUS
10
106.99
20
-116.78
11
113.99
21
-116.78
0
LINE
8
BLACK
6
CONTINUOUS
10
113.99
20
-116.78
11
114.032
21
-116.798
0
LINE
8
BLACK
6
CONTINUOUS
10
114.032
20
-116.798
11
114.05
21
-116.84
0
LINE
8
BLACK
6
CONTINUOUS
10
114.05
20
-116.84
11
114.05
21
-129.54
0
LINE
8
BLACK
6
CONTINUOUS
10
114.05
20
-129.54
11
114.032
21
-129.582
0
LINE
8
BLACK
6
CONTINUOUS
10
114.032
20
-129.582
11
113.99
21
-129.6
0
LINE
8
BLACK
6
CONTINUOUS
10
113.99
20
-129.6
11
106.99
21
-129.6
0
LINE
8
BLACK
6
CONTINUOUS
10
106.99
20
-129.6
11
106.948
21
-129.582
0
LINE
8
BLACK
6
CONTINUOUS
10
107.05
20
-116.9
11
107.05
21
-129.48
0
LINE
8
BLACK
6
CONTINUOUS
10
107.05
20
-129.48
11
113.93
21
-129.48
0
LINE
8
BLACK
6
CONTINUOUS
10
113.93
20
-129.48
11
113.93
21
-116.9
0
LINE
8
BLACK
6
CONTINUOUS
10
113.93
20
-116.9
11
107.05
21
-116.9
0
LINE
8
BLACK
6
CONTINUOUS
10
183.148
20
-129.582
11
183.13
21
-129.54
0
LINE
8
BLACK
6
CONTINUOUS
10
183.13
20
-129.54
11
183.13
21
-116.84
0
LINE
8
BLACK
6
CONTINUOUS
10
183.13
20
-116.84
11
183.148
21
-116.798
0
LINE
8
BLACK
6
CONTINUOUS
10
183.148
20
-116.798
11
183.19
21
-116.78
0
LINE
8
BLACK
6
CONTINUOUS
10
183.19
20
-116.78
11
190.19
21
-116.78
0
LINE
8
BLACK
6
CONTINUOUS
10
190.19
20
-116.78
11
190.232
21
-116.798
0
LINE
8
BLACK
6
CONTINUOUS
10
190.232
20
-116.798
11
190.25
21
-116.84
0
LINE
8
BLACK
6
CONTINUOUS
10
190.25
20
-116.84
11
190.25
21
-129.54
0
LINE
8
BLACK
6
CONTINUOUS
10
190.25
20
-129.54
11
190.232
21
-129.582
0
LINE
8
BLACK
6
CONTINUOUS
10
190.232
20
-129.582
11
190.19
21
-129.6
0
LINE
8
BLACK
6
CONTINUOUS
10
190.19
20
-129.6
11
183.19
21
-129.6
0
LINE
8
BLACK
6
CONTINUOUS
10
183.19
20
-129.6
11
183.148
21
-129.582
0
LINE
8
BLACK
6
CONTINUOUS
10
183.25
20
-116.9
11
183.25
21
-129.48
0
LINE
8
BLACK
6
CONTINUOUS
10
183.25
20
-129.48
11
190.13
21
-129.48
0
LINE
8
BLACK
6
CONTINUOUS
10
190.13
20
-129.48
11
190.13
21
-116.9
0
LINE
8
BLACK
6
CONTINUOUS
10
190.13
20
-116.9
11
183.25
21
-116.9
0
LINE
8
BLACK
6
CONTINUOUS
10
229.702
20
-118.298
11
229.72
21
-118.34
0
LINE
8
BLACK
6
CONTINUOUS
10
229.72
20
-118.34
11
229.72
21
-121.4
0
LINE
8
BLACK
6
CONTINUOUS
10
229.72
20
-121.4
11
229.702
21
-121.442
0
LINE
8
BLACK
6
CONTINUOUS
10
229.702
20
-121.442
11
229.66
21
-121.46
0
LINE
8
BLACK
6
CONTINUOUS
10
229.66
20
-121.46
11
229.618
21
-121.442
0
LINE
8
BLACK
6
CONTINUOUS
10
229.618
20
-121.442
11
229.6
21
-121.4
0
LINE
8
BLACK
6
CONTINUOUS
10
229.6
20
-121.4
11
229.6
21
-118.4
0
LINE
8
BLACK
6
CONTINUOUS
10
229.6
20
-118.4
11
219.98
21
-118.4
0
LINE
8
BLACK
6
CONTINUOUS
10
219.98
20
-118.4
11
219.98
21
-121.4
0
LINE
8
BLACK
6
CONTINUOUS
10
219.98
20
-121.4
11
219.962
21
-121.442
0
LINE
8
BLACK
6
CONTINUOUS
10
219.962
20
-121.442
11
219.92
21
-121.46
0
LINE
8
BLACK
6
CONTINUOUS
10
219.92
20
-121.46
11
219.878
21
-121.442
0
LINE
8
BLACK
6
CONTINUOUS
10
219.878
20
-121.442
11
219.86
21
-121.4
0
LINE
8
BLACK
6
CONTINUOUS
10
219.86
20
-121.4
11
219.86
21
-118.34
0
LINE
8
BLACK
6
CONTINUOUS
10
219.86
20
-118.34
11
219.878
21
-118.298
0
LINE
8
BLACK
6
CONTINUOUS
10
219.878
20
-118.298
11
219.92
21
-118.28
0
LINE
8
BLACK
6
CONTINUOUS
10
219.92
20
-118.28
11
229.66
21
-118.28
0
LINE
8
BLACK
6
CONTINUOUS
10
229.66
20
-118.28
11
229.702
21
-118.298
0
LINE
8
BLACK
6
CONTINUOUS
10
109.607
20
-114.951
11
109.609
21
-114.951
0
LINE
8
BLACK
6
CONTINUOUS
10
109.609
20
-114.951
11
109.752
21
-114.999
0
LINE
8
BLACK
6
CONTINUOUS
10
109.752
20
-114.999
11
109.775
21
-115.011
0
LINE
8
BLACK
6
CONTINUOUS
10
109.775
20
-115.011
11
109.802
21
-115.055
0
LINE
8
BLACK
6
CONTINUOUS
10
109.802
20
-115.055
11
109.794
21
-115.106
0
LINE
8
BLACK
6
CONTINUOUS
10
109.794
20
-115.106
11
109.756
21
-115.14
0
LINE
8
BLACK
6
CONTINUOUS
10
109.756
20
-115.14
11
109.704
21
-115.141
0
LINE
8
BLACK
6
CONTINUOUS
10
109.704
20
-115.141
11
109.573
21
-115.097
0
LINE
8
BLACK
6
CONTINUOUS
10
109.573
20
-115.097
11
109.365
21
-115.097
0
LINE
8
BLACK
6
CONTINUOUS
10
109.365
20
-115.097
11
109.296
21
-115.132
0
LINE
8
BLACK
6
CONTINUOUS
10
109.296
20
-115.132
11
109.266
21
-115.162
0
LINE
8
BLACK
6
CONTINUOUS
10
109.266
20
-115.162
11
109.232
21
-115.231
0
LINE
8
BLACK
6
CONTINUOUS
10
109.232
20
-115.231
11
109.232
21
-115.29
0
LINE
8
BLACK
6
CONTINUOUS
10
109.232
20
-115.29
11
109.266
21
-115.359
0
LINE
8
BLACK
6
CONTINUOUS
10
109.266
20
-115.359
11
109.296
21
-115.389
0
LINE
8
BLACK
6
CONTINUOUS
10
109.296
20
-115.389
11
109.373
21
-115.428
0
LINE
8
BLACK
6
CONTINUOUS
10
109.373
20
-115.428
11
109.556
21
-115.473
0
LINE
8
BLACK
6
CONTINUOUS
10
109.556
20
-115.473
11
109.568
21
-115.479
0
LINE
8
BLACK
6
CONTINUOUS
10
109.568
20
-115.479
11
109.571
21
-115.479
0
LINE
8
BLACK
6
CONTINUOUS
10
109.571
20
-115.479
11
109.666
21
-115.527
0
LINE
8
BLACK
6
CONTINUOUS
10
109.666
20
-115.527
11
109.684
21
-115.54
0
LINE
8
BLACK
6
CONTINUOUS
10
109.684
20
-115.54
11
109.686
21
-115.541
0
LINE
8
BLACK
6
CONTINUOUS
10
109.686
20
-115.541
11
109.734
21
-115.588
0
LINE
8
BLACK
6
CONTINUOUS
10
109.734
20
-115.588
11
109.746
21
-115.607
0
LINE
8
BLACK
6
CONTINUOUS
10
109.746
20
-115.607
11
109.748
21
-115.608
0
LINE
8
BLACK
6
CONTINUOUS
10
109.748
20
-115.608
11
109.795
21
-115.703
0
LINE
8
BLACK
6
CONTINUOUS
10
109.795
20
-115.703
11
109.803
21
-115.728
0
LINE
8
BLACK
6
CONTINUOUS
10
109.803
20
-115.728
11
109.802
21
-115.732
0
LINE
8
BLACK
6
CONTINUOUS
10
109.802
20
-115.732
11
109.803
21
-115.737
0
LINE
8
BLACK
6
CONTINUOUS
10
109.803
20
-115.737
11
109.803
21
-115.832
0
LINE
8
BLACK
6
CONTINUOUS
10
109.803
20
-115.832
11
109.799
21
-115.858
0
LINE
8
BLACK
6
CONTINUOUS
10
109.799
20
-115.858
11
109.796
21
-115.861
0
LINE
8
BLACK
6
CONTINUOUS
10
109.796
20
-115.861
11
109.795
21
-115.865
0
LINE
8
BLACK
6
CONTINUOUS
10
109.795
20
-115.865
11
109.748
21
-115.961
0
LINE
8
BLACK
6
CONTINUOUS
10
109.748
20
-115.961
11
109.734
21
-115.979
0
LINE
8
BLACK
6
CONTINUOUS
10
109.734
20
-115.979
11
109.734
21
-115.98
0
LINE
8
BLACK
6
CONTINUOUS
10
109.734
20
-115.98
11
109.686
21
-116.028
0
LINE
8
BLACK
6
CONTINUOUS
10
109.686
20
-116.028
11
109.668
21
-116.041
0
LINE
8
BLACK
6
CONTINUOUS
10
109.668
20
-116.041
11
109.666
21
-116.042
0
LINE
8
BLACK
6
CONTINUOUS
10
109.666
20
-116.042
11
109.571
21
-116.089
0
LINE
8
BLACK
6
CONTINUOUS
10
109.571
20
-116.089
11
109.546
21
-116.097
0
LINE
8
BLACK
6
CONTINUOUS
10
109.546
20
-116.097
11
109.542
21
-116.096
0
LINE
8
BLACK
6
CONTINUOUS
10
109.542
20
-116.096
11
109.538
21
-116.097
0
LINE
8
BLACK
6
CONTINUOUS
10
109.538
20
-116.097
11
109.3
21
-116.097
0
LINE
8
BLACK
6
CONTINUOUS
10
109.3
20
-116.097
11
109.277
21
-116.093
0
LINE
8
BLACK
6
CONTINUOUS
10
109.277
20
-116.093
11
109.276
21
-116.094
0
LINE
8
BLACK
6
CONTINUOUS
10
109.276
20
-116.094
11
109.133
21
-116.046
0
LINE
8
BLACK
6
CONTINUOUS
10
109.133
20
-116.046
11
109.11
21
-116.034
0
LINE
8
BLACK
6
CONTINUOUS
10
109.11
20
-116.034
11
109.083
21
-115.99
0
LINE
8
BLACK
6
CONTINUOUS
10
109.083
20
-115.99
11
109.091
21
-115.939
0
LINE
8
BLACK
6
CONTINUOUS
10
109.091
20
-115.939
11
109.129
21
-115.905
0
LINE
8
BLACK
6
CONTINUOUS
10
109.129
20
-115.905
11
109.18
21
-115.904
0
LINE
8
BLACK
6
CONTINUOUS
10
109.18
20
-115.904
11
109.312
21
-115.947
0
LINE
8
BLACK
6
CONTINUOUS
10
109.312
20
-115.947
11
109.52
21
-115.947
0
LINE
8
BLACK
6
CONTINUOUS
10
109.52
20
-115.947
11
109.588
21
-115.913
0
LINE
8
BLACK
6
CONTINUOUS
10
109.588
20
-115.913
11
109.619
21
-115.883
0
LINE
8
BLACK
6
CONTINUOUS
10
109.619
20
-115.883
11
109.653
21
-115.814
0
LINE
8
BLACK
6
CONTINUOUS
10
109.653
20
-115.814
11
109.653
21
-115.754
0
LINE
8
BLACK
6
CONTINUOUS
10
109.653
20
-115.754
11
109.619
21
-115.686
0
LINE
8
BLACK
6
CONTINUOUS
10
109.619
20
-115.686
11
109.588
21
-115.655
0
LINE
8
BLACK
6
CONTINUOUS
10
109.588
20
-115.655
11
109.511
21
-115.617
0
LINE
8
BLACK
6
CONTINUOUS
10
109.511
20
-115.617
11
109.329
21
-115.571
0
LINE
8
BLACK
6
CONTINUOUS
10
109.329
20
-115.571
11
109.317
21
-115.566
0
LINE
8
BLACK
6
CONTINUOUS
10
109.317
20
-115.566
11
109.314
21
-115.566
0
LINE
8
BLACK
6
CONTINUOUS
10
109.314
20
-115.566
11
109.218
21
-115.518
0
LINE
8
BLACK
6
CONTINUOUS
10
109.218
20
-115.518
11
109.2
21
-115.505
0
LINE
8
BLACK
6
CONTINUOUS
10
109.2
20
-115.505
11
109.199
21
-115.504
0
LINE
8
BLACK
6
CONTINUOUS
10
109.199
20
-115.504
11
109.151
21
-115.456
0
LINE
8
BLACK
6
CONTINUOUS
10
109.151
20
-115.456
11
109.138
21
-115.438
0
LINE
8
BLACK
6
CONTINUOUS
10
109.138
20
-115.438
11
109.137
21
-115.437
0
LINE
8
BLACK
6
CONTINUOUS
10
109.137
20
-115.437
11
109.09
21
-115.342
0
LINE
8
BLACK
6
CONTINUOUS
10
109.09
20
-115.342
11
109.082
21
-115.317
0
LINE
8
BLACK
6
CONTINUOUS
10
109.082
20
-115.317
11
109.083
21
-115.312
0
LINE
8
BLACK
6
CONTINUOUS
10
109.083
20
-115.312
11
109.082
21
-115.308
0
LINE
8
BLACK
6
CONTINUOUS
10
109.082
20
-115.308
11
109.082
21
-115.213
0
LINE
8
BLACK
6
CONTINUOUS
10
109.082
20
-115.213
11
109.086
21
-115.187
0
LINE
8
BLACK
6
CONTINUOUS
10
109.086
20
-115.187
11
109.089
21
-115.184
0
LINE
8
BLACK
6
CONTINUOUS
10
109.089
20
-115.184
11
109.09
21
-115.179
0
LINE
8
BLACK
6
CONTINUOUS
10
109.09
20
-115.179
11
109.137
21
-115.084
0
LINE
8
BLACK
6
CONTINUOUS
10
109.137
20
-115.084
11
109.151
21
-115.066
0
LINE
8
BLACK
6
CONTINUOUS
10
109.151
20
-115.066
11
109.151
21
-115.065
0
LINE
8
BLACK
6
CONTINUOUS
10
109.151
20
-115.065
11
109.199
21
-115.017
0
LINE
8
BLACK
6
CONTINUOUS
10
109.199
20
-115.017
11
109.217
21
-115.004
0
LINE
8
BLACK
6
CONTINUOUS
10
109.217
20
-115.004
11
109.218
21
-115.003
0
LINE
8
BLACK
6
CONTINUOUS
10
109.218
20
-115.003
11
109.314
21
-114.955
0
LINE
8
BLACK
6
CONTINUOUS
10
109.314
20
-114.955
11
109.339
21
-114.948
0
LINE
8
BLACK
6
CONTINUOUS
10
109.339
20
-114.948
11
109.343
21
-114.949
0
LINE
8
BLACK
6
CONTINUOUS
10
109.343
20
-114.949
11
109.347
21
-114.947
0
LINE
8
BLACK
6
CONTINUOUS
10
109.347
20
-114.947
11
109.585
21
-114.947
0
LINE
8
BLACK
6
CONTINUOUS
10
109.585
20
-114.947
11
109.607
21
-114.951
0
LINE
8
BLACK
6
CONTINUOUS
10
111.546
20
-114.949
11
111.551
21
-114.949
0
LINE
8
BLACK
6
CONTINUOUS
10
111.551
20
-114.949
11
111.569
21
-114.959
0
LINE
8
BLACK
6
CONTINUOUS
10
111.569
20
-114.959
11
111.589
21
-114.968
0
LINE
8
BLACK
6
CONTINUOUS
10
111.589
20
-114.968
11
111.591
21
-114.972
0
LINE
8
BLACK
6
CONTINUOUS
10
111.591
20
-114.972
11
111.595
21
-114.974
0
LINE
8
BLACK
6
CONTINUOUS
10
111.595
20
-114.974
11
111.603
21
-114.995
0
LINE
8
BLACK
6
CONTINUOUS
10
111.603
20
-114.995
11
111.612
21
-115.014
0
LINE
8
BLACK
6
CONTINUOUS
10
111.612
20
-115.014
11
111.611
21
-115.018
0
LINE
8
BLACK
6
CONTINUOUS
10
111.611
20
-115.018
11
111.613
21
-115.022
0
LINE
8
BLACK
6
CONTINUOUS
10
111.613
20
-115.022
11
111.613
21
-115.947
0
LINE
8
BLACK
6
CONTINUOUS
10
111.613
20
-115.947
11
111.823
21
-115.947
0
LINE
8
BLACK
6
CONTINUOUS
10
111.823
20
-115.947
11
111.849
21
-115.952
0
LINE
8
BLACK
6
CONTINUOUS
10
111.849
20
-115.952
11
111.888
21
-115.985
0
LINE
8
BLACK
6
CONTINUOUS
10
111.888
20
-115.985
11
111.897
21
-116.035
0
LINE
8
BLACK
6
CONTINUOUS
10
111.897
20
-116.035
11
111.872
21
-116.08
0
LINE
8
BLACK
6
CONTINUOUS
10
111.872
20
-116.08
11
111.823
21
-116.097
0
LINE
8
BLACK
6
CONTINUOUS
10
111.823
20
-116.097
11
111.252
21
-116.097
0
LINE
8
BLACK
6
CONTINUOUS
10
111.252
20
-116.097
11
111.226
21
-116.093
0
LINE
8
BLACK
6
CONTINUOUS
10
111.226
20
-116.093
11
111.187
21
-116.06
0
LINE
8
BLACK
6
CONTINUOUS
10
111.187
20
-116.06
11
111.178
21
-116.009
0
LINE
8
BLACK
6
CONTINUOUS
10
111.178
20
-116.009
11
111.204
21
-115.965
0
LINE
8
BLACK
6
CONTINUOUS
10
111.204
20
-115.965
11
111.252
21
-115.947
0
LINE
8
BLACK
6
CONTINUOUS
10
111.252
20
-115.947
11
111.463
21
-115.947
0
LINE
8
BLACK
6
CONTINUOUS
10
111.463
20
-115.947
11
111.463
21
-115.251
0
LINE
8
BLACK
6
CONTINUOUS
10
111.463
20
-115.251
11
111.4
21
-115.314
0
LINE
8
BLACK
6
CONTINUOUS
10
111.4
20
-115.314
11
111.382
21
-115.326
0
LINE
8
BLACK
6
CONTINUOUS
10
111.382
20
-115.326
11
111.381
21
-115.328
0
LINE
8
BLACK
6
CONTINUOUS
10
111.381
20
-115.328
11
111.285
21
-115.375
0
LINE
8
BLACK
6
CONTINUOUS
10
111.285
20
-115.375
11
111.26
21
-115.383
0
LINE
8
BLACK
6
CONTINUOUS
10
111.26
20
-115.383
11
111.211
21
-115.371
0
LINE
8
BLACK
6
CONTINUOUS
10
111.211
20
-115.371
11
111.18
21
-115.329
0
LINE
8
BLACK
6
CONTINUOUS
10
111.18
20
-115.329
11
111.183
21
-115.278
0
LINE
8
BLACK
6
CONTINUOUS
10
111.183
20
-115.278
11
111.218
21
-115.241
0
LINE
8
BLACK
6
CONTINUOUS
10
111.218
20
-115.241
11
111.303
21
-115.199
0
LINE
8
BLACK
6
CONTINUOUS
10
111.303
20
-115.199
11
111.384
21
-115.117
0
LINE
8
BLACK
6
CONTINUOUS
10
111.384
20
-115.117
11
111.475
21
-114.981
0
LINE
8
BLACK
6
CONTINUOUS
10
111.475
20
-114.981
11
111.493
21
-114.962
0
LINE
8
BLACK
6
CONTINUOUS
10
111.493
20
-114.962
11
111.497
21
-114.961
0
LINE
8
BLACK
6
CONTINUOUS
10
111.497
20
-114.961
11
111.5
21
-114.957
0
LINE
8
BLACK
6
CONTINUOUS
10
111.5
20
-114.957
11
111.522
21
-114.954
0
LINE
8
BLACK
6
CONTINUOUS
10
111.522
20
-114.954
11
111.542
21
-114.948
0
LINE
8
BLACK
6
CONTINUOUS
10
111.542
20
-114.948
11
111.546
21
-114.949
0
LINE
8
BLACK
6
CONTINUOUS
10
188.034
20
-114.949
11
188.038
21
-114.949
0
LINE
8
BLACK
6
CONTINUOUS
10
188.038
20
-114.949
11
188.041
21
-114.95
0
LINE
8
BLACK
6
CONTINUOUS
10
188.041
20
-114.95
11
188.049
21
-114.952
0
LINE
8
BLACK
6
CONTINUOUS
10
188.049
20
-114.952
11
188.064
21
-114.965
0
LINE
8
BLACK
6
CONTINUOUS
10
188.064
20
-114.965
11
188.082
21
-114.975
0
LINE
8
BLACK
6
CONTINUOUS
10
188.082
20
-114.975
11
188.084
21
-114.981
0
LINE
8
BLACK
6
CONTINUOUS
10
188.084
20
-114.981
11
188.088
21
-114.985
0
LINE
8
BLACK
6
CONTINUOUS
10
188.088
20
-114.985
11
188.092
21
-115.005
0
LINE
8
BLACK
6
CONTINUOUS
10
188.092
20
-115.005
11
188.098
21
-115.024
0
LINE
8
BLACK
6
CONTINUOUS
10
188.098
20
-115.024
11
188.096
21
-115.03
0
LINE
8
BLACK
6
CONTINUOUS
10
188.096
20
-115.03
11
188.097
21
-115.035
0
LINE
8
BLACK
6
CONTINUOUS
10
188.097
20
-115.035
11
188.087
21
-115.053
0
LINE
8
BLACK
6
CONTINUOUS
10
188.087
20
-115.053
11
188.08
21
-115.072
0
LINE
8
BLACK
6
CONTINUOUS
10
188.08
20
-115.072
11
187.852
21
-115.332
0
LINE
8
BLACK
6
CONTINUOUS
10
187.852
20
-115.332
11
187.859
21
-115.333
0
LINE
8
BLACK
6
CONTINUOUS
10
187.859
20
-115.333
11
187.862
21
-115.336
0
LINE
8
BLACK
6
CONTINUOUS
10
187.862
20
-115.336
11
187.866
21
-115.336
0
LINE
8
BLACK
6
CONTINUOUS
10
187.866
20
-115.336
11
187.962
21
-115.384
0
LINE
8
BLACK
6
CONTINUOUS
10
187.962
20
-115.384
11
187.98
21
-115.397
0
LINE
8
BLACK
6
CONTINUOUS
10
187.98
20
-115.397
11
187.981
21
-115.398
0
LINE
8
BLACK
6
CONTINUOUS
10
187.981
20
-115.398
11
188.029
21
-115.446
0
LINE
8
BLACK
6
CONTINUOUS
10
188.029
20
-115.446
11
188.042
21
-115.464
0
LINE
8
BLACK
6
CONTINUOUS
10
188.042
20
-115.464
11
188.043
21
-115.465
0
LINE
8
BLACK
6
CONTINUOUS
10
188.043
20
-115.465
11
188.09
21
-115.56
0
LINE
8
BLACK
6
CONTINUOUS
10
188.09
20
-115.56
11
188.098
21
-115.585
0
LINE
8
BLACK
6
CONTINUOUS
10
188.098
20
-115.585
11
188.097
21
-115.59
0
LINE
8
BLACK
6
CONTINUOUS
10
188.097
20
-115.59
11
188.098
21
-115.594
0
LINE
8
BLACK
6
CONTINUOUS
10
188.098
20
-115.594
11
188.098
21
-115.832
0
LINE
8
BLACK
6
CONTINUOUS
10
188.098
20
-115.832
11
188.094
21
-115.858
0
LINE
8
BLACK
6
CONTINUOUS
10
188.094
20
-115.858
11
188.091
21
-115.861
0
LINE
8
BLACK
6
CONTINUOUS
10
188.091
20
-115.861
11
188.09
21
-115.865
0
LINE
8
BLACK
6
CONTINUOUS
10
188.09
20
-115.865
11
188.043
21
-115.961
0
LINE
8
BLACK
6
CONTINUOUS
10
188.043
20
-115.961
11
188.029
21
-115.979
0
LINE
8
BLACK
6
CONTINUOUS
10
188.029
20
-115.979
11
188.029
21
-115.98
0
LINE
8
BLACK
6
CONTINUOUS
10
188.029
20
-115.98
11
187.981
21
-116.028
0
LINE
8
BLACK
6
CONTINUOUS
10
187.981
20
-116.028
11
187.963
21
-116.041
0
LINE
8
BLACK
6
CONTINUOUS
10
187.963
20
-116.041
11
187.962
21
-116.042
0
LINE
8
BLACK
6
CONTINUOUS
10
187.962
20
-116.042
11
187.866
21
-116.089
0
LINE
8
BLACK
6
CONTINUOUS
10
187.866
20
-116.089
11
187.841
21
-116.097
0
LINE
8
BLACK
6
CONTINUOUS
10
187.841
20
-116.097
11
187.837
21
-116.096
0
LINE
8
BLACK
6
CONTINUOUS
10
187.837
20
-116.096
11
187.833
21
-116.097
0
LINE
8
BLACK
6
CONTINUOUS
10
187.833
20
-116.097
11
187.547
21
-116.097
0
LINE
8
BLACK
6
CONTINUOUS
10
187.547
20
-116.097
11
187.521
21
-116.093
0
LINE
8
BLACK
6
CONTINUOUS
10
187.521
20
-116.093
11
187.518
21
-116.09
0
LINE
8
BLACK
6
CONTINUOUS
10
187.518
20
-116.09
11
187.514
21
-116.089
0
LINE
8
BLACK
6
CONTINUOUS
10
187.514
20
-116.089
11
187.418
21
-116.042
0
LINE
8
BLACK
6
CONTINUOUS
10
187.418
20
-116.042
11
187.4
21
-116.028
0
LINE
8
BLACK
6
CONTINUOUS
10
187.4
20
-116.028
11
187.399
21
-116.028
0
LINE
8
BLACK
6
CONTINUOUS
10
187.399
20
-116.028
11
187.351
21
-115.98
0
LINE
8
BLACK
6
CONTINUOUS
10
187.351
20
-115.98
11
187.336
21
-115.959
0
LINE
8
BLACK
6
CONTINUOUS
10
187.336
20
-115.959
11
187.332
21
-115.908
0
LINE
8
BLACK
6
CONTINUOUS
10
187.332
20
-115.908
11
187.361
21
-115.866
0
LINE
8
BLACK
6
CONTINUOUS
10
187.361
20
-115.866
11
187.411
21
-115.852
0
LINE
8
BLACK
6
CONTINUOUS
10
187.411
20
-115.852
11
187.457
21
-115.874
0
LINE
8
BLACK
6
CONTINUOUS
10
187.457
20
-115.874
11
187.496
21
-115.913
0
LINE
8
BLACK
6
CONTINUOUS
10
187.496
20
-115.913
11
187.565
21
-115.947
0
LINE
8
BLACK
6
CONTINUOUS
10
187.565
20
-115.947
11
187.815
21
-115.947
0
LINE
8
BLACK
6
CONTINUOUS
10
187.815
20
-115.947
11
187.884
21
-115.913
0
LINE
8
BLACK
6
CONTINUOUS
10
187.884
20
-115.913
11
187.914
21
-115.883
0
LINE
8
BLACK
6
CONTINUOUS
10
187.914
20
-115.883
11
187.948
21
-115.814
0
LINE
8
BLACK
6
CONTINUOUS
10
187.948
20
-115.814
11
187.948
21
-115.612
0
LINE
8
BLACK
6
CONTINUOUS
10
187.948
20
-115.612
11
187.914
21
-115.543
0
LINE
8
BLACK
6
CONTINUOUS
10
187.914
20
-115.543
11
187.884
21
-115.513
0
LINE
8
BLACK
6
CONTINUOUS
10
187.884
20
-115.513
11
187.815
21
-115.478
0
LINE
8
BLACK
6
CONTINUOUS
10
187.815
20
-115.478
11
187.69
21
-115.478
0
LINE
8
BLACK
6
CONTINUOUS
10
187.69
20
-115.478
11
187.679
21
-115.476
0
LINE
8
BLACK
6
CONTINUOUS
10
187.679
20
-115.476
11
187.675
21
-115.477
0
LINE
8
BLACK
6
CONTINUOUS
10
187.675
20
-115.477
11
187.673
21
-115.475
0
LINE
8
BLACK
6
CONTINUOUS
10
187.673
20
-115.475
11
187.664
21
-115.474
0
LINE
8
BLACK
6
CONTINUOUS
10
187.664
20
-115.474
11
187.649
21
-115.461
0
LINE
8
BLACK
6
CONTINUOUS
10
187.649
20
-115.461
11
187.632
21
-115.45
0
LINE
8
BLACK
6
CONTINUOUS
10
187.632
20
-115.45
11
187.63
21
-115.445
0
LINE
8
BLACK
6
CONTINUOUS
10
187.63
20
-115.445
11
187.625
21
-115.441
0
LINE
8
BLACK
6
CONTINUOUS
10
187.625
20
-115.441
11
187.622
21
-115.421
0
LINE
8
BLACK
6
CONTINUOUS
10
187.622
20
-115.421
11
187.615
21
-115.402
0
LINE
8
BLACK
6
CONTINUOUS
10
187.615
20
-115.402
11
187.617
21
-115.396
0
LINE
8
BLACK
6
CONTINUOUS
10
187.617
20
-115.396
11
187.616
21
-115.39
0
LINE
8
BLACK
6
CONTINUOUS
10
187.616
20
-115.39
11
187.626
21
-115.373
0
LINE
8
BLACK
6
CONTINUOUS
10
187.626
20
-115.373
11
187.634
21
-115.354
0
LINE
8
BLACK
6
CONTINUOUS
10
187.634
20
-115.354
11
187.858
21
-115.097
0
LINE
8
BLACK
6
CONTINUOUS
10
187.858
20
-115.097
11
187.404
21
-115.097
0
LINE
8
BLACK
6
CONTINUOUS
10
187.404
20
-115.097
11
187.379
21
-115.093
0
LINE
8
BLACK
6
CONTINUOUS
10
187.379
20
-115.093
11
187.339
21
-115.06
0
LINE
8
BLACK
6
CONTINUOUS
10
187.339
20
-115.06
11
187.33
21
-115.009
0
LINE
8
BLACK
6
CONTINUOUS
10
187.33
20
-115.009
11
187.356
21
-114.965
0
LINE
8
BLACK
6
CONTINUOUS
10
187.356
20
-114.965
11
187.404
21
-114.947
0
LINE
8
BLACK
6
CONTINUOUS
10
187.404
20
-114.947
11
188.023
21
-114.947
0
LINE
8
BLACK
6
CONTINUOUS
10
188.023
20
-114.947
11
188.034
21
-114.949
0
LINE
8
BLACK
6
CONTINUOUS
10
185.807
20
-114.951
11
185.809
21
-114.951
0
LINE
8
BLACK
6
CONTINUOUS
10
185.809
20
-114.951
11
185.952
21
-114.999
0
LINE
8
BLACK
6
CONTINUOUS
10
185.952
20
-114.999
11
185.975
21
-115.011
0
LINE
8
BLACK
6
CONTINUOUS
10
185.975
20
-115.011
11
186.002
21
-115.055
0
LINE
8
BLACK
6
CONTINUOUS
10
186.002
20
-115.055
11
185.994
21
-115.106
0
LINE
8
BLACK
6
CONTINUOUS
10
185.994
20
-115.106
11
185.956
21
-115.14
0
LINE
8
BLACK
6
CONTINUOUS
10
185.956
20
-115.14
11
185.904
21
-115.141
0
LINE
8
BLACK
6
CONTINUOUS
10
185.904
20
-115.141
11
185.773
21
-115.097
0
LINE
8
BLACK
6
CONTINUOUS
10
185.773
20
-115.097
11
185.565
21
-115.097
0
LINE
8
BLACK
6
CONTINUOUS
10
185.565
20
-115.097
11
185.496
21
-115.132
0
LINE
8
BLACK
6
CONTINUOUS
10
185.496
20
-115.132
11
185.466
21
-115.162
0
LINE
8
BLACK
6
CONTINUOUS
10
185.466
20
-115.162
11
185.432
21
-115.231
0
LINE
8
BLACK
6
CONTINUOUS
10
185.432
20
-115.231
11
185.432
21
-115.29
0
LINE
8
BLACK
6
CONTINUOUS
10
185.432
20
-115.29
11
185.466
21
-115.359
0
LINE
8
BLACK
6
CONTINUOUS
10
185.466
20
-115.359
11
185.496
21
-115.389
0
LINE
8
BLACK
6
CONTINUOUS
10
185.496
20
-115.389
11
185.573
21
-115.428
0
LINE
8
BLACK
6
CONTINUOUS
10
185.573
20
-115.428
11
185.756
21
-115.473
0
LINE
8
BLACK
6
CONTINUOUS
10
185.756
20
-115.473
11
185.768
21
-115.479
0
LINE
8
BLACK
6
CONTINUOUS
10
185.768
20
-115.479
11
185.771
21
-115.479
0
LINE
8
BLACK
6
CONTINUOUS
10
185.771
20
-115.479
11
185.866
21
-115.527
0
LINE
8
BLACK
6
CONTINUOUS
10
185.866
20
-115.527
11
185.884
21
-115.54
0
LINE
8
BLACK
6
CONTINUOUS
10
185.884
20
-115.54
11
185.886
21
-115.541
0
LINE
8
BLACK
6
CONTINUOUS
10
185.886
20
-115.541
11
185.934
21
-115.588
0
LINE
8
BLACK
6
CONTINUOUS
10
185.934
20
-115.588
11
185.946
21
-115.607
0
LINE
8
BLACK
6
CONTINUOUS
10
185.946
20
-115.607
11
185.948
21
-115.608
0
LINE
8
BLACK
6
CONTINUOUS
10
185.948
20
-115.608
11
185.995
21
-115.703
0
LINE
8
BLACK
6
CONTINUOUS
10
185.995
20
-115.703
11
186.003
21
-115.728
0
LINE
8
BLACK
6
CONTINUOUS
10
186.003
20
-115.728
11
186.002
21
-115.732
0
LINE
8
BLACK
6
CONTINUOUS
10
186.002
20
-115.732
11
186.003
21
-115.737
0
LINE
8
BLACK
6
CONTINUOUS
10
186.003
20
-115.737
11
186.003
21
-115.832
0
LINE
8
BLACK
6
CONTINUOUS
10
186.003
20
-115.832
11
185.999
21
-115.858
0
LINE
8
BLACK
6
CONTINUOUS
10
185.999
20
-115.858
11
185.996
21
-115.861
0
LINE
8
BLACK
6
CONTINUOUS
10
185.996
20
-115.861
11
185.995
21
-115.865
0
LINE
8
BLACK
6
CONTINUOUS
10
185.995
20
-115.865
11
185.948
21
-115.961
0
LINE
8
BLACK
6
CONTINUOUS
10
185.948
20
-115.961
11
185.934
21
-115.979
0
LINE
8
BLACK
6
CONTINUOUS
10
185.934
20
-115.979
11
185.934
21
-115.98
0
LINE
8
BLACK
6
CONTINUOUS
10
185.934
20
-115.98
11
185.886
21
-116.028
0
LINE
8
BLACK
6
CONTINUOUS
10
185.886
20
-116.028
11
185.868
21
-116.041
0
LINE
8
BLACK
6
CONTINUOUS
10
185.868
20
-116.041
11
185.866
21
-116.042
0
LINE
8
BLACK
6
CONTINUOUS
10
185.866
20
-116.042
11
185.771
21
-116.089
0
LINE
8
BLACK
6
CONTINUOUS
10
185.771
20
-116.089
11
185.746
21
-116.097
0
LINE
8
BLACK
6
CONTINUOUS
10
185.746
20
-116.097
11
185.742
21
-116.096
0
LINE
8
BLACK
6
CONTINUOUS
10
185.742
20
-116.096
11
185.738
21
-116.097
0
LINE
8
BLACK
6
CONTINUOUS
10
185.738
20
-116.097
11
185.5
21
-116.097
0
LINE
8
BLACK
6
CONTINUOUS
10
185.5
20
-116.097
11
185.477
21
-116.093
0
LINE
8
BLACK
6
CONTINUOUS
10
185.477
20
-116.093
11
185.476
21
-116.094
0
LINE
8
BLACK
6
CONTINUOUS
10
185.476
20
-116.094
11
185.333
21
-116.046
0
LINE
8
BLACK
6
CONTINUOUS
10
185.333
20
-116.046
11
185.31
21
-116.034
0
LINE
8
BLACK
6
CONTINUOUS
10
185.31
20
-116.034
11
185.283
21
-115.99
0
LINE
8
BLACK
6
CONTINUOUS
10
185.283
20
-115.99
11
185.291
21
-115.939
0
LINE
8
BLACK
6
CONTINUOUS
10
185.291
20
-115.939
11
185.329
21
-115.905
0
LINE
8
BLACK
6
CONTINUOUS
10
185.329
20
-115.905
11
185.38
21
-115.904
0
LINE
8
BLACK
6
CONTINUOUS
10
185.38
20
-115.904
11
185.512
21
-115.947
0
LINE
8
BLACK
6
CONTINUOUS
10
185.512
20
-115.947
11
185.72
21
-115.947
0
LINE
8
BLACK
6
CONTINUOUS
10
185.72
20
-115.947
11
185.788
21
-115.913
0
LINE
8
BLACK
6
CONTINUOUS
10
185.788
20
-115.913
11
185.819
21
-115.883
0
LINE
8
BLACK
6
CONTINUOUS
10
185.819
20
-115.883
11
185.853
21
-115.814
0
LINE
8
BLACK
6
CONTINUOUS
10
185.853
20
-115.814
11
185.853
21
-115.754
0
LINE
8
BLACK
6
CONTINUOUS
10
185.853
20
-115.754
11
185.819
21
-115.686
0
LINE
8
BLACK
6
CONTINUOUS
10
185.819
20
-115.686
11
185.788
21
-115.655
0
LINE
8
BLACK
6
CONTINUOUS
10
185.788
20
-115.655
11
185.711
21
-115.617
0
LINE
8
BLACK
6
CONTINUOUS
10
185.711
20
-115.617
11
185.529
21
-115.571
0
LINE
8
BLACK
6
CONTINUOUS
10
185.529
20
-115.571
11
185.517
21
-115.566
0
LINE
8
BLACK
6
CONTINUOUS
10
185.517
20
-115.566
11
185.514
21
-115.566
0
LINE
8
BLACK
6
CONTINUOUS
10
185.514
20
-115.566
11
185.418
21
-115.518
0
LINE
8
BLACK
6
CONTINUOUS
10
185.418
20
-115.518
11
185.4
21
-115.505
0
LINE
8
BLACK
6
CONTINUOUS
10
185.4
20
-115.505
11
185.399
21
-115.504
0
LINE
8
BLACK
6
CONTINUOUS
10
185.399
20
-115.504
11
185.351
21
-115.456
0
LINE
8
BLACK
6
CONTINUOUS
10
185.351
20
-115.456
11
185.338
21
-115.438
0
LINE
8
BLACK
6
CONTINUOUS
10
185.338
20
-115.438
11
185.337
21
-115.437
0
LINE
8
BLACK
6
CONTINUOUS
10
185.337
20
-115.437
11
185.29
21
-115.342
0
LINE
8
BLACK
6
CONTINUOUS
10
185.29
20
-115.342
11
185.282
21
-115.317
0
LINE
8
BLACK
6
CONTINUOUS
10
185.282
20
-115.317
11
185.283
21
-115.312
0
LINE
8
BLACK
6
CONTINUOUS
10
185.283
20
-115.312
11
185.282
21
-115.308
0
LINE
8
BLACK
6
CONTINUOUS
10
185.282
20
-115.308
11
185.282
21
-115.213
0
LINE
8
BLACK
6
CONTINUOUS
10
185.282
20
-115.213
11
185.286
21
-115.187
0
LINE
8
BLACK
6
CONTINUOUS
10
185.286
20
-115.187
11
185.289
21
-115.184
0
LINE
8
BLACK
6
CONTINUOUS
10
185.289
20
-115.184
11
185.29
21
-115.179
0
LINE
8
BLACK
6
CONTINUOUS
10
185.29
20
-115.179
11
185.337
21
-115.084
0
LINE
8
BLACK
6
CONTINUOUS
10
185.337
20
-115.084
11
185.351
21
-115.066
0
LINE
8
BLACK
6
CONTINUOUS
10
185.351
20
-115.066
11
185.351
21
-115.065
0
LINE
8
BLACK
6
CONTINUOUS
10
185.351
20
-115.065
11
185.399
21
-115.017
0
LINE
8
BLACK
6
CONTINUOUS
10
185.399
20
-115.017
11
185.417
21
-115.004
0
LINE
8
BLACK
6
CONTINUOUS
10
185.417
20
-115.004
11
185.418
21
-115.003
0
LINE
8
BLACK
6
CONTINUOUS
10
185.418
20
-115.003
11
185.514
21
-114.955
0
LINE
8
BLACK
6
CONTINUOUS
10
185.514
20
-114.955
11
185.539
21
-114.948
0
LINE
8
BLACK
6
CONTINUOUS
10
185.539
20
-114.948
11
185.543
21
-114.949
0
LINE
8
BLACK
6
CONTINUOUS
10
185.543
20
-114.949
11
185.547
21
-114.947
0
LINE
8
BLACK
6
CONTINUOUS
10
185.547
20
-114.947
11
185.785
21
-114.947
0
LINE
8
BLACK
6
CONTINUOUS
10
185.785
20
-114.947
11
185.807
21
-114.951
0
LINE
8
BLACK
6
CONTINUOUS
10
186.306
20
-114.962
11
186.334
21
-115.005
0
LINE
8
BLACK
6
CONTINUOUS
10
186.334
20
-115.005
11
186.504
21
-115.716
0
LINE
8
BLACK
6
CONTINUOUS
10
186.504
20
-115.716
11
186.618
21
-115.289
0
LINE
8
BLACK
6
CONTINUOUS
10
186.618
20
-115.289
11
186.629
21
-115.265
0
LINE
8
BLACK
6
CONTINUOUS
10
186.629
20
-115.265
11
186.634
21
-115.261
0
LINE
8
BLACK
6
CONTINUOUS
10
186.634
20
-115.261
11
186.637
21
-115.255
0
LINE
8
BLACK
6
CONTINUOUS
10
186.637
20
-115.255
11
186.655
21
-115.247
0
LINE
8
BLACK
6
CONTINUOUS
10
186.655
20
-115.247
11
186.671
21
-115.236
0
LINE
8
BLACK
6
CONTINUOUS
10
186.671
20
-115.236
11
186.677
21
-115.236
0
LINE
8
BLACK
6
CONTINUOUS
10
186.677
20
-115.236
11
186.684
21
-115.233
0
LINE
8
BLACK
6
CONTINUOUS
10
186.684
20
-115.233
11
186.702
21
-115.238
0
LINE
8
BLACK
6
CONTINUOUS
10
186.702
20
-115.238
11
186.722
21
-115.24
0
LINE
8
BLACK
6
CONTINUOUS
10
186.722
20
-115.24
11
186.726
21
-115.245
0
LINE
8
BLACK
6
CONTINUOUS
10
186.726
20
-115.245
11
186.733
21
-115.247
0
LINE
8
BLACK
6
CONTINUOUS
10
186.733
20
-115.247
11
186.744
21
-115.263
0
LINE
8
BLACK
6
CONTINUOUS
10
186.744
20
-115.263
11
186.758
21
-115.276
0
LINE
8
BLACK
6
CONTINUOUS
10
186.758
20
-115.276
11
186.759
21
-115.283
0
LINE
8
BLACK
6
CONTINUOUS
10
186.759
20
-115.283
11
186.762
21
-115.289
0
LINE
8
BLACK
6
CONTINUOUS
10
186.762
20
-115.289
11
186.876
21
-115.716
0
LINE
8
BLACK
6
CONTINUOUS
10
186.876
20
-115.716
11
187.046
21
-115.005
0
LINE
8
BLACK
6
CONTINUOUS
10
187.046
20
-115.005
11
187.056
21
-114.981
0
LINE
8
BLACK
6
CONTINUOUS
10
187.056
20
-114.981
11
187.097
21
-114.951
0
LINE
8
BLACK
6
CONTINUOUS
10
187.097
20
-114.951
11
187.148
21
-114.954
0
LINE
8
BLACK
6
CONTINUOUS
10
187.148
20
-114.954
11
187.186
21
-114.989
0
LINE
8
BLACK
6
CONTINUOUS
10
187.186
20
-114.989
11
187.192
21
-115.04
0
LINE
8
BLACK
6
CONTINUOUS
10
187.192
20
-115.04
11
186.953
21
-116.04
0
LINE
8
BLACK
6
CONTINUOUS
10
186.953
20
-116.04
11
186.943
21
-116.064
0
LINE
8
BLACK
6
CONTINUOUS
10
186.943
20
-116.064
11
186.937
21
-116.068
0
LINE
8
BLACK
6
CONTINUOUS
10
186.937
20
-116.068
11
186.933
21
-116.075
0
LINE
8
BLACK
6
CONTINUOUS
10
186.933
20
-116.075
11
186.917
21
-116.083
0
LINE
8
BLACK
6
CONTINUOUS
10
186.917
20
-116.083
11
186.902
21
-116.094
0
LINE
8
BLACK
6
CONTINUOUS
10
186.902
20
-116.094
11
186.894
21
-116.094
0
LINE
8
BLACK
6
CONTINUOUS
10
186.894
20
-116.094
11
186.887
21
-116.097
0
LINE
8
BLACK
6
CONTINUOUS
10
186.887
20
-116.097
11
186.869
21
-116.092
0
LINE
8
BLACK
6
CONTINUOUS
10
186.869
20
-116.092
11
186.851
21
-116.091
0
LINE
8
BLACK
6
CONTINUOUS
10
186.851
20
-116.091
11
186.845
21
-116.086
0
LINE
8
BLACK
6
CONTINUOUS
10
186.845
20
-116.086
11
186.837
21
-116.084
0
LINE
8
BLACK
6
CONTINUOUS
10
186.837
20
-116.084
11
186.827
21
-116.069
0
LINE
8
BLACK
6
CONTINUOUS
10
186.827
20
-116.069
11
186.813
21
-116.056
0
LINE
8
BLACK
6
CONTINUOUS
10
186.813
20
-116.056
11
186.813
21
-116.048
0
LINE
8
BLACK
6
CONTINUOUS
10
186.813
20
-116.048
11
186.808
21
-116.042
0
LINE
8
BLACK
6
CONTINUOUS
10
186.808
20
-116.042
11
186.69
21
-115.599
0
LINE
8
BLACK
6
CONTINUOUS
10
186.69
20
-115.599
11
186.572
21
-116.042
0
LINE
8
BLACK
6
CONTINUOUS
10
186.572
20
-116.042
11
186.561
21
-116.065
0
LINE
8
BLACK
6
CONTINUOUS
10
186.561
20
-116.065
11
186.555
21
-116.07
0
LINE
8
BLACK
6
CONTINUOUS
10
186.555
20
-116.07
11
186.551
21
-116.077
0
LINE
8
BLACK
6
CONTINUOUS
10
186.551
20
-116.077
11
186.534
21
-116.084
0
LINE
8
BLACK
6
CONTINUOUS
10
186.534
20
-116.084
11
186.519
21
-116.095
0
LINE
8
BLACK
6
CONTINUOUS
10
186.519
20
-116.095
11
186.511
21
-116.094
0
LINE
8
BLACK
6
CONTINUOUS
10
186.511
20
-116.094
11
186.504
21
-116.097
0
LINE
8
BLACK
6
CONTINUOUS
10
186.504
20
-116.097
11
186.486
21
-116.092
0
LINE
8
BLACK
6
CONTINUOUS
10
186.486
20
-116.092
11
186.468
21
-116.09
0
LINE
8
BLACK
6
CONTINUOUS
10
186.468
20
-116.09
11
186.462
21
-116.085
0
LINE
8
BLACK
6
CONTINUOUS
10
186.462
20
-116.085
11
186.455
21
-116.083
0
LINE
8
BLACK
6
CONTINUOUS
10
186.455
20
-116.083
11
186.445
21
-116.067
0
LINE
8
BLACK
6
CONTINUOUS
10
186.445
20
-116.067
11
186.432
21
-116.054
0
LINE
8
BLACK
6
CONTINUOUS
10
186.432
20
-116.054
11
186.431
21
-116.046
0
LINE
8
BLACK
6
CONTINUOUS
10
186.431
20
-116.046
11
186.427
21
-116.04
0
LINE
8
BLACK
6
CONTINUOUS
10
186.427
20
-116.04
11
186.188
21
-115.04
0
LINE
8
BLACK
6
CONTINUOUS
10
186.188
20
-115.04
11
186.187
21
-115.014
0
LINE
8
BLACK
6
CONTINUOUS
10
186.187
20
-115.014
11
186.21
21
-114.968
0
LINE
8
BLACK
6
CONTINUOUS
10
186.21
20
-114.968
11
186.257
21
-114.948
0
LINE
8
BLACK
6
CONTINUOUS
10
186.257
20
-114.948
11
186.306
21
-114.962
0
LINE
8
BLACK
6
CONTINUOUS
10
110.106
20
-114.962
11
110.134
21
-115.005
0
LINE
8
BLACK
6
CONTINUOUS
10
110.134
20
-115.005
11
110.304
21
-115.716
0
LINE
8
BLACK
6
CONTINUOUS
10
110.304
20
-115.716
11
110.418
21
-115.289
0
LINE
8
BLACK
6
CONTINUOUS
10
110.418
20
-115.289
11
110.429
21
-115.265
0
LINE
8
BLACK
6
CONTINUOUS
10
110.429
20
-115.265
11
110.434
21
-115.261
0
LINE
8
BLACK
6
CONTINUOUS
10
110.434
20
-115.261
11
110.437
21
-115.255
0
LINE
8
BLACK
6
CONTINUOUS
10
110.437
20
-115.255
11
110.455
21
-115.247
0
LINE
8
BLACK
6
CONTINUOUS
10
110.455
20
-115.247
11
110.471
21
-115.236
0
LINE
8
BLACK
6
CONTINUOUS
10
110.471
20
-115.236
11
110.477
21
-115.236
0
LINE
8
BLACK
6
CONTINUOUS
10
110.477
20
-115.236
11
110.484
21
-115.233
0
LINE
8
BLACK
6
CONTINUOUS
10
110.484
20
-115.233
11
110.502
21
-115.238
0
LINE
8
BLACK
6
CONTINUOUS
10
110.502
20
-115.238
11
110.522
21
-115.24
0
LINE
8
BLACK
6
CONTINUOUS
10
110.522
20
-115.24
11
110.526
21
-115.245
0
LINE
8
BLACK
6
CONTINUOUS
10
110.526
20
-115.245
11
110.533
21
-115.247
0
LINE
8
BLACK
6
CONTINUOUS
10
110.533
20
-115.247
11
110.544
21
-115.263
0
LINE
8
BLACK
6
CONTINUOUS
10
110.544
20
-115.263
11
110.558
21
-115.276
0
LINE
8
BLACK
6
CONTINUOUS
10
110.558
20
-115.276
11
110.559
21
-115.283
0
LINE
8
BLACK
6
CONTINUOUS
10
110.559
20
-115.283
11
110.562
21
-115.289
0
LINE
8
BLACK
6
CONTINUOUS
10
110.562
20
-115.289
11
110.676
21
-115.716
0
LINE
8
BLACK
6
CONTINUOUS
10
110.676
20
-115.716
11
110.846
21
-115.005
0
LINE
8
BLACK
6
CONTINUOUS
10
110.846
20
-115.005
11
110.856
21
-114.981
0
LINE
8
BLACK
6
CONTINUOUS
10
110.856
20
-114.981
11
110.897
21
-114.951
0
LINE
8
BLACK
6
CONTINUOUS
10
110.897
20
-114.951
11
110.948
21
-114.954
0
LINE
8
BLACK
6
CONTINUOUS
10
110.948
20
-114.954
11
110.986
21
-114.989
0
LINE
8
BLACK
6
CONTINUOUS
10
110.986
20
-114.989
11
110.992
21
-115.04
0
LINE
8
BLACK
6
CONTINUOUS
10
110.992
20
-115.04
11
110.753
21
-116.04
0
LINE
8
BLACK
6
CONTINUOUS
10
110.753
20
-116.04
11
110.743
21
-116.064
0
LINE
8
BLACK
6
CONTINUOUS
10
110.743
20
-116.064
11
110.737
21
-116.068
0
LINE
8
BLACK
6
CONTINUOUS
10
110.737
20
-116.068
11
110.733
21
-116.075
0
LINE
8
BLACK
6
CONTINUOUS
10
110.733
20
-116.075
11
110.717
21
-116.083
0
LINE
8
BLACK
6
CONTINUOUS
10
110.717
20
-116.083
11
110.702
21
-116.094
0
LINE
8
BLACK
6
CONTINUOUS
10
110.702
20
-116.094
11
110.694
21
-116.094
0
LINE
8
BLACK
6
CONTINUOUS
10
110.694
20
-116.094
11
110.687
21
-116.097
0
LINE
8
BLACK
6
CONTINUOUS
10
110.687
20
-116.097
11
110.669
21
-116.092
0
LINE
8
BLACK
6
CONTINUOUS
10
110.669
20
-116.092
11
110.651
21
-116.091
0
LINE
8
BLACK
6
CONTINUOUS
10
110.651
20
-116.091
11
110.645
21
-116.086
0
LINE
8
BLACK
6
CONTINUOUS
10
110.645
20
-116.086
11
110.637
21
-116.084
0
LINE
8
BLACK
6
CONTINUOUS
10
110.637
20
-116.084
11
110.627
21
-116.069
0
LINE
8
BLACK
6
CONTINUOUS
10
110.627
20
-116.069
11
110.613
21
-116.056
0
LINE
8
BLACK
6
CONTINUOUS
10
110.613
20
-116.056
11
110.613
21
-116.048
0
LINE
8
BLACK
6
CONTINUOUS
10
110.613
20
-116.048
11
110.608
21
-116.042
0
LINE
8
BLACK
6
CONTINUOUS
10
110.608
20
-116.042
11
110.49
21
-115.599
0
LINE
8
BLACK
6
CONTINUOUS
10
110.49
20
-115.599
11
110.372
21
-116.042
0
LINE
8
BLACK
6
CONTINUOUS
10
110.372
20
-116.042
11
110.361
21
-116.065
0
LINE
8
BLACK
6
CONTINUOUS
10
110.361
20
-116.065
11
110.355
21
-116.07
0
LINE
8
BLACK
6
CONTINUOUS
10
110.355
20
-116.07
11
110.351
21
-116.077
0
LINE
8
BLACK
6
CONTINUOUS
10
110.351
20
-116.077
11
110.334
21
-116.084
0
LINE
8
BLACK
6
CONTINUOUS
10
110.334
20
-116.084
11
110.319
21
-116.095
0
LINE
8
BLACK
6
CONTINUOUS
10
110.319
20
-116.095
11
110.311
21
-116.094
0
LINE
8
BLACK
6
CONTINUOUS
10
110.311
20
-116.094
11
110.304
21
-116.097
0
LINE
8
BLACK
6
CONTINUOUS
10
110.304
20
-116.097
11
110.286
21
-116.092
0
LINE
8
BLACK
6
CONTINUOUS
10
110.286
20
-116.092
11
110.268
21
-116.09
0
LINE
8
BLACK
6
CONTINUOUS
10
110.268
20
-116.09
11
110.262
21
-116.085
0
LINE
8
BLACK
6
CONTINUOUS
10
110.262
20
-116.085
11
110.255
21
-116.083
0
LINE
8
BLACK
6
CONTINUOUS
10
110.255
20
-116.083
11
110.245
21
-116.067
0
LINE
8
BLACK
6
CONTINUOUS
10
110.245
20
-116.067
11
110.232
21
-116.054
0
LINE
8
BLACK
6
CONTINUOUS
10
110.232
20
-116.054
11
110.231
21
-116.046
0
LINE
8
BLACK
6
CONTINUOUS
10
110.231
20
-116.046
11
110.227
21
-116.04
0
LINE
8
BLACK
6
CONTINUOUS
10
110.227
20
-116.04
11
109.988
21
-115.04
0
LINE
8
BLACK
6
CONTINUOUS
10
109.988
20
-115.04
11
109.987
21
-115.014
0
LINE
8
BLACK
6
CONTINUOUS
10
109.987
20
-115.014
11
110.01
21
-114.968
0
LINE
8
BLACK
6
CONTINUOUS
10
110.01
20
-114.968
11
110.057
21
-114.948
0
LINE
8
BLACK
6
CONTINUOUS
10
110.057
20
-114.948
11
110.106
21
-114.962
0
LINE
8
BLACK
6
CONTINUOUS
10
157.054
20
-92.9547
11
159.653
21
-97.4559
0
LINE
8
BLACK
6
CONTINUOUS
10
159.653
20
-97.4559
11
159.66
21
-97.4615
0
LINE
8
BLACK
6
CONTINUOUS
10
159.66
20
-97.4615
11
159.666
21
-97.5096
0
LINE
8
BLACK
6
CONTINUOUS
10
159.666
20
-97.5096
11
159.637
21
-97.5482
0
LINE
8
BLACK
6
CONTINUOUS
10
159.637
20
-97.5482
11
159.117
21
-97.8482
0
LINE
8
BLACK
6
CONTINUOUS
10
159.117
20
-97.8482
11
146.127
21
-105.348
0
LINE
8
BLACK
6
CONTINUOUS
10
146.127
20
-105.348
11
145.607
21
-105.648
0
LINE
8
BLACK
6
CONTINUOUS
10
145.607
20
-105.648
11
145.559
21
-105.655
0
LINE
8
BLACK
6
CONTINUOUS
10
145.559
20
-105.655
11
145.52
21
-105.625
0
LINE
8
BLACK
6
CONTINUOUS
10
145.52
20
-105.625
11
145.519
21
-105.616
0
LINE
8
BLACK
6
CONTINUOUS
10
145.519
20
-105.616
11
142.92
21
-101.115
0
LINE
8
BLACK
6
CONTINUOUS
10
142.92
20
-101.115
11
142.914
21
-101.069
0
LINE
8
BLACK
6
CONTINUOUS
10
142.914
20
-101.069
11
142.942
21
-101.033
0
LINE
8
BLACK
6
CONTINUOUS
10
142.942
20
-101.033
11
142.988
21
-101.027
0
LINE
8
BLACK
6
CONTINUOUS
10
142.988
20
-101.027
11
143.024
21
-101.055
0
LINE
8
BLACK
6
CONTINUOUS
10
143.024
20
-101.055
11
145.595
21
-105.508
0
LINE
8
BLACK
6
CONTINUOUS
10
145.595
20
-105.508
11
146.063
21
-105.238
0
LINE
8
BLACK
6
CONTINUOUS
10
146.063
20
-105.238
11
159.053
21
-97.7382
0
LINE
8
BLACK
6
CONTINUOUS
10
159.053
20
-97.7382
11
159.521
21
-97.4682
0
LINE
8
BLACK
6
CONTINUOUS
10
159.521
20
-97.4682
11
156.95
21
-93.0147
0
LINE
8
BLACK
6
CONTINUOUS
10
156.95
20
-93.0147
11
156.944
21
-92.9691
0
LINE
8
BLACK
6
CONTINUOUS
10
156.944
20
-92.9691
11
156.972
21
-92.9327
0
LINE
8
BLACK
6
CONTINUOUS
10
156.972
20
-92.9327
11
157.017
21
-92.9267
0
LINE
8
BLACK
6
CONTINUOUS
10
157.017
20
-92.9267
11
157.054
21
-92.9547
0
LINE
8
BLACK
6
CONTINUOUS
10
151.66
20
-83.605
11
155.342
21
-89.9833
0
LINE
8
BLACK
6
CONTINUOUS
10
155.342
20
-89.9833
11
155.349
21
-90.0315
0
LINE
8
BLACK
6
CONTINUOUS
10
155.349
20
-90.0315
11
155.319
21
-90.0701
0
LINE
8
BLACK
6
CONTINUOUS
10
155.319
20
-90.0701
11
155.271
21
-90.0764
0
LINE
8
BLACK
6
CONTINUOUS
10
155.271
20
-90.0764
11
155.232
21
-90.0468
0
LINE
8
BLACK
6
CONTINUOUS
10
155.232
20
-90.0468
11
151.582
21
-83.7235
0
LINE
8
BLACK
6
CONTINUOUS
10
151.582
20
-83.7235
11
137.662
21
-91.76
0
LINE
8
BLACK
6
CONTINUOUS
10
137.662
20
-91.76
11
141.313
21
-98.0833
0
LINE
8
BLACK
6
CONTINUOUS
10
141.313
20
-98.0833
11
141.319
21
-98.1315
0
LINE
8
BLACK
6
CONTINUOUS
10
141.319
20
-98.1315
11
141.289
21
-98.1701
0
LINE
8
BLACK
6
CONTINUOUS
10
141.289
20
-98.1701
11
141.241
21
-98.1764
0
LINE
8
BLACK
6
CONTINUOUS
10
141.241
20
-98.1764
11
141.203
21
-98.1468
0
LINE
8
BLACK
6
CONTINUOUS
10
141.203
20
-98.1468
11
137.52
21
-91.7685
0
LINE
8
BLACK
6
CONTINUOUS
10
137.52
20
-91.7685
11
137.514
21
-91.7204
0
LINE
8
BLACK
6
CONTINUOUS
10
137.514
20
-91.7204
11
137.543
21
-91.6818
0
LINE
8
BLACK
6
CONTINUOUS
10
137.543
20
-91.6818
11
151.573
21
-83.5818
0
LINE
8
BLACK
6
CONTINUOUS
10
151.573
20
-83.5818
11
151.573
21
-83.5818
0
LINE
8
BLACK
6
CONTINUOUS
10
151.573
20
-83.5818
11
151.621
21
-83.5755
0
LINE
8
BLACK
6
CONTINUOUS
10
151.621
20
-83.5755
11
151.66
21
-83.605
0
LINE
8
BLACK
6
CONTINUOUS
10
141.814
20
-85.0091
11
141.84
21
-85.0471
0
LINE
8
BLACK
6
CONTINUOUS
10
141.84
20
-85.0471
11
141.831
21
-85.0922
0
LINE
8
BLACK
6
CONTINUOUS
10
141.831
20
-85.0922
11
141.793
21
-85.118
0
LINE
8
BLACK
6
CONTINUOUS
10
141.793
20
-85.118
11
141.592
21
-85.159
0
LINE
8
BLACK
6
CONTINUOUS
10
141.592
20
-85.159
11
141.319
21
-85.3167
0
LINE
8
BLACK
6
CONTINUOUS
10
141.319
20
-85.3167
11
141.249
21
-85.4234
0
LINE
8
BLACK
6
CONTINUOUS
10
141.249
20
-85.4234
11
141.229
21
-85.4973
0
LINE
8
BLACK
6
CONTINUOUS
10
141.229
20
-85.4973
11
141.237
21
-85.6249
0
LINE
8
BLACK
6
CONTINUOUS
10
141.237
20
-85.6249
11
141.29
21
-85.7179
0
LINE
8
BLACK
6
CONTINUOUS
10
141.29
20
-85.7179
11
141.397
21
-85.7883
0
LINE
8
BLACK
6
CONTINUOUS
10
141.397
20
-85.7883
11
141.471
21
-85.8081
0
LINE
8
BLACK
6
CONTINUOUS
10
141.471
20
-85.8081
11
141.606
21
-85.8
0
LINE
8
BLACK
6
CONTINUOUS
10
141.606
20
-85.8
11
141.869
21
-85.7249
0
LINE
8
BLACK
6
CONTINUOUS
10
141.869
20
-85.7249
11
141.876
21
-85.7256
0
LINE
8
BLACK
6
CONTINUOUS
10
141.876
20
-85.7256
11
141.882
21
-85.7227
0
LINE
8
BLACK
6
CONTINUOUS
10
141.882
20
-85.7227
11
142.033
21
-85.7136
0
LINE
8
BLACK
6
CONTINUOUS
10
142.033
20
-85.7136
11
142.042
21
-85.7168
0
LINE
8
BLACK
6
CONTINUOUS
10
142.042
20
-85.7168
11
142.052
21
-85.7155
0
LINE
8
BLACK
6
CONTINUOUS
10
142.052
20
-85.7155
11
142.145
21
-85.7403
0
LINE
8
BLACK
6
CONTINUOUS
10
142.145
20
-85.7403
11
142.153
21
-85.7463
0
LINE
8
BLACK
6
CONTINUOUS
10
142.153
20
-85.7463
11
142.162
21
-85.7482
0
LINE
8
BLACK
6
CONTINUOUS
10
142.162
20
-85.7482
11
142.289
21
-85.8318
0
LINE
8
BLACK
6
CONTINUOUS
10
142.289
20
-85.8318
11
142.297
21
-85.8434
0
LINE
8
BLACK
6
CONTINUOUS
10
142.297
20
-85.8434
11
142.308
21
-85.8519
0
LINE
8
BLACK
6
CONTINUOUS
10
142.308
20
-85.8519
11
142.376
21
-85.9694
0
LINE
8
BLACK
6
CONTINUOUS
10
142.376
20
-85.9694
11
142.378
21
-85.9833
0
LINE
8
BLACK
6
CONTINUOUS
10
142.378
20
-85.9833
11
142.384
21
-85.9958
0
LINE
8
BLACK
6
CONTINUOUS
10
142.384
20
-85.9958
11
142.393
21
-86.1473
0
LINE
8
BLACK
6
CONTINUOUS
10
142.393
20
-86.1473
11
142.39
21
-86.1566
0
LINE
8
BLACK
6
CONTINUOUS
10
142.39
20
-86.1566
11
142.391
21
-86.1664
0
LINE
8
BLACK
6
CONTINUOUS
10
142.391
20
-86.1664
11
142.366
21
-86.2591
0
LINE
8
BLACK
6
CONTINUOUS
10
142.366
20
-86.2591
11
142.36
21
-86.2669
0
LINE
8
BLACK
6
CONTINUOUS
10
142.36
20
-86.2669
11
142.358
21
-86.2766
0
LINE
8
BLACK
6
CONTINUOUS
10
142.358
20
-86.2766
11
142.275
21
-86.4033
0
LINE
8
BLACK
6
CONTINUOUS
10
142.275
20
-86.4033
11
142.263
21
-86.4111
0
LINE
8
BLACK
6
CONTINUOUS
10
142.263
20
-86.4111
11
142.255
21
-86.4222
0
LINE
8
BLACK
6
CONTINUOUS
10
142.255
20
-86.4222
11
141.961
21
-86.5918
0
LINE
8
BLACK
6
CONTINUOUS
10
141.961
20
-86.5918
11
141.951
21
-86.5931
0
LINE
8
BLACK
6
CONTINUOUS
10
141.951
20
-86.5931
11
141.943
21
-86.5986
0
LINE
8
BLACK
6
CONTINUOUS
10
141.943
20
-86.5986
11
141.733
21
-86.6416
0
LINE
8
BLACK
6
CONTINUOUS
10
141.733
20
-86.6416
11
141.687
21
-86.6329
0
LINE
8
BLACK
6
CONTINUOUS
10
141.687
20
-86.6329
11
141.662
21
-86.5949
0
LINE
8
BLACK
6
CONTINUOUS
10
141.662
20
-86.5949
11
141.67
21
-86.5498
0
LINE
8
BLACK
6
CONTINUOUS
10
141.67
20
-86.5498
11
141.708
21
-86.5241
0
LINE
8
BLACK
6
CONTINUOUS
10
141.708
20
-86.5241
11
141.909
21
-86.483
0
LINE
8
BLACK
6
CONTINUOUS
10
141.909
20
-86.483
11
142.182
21
-86.3253
0
LINE
8
BLACK
6
CONTINUOUS
10
142.182
20
-86.3253
11
142.253
21
-86.2186
0
LINE
8
BLACK
6
CONTINUOUS
10
142.253
20
-86.2186
11
142.273
21
-86.1448
0
LINE
8
BLACK
6
CONTINUOUS
10
142.273
20
-86.1448
11
142.265
21
-86.0172
0
LINE
8
BLACK
6
CONTINUOUS
10
142.265
20
-86.0172
11
142.211
21
-85.9242
0
LINE
8
BLACK
6
CONTINUOUS
10
142.211
20
-85.9242
11
142.104
21
-85.8537
0
LINE
8
BLACK
6
CONTINUOUS
10
142.104
20
-85.8537
11
142.031
21
-85.8339
0
LINE
8
BLACK
6
CONTINUOUS
10
142.031
20
-85.8339
11
141.895
21
-85.842
0
LINE
8
BLACK
6
CONTINUOUS
10
141.895
20
-85.842
11
141.633
21
-85.9172
0
LINE
8
BLACK
6
CONTINUOUS
10
141.633
20
-85.9172
11
141.626
21
-85.9164
0
LINE
8
BLACK
6
CONTINUOUS
10
141.626
20
-85.9164
11
141.62
21
-85.9194
0
LINE
8
BLACK
6
CONTINUOUS
10
141.62
20
-85.9194
11
141.468
21
-85.9285
0
LINE
8
BLACK
6
CONTINUOUS
10
141.468
20
-85.9285
11
141.459
21
-85.9253
0
LINE
8
BLACK
6
CONTINUOUS
10
141.459
20
-85.9253
11
141.449
21
-85.9265
0
LINE
8
BLACK
6
CONTINUOUS
10
141.449
20
-85.9265
11
141.357
21
-85.9017
0
LINE
8
BLACK
6
CONTINUOUS
10
141.357
20
-85.9017
11
141.349
21
-85.8957
0
LINE
8
BLACK
6
CONTINUOUS
10
141.349
20
-85.8957
11
141.339
21
-85.8938
0
LINE
8
BLACK
6
CONTINUOUS
10
141.339
20
-85.8938
11
141.212
21
-85.8102
0
LINE
8
BLACK
6
CONTINUOUS
10
141.212
20
-85.8102
11
141.205
21
-85.7986
0
LINE
8
BLACK
6
CONTINUOUS
10
141.205
20
-85.7986
11
141.194
21
-85.7901
0
LINE
8
BLACK
6
CONTINUOUS
10
141.194
20
-85.7901
11
141.126
21
-85.6726
0
LINE
8
BLACK
6
CONTINUOUS
10
141.126
20
-85.6726
11
141.124
21
-85.6588
0
LINE
8
BLACK
6
CONTINUOUS
10
141.124
20
-85.6588
11
141.118
21
-85.6462
0
LINE
8
BLACK
6
CONTINUOUS
10
141.118
20
-85.6462
11
141.109
21
-85.4947
0
LINE
8
BLACK
6
CONTINUOUS
10
141.109
20
-85.4947
11
141.112
21
-85.4854
0
LINE
8
BLACK
6
CONTINUOUS
10
141.112
20
-85.4854
11
141.111
21
-85.4756
0
LINE
8
BLACK
6
CONTINUOUS
10
141.111
20
-85.4756
11
141.135
21
-85.3829
0
LINE
8
BLACK
6
CONTINUOUS
10
141.135
20
-85.3829
11
141.141
21
-85.3751
0
LINE
8
BLACK
6
CONTINUOUS
10
141.141
20
-85.3751
11
141.143
21
-85.3654
0
LINE
8
BLACK
6
CONTINUOUS
10
141.143
20
-85.3654
11
141.227
21
-85.2388
0
LINE
8
BLACK
6
CONTINUOUS
10
141.227
20
-85.2388
11
141.238
21
-85.231
0
LINE
8
BLACK
6
CONTINUOUS
10
141.238
20
-85.231
11
141.247
21
-85.2199
0
LINE
8
BLACK
6
CONTINUOUS
10
141.247
20
-85.2199
11
141.541
21
-85.0502
0
LINE
8
BLACK
6
CONTINUOUS
10
141.541
20
-85.0502
11
141.551
21
-85.0489
0
LINE
8
BLACK
6
CONTINUOUS
10
141.551
20
-85.0489
11
141.559
21
-85.0434
0
LINE
8
BLACK
6
CONTINUOUS
10
141.559
20
-85.0434
11
141.769
21
-85.0004
0
LINE
8
BLACK
6
CONTINUOUS
10
141.769
20
-85.0004
11
141.814
21
-85.0091
0
LINE
8
BLACK
6
CONTINUOUS
10
143.245
20
-84.0994
11
143.274
21
-84.135
0
LINE
8
BLACK
6
CONTINUOUS
10
143.274
20
-84.135
11
143.692
21
-85.5388
0
LINE
8
BLACK
6
CONTINUOUS
10
143.692
20
-85.5388
11
143.692
21
-85.5477
0
LINE
8
BLACK
6
CONTINUOUS
10
143.692
20
-85.5477
11
143.695
21
-85.556
0
LINE
8
BLACK
6
CONTINUOUS
10
143.695
20
-85.556
11
143.689
21
-85.5697
0
LINE
8
BLACK
6
CONTINUOUS
10
143.689
20
-85.5697
11
143.688
21
-85.5844
0
LINE
8
BLACK
6
CONTINUOUS
10
143.688
20
-85.5844
11
143.681
21
-85.5901
0
LINE
8
BLACK
6
CONTINUOUS
10
143.681
20
-85.5901
11
143.677
21
-85.5984
0
LINE
8
BLACK
6
CONTINUOUS
10
143.677
20
-85.5984
11
143.664
21
-85.6041
0
LINE
8
BLACK
6
CONTINUOUS
10
143.664
20
-85.6041
11
143.652
21
-85.6134
0
LINE
8
BLACK
6
CONTINUOUS
10
143.652
20
-85.6134
11
143.643
21
-85.6125
0
LINE
8
BLACK
6
CONTINUOUS
10
143.643
20
-85.6125
11
143.635
21
-85.6159
0
LINE
8
BLACK
6
CONTINUOUS
10
143.635
20
-85.6159
11
143.621
21
-85.6102
0
LINE
8
BLACK
6
CONTINUOUS
10
143.621
20
-85.6102
11
143.606
21
-85.6087
0
LINE
8
BLACK
6
CONTINUOUS
10
143.606
20
-85.6087
11
143.601
21
-85.6017
0
LINE
8
BLACK
6
CONTINUOUS
10
143.601
20
-85.6017
11
143.592
21
-85.5983
0
LINE
8
BLACK
6
CONTINUOUS
10
143.592
20
-85.5983
11
143.007
21
-85.0118
0
LINE
8
BLACK
6
CONTINUOUS
10
143.007
20
-85.0118
11
143.223
21
-85.8117
0
LINE
8
BLACK
6
CONTINUOUS
10
143.223
20
-85.8117
11
143.222
21
-85.8206
0
LINE
8
BLACK
6
CONTINUOUS
10
143.222
20
-85.8206
11
143.225
21
-85.829
0
LINE
8
BLACK
6
CONTINUOUS
10
143.225
20
-85.829
11
143.219
21
-85.8426
0
LINE
8
BLACK
6
CONTINUOUS
10
143.219
20
-85.8426
11
143.217
21
-85.8573
0
LINE
8
BLACK
6
CONTINUOUS
10
143.217
20
-85.8573
11
143.21
21
-85.8628
0
LINE
8
BLACK
6
CONTINUOUS
10
143.21
20
-85.8628
11
143.206
21
-85.8709
0
LINE
8
BLACK
6
CONTINUOUS
10
143.206
20
-85.8709
11
143.192
21
-85.8762
0
LINE
8
BLACK
6
CONTINUOUS
10
143.192
20
-85.8762
11
143.18
21
-85.8853
0
LINE
8
BLACK
6
CONTINUOUS
10
143.18
20
-85.8853
11
143.172
21
-85.8841
0
LINE
8
BLACK
6
CONTINUOUS
10
143.172
20
-85.8841
11
143.163
21
-85.8873
0
LINE
8
BLACK
6
CONTINUOUS
10
143.163
20
-85.8873
11
143.15
21
-85.8813
0
LINE
8
BLACK
6
CONTINUOUS
10
143.15
20
-85.8813
11
143.135
21
-85.8793
0
LINE
8
BLACK
6
CONTINUOUS
10
143.135
20
-85.8793
11
143.129
21
-85.8722
0
LINE
8
BLACK
6
CONTINUOUS
10
143.129
20
-85.8722
11
143.121
21
-85.8686
0
LINE
8
BLACK
6
CONTINUOUS
10
143.121
20
-85.8686
11
142.115
21
-84.8041
0
LINE
8
BLACK
6
CONTINUOUS
10
142.115
20
-84.8041
11
142.099
21
-84.7612
0
LINE
8
BLACK
6
CONTINUOUS
10
142.099
20
-84.7612
11
142.117
21
-84.7193
0
LINE
8
BLACK
6
CONTINUOUS
10
142.117
20
-84.7193
11
142.16
21
-84.7029
0
LINE
8
BLACK
6
CONTINUOUS
10
142.16
20
-84.7029
11
142.202
21
-84.7217
0
LINE
8
BLACK
6
CONTINUOUS
10
142.202
20
-84.7217
11
143.045
21
-85.6133
0
LINE
8
BLACK
6
CONTINUOUS
10
143.045
20
-85.6133
11
142.833
21
-84.8257
0
LINE
8
BLACK
6
CONTINUOUS
10
142.833
20
-84.8257
11
142.834
21
-84.8176
0
LINE
8
BLACK
6
CONTINUOUS
10
142.834
20
-84.8176
11
142.831
21
-84.8101
0
LINE
8
BLACK
6
CONTINUOUS
10
142.831
20
-84.8101
11
142.837
21
-84.7957
0
LINE
8
BLACK
6
CONTINUOUS
10
142.837
20
-84.7957
11
142.839
21
-84.7802
0
LINE
8
BLACK
6
CONTINUOUS
10
142.839
20
-84.7802
11
142.845
21
-84.7752
0
LINE
8
BLACK
6
CONTINUOUS
10
142.845
20
-84.7752
11
142.849
21
-84.7677
0
LINE
8
BLACK
6
CONTINUOUS
10
142.849
20
-84.7677
11
142.863
21
-84.7617
0
LINE
8
BLACK
6
CONTINUOUS
10
142.863
20
-84.7617
11
142.875
21
-84.7522
0
LINE
8
BLACK
6
CONTINUOUS
10
142.875
20
-84.7522
11
142.883
21
-84.7533
0
LINE
8
BLACK
6
CONTINUOUS
10
142.883
20
-84.7533
11
142.891
21
-84.7501
0
LINE
8
BLACK
6
CONTINUOUS
10
142.891
20
-84.7501
11
142.905
21
-84.7561
0
LINE
8
BLACK
6
CONTINUOUS
10
142.905
20
-84.7561
11
142.921
21
-84.7581
0
LINE
8
BLACK
6
CONTINUOUS
10
142.921
20
-84.7581
11
142.926
21
-84.7646
0
LINE
8
BLACK
6
CONTINUOUS
10
142.926
20
-84.7646
11
142.933
21
-84.7678
0
LINE
8
BLACK
6
CONTINUOUS
10
142.933
20
-84.7678
11
143.509
21
-85.3452
0
LINE
8
BLACK
6
CONTINUOUS
10
143.509
20
-85.3452
11
143.159
21
-84.1693
0
LINE
8
BLACK
6
CONTINUOUS
10
143.159
20
-84.1693
11
143.163
21
-84.1237
0
LINE
8
BLACK
6
CONTINUOUS
10
143.163
20
-84.1237
11
143.199
21
-84.0947
0
LINE
8
BLACK
6
CONTINUOUS
10
143.199
20
-84.0947
11
143.245
21
-84.0994
0
LINE
8
BLACK
6
CONTINUOUS
10
144.255
20
-83.5775
11
144.265
21
-83.5762
0
LINE
8
BLACK
6
CONTINUOUS
10
144.265
20
-83.5762
11
144.357
21
-83.6011
0
LINE
8
BLACK
6
CONTINUOUS
10
144.357
20
-83.6011
11
144.365
21
-83.6071
0
LINE
8
BLACK
6
CONTINUOUS
10
144.365
20
-83.6071
11
144.375
21
-83.6089
0
LINE
8
BLACK
6
CONTINUOUS
10
144.375
20
-83.6089
11
144.502
21
-83.6925
0
LINE
8
BLACK
6
CONTINUOUS
10
144.502
20
-83.6925
11
144.509
21
-83.7041
0
LINE
8
BLACK
6
CONTINUOUS
10
144.509
20
-83.7041
11
144.52
21
-83.7126
0
LINE
8
BLACK
6
CONTINUOUS
10
144.52
20
-83.7126
11
144.588
21
-83.8301
0
LINE
8
BLACK
6
CONTINUOUS
10
144.588
20
-83.8301
11
144.59
21
-83.8399
0
LINE
8
BLACK
6
CONTINUOUS
10
144.59
20
-83.8399
11
144.595
21
-83.8481
0
LINE
8
BLACK
6
CONTINUOUS
10
144.595
20
-83.8481
11
144.638
21
-84.0583
0
LINE
8
BLACK
6
CONTINUOUS
10
144.638
20
-84.0583
11
144.636
21
-84.0721
0
LINE
8
BLACK
6
CONTINUOUS
10
144.636
20
-84.0721
11
144.637
21
-84.0859
0
LINE
8
BLACK
6
CONTINUOUS
10
144.637
20
-84.0859
11
144.377
21
-85.0583
0
LINE
8
BLACK
6
CONTINUOUS
10
144.377
20
-85.0583
11
145.015
21
-84.6897
0
LINE
8
BLACK
6
CONTINUOUS
10
145.015
20
-84.6897
11
145.061
21
-84.6837
0
LINE
8
BLACK
6
CONTINUOUS
10
145.061
20
-84.6837
11
145.097
21
-84.7116
0
LINE
8
BLACK
6
CONTINUOUS
10
145.097
20
-84.7116
11
145.103
21
-84.7572
0
LINE
8
BLACK
6
CONTINUOUS
10
145.103
20
-84.7572
11
145.075
21
-84.7936
0
LINE
8
BLACK
6
CONTINUOUS
10
145.075
20
-84.7936
11
144.311
21
-85.2347
0
LINE
8
BLACK
6
CONTINUOUS
10
144.311
20
-85.2347
11
144.289
21
-85.2377
0
LINE
8
BLACK
6
CONTINUOUS
10
144.289
20
-85.2377
11
144.266
21
-85.2407
0
LINE
8
BLACK
6
CONTINUOUS
10
144.266
20
-85.2407
11
144.241
21
-85.2218
0
LINE
8
BLACK
6
CONTINUOUS
10
144.241
20
-85.2218
11
144.229
21
-85.2127
0
LINE
8
BLACK
6
CONTINUOUS
10
144.229
20
-85.2127
11
144.226
21
-85.1899
0
LINE
8
BLACK
6
CONTINUOUS
10
144.226
20
-85.1899
11
144.223
21
-85.1672
0
LINE
8
BLACK
6
CONTINUOUS
10
144.223
20
-85.1672
11
144.518
21
-84.0685
0
LINE
8
BLACK
6
CONTINUOUS
10
144.518
20
-84.0685
11
144.48
21
-83.8817
0
LINE
8
BLACK
6
CONTINUOUS
10
144.48
20
-83.8817
11
144.424
21
-83.7849
0
LINE
8
BLACK
6
CONTINUOUS
10
144.424
20
-83.7849
11
144.317
21
-83.7144
0
LINE
8
BLACK
6
CONTINUOUS
10
144.317
20
-83.7144
11
144.243
21
-83.6946
0
LINE
8
BLACK
6
CONTINUOUS
10
144.243
20
-83.6946
11
144.115
21
-83.7023
0
LINE
8
BLACK
6
CONTINUOUS
10
144.115
20
-83.7023
11
143.846
21
-83.8578
0
LINE
8
BLACK
6
CONTINUOUS
10
143.846
20
-83.8578
11
143.776
21
-83.9645
0
LINE
8
BLACK
6
CONTINUOUS
10
143.776
20
-83.9645
11
143.753
21
-84.0478
0
LINE
8
BLACK
6
CONTINUOUS
10
143.753
20
-84.0478
11
143.725
21
-84.0842
0
LINE
8
BLACK
6
CONTINUOUS
10
143.725
20
-84.0842
11
143.68
21
-84.0902
0
LINE
8
BLACK
6
CONTINUOUS
10
143.68
20
-84.0902
11
143.644
21
-84.0622
0
LINE
8
BLACK
6
CONTINUOUS
10
143.644
20
-84.0622
11
143.638
21
-84.0167
0
LINE
8
BLACK
6
CONTINUOUS
10
143.638
20
-84.0167
11
143.662
21
-83.924
0
LINE
8
BLACK
6
CONTINUOUS
10
143.662
20
-83.924
11
143.668
21
-83.9162
0
LINE
8
BLACK
6
CONTINUOUS
10
143.668
20
-83.9162
11
143.67
21
-83.9065
0
LINE
8
BLACK
6
CONTINUOUS
10
143.67
20
-83.9065
11
143.754
21
-83.7798
0
LINE
8
BLACK
6
CONTINUOUS
10
143.754
20
-83.7798
11
143.765
21
-83.772
0
LINE
8
BLACK
6
CONTINUOUS
10
143.765
20
-83.772
11
143.774
21
-83.7609
0
LINE
8
BLACK
6
CONTINUOUS
10
143.774
20
-83.7609
11
144.068
21
-83.5913
0
LINE
8
BLACK
6
CONTINUOUS
10
144.068
20
-83.5913
11
144.082
21
-83.5895
0
LINE
8
BLACK
6
CONTINUOUS
10
144.082
20
-83.5895
11
144.094
21
-83.5834
0
LINE
8
BLACK
6
CONTINUOUS
10
144.094
20
-83.5834
11
144.246
21
-83.5743
0
LINE
8
BLACK
6
CONTINUOUS
10
144.246
20
-83.5743
11
144.255
21
-83.5775
0
LINE
8
BLACK
6
CONTINUOUS
10
220.124
20
-73.0419
11
220.128
21
-73.0448
0
LINE
8
BLACK
6
CONTINUOUS
10
220.128
20
-73.0448
11
220.132
21
-73.0453
0
LINE
8
BLACK
6
CONTINUOUS
10
220.132
20
-73.0453
11
220.228
21
-73.0929
0
LINE
8
BLACK
6
CONTINUOUS
10
220.228
20
-73.0929
11
220.246
21
-73.1063
0
LINE
8
BLACK
6
CONTINUOUS
10
220.246
20
-73.1063
11
220.247
21
-73.107
0
LINE
8
BLACK
6
CONTINUOUS
10
220.247
20
-73.107
11
220.295
21
-73.1546
0
LINE
8
BLACK
6
CONTINUOUS
10
220.295
20
-73.1546
11
220.308
21
-73.173
0
LINE
8
BLACK
6
CONTINUOUS
10
220.308
20
-73.173
11
220.309
21
-73.1741
0
LINE
8
BLACK
6
CONTINUOUS
10
220.309
20
-73.1741
11
220.356
21
-73.2693
0
LINE
8
BLACK
6
CONTINUOUS
10
220.356
20
-73.2693
11
220.364
21
-73.2943
0
LINE
8
BLACK
6
CONTINUOUS
10
220.364
20
-73.2943
11
220.363
21
-73.2986
0
LINE
8
BLACK
6
CONTINUOUS
10
220.363
20
-73.2986
11
220.364
21
-73.3029
0
LINE
8
BLACK
6
CONTINUOUS
10
220.364
20
-73.3029
11
220.364
21
-73.3981
0
LINE
8
BLACK
6
CONTINUOUS
10
220.364
20
-73.3981
11
220.36
21
-73.4202
0
LINE
8
BLACK
6
CONTINUOUS
10
220.36
20
-73.4202
11
220.36
21
-73.4218
0
LINE
8
BLACK
6
CONTINUOUS
10
220.36
20
-73.4218
11
220.313
21
-73.5647
0
LINE
8
BLACK
6
CONTINUOUS
10
220.313
20
-73.5647
11
220.3
21
-73.5876
0
LINE
8
BLACK
6
CONTINUOUS
10
220.3
20
-73.5876
11
220.297
21
-73.5899
0
LINE
8
BLACK
6
CONTINUOUS
10
220.297
20
-73.5899
11
220.295
21
-73.594
0
LINE
8
BLACK
6
CONTINUOUS
10
220.295
20
-73.594
11
219.851
21
-74.0374
0
LINE
8
BLACK
6
CONTINUOUS
10
219.851
20
-74.0374
11
220.289
21
-74.0374
0
LINE
8
BLACK
6
CONTINUOUS
10
220.289
20
-74.0374
11
220.315
21
-74.0419
0
LINE
8
BLACK
6
CONTINUOUS
10
220.315
20
-74.0419
11
220.354
21
-74.0749
0
LINE
8
BLACK
6
CONTINUOUS
10
220.354
20
-74.0749
11
220.363
21
-74.1254
0
LINE
8
BLACK
6
CONTINUOUS
10
220.363
20
-74.1254
11
220.337
21
-74.1698
0
LINE
8
BLACK
6
CONTINUOUS
10
220.337
20
-74.1698
11
220.289
21
-74.1874
0
LINE
8
BLACK
6
CONTINUOUS
10
220.289
20
-74.1874
11
219.67
21
-74.1874
0
LINE
8
BLACK
6
CONTINUOUS
10
219.67
20
-74.1874
11
219.654
21
-74.1845
0
LINE
8
BLACK
6
CONTINUOUS
10
219.654
20
-74.1845
11
219.651
21
-74.1848
0
LINE
8
BLACK
6
CONTINUOUS
10
219.651
20
-74.1848
11
219.649
21
-74.1837
0
LINE
8
BLACK
6
CONTINUOUS
10
219.649
20
-74.1837
11
219.645
21
-74.1829
0
LINE
8
BLACK
6
CONTINUOUS
10
219.645
20
-74.1829
11
219.627
21
-74.1683
0
LINE
8
BLACK
6
CONTINUOUS
10
219.627
20
-74.1683
11
219.609
21
-74.1554
0
LINE
8
BLACK
6
CONTINUOUS
10
219.609
20
-74.1554
11
219.608
21
-74.1521
0
LINE
8
BLACK
6
CONTINUOUS
10
219.608
20
-74.1521
11
219.605
21
-74.1499
0
LINE
8
BLACK
6
CONTINUOUS
10
219.605
20
-74.1499
11
219.601
21
-74.1276
0
LINE
8
BLACK
6
CONTINUOUS
10
219.601
20
-74.1276
11
219.596
21
-74.1058
0
LINE
8
BLACK
6
CONTINUOUS
10
219.596
20
-74.1058
11
219.597
21
-74.1027
0
LINE
8
BLACK
6
CONTINUOUS
10
219.597
20
-74.1027
11
219.596
21
-74.0994
0
LINE
8
BLACK
6
CONTINUOUS
10
219.596
20
-74.0994
11
219.608
21
-74.0798
0
LINE
8
BLACK
6
CONTINUOUS
10
219.608
20
-74.0798
11
219.617
21
-74.0593
0
LINE
8
BLACK
6
CONTINUOUS
10
219.617
20
-74.0593
11
220.176
21
-73.5004
0
LINE
8
BLACK
6
CONTINUOUS
10
220.176
20
-73.5004
11
220.214
21
-73.3859
0
LINE
8
BLACK
6
CONTINUOUS
10
220.214
20
-73.3859
11
220.214
21
-73.3206
0
LINE
8
BLACK
6
CONTINUOUS
10
220.214
20
-73.3206
11
220.18
21
-73.252
0
LINE
8
BLACK
6
CONTINUOUS
10
220.18
20
-73.252
11
220.15
21
-73.2216
0
LINE
8
BLACK
6
CONTINUOUS
10
220.15
20
-73.2216
11
220.081
21
-73.1874
0
LINE
8
BLACK
6
CONTINUOUS
10
220.081
20
-73.1874
11
219.878
21
-73.1874
0
LINE
8
BLACK
6
CONTINUOUS
10
219.878
20
-73.1874
11
219.81
21
-73.2216
0
LINE
8
BLACK
6
CONTINUOUS
10
219.81
20
-73.2216
11
219.771
21
-73.2607
0
LINE
8
BLACK
6
CONTINUOUS
10
219.771
20
-73.2607
11
219.75
21
-73.2756
0
LINE
8
BLACK
6
CONTINUOUS
10
219.75
20
-73.2756
11
219.698
21
-73.2801
0
LINE
8
BLACK
6
CONTINUOUS
10
219.698
20
-73.2801
11
219.656
21
-73.2506
0
LINE
8
BLACK
6
CONTINUOUS
10
219.656
20
-73.2506
11
219.643
21
-73.2011
0
LINE
8
BLACK
6
CONTINUOUS
10
219.643
20
-73.2011
11
219.665
21
-73.1546
0
LINE
8
BLACK
6
CONTINUOUS
10
219.665
20
-73.1546
11
219.712
21
-73.107
0
LINE
8
BLACK
6
CONTINUOUS
10
219.712
20
-73.107
11
219.731
21
-73.0941
0
LINE
8
BLACK
6
CONTINUOUS
10
219.731
20
-73.0941
11
219.732
21
-73.0929
0
LINE
8
BLACK
6
CONTINUOUS
10
219.732
20
-73.0929
11
219.827
21
-73.0453
0
LINE
8
BLACK
6
CONTINUOUS
10
219.827
20
-73.0453
11
219.852
21
-73.0379
0
LINE
8
BLACK
6
CONTINUOUS
10
219.852
20
-73.0379
11
219.856
21
-73.0389
0
LINE
8
BLACK
6
CONTINUOUS
10
219.856
20
-73.0389
11
219.861
21
-73.0374
0
LINE
8
BLACK
6
CONTINUOUS
10
219.861
20
-73.0374
11
220.099
21
-73.0374
0
LINE
8
BLACK
6
CONTINUOUS
10
220.099
20
-73.0374
11
220.124
21
-73.0419
0
LINE
8
BLACK
6
CONTINUOUS
10
67.9933
20
-73.0393
11
67.9976
21
-73.0385
0
LINE
8
BLACK
6
CONTINUOUS
10
67.9976
20
-73.0385
11
68.0164
21
-73.0494
0
LINE
8
BLACK
6
CONTINUOUS
10
68.0164
20
-73.0494
11
68.0364
21
-73.0581
0
LINE
8
BLACK
6
CONTINUOUS
10
68.0364
20
-73.0581
11
68.0383
21
-73.062
0
LINE
8
BLACK
6
CONTINUOUS
10
68.0383
20
-73.062
11
68.042
21
-73.0642
0
LINE
8
BLACK
6
CONTINUOUS
10
68.042
20
-73.0642
11
68.0495
21
-73.0846
0
LINE
8
BLACK
6
CONTINUOUS
10
68.0495
20
-73.0846
11
68.0591
21
-73.1041
0
LINE
8
BLACK
6
CONTINUOUS
10
68.0591
20
-73.1041
11
68.0581
21
-73.1083
0
LINE
8
BLACK
6
CONTINUOUS
10
68.0581
20
-73.1083
11
68.0596
21
-73.1124
0
LINE
8
BLACK
6
CONTINUOUS
10
68.0596
20
-73.1124
11
68.0596
21
-74.0374
0
LINE
8
BLACK
6
CONTINUOUS
10
68.0596
20
-74.0374
11
68.2703
21
-74.0374
0
LINE
8
BLACK
6
CONTINUOUS
10
68.2703
20
-74.0374
11
68.2959
21
-74.0419
0
LINE
8
BLACK
6
CONTINUOUS
10
68.2959
20
-74.0419
11
68.3352
21
-74.0749
0
LINE
8
BLACK
6
CONTINUOUS
10
68.3352
20
-74.0749
11
68.3441
21
-74.1254
0
LINE
8
BLACK
6
CONTINUOUS
10
68.3441
20
-74.1254
11
68.3185
21
-74.1698
0
LINE
8
BLACK
6
CONTINUOUS
10
68.3185
20
-74.1698
11
68.2703
21
-74.1874
0
LINE
8
BLACK
6
CONTINUOUS
10
68.2703
20
-74.1874
11
67.6989
21
-74.1874
0
LINE
8
BLACK
6
CONTINUOUS
10
67.6989
20
-74.1874
11
67.6732
21
-74.1829
0
LINE
8
BLACK
6
CONTINUOUS
10
67.6732
20
-74.1829
11
67.6339
21
-74.1499
0
LINE
8
BLACK
6
CONTINUOUS
10
67.6339
20
-74.1499
11
67.625
21
-74.0994
0
LINE
8
BLACK
6
CONTINUOUS
10
67.625
20
-74.0994
11
67.6506
21
-74.0549
0
LINE
8
BLACK
6
CONTINUOUS
10
67.6506
20
-74.0549
11
67.6989
21
-74.0374
0
LINE
8
BLACK
6
CONTINUOUS
10
67.6989
20
-74.0374
11
67.9096
21
-74.0374
0
LINE
8
BLACK
6
CONTINUOUS
10
67.9096
20
-74.0374
11
67.9096
21
-73.3411
0
LINE
8
BLACK
6
CONTINUOUS
10
67.9096
20
-73.3411
11
67.8471
21
-73.4035
0
LINE
8
BLACK
6
CONTINUOUS
10
67.8471
20
-73.4035
11
67.8288
21
-73.4164
0
LINE
8
BLACK
6
CONTINUOUS
10
67.8288
20
-73.4164
11
67.8276
21
-73.4176
0
LINE
8
BLACK
6
CONTINUOUS
10
67.8276
20
-73.4176
11
67.7324
21
-73.4652
0
LINE
8
BLACK
6
CONTINUOUS
10
67.7324
20
-73.4652
11
67.7074
21
-73.4726
0
LINE
8
BLACK
6
CONTINUOUS
10
67.7074
20
-73.4726
11
67.6575
21
-73.4607
0
LINE
8
BLACK
6
CONTINUOUS
10
67.6575
20
-73.4607
11
67.627
21
-73.4195
0
LINE
8
BLACK
6
CONTINUOUS
10
67.627
20
-73.4195
11
67.63
21
-73.3683
0
LINE
8
BLACK
6
CONTINUOUS
10
67.63
20
-73.3683
11
67.6653
21
-73.331
0
LINE
8
BLACK
6
CONTINUOUS
10
67.6653
20
-73.331
11
67.7497
21
-73.2888
0
LINE
8
BLACK
6
CONTINUOUS
10
67.7497
20
-73.2888
11
67.831
21
-73.2075
0
LINE
8
BLACK
6
CONTINUOUS
10
67.831
20
-73.2075
11
67.9222
21
-73.0708
0
LINE
8
BLACK
6
CONTINUOUS
10
67.9222
20
-73.0708
11
67.9402
21
-73.0519
0
LINE
8
BLACK
6
CONTINUOUS
10
67.9402
20
-73.0519
11
67.9443
21
-73.0507
0
LINE
8
BLACK
6
CONTINUOUS
10
67.9443
20
-73.0507
11
67.9471
21
-73.0474
0
LINE
8
BLACK
6
CONTINUOUS
10
67.9471
20
-73.0474
11
67.9685
21
-73.0436
0
LINE
8
BLACK
6
CONTINUOUS
10
67.9685
20
-73.0436
11
67.9894
21
-73.0375
0
LINE
8
BLACK
6
CONTINUOUS
10
67.9894
20
-73.0375
11
67.9933
21
-73.0393
0
LINE
8
BLACK
6
CONTINUOUS
10
66.7857
20
-73.0485
11
66.8176
21
-73.0887
0
LINE
8
BLACK
6
CONTINUOUS
10
66.8176
20
-73.0887
11
67.0798
21
-73.8752
0
LINE
8
BLACK
6
CONTINUOUS
10
67.0798
20
-73.8752
11
67.342
21
-73.0887
0
LINE
8
BLACK
6
CONTINUOUS
10
67.342
20
-73.0887
11
67.3544
21
-73.0658
0
LINE
8
BLACK
6
CONTINUOUS
10
67.3544
20
-73.0658
11
67.3981
21
-73.0389
0
LINE
8
BLACK
6
CONTINUOUS
10
67.3981
20
-73.0389
11
67.4489
21
-73.0464
0
LINE
8
BLACK
6
CONTINUOUS
10
67.4489
20
-73.0464
11
67.4829
21
-73.0848
0
LINE
8
BLACK
6
CONTINUOUS
10
67.4829
20
-73.0848
11
67.4843
21
-73.1361
0
LINE
8
BLACK
6
CONTINUOUS
10
67.4843
20
-73.1361
11
67.151
21
-74.1361
0
LINE
8
BLACK
6
CONTINUOUS
10
67.151
20
-74.1361
11
67.1386
21
-74.159
0
LINE
8
BLACK
6
CONTINUOUS
10
67.1386
20
-74.159
11
67.1367
21
-74.1601
0
LINE
8
BLACK
6
CONTINUOUS
10
67.1367
20
-74.1601
11
67.1359
21
-74.1621
0
LINE
8
BLACK
6
CONTINUOUS
10
67.1359
20
-74.1621
11
67.1151
21
-74.1734
0
LINE
8
BLACK
6
CONTINUOUS
10
67.1151
20
-74.1734
11
67.0948
21
-74.1859
0
LINE
8
BLACK
6
CONTINUOUS
10
67.0948
20
-74.1859
11
67.0927
21
-74.1855
0
LINE
8
BLACK
6
CONTINUOUS
10
67.0927
20
-74.1855
11
67.0908
21
-74.1866
0
LINE
8
BLACK
6
CONTINUOUS
10
67.0908
20
-74.1866
11
67.0676
21
-74.1818
0
LINE
8
BLACK
6
CONTINUOUS
10
67.0676
20
-74.1818
11
67.0441
21
-74.1783
0
LINE
8
BLACK
6
CONTINUOUS
10
67.0441
20
-74.1783
11
67.0427
21
-74.1767
0
LINE
8
BLACK
6
CONTINUOUS
10
67.0427
20
-74.1767
11
67.0405
21
-74.1763
0
LINE
8
BLACK
6
CONTINUOUS
10
67.0405
20
-74.1763
11
67.0258
21
-74.1577
0
LINE
8
BLACK
6
CONTINUOUS
10
67.0258
20
-74.1577
11
67.0101
21
-74.1399
0
LINE
8
BLACK
6
CONTINUOUS
10
67.0101
20
-74.1399
11
67.01
21
-74.1378
0
LINE
8
BLACK
6
CONTINUOUS
10
67.01
20
-74.1378
11
67.0087
21
-74.1361
0
LINE
8
BLACK
6
CONTINUOUS
10
67.0087
20
-74.1361
11
66.6753
21
-73.1361
0
LINE
8
BLACK
6
CONTINUOUS
10
66.6753
20
-73.1361
11
66.6715
21
-73.1103
0
LINE
8
BLACK
6
CONTINUOUS
10
66.6715
20
-73.1103
11
66.6904
21
-73.0626
0
LINE
8
BLACK
6
CONTINUOUS
10
66.6904
20
-73.0626
11
66.7355
21
-73.0382
0
LINE
8
BLACK
6
CONTINUOUS
10
66.7355
20
-73.0382
11
66.7857
21
-73.0485
0
LINE
8
BLACK
6
CONTINUOUS
10
218.805
20
-73.0485
11
218.837
21
-73.0887
0
LINE
8
BLACK
6
CONTINUOUS
10
218.837
20
-73.0887
11
219.099
21
-73.8752
0
LINE
8
BLACK
6
CONTINUOUS
10
219.099
20
-73.8752
11
219.361
21
-73.0887
0
LINE
8
BLACK
6
CONTINUOUS
10
219.361
20
-73.0887
11
219.373
21
-73.0658
0
LINE
8
BLACK
6
CONTINUOUS
10
219.373
20
-73.0658
11
219.417
21
-73.0389
0
LINE
8
BLACK
6
CONTINUOUS
10
219.417
20
-73.0389
11
219.468
21
-73.0464
0
LINE
8
BLACK
6
CONTINUOUS
10
219.468
20
-73.0464
11
219.502
21
-73.0848
0
LINE
8
BLACK
6
CONTINUOUS
10
219.502
20
-73.0848
11
219.503
21
-73.1361
0
LINE
8
BLACK
6
CONTINUOUS
10
219.503
20
-73.1361
11
219.17
21
-74.1361
0
LINE
8
BLACK
6
CONTINUOUS
10
219.17
20
-74.1361
11
219.158
21
-74.159
0
LINE
8
BLACK
6
CONTINUOUS
10
219.158
20
-74.159
11
219.156
21
-74.1601
0
LINE
8
BLACK
6
CONTINUOUS
10
219.156
20
-74.1601
11
219.155
21
-74.1621
0
LINE
8
BLACK
6
CONTINUOUS
10
219.155
20
-74.1621
11
219.134
21
-74.1734
0
LINE
8
BLACK
6
CONTINUOUS
10
219.134
20
-74.1734
11
219.114
21
-74.1859
0
LINE
8
BLACK
6
CONTINUOUS
10
219.114
20
-74.1859
11
219.112
21
-74.1855
0
LINE
8
BLACK
6
CONTINUOUS
10
219.112
20
-74.1855
11
219.11
21
-74.1866
0
LINE
8
BLACK
6
CONTINUOUS
10
219.11
20
-74.1866
11
219.087
21
-74.1818
0
LINE
8
BLACK
6
CONTINUOUS
10
219.087
20
-74.1818
11
219.063
21
-74.1783
0
LINE
8
BLACK
6
CONTINUOUS
10
219.063
20
-74.1783
11
219.062
21
-74.1767
0
LINE
8
BLACK
6
CONTINUOUS
10
219.062
20
-74.1767
11
219.06
21
-74.1763
0
LINE
8
BLACK
6
CONTINUOUS
10
219.06
20
-74.1763
11
219.045
21
-74.1577
0
LINE
8
BLACK
6
CONTINUOUS
10
219.045
20
-74.1577
11
219.029
21
-74.1399
0
LINE
8
BLACK
6
CONTINUOUS
10
219.029
20
-74.1399
11
219.029
21
-74.1378
0
LINE
8
BLACK
6
CONTINUOUS
10
219.029
20
-74.1378
11
219.028
21
-74.1361
0
LINE
8
BLACK
6
CONTINUOUS
10
219.028
20
-74.1361
11
218.694
21
-73.1361
0
LINE
8
BLACK
6
CONTINUOUS
10
218.694
20
-73.1361
11
218.691
21
-73.1103
0
LINE
8
BLACK
6
CONTINUOUS
10
218.691
20
-73.1103
11
218.709
21
-73.0626
0
LINE
8
BLACK
6
CONTINUOUS
10
218.709
20
-73.0626
11
218.754
21
-73.0382
0
LINE
8
BLACK
6
CONTINUOUS
10
218.754
20
-73.0382
11
218.805
21
-73.0485
0
LINE
8
BLACK
6
CONTINUOUS
10
66.2959
20
-73.0419
11
66.2994
21
-73.0448
0
LINE
8
BLACK
6
CONTINUOUS
10
66.2994
20
-73.0448
11
66.3038
21
-73.0453
0
LINE
8
BLACK
6
CONTINUOUS
10
66.3038
20
-73.0453
11
66.3991
21
-73.0929
0
LINE
8
BLACK
6
CONTINUOUS
10
66.3991
20
-73.0929
11
66.4171
21
-73.1063
0
LINE
8
BLACK
6
CONTINUOUS
10
66.4171
20
-73.1063
11
66.4186
21
-73.107
0
LINE
8
BLACK
6
CONTINUOUS
10
66.4186
20
-73.107
11
66.4662
21
-73.1546
0
LINE
8
BLACK
6
CONTINUOUS
10
66.4662
20
-73.1546
11
66.479
21
-73.173
0
LINE
8
BLACK
6
CONTINUOUS
10
66.479
20
-73.173
11
66.4802
21
-73.1741
0
LINE
8
BLACK
6
CONTINUOUS
10
66.4802
20
-73.1741
11
66.5278
21
-73.2693
0
LINE
8
BLACK
6
CONTINUOUS
10
66.5278
20
-73.2693
11
66.5353
21
-73.2943
0
LINE
8
BLACK
6
CONTINUOUS
10
66.5353
20
-73.2943
11
66.5342
21
-73.2986
0
LINE
8
BLACK
6
CONTINUOUS
10
66.5342
20
-73.2986
11
66.5358
21
-73.3029
0
LINE
8
BLACK
6
CONTINUOUS
10
66.5358
20
-73.3029
11
66.5358
21
-73.4457
0
LINE
8
BLACK
6
CONTINUOUS
10
66.5358
20
-73.4457
11
66.5312
21
-73.4714
0
LINE
8
BLACK
6
CONTINUOUS
10
66.5312
20
-73.4714
11
66.5284
21
-73.4748
0
LINE
8
BLACK
6
CONTINUOUS
10
66.5284
20
-73.4748
11
66.5278
21
-73.4793
0
LINE
8
BLACK
6
CONTINUOUS
10
66.5278
20
-73.4793
11
66.4802
21
-73.5745
0
LINE
8
BLACK
6
CONTINUOUS
10
66.4802
20
-73.5745
11
66.4669
21
-73.5925
0
LINE
8
BLACK
6
CONTINUOUS
10
66.4669
20
-73.5925
11
66.4662
21
-73.594
0
LINE
8
BLACK
6
CONTINUOUS
10
66.4662
20
-73.594
11
66.4186
21
-73.6416
0
LINE
8
BLACK
6
CONTINUOUS
10
66.4186
20
-73.6416
11
66.4002
21
-73.6545
0
LINE
8
BLACK
6
CONTINUOUS
10
66.4002
20
-73.6545
11
66.3991
21
-73.6557
0
LINE
8
BLACK
6
CONTINUOUS
10
66.3991
20
-73.6557
11
66.3038
21
-73.7033
0
LINE
8
BLACK
6
CONTINUOUS
10
66.3038
20
-73.7033
11
66.2789
21
-73.7107
0
LINE
8
BLACK
6
CONTINUOUS
10
66.2789
20
-73.7107
11
66.2745
21
-73.7097
0
LINE
8
BLACK
6
CONTINUOUS
10
66.2745
20
-73.7097
11
66.2712
21
-73.7108
0
LINE
8
BLACK
6
CONTINUOUS
10
66.2712
20
-73.7108
11
66.5222
21
-74.0694
0
LINE
8
BLACK
6
CONTINUOUS
10
66.5222
20
-74.0694
11
66.5332
21
-74.093
0
LINE
8
BLACK
6
CONTINUOUS
10
66.5332
20
-74.093
11
66.5287
21
-74.1441
0
LINE
8
BLACK
6
CONTINUOUS
10
66.5287
20
-74.1441
11
66.4924
21
-74.1804
0
LINE
8
BLACK
6
CONTINUOUS
10
66.4924
20
-74.1804
11
66.4413
21
-74.1848
0
LINE
8
BLACK
6
CONTINUOUS
10
66.4413
20
-74.1848
11
66.3993
21
-74.1554
0
LINE
8
BLACK
6
CONTINUOUS
10
66.3993
20
-74.1554
11
66.0884
21
-73.7112
0
LINE
8
BLACK
6
CONTINUOUS
10
66.0884
20
-73.7112
11
65.9643
21
-73.7112
0
LINE
8
BLACK
6
CONTINUOUS
10
65.9643
20
-73.7112
11
65.9643
21
-74.1124
0
LINE
8
BLACK
6
CONTINUOUS
10
65.9643
20
-74.1124
11
65.9598
21
-74.138
0
LINE
8
BLACK
6
CONTINUOUS
10
65.9598
20
-74.138
11
65.9268
21
-74.1773
0
LINE
8
BLACK
6
CONTINUOUS
10
65.9268
20
-74.1773
11
65.8763
21
-74.1862
0
LINE
8
BLACK
6
CONTINUOUS
10
65.8763
20
-74.1862
11
65.8319
21
-74.1606
0
LINE
8
BLACK
6
CONTINUOUS
10
65.8319
20
-74.1606
11
65.8143
21
-74.1124
0
LINE
8
BLACK
6
CONTINUOUS
10
65.8143
20
-74.1124
11
65.8143
21
-73.1124
0
LINE
8
BLACK
6
CONTINUOUS
10
65.8143
20
-73.1124
11
65.8161
21
-73.1026
0
LINE
8
BLACK
6
CONTINUOUS
10
65.8161
20
-73.1026
11
65.8155
21
-73.0994
0
LINE
8
BLACK
6
CONTINUOUS
10
65.8155
20
-73.0994
11
65.8171
21
-73.0965
0
LINE
8
BLACK
6
CONTINUOUS
10
65.8171
20
-73.0965
11
65.8189
21
-73.0867
0
LINE
8
BLACK
6
CONTINUOUS
10
65.8189
20
-73.0867
11
65.8314
21
-73.0718
0
LINE
8
BLACK
6
CONTINUOUS
10
65.8314
20
-73.0718
11
65.8411
21
-73.0549
0
LINE
8
BLACK
6
CONTINUOUS
10
65.8411
20
-73.0549
11
65.8475
21
-73.0526
0
LINE
8
BLACK
6
CONTINUOUS
10
65.8475
20
-73.0526
11
65.8518
21
-73.0474
0
LINE
8
BLACK
6
CONTINUOUS
10
65.8518
20
-73.0474
11
65.871
21
-73.044
0
LINE
8
BLACK
6
CONTINUOUS
10
65.871
20
-73.044
11
65.8893
21
-73.0374
0
LINE
8
BLACK
6
CONTINUOUS
10
65.8893
20
-73.0374
11
66.2703
21
-73.0374
0
LINE
8
BLACK
6
CONTINUOUS
10
66.2703
20
-73.0374
11
66.2959
21
-73.0419
0
LINE
8
BLACK
6
CONTINUOUS
10
65.9643
20
-73.1874
11
65.9643
21
-73.5612
0
LINE
8
BLACK
6
CONTINUOUS
10
65.9643
20
-73.5612
11
66.2526
21
-73.5612
0
LINE
8
BLACK
6
CONTINUOUS
10
66.2526
20
-73.5612
11
66.3211
21
-73.5269
0
LINE
8
BLACK
6
CONTINUOUS
10
66.3211
20
-73.5269
11
66.3515
21
-73.4965
0
LINE
8
BLACK
6
CONTINUOUS
10
66.3515
20
-73.4965
11
66.3858
21
-73.428
0
LINE
8
BLACK
6
CONTINUOUS
10
66.3858
20
-73.428
11
66.3858
21
-73.3206
0
LINE
8
BLACK
6
CONTINUOUS
10
66.3858
20
-73.3206
11
66.3515
21
-73.252
0
LINE
8
BLACK
6
CONTINUOUS
10
66.3515
20
-73.252
11
66.3211
21
-73.2216
0
LINE
8
BLACK
6
CONTINUOUS
10
66.3211
20
-73.2216
11
66.2526
21
-73.1874
0
LINE
8
BLACK
6
CONTINUOUS
10
66.2526
20
-73.1874
11
65.9643
21
-73.1874
0
LINE
8
BLACK
6
CONTINUOUS
10
218.315
20
-73.0419
11
218.318
21
-73.0448
0
LINE
8
BLACK
6
CONTINUOUS
10
218.318
20
-73.0448
11
218.323
21
-73.0453
0
LINE
8
BLACK
6
CONTINUOUS
10
218.323
20
-73.0453
11
218.418
21
-73.0929
0
LINE
8
BLACK
6
CONTINUOUS
10
218.418
20
-73.0929
11
218.436
21
-73.1063
0
LINE
8
BLACK
6
CONTINUOUS
10
218.436
20
-73.1063
11
218.438
21
-73.107
0
LINE
8
BLACK
6
CONTINUOUS
10
218.438
20
-73.107
11
218.485
21
-73.1546
0
LINE
8
BLACK
6
CONTINUOUS
10
218.485
20
-73.1546
11
218.498
21
-73.173
0
LINE
8
BLACK
6
CONTINUOUS
10
218.498
20
-73.173
11
218.499
21
-73.1741
0
LINE
8
BLACK
6
CONTINUOUS
10
218.499
20
-73.1741
11
218.547
21
-73.2693
0
LINE
8
BLACK
6
CONTINUOUS
10
218.547
20
-73.2693
11
218.554
21
-73.2943
0
LINE
8
BLACK
6
CONTINUOUS
10
218.554
20
-73.2943
11
218.553
21
-73.2986
0
LINE
8
BLACK
6
CONTINUOUS
10
218.553
20
-73.2986
11
218.555
21
-73.3029
0
LINE
8
BLACK
6
CONTINUOUS
10
218.555
20
-73.3029
11
218.555
21
-73.4457
0
LINE
8
BLACK
6
CONTINUOUS
10
218.555
20
-73.4457
11
218.55
21
-73.4714
0
LINE
8
BLACK
6
CONTINUOUS
10
218.55
20
-73.4714
11
218.547
21
-73.4748
0
LINE
8
BLACK
6
CONTINUOUS
10
218.547
20
-73.4748
11
218.547
21
-73.4793
0
LINE
8
BLACK
6
CONTINUOUS
10
218.547
20
-73.4793
11
218.499
21
-73.5745
0
LINE
8
BLACK
6
CONTINUOUS
10
218.499
20
-73.5745
11
218.486
21
-73.5925
0
LINE
8
BLACK
6
CONTINUOUS
10
218.486
20
-73.5925
11
218.485
21
-73.594
0
LINE
8
BLACK
6
CONTINUOUS
10
218.485
20
-73.594
11
218.438
21
-73.6416
0
LINE
8
BLACK
6
CONTINUOUS
10
218.438
20
-73.6416
11
218.419
21
-73.6545
0
LINE
8
BLACK
6
CONTINUOUS
10
218.419
20
-73.6545
11
218.418
21
-73.6557
0
LINE
8
BLACK
6
CONTINUOUS
10
218.418
20
-73.6557
11
218.323
21
-73.7033
0
LINE
8
BLACK
6
CONTINUOUS
10
218.323
20
-73.7033
11
218.298
21
-73.7107
0
LINE
8
BLACK
6
CONTINUOUS
10
218.298
20
-73.7107
11
218.293
21
-73.7097
0
LINE
8
BLACK
6
CONTINUOUS
10
218.293
20
-73.7097
11
218.29
21
-73.7108
0
LINE
8
BLACK
6
CONTINUOUS
10
218.29
20
-73.7108
11
218.541
21
-74.0694
0
LINE
8
BLACK
6
CONTINUOUS
10
218.541
20
-74.0694
11
218.552
21
-74.093
0
LINE
8
BLACK
6
CONTINUOUS
10
218.552
20
-74.093
11
218.548
21
-74.1441
0
LINE
8
BLACK
6
CONTINUOUS
10
218.548
20
-74.1441
11
218.511
21
-74.1804
0
LINE
8
BLACK
6
CONTINUOUS
10
218.511
20
-74.1804
11
218.46
21
-74.1848
0
LINE
8
BLACK
6
CONTINUOUS
10
218.46
20
-74.1848
11
218.418
21
-74.1554
0
LINE
8
BLACK
6
CONTINUOUS
10
218.418
20
-74.1554
11
218.107
21
-73.7112
0
LINE
8
BLACK
6
CONTINUOUS
10
218.107
20
-73.7112
11
217.983
21
-73.7112
0
LINE
8
BLACK
6
CONTINUOUS
10
217.983
20
-73.7112
11
217.983
21
-74.1124
0
LINE
8
BLACK
6
CONTINUOUS
10
217.983
20
-74.1124
11
217.979
21
-74.138
0
LINE
8
BLACK
6
CONTINUOUS
10
217.979
20
-74.138
11
217.946
21
-74.1773
0
LINE
8
BLACK
6
CONTINUOUS
10
217.946
20
-74.1773
11
217.895
21
-74.1862
0
LINE
8
BLACK
6
CONTINUOUS
10
217.895
20
-74.1862
11
217.851
21
-74.1606
0
LINE
8
BLACK
6
CONTINUOUS
10
217.851
20
-74.1606
11
217.833
21
-74.1124
0
LINE
8
BLACK
6
CONTINUOUS
10
217.833
20
-74.1124
11
217.833
21
-73.1124
0
LINE
8
BLACK
6
CONTINUOUS
10
217.833
20
-73.1124
11
217.835
21
-73.1026
0
LINE
8
BLACK
6
CONTINUOUS
10
217.835
20
-73.1026
11
217.834
21
-73.0994
0
LINE
8
BLACK
6
CONTINUOUS
10
217.834
20
-73.0994
11
217.836
21
-73.0965
0
LINE
8
BLACK
6
CONTINUOUS
10
217.836
20
-73.0965
11
217.838
21
-73.0867
0
LINE
8
BLACK
6
CONTINUOUS
10
217.838
20
-73.0867
11
217.85
21
-73.0718
0
LINE
8
BLACK
6
CONTINUOUS
10
217.85
20
-73.0718
11
217.86
21
-73.0549
0
LINE
8
BLACK
6
CONTINUOUS
10
217.86
20
-73.0549
11
217.866
21
-73.0526
0
LINE
8
BLACK
6
CONTINUOUS
10
217.866
20
-73.0526
11
217.871
21
-73.0474
0
LINE
8
BLACK
6
CONTINUOUS
10
217.871
20
-73.0474
11
217.89
21
-73.044
0
LINE
8
BLACK
6
CONTINUOUS
10
217.89
20
-73.044
11
217.908
21
-73.0374
0
LINE
8
BLACK
6
CONTINUOUS
10
217.908
20
-73.0374
11
218.289
21
-73.0374
0
LINE
8
BLACK
6
CONTINUOUS
10
218.289
20
-73.0374
11
218.315
21
-73.0419
0
LINE
8
BLACK
6
CONTINUOUS
10
217.983
20
-73.1874
11
217.983
21
-73.5612
0
LINE
8
BLACK
6
CONTINUOUS
10
217.983
20
-73.5612
11
218.272
21
-73.5612
0
LINE
8
BLACK
6
CONTINUOUS
10
218.272
20
-73.5612
11
218.34
21
-73.5269
0
LINE
8
BLACK
6
CONTINUOUS
10
218.34
20
-73.5269
11
218.371
21
-73.4965
0
LINE
8
BLACK
6
CONTINUOUS
10
218.371
20
-73.4965
11
218.405
21
-73.428
0
LINE
8
BLACK
6
CONTINUOUS
10
218.405
20
-73.428
11
218.405
21
-73.3206
0
LINE
8
BLACK
6
CONTINUOUS
10
218.405
20
-73.3206
11
218.371
21
-73.252
0
LINE
8
BLACK
6
CONTINUOUS
10
218.371
20
-73.252
11
218.34
21
-73.2216
0
LINE
8
BLACK
6
CONTINUOUS
10
218.34
20
-73.2216
11
218.272
21
-73.1874
0
LINE
8
BLACK
6
CONTINUOUS
10
218.272
20
-73.1874
11
217.983
21
-73.1874
0
LINE
8
BLACK
6
CONTINUOUS
10
67.5524
20
-68.0176
11
67.57
21
-68.06
0
LINE
8
BLACK
6
CONTINUOUS
10
67.57
20
-68.06
11
67.57
21
-72.72
0
LINE
8
BLACK
6
CONTINUOUS
10
67.57
20
-72.72
11
68.7
21
-72.72
0
LINE
8
BLACK
6
CONTINUOUS
10
68.7
20
-72.72
11
68.7424
21
-72.7376
0
LINE
8
BLACK
6
CONTINUOUS
10
68.7424
20
-72.7376
11
68.76
21
-72.78
0
LINE
8
BLACK
6
CONTINUOUS
10
68.76
20
-72.78
11
68.7424
21
-72.8224
0
LINE
8
BLACK
6
CONTINUOUS
10
68.7424
20
-72.8224
11
68.7
21
-72.84
0
LINE
8
BLACK
6
CONTINUOUS
10
68.7
20
-72.84
11
67.52
21
-72.84
0
LINE
8
BLACK
6
CONTINUOUS
10
67.52
20
-72.84
11
67.515
21
-72.8379
0
LINE
8
BLACK
6
CONTINUOUS
10
67.515
20
-72.8379
11
67.51
21
-72.84
0
LINE
8
BLACK
6
CONTINUOUS
10
67.51
20
-72.84
11
67.4676
21
-72.8224
0
LINE
8
BLACK
6
CONTINUOUS
10
67.4676
20
-72.8224
11
67.45
21
-72.78
0
LINE
8
BLACK
6
CONTINUOUS
10
67.45
20
-72.78
11
67.45
21
-68.06
0
LINE
8
BLACK
6
CONTINUOUS
10
67.45
20
-68.06
11
67.4676
21
-68.0176
0
LINE
8
BLACK
6
CONTINUOUS
10
67.4676
20
-68.0176
11
67.51
21
-68
0
LINE
8
BLACK
6
CONTINUOUS
10
67.51
20
-68
11
67.5524
21
-68.0176
0
LINE
8
BLACK
6
CONTINUOUS
10
75.7276
20
-72.8224
11
75.71
21
-72.78
0
LINE
8
BLACK
6
CONTINUOUS
10
75.71
20
-72.78
11
75.7276
21
-72.7376
0
LINE
8
BLACK
6
CONTINUOUS
10
75.7276
20
-72.7376
11
75.77
21
-72.72
0
LINE
8
BLACK
6
CONTINUOUS
10
75.77
20
-72.72
11
77.2
21
-72.72
0
LINE
8
BLACK
6
CONTINUOUS
10
77.2
20
-72.72
11
77.2
21
-68.06
0
LINE
8
BLACK
6
CONTINUOUS
10
77.2
20
-68.06
11
77.2176
21
-68.0176
0
LINE
8
BLACK
6
CONTINUOUS
10
77.2176
20
-68.0176
11
77.26
21
-68
0
LINE
8
BLACK
6
CONTINUOUS
10
77.26
20
-68
11
77.3024
21
-68.0176
0
LINE
8
BLACK
6
CONTINUOUS
10
77.3024
20
-68.0176
11
77.32
21
-68.06
0
LINE
8
BLACK
6
CONTINUOUS
10
77.32
20
-68.06
11
77.32
21
-72.78
0
LINE
8
BLACK
6
CONTINUOUS
10
77.32
20
-72.78
11
77.3024
21
-72.8224
0
LINE
8
BLACK
6
CONTINUOUS
10
77.3024
20
-72.8224
11
77.26
21
-72.84
0
LINE
8
BLACK
6
CONTINUOUS
10
77.26
20
-72.84
11
75.77
21
-72.84
0
LINE
8
BLACK
6
CONTINUOUS
10
75.77
20
-72.84
11
75.7276
21
-72.8224
0
LINE
8
BLACK
6
CONTINUOUS
10
74.0924
20
-72.7376
11
74.11
21
-72.78
0
LINE
8
BLACK
6
CONTINUOUS
10
74.11
20
-72.78
11
74.0924
21
-72.8224
0
LINE
8
BLACK
6
CONTINUOUS
10
74.0924
20
-72.8224
11
74.05
21
-72.84
0
LINE
8
BLACK
6
CONTINUOUS
10
74.05
20
-72.84
11
73.22
21
-72.84
0
LINE
8
BLACK
6
CONTINUOUS
10
73.22
20
-72.84
11
73.1776
21
-72.8224
0
LINE
8
BLACK
6
CONTINUOUS
10
73.1776
20
-72.8224
11
73.16
21
-72.78
0
LINE
8
BLACK
6
CONTINUOUS
10
73.16
20
-72.78
11
73.1776
21
-72.7376
0
LINE
8
BLACK
6
CONTINUOUS
10
73.1776
20
-72.7376
11
73.22
21
-72.72
0
LINE
8
BLACK
6
CONTINUOUS
10
73.22
20
-72.72
11
74.05
21
-72.72
0
LINE
8
BLACK
6
CONTINUOUS
10
74.05
20
-72.72
11
74.0924
21
-72.7376
0
LINE
8
BLACK
6
CONTINUOUS
10
71.6424
20
-72.7376
11
71.66
21
-72.78
0
LINE
8
BLACK
6
CONTINUOUS
10
71.66
20
-72.78
11
71.6424
21
-72.8224
0
LINE
8
BLACK
6
CONTINUOUS
10
71.6424
20
-72.8224
11
71.6
21
-72.84
0
LINE
8
BLACK
6
CONTINUOUS
10
71.6
20
-72.84
11
71.07
21
-72.84
0
LINE
8
BLACK
6
CONTINUOUS
10
71.07
20
-72.84
11
71.0276
21
-72.8224
0
LINE
8
BLACK
6
CONTINUOUS
10
71.0276
20
-72.8224
11
71.01
21
-72.78
0
LINE
8
BLACK
6
CONTINUOUS
10
71.01
20
-72.78
11
71.0276
21
-72.7376
0
LINE
8
BLACK
6
CONTINUOUS
10
71.0276
20
-72.7376
11
71.07
21
-72.72
0
LINE
8
BLACK
6
CONTINUOUS
10
71.07
20
-72.72
11
71.6
21
-72.72
0
LINE
8
BLACK
6
CONTINUOUS
10
71.6
20
-72.72
11
71.6424
21
-72.7376
0
LINE
8
BLACK
6
CONTINUOUS
10
228.128
20
-72.8224
11
228.11
21
-72.78
0
LINE
8
BLACK
6
CONTINUOUS
10
228.11
20
-72.78
11
228.128
21
-72.7376
0
LINE
8
BLACK
6
CONTINUOUS
10
228.128
20
-72.7376
11
228.17
21
-72.72
0
LINE
8
BLACK
6
CONTINUOUS
10
228.17
20
-72.72
11
229.6
21
-72.72
0
LINE
8
BLACK
6
CONTINUOUS
10
229.6
20
-72.72
11
229.6
21
-68.06
0
LINE
8
BLACK
6
CONTINUOUS
10
229.6
20
-68.06
11
229.618
21
-68.0176
0
LINE
8
BLACK
6
CONTINUOUS
10
229.618
20
-68.0176
11
229.66
21
-68
0
LINE
8
BLACK
6
CONTINUOUS
10
229.66
20
-68
11
229.702
21
-68.0176
0
LINE
8
BLACK
6
CONTINUOUS
10
229.702
20
-68.0176
11
229.72
21
-68.06
0
LINE
8
BLACK
6
CONTINUOUS
10
229.72
20
-68.06
11
229.72
21
-72.78
0
LINE
8
BLACK
6
CONTINUOUS
10
229.72
20
-72.78
11
229.702
21
-72.8224
0
LINE
8
BLACK
6
CONTINUOUS
10
229.702
20
-72.8224
11
229.66
21
-72.84
0
LINE
8
BLACK
6
CONTINUOUS
10
229.66
20
-72.84
11
228.17
21
-72.84
0
LINE
8
BLACK
6
CONTINUOUS
10
228.17
20
-72.84
11
228.128
21
-72.8224
0
LINE
8
BLACK
6
CONTINUOUS
10
226.492
20
-72.7376
11
226.51
21
-72.78
0
LINE
8
BLACK
6
CONTINUOUS
10
226.51
20
-72.78
11
226.492
21
-72.8224
0
LINE
8
BLACK
6
CONTINUOUS
10
226.492
20
-72.8224
11
226.45
21
-72.84
0
LINE
8
BLACK
6
CONTINUOUS
10
226.45
20
-72.84
11
225.62
21
-72.84
0
LINE
8
BLACK
6
CONTINUOUS
10
225.62
20
-72.84
11
225.578
21
-72.8224
0
LINE
8
BLACK
6
CONTINUOUS
10
225.578
20
-72.8224
11
225.56
21
-72.78
0
LINE
8
BLACK
6
CONTINUOUS
10
225.56
20
-72.78
11
225.578
21
-72.7376
0
LINE
8
BLACK
6
CONTINUOUS
10
225.578
20
-72.7376
11
225.62
21
-72.72
0
LINE
8
BLACK
6
CONTINUOUS
10
225.62
20
-72.72
11
226.45
21
-72.72
0
LINE
8
BLACK
6
CONTINUOUS
10
226.45
20
-72.72
11
226.492
21
-72.7376
0
LINE
8
BLACK
6
CONTINUOUS
10
219.952
20
-68.0176
11
219.97
21
-68.06
0
LINE
8
BLACK
6
CONTINUOUS
10
219.97
20
-68.06
11
219.97
21
-72.72
0
LINE
8
BLACK
6
CONTINUOUS
10
219.97
20
-72.72
11
221.1
21
-72.72
0
LINE
8
BLACK
6
CONTINUOUS
10
221.1
20
-72.72
11
221.142
21
-72.7376
0
LINE
8
BLACK
6
CONTINUOUS
10
221.142
20
-72.7376
11
221.16
21
-72.78
0
LINE
8
BLACK
6
CONTINUOUS
10
221.16
20
-72.78
11
221.142
21
-72.8224
0
LINE
8
BLACK
6
CONTINUOUS
10
221.142
20
-72.8224
11
221.1
21
-72.84
0
LINE
8
BLACK
6
CONTINUOUS
10
221.1
20
-72.84
11
219.92
21
-72.84
0
LINE
8
BLACK
6
CONTINUOUS
10
219.92
20
-72.84
11
219.915
21
-72.8379
0
LINE
8
BLACK
6
CONTINUOUS
10
219.915
20
-72.8379
11
219.91
21
-72.84
0
LINE
8
BLACK
6
CONTINUOUS
10
219.91
20
-72.84
11
219.868
21
-72.8224
0
LINE
8
BLACK
6
CONTINUOUS
10
219.868
20
-72.8224
11
219.85
21
-72.78
0
LINE
8
BLACK
6
CONTINUOUS
10
219.85
20
-72.78
11
219.85
21
-68.06
0
LINE
8
BLACK
6
CONTINUOUS
10
219.85
20
-68.06
11
219.868
21
-68.0176
0
LINE
8
BLACK
6
CONTINUOUS
10
219.868
20
-68.0176
11
219.91
21
-68
0
LINE
8
BLACK
6
CONTINUOUS
10
219.91
20
-68
11
219.952
21
-68.0176
0
LINE
8
BLACK
6
CONTINUOUS
10
224.042
20
-72.7376
11
224.06
21
-72.78
0
LINE
8
BLACK
6
CONTINUOUS
10
224.06
20
-72.78
11
224.042
21
-72.8224
0
LINE
8
BLACK
6
CONTINUOUS
10
224.042
20
-72.8224
11
224
21
-72.84
0
LINE
8
BLACK
6
CONTINUOUS
10
224
20
-72.84
11
223.47
21
-72.84
0
LINE
8
BLACK
6
CONTINUOUS
10
223.47
20
-72.84
11
223.428
21
-72.8224
0
LINE
8
BLACK
6
CONTINUOUS
10
223.428
20
-72.8224
11
223.41
21
-72.78
0
LINE
8
BLACK
6
CONTINUOUS
10
223.41
20
-72.78
11
223.428
21
-72.7376
0
LINE
8
BLACK
6
CONTINUOUS
10
223.428
20
-72.7376
11
223.47
21
-72.72
0
LINE
8
BLACK
6
CONTINUOUS
10
223.47
20
-72.72
11
224
21
-72.72
0
LINE
8
BLACK
6
CONTINUOUS
10
224
20
-72.72
11
224.042
21
-72.7376
0
LINE
8
BLACK
6
CONTINUOUS
10
229.702
20
-61.1476
11
229.72
21
-61.19
0
LINE
8
BLACK
6
CONTINUOUS
10
229.72
20
-61.19
11
229.72
21
-64.25
0
LINE
8
BLACK
6
CONTINUOUS
10
229.72
20
-64.25
11
229.702
21
-64.2924
0
LINE
8
BLACK
6
CONTINUOUS
10
229.702
20
-64.2924
11
229.66
21
-64.31
0
LINE
8
BLACK
6
CONTINUOUS
10
229.66
20
-64.31
11
229.618
21
-64.2924
0
LINE
8
BLACK
6
CONTINUOUS
10
229.618
20
-64.2924
11
229.6
21
-64.25
0
LINE
8
BLACK
6
CONTINUOUS
10
229.6
20
-64.25
11
229.6
21
-61.25
0
LINE
8
BLACK
6
CONTINUOUS
10
229.6
20
-61.25
11
219.98
21
-61.25
0
LINE
8
BLACK
6
CONTINUOUS
10
219.98
20
-61.25
11
219.98
21
-64.25
0
LINE
8
BLACK
6
CONTINUOUS
10
219.98
20
-64.25
11
219.962
21
-64.2924
0
LINE
8
BLACK
6
CONTINUOUS
10
219.962
20
-64.2924
11
219.92
21
-64.31
0
LINE
8
BLACK
6
CONTINUOUS
10
219.92
20
-64.31
11
219.878
21
-64.2924
0
LINE
8
BLACK
6
CONTINUOUS
10
219.878
20
-64.2924
11
219.86
21
-64.25
0
LINE
8
BLACK
6
CONTINUOUS
10
219.86
20
-64.25
11
219.86
21
-61.19
0
LINE
8
BLACK
6
CONTINUOUS
10
219.86
20
-61.19
11
219.878
21
-61.1476
0
LINE
8
BLACK
6
CONTINUOUS
10
219.878
20
-61.1476
11
219.92
21
-61.13
0
LINE
8
BLACK
6
CONTINUOUS
10
219.92
20
-61.13
11
229.66
21
-61.13
0
LINE
8
BLACK
6
CONTINUOUS
10
229.66
20
-61.13
11
229.702
21
-61.1476
0
LINE
8
BLACK
6
CONTINUOUS
10
77.3024
20
-61.1476
11
77.32
21
-61.19
0
LINE
8
BLACK
6
CONTINUOUS
10
77.32
20
-61.19
11
77.32
21
-64.25
0
LINE
8
BLACK
6
CONTINUOUS
10
77.32
20
-64.25
11
77.3024
21
-64.2924
0
LINE
8
BLACK
6
CONTINUOUS
10
77.3024
20
-64.2924
11
77.26
21
-64.31
0
LINE
8
BLACK
6
CONTINUOUS
10
77.26
20
-64.31
11
77.2176
21
-64.2924
0
LINE
8
BLACK
6
CONTINUOUS
10
77.2176
20
-64.2924
11
77.2
21
-64.25
0
LINE
8
BLACK
6
CONTINUOUS
10
77.2
20
-64.25
11
77.2
21
-61.25
0
LINE
8
BLACK
6
CONTINUOUS
10
77.2
20
-61.25
11
67.58
21
-61.25
0
LINE
8
BLACK
6
CONTINUOUS
10
67.58
20
-61.25
11
67.58
21
-64.25
0
LINE
8
BLACK
6
CONTINUOUS
10
67.58
20
-64.25
11
67.5624
21
-64.2924
0
LINE
8
BLACK
6
CONTINUOUS
10
67.5624
20
-64.2924
11
67.52
21
-64.31
0
LINE
8
BLACK
6
CONTINUOUS
10
67.52
20
-64.31
11
67.4776
21
-64.2924
0
LINE
8
BLACK
6
CONTINUOUS
10
67.4776
20
-64.2924
11
67.46
21
-64.25
0
LINE
8
BLACK
6
CONTINUOUS
10
67.46
20
-64.25
11
67.46
21
-61.19
0
LINE
8
BLACK
6
CONTINUOUS
10
67.46
20
-61.19
11
67.4776
21
-61.1476
0
LINE
8
BLACK
6
CONTINUOUS
10
67.4776
20
-61.1476
11
67.52
21
-61.13
0
LINE
8
BLACK
6
CONTINUOUS
10
67.52
20
-61.13
11
77.26
21
-61.13
0
LINE
8
BLACK
6
CONTINUOUS
10
77.26
20
-61.13
11
77.3024
21
-61.1476
0
LINE
8
BLACK
6
CONTINUOUS
10
144.575
20
-94.1647
11
144.638
21
-93.775
0
LINE
8
BLACK
6
CONTINUOUS
10
144.638
20
-93.775
11
144.739
21
-93.3934
0
LINE
8
BLACK
6
CONTINUOUS
10
144.739
20
-93.3934
11
144.877
21
-93.0235
0
LINE
8
BLACK
6
CONTINUOUS
10
144.877
20
-93.0235
11
145.05
21
-92.6687
0
LINE
8
BLACK
6
CONTINUOUS
10
145.05
20
-92.6687
11
145.257
21
-92.3325
0
LINE
8
BLACK
6
CONTINUOUS
10
145.257
20
-92.3325
11
145.495
21
-92.0181
0
LINE
8
BLACK
6
CONTINUOUS
10
145.495
20
-92.0181
11
145.763
21
-91.7285
0
LINE
8
BLACK
6
CONTINUOUS
10
145.763
20
-91.7285
11
146.059
21
-91.4665
0
LINE
8
BLACK
6
CONTINUOUS
10
146.059
20
-91.4665
11
146.378
21
-91.2345
0
LINE
8
BLACK
6
CONTINUOUS
10
146.378
20
-91.2345
11
146.718
21
-91.0347
0
LINE
8
BLACK
6
CONTINUOUS
10
146.718
20
-91.0347
11
147.077
21
-90.8692
0
LINE
8
BLACK
6
CONTINUOUS
10
147.077
20
-90.8692
11
147.449
21
-90.7394
0
LINE
8
BLACK
6
CONTINUOUS
10
147.449
20
-90.7394
11
147.833
21
-90.6466
0
LINE
8
BLACK
6
CONTINUOUS
10
147.833
20
-90.6466
11
148.224
21
-90.5916
0
LINE
8
BLACK
6
CONTINUOUS
10
148.224
20
-90.5916
11
148.618
21
-90.5751
0
LINE
8
BLACK
6
CONTINUOUS
10
148.618
20
-90.5751
11
149.012
21
-90.5971
0
LINE
8
BLACK
6
CONTINUOUS
10
149.012
20
-90.5971
11
149.402
21
-90.6575
0
LINE
8
BLACK
6
CONTINUOUS
10
149.402
20
-90.6575
11
149.785
21
-90.7557
0
LINE
8
BLACK
6
CONTINUOUS
10
149.785
20
-90.7557
11
150.156
21
-90.8907
0
LINE
8
BLACK
6
CONTINUOUS
10
150.156
20
-90.8907
11
150.512
21
-91.0612
0
LINE
8
BLACK
6
CONTINUOUS
10
150.512
20
-91.0612
11
150.849
21
-91.2657
0
LINE
8
BLACK
6
CONTINUOUS
10
150.849
20
-91.2657
11
151.165
21
-91.5021
0
LINE
8
BLACK
6
CONTINUOUS
10
151.165
20
-91.5021
11
151.457
21
-91.7683
0
LINE
8
BLACK
6
CONTINUOUS
10
151.457
20
-91.7683
11
151.721
21
-92.0616
0
LINE
8
BLACK
6
CONTINUOUS
10
151.721
20
-92.0616
11
151.955
21
-92.3793
0
LINE
8
BLACK
6
CONTINUOUS
10
151.955
20
-92.3793
11
152.157
21
-92.7183
0
LINE
8
BLACK
6
CONTINUOUS
10
152.157
20
-92.7183
11
152.325
21
-93.0755
0
LINE
8
BLACK
6
CONTINUOUS
10
152.325
20
-93.0755
11
152.458
21
-93.4473
0
LINE
8
BLACK
6
CONTINUOUS
10
152.458
20
-93.4473
11
152.553
21
-93.8303
0
LINE
8
BLACK
6
CONTINUOUS
10
152.553
20
-93.8303
11
152.611
21
-94.2208
0
LINE
8
BLACK
6
CONTINUOUS
10
152.611
20
-94.2208
11
152.63
21
-94.615
0
LINE
8
BLACK
6
CONTINUOUS
10
152.63
20
-94.615
11
152.628
21
-94.7278
0
LINE
8
BLACK
6
CONTINUOUS
10
152.628
20
-94.7278
11
152.598
21
-95.1213
0
LINE
8
BLACK
6
CONTINUOUS
10
152.598
20
-95.1213
11
152.53
21
-95.5101
0
LINE
8
BLACK
6
CONTINUOUS
10
152.53
20
-95.5101
11
152.423
21
-95.8902
0
LINE
8
BLACK
6
CONTINUOUS
10
152.423
20
-95.8902
11
152.281
21
-96.2582
0
LINE
8
BLACK
6
CONTINUOUS
10
152.281
20
-96.2582
11
152.103
21
-96.6105
0
LINE
8
BLACK
6
CONTINUOUS
10
152.103
20
-96.6105
11
151.891
21
-96.9438
0
LINE
8
BLACK
6
CONTINUOUS
10
151.891
20
-96.9438
11
151.648
21
-97.2548
0
LINE
8
BLACK
6
CONTINUOUS
10
151.648
20
-97.2548
11
151.376
21
-97.5407
0
LINE
8
BLACK
6
CONTINUOUS
10
151.376
20
-97.5407
11
151.077
21
-97.7986
0
LINE
8
BLACK
6
CONTINUOUS
10
151.077
20
-97.7986
11
150.755
21
-98.0261
0
LINE
8
BLACK
6
CONTINUOUS
10
150.755
20
-98.0261
11
150.412
21
-98.221
0
LINE
8
BLACK
6
CONTINUOUS
10
150.412
20
-98.221
11
150.051
21
-98.3816
0
LINE
8
BLACK
6
CONTINUOUS
10
150.051
20
-98.3816
11
149.676
21
-98.5062
0
LINE
8
BLACK
6
CONTINUOUS
10
149.676
20
-98.5062
11
149.292
21
-98.5936
0
LINE
8
BLACK
6
CONTINUOUS
10
149.292
20
-98.5936
11
148.9
21
-98.6431
0
LINE
8
BLACK
6
CONTINUOUS
10
148.9
20
-98.6431
11
148.505
21
-98.6541
0
LINE
8
BLACK
6
CONTINUOUS
10
148.505
20
-98.6541
11
148.112
21
-98.6266
0
LINE
8
BLACK
6
CONTINUOUS
10
148.112
20
-98.6266
11
147.722
21
-98.5608
0
LINE
8
BLACK
6
CONTINUOUS
10
147.722
20
-98.5608
11
147.342
21
-98.4573
0
LINE
8
BLACK
6
CONTINUOUS
10
147.342
20
-98.4573
11
146.973
21
-98.3171
0
LINE
8
BLACK
6
CONTINUOUS
10
146.973
20
-98.3171
11
146.619
21
-98.1416
0
LINE
8
BLACK
6
CONTINUOUS
10
146.619
20
-98.1416
11
146.284
21
-97.9324
0
LINE
8
BLACK
6
CONTINUOUS
10
146.284
20
-97.9324
11
145.972
21
-97.6916
0
LINE
8
BLACK
6
CONTINUOUS
10
145.972
20
-97.6916
11
145.684
21
-97.4214
0
LINE
8
BLACK
6
CONTINUOUS
10
145.684
20
-97.4214
11
145.424
21
-97.1244
0
LINE
8
BLACK
6
CONTINUOUS
10
145.424
20
-97.1244
11
145.194
21
-96.8035
0
LINE
8
BLACK
6
CONTINUOUS
10
145.194
20
-96.8035
11
144.997
21
-96.4617
0
LINE
8
BLACK
6
CONTINUOUS
10
144.997
20
-96.4617
11
144.834
21
-96.1022
0
LINE
8
BLACK
6
CONTINUOUS
10
144.834
20
-96.1022
11
144.707
21
-95.7286
0
LINE
8
BLACK
6
CONTINUOUS
10
144.707
20
-95.7286
11
144.616
21
-95.3443
0
LINE
8
BLACK
6
CONTINUOUS
10
144.616
20
-95.3443
11
144.564
21
-94.9531
0
LINE
8
BLACK
6
CONTINUOUS
10
144.564
20
-94.9531
11
144.55
21
-94.5596
0
LINE
8
BLACK
6
CONTINUOUS
10
144.55
20
-94.5596
11
144.55
21
-94.5586
0
LINE
8
BLACK
6
CONTINUOUS
10
144.55
20
-94.5586
11
144.575
21
-94.1647
0
LINE
8
BLACK
6
CONTINUOUS
10
144.69
20
-95.3307
11
144.779
21
-95.7078
0
LINE
8
BLACK
6
CONTINUOUS
10
144.779
20
-95.7078
11
144.904
21
-96.0745
0
LINE
8
BLACK
6
CONTINUOUS
10
144.904
20
-96.0745
11
145.064
21
-96.4273
0
LINE
8
BLACK
6
CONTINUOUS
10
145.064
20
-96.4273
11
145.257
21
-96.7628
0
LINE
8
BLACK
6
CONTINUOUS
10
145.257
20
-96.7628
11
145.483
21
-97.0777
0
LINE
8
BLACK
6
CONTINUOUS
10
145.483
20
-97.0777
11
145.738
21
-97.3692
0
LINE
8
BLACK
6
CONTINUOUS
10
145.738
20
-97.3692
11
146.02
21
-97.6343
0
LINE
8
BLACK
6
CONTINUOUS
10
146.02
20
-97.6343
11
146.327
21
-97.8707
0
LINE
8
BLACK
6
CONTINUOUS
10
146.327
20
-97.8707
11
146.656
21
-98.0759
0
LINE
8
BLACK
6
CONTINUOUS
10
146.656
20
-98.0759
11
147.003
21
-98.2482
0
LINE
8
BLACK
6
CONTINUOUS
10
147.003
20
-98.2482
11
147.365
21
-98.3857
0
LINE
8
BLACK
6
CONTINUOUS
10
147.365
20
-98.3857
11
147.739
21
-98.4873
0
LINE
8
BLACK
6
CONTINUOUS
10
147.739
20
-98.4873
11
148.121
21
-98.5519
0
LINE
8
BLACK
6
CONTINUOUS
10
148.121
20
-98.5519
11
148.507
21
-98.5789
0
LINE
8
BLACK
6
CONTINUOUS
10
148.507
20
-98.5789
11
148.894
21
-98.5681
0
LINE
8
BLACK
6
CONTINUOUS
10
148.894
20
-98.5681
11
149.278
21
-98.5195
0
LINE
8
BLACK
6
CONTINUOUS
10
149.278
20
-98.5195
11
149.656
21
-98.4337
0
LINE
8
BLACK
6
CONTINUOUS
10
149.656
20
-98.4337
11
150.024
21
-98.3115
0
LINE
8
BLACK
6
CONTINUOUS
10
150.024
20
-98.3115
11
150.378
21
-98.1539
0
LINE
8
BLACK
6
CONTINUOUS
10
150.378
20
-98.1539
11
150.714
21
-97.9626
0
LINE
8
BLACK
6
CONTINUOUS
10
150.714
20
-97.9626
11
151.031
21
-97.7393
0
LINE
8
BLACK
6
CONTINUOUS
10
151.031
20
-97.7393
11
151.324
21
-97.4862
0
LINE
8
BLACK
6
CONTINUOUS
10
151.324
20
-97.4862
11
151.591
21
-97.2057
0
LINE
8
BLACK
6
CONTINUOUS
10
151.591
20
-97.2057
11
151.83
21
-96.9004
0
LINE
8
BLACK
6
CONTINUOUS
10
151.83
20
-96.9004
11
152.037
21
-96.5734
0
LINE
8
BLACK
6
CONTINUOUS
10
152.037
20
-96.5734
11
152.212
21
-96.2276
0
LINE
8
BLACK
6
CONTINUOUS
10
152.212
20
-96.2276
11
152.352
21
-95.8665
0
LINE
8
BLACK
6
CONTINUOUS
10
152.352
20
-95.8665
11
152.456
21
-95.4934
0
LINE
8
BLACK
6
CONTINUOUS
10
152.456
20
-95.4934
11
152.524
21
-95.1119
0
LINE
8
BLACK
6
CONTINUOUS
10
152.524
20
-95.1119
11
152.553
21
-94.7257
0
LINE
8
BLACK
6
CONTINUOUS
10
152.553
20
-94.7257
11
152.555
21
-94.615
0
LINE
8
BLACK
6
CONTINUOUS
10
152.555
20
-94.615
11
152.536
21
-94.2281
0
LINE
8
BLACK
6
CONTINUOUS
10
152.536
20
-94.2281
11
152.479
21
-93.8449
0
LINE
8
BLACK
6
CONTINUOUS
10
152.479
20
-93.8449
11
152.386
21
-93.4691
0
LINE
8
BLACK
6
CONTINUOUS
10
152.386
20
-93.4691
11
152.256
21
-93.1041
0
LINE
8
BLACK
6
CONTINUOUS
10
152.256
20
-93.1041
11
152.091
21
-92.7536
0
LINE
8
BLACK
6
CONTINUOUS
10
152.091
20
-92.7536
11
151.892
21
-92.4209
0
LINE
8
BLACK
6
CONTINUOUS
10
151.892
20
-92.4209
11
151.662
21
-92.1091
0
LINE
8
BLACK
6
CONTINUOUS
10
151.662
20
-92.1091
11
151.403
21
-91.8213
0
LINE
8
BLACK
6
CONTINUOUS
10
151.403
20
-91.8213
11
151.117
21
-91.5601
0
LINE
8
BLACK
6
CONTINUOUS
10
151.117
20
-91.5601
11
150.807
21
-91.3281
0
LINE
8
BLACK
6
CONTINUOUS
10
150.807
20
-91.3281
11
150.476
21
-91.1274
0
LINE
8
BLACK
6
CONTINUOUS
10
150.476
20
-91.1274
11
150.126
21
-90.96
0
LINE
8
BLACK
6
CONTINUOUS
10
150.126
20
-90.96
11
149.762
21
-90.8275
0
LINE
8
BLACK
6
CONTINUOUS
10
149.762
20
-90.8275
11
149.387
21
-90.7312
0
LINE
8
BLACK
6
CONTINUOUS
10
149.387
20
-90.7312
11
149.004
21
-90.6719
0
LINE
8
BLACK
6
CONTINUOUS
10
149.004
20
-90.6719
11
148.618
21
-90.6503
0
LINE
8
BLACK
6
CONTINUOUS
10
148.618
20
-90.6503
11
148.231
21
-90.6665
0
LINE
8
BLACK
6
CONTINUOUS
10
148.231
20
-90.6665
11
147.847
21
-90.7205
0
LINE
8
BLACK
6
CONTINUOUS
10
147.847
20
-90.7205
11
147.471
21
-90.8115
0
LINE
8
BLACK
6
CONTINUOUS
10
147.471
20
-90.8115
11
147.105
21
-90.9389
0
LINE
8
BLACK
6
CONTINUOUS
10
147.105
20
-90.9389
11
146.753
21
-91.1014
0
LINE
8
BLACK
6
CONTINUOUS
10
146.753
20
-91.1014
11
146.419
21
-91.2974
0
LINE
8
BLACK
6
CONTINUOUS
10
146.419
20
-91.2974
11
146.106
21
-91.5251
0
LINE
8
BLACK
6
CONTINUOUS
10
146.106
20
-91.5251
11
145.816
21
-91.7823
0
LINE
8
BLACK
6
CONTINUOUS
10
145.816
20
-91.7823
11
145.553
21
-92.0665
0
LINE
8
BLACK
6
CONTINUOUS
10
145.553
20
-92.0665
11
145.319
21
-92.375
0
LINE
8
BLACK
6
CONTINUOUS
10
145.319
20
-92.375
11
145.116
21
-92.705
0
LINE
8
BLACK
6
CONTINUOUS
10
145.116
20
-92.705
11
144.946
21
-93.0531
0
LINE
8
BLACK
6
CONTINUOUS
10
144.946
20
-93.0531
11
144.811
21
-93.4162
0
LINE
8
BLACK
6
CONTINUOUS
10
144.811
20
-93.4162
11
144.712
21
-93.7907
0
LINE
8
BLACK
6
CONTINUOUS
10
144.712
20
-93.7907
11
144.65
21
-94.1731
0
LINE
8
BLACK
6
CONTINUOUS
10
144.65
20
-94.1731
11
144.626
21
-94.5596
0
LINE
8
BLACK
6
CONTINUOUS
10
144.626
20
-94.5596
11
144.639
21
-94.9468
0
LINE
8
BLACK
6
CONTINUOUS
10
144.639
20
-94.9468
11
144.69
21
-95.3307
0
LINE
8
BLACK
6
CONTINUOUS
10
148.145
20
-93.7172
11
148.613
21
-94.5283
0
LINE
8
BLACK
6
CONTINUOUS
10
148.613
20
-94.5283
11
149.424
21
-94.06
0
LINE
8
BLACK
6
CONTINUOUS
10
149.424
20
-94.06
11
149.472
21
-94.0537
0
LINE
8
BLACK
6
CONTINUOUS
10
149.472
20
-94.0537
11
149.511
21
-94.0832
0
LINE
8
BLACK
6
CONTINUOUS
10
149.511
20
-94.0832
11
149.517
21
-94.1314
0
LINE
8
BLACK
6
CONTINUOUS
10
149.517
20
-94.1314
11
149.488
21
-94.17
0
LINE
8
BLACK
6
CONTINUOUS
10
149.488
20
-94.17
11
148.677
21
-94.6382
0
LINE
8
BLACK
6
CONTINUOUS
10
148.677
20
-94.6382
11
149.145
21
-95.4493
0
LINE
8
BLACK
6
CONTINUOUS
10
149.145
20
-95.4493
11
149.151
21
-95.4975
0
LINE
8
BLACK
6
CONTINUOUS
10
149.151
20
-95.4975
11
149.122
21
-95.536
0
LINE
8
BLACK
6
CONTINUOUS
10
149.122
20
-95.536
11
149.074
21
-95.5424
0
LINE
8
BLACK
6
CONTINUOUS
10
149.074
20
-95.5424
11
149.035
21
-95.5128
0
LINE
8
BLACK
6
CONTINUOUS
10
149.035
20
-95.5128
11
148.567
21
-94.7017
0
LINE
8
BLACK
6
CONTINUOUS
10
148.567
20
-94.7017
11
147.756
21
-95.17
0
LINE
8
BLACK
6
CONTINUOUS
10
147.756
20
-95.17
11
147.708
21
-95.1763
0
LINE
8
BLACK
6
CONTINUOUS
10
147.708
20
-95.1763
11
147.669
21
-95.1467
0
LINE
8
BLACK
6
CONTINUOUS
10
147.669
20
-95.1467
11
147.663
21
-95.0986
0
LINE
8
BLACK
6
CONTINUOUS
10
147.663
20
-95.0986
11
147.692
21
-95.06
0
LINE
8
BLACK
6
CONTINUOUS
10
147.692
20
-95.06
11
148.503
21
-94.5918
0
LINE
8
BLACK
6
CONTINUOUS
10
148.503
20
-94.5918
11
148.035
21
-93.7807
0
LINE
8
BLACK
6
CONTINUOUS
10
148.035
20
-93.7807
11
148.029
21
-93.7325
0
LINE
8
BLACK
6
CONTINUOUS
10
148.029
20
-93.7325
11
148.058
21
-93.694
0
LINE
8
BLACK
6
CONTINUOUS
10
148.058
20
-93.694
11
148.106
21
-93.6876
0
LINE
8
BLACK
6
CONTINUOUS
10
148.106
20
-93.6876
11
148.145
21
-93.7172
0
CIRCLE
8
BLACK
10
156.068
20
-91.5676
40
1
0
CIRCLE
8
BLACK
10
142.212
20
-99.5676
40
1
0
CIRCLE
8
BLACK
10
139.685
20
-89.1909
40
0.45
0
CIRCLE
8
BLACK
10
141.85
20
-87.9409
40
0.45
0
CIRCLE
8
BLACK
10
144.015
20
-86.6909
40
0.45
0
CIRCLE
8
BLACK
10
146.18
20
-85.4409
40
0.45
0
CIRCLE
8
BLACK
10
148.345
20
-84.1909
40
0.45
0
CIRCLE
8
BLACK
10
157.495
20
-100.039
40
0.45
0
CIRCLE
8
BLACK
10
155.33
20
-101.289
40
0.45
0
CIRCLE
8
BLACK
10
153.165
20
-102.539
40
0.45
0
CIRCLE
8
BLACK
10
151
20
-103.789
40
0.45
0
CIRCLE
8
BLACK
10
148.835
20
-105.039
40
0.45
0
CIRCLE
8
BLACK
10
186.69
20
-118.49
40
0.925
0
CIRCLE
8
BLACK
10
186.69
20
-123.19
40
0.925
0
CIRCLE
8
BLACK
10
186.69
20
-127.89
40
0.925
0
LINE
8
BLACK
6
CONTINUOUS
10
229.046
20
-122.88
11
229.088
21
-122.736
0
LINE
8
BLACK
6
CONTINUOUS
10
229.088
20
-122.736
11
229.166
21
-122.609
0
LINE
8
BLACK
6
CONTINUOUS
10
229.166
20
-122.609
11
229.276
21
-122.508
0
LINE
8
BLACK
6
CONTINUOUS
10
229.276
20
-122.508
11
229.409
21
-122.441
0
LINE
8
BLACK
6
CONTINUOUS
10
229.409
20
-122.441
11
229.555
21
-122.411
0
LINE
8
BLACK
6
CONTINUOUS
10
229.555
20
-122.411
11
229.704
21
-122.422
0
LINE
8
BLACK
6
CONTINUOUS
10
229.704
20
-122.422
11
229.845
21
-122.473
0
LINE
8
BLACK
6
CONTINUOUS
10
229.845
20
-122.473
11
229.967
21
-122.559
0
LINE
8
BLACK
6
CONTINUOUS
10
229.967
20
-122.559
11
230.06
21
-122.675
0
LINE
8
BLACK
6
CONTINUOUS
10
230.06
20
-122.675
11
230.12
21
-122.812
0
LINE
8
BLACK
6
CONTINUOUS
10
230.12
20
-122.812
11
230.14
21
-122.96
0
LINE
8
BLACK
6
CONTINUOUS
10
230.14
20
-122.96
11
230.14
21
-123.66
0
LINE
8
BLACK
6
CONTINUOUS
10
230.14
20
-123.66
11
230.134
21
-123.74
0
LINE
8
BLACK
6
CONTINUOUS
10
230.134
20
-123.74
11
230.092
21
-123.884
0
LINE
8
BLACK
6
CONTINUOUS
10
230.092
20
-123.884
11
230.014
21
-124.011
0
LINE
8
BLACK
6
CONTINUOUS
10
230.014
20
-124.011
11
229.904
21
-124.112
0
LINE
8
BLACK
6
CONTINUOUS
10
229.904
20
-124.112
11
229.771
21
-124.179
0
LINE
8
BLACK
6
CONTINUOUS
10
229.771
20
-124.179
11
229.625
21
-124.209
0
LINE
8
BLACK
6
CONTINUOUS
10
229.625
20
-124.209
11
229.476
21
-124.198
0
LINE
8
BLACK
6
CONTINUOUS
10
229.476
20
-124.198
11
229.335
21
-124.147
0
LINE
8
BLACK
6
CONTINUOUS
10
229.335
20
-124.147
11
229.213
21
-124.061
0
LINE
8
BLACK
6
CONTINUOUS
10
229.213
20
-124.061
11
229.12
21
-123.945
0
LINE
8
BLACK
6
CONTINUOUS
10
229.12
20
-123.945
11
229.06
21
-123.808
0
LINE
8
BLACK
6
CONTINUOUS
10
229.06
20
-123.808
11
229.04
21
-123.66
0
LINE
8
BLACK
6
CONTINUOUS
10
229.04
20
-123.66
11
229.04
21
-122.96
0
LINE
8
BLACK
6
CONTINUOUS
10
229.04
20
-122.96
11
229.046
21
-122.88
0
LINE
8
BLACK
6
CONTINUOUS
10
219.446
20
-122.88
11
219.488
21
-122.736
0
LINE
8
BLACK
6
CONTINUOUS
10
219.488
20
-122.736
11
219.566
21
-122.609
0
LINE
8
BLACK
6
CONTINUOUS
10
219.566
20
-122.609
11
219.676
21
-122.508
0
LINE
8
BLACK
6
CONTINUOUS
10
219.676
20
-122.508
11
219.809
21
-122.441
0
LINE
8
BLACK
6
CONTINUOUS
10
219.809
20
-122.441
11
219.955
21
-122.411
0
LINE
8
BLACK
6
CONTINUOUS
10
219.955
20
-122.411
11
220.104
21
-122.422
0
LINE
8
BLACK
6
CONTINUOUS
10
220.104
20
-122.422
11
220.245
21
-122.473
0
LINE
8
BLACK
6
CONTINUOUS
10
220.245
20
-122.473
11
220.367
21
-122.559
0
LINE
8
BLACK
6
CONTINUOUS
10
220.367
20
-122.559
11
220.46
21
-122.675
0
LINE
8
BLACK
6
CONTINUOUS
10
220.46
20
-122.675
11
220.52
21
-122.812
0
LINE
8
BLACK
6
CONTINUOUS
10
220.52
20
-122.812
11
220.54
21
-122.96
0
LINE
8
BLACK
6
CONTINUOUS
10
220.54
20
-122.96
11
220.54
21
-123.66
0
LINE
8
BLACK
6
CONTINUOUS
10
220.54
20
-123.66
11
220.534
21
-123.74
0
LINE
8
BLACK
6
CONTINUOUS
10
220.534
20
-123.74
11
220.492
21
-123.884
0
LINE
8
BLACK
6
CONTINUOUS
10
220.492
20
-123.884
11
220.414
21
-124.011
0
LINE
8
BLACK
6
CONTINUOUS
10
220.414
20
-124.011
11
220.304
21
-124.112
0
LINE
8
BLACK
6
CONTINUOUS
10
220.304
20
-124.112
11
220.171
21
-124.179
0
LINE
8
BLACK
6
CONTINUOUS
10
220.171
20
-124.179
11
220.025
21
-124.209
0
LINE
8
BLACK
6
CONTINUOUS
10
220.025
20
-124.209
11
219.876
21
-124.198
0
LINE
8
BLACK
6
CONTINUOUS
10
219.876
20
-124.198
11
219.735
21
-124.147
0
LINE
8
BLACK
6
CONTINUOUS
10
219.735
20
-124.147
11
219.613
21
-124.061
0
LINE
8
BLACK
6
CONTINUOUS
10
219.613
20
-124.061
11
219.52
21
-123.945
0
LINE
8
BLACK
6
CONTINUOUS
10
219.52
20
-123.945
11
219.46
21
-123.808
0
LINE
8
BLACK
6
CONTINUOUS
10
219.46
20
-123.808
11
219.44
21
-123.66
0
LINE
8
BLACK
6
CONTINUOUS
10
219.44
20
-123.66
11
219.44
21
-122.96
0
LINE
8
BLACK
6
CONTINUOUS
10
219.44
20
-122.96
11
219.446
21
-122.88
0
CIRCLE
8
BLACK
10
222.29
20
-130.81
40
0.5
0
CIRCLE
8
BLACK
10
224.79
20
-130.81
40
0.5
0
CIRCLE
8
BLACK
10
227.29
20
-130.81
40
0.5
0
CIRCLE
8
BLACK
10
110.49
20
-118.49
40
0.925
0
CIRCLE
8
BLACK
10
110.49
20
-123.19
40
0.925
0
CIRCLE
8
BLACK
10
110.49
20
-127.89
40
0.925
0
LINE
8
BLACK
6
CONTINUOUS
10
219.446
20
-65.7297
11
219.488
21
-65.5863
0
LINE
8
BLACK
6
CONTINUOUS
10
219.488
20
-65.5863
11
219.566
21
-65.4594
0
LINE
8
BLACK
6
CONTINUOUS
10
219.566
20
-65.4594
11
219.676
21
-65.3584
0
LINE
8
BLACK
6
CONTINUOUS
10
219.676
20
-65.3584
11
219.809
21
-65.2906
0
LINE
8
BLACK
6
CONTINUOUS
10
219.809
20
-65.2906
11
219.955
21
-65.2611
0
LINE
8
BLACK
6
CONTINUOUS
10
219.955
20
-65.2611
11
220.104
21
-65.272
0
LINE
8
BLACK
6
CONTINUOUS
10
220.104
20
-65.272
11
220.245
21
-65.3226
0
LINE
8
BLACK
6
CONTINUOUS
10
220.245
20
-65.3226
11
220.367
21
-65.4091
0
LINE
8
BLACK
6
CONTINUOUS
10
220.367
20
-65.4091
11
220.46
21
-65.5251
0
LINE
8
BLACK
6
CONTINUOUS
10
220.46
20
-65.5251
11
220.52
21
-65.6621
0
LINE
8
BLACK
6
CONTINUOUS
10
220.52
20
-65.6621
11
220.54
21
-65.81
0
LINE
8
BLACK
6
CONTINUOUS
10
220.54
20
-65.81
11
220.54
21
-66.51
0
LINE
8
BLACK
6
CONTINUOUS
10
220.54
20
-66.51
11
220.534
21
-66.5903
0
LINE
8
BLACK
6
CONTINUOUS
10
220.534
20
-66.5903
11
220.492
21
-66.7337
0
LINE
8
BLACK
6
CONTINUOUS
10
220.492
20
-66.7337
11
220.414
21
-66.8606
0
LINE
8
BLACK
6
CONTINUOUS
10
220.414
20
-66.8606
11
220.304
21
-66.9616
0
LINE
8
BLACK
6
CONTINUOUS
10
220.304
20
-66.9616
11
220.171
21
-67.0294
0
LINE
8
BLACK
6
CONTINUOUS
10
220.171
20
-67.0294
11
220.025
21
-67.0589
0
LINE
8
BLACK
6
CONTINUOUS
10
220.025
20
-67.0589
11
219.876
21
-67.048
0
LINE
8
BLACK
6
CONTINUOUS
10
219.876
20
-67.048
11
219.735
21
-66.9974
0
LINE
8
BLACK
6
CONTINUOUS
10
219.735
20
-66.9974
11
219.613
21
-66.9109
0
LINE
8
BLACK
6
CONTINUOUS
10
219.613
20
-66.9109
11
219.52
21
-66.7949
0
LINE
8
BLACK
6
CONTINUOUS
10
219.52
20
-66.7949
11
219.46
21
-66.6579
0
LINE
8
BLACK
6
CONTINUOUS
10
219.46
20
-66.6579
11
219.44
21
-66.51
0
LINE
8
BLACK
6
CONTINUOUS
10
219.44
20
-66.51
11
219.44
21
-65.81
0
LINE
8
BLACK
6
CONTINUOUS
10
219.44
20
-65.81
11
219.446
21
-65.7297
0
LINE
8
BLACK
6
CONTINUOUS
10
229.046
20
-65.7297
11
229.088
21
-65.5863
0
LINE
8
BLACK
6
CONTINUOUS
10
229.088
20
-65.5863
11
229.166
21
-65.4594
0
LINE
8
BLACK
6
CONTINUOUS
10
229.166
20
-65.4594
11
229.276
21
-65.3584
0
LINE
8
BLACK
6
CONTINUOUS
10
229.276
20
-65.3584
11
229.409
21
-65.2906
0
LINE
8
BLACK
6
CONTINUOUS
10
229.409
20
-65.2906
11
229.555
21
-65.2611
0
LINE
8
BLACK
6
CONTINUOUS
10
229.555
20
-65.2611
11
229.704
21
-65.272
0
LINE
8
BLACK
6
CONTINUOUS
10
229.704
20
-65.272
11
229.845
21
-65.3226
0
LINE
8
BLACK
6
CONTINUOUS
10
229.845
20
-65.3226
11
229.967
21
-65.4091
0
LINE
8
BLACK
6
CONTINUOUS
10
229.967
20
-65.4091
11
230.06
21
-65.5251
0
LINE
8
BLACK
6
CONTINUOUS
10
230.06
20
-65.5251
11
230.12
21
-65.6621
0
LINE
8
BLACK
6
CONTINUOUS
10
230.12
20
-65.6621
11
230.14
21
-65.81
0
LINE
8
BLACK
6
CONTINUOUS
10
230.14
20
-65.81
11
230.14
21
-66.51
0
LINE
8
BLACK
6
CONTINUOUS
10
230.14
20
-66.51
11
230.134
21
-66.5903
0
LINE
8
BLACK
6
CONTINUOUS
10
230.134
20
-66.5903
11
230.092
21
-66.7337
0
LINE
8
BLACK
6
CONTINUOUS
10
230.092
20
-66.7337
11
230.014
21
-66.8606
0
LINE
8
BLACK
6
CONTINUOUS
10
230.014
20
-66.8606
11
229.904
21
-66.9616
0
LINE
8
BLACK
6
CONTINUOUS
10
229.904
20
-66.9616
11
229.771
21
-67.0294
0
LINE
8
BLACK
6
CONTINUOUS
10
229.771
20
-67.0294
11
229.625
21
-67.0589
0
LINE
8
BLACK
6
CONTINUOUS
10
229.625
20
-67.0589
11
229.476
21
-67.048
0
LINE
8
BLACK
6
CONTINUOUS
10
229.476
20
-67.048
11
229.335
21
-66.9974
0
LINE
8
BLACK
6
CONTINUOUS
10
229.335
20
-66.9974
11
229.213
21
-66.9109
0
LINE
8
BLACK
6
CONTINUOUS
10
229.213
20
-66.9109
11
229.12
21
-66.7949
0
LINE
8
BLACK
6
CONTINUOUS
10
229.12
20
-66.7949
11
229.06
21
-66.6579
0
LINE
8
BLACK
6
CONTINUOUS
10
229.06
20
-66.6579
11
229.04
21
-66.51
0
LINE
8
BLACK
6
CONTINUOUS
10
229.04
20
-66.51
11
229.04
21
-65.81
0
LINE
8
BLACK
6
CONTINUOUS
10
229.04
20
-65.81
11
229.046
21
-65.7297
0
CIRCLE
8
BLACK
10
222.29
20
-73.66
40
0.5
0
CIRCLE
8
BLACK
10
224.79
20
-73.66
40
0.5
0
CIRCLE
8
BLACK
10
227.29
20
-73.66
40
0.5
0
LINE
8
BLACK
6
CONTINUOUS
10
76.6459
20
-65.7297
11
76.6876
21
-65.5863
0
LINE
8
BLACK
6
CONTINUOUS
10
76.6876
20
-65.5863
11
76.7662
21
-65.4594
0
LINE
8
BLACK
6
CONTINUOUS
10
76.7662
20
-65.4594
11
76.8761
21
-65.3584
0
LINE
8
BLACK
6
CONTINUOUS
10
76.8761
20
-65.3584
11
77.0091
21
-65.2906
0
LINE
8
BLACK
6
CONTINUOUS
10
77.0091
20
-65.2906
11
77.1555
21
-65.2611
0
LINE
8
BLACK
6
CONTINUOUS
10
77.1555
20
-65.2611
11
77.3044
21
-65.272
0
LINE
8
BLACK
6
CONTINUOUS
10
77.3044
20
-65.272
11
77.4448
21
-65.3226
0
LINE
8
BLACK
6
CONTINUOUS
10
77.4448
20
-65.3226
11
77.5665
21
-65.4091
0
LINE
8
BLACK
6
CONTINUOUS
10
77.5665
20
-65.4091
11
77.6604
21
-65.5251
0
LINE
8
BLACK
6
CONTINUOUS
10
77.6604
20
-65.5251
11
77.7197
21
-65.6621
0
LINE
8
BLACK
6
CONTINUOUS
10
77.7197
20
-65.6621
11
77.74
21
-65.81
0
LINE
8
BLACK
6
CONTINUOUS
10
77.74
20
-65.81
11
77.74
21
-66.51
0
LINE
8
BLACK
6
CONTINUOUS
10
77.74
20
-66.51
11
77.7341
21
-66.5903
0
LINE
8
BLACK
6
CONTINUOUS
10
77.7341
20
-66.5903
11
77.6924
21
-66.7337
0
LINE
8
BLACK
6
CONTINUOUS
10
77.6924
20
-66.7337
11
77.6138
21
-66.8606
0
LINE
8
BLACK
6
CONTINUOUS
10
77.6138
20
-66.8606
11
77.5039
21
-66.9616
0
LINE
8
BLACK
6
CONTINUOUS
10
77.5039
20
-66.9616
11
77.3709
21
-67.0294
0
LINE
8
BLACK
6
CONTINUOUS
10
77.3709
20
-67.0294
11
77.2245
21
-67.0589
0
LINE
8
BLACK
6
CONTINUOUS
10
77.2245
20
-67.0589
11
77.0756
21
-67.048
0
LINE
8
BLACK
6
CONTINUOUS
10
77.0756
20
-67.048
11
76.9352
21
-66.9974
0
LINE
8
BLACK
6
CONTINUOUS
10
76.9352
20
-66.9974
11
76.8135
21
-66.9109
0
LINE
8
BLACK
6
CONTINUOUS
10
76.8135
20
-66.9109
11
76.7195
21
-66.7949
0
LINE
8
BLACK
6
CONTINUOUS
10
76.7195
20
-66.7949
11
76.6603
21
-66.6579
0
LINE
8
BLACK
6
CONTINUOUS
10
76.6603
20
-66.6579
11
76.64
21
-66.51
0
LINE
8
BLACK
6
CONTINUOUS
10
76.64
20
-66.51
11
76.64
21
-65.81
0
LINE
8
BLACK
6
CONTINUOUS
10
76.64
20
-65.81
11
76.6459
21
-65.7297
0
LINE
8
BLACK
6
CONTINUOUS
10
67.0459
20
-65.7297
11
67.0875
21
-65.5863
0
LINE
8
BLACK
6
CONTINUOUS
10
67.0875
20
-65.5863
11
67.1662
21
-65.4594
0
LINE
8
BLACK
6
CONTINUOUS
10
67.1662
20
-65.4594
11
67.2761
21
-65.3584
0
LINE
8
BLACK
6
CONTINUOUS
10
67.2761
20
-65.3584
11
67.4091
21
-65.2906
0
LINE
8
BLACK
6
CONTINUOUS
10
67.4091
20
-65.2906
11
67.5555
21
-65.2611
0
LINE
8
BLACK
6
CONTINUOUS
10
67.5555
20
-65.2611
11
67.7044
21
-65.272
0
LINE
8
BLACK
6
CONTINUOUS
10
67.7044
20
-65.272
11
67.8448
21
-65.3226
0
LINE
8
BLACK
6
CONTINUOUS
10
67.8448
20
-65.3226
11
67.9665
21
-65.4091
0
LINE
8
BLACK
6
CONTINUOUS
10
67.9665
20
-65.4091
11
68.0605
21
-65.5251
0
LINE
8
BLACK
6
CONTINUOUS
10
68.0605
20
-65.5251
11
68.1197
21
-65.6621
0
LINE
8
BLACK
6
CONTINUOUS
10
68.1197
20
-65.6621
11
68.14
21
-65.81
0
LINE
8
BLACK
6
CONTINUOUS
10
68.14
20
-65.81
11
68.14
21
-66.51
0
LINE
8
BLACK
6
CONTINUOUS
10
68.14
20
-66.51
11
68.1341
21
-66.5903
0
LINE
8
BLACK
6
CONTINUOUS
10
68.1341
20
-66.5903
11
68.0924
21
-66.7337
0
LINE
8
BLACK
6
CONTINUOUS
10
68.0924
20
-66.7337
11
68.0138
21
-66.8606
0
LINE
8
BLACK
6
CONTINUOUS
10
68.0138
20
-66.8606
11
67.9039
21
-66.9616
0
LINE
8
BLACK
6
CONTINUOUS
10
67.9039
20
-66.9616
11
67.7709
21
-67.0294
0
LINE
8
BLACK
6
CONTINUOUS
10
67.7709
20
-67.0294
11
67.6245
21
-67.0589
0
LINE
8
BLACK
6
CONTINUOUS
10
67.6245
20
-67.0589
11
67.4756
21
-67.048
0
LINE
8
BLACK
6
CONTINUOUS
10
67.4756
20
-67.048
11
67.3352
21
-66.9974
0
LINE
8
BLACK
6
CONTINUOUS
10
67.3352
20
-66.9974
11
67.2135
21
-66.9109
0
LINE
8
BLACK
6
CONTINUOUS
10
67.2135
20
-66.9109
11
67.1196
21
-66.7949
0
LINE
8
BLACK
6
CONTINUOUS
10
67.1196
20
-66.7949
11
67.0603
21
-66.6579
0
LINE
8
BLACK
6
CONTINUOUS
10
67.0603
20
-66.6579
11
67.04
21
-66.51
0
LINE
8
BLACK
6
CONTINUOUS
10
67.04
20
-66.51
11
67.04
21
-65.81
0
LINE
8
BLACK
6
CONTINUOUS
10
67.04
20
-65.81
11
67.0459
21
-65.7297
0
CIRCLE
8
BLACK
10
69.89
20
-73.66
40
0.5
0
CIRCLE
8
BLACK
10
72.39
20
-73.66
40
0.5
0
CIRCLE
8
BLACK
10
74.89
20
-73.66
40
0.5
0
CIRCLE
8
BLACK
10
78.74
20
-78.232
40
0.55
0
CIRCLE
8
BLACK
10
68.58
20
-78.232
40
0.55
0
CIRCLE
8
BLACK
10
78.74
20
-88.392
40
0.55
0
CIRCLE
8
BLACK
10
68.58
20
-88.392
40
0.55
0
CIRCLE
8
BLACK
10
132.12
20
-88.9
40
0.4
0
CIRCLE
8
BLACK
10
134.62
20
-88.9
40
0.4
0
CIRCLE
8
BLACK
10
204.987
20
-77.47
40
0.5
0
CIRCLE
8
BLACK
10
207.528
20
-77.47
40
0.5
0
CIRCLE
8
BLACK
10
204.987
20
-74.93
40
0.5
0
CIRCLE
8
BLACK
10
207.528
20
-74.93
40
0.5
0
CIRCLE
8
BLACK
10
204.987
20
-72.39
40
0.5
0
CIRCLE
8
BLACK
10
207.528
20
-72.39
40
0.5
0
CIRCLE
8
BLACK
10
204.987
20
-69.85
40
0.5
0
CIRCLE
8
BLACK
10
207.528
20
-69.85
40
0.5
0
CIRCLE
8
BLACK
10
204.987
20
-67.31
40
0.5
0
CIRCLE
8
BLACK
10
207.528
20
-67.31
40
0.5
0
CIRCLE
8
BLACK
10
68.58
20
-93.472
40
0.55
0
CIRCLE
8
BLACK
10
78.74
20
-93.472
40
0.55
0
CIRCLE
8
BLACK
10
135.89
20
-64.77
40
0.5
0
CIRCLE
8
BLACK
10
180.975
20
-77.47
40
0.5
0
CIRCLE
8
BLACK
10
183.515
20
-77.47
40
0.5
0
CIRCLE
8
BLACK
10
180.975
20
-74.93
40
0.5
0
CIRCLE
8
BLACK
10
183.515
20
-74.93
40
0.5
0
CIRCLE
8
BLACK
10
180.975
20
-72.39
40
0.5
0
CIRCLE
8
BLACK
10
183.515
20
-72.39
40
0.5
0
CIRCLE
8
BLACK
10
180.975
20
-69.85
40
0.5
0
CIRCLE
8
BLACK
10
183.515
20
-69.85
40
0.5
0
CIRCLE
8
BLACK
10
180.975
20
-67.31
40
0.5
0
CIRCLE
8
BLACK
10
183.515
20
-67.31
40
0.5
0
CIRCLE
8
BLACK
10
119.78
20
-78.74
40
1.75
0
CIRCLE
8
BLACK
10
103.98
20
-81.28
40
0.6
0
CIRCLE
8
BLACK
10
103.98
20
-78.74
40
0.6
0
CIRCLE
8
BLACK
10
103.98
20
-76.2
40
0.6
0
CIRCLE
8
BLACK
10
159.512
20
-64.77
40
0.5
0
CIRCLE
8
BLACK
10
68.58
20
-83.185
40
0.55
0
CIRCLE
8
BLACK
10
78.74
20
-83.185
40
0.55
0
CIRCLE
8
BLACK
10
140.931
20
-127.508
40
0.4
0
CIRCLE
8
BLACK
10
143.431
20
-127.508
40
0.4
0
CIRCLE
8
BLACK
10
119.78
20
-91.44
40
1.75
0
CIRCLE
8
BLACK
10
103.98
20
-93.98
40
0.6
0
CIRCLE
8
BLACK
10
103.98
20
-91.44
40
0.6
0
CIRCLE
8
BLACK
10
103.98
20
-88.9
40
0.6
0
CIRCLE
8
BLACK
10
168.91
20
-77.47
40
0.5
0
CIRCLE
8
BLACK
10
171.45
20
-77.47
40
0.5
0
CIRCLE
8
BLACK
10
168.91
20
-74.93
40
0.5
0
CIRCLE
8
BLACK
10
171.45
20
-74.93
40
0.5
0
CIRCLE
8
BLACK
10
168.91
20
-72.39
40
0.5
0
CIRCLE
8
BLACK
10
171.45
20
-72.39
40
0.5
0
CIRCLE
8
BLACK
10
168.91
20
-69.85
40
0.5
0
CIRCLE
8
BLACK
10
171.45
20
-69.85
40
0.5
0
CIRCLE
8
BLACK
10
168.91
20
-67.31
40
0.5
0
CIRCLE
8
BLACK
10
171.45
20
-67.31
40
0.5
0
CIRCLE
8
BLACK
10
148.59
20
-111.506
40
0.5
0
CIRCLE
8
BLACK
10
148.59
20
-114.046
40
0.5
0
CIRCLE
8
BLACK
10
148.59
20
-116.586
40
0.5
0
CIRCLE
8
BLACK
10
148.59
20
-119.126
40
0.5
0
CIRCLE
8
BLACK
10
113.03
20
-68.58
40
0.55
0
CIRCLE
8
BLACK
10
123.19
20
-68.58
40
0.55
0
CIRCLE
8
BLACK
10
135.89
20
-104.14
40
0.5
0
CIRCLE
8
BLACK
10
89.02
20
-74.93
40
0.6
0
CIRCLE
8
BLACK
10
96.52
20
-74.93
40
0.6
0
CIRCLE
8
BLACK
10
155.194
20
-129.032
40
0.5
0
CIRCLE
8
BLACK
10
132.12
20
-81.28
40
0.4
0
CIRCLE
8
BLACK
10
134.62
20
-81.28
40
0.4
0
CIRCLE
8
BLACK
10
129.54
20
-93.98
40
0.55
0
CIRCLE
8
BLACK
10
129.54
20
-104.14
40
0.55
0
CIRCLE
8
BLACK
10
129.54
20
-76.2
40
0.55
0
CIRCLE
8
BLACK
10
129.54
20
-66.04
40
0.55
0
CIRCLE
8
BLACK
10
72.39
20
-104.56
40
0.7
0
CIRCLE
8
BLACK
10
76.59
20
-104.56
40
0.7
0
CIRCLE
8
BLACK
10
72.39
20
-99.06
40
0.7
0
CIRCLE
8
BLACK
10
76.59
20
-99.06
40
0.7
0
CIRCLE
8
BLACK
10
144.78
20
-80.518
40
0.65
0
CIRCLE
8
BLACK
10
152.4
20
-80.518
40
0.65
0
CIRCLE
8
BLACK
10
142.748
20
-64.77
40
0.5
0
CIRCLE
8
BLACK
10
89.02
20
-93.98
40
0.6
0
CIRCLE
8
BLACK
10
96.52
20
-93.98
40
0.6
0
CIRCLE
8
BLACK
10
107.95
20
-66.04
40
0.4
0
CIRCLE
8
BLACK
10
105.41
20
-66.04
40
0.4
0
CIRCLE
8
BLACK
10
102.87
20
-66.04
40
0.4
0
CIRCLE
8
BLACK
10
102.86
20
-102.87
40
0.4
0
CIRCLE
8
BLACK
10
105.4
20
-102.87
40
0.4
0
CIRCLE
8
BLACK
10
107.94
20
-102.87
40
0.4
0
CIRCLE
8
BLACK
10
193.04
20
-77.47
40
0.5
0
CIRCLE
8
BLACK
10
195.58
20
-77.47
40
0.5
0
CIRCLE
8
BLACK
10
193.04
20
-74.93
40
0.5
0
CIRCLE
8
BLACK
10
195.58
20
-74.93
40
0.5
0
CIRCLE
8
BLACK
10
193.04
20
-72.39
40
0.5
0
CIRCLE
8
BLACK
10
195.58
20
-72.39
40
0.5
0
CIRCLE
8
BLACK
10
193.04
20
-69.85
40
0.5
0
CIRCLE
8
BLACK
10
195.58
20
-69.85
40
0.5
0
CIRCLE
8
BLACK
10
193.04
20
-67.31
40
0.5
0
CIRCLE
8
BLACK
10
195.58
20
-67.31
40
0.5
0
CIRCLE
8
BLACK
10
96.54
20
-118.11
40
0.595
0
CIRCLE
8
BLACK
10
96.54
20
-120.65
40
0.595
0
CIRCLE
8
BLACK
10
96.54
20
-123.19
40
0.595
0
CIRCLE
8
BLACK
10
96.54
20
-125.73
40
0.595
0
CIRCLE
8
BLACK
10
96.54
20
-128.27
40
0.595
0
CIRCLE
8
BLACK
10
123.19
20
-101.6
40
0.55
0
CIRCLE
8
BLACK
10
113.03
20
-101.6
40
0.55
0
CIRCLE
8
BLACK
10
153.67
20
-64.77
40
0.595
0
CIRCLE
8
BLACK
10
151.13
20
-64.77
40
0.595
0
CIRCLE
8
BLACK
10
148.59
20
-64.77
40
0.595
  0
ENDSEC
  0
EOF
