  0
SECTION
  2
HEADER
  9
$ANGBASE
  50
0.0
  9
$ANGDIR
  70
1
  9
$MEASUREMENT
  70
1
  0
ENDSEC
  0
SECTION
  2
TABLES
  0
TABLE
  2
LTYPE
  70
4
  0
LTYPE
  5
40F
  2
CONTINUOUS
  70
0
  3
Solid line
  72
65
  73
0
  40
0.0
  0
LTYPE
  5
410
  2
DASHDOT
 70
0
  3
Dash Dot ____ _ ____ _
 72
65
 73
4
 40
2.0
 49
1.25
 49
-0.25
 49
0.25
 49
-0.25
  0
LTYPE
  5
411
  2
DASHED
 70
0
  3
Dashed __ __ __ __ __
 72
65
 73
2
 40
0.75
 49
0.5
 49
-0.25
  0
LTYPE
  5
43B
  2
DOTTED
 70
0
  3
Dotted .  .  .  .
 72
65
 73
2
 40
0.2
 49
0.0
 49
-0.2
  0
ENDTAB
  0
TABLE
  2
STYLE
  70
4
  0
STYLE
  2
KICAD
  70
0
  40
0
  41
1
  42
1
  50
0
  71
0
  3
isocp.shx
  0
STYLE
  2
KICADB
  70
0
  40
0
  41
1
  42
1
  50
0
  71
0
  3
isocp.shx
  0
STYLE
  2
KICADI
  70
0
  40
0
  41
1
  42
1
  50
15
  71
0
  3
isocp.shx
  0
STYLE
  2
KICADBI
  70
0
  40
0
  41
1
  42
1
  50
15
  71
0
  3
isocp.shx
  0
ENDTAB
  0
TABLE
  2
LAYER
  70
1
  0
LAYER
  2
BLACK
  70
0
  62
7
  6
CONTINUOUS
  0
ENDTAB
  0
ENDSEC
  0
SECTION
  2
ENTITIES
0
LINE
8
BLACK
6
CONTINUOUS
10
88.8646
20
-134.655
11
88.85
21
-134.62
0
LINE
8
BLACK
6
CONTINUOUS
10
88.85
20
-134.62
11
88.85
21
-114.3
0
LINE
8
BLACK
6
CONTINUOUS
10
88.85
20
-114.3
11
88.8539
21
-114.291
0
LINE
8
BLACK
6
CONTINUOUS
10
88.8539
20
-114.291
11
88.8371
21
-113.884
0
LINE
8
BLACK
6
CONTINUOUS
10
88.8371
20
-113.884
11
88.7856
21
-113.471
0
LINE
8
BLACK
6
CONTINUOUS
10
88.7856
20
-113.471
11
88.7003
21
-113.064
0
LINE
8
BLACK
6
CONTINUOUS
10
88.7003
20
-113.064
11
88.5815
21
-112.665
0
LINE
8
BLACK
6
CONTINUOUS
10
88.5815
20
-112.665
11
88.4303
21
-112.278
0
LINE
8
BLACK
6
CONTINUOUS
10
88.4303
20
-112.278
11
88.2475
21
-111.904
0
LINE
8
BLACK
6
CONTINUOUS
10
88.2475
20
-111.904
11
88.0345
21
-111.546
0
LINE
8
BLACK
6
CONTINUOUS
10
88.0345
20
-111.546
11
87.7928
21
-111.208
0
LINE
8
BLACK
6
CONTINUOUS
10
87.7928
20
-111.208
11
87.5239
21
-110.89
0
LINE
8
BLACK
6
CONTINUOUS
10
87.5239
20
-110.89
11
87.2296
21
-110.596
0
LINE
8
BLACK
6
CONTINUOUS
10
87.2296
20
-110.596
11
86.9121
21
-110.327
0
LINE
8
BLACK
6
CONTINUOUS
10
86.9121
20
-110.327
11
86.5735
21
-110.085
0
LINE
8
BLACK
6
CONTINUOUS
10
86.5735
20
-110.085
11
86.2161
21
-109.872
0
LINE
8
BLACK
6
CONTINUOUS
10
86.2161
20
-109.872
11
85.8423
21
-109.69
0
LINE
8
BLACK
6
CONTINUOUS
10
85.8423
20
-109.69
11
85.4546
21
-109.538
0
LINE
8
BLACK
6
CONTINUOUS
10
85.4546
20
-109.538
11
85.0558
21
-109.42
0
LINE
8
BLACK
6
CONTINUOUS
10
85.0558
20
-109.42
11
84.6486
21
-109.334
0
LINE
8
BLACK
6
CONTINUOUS
10
84.6486
20
-109.334
11
84.2357
21
-109.283
0
LINE
8
BLACK
6
CONTINUOUS
10
84.2357
20
-109.283
11
83.8294
21
-109.266
0
LINE
8
BLACK
6
CONTINUOUS
10
83.8294
20
-109.266
11
83.82
21
-109.27
0
LINE
8
BLACK
6
CONTINUOUS
10
83.82
20
-109.27
11
63.5
21
-109.27
0
LINE
8
BLACK
6
CONTINUOUS
10
63.5
20
-109.27
11
63.4646
21
-109.255
0
LINE
8
BLACK
6
CONTINUOUS
10
63.4646
20
-109.255
11
63.45
21
-109.22
0
LINE
8
BLACK
6
CONTINUOUS
10
63.45
20
-109.22
11
63.45
21
-58.42
0
LINE
8
BLACK
6
CONTINUOUS
10
63.45
20
-58.42
11
63.4646
21
-58.3846
0
LINE
8
BLACK
6
CONTINUOUS
10
63.4646
20
-58.3846
11
63.5
21
-58.37
0
LINE
8
BLACK
6
CONTINUOUS
10
63.5
20
-58.37
11
233.68
21
-58.37
0
LINE
8
BLACK
6
CONTINUOUS
10
233.68
20
-58.37
11
233.715
21
-58.3846
0
LINE
8
BLACK
6
CONTINUOUS
10
233.715
20
-58.3846
11
233.73
21
-58.42
0
LINE
8
BLACK
6
CONTINUOUS
10
233.73
20
-58.42
11
233.73
21
-134.62
0
LINE
8
BLACK
6
CONTINUOUS
10
233.73
20
-134.62
11
233.715
21
-134.655
0
LINE
8
BLACK
6
CONTINUOUS
10
233.715
20
-134.655
11
233.68
21
-134.67
0
LINE
8
BLACK
6
CONTINUOUS
10
233.68
20
-134.67
11
88.9
21
-134.67
0
LINE
8
BLACK
6
CONTINUOUS
10
88.9
20
-134.67
11
88.8646
21
-134.655
0
LINE
8
BLACK
6
CONTINUOUS
10
84.6644
20
-109.24
11
85.0793
21
-109.327
0
LINE
8
BLACK
6
CONTINUOUS
10
85.0793
20
-109.327
11
85.4857
21
-109.448
0
LINE
8
BLACK
6
CONTINUOUS
10
85.4857
20
-109.448
11
85.8807
21
-109.602
0
LINE
8
BLACK
6
CONTINUOUS
10
85.8807
20
-109.602
11
86.2616
21
-109.788
0
LINE
8
BLACK
6
CONTINUOUS
10
86.2616
20
-109.788
11
86.6258
21
-110.005
0
LINE
8
BLACK
6
CONTINUOUS
10
86.6258
20
-110.005
11
86.9709
21
-110.252
0
LINE
8
BLACK
6
CONTINUOUS
10
86.9709
20
-110.252
11
87.2945
21
-110.526
0
LINE
8
BLACK
6
CONTINUOUS
10
87.2945
20
-110.526
11
87.5943
21
-110.826
0
LINE
8
BLACK
6
CONTINUOUS
10
87.5943
20
-110.826
11
87.8683
21
-111.149
0
LINE
8
BLACK
6
CONTINUOUS
10
87.8683
20
-111.149
11
88.1147
21
-111.494
0
LINE
8
BLACK
6
CONTINUOUS
10
88.1147
20
-111.494
11
88.3317
21
-111.858
0
LINE
8
BLACK
6
CONTINUOUS
10
88.3317
20
-111.858
11
88.5179
21
-112.239
0
LINE
8
BLACK
6
CONTINUOUS
10
88.5179
20
-112.239
11
88.672
21
-112.634
0
LINE
8
BLACK
6
CONTINUOUS
10
88.672
20
-112.634
11
88.793
21
-113.041
0
LINE
8
BLACK
6
CONTINUOUS
10
88.793
20
-113.041
11
88.88
21
-113.456
0
LINE
8
BLACK
6
CONTINUOUS
10
88.88
20
-113.456
11
88.9325
21
-113.876
0
LINE
8
BLACK
6
CONTINUOUS
10
88.9325
20
-113.876
11
88.95
21
-114.3
0
LINE
8
BLACK
6
CONTINUOUS
10
88.95
20
-114.3
11
88.95
21
-134.57
0
LINE
8
BLACK
6
CONTINUOUS
10
88.95
20
-134.57
11
233.63
21
-134.57
0
LINE
8
BLACK
6
CONTINUOUS
10
233.63
20
-134.57
11
233.63
21
-58.47
0
LINE
8
BLACK
6
CONTINUOUS
10
233.63
20
-58.47
11
63.55
21
-58.47
0
LINE
8
BLACK
6
CONTINUOUS
10
63.55
20
-58.47
11
63.55
21
-109.17
0
LINE
8
BLACK
6
CONTINUOUS
10
63.55
20
-109.17
11
83.82
21
-109.17
0
LINE
8
BLACK
6
CONTINUOUS
10
83.82
20
-109.17
11
84.2436
21
-109.188
0
LINE
8
BLACK
6
CONTINUOUS
10
84.2436
20
-109.188
11
84.6644
21
-109.24
  0
ENDSEC
  0
EOF
