  0
SECTION
  2
HEADER
  9
$ANGBASE
  50
0.0
  9
$ANGDIR
  70
1
  9
$MEASUREMENT
  70
1
  0
ENDSEC
  0
SECTION
  2
TABLES
  0
TABLE
  2
LTYPE
  70
4
  0
LTYPE
  5
40F
  2
CONTINUOUS
  70
0
  3
Solid line
  72
65
  73
0
  40
0.0
  0
LTYPE
  5
410
  2
DASHDOT
 70
0
  3
Dash Dot ____ _ ____ _
 72
65
 73
4
 40
2.0
 49
1.25
 49
-0.25
 49
0.25
 49
-0.25
  0
LTYPE
  5
411
  2
DASHED
 70
0
  3
Dashed __ __ __ __ __
 72
65
 73
2
 40
0.75
 49
0.5
 49
-0.25
  0
LTYPE
  5
43B
  2
DOTTED
 70
0
  3
Dotted .  .  .  .
 72
65
 73
2
 40
0.2
 49
0.0
 49
-0.2
  0
ENDTAB
  0
TABLE
  2
STYLE
  70
4
  0
STYLE
  2
KICAD
  70
0
  40
0
  41
1
  42
1
  50
0
  71
0
  3
isocp.shx
  0
STYLE
  2
KICADB
  70
0
  40
0
  41
1
  42
1
  50
0
  71
0
  3
isocp.shx
  0
STYLE
  2
KICADI
  70
0
  40
0
  41
1
  42
1
  50
15
  71
0
  3
isocp.shx
  0
STYLE
  2
KICADBI
  70
0
  40
0
  41
1
  42
1
  50
15
  71
0
  3
isocp.shx
  0
ENDTAB
  0
TABLE
  2
LAYER
  70
1
  0
LAYER
  2
BLACK
  70
0
  62
7
  6
CONTINUOUS
  0
ENDTAB
  0
ENDSEC
  0
SECTION
  2
ENTITIES
0
LINE
8
BLACK
6
CONTINUOUS
10
87.5876
20
-228.642
11
87.57
21
-228.6
0
LINE
8
BLACK
6
CONTINUOUS
10
87.57
20
-228.6
11
87.57
21
-215.9
0
LINE
8
BLACK
6
CONTINUOUS
10
87.57
20
-215.9
11
87.5876
21
-215.858
0
LINE
8
BLACK
6
CONTINUOUS
10
87.5876
20
-215.858
11
87.63
21
-215.84
0
LINE
8
BLACK
6
CONTINUOUS
10
87.63
20
-215.84
11
99.06
21
-215.84
0
LINE
8
BLACK
6
CONTINUOUS
10
99.06
20
-215.84
11
99.1024
21
-215.858
0
LINE
8
BLACK
6
CONTINUOUS
10
99.1024
20
-215.858
11
99.12
21
-215.9
0
LINE
8
BLACK
6
CONTINUOUS
10
99.12
20
-215.9
11
99.12
21
-228.6
0
LINE
8
BLACK
6
CONTINUOUS
10
99.12
20
-228.6
11
99.1024
21
-228.642
0
LINE
8
BLACK
6
CONTINUOUS
10
99.1024
20
-228.642
11
99.06
21
-228.66
0
LINE
8
BLACK
6
CONTINUOUS
10
99.06
20
-228.66
11
87.63
21
-228.66
0
LINE
8
BLACK
6
CONTINUOUS
10
87.63
20
-228.66
11
87.5876
21
-228.642
0
LINE
8
BLACK
6
CONTINUOUS
10
87.69
20
-215.96
11
87.69
21
-228.54
0
LINE
8
BLACK
6
CONTINUOUS
10
87.69
20
-228.54
11
99
21
-228.54
0
LINE
8
BLACK
6
CONTINUOUS
10
99
20
-228.54
11
99
21
-215.96
0
LINE
8
BLACK
6
CONTINUOUS
10
99
20
-215.96
11
87.69
21
-215.96
0
LINE
8
BLACK
6
CONTINUOUS
10
119.338
20
-228.642
11
119.32
21
-228.6
0
LINE
8
BLACK
6
CONTINUOUS
10
119.32
20
-228.6
11
119.32
21
-215.9
0
LINE
8
BLACK
6
CONTINUOUS
10
119.32
20
-215.9
11
119.338
21
-215.858
0
LINE
8
BLACK
6
CONTINUOUS
10
119.338
20
-215.858
11
119.38
21
-215.84
0
LINE
8
BLACK
6
CONTINUOUS
10
119.38
20
-215.84
11
130.81
21
-215.84
0
LINE
8
BLACK
6
CONTINUOUS
10
130.81
20
-215.84
11
130.852
21
-215.858
0
LINE
8
BLACK
6
CONTINUOUS
10
130.852
20
-215.858
11
130.87
21
-215.9
0
LINE
8
BLACK
6
CONTINUOUS
10
130.87
20
-215.9
11
130.87
21
-228.6
0
LINE
8
BLACK
6
CONTINUOUS
10
130.87
20
-228.6
11
130.852
21
-228.642
0
LINE
8
BLACK
6
CONTINUOUS
10
130.852
20
-228.642
11
130.81
21
-228.66
0
LINE
8
BLACK
6
CONTINUOUS
10
130.81
20
-228.66
11
119.38
21
-228.66
0
LINE
8
BLACK
6
CONTINUOUS
10
119.38
20
-228.66
11
119.338
21
-228.642
0
LINE
8
BLACK
6
CONTINUOUS
10
119.44
20
-215.96
11
119.44
21
-228.54
0
LINE
8
BLACK
6
CONTINUOUS
10
119.44
20
-228.54
11
130.75
21
-228.54
0
LINE
8
BLACK
6
CONTINUOUS
10
130.75
20
-228.54
11
130.75
21
-215.96
0
LINE
8
BLACK
6
CONTINUOUS
10
130.75
20
-215.96
11
119.44
21
-215.96
0
LINE
8
BLACK
6
CONTINUOUS
10
92.4623
20
-214.011
11
92.464
21
-214.011
0
LINE
8
BLACK
6
CONTINUOUS
10
92.464
20
-214.011
11
92.6068
21
-214.059
0
LINE
8
BLACK
6
CONTINUOUS
10
92.6068
20
-214.059
11
92.6297
21
-214.071
0
LINE
8
BLACK
6
CONTINUOUS
10
92.6297
20
-214.071
11
92.6566
21
-214.115
0
LINE
8
BLACK
6
CONTINUOUS
10
92.6566
20
-214.115
11
92.649
21
-214.166
0
LINE
8
BLACK
6
CONTINUOUS
10
92.649
20
-214.166
11
92.6107
21
-214.2
0
LINE
8
BLACK
6
CONTINUOUS
10
92.6107
20
-214.2
11
92.5594
21
-214.201
0
LINE
8
BLACK
6
CONTINUOUS
10
92.5594
20
-214.201
11
92.4281
21
-214.157
0
LINE
8
BLACK
6
CONTINUOUS
10
92.4281
20
-214.157
11
92.2198
21
-214.157
0
LINE
8
BLACK
6
CONTINUOUS
10
92.2198
20
-214.157
11
92.1513
21
-214.192
0
LINE
8
BLACK
6
CONTINUOUS
10
92.1513
20
-214.192
11
92.1209
21
-214.222
0
LINE
8
BLACK
6
CONTINUOUS
10
92.1209
20
-214.222
11
92.0867
21
-214.291
0
LINE
8
BLACK
6
CONTINUOUS
10
92.0867
20
-214.291
11
92.0867
21
-214.35
0
LINE
8
BLACK
6
CONTINUOUS
10
92.0867
20
-214.35
11
92.1209
21
-214.419
0
LINE
8
BLACK
6
CONTINUOUS
10
92.1209
20
-214.419
11
92.1513
21
-214.449
0
LINE
8
BLACK
6
CONTINUOUS
10
92.1513
20
-214.449
11
92.2283
21
-214.488
0
LINE
8
BLACK
6
CONTINUOUS
10
92.2283
20
-214.488
11
92.4108
21
-214.533
0
LINE
8
BLACK
6
CONTINUOUS
10
92.4108
20
-214.533
11
92.4226
21
-214.539
0
LINE
8
BLACK
6
CONTINUOUS
10
92.4226
20
-214.539
11
92.4262
21
-214.539
0
LINE
8
BLACK
6
CONTINUOUS
10
92.4262
20
-214.539
11
92.5214
21
-214.587
0
LINE
8
BLACK
6
CONTINUOUS
10
92.5214
20
-214.587
11
92.5394
21
-214.6
0
LINE
8
BLACK
6
CONTINUOUS
10
92.5394
20
-214.6
11
92.5409
21
-214.601
0
LINE
8
BLACK
6
CONTINUOUS
10
92.5409
20
-214.601
11
92.5885
21
-214.648
0
LINE
8
BLACK
6
CONTINUOUS
10
92.5885
20
-214.648
11
92.6014
21
-214.667
0
LINE
8
BLACK
6
CONTINUOUS
10
92.6014
20
-214.667
11
92.6026
21
-214.668
0
LINE
8
BLACK
6
CONTINUOUS
10
92.6026
20
-214.668
11
92.6502
21
-214.763
0
LINE
8
BLACK
6
CONTINUOUS
10
92.6502
20
-214.763
11
92.6576
21
-214.788
0
LINE
8
BLACK
6
CONTINUOUS
10
92.6576
20
-214.788
11
92.6566
21
-214.792
0
LINE
8
BLACK
6
CONTINUOUS
10
92.6566
20
-214.792
11
92.6581
21
-214.797
0
LINE
8
BLACK
6
CONTINUOUS
10
92.6581
20
-214.797
11
92.6581
21
-214.892
0
LINE
8
BLACK
6
CONTINUOUS
10
92.6581
20
-214.892
11
92.6536
21
-214.918
0
LINE
8
BLACK
6
CONTINUOUS
10
92.6536
20
-214.918
11
92.6507
21
-214.921
0
LINE
8
BLACK
6
CONTINUOUS
10
92.6507
20
-214.921
11
92.6502
21
-214.925
0
LINE
8
BLACK
6
CONTINUOUS
10
92.6502
20
-214.925
11
92.6026
21
-215.021
0
LINE
8
BLACK
6
CONTINUOUS
10
92.6026
20
-215.021
11
92.5892
21
-215.039
0
LINE
8
BLACK
6
CONTINUOUS
10
92.5892
20
-215.039
11
92.5885
21
-215.04
0
LINE
8
BLACK
6
CONTINUOUS
10
92.5885
20
-215.04
11
92.5409
21
-215.088
0
LINE
8
BLACK
6
CONTINUOUS
10
92.5409
20
-215.088
11
92.5225
21
-215.101
0
LINE
8
BLACK
6
CONTINUOUS
10
92.5225
20
-215.101
11
92.5214
21
-215.102
0
LINE
8
BLACK
6
CONTINUOUS
10
92.5214
20
-215.102
11
92.4262
21
-215.149
0
LINE
8
BLACK
6
CONTINUOUS
10
92.4262
20
-215.149
11
92.4012
21
-215.157
0
LINE
8
BLACK
6
CONTINUOUS
10
92.4012
20
-215.157
11
92.3968
21
-215.156
0
LINE
8
BLACK
6
CONTINUOUS
10
92.3968
20
-215.156
11
92.3926
21
-215.157
0
LINE
8
BLACK
6
CONTINUOUS
10
92.3926
20
-215.157
11
92.1545
21
-215.157
0
LINE
8
BLACK
6
CONTINUOUS
10
92.1545
20
-215.157
11
92.1324
21
-215.153
0
LINE
8
BLACK
6
CONTINUOUS
10
92.1324
20
-215.153
11
92.1308
21
-215.154
0
LINE
8
BLACK
6
CONTINUOUS
10
92.1308
20
-215.154
11
91.9879
21
-215.106
0
LINE
8
BLACK
6
CONTINUOUS
10
91.9879
20
-215.106
11
91.965
21
-215.094
0
LINE
8
BLACK
6
CONTINUOUS
10
91.965
20
-215.094
11
91.9382
21
-215.05
0
LINE
8
BLACK
6
CONTINUOUS
10
91.9382
20
-215.05
11
91.9457
21
-214.999
0
LINE
8
BLACK
6
CONTINUOUS
10
91.9457
20
-214.999
11
91.9841
21
-214.965
0
LINE
8
BLACK
6
CONTINUOUS
10
91.9841
20
-214.965
11
92.0354
21
-214.964
0
LINE
8
BLACK
6
CONTINUOUS
10
92.0354
20
-214.964
11
92.1667
21
-215.007
0
LINE
8
BLACK
6
CONTINUOUS
10
92.1667
20
-215.007
11
92.3749
21
-215.007
0
LINE
8
BLACK
6
CONTINUOUS
10
92.3749
20
-215.007
11
92.4434
21
-214.973
0
LINE
8
BLACK
6
CONTINUOUS
10
92.4434
20
-214.973
11
92.4738
21
-214.943
0
LINE
8
BLACK
6
CONTINUOUS
10
92.4738
20
-214.943
11
92.5081
21
-214.874
0
LINE
8
BLACK
6
CONTINUOUS
10
92.5081
20
-214.874
11
92.5081
21
-214.814
0
LINE
8
BLACK
6
CONTINUOUS
10
92.5081
20
-214.814
11
92.4738
21
-214.746
0
LINE
8
BLACK
6
CONTINUOUS
10
92.4738
20
-214.746
11
92.4434
21
-214.715
0
LINE
8
BLACK
6
CONTINUOUS
10
92.4434
20
-214.715
11
92.3664
21
-214.677
0
LINE
8
BLACK
6
CONTINUOUS
10
92.3664
20
-214.677
11
92.184
21
-214.631
0
LINE
8
BLACK
6
CONTINUOUS
10
92.184
20
-214.631
11
92.1721
21
-214.626
0
LINE
8
BLACK
6
CONTINUOUS
10
92.1721
20
-214.626
11
92.1686
21
-214.626
0
LINE
8
BLACK
6
CONTINUOUS
10
92.1686
20
-214.626
11
92.0734
21
-214.578
0
LINE
8
BLACK
6
CONTINUOUS
10
92.0734
20
-214.578
11
92.0554
21
-214.565
0
LINE
8
BLACK
6
CONTINUOUS
10
92.0554
20
-214.565
11
92.0539
21
-214.564
0
LINE
8
BLACK
6
CONTINUOUS
10
92.0539
20
-214.564
11
92.0063
21
-214.516
0
LINE
8
BLACK
6
CONTINUOUS
10
92.0063
20
-214.516
11
91.9934
21
-214.498
0
LINE
8
BLACK
6
CONTINUOUS
10
91.9934
20
-214.498
11
91.9922
21
-214.497
0
LINE
8
BLACK
6
CONTINUOUS
10
91.9922
20
-214.497
11
91.9446
21
-214.402
0
LINE
8
BLACK
6
CONTINUOUS
10
91.9446
20
-214.402
11
91.9372
21
-214.377
0
LINE
8
BLACK
6
CONTINUOUS
10
91.9372
20
-214.377
11
91.9382
21
-214.372
0
LINE
8
BLACK
6
CONTINUOUS
10
91.9382
20
-214.372
11
91.9367
21
-214.368
0
LINE
8
BLACK
6
CONTINUOUS
10
91.9367
20
-214.368
11
91.9367
21
-214.273
0
LINE
8
BLACK
6
CONTINUOUS
10
91.9367
20
-214.273
11
91.9412
21
-214.247
0
LINE
8
BLACK
6
CONTINUOUS
10
91.9412
20
-214.247
11
91.9441
21
-214.244
0
LINE
8
BLACK
6
CONTINUOUS
10
91.9441
20
-214.244
11
91.9446
21
-214.239
0
LINE
8
BLACK
6
CONTINUOUS
10
91.9446
20
-214.239
11
91.9922
21
-214.144
0
LINE
8
BLACK
6
CONTINUOUS
10
91.9922
20
-214.144
11
92.0056
21
-214.126
0
LINE
8
BLACK
6
CONTINUOUS
10
92.0056
20
-214.126
11
92.0063
21
-214.125
0
LINE
8
BLACK
6
CONTINUOUS
10
92.0063
20
-214.125
11
92.0539
21
-214.077
0
LINE
8
BLACK
6
CONTINUOUS
10
92.0539
20
-214.077
11
92.0722
21
-214.064
0
LINE
8
BLACK
6
CONTINUOUS
10
92.0722
20
-214.064
11
92.0734
21
-214.063
0
LINE
8
BLACK
6
CONTINUOUS
10
92.0734
20
-214.063
11
92.1686
21
-214.015
0
LINE
8
BLACK
6
CONTINUOUS
10
92.1686
20
-214.015
11
92.1936
21
-214.008
0
LINE
8
BLACK
6
CONTINUOUS
10
92.1936
20
-214.008
11
92.1979
21
-214.009
0
LINE
8
BLACK
6
CONTINUOUS
10
92.1979
20
-214.009
11
92.2021
21
-214.007
0
LINE
8
BLACK
6
CONTINUOUS
10
92.2021
20
-214.007
11
92.4402
21
-214.007
0
LINE
8
BLACK
6
CONTINUOUS
10
92.4402
20
-214.007
11
92.4623
21
-214.011
0
LINE
8
BLACK
6
CONTINUOUS
10
126.264
20
-214.012
11
126.267
21
-214.015
0
LINE
8
BLACK
6
CONTINUOUS
10
126.267
20
-214.015
11
126.271
21
-214.015
0
LINE
8
BLACK
6
CONTINUOUS
10
126.271
20
-214.015
11
126.367
21
-214.063
0
LINE
8
BLACK
6
CONTINUOUS
10
126.367
20
-214.063
11
126.385
21
-214.076
0
LINE
8
BLACK
6
CONTINUOUS
10
126.385
20
-214.076
11
126.386
21
-214.077
0
LINE
8
BLACK
6
CONTINUOUS
10
126.386
20
-214.077
11
126.434
21
-214.125
0
LINE
8
BLACK
6
CONTINUOUS
10
126.434
20
-214.125
11
126.447
21
-214.143
0
LINE
8
BLACK
6
CONTINUOUS
10
126.447
20
-214.143
11
126.448
21
-214.144
0
LINE
8
BLACK
6
CONTINUOUS
10
126.448
20
-214.144
11
126.495
21
-214.239
0
LINE
8
BLACK
6
CONTINUOUS
10
126.495
20
-214.239
11
126.503
21
-214.264
0
LINE
8
BLACK
6
CONTINUOUS
10
126.503
20
-214.264
11
126.502
21
-214.269
0
LINE
8
BLACK
6
CONTINUOUS
10
126.502
20
-214.269
11
126.503
21
-214.273
0
LINE
8
BLACK
6
CONTINUOUS
10
126.503
20
-214.273
11
126.503
21
-214.368
0
LINE
8
BLACK
6
CONTINUOUS
10
126.503
20
-214.368
11
126.499
21
-214.39
0
LINE
8
BLACK
6
CONTINUOUS
10
126.499
20
-214.39
11
126.499
21
-214.392
0
LINE
8
BLACK
6
CONTINUOUS
10
126.499
20
-214.392
11
126.452
21
-214.535
0
LINE
8
BLACK
6
CONTINUOUS
10
126.452
20
-214.535
11
126.439
21
-214.558
0
LINE
8
BLACK
6
CONTINUOUS
10
126.439
20
-214.558
11
126.436
21
-214.56
0
LINE
8
BLACK
6
CONTINUOUS
10
126.436
20
-214.56
11
126.434
21
-214.564
0
LINE
8
BLACK
6
CONTINUOUS
10
126.434
20
-214.564
11
125.99
21
-215.007
0
LINE
8
BLACK
6
CONTINUOUS
10
125.99
20
-215.007
11
126.428
21
-215.007
0
LINE
8
BLACK
6
CONTINUOUS
10
126.428
20
-215.007
11
126.454
21
-215.012
0
LINE
8
BLACK
6
CONTINUOUS
10
126.454
20
-215.012
11
126.493
21
-215.045
0
LINE
8
BLACK
6
CONTINUOUS
10
126.493
20
-215.045
11
126.502
21
-215.095
0
LINE
8
BLACK
6
CONTINUOUS
10
126.502
20
-215.095
11
126.477
21
-215.14
0
LINE
8
BLACK
6
CONTINUOUS
10
126.477
20
-215.14
11
126.428
21
-215.157
0
LINE
8
BLACK
6
CONTINUOUS
10
126.428
20
-215.157
11
125.809
21
-215.157
0
LINE
8
BLACK
6
CONTINUOUS
10
125.809
20
-215.157
11
125.793
21
-215.155
0
LINE
8
BLACK
6
CONTINUOUS
10
125.793
20
-215.155
11
125.79
21
-215.155
0
LINE
8
BLACK
6
CONTINUOUS
10
125.79
20
-215.155
11
125.788
21
-215.154
0
LINE
8
BLACK
6
CONTINUOUS
10
125.788
20
-215.154
11
125.784
21
-215.153
0
LINE
8
BLACK
6
CONTINUOUS
10
125.784
20
-215.153
11
125.766
21
-215.138
0
LINE
8
BLACK
6
CONTINUOUS
10
125.766
20
-215.138
11
125.748
21
-215.125
0
LINE
8
BLACK
6
CONTINUOUS
10
125.748
20
-215.125
11
125.747
21
-215.122
0
LINE
8
BLACK
6
CONTINUOUS
10
125.747
20
-215.122
11
125.744
21
-215.12
0
LINE
8
BLACK
6
CONTINUOUS
10
125.744
20
-215.12
11
125.74
21
-215.098
0
LINE
8
BLACK
6
CONTINUOUS
10
125.74
20
-215.098
11
125.735
21
-215.076
0
LINE
8
BLACK
6
CONTINUOUS
10
125.735
20
-215.076
11
125.736
21
-215.073
0
LINE
8
BLACK
6
CONTINUOUS
10
125.736
20
-215.073
11
125.735
21
-215.069
0
LINE
8
BLACK
6
CONTINUOUS
10
125.735
20
-215.069
11
125.747
21
-215.05
0
LINE
8
BLACK
6
CONTINUOUS
10
125.747
20
-215.05
11
125.756
21
-215.029
0
LINE
8
BLACK
6
CONTINUOUS
10
125.756
20
-215.029
11
126.315
21
-214.47
0
LINE
8
BLACK
6
CONTINUOUS
10
126.315
20
-214.47
11
126.353
21
-214.356
0
LINE
8
BLACK
6
CONTINUOUS
10
126.353
20
-214.356
11
126.353
21
-214.291
0
LINE
8
BLACK
6
CONTINUOUS
10
126.353
20
-214.291
11
126.319
21
-214.222
0
LINE
8
BLACK
6
CONTINUOUS
10
126.319
20
-214.222
11
126.289
21
-214.192
0
LINE
8
BLACK
6
CONTINUOUS
10
126.289
20
-214.192
11
126.22
21
-214.157
0
LINE
8
BLACK
6
CONTINUOUS
10
126.22
20
-214.157
11
126.017
21
-214.157
0
LINE
8
BLACK
6
CONTINUOUS
10
126.017
20
-214.157
11
125.949
21
-214.192
0
LINE
8
BLACK
6
CONTINUOUS
10
125.949
20
-214.192
11
125.91
21
-214.231
0
LINE
8
BLACK
6
CONTINUOUS
10
125.91
20
-214.231
11
125.889
21
-214.246
0
LINE
8
BLACK
6
CONTINUOUS
10
125.889
20
-214.246
11
125.837
21
-214.25
0
LINE
8
BLACK
6
CONTINUOUS
10
125.837
20
-214.25
11
125.795
21
-214.221
0
LINE
8
BLACK
6
CONTINUOUS
10
125.795
20
-214.221
11
125.782
21
-214.171
0
LINE
8
BLACK
6
CONTINUOUS
10
125.782
20
-214.171
11
125.804
21
-214.125
0
LINE
8
BLACK
6
CONTINUOUS
10
125.804
20
-214.125
11
125.851
21
-214.077
0
LINE
8
BLACK
6
CONTINUOUS
10
125.851
20
-214.077
11
125.87
21
-214.064
0
LINE
8
BLACK
6
CONTINUOUS
10
125.87
20
-214.064
11
125.871
21
-214.063
0
LINE
8
BLACK
6
CONTINUOUS
10
125.871
20
-214.063
11
125.966
21
-214.015
0
LINE
8
BLACK
6
CONTINUOUS
10
125.966
20
-214.015
11
125.991
21
-214.008
0
LINE
8
BLACK
6
CONTINUOUS
10
125.991
20
-214.008
11
125.996
21
-214.009
0
LINE
8
BLACK
6
CONTINUOUS
10
125.996
20
-214.009
11
126
21
-214.007
0
LINE
8
BLACK
6
CONTINUOUS
10
126
20
-214.007
11
126.238
21
-214.007
0
LINE
8
BLACK
6
CONTINUOUS
10
126.238
20
-214.007
11
126.264
21
-214.012
0
LINE
8
BLACK
6
CONTINUOUS
10
94.4014
20
-214.009
11
94.4056
21
-214.009
0
LINE
8
BLACK
6
CONTINUOUS
10
94.4056
20
-214.009
11
94.4245
21
-214.019
0
LINE
8
BLACK
6
CONTINUOUS
10
94.4245
20
-214.019
11
94.4444
21
-214.028
0
LINE
8
BLACK
6
CONTINUOUS
10
94.4444
20
-214.028
11
94.4463
21
-214.032
0
LINE
8
BLACK
6
CONTINUOUS
10
94.4463
20
-214.032
11
94.4501
21
-214.034
0
LINE
8
BLACK
6
CONTINUOUS
10
94.4501
20
-214.034
11
94.4575
21
-214.055
0
LINE
8
BLACK
6
CONTINUOUS
10
94.4575
20
-214.055
11
94.4672
21
-214.074
0
LINE
8
BLACK
6
CONTINUOUS
10
94.4672
20
-214.074
11
94.4661
21
-214.078
0
LINE
8
BLACK
6
CONTINUOUS
10
94.4661
20
-214.078
11
94.4676
21
-214.082
0
LINE
8
BLACK
6
CONTINUOUS
10
94.4676
20
-214.082
11
94.4676
21
-215.007
0
LINE
8
BLACK
6
CONTINUOUS
10
94.4676
20
-215.007
11
94.6783
21
-215.007
0
LINE
8
BLACK
6
CONTINUOUS
10
94.6783
20
-215.007
11
94.704
21
-215.012
0
LINE
8
BLACK
6
CONTINUOUS
10
94.704
20
-215.012
11
94.7433
21
-215.045
0
LINE
8
BLACK
6
CONTINUOUS
10
94.7433
20
-215.045
11
94.7522
21
-215.095
0
LINE
8
BLACK
6
CONTINUOUS
10
94.7522
20
-215.095
11
94.7265
21
-215.14
0
LINE
8
BLACK
6
CONTINUOUS
10
94.7265
20
-215.14
11
94.6783
21
-215.157
0
LINE
8
BLACK
6
CONTINUOUS
10
94.6783
20
-215.157
11
94.1069
21
-215.157
0
LINE
8
BLACK
6
CONTINUOUS
10
94.1069
20
-215.157
11
94.0813
21
-215.153
0
LINE
8
BLACK
6
CONTINUOUS
10
94.0813
20
-215.153
11
94.042
21
-215.12
0
LINE
8
BLACK
6
CONTINUOUS
10
94.042
20
-215.12
11
94.033
21
-215.069
0
LINE
8
BLACK
6
CONTINUOUS
10
94.033
20
-215.069
11
94.0587
21
-215.025
0
LINE
8
BLACK
6
CONTINUOUS
10
94.0587
20
-215.025
11
94.1069
21
-215.007
0
LINE
8
BLACK
6
CONTINUOUS
10
94.1069
20
-215.007
11
94.3176
21
-215.007
0
LINE
8
BLACK
6
CONTINUOUS
10
94.3176
20
-215.007
11
94.3176
21
-214.311
0
LINE
8
BLACK
6
CONTINUOUS
10
94.3176
20
-214.311
11
94.2552
21
-214.374
0
LINE
8
BLACK
6
CONTINUOUS
10
94.2552
20
-214.374
11
94.2368
21
-214.386
0
LINE
8
BLACK
6
CONTINUOUS
10
94.2368
20
-214.386
11
94.2357
21
-214.388
0
LINE
8
BLACK
6
CONTINUOUS
10
94.2357
20
-214.388
11
94.1404
21
-214.435
0
LINE
8
BLACK
6
CONTINUOUS
10
94.1404
20
-214.435
11
94.1155
21
-214.443
0
LINE
8
BLACK
6
CONTINUOUS
10
94.1155
20
-214.443
11
94.0656
21
-214.431
0
LINE
8
BLACK
6
CONTINUOUS
10
94.0656
20
-214.431
11
94.035
21
-214.389
0
LINE
8
BLACK
6
CONTINUOUS
10
94.035
20
-214.389
11
94.0381
21
-214.338
0
LINE
8
BLACK
6
CONTINUOUS
10
94.0381
20
-214.338
11
94.0734
21
-214.301
0
LINE
8
BLACK
6
CONTINUOUS
10
94.0734
20
-214.301
11
94.1577
21
-214.259
0
LINE
8
BLACK
6
CONTINUOUS
10
94.1577
20
-214.259
11
94.2391
21
-214.177
0
LINE
8
BLACK
6
CONTINUOUS
10
94.2391
20
-214.177
11
94.3302
21
-214.041
0
LINE
8
BLACK
6
CONTINUOUS
10
94.3302
20
-214.041
11
94.3482
21
-214.022
0
LINE
8
BLACK
6
CONTINUOUS
10
94.3482
20
-214.022
11
94.3523
21
-214.021
0
LINE
8
BLACK
6
CONTINUOUS
10
94.3523
20
-214.021
11
94.3551
21
-214.017
0
LINE
8
BLACK
6
CONTINUOUS
10
94.3551
20
-214.017
11
94.3766
21
-214.014
0
LINE
8
BLACK
6
CONTINUOUS
10
94.3766
20
-214.014
11
94.3974
21
-214.008
0
LINE
8
BLACK
6
CONTINUOUS
10
94.3974
20
-214.008
11
94.4014
21
-214.009
0
LINE
8
BLACK
6
CONTINUOUS
10
124.212
20
-214.011
11
124.214
21
-214.011
0
LINE
8
BLACK
6
CONTINUOUS
10
124.214
20
-214.011
11
124.357
21
-214.059
0
LINE
8
BLACK
6
CONTINUOUS
10
124.357
20
-214.059
11
124.38
21
-214.071
0
LINE
8
BLACK
6
CONTINUOUS
10
124.38
20
-214.071
11
124.407
21
-214.115
0
LINE
8
BLACK
6
CONTINUOUS
10
124.407
20
-214.115
11
124.399
21
-214.166
0
LINE
8
BLACK
6
CONTINUOUS
10
124.399
20
-214.166
11
124.361
21
-214.2
0
LINE
8
BLACK
6
CONTINUOUS
10
124.361
20
-214.2
11
124.309
21
-214.201
0
LINE
8
BLACK
6
CONTINUOUS
10
124.309
20
-214.201
11
124.178
21
-214.157
0
LINE
8
BLACK
6
CONTINUOUS
10
124.178
20
-214.157
11
123.97
21
-214.157
0
LINE
8
BLACK
6
CONTINUOUS
10
123.97
20
-214.157
11
123.901
21
-214.192
0
LINE
8
BLACK
6
CONTINUOUS
10
123.901
20
-214.192
11
123.871
21
-214.222
0
LINE
8
BLACK
6
CONTINUOUS
10
123.871
20
-214.222
11
123.837
21
-214.291
0
LINE
8
BLACK
6
CONTINUOUS
10
123.837
20
-214.291
11
123.837
21
-214.35
0
LINE
8
BLACK
6
CONTINUOUS
10
123.837
20
-214.35
11
123.871
21
-214.419
0
LINE
8
BLACK
6
CONTINUOUS
10
123.871
20
-214.419
11
123.901
21
-214.449
0
LINE
8
BLACK
6
CONTINUOUS
10
123.901
20
-214.449
11
123.978
21
-214.488
0
LINE
8
BLACK
6
CONTINUOUS
10
123.978
20
-214.488
11
124.161
21
-214.533
0
LINE
8
BLACK
6
CONTINUOUS
10
124.161
20
-214.533
11
124.173
21
-214.539
0
LINE
8
BLACK
6
CONTINUOUS
10
124.173
20
-214.539
11
124.176
21
-214.539
0
LINE
8
BLACK
6
CONTINUOUS
10
124.176
20
-214.539
11
124.271
21
-214.587
0
LINE
8
BLACK
6
CONTINUOUS
10
124.271
20
-214.587
11
124.289
21
-214.6
0
LINE
8
BLACK
6
CONTINUOUS
10
124.289
20
-214.6
11
124.291
21
-214.601
0
LINE
8
BLACK
6
CONTINUOUS
10
124.291
20
-214.601
11
124.339
21
-214.648
0
LINE
8
BLACK
6
CONTINUOUS
10
124.339
20
-214.648
11
124.351
21
-214.667
0
LINE
8
BLACK
6
CONTINUOUS
10
124.351
20
-214.667
11
124.353
21
-214.668
0
LINE
8
BLACK
6
CONTINUOUS
10
124.353
20
-214.668
11
124.4
21
-214.763
0
LINE
8
BLACK
6
CONTINUOUS
10
124.4
20
-214.763
11
124.408
21
-214.788
0
LINE
8
BLACK
6
CONTINUOUS
10
124.408
20
-214.788
11
124.407
21
-214.792
0
LINE
8
BLACK
6
CONTINUOUS
10
124.407
20
-214.792
11
124.408
21
-214.797
0
LINE
8
BLACK
6
CONTINUOUS
10
124.408
20
-214.797
11
124.408
21
-214.892
0
LINE
8
BLACK
6
CONTINUOUS
10
124.408
20
-214.892
11
124.404
21
-214.918
0
LINE
8
BLACK
6
CONTINUOUS
10
124.404
20
-214.918
11
124.401
21
-214.921
0
LINE
8
BLACK
6
CONTINUOUS
10
124.401
20
-214.921
11
124.4
21
-214.925
0
LINE
8
BLACK
6
CONTINUOUS
10
124.4
20
-214.925
11
124.353
21
-215.021
0
LINE
8
BLACK
6
CONTINUOUS
10
124.353
20
-215.021
11
124.339
21
-215.039
0
LINE
8
BLACK
6
CONTINUOUS
10
124.339
20
-215.039
11
124.339
21
-215.04
0
LINE
8
BLACK
6
CONTINUOUS
10
124.339
20
-215.04
11
124.291
21
-215.088
0
LINE
8
BLACK
6
CONTINUOUS
10
124.291
20
-215.088
11
124.273
21
-215.101
0
LINE
8
BLACK
6
CONTINUOUS
10
124.273
20
-215.101
11
124.271
21
-215.102
0
LINE
8
BLACK
6
CONTINUOUS
10
124.271
20
-215.102
11
124.176
21
-215.149
0
LINE
8
BLACK
6
CONTINUOUS
10
124.176
20
-215.149
11
124.151
21
-215.157
0
LINE
8
BLACK
6
CONTINUOUS
10
124.151
20
-215.157
11
124.147
21
-215.156
0
LINE
8
BLACK
6
CONTINUOUS
10
124.147
20
-215.156
11
124.143
21
-215.157
0
LINE
8
BLACK
6
CONTINUOUS
10
124.143
20
-215.157
11
123.905
21
-215.157
0
LINE
8
BLACK
6
CONTINUOUS
10
123.905
20
-215.157
11
123.882
21
-215.153
0
LINE
8
BLACK
6
CONTINUOUS
10
123.882
20
-215.153
11
123.881
21
-215.154
0
LINE
8
BLACK
6
CONTINUOUS
10
123.881
20
-215.154
11
123.738
21
-215.106
0
LINE
8
BLACK
6
CONTINUOUS
10
123.738
20
-215.106
11
123.715
21
-215.094
0
LINE
8
BLACK
6
CONTINUOUS
10
123.715
20
-215.094
11
123.688
21
-215.05
0
LINE
8
BLACK
6
CONTINUOUS
10
123.688
20
-215.05
11
123.696
21
-214.999
0
LINE
8
BLACK
6
CONTINUOUS
10
123.696
20
-214.999
11
123.734
21
-214.965
0
LINE
8
BLACK
6
CONTINUOUS
10
123.734
20
-214.965
11
123.785
21
-214.964
0
LINE
8
BLACK
6
CONTINUOUS
10
123.785
20
-214.964
11
123.917
21
-215.007
0
LINE
8
BLACK
6
CONTINUOUS
10
123.917
20
-215.007
11
124.125
21
-215.007
0
LINE
8
BLACK
6
CONTINUOUS
10
124.125
20
-215.007
11
124.193
21
-214.973
0
LINE
8
BLACK
6
CONTINUOUS
10
124.193
20
-214.973
11
124.224
21
-214.943
0
LINE
8
BLACK
6
CONTINUOUS
10
124.224
20
-214.943
11
124.258
21
-214.874
0
LINE
8
BLACK
6
CONTINUOUS
10
124.258
20
-214.874
11
124.258
21
-214.814
0
LINE
8
BLACK
6
CONTINUOUS
10
124.258
20
-214.814
11
124.224
21
-214.746
0
LINE
8
BLACK
6
CONTINUOUS
10
124.224
20
-214.746
11
124.193
21
-214.715
0
LINE
8
BLACK
6
CONTINUOUS
10
124.193
20
-214.715
11
124.116
21
-214.677
0
LINE
8
BLACK
6
CONTINUOUS
10
124.116
20
-214.677
11
123.934
21
-214.631
0
LINE
8
BLACK
6
CONTINUOUS
10
123.934
20
-214.631
11
123.922
21
-214.626
0
LINE
8
BLACK
6
CONTINUOUS
10
123.922
20
-214.626
11
123.919
21
-214.626
0
LINE
8
BLACK
6
CONTINUOUS
10
123.919
20
-214.626
11
123.823
21
-214.578
0
LINE
8
BLACK
6
CONTINUOUS
10
123.823
20
-214.578
11
123.805
21
-214.565
0
LINE
8
BLACK
6
CONTINUOUS
10
123.805
20
-214.565
11
123.804
21
-214.564
0
LINE
8
BLACK
6
CONTINUOUS
10
123.804
20
-214.564
11
123.756
21
-214.516
0
LINE
8
BLACK
6
CONTINUOUS
10
123.756
20
-214.516
11
123.743
21
-214.498
0
LINE
8
BLACK
6
CONTINUOUS
10
123.743
20
-214.498
11
123.742
21
-214.497
0
LINE
8
BLACK
6
CONTINUOUS
10
123.742
20
-214.497
11
123.695
21
-214.402
0
LINE
8
BLACK
6
CONTINUOUS
10
123.695
20
-214.402
11
123.687
21
-214.377
0
LINE
8
BLACK
6
CONTINUOUS
10
123.687
20
-214.377
11
123.688
21
-214.372
0
LINE
8
BLACK
6
CONTINUOUS
10
123.688
20
-214.372
11
123.687
21
-214.368
0
LINE
8
BLACK
6
CONTINUOUS
10
123.687
20
-214.368
11
123.687
21
-214.273
0
LINE
8
BLACK
6
CONTINUOUS
10
123.687
20
-214.273
11
123.691
21
-214.247
0
LINE
8
BLACK
6
CONTINUOUS
10
123.691
20
-214.247
11
123.694
21
-214.244
0
LINE
8
BLACK
6
CONTINUOUS
10
123.694
20
-214.244
11
123.695
21
-214.239
0
LINE
8
BLACK
6
CONTINUOUS
10
123.695
20
-214.239
11
123.742
21
-214.144
0
LINE
8
BLACK
6
CONTINUOUS
10
123.742
20
-214.144
11
123.756
21
-214.126
0
LINE
8
BLACK
6
CONTINUOUS
10
123.756
20
-214.126
11
123.756
21
-214.125
0
LINE
8
BLACK
6
CONTINUOUS
10
123.756
20
-214.125
11
123.804
21
-214.077
0
LINE
8
BLACK
6
CONTINUOUS
10
123.804
20
-214.077
11
123.822
21
-214.064
0
LINE
8
BLACK
6
CONTINUOUS
10
123.822
20
-214.064
11
123.823
21
-214.063
0
LINE
8
BLACK
6
CONTINUOUS
10
123.823
20
-214.063
11
123.919
21
-214.015
0
LINE
8
BLACK
6
CONTINUOUS
10
123.919
20
-214.015
11
123.944
21
-214.008
0
LINE
8
BLACK
6
CONTINUOUS
10
123.944
20
-214.008
11
123.948
21
-214.009
0
LINE
8
BLACK
6
CONTINUOUS
10
123.948
20
-214.009
11
123.952
21
-214.007
0
LINE
8
BLACK
6
CONTINUOUS
10
123.952
20
-214.007
11
124.19
21
-214.007
0
LINE
8
BLACK
6
CONTINUOUS
10
124.19
20
-214.007
11
124.212
21
-214.011
0
LINE
8
BLACK
6
CONTINUOUS
10
92.9612
20
-214.022
11
92.9894
21
-214.065
0
LINE
8
BLACK
6
CONTINUOUS
10
92.9894
20
-214.065
11
93.1586
21
-214.776
0
LINE
8
BLACK
6
CONTINUOUS
10
93.1586
20
-214.776
11
93.2725
21
-214.349
0
LINE
8
BLACK
6
CONTINUOUS
10
93.2725
20
-214.349
11
93.2835
21
-214.325
0
LINE
8
BLACK
6
CONTINUOUS
10
93.2835
20
-214.325
11
93.2891
21
-214.321
0
LINE
8
BLACK
6
CONTINUOUS
10
93.2891
20
-214.321
11
93.292
21
-214.315
0
LINE
8
BLACK
6
CONTINUOUS
10
93.292
20
-214.315
11
93.3096
21
-214.307
0
LINE
8
BLACK
6
CONTINUOUS
10
93.3096
20
-214.307
11
93.3255
21
-214.296
0
LINE
8
BLACK
6
CONTINUOUS
10
93.3255
20
-214.296
11
93.3323
21
-214.296
0
LINE
8
BLACK
6
CONTINUOUS
10
93.3323
20
-214.296
11
93.3386
21
-214.293
0
LINE
8
BLACK
6
CONTINUOUS
10
93.3386
20
-214.293
11
93.3573
21
-214.298
0
LINE
8
BLACK
6
CONTINUOUS
10
93.3573
20
-214.298
11
93.3766
21
-214.3
0
LINE
8
BLACK
6
CONTINUOUS
10
93.3766
20
-214.3
11
93.3815
21
-214.305
0
LINE
8
BLACK
6
CONTINUOUS
10
93.3815
20
-214.305
11
93.3881
21
-214.307
0
LINE
8
BLACK
6
CONTINUOUS
10
93.3881
20
-214.307
11
93.3992
21
-214.323
0
LINE
8
BLACK
6
CONTINUOUS
10
93.3992
20
-214.323
11
93.4129
21
-214.336
0
LINE
8
BLACK
6
CONTINUOUS
10
93.4129
20
-214.336
11
93.4135
21
-214.343
0
LINE
8
BLACK
6
CONTINUOUS
10
93.4135
20
-214.343
11
93.4175
21
-214.349
0
LINE
8
BLACK
6
CONTINUOUS
10
93.4175
20
-214.349
11
93.5314
21
-214.776
0
LINE
8
BLACK
6
CONTINUOUS
10
93.5314
20
-214.776
11
93.7006
21
-214.065
0
LINE
8
BLACK
6
CONTINUOUS
10
93.7006
20
-214.065
11
93.711
21
-214.041
0
LINE
8
BLACK
6
CONTINUOUS
10
93.711
20
-214.041
11
93.7521
21
-214.011
0
LINE
8
BLACK
6
CONTINUOUS
10
93.7521
20
-214.011
11
93.8033
21
-214.014
0
LINE
8
BLACK
6
CONTINUOUS
10
93.8033
20
-214.014
11
93.8406
21
-214.049
0
LINE
8
BLACK
6
CONTINUOUS
10
93.8406
20
-214.049
11
93.8465
21
-214.1
0
LINE
8
BLACK
6
CONTINUOUS
10
93.8465
20
-214.1
11
93.6084
21
-215.1
0
LINE
8
BLACK
6
CONTINUOUS
10
93.6084
20
-215.1
11
93.5981
21
-215.124
0
LINE
8
BLACK
6
CONTINUOUS
10
93.5981
20
-215.124
11
93.5918
21
-215.128
0
LINE
8
BLACK
6
CONTINUOUS
10
93.5918
20
-215.128
11
93.5884
21
-215.135
0
LINE
8
BLACK
6
CONTINUOUS
10
93.5884
20
-215.135
11
93.5717
21
-215.143
0
LINE
8
BLACK
6
CONTINUOUS
10
93.5717
20
-215.143
11
93.5569
21
-215.154
0
LINE
8
BLACK
6
CONTINUOUS
10
93.5569
20
-215.154
11
93.5491
21
-215.154
0
LINE
8
BLACK
6
CONTINUOUS
10
93.5491
20
-215.154
11
93.5419
21
-215.157
0
LINE
8
BLACK
6
CONTINUOUS
10
93.5419
20
-215.157
11
93.5241
21
-215.152
0
LINE
8
BLACK
6
CONTINUOUS
10
93.5241
20
-215.152
11
93.5057
21
-215.151
0
LINE
8
BLACK
6
CONTINUOUS
10
93.5057
20
-215.151
11
93.5
21
-215.146
0
LINE
8
BLACK
6
CONTINUOUS
10
93.5
20
-215.146
11
93.4924
21
-215.144
0
LINE
8
BLACK
6
CONTINUOUS
10
93.4924
20
-215.144
11
93.4818
21
-215.129
0
LINE
8
BLACK
6
CONTINUOUS
10
93.4818
20
-215.129
11
93.4684
21
-215.116
0
LINE
8
BLACK
6
CONTINUOUS
10
93.4684
20
-215.116
11
93.4675
21
-215.108
0
LINE
8
BLACK
6
CONTINUOUS
10
93.4675
20
-215.108
11
93.463
21
-215.102
0
LINE
8
BLACK
6
CONTINUOUS
10
93.463
20
-215.102
11
93.345
21
-214.659
0
LINE
8
BLACK
6
CONTINUOUS
10
93.345
20
-214.659
11
93.227
21
-215.102
0
LINE
8
BLACK
6
CONTINUOUS
10
93.227
20
-215.102
11
93.216
21
-215.125
0
LINE
8
BLACK
6
CONTINUOUS
10
93.216
20
-215.125
11
93.2096
21
-215.13
0
LINE
8
BLACK
6
CONTINUOUS
10
93.2096
20
-215.13
11
93.206
21
-215.137
0
LINE
8
BLACK
6
CONTINUOUS
10
93.206
20
-215.137
11
93.1891
21
-215.144
0
LINE
8
BLACK
6
CONTINUOUS
10
93.1891
20
-215.144
11
93.174
21
-215.155
0
LINE
8
BLACK
6
CONTINUOUS
10
93.174
20
-215.155
11
93.1662
21
-215.154
0
LINE
8
BLACK
6
CONTINUOUS
10
93.1662
20
-215.154
11
93.159
21
-215.157
0
LINE
8
BLACK
6
CONTINUOUS
10
93.159
20
-215.157
11
93.1413
21
-215.152
0
LINE
8
BLACK
6
CONTINUOUS
10
93.1413
20
-215.152
11
93.1229
21
-215.15
0
LINE
8
BLACK
6
CONTINUOUS
10
93.1229
20
-215.15
11
93.1173
21
-215.145
0
LINE
8
BLACK
6
CONTINUOUS
10
93.1173
20
-215.145
11
93.1098
21
-215.143
0
LINE
8
BLACK
6
CONTINUOUS
10
93.1098
20
-215.143
11
93.0996
21
-215.127
0
LINE
8
BLACK
6
CONTINUOUS
10
93.0996
20
-215.127
11
93.0866
21
-215.114
0
LINE
8
BLACK
6
CONTINUOUS
10
93.0866
20
-215.114
11
93.0859
21
-215.106
0
LINE
8
BLACK
6
CONTINUOUS
10
93.0859
20
-215.106
11
93.0816
21
-215.1
0
LINE
8
BLACK
6
CONTINUOUS
10
93.0816
20
-215.1
11
92.8435
21
-214.1
0
LINE
8
BLACK
6
CONTINUOUS
10
92.8435
20
-214.1
11
92.8419
21
-214.074
0
LINE
8
BLACK
6
CONTINUOUS
10
92.8419
20
-214.074
11
92.8649
21
-214.028
0
LINE
8
BLACK
6
CONTINUOUS
10
92.8649
20
-214.028
11
92.912
21
-214.008
0
LINE
8
BLACK
6
CONTINUOUS
10
92.912
20
-214.008
11
92.9612
21
-214.022
0
LINE
8
BLACK
6
CONTINUOUS
10
124.711
20
-214.022
11
124.739
21
-214.065
0
LINE
8
BLACK
6
CONTINUOUS
10
124.739
20
-214.065
11
124.909
21
-214.776
0
LINE
8
BLACK
6
CONTINUOUS
10
124.909
20
-214.776
11
125.023
21
-214.349
0
LINE
8
BLACK
6
CONTINUOUS
10
125.023
20
-214.349
11
125.034
21
-214.325
0
LINE
8
BLACK
6
CONTINUOUS
10
125.034
20
-214.325
11
125.039
21
-214.321
0
LINE
8
BLACK
6
CONTINUOUS
10
125.039
20
-214.321
11
125.042
21
-214.315
0
LINE
8
BLACK
6
CONTINUOUS
10
125.042
20
-214.315
11
125.06
21
-214.307
0
LINE
8
BLACK
6
CONTINUOUS
10
125.06
20
-214.307
11
125.076
21
-214.296
0
LINE
8
BLACK
6
CONTINUOUS
10
125.076
20
-214.296
11
125.082
21
-214.296
0
LINE
8
BLACK
6
CONTINUOUS
10
125.082
20
-214.296
11
125.089
21
-214.293
0
LINE
8
BLACK
6
CONTINUOUS
10
125.089
20
-214.293
11
125.107
21
-214.298
0
LINE
8
BLACK
6
CONTINUOUS
10
125.107
20
-214.298
11
125.127
21
-214.3
0
LINE
8
BLACK
6
CONTINUOUS
10
125.127
20
-214.3
11
125.131
21
-214.305
0
LINE
8
BLACK
6
CONTINUOUS
10
125.131
20
-214.305
11
125.138
21
-214.307
0
LINE
8
BLACK
6
CONTINUOUS
10
125.138
20
-214.307
11
125.149
21
-214.323
0
LINE
8
BLACK
6
CONTINUOUS
10
125.149
20
-214.323
11
125.163
21
-214.336
0
LINE
8
BLACK
6
CONTINUOUS
10
125.163
20
-214.336
11
125.164
21
-214.343
0
LINE
8
BLACK
6
CONTINUOUS
10
125.164
20
-214.343
11
125.167
21
-214.349
0
LINE
8
BLACK
6
CONTINUOUS
10
125.167
20
-214.349
11
125.281
21
-214.776
0
LINE
8
BLACK
6
CONTINUOUS
10
125.281
20
-214.776
11
125.451
21
-214.065
0
LINE
8
BLACK
6
CONTINUOUS
10
125.451
20
-214.065
11
125.461
21
-214.041
0
LINE
8
BLACK
6
CONTINUOUS
10
125.461
20
-214.041
11
125.502
21
-214.011
0
LINE
8
BLACK
6
CONTINUOUS
10
125.502
20
-214.011
11
125.553
21
-214.014
0
LINE
8
BLACK
6
CONTINUOUS
10
125.553
20
-214.014
11
125.591
21
-214.049
0
LINE
8
BLACK
6
CONTINUOUS
10
125.591
20
-214.049
11
125.597
21
-214.1
0
LINE
8
BLACK
6
CONTINUOUS
10
125.597
20
-214.1
11
125.358
21
-215.1
0
LINE
8
BLACK
6
CONTINUOUS
10
125.358
20
-215.1
11
125.348
21
-215.124
0
LINE
8
BLACK
6
CONTINUOUS
10
125.348
20
-215.124
11
125.342
21
-215.128
0
LINE
8
BLACK
6
CONTINUOUS
10
125.342
20
-215.128
11
125.338
21
-215.135
0
LINE
8
BLACK
6
CONTINUOUS
10
125.338
20
-215.135
11
125.322
21
-215.143
0
LINE
8
BLACK
6
CONTINUOUS
10
125.322
20
-215.143
11
125.307
21
-215.154
0
LINE
8
BLACK
6
CONTINUOUS
10
125.307
20
-215.154
11
125.299
21
-215.154
0
LINE
8
BLACK
6
CONTINUOUS
10
125.299
20
-215.154
11
125.292
21
-215.157
0
LINE
8
BLACK
6
CONTINUOUS
10
125.292
20
-215.157
11
125.274
21
-215.152
0
LINE
8
BLACK
6
CONTINUOUS
10
125.274
20
-215.152
11
125.256
21
-215.151
0
LINE
8
BLACK
6
CONTINUOUS
10
125.256
20
-215.151
11
125.25
21
-215.146
0
LINE
8
BLACK
6
CONTINUOUS
10
125.25
20
-215.146
11
125.242
21
-215.144
0
LINE
8
BLACK
6
CONTINUOUS
10
125.242
20
-215.144
11
125.232
21
-215.129
0
LINE
8
BLACK
6
CONTINUOUS
10
125.232
20
-215.129
11
125.218
21
-215.116
0
LINE
8
BLACK
6
CONTINUOUS
10
125.218
20
-215.116
11
125.218
21
-215.108
0
LINE
8
BLACK
6
CONTINUOUS
10
125.218
20
-215.108
11
125.213
21
-215.102
0
LINE
8
BLACK
6
CONTINUOUS
10
125.213
20
-215.102
11
125.095
21
-214.659
0
LINE
8
BLACK
6
CONTINUOUS
10
125.095
20
-214.659
11
124.977
21
-215.102
0
LINE
8
BLACK
6
CONTINUOUS
10
124.977
20
-215.102
11
124.966
21
-215.125
0
LINE
8
BLACK
6
CONTINUOUS
10
124.966
20
-215.125
11
124.96
21
-215.13
0
LINE
8
BLACK
6
CONTINUOUS
10
124.96
20
-215.13
11
124.956
21
-215.137
0
LINE
8
BLACK
6
CONTINUOUS
10
124.956
20
-215.137
11
124.939
21
-215.144
0
LINE
8
BLACK
6
CONTINUOUS
10
124.939
20
-215.144
11
124.924
21
-215.155
0
LINE
8
BLACK
6
CONTINUOUS
10
124.924
20
-215.155
11
124.916
21
-215.154
0
LINE
8
BLACK
6
CONTINUOUS
10
124.916
20
-215.154
11
124.909
21
-215.157
0
LINE
8
BLACK
6
CONTINUOUS
10
124.909
20
-215.157
11
124.891
21
-215.152
0
LINE
8
BLACK
6
CONTINUOUS
10
124.891
20
-215.152
11
124.873
21
-215.15
0
LINE
8
BLACK
6
CONTINUOUS
10
124.873
20
-215.15
11
124.867
21
-215.145
0
LINE
8
BLACK
6
CONTINUOUS
10
124.867
20
-215.145
11
124.86
21
-215.143
0
LINE
8
BLACK
6
CONTINUOUS
10
124.86
20
-215.143
11
124.85
21
-215.127
0
LINE
8
BLACK
6
CONTINUOUS
10
124.85
20
-215.127
11
124.837
21
-215.114
0
LINE
8
BLACK
6
CONTINUOUS
10
124.837
20
-215.114
11
124.836
21
-215.106
0
LINE
8
BLACK
6
CONTINUOUS
10
124.836
20
-215.106
11
124.832
21
-215.1
0
LINE
8
BLACK
6
CONTINUOUS
10
124.832
20
-215.1
11
124.593
21
-214.1
0
LINE
8
BLACK
6
CONTINUOUS
10
124.593
20
-214.1
11
124.592
21
-214.074
0
LINE
8
BLACK
6
CONTINUOUS
10
124.592
20
-214.074
11
124.615
21
-214.028
0
LINE
8
BLACK
6
CONTINUOUS
10
124.615
20
-214.028
11
124.662
21
-214.008
0
LINE
8
BLACK
6
CONTINUOUS
10
124.662
20
-214.008
11
124.711
21
-214.022
0
LINE
8
BLACK
6
CONTINUOUS
10
93.3456
20
-200.155
11
93.6741
21
-200.173
0
LINE
8
BLACK
6
CONTINUOUS
10
93.6741
20
-200.173
11
93.9999
21
-200.226
0
LINE
8
BLACK
6
CONTINUOUS
10
93.9999
20
-200.226
11
94.318
21
-200.314
0
LINE
8
BLACK
6
CONTINUOUS
10
94.318
20
-200.314
11
94.6247
21
-200.436
0
LINE
8
BLACK
6
CONTINUOUS
10
94.6247
20
-200.436
11
94.9164
21
-200.591
0
LINE
8
BLACK
6
CONTINUOUS
10
94.9164
20
-200.591
11
95.1897
21
-200.776
0
LINE
8
BLACK
6
CONTINUOUS
10
95.1897
20
-200.776
11
95.4414
21
-200.99
0
LINE
8
BLACK
6
CONTINUOUS
10
95.4414
20
-200.99
11
95.6685
21
-201.229
0
LINE
8
BLACK
6
CONTINUOUS
10
95.6685
20
-201.229
11
95.8685
21
-201.492
0
LINE
8
BLACK
6
CONTINUOUS
10
95.8685
20
-201.492
11
96.0388
21
-201.775
0
LINE
8
BLACK
6
CONTINUOUS
10
96.0388
20
-201.775
11
96.1776
21
-202.074
0
LINE
8
BLACK
6
CONTINUOUS
10
96.1776
20
-202.074
11
96.2832
21
-202.387
0
LINE
8
BLACK
6
CONTINUOUS
10
96.2832
20
-202.387
11
96.3544
21
-202.709
0
LINE
8
BLACK
6
CONTINUOUS
10
96.3544
20
-202.709
11
96.3904
21
-203.037
0
LINE
8
BLACK
6
CONTINUOUS
10
96.3904
20
-203.037
11
96.3907
21
-203.367
0
LINE
8
BLACK
6
CONTINUOUS
10
96.3907
20
-203.367
11
96.3553
21
-203.696
0
LINE
8
BLACK
6
CONTINUOUS
10
96.3553
20
-203.696
11
96.2846
21
-204.018
0
LINE
8
BLACK
6
CONTINUOUS
10
96.2846
20
-204.018
11
96.1795
21
-204.331
0
LINE
8
BLACK
6
CONTINUOUS
10
96.1795
20
-204.331
11
96.0412
21
-204.631
0
LINE
8
BLACK
6
CONTINUOUS
10
96.0412
20
-204.631
11
95.8713
21
-204.914
0
LINE
8
BLACK
6
CONTINUOUS
10
95.8713
20
-204.914
11
95.6719
21
-205.177
0
LINE
8
BLACK
6
CONTINUOUS
10
95.6719
20
-205.177
11
95.4451
21
-205.417
0
LINE
8
BLACK
6
CONTINUOUS
10
95.4451
20
-205.417
11
95.1938
21
-205.631
0
LINE
8
BLACK
6
CONTINUOUS
10
95.1938
20
-205.631
11
94.9208
21
-205.816
0
LINE
8
BLACK
6
CONTINUOUS
10
94.9208
20
-205.816
11
94.9051
21
-205.819
0
LINE
8
BLACK
6
CONTINUOUS
10
94.9051
20
-205.819
11
94.89
21
-205.825
0
LINE
8
BLACK
6
CONTINUOUS
10
94.89
20
-205.825
11
91.8
21
-205.825
0
LINE
8
BLACK
6
CONTINUOUS
10
91.8
20
-205.825
11
91.7849
21
-205.819
0
LINE
8
BLACK
6
CONTINUOUS
10
91.7849
20
-205.819
11
91.7692
21
-205.816
0
LINE
8
BLACK
6
CONTINUOUS
10
91.7692
20
-205.816
11
91.7692
21
-205.816
0
LINE
8
BLACK
6
CONTINUOUS
10
91.7692
20
-205.816
11
91.4962
21
-205.631
0
LINE
8
BLACK
6
CONTINUOUS
10
91.4962
20
-205.631
11
91.2449
21
-205.417
0
LINE
8
BLACK
6
CONTINUOUS
10
91.2449
20
-205.417
11
91.0181
21
-205.177
0
LINE
8
BLACK
6
CONTINUOUS
10
91.0181
20
-205.177
11
90.8187
21
-204.914
0
LINE
8
BLACK
6
CONTINUOUS
10
90.8187
20
-204.914
11
90.6488
21
-204.631
0
LINE
8
BLACK
6
CONTINUOUS
10
90.6488
20
-204.631
11
90.5105
21
-204.331
0
LINE
8
BLACK
6
CONTINUOUS
10
90.5105
20
-204.331
11
90.4054
21
-204.018
0
LINE
8
BLACK
6
CONTINUOUS
10
90.4054
20
-204.018
11
90.3347
21
-203.696
0
LINE
8
BLACK
6
CONTINUOUS
10
90.3347
20
-203.696
11
90.2993
21
-203.367
0
LINE
8
BLACK
6
CONTINUOUS
10
90.2993
20
-203.367
11
90.2996
21
-203.037
0
LINE
8
BLACK
6
CONTINUOUS
10
90.2996
20
-203.037
11
90.3356
21
-202.709
0
LINE
8
BLACK
6
CONTINUOUS
10
90.3356
20
-202.709
11
90.4068
21
-202.387
0
LINE
8
BLACK
6
CONTINUOUS
10
90.4068
20
-202.387
11
90.5124
21
-202.074
0
LINE
8
BLACK
6
CONTINUOUS
10
90.5124
20
-202.074
11
90.6512
21
-201.775
0
LINE
8
BLACK
6
CONTINUOUS
10
90.6512
20
-201.775
11
90.8215
21
-201.492
0
LINE
8
BLACK
6
CONTINUOUS
10
90.8215
20
-201.492
11
91.0215
21
-201.229
0
LINE
8
BLACK
6
CONTINUOUS
10
91.0215
20
-201.229
11
91.2486
21
-200.99
0
LINE
8
BLACK
6
CONTINUOUS
10
91.2486
20
-200.99
11
91.5003
21
-200.776
0
LINE
8
BLACK
6
CONTINUOUS
10
91.5003
20
-200.776
11
91.7736
21
-200.591
0
LINE
8
BLACK
6
CONTINUOUS
10
91.7736
20
-200.591
11
92.0653
21
-200.436
0
LINE
8
BLACK
6
CONTINUOUS
10
92.0653
20
-200.436
11
92.372
21
-200.314
0
LINE
8
BLACK
6
CONTINUOUS
10
92.372
20
-200.314
11
92.6901
21
-200.226
0
LINE
8
BLACK
6
CONTINUOUS
10
92.6901
20
-200.226
11
93.0159
21
-200.173
0
LINE
8
BLACK
6
CONTINUOUS
10
93.0159
20
-200.173
11
93.3444
21
-200.155
0
LINE
8
BLACK
6
CONTINUOUS
10
93.3444
20
-200.155
11
93.3445
21
-200.155
0
LINE
8
BLACK
6
CONTINUOUS
10
93.3445
20
-200.155
11
93.345
21
-200.155
0
LINE
8
BLACK
6
CONTINUOUS
10
93.345
20
-200.155
11
93.3455
21
-200.155
0
LINE
8
BLACK
6
CONTINUOUS
10
93.3455
20
-200.155
11
93.3455
21
-200.155
0
LINE
8
BLACK
6
CONTINUOUS
10
93.3455
20
-200.155
11
93.3456
21
-200.155
0
LINE
8
BLACK
6
CONTINUOUS
10
90.977
20
-203.813
11
91.0719
21
-204.105
0
LINE
8
BLACK
6
CONTINUOUS
10
91.0719
20
-204.105
11
91.2026
21
-204.383
0
LINE
8
BLACK
6
CONTINUOUS
10
91.2026
20
-204.383
11
91.3671
21
-204.642
0
LINE
8
BLACK
6
CONTINUOUS
10
91.3671
20
-204.642
11
91.5628
21
-204.879
0
LINE
8
BLACK
6
CONTINUOUS
10
91.5628
20
-204.879
11
91.7866
21
-205.089
0
LINE
8
BLACK
6
CONTINUOUS
10
91.7866
20
-205.089
11
92.035
21
-205.269
0
LINE
8
BLACK
6
CONTINUOUS
10
92.035
20
-205.269
11
92.304
21
-205.417
0
LINE
8
BLACK
6
CONTINUOUS
10
92.304
20
-205.417
11
92.5895
21
-205.53
0
LINE
8
BLACK
6
CONTINUOUS
10
92.5895
20
-205.53
11
92.8869
21
-205.607
0
LINE
8
BLACK
6
CONTINUOUS
10
92.8869
20
-205.607
11
93.1915
21
-205.645
0
LINE
8
BLACK
6
CONTINUOUS
10
93.1915
20
-205.645
11
93.4985
21
-205.645
0
LINE
8
BLACK
6
CONTINUOUS
10
93.4985
20
-205.645
11
93.8031
21
-205.607
0
LINE
8
BLACK
6
CONTINUOUS
10
93.8031
20
-205.607
11
94.1005
21
-205.53
0
LINE
8
BLACK
6
CONTINUOUS
10
94.1005
20
-205.53
11
94.386
21
-205.417
0
LINE
8
BLACK
6
CONTINUOUS
10
94.386
20
-205.417
11
94.655
21
-205.269
0
LINE
8
BLACK
6
CONTINUOUS
10
94.655
20
-205.269
11
94.9034
21
-205.089
0
LINE
8
BLACK
6
CONTINUOUS
10
94.9034
20
-205.089
11
95.1272
21
-204.879
0
LINE
8
BLACK
6
CONTINUOUS
10
95.1272
20
-204.879
11
95.3229
21
-204.642
0
LINE
8
BLACK
6
CONTINUOUS
10
95.3229
20
-204.642
11
95.4874
21
-204.383
0
LINE
8
BLACK
6
CONTINUOUS
10
95.4874
20
-204.383
11
95.6181
21
-204.105
0
LINE
8
BLACK
6
CONTINUOUS
10
95.6181
20
-204.105
11
95.713
21
-203.813
0
LINE
8
BLACK
6
CONTINUOUS
10
95.713
20
-203.813
11
95.7705
21
-203.511
0
LINE
8
BLACK
6
CONTINUOUS
10
95.7705
20
-203.511
11
95.7898
21
-203.205
0
LINE
8
BLACK
6
CONTINUOUS
10
95.7898
20
-203.205
11
95.7705
21
-202.899
0
LINE
8
BLACK
6
CONTINUOUS
10
95.7705
20
-202.899
11
95.713
21
-202.597
0
LINE
8
BLACK
6
CONTINUOUS
10
95.713
20
-202.597
11
95.6181
21
-202.305
0
LINE
8
BLACK
6
CONTINUOUS
10
95.6181
20
-202.305
11
95.4874
21
-202.027
0
LINE
8
BLACK
6
CONTINUOUS
10
95.4874
20
-202.027
11
95.3229
21
-201.768
0
LINE
8
BLACK
6
CONTINUOUS
10
95.3229
20
-201.768
11
95.1272
21
-201.531
0
LINE
8
BLACK
6
CONTINUOUS
10
95.1272
20
-201.531
11
94.9034
21
-201.321
0
LINE
8
BLACK
6
CONTINUOUS
10
94.9034
20
-201.321
11
94.655
21
-201.141
0
LINE
8
BLACK
6
CONTINUOUS
10
94.655
20
-201.141
11
94.386
21
-200.993
0
LINE
8
BLACK
6
CONTINUOUS
10
94.386
20
-200.993
11
94.1005
21
-200.88
0
LINE
8
BLACK
6
CONTINUOUS
10
94.1005
20
-200.88
11
93.8031
21
-200.803
0
LINE
8
BLACK
6
CONTINUOUS
10
93.8031
20
-200.803
11
93.4985
21
-200.765
0
LINE
8
BLACK
6
CONTINUOUS
10
93.4985
20
-200.765
11
93.1915
21
-200.765
0
LINE
8
BLACK
6
CONTINUOUS
10
93.1915
20
-200.765
11
92.8869
21
-200.803
0
LINE
8
BLACK
6
CONTINUOUS
10
92.8869
20
-200.803
11
92.5895
21
-200.88
0
LINE
8
BLACK
6
CONTINUOUS
10
92.5895
20
-200.88
11
92.304
21
-200.993
0
LINE
8
BLACK
6
CONTINUOUS
10
92.304
20
-200.993
11
92.035
21
-201.141
0
LINE
8
BLACK
6
CONTINUOUS
10
92.035
20
-201.141
11
91.7866
21
-201.321
0
LINE
8
BLACK
6
CONTINUOUS
10
91.7866
20
-201.321
11
91.5628
21
-201.531
0
LINE
8
BLACK
6
CONTINUOUS
10
91.5628
20
-201.531
11
91.3671
21
-201.768
0
LINE
8
BLACK
6
CONTINUOUS
10
91.3671
20
-201.768
11
91.2026
21
-202.027
0
LINE
8
BLACK
6
CONTINUOUS
10
91.2026
20
-202.027
11
91.0719
21
-202.305
0
LINE
8
BLACK
6
CONTINUOUS
10
91.0719
20
-202.305
11
90.977
21
-202.597
0
LINE
8
BLACK
6
CONTINUOUS
10
90.977
20
-202.597
11
90.9195
21
-202.899
0
LINE
8
BLACK
6
CONTINUOUS
10
90.9195
20
-202.899
11
90.9002
21
-203.205
0
LINE
8
BLACK
6
CONTINUOUS
10
90.9002
20
-203.205
11
90.9195
21
-203.511
0
LINE
8
BLACK
6
CONTINUOUS
10
90.9195
20
-203.511
11
90.977
21
-203.813
0
LINE
8
BLACK
6
CONTINUOUS
10
90.8654
20
-202.568
11
90.9648
21
-202.263
0
LINE
8
BLACK
6
CONTINUOUS
10
90.9648
20
-202.263
11
91.1017
21
-201.972
0
LINE
8
BLACK
6
CONTINUOUS
10
91.1017
20
-201.972
11
91.2739
21
-201.7
0
LINE
8
BLACK
6
CONTINUOUS
10
91.2739
20
-201.7
11
91.4788
21
-201.453
0
LINE
8
BLACK
6
CONTINUOUS
10
91.4788
20
-201.453
11
91.7132
21
-201.232
0
LINE
8
BLACK
6
CONTINUOUS
10
91.7132
20
-201.232
11
91.9733
21
-201.044
0
LINE
8
BLACK
6
CONTINUOUS
10
91.9733
20
-201.044
11
92.255
21
-200.889
0
LINE
8
BLACK
6
CONTINUOUS
10
92.255
20
-200.889
11
92.5539
21
-200.77
0
LINE
8
BLACK
6
CONTINUOUS
10
92.5539
20
-200.77
11
92.8653
21
-200.69
0
LINE
8
BLACK
6
CONTINUOUS
10
92.8653
20
-200.69
11
93.1843
21
-200.65
0
LINE
8
BLACK
6
CONTINUOUS
10
93.1843
20
-200.65
11
93.5057
21
-200.65
0
LINE
8
BLACK
6
CONTINUOUS
10
93.5057
20
-200.65
11
93.8247
21
-200.69
0
LINE
8
BLACK
6
CONTINUOUS
10
93.8247
20
-200.69
11
94.1361
21
-200.77
0
LINE
8
BLACK
6
CONTINUOUS
10
94.1361
20
-200.77
11
94.435
21
-200.889
0
LINE
8
BLACK
6
CONTINUOUS
10
94.435
20
-200.889
11
94.7167
21
-201.044
0
LINE
8
BLACK
6
CONTINUOUS
10
94.7167
20
-201.044
11
94.9768
21
-201.232
0
LINE
8
BLACK
6
CONTINUOUS
10
94.9768
20
-201.232
11
95.2112
21
-201.453
0
LINE
8
BLACK
6
CONTINUOUS
10
95.2112
20
-201.453
11
95.4161
21
-201.7
0
LINE
8
BLACK
6
CONTINUOUS
10
95.4161
20
-201.7
11
95.5883
21
-201.972
0
LINE
8
BLACK
6
CONTINUOUS
10
95.5883
20
-201.972
11
95.7252
21
-202.263
0
LINE
8
BLACK
6
CONTINUOUS
10
95.7252
20
-202.263
11
95.8246
21
-202.568
0
LINE
8
BLACK
6
CONTINUOUS
10
95.8246
20
-202.568
11
95.8848
21
-202.884
0
LINE
8
BLACK
6
CONTINUOUS
10
95.8848
20
-202.884
11
95.905
21
-203.205
0
LINE
8
BLACK
6
CONTINUOUS
10
95.905
20
-203.205
11
95.8848
21
-203.526
0
LINE
8
BLACK
6
CONTINUOUS
10
95.8848
20
-203.526
11
95.8246
21
-203.842
0
LINE
8
BLACK
6
CONTINUOUS
10
95.8246
20
-203.842
11
95.7252
21
-204.147
0
LINE
8
BLACK
6
CONTINUOUS
10
95.7252
20
-204.147
11
95.5883
21
-204.438
0
LINE
8
BLACK
6
CONTINUOUS
10
95.5883
20
-204.438
11
95.4161
21
-204.71
0
LINE
8
BLACK
6
CONTINUOUS
10
95.4161
20
-204.71
11
95.2112
21
-204.957
0
LINE
8
BLACK
6
CONTINUOUS
10
95.2112
20
-204.957
11
94.9768
21
-205.178
0
LINE
8
BLACK
6
CONTINUOUS
10
94.9768
20
-205.178
11
94.7167
21
-205.366
0
LINE
8
BLACK
6
CONTINUOUS
10
94.7167
20
-205.366
11
94.435
21
-205.521
0
LINE
8
BLACK
6
CONTINUOUS
10
94.435
20
-205.521
11
94.1361
21
-205.64
0
LINE
8
BLACK
6
CONTINUOUS
10
94.1361
20
-205.64
11
93.8818
21
-205.705
0
LINE
8
BLACK
6
CONTINUOUS
10
93.8818
20
-205.705
11
94.8796
21
-205.705
0
LINE
8
BLACK
6
CONTINUOUS
10
94.8796
20
-205.705
11
95.1348
21
-205.531
0
LINE
8
BLACK
6
CONTINUOUS
10
95.1348
20
-205.531
11
95.3856
21
-205.314
0
LINE
8
BLACK
6
CONTINUOUS
10
95.3856
20
-205.314
11
95.6104
21
-205.07
0
LINE
8
BLACK
6
CONTINUOUS
10
95.6104
20
-205.07
11
95.8063
21
-204.803
0
LINE
8
BLACK
6
CONTINUOUS
10
95.8063
20
-204.803
11
95.9708
21
-204.515
0
LINE
8
BLACK
6
CONTINUOUS
10
95.9708
20
-204.515
11
96.1018
21
-204.211
0
LINE
8
BLACK
6
CONTINUOUS
10
96.1018
20
-204.211
11
96.1976
21
-203.894
0
LINE
8
BLACK
6
CONTINUOUS
10
96.1976
20
-203.894
11
96.2571
21
-203.568
0
LINE
8
BLACK
6
CONTINUOUS
10
96.2571
20
-203.568
11
96.2794
21
-203.237
0
LINE
8
BLACK
6
CONTINUOUS
10
96.2794
20
-203.237
11
96.2643
21
-202.906
0
LINE
8
BLACK
6
CONTINUOUS
10
96.2643
20
-202.906
11
96.212
21
-202.579
0
LINE
8
BLACK
6
CONTINUOUS
10
96.212
20
-202.579
11
96.1231
21
-202.259
0
LINE
8
BLACK
6
CONTINUOUS
10
96.1231
20
-202.259
11
95.9988
21
-201.952
0
LINE
8
BLACK
6
CONTINUOUS
10
95.9988
20
-201.952
11
95.8406
21
-201.661
0
LINE
8
BLACK
6
CONTINUOUS
10
95.8406
20
-201.661
11
95.6506
21
-201.39
0
LINE
8
BLACK
6
CONTINUOUS
10
95.6506
20
-201.39
11
95.4312
21
-201.141
0
LINE
8
BLACK
6
CONTINUOUS
10
95.4312
20
-201.141
11
95.1852
21
-200.919
0
LINE
8
BLACK
6
CONTINUOUS
10
95.1852
20
-200.919
11
94.9157
21
-200.726
0
LINE
8
BLACK
6
CONTINUOUS
10
94.9157
20
-200.726
11
94.6262
21
-200.565
0
LINE
8
BLACK
6
CONTINUOUS
10
94.6262
20
-200.565
11
94.3204
21
-200.437
0
LINE
8
BLACK
6
CONTINUOUS
10
94.3204
20
-200.437
11
94.0021
21
-200.345
0
LINE
8
BLACK
6
CONTINUOUS
10
94.0021
20
-200.345
11
93.6754
21
-200.289
0
LINE
8
BLACK
6
CONTINUOUS
10
93.6754
20
-200.289
11
93.3552
21
-200.271
0
LINE
8
BLACK
6
CONTINUOUS
10
93.3552
20
-200.271
11
93.3455
21
-200.275
0
LINE
8
BLACK
6
CONTINUOUS
10
93.3455
20
-200.275
11
93.345
21
-200.275
0
LINE
8
BLACK
6
CONTINUOUS
10
93.345
20
-200.275
11
93.3445
21
-200.275
0
LINE
8
BLACK
6
CONTINUOUS
10
93.3445
20
-200.275
11
93.3348
21
-200.271
0
LINE
8
BLACK
6
CONTINUOUS
10
93.3348
20
-200.271
11
93.0146
21
-200.289
0
LINE
8
BLACK
6
CONTINUOUS
10
93.0146
20
-200.289
11
92.6879
21
-200.345
0
LINE
8
BLACK
6
CONTINUOUS
10
92.6879
20
-200.345
11
92.3696
21
-200.437
0
LINE
8
BLACK
6
CONTINUOUS
10
92.3696
20
-200.437
11
92.0638
21
-200.565
0
LINE
8
BLACK
6
CONTINUOUS
10
92.0638
20
-200.565
11
91.7743
21
-200.726
0
LINE
8
BLACK
6
CONTINUOUS
10
91.7743
20
-200.726
11
91.5048
21
-200.919
0
LINE
8
BLACK
6
CONTINUOUS
10
91.5048
20
-200.919
11
91.2588
21
-201.141
0
LINE
8
BLACK
6
CONTINUOUS
10
91.2588
20
-201.141
11
91.0394
21
-201.39
0
LINE
8
BLACK
6
CONTINUOUS
10
91.0394
20
-201.39
11
90.8494
21
-201.661
0
LINE
8
BLACK
6
CONTINUOUS
10
90.8494
20
-201.661
11
90.6912
21
-201.952
0
LINE
8
BLACK
6
CONTINUOUS
10
90.6912
20
-201.952
11
90.5669
21
-202.259
0
LINE
8
BLACK
6
CONTINUOUS
10
90.5669
20
-202.259
11
90.478
21
-202.579
0
LINE
8
BLACK
6
CONTINUOUS
10
90.478
20
-202.579
11
90.4257
21
-202.906
0
LINE
8
BLACK
6
CONTINUOUS
10
90.4257
20
-202.906
11
90.4106
21
-203.237
0
LINE
8
BLACK
6
CONTINUOUS
10
90.4106
20
-203.237
11
90.4329
21
-203.568
0
LINE
8
BLACK
6
CONTINUOUS
10
90.4329
20
-203.568
11
90.4924
21
-203.894
0
LINE
8
BLACK
6
CONTINUOUS
10
90.4924
20
-203.894
11
90.5882
21
-204.211
0
LINE
8
BLACK
6
CONTINUOUS
10
90.5882
20
-204.211
11
90.7192
21
-204.515
0
LINE
8
BLACK
6
CONTINUOUS
10
90.7192
20
-204.515
11
90.8837
21
-204.803
0
LINE
8
BLACK
6
CONTINUOUS
10
90.8837
20
-204.803
11
91.0796
21
-205.07
0
LINE
8
BLACK
6
CONTINUOUS
10
91.0796
20
-205.07
11
91.3044
21
-205.314
0
LINE
8
BLACK
6
CONTINUOUS
10
91.3044
20
-205.314
11
91.5552
21
-205.531
0
LINE
8
BLACK
6
CONTINUOUS
10
91.5552
20
-205.531
11
91.8104
21
-205.705
0
LINE
8
BLACK
6
CONTINUOUS
10
91.8104
20
-205.705
11
92.8082
21
-205.705
0
LINE
8
BLACK
6
CONTINUOUS
10
92.8082
20
-205.705
11
92.5539
21
-205.64
0
LINE
8
BLACK
6
CONTINUOUS
10
92.5539
20
-205.64
11
92.255
21
-205.521
0
LINE
8
BLACK
6
CONTINUOUS
10
92.255
20
-205.521
11
91.9733
21
-205.366
0
LINE
8
BLACK
6
CONTINUOUS
10
91.9733
20
-205.366
11
91.7132
21
-205.178
0
LINE
8
BLACK
6
CONTINUOUS
10
91.7132
20
-205.178
11
91.4788
21
-204.957
0
LINE
8
BLACK
6
CONTINUOUS
10
91.4788
20
-204.957
11
91.2739
21
-204.71
0
LINE
8
BLACK
6
CONTINUOUS
10
91.2739
20
-204.71
11
91.1017
21
-204.438
0
LINE
8
BLACK
6
CONTINUOUS
10
91.1017
20
-204.438
11
90.9648
21
-204.147
0
LINE
8
BLACK
6
CONTINUOUS
10
90.9648
20
-204.147
11
90.8654
21
-203.842
0
LINE
8
BLACK
6
CONTINUOUS
10
90.8654
20
-203.842
11
90.8052
21
-203.526
0
LINE
8
BLACK
6
CONTINUOUS
10
90.8052
20
-203.526
11
90.785
21
-203.205
0
LINE
8
BLACK
6
CONTINUOUS
10
90.785
20
-203.205
11
90.8052
21
-202.884
0
LINE
8
BLACK
6
CONTINUOUS
10
90.8052
20
-202.884
11
90.8654
21
-202.568
0
LINE
8
BLACK
6
CONTINUOUS
10
125.096
20
-200.155
11
125.424
21
-200.173
0
LINE
8
BLACK
6
CONTINUOUS
10
125.424
20
-200.173
11
125.75
21
-200.226
0
LINE
8
BLACK
6
CONTINUOUS
10
125.75
20
-200.226
11
126.068
21
-200.314
0
LINE
8
BLACK
6
CONTINUOUS
10
126.068
20
-200.314
11
126.375
21
-200.436
0
LINE
8
BLACK
6
CONTINUOUS
10
126.375
20
-200.436
11
126.666
21
-200.591
0
LINE
8
BLACK
6
CONTINUOUS
10
126.666
20
-200.591
11
126.94
21
-200.776
0
LINE
8
BLACK
6
CONTINUOUS
10
126.94
20
-200.776
11
127.191
21
-200.99
0
LINE
8
BLACK
6
CONTINUOUS
10
127.191
20
-200.99
11
127.419
21
-201.229
0
LINE
8
BLACK
6
CONTINUOUS
10
127.419
20
-201.229
11
127.618
21
-201.492
0
LINE
8
BLACK
6
CONTINUOUS
10
127.618
20
-201.492
11
127.789
21
-201.775
0
LINE
8
BLACK
6
CONTINUOUS
10
127.789
20
-201.775
11
127.928
21
-202.074
0
LINE
8
BLACK
6
CONTINUOUS
10
127.928
20
-202.074
11
128.033
21
-202.387
0
LINE
8
BLACK
6
CONTINUOUS
10
128.033
20
-202.387
11
128.104
21
-202.709
0
LINE
8
BLACK
6
CONTINUOUS
10
128.104
20
-202.709
11
128.14
21
-203.037
0
LINE
8
BLACK
6
CONTINUOUS
10
128.14
20
-203.037
11
128.141
21
-203.367
0
LINE
8
BLACK
6
CONTINUOUS
10
128.141
20
-203.367
11
128.105
21
-203.696
0
LINE
8
BLACK
6
CONTINUOUS
10
128.105
20
-203.696
11
128.035
21
-204.018
0
LINE
8
BLACK
6
CONTINUOUS
10
128.035
20
-204.018
11
127.93
21
-204.331
0
LINE
8
BLACK
6
CONTINUOUS
10
127.93
20
-204.331
11
127.791
21
-204.631
0
LINE
8
BLACK
6
CONTINUOUS
10
127.791
20
-204.631
11
127.621
21
-204.914
0
LINE
8
BLACK
6
CONTINUOUS
10
127.621
20
-204.914
11
127.422
21
-205.177
0
LINE
8
BLACK
6
CONTINUOUS
10
127.422
20
-205.177
11
127.195
21
-205.417
0
LINE
8
BLACK
6
CONTINUOUS
10
127.195
20
-205.417
11
126.944
21
-205.631
0
LINE
8
BLACK
6
CONTINUOUS
10
126.944
20
-205.631
11
126.671
21
-205.816
0
LINE
8
BLACK
6
CONTINUOUS
10
126.671
20
-205.816
11
126.655
21
-205.819
0
LINE
8
BLACK
6
CONTINUOUS
10
126.655
20
-205.819
11
126.64
21
-205.825
0
LINE
8
BLACK
6
CONTINUOUS
10
126.64
20
-205.825
11
123.55
21
-205.825
0
LINE
8
BLACK
6
CONTINUOUS
10
123.55
20
-205.825
11
123.535
21
-205.819
0
LINE
8
BLACK
6
CONTINUOUS
10
123.535
20
-205.819
11
123.519
21
-205.816
0
LINE
8
BLACK
6
CONTINUOUS
10
123.519
20
-205.816
11
123.519
21
-205.816
0
LINE
8
BLACK
6
CONTINUOUS
10
123.519
20
-205.816
11
123.246
21
-205.631
0
LINE
8
BLACK
6
CONTINUOUS
10
123.246
20
-205.631
11
122.995
21
-205.417
0
LINE
8
BLACK
6
CONTINUOUS
10
122.995
20
-205.417
11
122.768
21
-205.177
0
LINE
8
BLACK
6
CONTINUOUS
10
122.768
20
-205.177
11
122.569
21
-204.914
0
LINE
8
BLACK
6
CONTINUOUS
10
122.569
20
-204.914
11
122.399
21
-204.631
0
LINE
8
BLACK
6
CONTINUOUS
10
122.399
20
-204.631
11
122.26
21
-204.331
0
LINE
8
BLACK
6
CONTINUOUS
10
122.26
20
-204.331
11
122.155
21
-204.018
0
LINE
8
BLACK
6
CONTINUOUS
10
122.155
20
-204.018
11
122.085
21
-203.696
0
LINE
8
BLACK
6
CONTINUOUS
10
122.085
20
-203.696
11
122.049
21
-203.367
0
LINE
8
BLACK
6
CONTINUOUS
10
122.049
20
-203.367
11
122.05
21
-203.037
0
LINE
8
BLACK
6
CONTINUOUS
10
122.05
20
-203.037
11
122.086
21
-202.709
0
LINE
8
BLACK
6
CONTINUOUS
10
122.086
20
-202.709
11
122.157
21
-202.387
0
LINE
8
BLACK
6
CONTINUOUS
10
122.157
20
-202.387
11
122.262
21
-202.074
0
LINE
8
BLACK
6
CONTINUOUS
10
122.262
20
-202.074
11
122.401
21
-201.775
0
LINE
8
BLACK
6
CONTINUOUS
10
122.401
20
-201.775
11
122.572
21
-201.492
0
LINE
8
BLACK
6
CONTINUOUS
10
122.572
20
-201.492
11
122.771
21
-201.229
0
LINE
8
BLACK
6
CONTINUOUS
10
122.771
20
-201.229
11
122.999
21
-200.99
0
LINE
8
BLACK
6
CONTINUOUS
10
122.999
20
-200.99
11
123.25
21
-200.776
0
LINE
8
BLACK
6
CONTINUOUS
10
123.25
20
-200.776
11
123.524
21
-200.591
0
LINE
8
BLACK
6
CONTINUOUS
10
123.524
20
-200.591
11
123.815
21
-200.436
0
LINE
8
BLACK
6
CONTINUOUS
10
123.815
20
-200.436
11
124.122
21
-200.314
0
LINE
8
BLACK
6
CONTINUOUS
10
124.122
20
-200.314
11
124.44
21
-200.226
0
LINE
8
BLACK
6
CONTINUOUS
10
124.44
20
-200.226
11
124.766
21
-200.173
0
LINE
8
BLACK
6
CONTINUOUS
10
124.766
20
-200.173
11
125.094
21
-200.155
0
LINE
8
BLACK
6
CONTINUOUS
10
125.094
20
-200.155
11
125.095
21
-200.155
0
LINE
8
BLACK
6
CONTINUOUS
10
125.095
20
-200.155
11
125.095
21
-200.155
0
LINE
8
BLACK
6
CONTINUOUS
10
125.095
20
-200.155
11
125.095
21
-200.155
0
LINE
8
BLACK
6
CONTINUOUS
10
125.095
20
-200.155
11
125.095
21
-200.155
0
LINE
8
BLACK
6
CONTINUOUS
10
125.095
20
-200.155
11
125.096
21
-200.155
0
LINE
8
BLACK
6
CONTINUOUS
10
122.727
20
-203.813
11
122.822
21
-204.105
0
LINE
8
BLACK
6
CONTINUOUS
10
122.822
20
-204.105
11
122.953
21
-204.383
0
LINE
8
BLACK
6
CONTINUOUS
10
122.953
20
-204.383
11
123.117
21
-204.642
0
LINE
8
BLACK
6
CONTINUOUS
10
123.117
20
-204.642
11
123.313
21
-204.879
0
LINE
8
BLACK
6
CONTINUOUS
10
123.313
20
-204.879
11
123.537
21
-205.089
0
LINE
8
BLACK
6
CONTINUOUS
10
123.537
20
-205.089
11
123.785
21
-205.269
0
LINE
8
BLACK
6
CONTINUOUS
10
123.785
20
-205.269
11
124.054
21
-205.417
0
LINE
8
BLACK
6
CONTINUOUS
10
124.054
20
-205.417
11
124.34
21
-205.53
0
LINE
8
BLACK
6
CONTINUOUS
10
124.34
20
-205.53
11
124.637
21
-205.607
0
LINE
8
BLACK
6
CONTINUOUS
10
124.637
20
-205.607
11
124.941
21
-205.645
0
LINE
8
BLACK
6
CONTINUOUS
10
124.941
20
-205.645
11
125.249
21
-205.645
0
LINE
8
BLACK
6
CONTINUOUS
10
125.249
20
-205.645
11
125.553
21
-205.607
0
LINE
8
BLACK
6
CONTINUOUS
10
125.553
20
-205.607
11
125.85
21
-205.53
0
LINE
8
BLACK
6
CONTINUOUS
10
125.85
20
-205.53
11
126.136
21
-205.417
0
LINE
8
BLACK
6
CONTINUOUS
10
126.136
20
-205.417
11
126.405
21
-205.269
0
LINE
8
BLACK
6
CONTINUOUS
10
126.405
20
-205.269
11
126.653
21
-205.089
0
LINE
8
BLACK
6
CONTINUOUS
10
126.653
20
-205.089
11
126.877
21
-204.879
0
LINE
8
BLACK
6
CONTINUOUS
10
126.877
20
-204.879
11
127.073
21
-204.642
0
LINE
8
BLACK
6
CONTINUOUS
10
127.073
20
-204.642
11
127.237
21
-204.383
0
LINE
8
BLACK
6
CONTINUOUS
10
127.237
20
-204.383
11
127.368
21
-204.105
0
LINE
8
BLACK
6
CONTINUOUS
10
127.368
20
-204.105
11
127.463
21
-203.813
0
LINE
8
BLACK
6
CONTINUOUS
10
127.463
20
-203.813
11
127.521
21
-203.511
0
LINE
8
BLACK
6
CONTINUOUS
10
127.521
20
-203.511
11
127.54
21
-203.205
0
LINE
8
BLACK
6
CONTINUOUS
10
127.54
20
-203.205
11
127.521
21
-202.899
0
LINE
8
BLACK
6
CONTINUOUS
10
127.521
20
-202.899
11
127.463
21
-202.597
0
LINE
8
BLACK
6
CONTINUOUS
10
127.463
20
-202.597
11
127.368
21
-202.305
0
LINE
8
BLACK
6
CONTINUOUS
10
127.368
20
-202.305
11
127.237
21
-202.027
0
LINE
8
BLACK
6
CONTINUOUS
10
127.237
20
-202.027
11
127.073
21
-201.768
0
LINE
8
BLACK
6
CONTINUOUS
10
127.073
20
-201.768
11
126.877
21
-201.531
0
LINE
8
BLACK
6
CONTINUOUS
10
126.877
20
-201.531
11
126.653
21
-201.321
0
LINE
8
BLACK
6
CONTINUOUS
10
126.653
20
-201.321
11
126.405
21
-201.141
0
LINE
8
BLACK
6
CONTINUOUS
10
126.405
20
-201.141
11
126.136
21
-200.993
0
LINE
8
BLACK
6
CONTINUOUS
10
126.136
20
-200.993
11
125.85
21
-200.88
0
LINE
8
BLACK
6
CONTINUOUS
10
125.85
20
-200.88
11
125.553
21
-200.803
0
LINE
8
BLACK
6
CONTINUOUS
10
125.553
20
-200.803
11
125.249
21
-200.765
0
LINE
8
BLACK
6
CONTINUOUS
10
125.249
20
-200.765
11
124.941
21
-200.765
0
LINE
8
BLACK
6
CONTINUOUS
10
124.941
20
-200.765
11
124.637
21
-200.803
0
LINE
8
BLACK
6
CONTINUOUS
10
124.637
20
-200.803
11
124.34
21
-200.88
0
LINE
8
BLACK
6
CONTINUOUS
10
124.34
20
-200.88
11
124.054
21
-200.993
0
LINE
8
BLACK
6
CONTINUOUS
10
124.054
20
-200.993
11
123.785
21
-201.141
0
LINE
8
BLACK
6
CONTINUOUS
10
123.785
20
-201.141
11
123.537
21
-201.321
0
LINE
8
BLACK
6
CONTINUOUS
10
123.537
20
-201.321
11
123.313
21
-201.531
0
LINE
8
BLACK
6
CONTINUOUS
10
123.313
20
-201.531
11
123.117
21
-201.768
0
LINE
8
BLACK
6
CONTINUOUS
10
123.117
20
-201.768
11
122.953
21
-202.027
0
LINE
8
BLACK
6
CONTINUOUS
10
122.953
20
-202.027
11
122.822
21
-202.305
0
LINE
8
BLACK
6
CONTINUOUS
10
122.822
20
-202.305
11
122.727
21
-202.597
0
LINE
8
BLACK
6
CONTINUOUS
10
122.727
20
-202.597
11
122.669
21
-202.899
0
LINE
8
BLACK
6
CONTINUOUS
10
122.669
20
-202.899
11
122.65
21
-203.205
0
LINE
8
BLACK
6
CONTINUOUS
10
122.65
20
-203.205
11
122.669
21
-203.511
0
LINE
8
BLACK
6
CONTINUOUS
10
122.669
20
-203.511
11
122.727
21
-203.813
0
LINE
8
BLACK
6
CONTINUOUS
10
122.615
20
-202.568
11
122.715
21
-202.263
0
LINE
8
BLACK
6
CONTINUOUS
10
122.715
20
-202.263
11
122.852
21
-201.972
0
LINE
8
BLACK
6
CONTINUOUS
10
122.852
20
-201.972
11
123.024
21
-201.7
0
LINE
8
BLACK
6
CONTINUOUS
10
123.024
20
-201.7
11
123.229
21
-201.453
0
LINE
8
BLACK
6
CONTINUOUS
10
123.229
20
-201.453
11
123.463
21
-201.232
0
LINE
8
BLACK
6
CONTINUOUS
10
123.463
20
-201.232
11
123.723
21
-201.044
0
LINE
8
BLACK
6
CONTINUOUS
10
123.723
20
-201.044
11
124.005
21
-200.889
0
LINE
8
BLACK
6
CONTINUOUS
10
124.005
20
-200.889
11
124.304
21
-200.77
0
LINE
8
BLACK
6
CONTINUOUS
10
124.304
20
-200.77
11
124.615
21
-200.69
0
LINE
8
BLACK
6
CONTINUOUS
10
124.615
20
-200.69
11
124.934
21
-200.65
0
LINE
8
BLACK
6
CONTINUOUS
10
124.934
20
-200.65
11
125.256
21
-200.65
0
LINE
8
BLACK
6
CONTINUOUS
10
125.256
20
-200.65
11
125.575
21
-200.69
0
LINE
8
BLACK
6
CONTINUOUS
10
125.575
20
-200.69
11
125.886
21
-200.77
0
LINE
8
BLACK
6
CONTINUOUS
10
125.886
20
-200.77
11
126.185
21
-200.889
0
LINE
8
BLACK
6
CONTINUOUS
10
126.185
20
-200.889
11
126.467
21
-201.044
0
LINE
8
BLACK
6
CONTINUOUS
10
126.467
20
-201.044
11
126.727
21
-201.232
0
LINE
8
BLACK
6
CONTINUOUS
10
126.727
20
-201.232
11
126.961
21
-201.453
0
LINE
8
BLACK
6
CONTINUOUS
10
126.961
20
-201.453
11
127.166
21
-201.7
0
LINE
8
BLACK
6
CONTINUOUS
10
127.166
20
-201.7
11
127.338
21
-201.972
0
LINE
8
BLACK
6
CONTINUOUS
10
127.338
20
-201.972
11
127.475
21
-202.263
0
LINE
8
BLACK
6
CONTINUOUS
10
127.475
20
-202.263
11
127.575
21
-202.568
0
LINE
8
BLACK
6
CONTINUOUS
10
127.575
20
-202.568
11
127.635
21
-202.884
0
LINE
8
BLACK
6
CONTINUOUS
10
127.635
20
-202.884
11
127.655
21
-203.205
0
LINE
8
BLACK
6
CONTINUOUS
10
127.655
20
-203.205
11
127.635
21
-203.526
0
LINE
8
BLACK
6
CONTINUOUS
10
127.635
20
-203.526
11
127.575
21
-203.842
0
LINE
8
BLACK
6
CONTINUOUS
10
127.575
20
-203.842
11
127.475
21
-204.147
0
LINE
8
BLACK
6
CONTINUOUS
10
127.475
20
-204.147
11
127.338
21
-204.438
0
LINE
8
BLACK
6
CONTINUOUS
10
127.338
20
-204.438
11
127.166
21
-204.71
0
LINE
8
BLACK
6
CONTINUOUS
10
127.166
20
-204.71
11
126.961
21
-204.957
0
LINE
8
BLACK
6
CONTINUOUS
10
126.961
20
-204.957
11
126.727
21
-205.178
0
LINE
8
BLACK
6
CONTINUOUS
10
126.727
20
-205.178
11
126.467
21
-205.366
0
LINE
8
BLACK
6
CONTINUOUS
10
126.467
20
-205.366
11
126.185
21
-205.521
0
LINE
8
BLACK
6
CONTINUOUS
10
126.185
20
-205.521
11
125.886
21
-205.64
0
LINE
8
BLACK
6
CONTINUOUS
10
125.886
20
-205.64
11
125.632
21
-205.705
0
LINE
8
BLACK
6
CONTINUOUS
10
125.632
20
-205.705
11
126.63
21
-205.705
0
LINE
8
BLACK
6
CONTINUOUS
10
126.63
20
-205.705
11
126.885
21
-205.531
0
LINE
8
BLACK
6
CONTINUOUS
10
126.885
20
-205.531
11
127.136
21
-205.314
0
LINE
8
BLACK
6
CONTINUOUS
10
127.136
20
-205.314
11
127.36
21
-205.07
0
LINE
8
BLACK
6
CONTINUOUS
10
127.36
20
-205.07
11
127.556
21
-204.803
0
LINE
8
BLACK
6
CONTINUOUS
10
127.556
20
-204.803
11
127.721
21
-204.515
0
LINE
8
BLACK
6
CONTINUOUS
10
127.721
20
-204.515
11
127.852
21
-204.211
0
LINE
8
BLACK
6
CONTINUOUS
10
127.852
20
-204.211
11
127.948
21
-203.894
0
LINE
8
BLACK
6
CONTINUOUS
10
127.948
20
-203.894
11
128.007
21
-203.568
0
LINE
8
BLACK
6
CONTINUOUS
10
128.007
20
-203.568
11
128.029
21
-203.237
0
LINE
8
BLACK
6
CONTINUOUS
10
128.029
20
-203.237
11
128.014
21
-202.906
0
LINE
8
BLACK
6
CONTINUOUS
10
128.014
20
-202.906
11
127.962
21
-202.579
0
LINE
8
BLACK
6
CONTINUOUS
10
127.962
20
-202.579
11
127.873
21
-202.259
0
LINE
8
BLACK
6
CONTINUOUS
10
127.873
20
-202.259
11
127.749
21
-201.952
0
LINE
8
BLACK
6
CONTINUOUS
10
127.749
20
-201.952
11
127.591
21
-201.661
0
LINE
8
BLACK
6
CONTINUOUS
10
127.591
20
-201.661
11
127.401
21
-201.39
0
LINE
8
BLACK
6
CONTINUOUS
10
127.401
20
-201.39
11
127.181
21
-201.141
0
LINE
8
BLACK
6
CONTINUOUS
10
127.181
20
-201.141
11
126.935
21
-200.919
0
LINE
8
BLACK
6
CONTINUOUS
10
126.935
20
-200.919
11
126.666
21
-200.726
0
LINE
8
BLACK
6
CONTINUOUS
10
126.666
20
-200.726
11
126.376
21
-200.565
0
LINE
8
BLACK
6
CONTINUOUS
10
126.376
20
-200.565
11
126.07
21
-200.437
0
LINE
8
BLACK
6
CONTINUOUS
10
126.07
20
-200.437
11
125.752
21
-200.345
0
LINE
8
BLACK
6
CONTINUOUS
10
125.752
20
-200.345
11
125.425
21
-200.289
0
LINE
8
BLACK
6
CONTINUOUS
10
125.425
20
-200.289
11
125.105
21
-200.271
0
LINE
8
BLACK
6
CONTINUOUS
10
125.105
20
-200.271
11
125.095
21
-200.275
0
LINE
8
BLACK
6
CONTINUOUS
10
125.095
20
-200.275
11
125.095
21
-200.275
0
LINE
8
BLACK
6
CONTINUOUS
10
125.095
20
-200.275
11
125.095
21
-200.275
0
LINE
8
BLACK
6
CONTINUOUS
10
125.095
20
-200.275
11
125.085
21
-200.271
0
LINE
8
BLACK
6
CONTINUOUS
10
125.085
20
-200.271
11
124.765
21
-200.289
0
LINE
8
BLACK
6
CONTINUOUS
10
124.765
20
-200.289
11
124.438
21
-200.345
0
LINE
8
BLACK
6
CONTINUOUS
10
124.438
20
-200.345
11
124.12
21
-200.437
0
LINE
8
BLACK
6
CONTINUOUS
10
124.12
20
-200.437
11
123.814
21
-200.565
0
LINE
8
BLACK
6
CONTINUOUS
10
123.814
20
-200.565
11
123.524
21
-200.726
0
LINE
8
BLACK
6
CONTINUOUS
10
123.524
20
-200.726
11
123.255
21
-200.919
0
LINE
8
BLACK
6
CONTINUOUS
10
123.255
20
-200.919
11
123.009
21
-201.141
0
LINE
8
BLACK
6
CONTINUOUS
10
123.009
20
-201.141
11
122.789
21
-201.39
0
LINE
8
BLACK
6
CONTINUOUS
10
122.789
20
-201.39
11
122.599
21
-201.661
0
LINE
8
BLACK
6
CONTINUOUS
10
122.599
20
-201.661
11
122.441
21
-201.952
0
LINE
8
BLACK
6
CONTINUOUS
10
122.441
20
-201.952
11
122.317
21
-202.259
0
LINE
8
BLACK
6
CONTINUOUS
10
122.317
20
-202.259
11
122.228
21
-202.579
0
LINE
8
BLACK
6
CONTINUOUS
10
122.228
20
-202.579
11
122.176
21
-202.906
0
LINE
8
BLACK
6
CONTINUOUS
10
122.176
20
-202.906
11
122.161
21
-203.237
0
LINE
8
BLACK
6
CONTINUOUS
10
122.161
20
-203.237
11
122.183
21
-203.568
0
LINE
8
BLACK
6
CONTINUOUS
10
122.183
20
-203.568
11
122.242
21
-203.894
0
LINE
8
BLACK
6
CONTINUOUS
10
122.242
20
-203.894
11
122.338
21
-204.211
0
LINE
8
BLACK
6
CONTINUOUS
10
122.338
20
-204.211
11
122.469
21
-204.515
0
LINE
8
BLACK
6
CONTINUOUS
10
122.469
20
-204.515
11
122.634
21
-204.803
0
LINE
8
BLACK
6
CONTINUOUS
10
122.634
20
-204.803
11
122.83
21
-205.07
0
LINE
8
BLACK
6
CONTINUOUS
10
122.83
20
-205.07
11
123.054
21
-205.314
0
LINE
8
BLACK
6
CONTINUOUS
10
123.054
20
-205.314
11
123.305
21
-205.531
0
LINE
8
BLACK
6
CONTINUOUS
10
123.305
20
-205.531
11
123.56
21
-205.705
0
LINE
8
BLACK
6
CONTINUOUS
10
123.56
20
-205.705
11
124.558
21
-205.705
0
LINE
8
BLACK
6
CONTINUOUS
10
124.558
20
-205.705
11
124.304
21
-205.64
0
LINE
8
BLACK
6
CONTINUOUS
10
124.304
20
-205.64
11
124.005
21
-205.521
0
LINE
8
BLACK
6
CONTINUOUS
10
124.005
20
-205.521
11
123.723
21
-205.366
0
LINE
8
BLACK
6
CONTINUOUS
10
123.723
20
-205.366
11
123.463
21
-205.178
0
LINE
8
BLACK
6
CONTINUOUS
10
123.463
20
-205.178
11
123.229
21
-204.957
0
LINE
8
BLACK
6
CONTINUOUS
10
123.229
20
-204.957
11
123.024
21
-204.71
0
LINE
8
BLACK
6
CONTINUOUS
10
123.024
20
-204.71
11
122.852
21
-204.438
0
LINE
8
BLACK
6
CONTINUOUS
10
122.852
20
-204.438
11
122.715
21
-204.147
0
LINE
8
BLACK
6
CONTINUOUS
10
122.715
20
-204.147
11
122.615
21
-203.842
0
LINE
8
BLACK
6
CONTINUOUS
10
122.615
20
-203.842
11
122.555
21
-203.526
0
LINE
8
BLACK
6
CONTINUOUS
10
122.555
20
-203.526
11
122.535
21
-203.205
0
LINE
8
BLACK
6
CONTINUOUS
10
122.535
20
-203.205
11
122.555
21
-202.884
0
LINE
8
BLACK
6
CONTINUOUS
10
122.555
20
-202.884
11
122.615
21
-202.568
0
LINE
8
BLACK
6
CONTINUOUS
10
124.617
20
-198.136
11
124.619
21
-198.136
0
LINE
8
BLACK
6
CONTINUOUS
10
124.619
20
-198.136
11
124.762
21
-198.184
0
LINE
8
BLACK
6
CONTINUOUS
10
124.762
20
-198.184
11
124.784
21
-198.196
0
LINE
8
BLACK
6
CONTINUOUS
10
124.784
20
-198.196
11
124.787
21
-198.2
0
LINE
8
BLACK
6
CONTINUOUS
10
124.787
20
-198.2
11
124.791
21
-198.202
0
LINE
8
BLACK
6
CONTINUOUS
10
124.791
20
-198.202
11
124.886
21
-198.297
0
LINE
8
BLACK
6
CONTINUOUS
10
124.886
20
-198.297
11
124.899
21
-198.316
0
LINE
8
BLACK
6
CONTINUOUS
10
124.899
20
-198.316
11
124.9
21
-198.317
0
LINE
8
BLACK
6
CONTINUOUS
10
124.9
20
-198.317
11
124.948
21
-198.412
0
LINE
8
BLACK
6
CONTINUOUS
10
124.948
20
-198.412
11
124.951
21
-198.424
0
LINE
8
BLACK
6
CONTINUOUS
10
124.951
20
-198.424
11
124.953
21
-198.427
0
LINE
8
BLACK
6
CONTINUOUS
10
124.953
20
-198.427
11
125.001
21
-198.618
0
LINE
8
BLACK
6
CONTINUOUS
10
125.001
20
-198.618
11
125.002
21
-198.633
0
LINE
8
BLACK
6
CONTINUOUS
10
125.002
20
-198.633
11
125.003
21
-198.636
0
LINE
8
BLACK
6
CONTINUOUS
10
125.003
20
-198.636
11
125.003
21
-198.779
0
LINE
8
BLACK
6
CONTINUOUS
10
125.003
20
-198.779
11
125.001
21
-198.794
0
LINE
8
BLACK
6
CONTINUOUS
10
125.001
20
-198.794
11
125.001
21
-198.797
0
LINE
8
BLACK
6
CONTINUOUS
10
125.001
20
-198.797
11
124.953
21
-198.987
0
LINE
8
BLACK
6
CONTINUOUS
10
124.953
20
-198.987
11
124.948
21
-198.999
0
LINE
8
BLACK
6
CONTINUOUS
10
124.948
20
-198.999
11
124.948
21
-199.003
0
LINE
8
BLACK
6
CONTINUOUS
10
124.948
20
-199.003
11
124.9
21
-199.098
0
LINE
8
BLACK
6
CONTINUOUS
10
124.9
20
-199.098
11
124.887
21
-199.116
0
LINE
8
BLACK
6
CONTINUOUS
10
124.887
20
-199.116
11
124.886
21
-199.118
0
LINE
8
BLACK
6
CONTINUOUS
10
124.886
20
-199.118
11
124.791
21
-199.213
0
LINE
8
BLACK
6
CONTINUOUS
10
124.791
20
-199.213
11
124.77
21
-199.228
0
LINE
8
BLACK
6
CONTINUOUS
10
124.77
20
-199.228
11
124.765
21
-199.228
0
LINE
8
BLACK
6
CONTINUOUS
10
124.765
20
-199.228
11
124.762
21
-199.231
0
LINE
8
BLACK
6
CONTINUOUS
10
124.762
20
-199.231
11
124.619
21
-199.279
0
LINE
8
BLACK
6
CONTINUOUS
10
124.619
20
-199.279
11
124.597
21
-199.282
0
LINE
8
BLACK
6
CONTINUOUS
10
124.597
20
-199.282
11
124.595
21
-199.282
0
LINE
8
BLACK
6
CONTINUOUS
10
124.595
20
-199.282
11
124.357
21
-199.282
0
LINE
8
BLACK
6
CONTINUOUS
10
124.357
20
-199.282
11
124.347
21
-199.281
0
LINE
8
BLACK
6
CONTINUOUS
10
124.347
20
-199.281
11
124.344
21
-199.281
0
LINE
8
BLACK
6
CONTINUOUS
10
124.344
20
-199.281
11
124.341
21
-199.28
0
LINE
8
BLACK
6
CONTINUOUS
10
124.341
20
-199.28
11
124.331
21
-199.278
0
LINE
8
BLACK
6
CONTINUOUS
10
124.331
20
-199.278
11
124.316
21
-199.265
0
LINE
8
BLACK
6
CONTINUOUS
10
124.316
20
-199.265
11
124.299
21
-199.256
0
LINE
8
BLACK
6
CONTINUOUS
10
124.299
20
-199.256
11
124.297
21
-199.249
0
LINE
8
BLACK
6
CONTINUOUS
10
124.297
20
-199.249
11
124.292
21
-199.245
0
LINE
8
BLACK
6
CONTINUOUS
10
124.292
20
-199.245
11
124.289
21
-199.226
0
LINE
8
BLACK
6
CONTINUOUS
10
124.289
20
-199.226
11
124.282
21
-199.207
0
LINE
8
BLACK
6
CONTINUOUS
10
124.282
20
-199.207
11
124.282
21
-198.207
0
LINE
8
BLACK
6
CONTINUOUS
10
124.282
20
-198.207
11
124.284
21
-198.198
0
LINE
8
BLACK
6
CONTINUOUS
10
124.284
20
-198.198
11
124.283
21
-198.194
0
LINE
8
BLACK
6
CONTINUOUS
10
124.283
20
-198.194
11
124.285
21
-198.191
0
LINE
8
BLACK
6
CONTINUOUS
10
124.285
20
-198.191
11
124.286
21
-198.182
0
LINE
8
BLACK
6
CONTINUOUS
10
124.286
20
-198.182
11
124.299
21
-198.167
0
LINE
8
BLACK
6
CONTINUOUS
10
124.299
20
-198.167
11
124.309
21
-198.15
0
LINE
8
BLACK
6
CONTINUOUS
10
124.309
20
-198.15
11
124.315
21
-198.148
0
LINE
8
BLACK
6
CONTINUOUS
10
124.315
20
-198.148
11
124.319
21
-198.142
0
LINE
8
BLACK
6
CONTINUOUS
10
124.319
20
-198.142
11
124.339
21
-198.139
0
LINE
8
BLACK
6
CONTINUOUS
10
124.339
20
-198.139
11
124.357
21
-198.132
0
LINE
8
BLACK
6
CONTINUOUS
10
124.357
20
-198.132
11
124.595
21
-198.132
0
LINE
8
BLACK
6
CONTINUOUS
10
124.595
20
-198.132
11
124.617
21
-198.136
0
LINE
8
BLACK
6
CONTINUOUS
10
124.432
20
-198.282
11
124.432
21
-199.132
0
LINE
8
BLACK
6
CONTINUOUS
10
124.432
20
-199.132
11
124.583
21
-199.132
0
LINE
8
BLACK
6
CONTINUOUS
10
124.583
20
-199.132
11
124.697
21
-199.094
0
LINE
8
BLACK
6
CONTINUOUS
10
124.697
20
-199.094
11
124.771
21
-199.02
0
LINE
8
BLACK
6
CONTINUOUS
10
124.771
20
-199.02
11
124.81
21
-198.943
0
LINE
8
BLACK
6
CONTINUOUS
10
124.81
20
-198.943
11
124.853
21
-198.77
0
LINE
8
BLACK
6
CONTINUOUS
10
124.853
20
-198.77
11
124.853
21
-198.645
0
LINE
8
BLACK
6
CONTINUOUS
10
124.853
20
-198.645
11
124.81
21
-198.472
0
LINE
8
BLACK
6
CONTINUOUS
10
124.81
20
-198.472
11
124.771
21
-198.395
0
LINE
8
BLACK
6
CONTINUOUS
10
124.771
20
-198.395
11
124.697
21
-198.321
0
LINE
8
BLACK
6
CONTINUOUS
10
124.697
20
-198.321
11
124.583
21
-198.282
0
LINE
8
BLACK
6
CONTINUOUS
10
124.583
20
-198.282
11
124.432
21
-198.282
0
LINE
8
BLACK
6
CONTINUOUS
10
92.8671
20
-198.136
11
92.8687
21
-198.136
0
LINE
8
BLACK
6
CONTINUOUS
10
92.8687
20
-198.136
11
93.0116
21
-198.184
0
LINE
8
BLACK
6
CONTINUOUS
10
93.0116
20
-198.184
11
93.0345
21
-198.196
0
LINE
8
BLACK
6
CONTINUOUS
10
93.0345
20
-198.196
11
93.0368
21
-198.2
0
LINE
8
BLACK
6
CONTINUOUS
10
93.0368
20
-198.2
11
93.0409
21
-198.202
0
LINE
8
BLACK
6
CONTINUOUS
10
93.0409
20
-198.202
11
93.1361
21
-198.297
0
LINE
8
BLACK
6
CONTINUOUS
10
93.1361
20
-198.297
11
93.149
21
-198.316
0
LINE
8
BLACK
6
CONTINUOUS
10
93.149
20
-198.316
11
93.1502
21
-198.317
0
LINE
8
BLACK
6
CONTINUOUS
10
93.1502
20
-198.317
11
93.1978
21
-198.412
0
LINE
8
BLACK
6
CONTINUOUS
10
93.1978
20
-198.412
11
93.2015
21
-198.424
0
LINE
8
BLACK
6
CONTINUOUS
10
93.2015
20
-198.424
11
93.2035
21
-198.427
0
LINE
8
BLACK
6
CONTINUOUS
10
93.2035
20
-198.427
11
93.2511
21
-198.618
0
LINE
8
BLACK
6
CONTINUOUS
10
93.2511
20
-198.618
11
93.2521
21
-198.633
0
LINE
8
BLACK
6
CONTINUOUS
10
93.2521
20
-198.633
11
93.2533
21
-198.636
0
LINE
8
BLACK
6
CONTINUOUS
10
93.2533
20
-198.636
11
93.2533
21
-198.779
0
LINE
8
BLACK
6
CONTINUOUS
10
93.2533
20
-198.779
11
93.2507
21
-198.794
0
LINE
8
BLACK
6
CONTINUOUS
10
93.2507
20
-198.794
11
93.2511
21
-198.797
0
LINE
8
BLACK
6
CONTINUOUS
10
93.2511
20
-198.797
11
93.2035
21
-198.987
0
LINE
8
BLACK
6
CONTINUOUS
10
93.2035
20
-198.987
11
93.1982
21
-198.999
0
LINE
8
BLACK
6
CONTINUOUS
10
93.1982
20
-198.999
11
93.1978
21
-199.003
0
LINE
8
BLACK
6
CONTINUOUS
10
93.1978
20
-199.003
11
93.1502
21
-199.098
0
LINE
8
BLACK
6
CONTINUOUS
10
93.1502
20
-199.098
11
93.1368
21
-199.116
0
LINE
8
BLACK
6
CONTINUOUS
10
93.1368
20
-199.116
11
93.1361
21
-199.118
0
LINE
8
BLACK
6
CONTINUOUS
10
93.1361
20
-199.118
11
93.0409
21
-199.213
0
LINE
8
BLACK
6
CONTINUOUS
10
93.0409
20
-199.213
11
93.0196
21
-199.228
0
LINE
8
BLACK
6
CONTINUOUS
10
93.0196
20
-199.228
11
93.0151
21
-199.228
0
LINE
8
BLACK
6
CONTINUOUS
10
93.0151
20
-199.228
11
93.0116
21
-199.231
0
LINE
8
BLACK
6
CONTINUOUS
10
93.0116
20
-199.231
11
92.8687
21
-199.279
0
LINE
8
BLACK
6
CONTINUOUS
10
92.8687
20
-199.279
11
92.8465
21
-199.282
0
LINE
8
BLACK
6
CONTINUOUS
10
92.8465
20
-199.282
11
92.845
21
-199.282
0
LINE
8
BLACK
6
CONTINUOUS
10
92.845
20
-199.282
11
92.6069
21
-199.282
0
LINE
8
BLACK
6
CONTINUOUS
10
92.6069
20
-199.282
11
92.5972
21
-199.281
0
LINE
8
BLACK
6
CONTINUOUS
10
92.5972
20
-199.281
11
92.5939
21
-199.281
0
LINE
8
BLACK
6
CONTINUOUS
10
92.5939
20
-199.281
11
92.591
21
-199.28
0
LINE
8
BLACK
6
CONTINUOUS
10
92.591
20
-199.28
11
92.5813
21
-199.278
0
LINE
8
BLACK
6
CONTINUOUS
10
92.5813
20
-199.278
11
92.5663
21
-199.265
0
LINE
8
BLACK
6
CONTINUOUS
10
92.5663
20
-199.265
11
92.5495
21
-199.256
0
LINE
8
BLACK
6
CONTINUOUS
10
92.5495
20
-199.256
11
92.5471
21
-199.249
0
LINE
8
BLACK
6
CONTINUOUS
10
92.5471
20
-199.249
11
92.542
21
-199.245
0
LINE
8
BLACK
6
CONTINUOUS
10
92.542
20
-199.245
11
92.5386
21
-199.226
0
LINE
8
BLACK
6
CONTINUOUS
10
92.5386
20
-199.226
11
92.5319
21
-199.207
0
LINE
8
BLACK
6
CONTINUOUS
10
92.5319
20
-199.207
11
92.5319
21
-198.207
0
LINE
8
BLACK
6
CONTINUOUS
10
92.5319
20
-198.207
11
92.5336
21
-198.198
0
LINE
8
BLACK
6
CONTINUOUS
10
92.5336
20
-198.198
11
92.533
21
-198.194
0
LINE
8
BLACK
6
CONTINUOUS
10
92.533
20
-198.194
11
92.5347
21
-198.191
0
LINE
8
BLACK
6
CONTINUOUS
10
92.5347
20
-198.191
11
92.5364
21
-198.182
0
LINE
8
BLACK
6
CONTINUOUS
10
92.5364
20
-198.182
11
92.549
21
-198.167
0
LINE
8
BLACK
6
CONTINUOUS
10
92.549
20
-198.167
11
92.5587
21
-198.15
0
LINE
8
BLACK
6
CONTINUOUS
10
92.5587
20
-198.15
11
92.5651
21
-198.148
0
LINE
8
BLACK
6
CONTINUOUS
10
92.5651
20
-198.148
11
92.5694
21
-198.142
0
LINE
8
BLACK
6
CONTINUOUS
10
92.5694
20
-198.142
11
92.5886
21
-198.139
0
LINE
8
BLACK
6
CONTINUOUS
10
92.5886
20
-198.139
11
92.6069
21
-198.132
0
LINE
8
BLACK
6
CONTINUOUS
10
92.6069
20
-198.132
11
92.845
21
-198.132
0
LINE
8
BLACK
6
CONTINUOUS
10
92.845
20
-198.132
11
92.8671
21
-198.136
0
LINE
8
BLACK
6
CONTINUOUS
10
92.6819
20
-198.282
11
92.6819
21
-199.132
0
LINE
8
BLACK
6
CONTINUOUS
10
92.6819
20
-199.132
11
92.8328
21
-199.132
0
LINE
8
BLACK
6
CONTINUOUS
10
92.8328
20
-199.132
11
92.9473
21
-199.094
0
LINE
8
BLACK
6
CONTINUOUS
10
92.9473
20
-199.094
11
93.0215
21
-199.02
0
LINE
8
BLACK
6
CONTINUOUS
10
93.0215
20
-199.02
11
93.06
21
-198.943
0
LINE
8
BLACK
6
CONTINUOUS
10
93.06
20
-198.943
11
93.1033
21
-198.77
0
LINE
8
BLACK
6
CONTINUOUS
10
93.1033
20
-198.77
11
93.1033
21
-198.645
0
LINE
8
BLACK
6
CONTINUOUS
10
93.1033
20
-198.645
11
93.06
21
-198.472
0
LINE
8
BLACK
6
CONTINUOUS
10
93.06
20
-198.472
11
93.0215
21
-198.395
0
LINE
8
BLACK
6
CONTINUOUS
10
93.0215
20
-198.395
11
92.9473
21
-198.321
0
LINE
8
BLACK
6
CONTINUOUS
10
92.9473
20
-198.321
11
92.8328
21
-198.282
0
LINE
8
BLACK
6
CONTINUOUS
10
92.8328
20
-198.282
11
92.6819
21
-198.282
0
LINE
8
BLACK
6
CONTINUOUS
10
94.1418
20
-198.134
11
94.1453
21
-198.134
0
LINE
8
BLACK
6
CONTINUOUS
10
94.1453
20
-198.134
11
94.1479
21
-198.135
0
LINE
8
BLACK
6
CONTINUOUS
10
94.1479
20
-198.135
11
94.1564
21
-198.137
0
LINE
8
BLACK
6
CONTINUOUS
10
94.1564
20
-198.137
11
94.1719
21
-198.15
0
LINE
8
BLACK
6
CONTINUOUS
10
94.1719
20
-198.15
11
94.1892
21
-198.16
0
LINE
8
BLACK
6
CONTINUOUS
10
94.1892
20
-198.16
11
94.1911
21
-198.166
0
LINE
8
BLACK
6
CONTINUOUS
10
94.1911
20
-198.166
11
94.1957
21
-198.17
0
LINE
8
BLACK
6
CONTINUOUS
10
94.1957
20
-198.17
11
94.1992
21
-198.19
0
LINE
8
BLACK
6
CONTINUOUS
10
94.1992
20
-198.19
11
94.2057
21
-198.209
0
LINE
8
BLACK
6
CONTINUOUS
10
94.2057
20
-198.209
11
94.2035
21
-198.215
0
LINE
8
BLACK
6
CONTINUOUS
10
94.2035
20
-198.215
11
94.2046
21
-198.22
0
LINE
8
BLACK
6
CONTINUOUS
10
94.2046
20
-198.22
11
94.1945
21
-198.238
0
LINE
8
BLACK
6
CONTINUOUS
10
94.1945
20
-198.238
11
94.1872
21
-198.257
0
LINE
8
BLACK
6
CONTINUOUS
10
94.1872
20
-198.257
11
93.9597
21
-198.517
0
LINE
8
BLACK
6
CONTINUOUS
10
93.9597
20
-198.517
11
93.9659
21
-198.518
0
LINE
8
BLACK
6
CONTINUOUS
10
93.9659
20
-198.518
11
93.9693
21
-198.521
0
LINE
8
BLACK
6
CONTINUOUS
10
93.9693
20
-198.521
11
93.9738
21
-198.521
0
LINE
8
BLACK
6
CONTINUOUS
10
93.9738
20
-198.521
11
94.069
21
-198.569
0
LINE
8
BLACK
6
CONTINUOUS
10
94.069
20
-198.569
11
94.087
21
-198.582
0
LINE
8
BLACK
6
CONTINUOUS
10
94.087
20
-198.582
11
94.0885
21
-198.583
0
LINE
8
BLACK
6
CONTINUOUS
10
94.0885
20
-198.583
11
94.1361
21
-198.631
0
LINE
8
BLACK
6
CONTINUOUS
10
94.1361
20
-198.631
11
94.149
21
-198.649
0
LINE
8
BLACK
6
CONTINUOUS
10
94.149
20
-198.649
11
94.1502
21
-198.65
0
LINE
8
BLACK
6
CONTINUOUS
10
94.1502
20
-198.65
11
94.1978
21
-198.745
0
LINE
8
BLACK
6
CONTINUOUS
10
94.1978
20
-198.745
11
94.2052
21
-198.77
0
LINE
8
BLACK
6
CONTINUOUS
10
94.2052
20
-198.77
11
94.2042
21
-198.775
0
LINE
8
BLACK
6
CONTINUOUS
10
94.2042
20
-198.775
11
94.2057
21
-198.779
0
LINE
8
BLACK
6
CONTINUOUS
10
94.2057
20
-198.779
11
94.2057
21
-199.017
0
LINE
8
BLACK
6
CONTINUOUS
10
94.2057
20
-199.017
11
94.2012
21
-199.043
0
LINE
8
BLACK
6
CONTINUOUS
10
94.2012
20
-199.043
11
94.1983
21
-199.046
0
LINE
8
BLACK
6
CONTINUOUS
10
94.1983
20
-199.046
11
94.1978
21
-199.05
0
LINE
8
BLACK
6
CONTINUOUS
10
94.1978
20
-199.05
11
94.1502
21
-199.146
0
LINE
8
BLACK
6
CONTINUOUS
10
94.1502
20
-199.146
11
94.1368
21
-199.164
0
LINE
8
BLACK
6
CONTINUOUS
10
94.1368
20
-199.164
11
94.1361
21
-199.165
0
LINE
8
BLACK
6
CONTINUOUS
10
94.1361
20
-199.165
11
94.0885
21
-199.213
0
LINE
8
BLACK
6
CONTINUOUS
10
94.0885
20
-199.213
11
94.0701
21
-199.226
0
LINE
8
BLACK
6
CONTINUOUS
10
94.0701
20
-199.226
11
94.069
21
-199.227
0
LINE
8
BLACK
6
CONTINUOUS
10
94.069
20
-199.227
11
93.9738
21
-199.274
0
LINE
8
BLACK
6
CONTINUOUS
10
93.9738
20
-199.274
11
93.9488
21
-199.282
0
LINE
8
BLACK
6
CONTINUOUS
10
93.9488
20
-199.282
11
93.9445
21
-199.281
0
LINE
8
BLACK
6
CONTINUOUS
10
93.9445
20
-199.281
11
93.9402
21
-199.282
0
LINE
8
BLACK
6
CONTINUOUS
10
93.9402
20
-199.282
11
93.6545
21
-199.282
0
LINE
8
BLACK
6
CONTINUOUS
10
93.6545
20
-199.282
11
93.6289
21
-199.278
0
LINE
8
BLACK
6
CONTINUOUS
10
93.6289
20
-199.278
11
93.6254
21
-199.275
0
LINE
8
BLACK
6
CONTINUOUS
10
93.6254
20
-199.275
11
93.621
21
-199.274
0
LINE
8
BLACK
6
CONTINUOUS
10
93.621
20
-199.274
11
93.5257
21
-199.227
0
LINE
8
BLACK
6
CONTINUOUS
10
93.5257
20
-199.227
11
93.5077
21
-199.213
0
LINE
8
BLACK
6
CONTINUOUS
10
93.5077
20
-199.213
11
93.5063
21
-199.213
0
LINE
8
BLACK
6
CONTINUOUS
10
93.5063
20
-199.213
11
93.4586
21
-199.165
0
LINE
8
BLACK
6
CONTINUOUS
10
93.4586
20
-199.165
11
93.4437
21
-199.144
0
LINE
8
BLACK
6
CONTINUOUS
10
93.4437
20
-199.144
11
93.4392
21
-199.093
0
LINE
8
BLACK
6
CONTINUOUS
10
93.4392
20
-199.093
11
93.4686
21
-199.051
0
LINE
8
BLACK
6
CONTINUOUS
10
93.4686
20
-199.051
11
93.5182
21
-199.037
0
LINE
8
BLACK
6
CONTINUOUS
10
93.5182
20
-199.037
11
93.5647
21
-199.059
0
LINE
8
BLACK
6
CONTINUOUS
10
93.5647
20
-199.059
11
93.6037
21
-199.098
0
LINE
8
BLACK
6
CONTINUOUS
10
93.6037
20
-199.098
11
93.6722
21
-199.132
0
LINE
8
BLACK
6
CONTINUOUS
10
93.6722
20
-199.132
11
93.9225
21
-199.132
0
LINE
8
BLACK
6
CONTINUOUS
10
93.9225
20
-199.132
11
93.991
21
-199.098
0
LINE
8
BLACK
6
CONTINUOUS
10
93.991
20
-199.098
11
94.0215
21
-199.068
0
LINE
8
BLACK
6
CONTINUOUS
10
94.0215
20
-199.068
11
94.0557
21
-198.999
0
LINE
8
BLACK
6
CONTINUOUS
10
94.0557
20
-198.999
11
94.0557
21
-198.797
0
LINE
8
BLACK
6
CONTINUOUS
10
94.0557
20
-198.797
11
94.0215
21
-198.728
0
LINE
8
BLACK
6
CONTINUOUS
10
94.0215
20
-198.728
11
93.991
21
-198.698
0
LINE
8
BLACK
6
CONTINUOUS
10
93.991
20
-198.698
11
93.9225
21
-198.663
0
LINE
8
BLACK
6
CONTINUOUS
10
93.9225
20
-198.663
11
93.7974
21
-198.663
0
LINE
8
BLACK
6
CONTINUOUS
10
93.7974
20
-198.663
11
93.7863
21
-198.661
0
LINE
8
BLACK
6
CONTINUOUS
10
93.7863
20
-198.661
11
93.7828
21
-198.662
0
LINE
8
BLACK
6
CONTINUOUS
10
93.7828
20
-198.662
11
93.7802
21
-198.66
0
LINE
8
BLACK
6
CONTINUOUS
10
93.7802
20
-198.66
11
93.7717
21
-198.659
0
LINE
8
BLACK
6
CONTINUOUS
10
93.7717
20
-198.659
11
93.7562
21
-198.646
0
LINE
8
BLACK
6
CONTINUOUS
10
93.7562
20
-198.646
11
93.7389
21
-198.635
0
LINE
8
BLACK
6
CONTINUOUS
10
93.7389
20
-198.635
11
93.737
21
-198.63
0
LINE
8
BLACK
6
CONTINUOUS
10
93.737
20
-198.63
11
93.7324
21
-198.626
0
LINE
8
BLACK
6
CONTINUOUS
10
93.7324
20
-198.626
11
93.7289
21
-198.606
0
LINE
8
BLACK
6
CONTINUOUS
10
93.7289
20
-198.606
11
93.7224
21
-198.587
0
LINE
8
BLACK
6
CONTINUOUS
10
93.7224
20
-198.587
11
93.7246
21
-198.581
0
LINE
8
BLACK
6
CONTINUOUS
10
93.7246
20
-198.581
11
93.7235
21
-198.575
0
LINE
8
BLACK
6
CONTINUOUS
10
93.7235
20
-198.575
11
93.7336
21
-198.558
0
LINE
8
BLACK
6
CONTINUOUS
10
93.7336
20
-198.558
11
93.7409
21
-198.539
0
LINE
8
BLACK
6
CONTINUOUS
10
93.7409
20
-198.539
11
93.9654
21
-198.282
0
LINE
8
BLACK
6
CONTINUOUS
10
93.9654
20
-198.282
11
93.5117
21
-198.282
0
LINE
8
BLACK
6
CONTINUOUS
10
93.5117
20
-198.282
11
93.486
21
-198.278
0
LINE
8
BLACK
6
CONTINUOUS
10
93.486
20
-198.278
11
93.4467
21
-198.245
0
LINE
8
BLACK
6
CONTINUOUS
10
93.4467
20
-198.245
11
93.4378
21
-198.194
0
LINE
8
BLACK
6
CONTINUOUS
10
93.4378
20
-198.194
11
93.4635
21
-198.15
0
LINE
8
BLACK
6
CONTINUOUS
10
93.4635
20
-198.15
11
93.5117
21
-198.132
0
LINE
8
BLACK
6
CONTINUOUS
10
93.5117
20
-198.132
11
94.1307
21
-198.132
0
LINE
8
BLACK
6
CONTINUOUS
10
94.1307
20
-198.132
11
94.1418
21
-198.134
0
LINE
8
BLACK
6
CONTINUOUS
10
125.583
20
-198.094
11
125.617
21
-198.132
0
LINE
8
BLACK
6
CONTINUOUS
10
125.617
20
-198.132
11
125.619
21
-198.183
0
LINE
8
BLACK
6
CONTINUOUS
10
125.619
20
-198.183
11
125.413
21
-198.799
0
LINE
8
BLACK
6
CONTINUOUS
10
125.413
20
-198.799
11
125.71
21
-198.799
0
LINE
8
BLACK
6
CONTINUOUS
10
125.71
20
-198.799
11
125.71
21
-198.541
0
LINE
8
BLACK
6
CONTINUOUS
10
125.71
20
-198.541
11
125.715
21
-198.515
0
LINE
8
BLACK
6
CONTINUOUS
10
125.715
20
-198.515
11
125.748
21
-198.476
0
LINE
8
BLACK
6
CONTINUOUS
10
125.748
20
-198.476
11
125.798
21
-198.467
0
LINE
8
BLACK
6
CONTINUOUS
10
125.798
20
-198.467
11
125.843
21
-198.493
0
LINE
8
BLACK
6
CONTINUOUS
10
125.843
20
-198.493
11
125.86
21
-198.541
0
LINE
8
BLACK
6
CONTINUOUS
10
125.86
20
-198.541
11
125.86
21
-198.799
0
LINE
8
BLACK
6
CONTINUOUS
10
125.86
20
-198.799
11
125.928
21
-198.799
0
LINE
8
BLACK
6
CONTINUOUS
10
125.928
20
-198.799
11
125.954
21
-198.804
0
LINE
8
BLACK
6
CONTINUOUS
10
125.954
20
-198.804
11
125.993
21
-198.837
0
LINE
8
BLACK
6
CONTINUOUS
10
125.993
20
-198.837
11
126.002
21
-198.887
0
LINE
8
BLACK
6
CONTINUOUS
10
126.002
20
-198.887
11
125.977
21
-198.931
0
LINE
8
BLACK
6
CONTINUOUS
10
125.977
20
-198.931
11
125.928
21
-198.949
0
LINE
8
BLACK
6
CONTINUOUS
10
125.928
20
-198.949
11
125.86
21
-198.949
0
LINE
8
BLACK
6
CONTINUOUS
10
125.86
20
-198.949
11
125.86
21
-199.207
0
LINE
8
BLACK
6
CONTINUOUS
10
125.86
20
-199.207
11
125.856
21
-199.233
0
LINE
8
BLACK
6
CONTINUOUS
10
125.856
20
-199.233
11
125.823
21
-199.272
0
LINE
8
BLACK
6
CONTINUOUS
10
125.823
20
-199.272
11
125.772
21
-199.281
0
LINE
8
BLACK
6
CONTINUOUS
10
125.772
20
-199.281
11
125.728
21
-199.256
0
LINE
8
BLACK
6
CONTINUOUS
10
125.728
20
-199.256
11
125.71
21
-199.207
0
LINE
8
BLACK
6
CONTINUOUS
10
125.71
20
-199.207
11
125.71
21
-198.949
0
LINE
8
BLACK
6
CONTINUOUS
10
125.71
20
-198.949
11
125.309
21
-198.949
0
LINE
8
BLACK
6
CONTINUOUS
10
125.309
20
-198.949
11
125.284
21
-198.945
0
LINE
8
BLACK
6
CONTINUOUS
10
125.284
20
-198.945
11
125.279
21
-198.941
0
LINE
8
BLACK
6
CONTINUOUS
10
125.279
20
-198.941
11
125.274
21
-198.94
0
LINE
8
BLACK
6
CONTINUOUS
10
125.274
20
-198.94
11
125.26
21
-198.925
0
LINE
8
BLACK
6
CONTINUOUS
10
125.26
20
-198.925
11
125.244
21
-198.912
0
LINE
8
BLACK
6
CONTINUOUS
10
125.244
20
-198.912
11
125.243
21
-198.906
0
LINE
8
BLACK
6
CONTINUOUS
10
125.243
20
-198.906
11
125.24
21
-198.902
0
LINE
8
BLACK
6
CONTINUOUS
10
125.24
20
-198.902
11
125.239
21
-198.881
0
LINE
8
BLACK
6
CONTINUOUS
10
125.239
20
-198.881
11
125.235
21
-198.861
0
LINE
8
BLACK
6
CONTINUOUS
10
125.235
20
-198.861
11
125.238
21
-198.856
0
LINE
8
BLACK
6
CONTINUOUS
10
125.238
20
-198.856
11
125.238
21
-198.85
0
LINE
8
BLACK
6
CONTINUOUS
10
125.238
20
-198.85
11
125.476
21
-198.136
0
LINE
8
BLACK
6
CONTINUOUS
10
125.476
20
-198.136
11
125.489
21
-198.113
0
LINE
8
BLACK
6
CONTINUOUS
10
125.489
20
-198.113
11
125.532
21
-198.086
0
LINE
8
BLACK
6
CONTINUOUS
10
125.532
20
-198.086
11
125.583
21
-198.094
0
LINE
8
BLACK
6
CONTINUOUS
10
108.432
20
-171.878
11
108.45
21
-171.92
0
LINE
8
BLACK
6
CONTINUOUS
10
108.45
20
-171.92
11
108.432
21
-171.962
0
LINE
8
BLACK
6
CONTINUOUS
10
108.432
20
-171.962
11
108.39
21
-171.98
0
LINE
8
BLACK
6
CONTINUOUS
10
108.39
20
-171.98
11
107.86
21
-171.98
0
LINE
8
BLACK
6
CONTINUOUS
10
107.86
20
-171.98
11
107.818
21
-171.962
0
LINE
8
BLACK
6
CONTINUOUS
10
107.818
20
-171.962
11
107.8
21
-171.92
0
LINE
8
BLACK
6
CONTINUOUS
10
107.8
20
-171.92
11
107.818
21
-171.878
0
LINE
8
BLACK
6
CONTINUOUS
10
107.818
20
-171.878
11
107.86
21
-171.86
0
LINE
8
BLACK
6
CONTINUOUS
10
107.86
20
-171.86
11
108.39
21
-171.86
0
LINE
8
BLACK
6
CONTINUOUS
10
108.39
20
-171.86
11
108.432
21
-171.878
0
LINE
8
BLACK
6
CONTINUOUS
10
104.352
20
-167.158
11
104.37
21
-167.2
0
LINE
8
BLACK
6
CONTINUOUS
10
104.37
20
-167.2
11
104.37
21
-171.86
0
LINE
8
BLACK
6
CONTINUOUS
10
104.37
20
-171.86
11
105.49
21
-171.86
0
LINE
8
BLACK
6
CONTINUOUS
10
105.49
20
-171.86
11
105.532
21
-171.878
0
LINE
8
BLACK
6
CONTINUOUS
10
105.532
20
-171.878
11
105.55
21
-171.92
0
LINE
8
BLACK
6
CONTINUOUS
10
105.55
20
-171.92
11
105.532
21
-171.962
0
LINE
8
BLACK
6
CONTINUOUS
10
105.532
20
-171.962
11
105.49
21
-171.98
0
LINE
8
BLACK
6
CONTINUOUS
10
105.49
20
-171.98
11
104.31
21
-171.98
0
LINE
8
BLACK
6
CONTINUOUS
10
104.31
20
-171.98
11
104.268
21
-171.962
0
LINE
8
BLACK
6
CONTINUOUS
10
104.268
20
-171.962
11
104.25
21
-171.92
0
LINE
8
BLACK
6
CONTINUOUS
10
104.25
20
-171.92
11
104.25
21
-167.2
0
LINE
8
BLACK
6
CONTINUOUS
10
104.25
20
-167.2
11
104.268
21
-167.158
0
LINE
8
BLACK
6
CONTINUOUS
10
104.268
20
-167.158
11
104.31
21
-167.14
0
LINE
8
BLACK
6
CONTINUOUS
10
104.31
20
-167.14
11
104.352
21
-167.158
0
LINE
8
BLACK
6
CONTINUOUS
10
112.518
20
-171.962
11
112.5
21
-171.92
0
LINE
8
BLACK
6
CONTINUOUS
10
112.5
20
-171.92
11
112.518
21
-171.878
0
LINE
8
BLACK
6
CONTINUOUS
10
112.518
20
-171.878
11
112.56
21
-171.86
0
LINE
8
BLACK
6
CONTINUOUS
10
112.56
20
-171.86
11
113.99
21
-171.86
0
LINE
8
BLACK
6
CONTINUOUS
10
113.99
20
-171.86
11
113.99
21
-167.2
0
LINE
8
BLACK
6
CONTINUOUS
10
113.99
20
-167.2
11
114.008
21
-167.158
0
LINE
8
BLACK
6
CONTINUOUS
10
114.008
20
-167.158
11
114.05
21
-167.14
0
LINE
8
BLACK
6
CONTINUOUS
10
114.05
20
-167.14
11
114.092
21
-167.158
0
LINE
8
BLACK
6
CONTINUOUS
10
114.092
20
-167.158
11
114.11
21
-167.2
0
LINE
8
BLACK
6
CONTINUOUS
10
114.11
20
-167.2
11
114.11
21
-171.92
0
LINE
8
BLACK
6
CONTINUOUS
10
114.11
20
-171.92
11
114.092
21
-171.962
0
LINE
8
BLACK
6
CONTINUOUS
10
114.092
20
-171.962
11
114.05
21
-171.98
0
LINE
8
BLACK
6
CONTINUOUS
10
114.05
20
-171.98
11
112.56
21
-171.98
0
LINE
8
BLACK
6
CONTINUOUS
10
112.56
20
-171.98
11
112.518
21
-171.962
0
LINE
8
BLACK
6
CONTINUOUS
10
110.882
20
-171.878
11
110.9
21
-171.92
0
LINE
8
BLACK
6
CONTINUOUS
10
110.9
20
-171.92
11
110.882
21
-171.962
0
LINE
8
BLACK
6
CONTINUOUS
10
110.882
20
-171.962
11
110.84
21
-171.98
0
LINE
8
BLACK
6
CONTINUOUS
10
110.84
20
-171.98
11
110.01
21
-171.98
0
LINE
8
BLACK
6
CONTINUOUS
10
110.01
20
-171.98
11
109.968
21
-171.962
0
LINE
8
BLACK
6
CONTINUOUS
10
109.968
20
-171.962
11
109.95
21
-171.92
0
LINE
8
BLACK
6
CONTINUOUS
10
109.95
20
-171.92
11
109.968
21
-171.878
0
LINE
8
BLACK
6
CONTINUOUS
10
109.968
20
-171.878
11
110.01
21
-171.86
0
LINE
8
BLACK
6
CONTINUOUS
10
110.01
20
-171.86
11
110.84
21
-171.86
0
LINE
8
BLACK
6
CONTINUOUS
10
110.84
20
-171.86
11
110.882
21
-171.878
0
LINE
8
BLACK
6
CONTINUOUS
10
114.092
20
-160.288
11
114.11
21
-160.33
0
LINE
8
BLACK
6
CONTINUOUS
10
114.11
20
-160.33
11
114.11
21
-163.39
0
LINE
8
BLACK
6
CONTINUOUS
10
114.11
20
-163.39
11
114.092
21
-163.432
0
LINE
8
BLACK
6
CONTINUOUS
10
114.092
20
-163.432
11
114.05
21
-163.45
0
LINE
8
BLACK
6
CONTINUOUS
10
114.05
20
-163.45
11
114.008
21
-163.432
0
LINE
8
BLACK
6
CONTINUOUS
10
114.008
20
-163.432
11
113.99
21
-163.39
0
LINE
8
BLACK
6
CONTINUOUS
10
113.99
20
-163.39
11
113.99
21
-160.39
0
LINE
8
BLACK
6
CONTINUOUS
10
113.99
20
-160.39
11
104.37
21
-160.39
0
LINE
8
BLACK
6
CONTINUOUS
10
104.37
20
-160.39
11
104.37
21
-163.39
0
LINE
8
BLACK
6
CONTINUOUS
10
104.37
20
-163.39
11
104.352
21
-163.432
0
LINE
8
BLACK
6
CONTINUOUS
10
104.352
20
-163.432
11
104.31
21
-163.45
0
LINE
8
BLACK
6
CONTINUOUS
10
104.31
20
-163.45
11
104.268
21
-163.432
0
LINE
8
BLACK
6
CONTINUOUS
10
104.268
20
-163.432
11
104.25
21
-163.39
0
LINE
8
BLACK
6
CONTINUOUS
10
104.25
20
-163.39
11
104.25
21
-160.33
0
LINE
8
BLACK
6
CONTINUOUS
10
104.25
20
-160.33
11
104.268
21
-160.288
0
LINE
8
BLACK
6
CONTINUOUS
10
104.268
20
-160.288
11
104.31
21
-160.27
0
LINE
8
BLACK
6
CONTINUOUS
10
104.31
20
-160.27
11
114.05
21
-160.27
0
LINE
8
BLACK
6
CONTINUOUS
10
114.05
20
-160.27
11
114.092
21
-160.288
0
LINE
8
BLACK
6
CONTINUOUS
10
110.269
20
-158.767
11
110.273
21
-158.77
0
LINE
8
BLACK
6
CONTINUOUS
10
110.273
20
-158.77
11
110.277
21
-158.77
0
LINE
8
BLACK
6
CONTINUOUS
10
110.277
20
-158.77
11
110.373
21
-158.818
0
LINE
8
BLACK
6
CONTINUOUS
10
110.373
20
-158.818
11
110.391
21
-158.831
0
LINE
8
BLACK
6
CONTINUOUS
10
110.391
20
-158.831
11
110.392
21
-158.832
0
LINE
8
BLACK
6
CONTINUOUS
10
110.392
20
-158.832
11
110.44
21
-158.88
0
LINE
8
BLACK
6
CONTINUOUS
10
110.44
20
-158.88
11
110.453
21
-158.898
0
LINE
8
BLACK
6
CONTINUOUS
10
110.453
20
-158.898
11
110.454
21
-158.899
0
LINE
8
BLACK
6
CONTINUOUS
10
110.454
20
-158.899
11
110.501
21
-158.994
0
LINE
8
BLACK
6
CONTINUOUS
10
110.501
20
-158.994
11
110.509
21
-159.019
0
LINE
8
BLACK
6
CONTINUOUS
10
110.509
20
-159.019
11
110.508
21
-159.024
0
LINE
8
BLACK
6
CONTINUOUS
10
110.508
20
-159.024
11
110.509
21
-159.028
0
LINE
8
BLACK
6
CONTINUOUS
10
110.509
20
-159.028
11
110.509
21
-159.123
0
LINE
8
BLACK
6
CONTINUOUS
10
110.509
20
-159.123
11
110.505
21
-159.145
0
LINE
8
BLACK
6
CONTINUOUS
10
110.505
20
-159.145
11
110.505
21
-159.147
0
LINE
8
BLACK
6
CONTINUOUS
10
110.505
20
-159.147
11
110.458
21
-159.29
0
LINE
8
BLACK
6
CONTINUOUS
10
110.458
20
-159.29
11
110.445
21
-159.313
0
LINE
8
BLACK
6
CONTINUOUS
10
110.445
20
-159.313
11
110.442
21
-159.315
0
LINE
8
BLACK
6
CONTINUOUS
10
110.442
20
-159.315
11
110.44
21
-159.319
0
LINE
8
BLACK
6
CONTINUOUS
10
110.44
20
-159.319
11
109.996
21
-159.762
0
LINE
8
BLACK
6
CONTINUOUS
10
109.996
20
-159.762
11
110.434
21
-159.762
0
LINE
8
BLACK
6
CONTINUOUS
10
110.434
20
-159.762
11
110.46
21
-159.767
0
LINE
8
BLACK
6
CONTINUOUS
10
110.46
20
-159.767
11
110.499
21
-159.8
0
LINE
8
BLACK
6
CONTINUOUS
10
110.499
20
-159.8
11
110.508
21
-159.85
0
LINE
8
BLACK
6
CONTINUOUS
10
110.508
20
-159.85
11
110.482
21
-159.895
0
LINE
8
BLACK
6
CONTINUOUS
10
110.482
20
-159.895
11
110.434
21
-159.912
0
LINE
8
BLACK
6
CONTINUOUS
10
110.434
20
-159.912
11
109.815
21
-159.912
0
LINE
8
BLACK
6
CONTINUOUS
10
109.815
20
-159.912
11
109.799
21
-159.91
0
LINE
8
BLACK
6
CONTINUOUS
10
109.799
20
-159.91
11
109.796
21
-159.91
0
LINE
8
BLACK
6
CONTINUOUS
10
109.796
20
-159.91
11
109.794
21
-159.909
0
LINE
8
BLACK
6
CONTINUOUS
10
109.794
20
-159.909
11
109.79
21
-159.908
0
LINE
8
BLACK
6
CONTINUOUS
10
109.79
20
-159.908
11
109.772
21
-159.893
0
LINE
8
BLACK
6
CONTINUOUS
10
109.772
20
-159.893
11
109.754
21
-159.88
0
LINE
8
BLACK
6
CONTINUOUS
10
109.754
20
-159.88
11
109.753
21
-159.877
0
LINE
8
BLACK
6
CONTINUOUS
10
109.753
20
-159.877
11
109.75
21
-159.875
0
LINE
8
BLACK
6
CONTINUOUS
10
109.75
20
-159.875
11
109.746
21
-159.853
0
LINE
8
BLACK
6
CONTINUOUS
10
109.746
20
-159.853
11
109.741
21
-159.831
0
LINE
8
BLACK
6
CONTINUOUS
10
109.741
20
-159.831
11
109.742
21
-159.828
0
LINE
8
BLACK
6
CONTINUOUS
10
109.742
20
-159.828
11
109.741
21
-159.824
0
LINE
8
BLACK
6
CONTINUOUS
10
109.741
20
-159.824
11
109.753
21
-159.805
0
LINE
8
BLACK
6
CONTINUOUS
10
109.753
20
-159.805
11
109.762
21
-159.784
0
LINE
8
BLACK
6
CONTINUOUS
10
109.762
20
-159.784
11
110.321
21
-159.225
0
LINE
8
BLACK
6
CONTINUOUS
10
110.321
20
-159.225
11
110.359
21
-159.111
0
LINE
8
BLACK
6
CONTINUOUS
10
110.359
20
-159.111
11
110.359
21
-159.046
0
LINE
8
BLACK
6
CONTINUOUS
10
110.359
20
-159.046
11
110.325
21
-158.977
0
LINE
8
BLACK
6
CONTINUOUS
10
110.325
20
-158.977
11
110.295
21
-158.947
0
LINE
8
BLACK
6
CONTINUOUS
10
110.295
20
-158.947
11
110.226
21
-158.912
0
LINE
8
BLACK
6
CONTINUOUS
10
110.226
20
-158.912
11
110.023
21
-158.912
0
LINE
8
BLACK
6
CONTINUOUS
10
110.023
20
-158.912
11
109.955
21
-158.947
0
LINE
8
BLACK
6
CONTINUOUS
10
109.955
20
-158.947
11
109.916
21
-158.986
0
LINE
8
BLACK
6
CONTINUOUS
10
109.916
20
-158.986
11
109.895
21
-159.001
0
LINE
8
BLACK
6
CONTINUOUS
10
109.895
20
-159.001
11
109.843
21
-159.005
0
LINE
8
BLACK
6
CONTINUOUS
10
109.843
20
-159.005
11
109.801
21
-158.976
0
LINE
8
BLACK
6
CONTINUOUS
10
109.801
20
-158.976
11
109.788
21
-158.926
0
LINE
8
BLACK
6
CONTINUOUS
10
109.788
20
-158.926
11
109.81
21
-158.88
0
LINE
8
BLACK
6
CONTINUOUS
10
109.81
20
-158.88
11
109.857
21
-158.832
0
LINE
8
BLACK
6
CONTINUOUS
10
109.857
20
-158.832
11
109.876
21
-158.819
0
LINE
8
BLACK
6
CONTINUOUS
10
109.876
20
-158.819
11
109.877
21
-158.818
0
LINE
8
BLACK
6
CONTINUOUS
10
109.877
20
-158.818
11
109.972
21
-158.77
0
LINE
8
BLACK
6
CONTINUOUS
10
109.972
20
-158.77
11
109.997
21
-158.763
0
LINE
8
BLACK
6
CONTINUOUS
10
109.997
20
-158.763
11
110.001
21
-158.764
0
LINE
8
BLACK
6
CONTINUOUS
10
110.001
20
-158.764
11
110.006
21
-158.762
0
LINE
8
BLACK
6
CONTINUOUS
10
110.006
20
-158.762
11
110.244
21
-158.762
0
LINE
8
BLACK
6
CONTINUOUS
10
110.244
20
-158.762
11
110.269
21
-158.767
0
LINE
8
BLACK
6
CONTINUOUS
10
108.95
20
-158.773
11
108.982
21
-158.814
0
LINE
8
BLACK
6
CONTINUOUS
10
108.982
20
-158.814
11
109.244
21
-159.6
0
LINE
8
BLACK
6
CONTINUOUS
10
109.244
20
-159.6
11
109.506
21
-158.814
0
LINE
8
BLACK
6
CONTINUOUS
10
109.506
20
-158.814
11
109.518
21
-158.791
0
LINE
8
BLACK
6
CONTINUOUS
10
109.518
20
-158.791
11
109.562
21
-158.764
0
LINE
8
BLACK
6
CONTINUOUS
10
109.562
20
-158.764
11
109.613
21
-158.771
0
LINE
8
BLACK
6
CONTINUOUS
10
109.613
20
-158.771
11
109.647
21
-158.81
0
LINE
8
BLACK
6
CONTINUOUS
10
109.647
20
-158.81
11
109.648
21
-158.861
0
LINE
8
BLACK
6
CONTINUOUS
10
109.648
20
-158.861
11
109.315
21
-159.861
0
LINE
8
BLACK
6
CONTINUOUS
10
109.315
20
-159.861
11
109.303
21
-159.884
0
LINE
8
BLACK
6
CONTINUOUS
10
109.303
20
-159.884
11
109.301
21
-159.885
0
LINE
8
BLACK
6
CONTINUOUS
10
109.301
20
-159.885
11
109.3
21
-159.887
0
LINE
8
BLACK
6
CONTINUOUS
10
109.3
20
-159.887
11
109.279
21
-159.898
0
LINE
8
BLACK
6
CONTINUOUS
10
109.279
20
-159.898
11
109.259
21
-159.911
0
LINE
8
BLACK
6
CONTINUOUS
10
109.259
20
-159.911
11
109.257
21
-159.911
0
LINE
8
BLACK
6
CONTINUOUS
10
109.257
20
-159.911
11
109.255
21
-159.912
0
LINE
8
BLACK
6
CONTINUOUS
10
109.255
20
-159.912
11
109.232
21
-159.907
0
LINE
8
BLACK
6
CONTINUOUS
10
109.232
20
-159.907
11
109.208
21
-159.903
0
LINE
8
BLACK
6
CONTINUOUS
10
109.208
20
-159.903
11
109.207
21
-159.902
0
LINE
8
BLACK
6
CONTINUOUS
10
109.207
20
-159.902
11
109.205
21
-159.901
0
LINE
8
BLACK
6
CONTINUOUS
10
109.205
20
-159.901
11
109.19
21
-159.883
0
LINE
8
BLACK
6
CONTINUOUS
10
109.19
20
-159.883
11
109.174
21
-159.865
0
LINE
8
BLACK
6
CONTINUOUS
10
109.174
20
-159.865
11
109.174
21
-159.863
0
LINE
8
BLACK
6
CONTINUOUS
10
109.174
20
-159.863
11
109.173
21
-159.861
0
LINE
8
BLACK
6
CONTINUOUS
10
109.173
20
-159.861
11
108.839
21
-158.861
0
LINE
8
BLACK
6
CONTINUOUS
10
108.839
20
-158.861
11
108.836
21
-158.835
0
LINE
8
BLACK
6
CONTINUOUS
10
108.836
20
-158.835
11
108.854
21
-158.788
0
LINE
8
BLACK
6
CONTINUOUS
10
108.854
20
-158.788
11
108.899
21
-158.763
0
LINE
8
BLACK
6
CONTINUOUS
10
108.899
20
-158.763
11
108.95
21
-158.773
0
LINE
8
BLACK
6
CONTINUOUS
10
108.46
20
-158.767
11
108.463
21
-158.77
0
LINE
8
BLACK
6
CONTINUOUS
10
108.463
20
-158.77
11
108.468
21
-158.77
0
LINE
8
BLACK
6
CONTINUOUS
10
108.468
20
-158.77
11
108.563
21
-158.818
0
LINE
8
BLACK
6
CONTINUOUS
10
108.563
20
-158.818
11
108.581
21
-158.831
0
LINE
8
BLACK
6
CONTINUOUS
10
108.581
20
-158.831
11
108.583
21
-158.832
0
LINE
8
BLACK
6
CONTINUOUS
10
108.583
20
-158.832
11
108.63
21
-158.88
0
LINE
8
BLACK
6
CONTINUOUS
10
108.63
20
-158.88
11
108.643
21
-158.898
0
LINE
8
BLACK
6
CONTINUOUS
10
108.643
20
-158.898
11
108.644
21
-158.899
0
LINE
8
BLACK
6
CONTINUOUS
10
108.644
20
-158.899
11
108.692
21
-158.994
0
LINE
8
BLACK
6
CONTINUOUS
10
108.692
20
-158.994
11
108.699
21
-159.019
0
LINE
8
BLACK
6
CONTINUOUS
10
108.699
20
-159.019
11
108.698
21
-159.024
0
LINE
8
BLACK
6
CONTINUOUS
10
108.698
20
-159.024
11
108.7
21
-159.028
0
LINE
8
BLACK
6
CONTINUOUS
10
108.7
20
-159.028
11
108.7
21
-159.171
0
LINE
8
BLACK
6
CONTINUOUS
10
108.7
20
-159.171
11
108.695
21
-159.196
0
LINE
8
BLACK
6
CONTINUOUS
10
108.695
20
-159.196
11
108.692
21
-159.2
0
LINE
8
BLACK
6
CONTINUOUS
10
108.692
20
-159.2
11
108.692
21
-159.204
0
LINE
8
BLACK
6
CONTINUOUS
10
108.692
20
-159.204
11
108.644
21
-159.299
0
LINE
8
BLACK
6
CONTINUOUS
10
108.644
20
-159.299
11
108.631
21
-159.318
0
LINE
8
BLACK
6
CONTINUOUS
10
108.631
20
-159.318
11
108.63
21
-159.319
0
LINE
8
BLACK
6
CONTINUOUS
10
108.63
20
-159.319
11
108.583
21
-159.367
0
LINE
8
BLACK
6
CONTINUOUS
10
108.583
20
-159.367
11
108.564
21
-159.379
0
LINE
8
BLACK
6
CONTINUOUS
10
108.564
20
-159.379
11
108.563
21
-159.381
0
LINE
8
BLACK
6
CONTINUOUS
10
108.563
20
-159.381
11
108.468
21
-159.428
0
LINE
8
BLACK
6
CONTINUOUS
10
108.468
20
-159.428
11
108.443
21
-159.436
0
LINE
8
BLACK
6
CONTINUOUS
10
108.443
20
-159.436
11
108.438
21
-159.435
0
LINE
8
BLACK
6
CONTINUOUS
10
108.438
20
-159.435
11
108.435
21
-159.436
0
LINE
8
BLACK
6
CONTINUOUS
10
108.435
20
-159.436
11
108.686
21
-159.794
0
LINE
8
BLACK
6
CONTINUOUS
10
108.686
20
-159.794
11
108.697
21
-159.818
0
LINE
8
BLACK
6
CONTINUOUS
10
108.697
20
-159.818
11
108.693
21
-159.869
0
LINE
8
BLACK
6
CONTINUOUS
10
108.693
20
-159.869
11
108.656
21
-159.905
0
LINE
8
BLACK
6
CONTINUOUS
10
108.656
20
-159.905
11
108.605
21
-159.91
0
LINE
8
BLACK
6
CONTINUOUS
10
108.605
20
-159.91
11
108.563
21
-159.88
0
LINE
8
BLACK
6
CONTINUOUS
10
108.563
20
-159.88
11
108.252
21
-159.436
0
LINE
8
BLACK
6
CONTINUOUS
10
108.252
20
-159.436
11
108.128
21
-159.436
0
LINE
8
BLACK
6
CONTINUOUS
10
108.128
20
-159.436
11
108.128
21
-159.837
0
LINE
8
BLACK
6
CONTINUOUS
10
108.128
20
-159.837
11
108.124
21
-159.863
0
LINE
8
BLACK
6
CONTINUOUS
10
108.124
20
-159.863
11
108.091
21
-159.902
0
LINE
8
BLACK
6
CONTINUOUS
10
108.091
20
-159.902
11
108.04
21
-159.911
0
LINE
8
BLACK
6
CONTINUOUS
10
108.04
20
-159.911
11
107.996
21
-159.886
0
LINE
8
BLACK
6
CONTINUOUS
10
107.996
20
-159.886
11
107.978
21
-159.837
0
LINE
8
BLACK
6
CONTINUOUS
10
107.978
20
-159.837
11
107.978
21
-158.837
0
LINE
8
BLACK
6
CONTINUOUS
10
107.978
20
-158.837
11
107.98
21
-158.828
0
LINE
8
BLACK
6
CONTINUOUS
10
107.98
20
-158.828
11
107.979
21
-158.824
0
LINE
8
BLACK
6
CONTINUOUS
10
107.979
20
-158.824
11
107.981
21
-158.821
0
LINE
8
BLACK
6
CONTINUOUS
10
107.981
20
-158.821
11
107.983
21
-158.812
0
LINE
8
BLACK
6
CONTINUOUS
10
107.983
20
-158.812
11
107.995
21
-158.797
0
LINE
8
BLACK
6
CONTINUOUS
10
107.995
20
-158.797
11
108.005
21
-158.78
0
LINE
8
BLACK
6
CONTINUOUS
10
108.005
20
-158.78
11
108.011
21
-158.778
0
LINE
8
BLACK
6
CONTINUOUS
10
108.011
20
-158.778
11
108.016
21
-158.772
0
LINE
8
BLACK
6
CONTINUOUS
10
108.016
20
-158.772
11
108.035
21
-158.769
0
LINE
8
BLACK
6
CONTINUOUS
10
108.035
20
-158.769
11
108.053
21
-158.762
0
LINE
8
BLACK
6
CONTINUOUS
10
108.053
20
-158.762
11
108.434
21
-158.762
0
LINE
8
BLACK
6
CONTINUOUS
10
108.434
20
-158.762
11
108.46
21
-158.767
0
LINE
8
BLACK
6
CONTINUOUS
10
108.128
20
-158.912
11
108.128
21
-159.286
0
LINE
8
BLACK
6
CONTINUOUS
10
108.128
20
-159.286
11
108.417
21
-159.286
0
LINE
8
BLACK
6
CONTINUOUS
10
108.417
20
-159.286
11
108.485
21
-159.252
0
LINE
8
BLACK
6
CONTINUOUS
10
108.485
20
-159.252
11
108.516
21
-159.222
0
LINE
8
BLACK
6
CONTINUOUS
10
108.516
20
-159.222
11
108.55
21
-159.153
0
LINE
8
BLACK
6
CONTINUOUS
10
108.55
20
-159.153
11
108.55
21
-159.046
0
LINE
8
BLACK
6
CONTINUOUS
10
108.55
20
-159.046
11
108.516
21
-158.977
0
LINE
8
BLACK
6
CONTINUOUS
10
108.516
20
-158.977
11
108.485
21
-158.947
0
LINE
8
BLACK
6
CONTINUOUS
10
108.485
20
-158.947
11
108.417
21
-158.912
0
LINE
8
BLACK
6
CONTINUOUS
10
108.417
20
-158.912
11
108.128
21
-158.912
0
LINE
8
BLACK
6
CONTINUOUS
10
104.352
20
-109.968
11
104.37
21
-110.01
0
LINE
8
BLACK
6
CONTINUOUS
10
104.37
20
-110.01
11
104.37
21
-114.67
0
LINE
8
BLACK
6
CONTINUOUS
10
104.37
20
-114.67
11
105.49
21
-114.67
0
LINE
8
BLACK
6
CONTINUOUS
10
105.49
20
-114.67
11
105.532
21
-114.688
0
LINE
8
BLACK
6
CONTINUOUS
10
105.532
20
-114.688
11
105.55
21
-114.73
0
LINE
8
BLACK
6
CONTINUOUS
10
105.55
20
-114.73
11
105.532
21
-114.772
0
LINE
8
BLACK
6
CONTINUOUS
10
105.532
20
-114.772
11
105.49
21
-114.79
0
LINE
8
BLACK
6
CONTINUOUS
10
105.49
20
-114.79
11
104.31
21
-114.79
0
LINE
8
BLACK
6
CONTINUOUS
10
104.31
20
-114.79
11
104.268
21
-114.772
0
LINE
8
BLACK
6
CONTINUOUS
10
104.268
20
-114.772
11
104.25
21
-114.73
0
LINE
8
BLACK
6
CONTINUOUS
10
104.25
20
-114.73
11
104.25
21
-110.01
0
LINE
8
BLACK
6
CONTINUOUS
10
104.25
20
-110.01
11
104.268
21
-109.968
0
LINE
8
BLACK
6
CONTINUOUS
10
104.268
20
-109.968
11
104.31
21
-109.95
0
LINE
8
BLACK
6
CONTINUOUS
10
104.31
20
-109.95
11
104.352
21
-109.968
0
LINE
8
BLACK
6
CONTINUOUS
10
110.882
20
-114.688
11
110.9
21
-114.73
0
LINE
8
BLACK
6
CONTINUOUS
10
110.9
20
-114.73
11
110.882
21
-114.772
0
LINE
8
BLACK
6
CONTINUOUS
10
110.882
20
-114.772
11
110.84
21
-114.79
0
LINE
8
BLACK
6
CONTINUOUS
10
110.84
20
-114.79
11
110.01
21
-114.79
0
LINE
8
BLACK
6
CONTINUOUS
10
110.01
20
-114.79
11
109.968
21
-114.772
0
LINE
8
BLACK
6
CONTINUOUS
10
109.968
20
-114.772
11
109.95
21
-114.73
0
LINE
8
BLACK
6
CONTINUOUS
10
109.95
20
-114.73
11
109.968
21
-114.688
0
LINE
8
BLACK
6
CONTINUOUS
10
109.968
20
-114.688
11
110.01
21
-114.67
0
LINE
8
BLACK
6
CONTINUOUS
10
110.01
20
-114.67
11
110.84
21
-114.67
0
LINE
8
BLACK
6
CONTINUOUS
10
110.84
20
-114.67
11
110.882
21
-114.688
0
LINE
8
BLACK
6
CONTINUOUS
10
112.518
20
-114.772
11
112.5
21
-114.73
0
LINE
8
BLACK
6
CONTINUOUS
10
112.5
20
-114.73
11
112.518
21
-114.688
0
LINE
8
BLACK
6
CONTINUOUS
10
112.518
20
-114.688
11
112.56
21
-114.67
0
LINE
8
BLACK
6
CONTINUOUS
10
112.56
20
-114.67
11
113.99
21
-114.67
0
LINE
8
BLACK
6
CONTINUOUS
10
113.99
20
-114.67
11
113.99
21
-110.01
0
LINE
8
BLACK
6
CONTINUOUS
10
113.99
20
-110.01
11
114.008
21
-109.968
0
LINE
8
BLACK
6
CONTINUOUS
10
114.008
20
-109.968
11
114.05
21
-109.95
0
LINE
8
BLACK
6
CONTINUOUS
10
114.05
20
-109.95
11
114.092
21
-109.968
0
LINE
8
BLACK
6
CONTINUOUS
10
114.092
20
-109.968
11
114.11
21
-110.01
0
LINE
8
BLACK
6
CONTINUOUS
10
114.11
20
-110.01
11
114.11
21
-114.73
0
LINE
8
BLACK
6
CONTINUOUS
10
114.11
20
-114.73
11
114.092
21
-114.772
0
LINE
8
BLACK
6
CONTINUOUS
10
114.092
20
-114.772
11
114.05
21
-114.79
0
LINE
8
BLACK
6
CONTINUOUS
10
114.05
20
-114.79
11
112.56
21
-114.79
0
LINE
8
BLACK
6
CONTINUOUS
10
112.56
20
-114.79
11
112.518
21
-114.772
0
LINE
8
BLACK
6
CONTINUOUS
10
108.432
20
-114.688
11
108.45
21
-114.73
0
LINE
8
BLACK
6
CONTINUOUS
10
108.45
20
-114.73
11
108.432
21
-114.772
0
LINE
8
BLACK
6
CONTINUOUS
10
108.432
20
-114.772
11
108.39
21
-114.79
0
LINE
8
BLACK
6
CONTINUOUS
10
108.39
20
-114.79
11
107.86
21
-114.79
0
LINE
8
BLACK
6
CONTINUOUS
10
107.86
20
-114.79
11
107.818
21
-114.772
0
LINE
8
BLACK
6
CONTINUOUS
10
107.818
20
-114.772
11
107.8
21
-114.73
0
LINE
8
BLACK
6
CONTINUOUS
10
107.8
20
-114.73
11
107.818
21
-114.688
0
LINE
8
BLACK
6
CONTINUOUS
10
107.818
20
-114.688
11
107.86
21
-114.67
0
LINE
8
BLACK
6
CONTINUOUS
10
107.86
20
-114.67
11
108.39
21
-114.67
0
LINE
8
BLACK
6
CONTINUOUS
10
108.39
20
-114.67
11
108.432
21
-114.688
0
LINE
8
BLACK
6
CONTINUOUS
10
114.092
20
-103.098
11
114.11
21
-103.14
0
LINE
8
BLACK
6
CONTINUOUS
10
114.11
20
-103.14
11
114.11
21
-106.2
0
LINE
8
BLACK
6
CONTINUOUS
10
114.11
20
-106.2
11
114.092
21
-106.242
0
LINE
8
BLACK
6
CONTINUOUS
10
114.092
20
-106.242
11
114.05
21
-106.26
0
LINE
8
BLACK
6
CONTINUOUS
10
114.05
20
-106.26
11
114.008
21
-106.242
0
LINE
8
BLACK
6
CONTINUOUS
10
114.008
20
-106.242
11
113.99
21
-106.2
0
LINE
8
BLACK
6
CONTINUOUS
10
113.99
20
-106.2
11
113.99
21
-103.2
0
LINE
8
BLACK
6
CONTINUOUS
10
113.99
20
-103.2
11
104.37
21
-103.2
0
LINE
8
BLACK
6
CONTINUOUS
10
104.37
20
-103.2
11
104.37
21
-106.2
0
LINE
8
BLACK
6
CONTINUOUS
10
104.37
20
-106.2
11
104.352
21
-106.242
0
LINE
8
BLACK
6
CONTINUOUS
10
104.352
20
-106.242
11
104.31
21
-106.26
0
LINE
8
BLACK
6
CONTINUOUS
10
104.31
20
-106.26
11
104.268
21
-106.242
0
LINE
8
BLACK
6
CONTINUOUS
10
104.268
20
-106.242
11
104.25
21
-106.2
0
LINE
8
BLACK
6
CONTINUOUS
10
104.25
20
-106.2
11
104.25
21
-103.14
0
LINE
8
BLACK
6
CONTINUOUS
10
104.25
20
-103.14
11
104.268
21
-103.098
0
LINE
8
BLACK
6
CONTINUOUS
10
104.268
20
-103.098
11
104.31
21
-103.08
0
LINE
8
BLACK
6
CONTINUOUS
10
104.31
20
-103.08
11
114.05
21
-103.08
0
LINE
8
BLACK
6
CONTINUOUS
10
114.05
20
-103.08
11
114.092
21
-103.098
0
LINE
8
BLACK
6
CONTINUOUS
10
110.157
20
-101.614
11
110.162
21
-101.614
0
LINE
8
BLACK
6
CONTINUOUS
10
110.162
20
-101.614
11
110.18
21
-101.624
0
LINE
8
BLACK
6
CONTINUOUS
10
110.18
20
-101.624
11
110.2
21
-101.633
0
LINE
8
BLACK
6
CONTINUOUS
10
110.2
20
-101.633
11
110.202
21
-101.637
0
LINE
8
BLACK
6
CONTINUOUS
10
110.202
20
-101.637
11
110.206
21
-101.639
0
LINE
8
BLACK
6
CONTINUOUS
10
110.206
20
-101.639
11
110.213
21
-101.66
0
LINE
8
BLACK
6
CONTINUOUS
10
110.213
20
-101.66
11
110.223
21
-101.679
0
LINE
8
BLACK
6
CONTINUOUS
10
110.223
20
-101.679
11
110.222
21
-101.683
0
LINE
8
BLACK
6
CONTINUOUS
10
110.222
20
-101.683
11
110.224
21
-101.687
0
LINE
8
BLACK
6
CONTINUOUS
10
110.224
20
-101.687
11
110.224
21
-102.612
0
LINE
8
BLACK
6
CONTINUOUS
10
110.224
20
-102.612
11
110.434
21
-102.612
0
LINE
8
BLACK
6
CONTINUOUS
10
110.434
20
-102.612
11
110.46
21
-102.617
0
LINE
8
BLACK
6
CONTINUOUS
10
110.46
20
-102.617
11
110.499
21
-102.65
0
LINE
8
BLACK
6
CONTINUOUS
10
110.499
20
-102.65
11
110.508
21
-102.7
0
LINE
8
BLACK
6
CONTINUOUS
10
110.508
20
-102.7
11
110.482
21
-102.745
0
LINE
8
BLACK
6
CONTINUOUS
10
110.482
20
-102.745
11
110.434
21
-102.762
0
LINE
8
BLACK
6
CONTINUOUS
10
110.434
20
-102.762
11
109.863
21
-102.762
0
LINE
8
BLACK
6
CONTINUOUS
10
109.863
20
-102.762
11
109.837
21
-102.758
0
LINE
8
BLACK
6
CONTINUOUS
10
109.837
20
-102.758
11
109.798
21
-102.725
0
LINE
8
BLACK
6
CONTINUOUS
10
109.798
20
-102.725
11
109.789
21
-102.674
0
LINE
8
BLACK
6
CONTINUOUS
10
109.789
20
-102.674
11
109.815
21
-102.63
0
LINE
8
BLACK
6
CONTINUOUS
10
109.815
20
-102.63
11
109.863
21
-102.612
0
LINE
8
BLACK
6
CONTINUOUS
10
109.863
20
-102.612
11
110.074
21
-102.612
0
LINE
8
BLACK
6
CONTINUOUS
10
110.074
20
-102.612
11
110.074
21
-101.916
0
LINE
8
BLACK
6
CONTINUOUS
10
110.074
20
-101.916
11
110.011
21
-101.979
0
LINE
8
BLACK
6
CONTINUOUS
10
110.011
20
-101.979
11
109.993
21
-101.991
0
LINE
8
BLACK
6
CONTINUOUS
10
109.993
20
-101.991
11
109.992
21
-101.993
0
LINE
8
BLACK
6
CONTINUOUS
10
109.992
20
-101.993
11
109.896
21
-102.04
0
LINE
8
BLACK
6
CONTINUOUS
10
109.896
20
-102.04
11
109.871
21
-102.048
0
LINE
8
BLACK
6
CONTINUOUS
10
109.871
20
-102.048
11
109.822
21
-102.036
0
LINE
8
BLACK
6
CONTINUOUS
10
109.822
20
-102.036
11
109.791
21
-101.994
0
LINE
8
BLACK
6
CONTINUOUS
10
109.791
20
-101.994
11
109.794
21
-101.943
0
LINE
8
BLACK
6
CONTINUOUS
10
109.794
20
-101.943
11
109.829
21
-101.906
0
LINE
8
BLACK
6
CONTINUOUS
10
109.829
20
-101.906
11
109.914
21
-101.864
0
LINE
8
BLACK
6
CONTINUOUS
10
109.914
20
-101.864
11
109.995
21
-101.782
0
LINE
8
BLACK
6
CONTINUOUS
10
109.995
20
-101.782
11
110.086
21
-101.646
0
LINE
8
BLACK
6
CONTINUOUS
10
110.086
20
-101.646
11
110.104
21
-101.627
0
LINE
8
BLACK
6
CONTINUOUS
10
110.104
20
-101.627
11
110.108
21
-101.626
0
LINE
8
BLACK
6
CONTINUOUS
10
110.108
20
-101.626
11
110.111
21
-101.622
0
LINE
8
BLACK
6
CONTINUOUS
10
110.111
20
-101.622
11
110.133
21
-101.619
0
LINE
8
BLACK
6
CONTINUOUS
10
110.133
20
-101.619
11
110.153
21
-101.613
0
LINE
8
BLACK
6
CONTINUOUS
10
110.153
20
-101.613
11
110.157
21
-101.614
0
LINE
8
BLACK
6
CONTINUOUS
10
108.95
20
-101.623
11
108.982
21
-101.664
0
LINE
8
BLACK
6
CONTINUOUS
10
108.982
20
-101.664
11
109.244
21
-102.45
0
LINE
8
BLACK
6
CONTINUOUS
10
109.244
20
-102.45
11
109.506
21
-101.664
0
LINE
8
BLACK
6
CONTINUOUS
10
109.506
20
-101.664
11
109.518
21
-101.641
0
LINE
8
BLACK
6
CONTINUOUS
10
109.518
20
-101.641
11
109.562
21
-101.614
0
LINE
8
BLACK
6
CONTINUOUS
10
109.562
20
-101.614
11
109.613
21
-101.621
0
LINE
8
BLACK
6
CONTINUOUS
10
109.613
20
-101.621
11
109.647
21
-101.66
0
LINE
8
BLACK
6
CONTINUOUS
10
109.647
20
-101.66
11
109.648
21
-101.711
0
LINE
8
BLACK
6
CONTINUOUS
10
109.648
20
-101.711
11
109.315
21
-102.711
0
LINE
8
BLACK
6
CONTINUOUS
10
109.315
20
-102.711
11
109.303
21
-102.734
0
LINE
8
BLACK
6
CONTINUOUS
10
109.303
20
-102.734
11
109.301
21
-102.735
0
LINE
8
BLACK
6
CONTINUOUS
10
109.301
20
-102.735
11
109.3
21
-102.737
0
LINE
8
BLACK
6
CONTINUOUS
10
109.3
20
-102.737
11
109.279
21
-102.748
0
LINE
8
BLACK
6
CONTINUOUS
10
109.279
20
-102.748
11
109.259
21
-102.761
0
LINE
8
BLACK
6
CONTINUOUS
10
109.259
20
-102.761
11
109.257
21
-102.761
0
LINE
8
BLACK
6
CONTINUOUS
10
109.257
20
-102.761
11
109.255
21
-102.762
0
LINE
8
BLACK
6
CONTINUOUS
10
109.255
20
-102.762
11
109.232
21
-102.757
0
LINE
8
BLACK
6
CONTINUOUS
10
109.232
20
-102.757
11
109.208
21
-102.753
0
LINE
8
BLACK
6
CONTINUOUS
10
109.208
20
-102.753
11
109.207
21
-102.752
0
LINE
8
BLACK
6
CONTINUOUS
10
109.207
20
-102.752
11
109.205
21
-102.751
0
LINE
8
BLACK
6
CONTINUOUS
10
109.205
20
-102.751
11
109.19
21
-102.733
0
LINE
8
BLACK
6
CONTINUOUS
10
109.19
20
-102.733
11
109.174
21
-102.715
0
LINE
8
BLACK
6
CONTINUOUS
10
109.174
20
-102.715
11
109.174
21
-102.713
0
LINE
8
BLACK
6
CONTINUOUS
10
109.174
20
-102.713
11
109.173
21
-102.711
0
LINE
8
BLACK
6
CONTINUOUS
10
109.173
20
-102.711
11
108.839
21
-101.711
0
LINE
8
BLACK
6
CONTINUOUS
10
108.839
20
-101.711
11
108.836
21
-101.685
0
LINE
8
BLACK
6
CONTINUOUS
10
108.836
20
-101.685
11
108.854
21
-101.638
0
LINE
8
BLACK
6
CONTINUOUS
10
108.854
20
-101.638
11
108.899
21
-101.613
0
LINE
8
BLACK
6
CONTINUOUS
10
108.899
20
-101.613
11
108.95
21
-101.623
0
LINE
8
BLACK
6
CONTINUOUS
10
108.46
20
-101.617
11
108.463
21
-101.62
0
LINE
8
BLACK
6
CONTINUOUS
10
108.463
20
-101.62
11
108.468
21
-101.62
0
LINE
8
BLACK
6
CONTINUOUS
10
108.468
20
-101.62
11
108.563
21
-101.668
0
LINE
8
BLACK
6
CONTINUOUS
10
108.563
20
-101.668
11
108.581
21
-101.681
0
LINE
8
BLACK
6
CONTINUOUS
10
108.581
20
-101.681
11
108.583
21
-101.682
0
LINE
8
BLACK
6
CONTINUOUS
10
108.583
20
-101.682
11
108.63
21
-101.73
0
LINE
8
BLACK
6
CONTINUOUS
10
108.63
20
-101.73
11
108.643
21
-101.748
0
LINE
8
BLACK
6
CONTINUOUS
10
108.643
20
-101.748
11
108.644
21
-101.749
0
LINE
8
BLACK
6
CONTINUOUS
10
108.644
20
-101.749
11
108.692
21
-101.844
0
LINE
8
BLACK
6
CONTINUOUS
10
108.692
20
-101.844
11
108.699
21
-101.869
0
LINE
8
BLACK
6
CONTINUOUS
10
108.699
20
-101.869
11
108.698
21
-101.874
0
LINE
8
BLACK
6
CONTINUOUS
10
108.698
20
-101.874
11
108.7
21
-101.878
0
LINE
8
BLACK
6
CONTINUOUS
10
108.7
20
-101.878
11
108.7
21
-102.021
0
LINE
8
BLACK
6
CONTINUOUS
10
108.7
20
-102.021
11
108.695
21
-102.046
0
LINE
8
BLACK
6
CONTINUOUS
10
108.695
20
-102.046
11
108.692
21
-102.05
0
LINE
8
BLACK
6
CONTINUOUS
10
108.692
20
-102.05
11
108.692
21
-102.054
0
LINE
8
BLACK
6
CONTINUOUS
10
108.692
20
-102.054
11
108.644
21
-102.149
0
LINE
8
BLACK
6
CONTINUOUS
10
108.644
20
-102.149
11
108.631
21
-102.168
0
LINE
8
BLACK
6
CONTINUOUS
10
108.631
20
-102.168
11
108.63
21
-102.169
0
LINE
8
BLACK
6
CONTINUOUS
10
108.63
20
-102.169
11
108.583
21
-102.217
0
LINE
8
BLACK
6
CONTINUOUS
10
108.583
20
-102.217
11
108.564
21
-102.229
0
LINE
8
BLACK
6
CONTINUOUS
10
108.564
20
-102.229
11
108.563
21
-102.231
0
LINE
8
BLACK
6
CONTINUOUS
10
108.563
20
-102.231
11
108.468
21
-102.278
0
LINE
8
BLACK
6
CONTINUOUS
10
108.468
20
-102.278
11
108.443
21
-102.286
0
LINE
8
BLACK
6
CONTINUOUS
10
108.443
20
-102.286
11
108.438
21
-102.285
0
LINE
8
BLACK
6
CONTINUOUS
10
108.438
20
-102.285
11
108.435
21
-102.286
0
LINE
8
BLACK
6
CONTINUOUS
10
108.435
20
-102.286
11
108.686
21
-102.644
0
LINE
8
BLACK
6
CONTINUOUS
10
108.686
20
-102.644
11
108.697
21
-102.668
0
LINE
8
BLACK
6
CONTINUOUS
10
108.697
20
-102.668
11
108.693
21
-102.719
0
LINE
8
BLACK
6
CONTINUOUS
10
108.693
20
-102.719
11
108.656
21
-102.755
0
LINE
8
BLACK
6
CONTINUOUS
10
108.656
20
-102.755
11
108.605
21
-102.76
0
LINE
8
BLACK
6
CONTINUOUS
10
108.605
20
-102.76
11
108.563
21
-102.73
0
LINE
8
BLACK
6
CONTINUOUS
10
108.563
20
-102.73
11
108.252
21
-102.286
0
LINE
8
BLACK
6
CONTINUOUS
10
108.252
20
-102.286
11
108.128
21
-102.286
0
LINE
8
BLACK
6
CONTINUOUS
10
108.128
20
-102.286
11
108.128
21
-102.687
0
LINE
8
BLACK
6
CONTINUOUS
10
108.128
20
-102.687
11
108.124
21
-102.713
0
LINE
8
BLACK
6
CONTINUOUS
10
108.124
20
-102.713
11
108.091
21
-102.752
0
LINE
8
BLACK
6
CONTINUOUS
10
108.091
20
-102.752
11
108.04
21
-102.761
0
LINE
8
BLACK
6
CONTINUOUS
10
108.04
20
-102.761
11
107.996
21
-102.736
0
LINE
8
BLACK
6
CONTINUOUS
10
107.996
20
-102.736
11
107.978
21
-102.687
0
LINE
8
BLACK
6
CONTINUOUS
10
107.978
20
-102.687
11
107.978
21
-101.687
0
LINE
8
BLACK
6
CONTINUOUS
10
107.978
20
-101.687
11
107.98
21
-101.678
0
LINE
8
BLACK
6
CONTINUOUS
10
107.98
20
-101.678
11
107.979
21
-101.674
0
LINE
8
BLACK
6
CONTINUOUS
10
107.979
20
-101.674
11
107.981
21
-101.671
0
LINE
8
BLACK
6
CONTINUOUS
10
107.981
20
-101.671
11
107.983
21
-101.662
0
LINE
8
BLACK
6
CONTINUOUS
10
107.983
20
-101.662
11
107.995
21
-101.647
0
LINE
8
BLACK
6
CONTINUOUS
10
107.995
20
-101.647
11
108.005
21
-101.63
0
LINE
8
BLACK
6
CONTINUOUS
10
108.005
20
-101.63
11
108.011
21
-101.628
0
LINE
8
BLACK
6
CONTINUOUS
10
108.011
20
-101.628
11
108.016
21
-101.622
0
LINE
8
BLACK
6
CONTINUOUS
10
108.016
20
-101.622
11
108.035
21
-101.619
0
LINE
8
BLACK
6
CONTINUOUS
10
108.035
20
-101.619
11
108.053
21
-101.612
0
LINE
8
BLACK
6
CONTINUOUS
10
108.053
20
-101.612
11
108.434
21
-101.612
0
LINE
8
BLACK
6
CONTINUOUS
10
108.434
20
-101.612
11
108.46
21
-101.617
0
LINE
8
BLACK
6
CONTINUOUS
10
108.128
20
-101.762
11
108.128
21
-102.136
0
LINE
8
BLACK
6
CONTINUOUS
10
108.128
20
-102.136
11
108.417
21
-102.136
0
LINE
8
BLACK
6
CONTINUOUS
10
108.417
20
-102.136
11
108.485
21
-102.102
0
LINE
8
BLACK
6
CONTINUOUS
10
108.485
20
-102.102
11
108.516
21
-102.072
0
LINE
8
BLACK
6
CONTINUOUS
10
108.516
20
-102.072
11
108.55
21
-102.003
0
LINE
8
BLACK
6
CONTINUOUS
10
108.55
20
-102.003
11
108.55
21
-101.896
0
LINE
8
BLACK
6
CONTINUOUS
10
108.55
20
-101.896
11
108.516
21
-101.827
0
LINE
8
BLACK
6
CONTINUOUS
10
108.516
20
-101.827
11
108.485
21
-101.797
0
LINE
8
BLACK
6
CONTINUOUS
10
108.485
20
-101.797
11
108.417
21
-101.762
0
LINE
8
BLACK
6
CONTINUOUS
10
108.417
20
-101.762
11
108.128
21
-101.762
0
LINE
8
BLACK
6
CONTINUOUS
10
105.365
20
-59.0693
11
105.369
21
-59.0688
0
LINE
8
BLACK
6
CONTINUOUS
10
105.369
20
-59.0688
11
105.371
21
-59.0704
0
LINE
8
BLACK
6
CONTINUOUS
10
105.371
20
-59.0704
11
105.38
21
-59.0719
0
LINE
8
BLACK
6
CONTINUOUS
10
105.38
20
-59.0719
11
105.395
21
-59.0849
0
LINE
8
BLACK
6
CONTINUOUS
10
105.395
20
-59.0849
11
105.413
21
-59.0954
0
LINE
8
BLACK
6
CONTINUOUS
10
105.413
20
-59.0954
11
105.415
21
-59.101
0
LINE
8
BLACK
6
CONTINUOUS
10
105.415
20
-59.101
11
105.419
21
-59.1049
0
LINE
8
BLACK
6
CONTINUOUS
10
105.419
20
-59.1049
11
105.423
21
-59.1248
0
LINE
8
BLACK
6
CONTINUOUS
10
105.423
20
-59.1248
11
105.429
21
-59.1439
0
LINE
8
BLACK
6
CONTINUOUS
10
105.429
20
-59.1439
11
105.427
21
-59.1495
0
LINE
8
BLACK
6
CONTINUOUS
10
105.427
20
-59.1495
11
105.428
21
-59.1554
0
LINE
8
BLACK
6
CONTINUOUS
10
105.428
20
-59.1554
11
105.418
21
-59.1729
0
LINE
8
BLACK
6
CONTINUOUS
10
105.418
20
-59.1729
11
105.411
21
-59.1918
0
LINE
8
BLACK
6
CONTINUOUS
10
105.411
20
-59.1918
11
105.183
21
-59.4518
0
LINE
8
BLACK
6
CONTINUOUS
10
105.183
20
-59.4518
11
105.189
21
-59.4529
0
LINE
8
BLACK
6
CONTINUOUS
10
105.189
20
-59.4529
11
105.193
21
-59.4557
0
LINE
8
BLACK
6
CONTINUOUS
10
105.193
20
-59.4557
11
105.197
21
-59.4563
0
LINE
8
BLACK
6
CONTINUOUS
10
105.197
20
-59.4563
11
105.293
21
-59.5039
0
LINE
8
BLACK
6
CONTINUOUS
10
105.293
20
-59.5039
11
105.311
21
-59.5172
0
LINE
8
BLACK
6
CONTINUOUS
10
105.311
20
-59.5172
11
105.312
21
-59.5179
0
LINE
8
BLACK
6
CONTINUOUS
10
105.312
20
-59.5179
11
105.36
21
-59.5655
0
LINE
8
BLACK
6
CONTINUOUS
10
105.36
20
-59.5655
11
105.373
21
-59.5839
0
LINE
8
BLACK
6
CONTINUOUS
10
105.373
20
-59.5839
11
105.374
21
-59.585
0
LINE
8
BLACK
6
CONTINUOUS
10
105.374
20
-59.585
11
105.421
21
-59.6803
0
LINE
8
BLACK
6
CONTINUOUS
10
105.421
20
-59.6803
11
105.429
21
-59.7052
0
LINE
8
BLACK
6
CONTINUOUS
10
105.429
20
-59.7052
11
105.428
21
-59.7096
0
LINE
8
BLACK
6
CONTINUOUS
10
105.428
20
-59.7096
11
105.429
21
-59.7138
0
LINE
8
BLACK
6
CONTINUOUS
10
105.429
20
-59.7138
11
105.429
21
-59.9519
0
LINE
8
BLACK
6
CONTINUOUS
10
105.429
20
-59.9519
11
105.425
21
-59.9776
0
LINE
8
BLACK
6
CONTINUOUS
10
105.425
20
-59.9776
11
105.422
21
-59.981
0
LINE
8
BLACK
6
CONTINUOUS
10
105.422
20
-59.981
11
105.421
21
-59.9854
0
LINE
8
BLACK
6
CONTINUOUS
10
105.421
20
-59.9854
11
105.374
21
-60.0807
0
LINE
8
BLACK
6
CONTINUOUS
10
105.374
20
-60.0807
11
105.36
21
-60.0987
0
LINE
8
BLACK
6
CONTINUOUS
10
105.36
20
-60.0987
11
105.36
21
-60.1002
0
LINE
8
BLACK
6
CONTINUOUS
10
105.36
20
-60.1002
11
105.312
21
-60.1478
0
LINE
8
BLACK
6
CONTINUOUS
10
105.312
20
-60.1478
11
105.294
21
-60.1607
0
LINE
8
BLACK
6
CONTINUOUS
10
105.294
20
-60.1607
11
105.293
21
-60.1618
0
LINE
8
BLACK
6
CONTINUOUS
10
105.293
20
-60.1618
11
105.197
21
-60.2095
0
LINE
8
BLACK
6
CONTINUOUS
10
105.197
20
-60.2095
11
105.172
21
-60.2169
0
LINE
8
BLACK
6
CONTINUOUS
10
105.172
20
-60.2169
11
105.168
21
-60.2158
0
LINE
8
BLACK
6
CONTINUOUS
10
105.168
20
-60.2158
11
105.164
21
-60.2174
0
LINE
8
BLACK
6
CONTINUOUS
10
105.164
20
-60.2174
11
104.878
21
-60.2174
0
LINE
8
BLACK
6
CONTINUOUS
10
104.878
20
-60.2174
11
104.852
21
-60.2129
0
LINE
8
BLACK
6
CONTINUOUS
10
104.852
20
-60.2129
11
104.849
21
-60.21
0
LINE
8
BLACK
6
CONTINUOUS
10
104.849
20
-60.21
11
104.845
21
-60.2095
0
LINE
8
BLACK
6
CONTINUOUS
10
104.845
20
-60.2095
11
104.749
21
-60.1618
0
LINE
8
BLACK
6
CONTINUOUS
10
104.749
20
-60.1618
11
104.731
21
-60.1485
0
LINE
8
BLACK
6
CONTINUOUS
10
104.731
20
-60.1485
11
104.73
21
-60.1478
0
LINE
8
BLACK
6
CONTINUOUS
10
104.73
20
-60.1478
11
104.682
21
-60.1002
0
LINE
8
BLACK
6
CONTINUOUS
10
104.682
20
-60.1002
11
104.667
21
-60.0788
0
LINE
8
BLACK
6
CONTINUOUS
10
104.667
20
-60.0788
11
104.663
21
-60.0277
0
LINE
8
BLACK
6
CONTINUOUS
10
104.663
20
-60.0277
11
104.692
21
-59.9857
0
LINE
8
BLACK
6
CONTINUOUS
10
104.692
20
-59.9857
11
104.742
21
-59.9724
0
LINE
8
BLACK
6
CONTINUOUS
10
104.742
20
-59.9724
11
104.788
21
-59.9941
0
LINE
8
BLACK
6
CONTINUOUS
10
104.788
20
-59.9941
11
104.827
21
-60.0331
0
LINE
8
BLACK
6
CONTINUOUS
10
104.827
20
-60.0331
11
104.896
21
-60.0674
0
LINE
8
BLACK
6
CONTINUOUS
10
104.896
20
-60.0674
11
105.146
21
-60.0674
0
LINE
8
BLACK
6
CONTINUOUS
10
105.146
20
-60.0674
11
105.215
21
-60.0331
0
LINE
8
BLACK
6
CONTINUOUS
10
105.215
20
-60.0331
11
105.245
21
-60.0027
0
LINE
8
BLACK
6
CONTINUOUS
10
105.245
20
-60.0027
11
105.279
21
-59.9342
0
LINE
8
BLACK
6
CONTINUOUS
10
105.279
20
-59.9342
11
105.279
21
-59.7315
0
LINE
8
BLACK
6
CONTINUOUS
10
105.279
20
-59.7315
11
105.245
21
-59.663
0
LINE
8
BLACK
6
CONTINUOUS
10
105.245
20
-59.663
11
105.215
21
-59.6326
0
LINE
8
BLACK
6
CONTINUOUS
10
105.215
20
-59.6326
11
105.146
21
-59.5983
0
LINE
8
BLACK
6
CONTINUOUS
10
105.146
20
-59.5983
11
105.021
21
-59.5983
0
LINE
8
BLACK
6
CONTINUOUS
10
105.021
20
-59.5983
11
105.01
21
-59.5964
0
LINE
8
BLACK
6
CONTINUOUS
10
105.01
20
-59.5964
11
105.006
21
-59.5969
0
LINE
8
BLACK
6
CONTINUOUS
10
105.006
20
-59.5969
11
105.004
21
-59.5953
0
LINE
8
BLACK
6
CONTINUOUS
10
105.004
20
-59.5953
11
104.995
21
-59.5938
0
LINE
8
BLACK
6
CONTINUOUS
10
104.995
20
-59.5938
11
104.98
21
-59.5808
0
LINE
8
BLACK
6
CONTINUOUS
10
104.98
20
-59.5808
11
104.963
21
-59.5703
0
LINE
8
BLACK
6
CONTINUOUS
10
104.963
20
-59.5703
11
104.961
21
-59.5647
0
LINE
8
BLACK
6
CONTINUOUS
10
104.961
20
-59.5647
11
104.956
21
-59.5608
0
LINE
8
BLACK
6
CONTINUOUS
10
104.956
20
-59.5608
11
104.952
21
-59.5409
0
LINE
8
BLACK
6
CONTINUOUS
10
104.952
20
-59.5409
11
104.946
21
-59.5218
0
LINE
8
BLACK
6
CONTINUOUS
10
104.946
20
-59.5218
11
104.948
21
-59.5162
0
LINE
8
BLACK
6
CONTINUOUS
10
104.948
20
-59.5162
11
104.947
21
-59.5103
0
LINE
8
BLACK
6
CONTINUOUS
10
104.947
20
-59.5103
11
104.957
21
-59.4928
0
LINE
8
BLACK
6
CONTINUOUS
10
104.957
20
-59.4928
11
104.965
21
-59.4739
0
LINE
8
BLACK
6
CONTINUOUS
10
104.965
20
-59.4739
11
105.189
21
-59.2174
0
LINE
8
BLACK
6
CONTINUOUS
10
105.189
20
-59.2174
11
104.735
21
-59.2174
0
LINE
8
BLACK
6
CONTINUOUS
10
104.735
20
-59.2174
11
104.71
21
-59.2129
0
LINE
8
BLACK
6
CONTINUOUS
10
104.71
20
-59.2129
11
104.67
21
-59.1799
0
LINE
8
BLACK
6
CONTINUOUS
10
104.67
20
-59.1799
11
104.661
21
-59.1294
0
LINE
8
BLACK
6
CONTINUOUS
10
104.661
20
-59.1294
11
104.687
21
-59.0849
0
LINE
8
BLACK
6
CONTINUOUS
10
104.687
20
-59.0849
11
104.735
21
-59.0674
0
LINE
8
BLACK
6
CONTINUOUS
10
104.735
20
-59.0674
11
105.354
21
-59.0674
0
LINE
8
BLACK
6
CONTINUOUS
10
105.354
20
-59.0674
11
105.365
21
-59.0693
0
LINE
8
BLACK
6
CONTINUOUS
10
103.87
20
-59.0785
11
103.902
21
-59.1187
0
LINE
8
BLACK
6
CONTINUOUS
10
103.902
20
-59.1187
11
104.164
21
-59.9052
0
LINE
8
BLACK
6
CONTINUOUS
10
104.164
20
-59.9052
11
104.426
21
-59.1187
0
LINE
8
BLACK
6
CONTINUOUS
10
104.426
20
-59.1187
11
104.438
21
-59.0958
0
LINE
8
BLACK
6
CONTINUOUS
10
104.438
20
-59.0958
11
104.482
21
-59.0689
0
LINE
8
BLACK
6
CONTINUOUS
10
104.482
20
-59.0689
11
104.533
21
-59.0764
0
LINE
8
BLACK
6
CONTINUOUS
10
104.533
20
-59.0764
11
104.567
21
-59.1148
0
LINE
8
BLACK
6
CONTINUOUS
10
104.567
20
-59.1148
11
104.568
21
-59.1661
0
LINE
8
BLACK
6
CONTINUOUS
10
104.568
20
-59.1661
11
104.235
21
-60.1661
0
LINE
8
BLACK
6
CONTINUOUS
10
104.235
20
-60.1661
11
104.223
21
-60.189
0
LINE
8
BLACK
6
CONTINUOUS
10
104.223
20
-60.189
11
104.221
21
-60.1901
0
LINE
8
BLACK
6
CONTINUOUS
10
104.221
20
-60.1901
11
104.22
21
-60.1921
0
LINE
8
BLACK
6
CONTINUOUS
10
104.22
20
-60.1921
11
104.199
21
-60.2034
0
LINE
8
BLACK
6
CONTINUOUS
10
104.199
20
-60.2034
11
104.179
21
-60.2159
0
LINE
8
BLACK
6
CONTINUOUS
10
104.179
20
-60.2159
11
104.177
21
-60.2155
0
LINE
8
BLACK
6
CONTINUOUS
10
104.177
20
-60.2155
11
104.175
21
-60.2166
0
LINE
8
BLACK
6
CONTINUOUS
10
104.175
20
-60.2166
11
104.152
21
-60.2118
0
LINE
8
BLACK
6
CONTINUOUS
10
104.152
20
-60.2118
11
104.128
21
-60.2083
0
LINE
8
BLACK
6
CONTINUOUS
10
104.128
20
-60.2083
11
104.127
21
-60.2067
0
LINE
8
BLACK
6
CONTINUOUS
10
104.127
20
-60.2067
11
104.125
21
-60.2063
0
LINE
8
BLACK
6
CONTINUOUS
10
104.125
20
-60.2063
11
104.11
21
-60.1877
0
LINE
8
BLACK
6
CONTINUOUS
10
104.11
20
-60.1877
11
104.094
21
-60.1699
0
LINE
8
BLACK
6
CONTINUOUS
10
104.094
20
-60.1699
11
104.094
21
-60.1678
0
LINE
8
BLACK
6
CONTINUOUS
10
104.094
20
-60.1678
11
104.093
21
-60.1661
0
LINE
8
BLACK
6
CONTINUOUS
10
104.093
20
-60.1661
11
103.759
21
-59.1661
0
LINE
8
BLACK
6
CONTINUOUS
10
103.759
20
-59.1661
11
103.756
21
-59.1403
0
LINE
8
BLACK
6
CONTINUOUS
10
103.756
20
-59.1403
11
103.774
21
-59.0926
0
LINE
8
BLACK
6
CONTINUOUS
10
103.774
20
-59.0926
11
103.819
21
-59.0682
0
LINE
8
BLACK
6
CONTINUOUS
10
103.819
20
-59.0682
11
103.87
21
-59.0785
0
LINE
8
BLACK
6
CONTINUOUS
10
103.38
20
-59.0719
11
103.383
21
-59.0748
0
LINE
8
BLACK
6
CONTINUOUS
10
103.383
20
-59.0748
11
103.388
21
-59.0753
0
LINE
8
BLACK
6
CONTINUOUS
10
103.388
20
-59.0753
11
103.483
21
-59.1229
0
LINE
8
BLACK
6
CONTINUOUS
10
103.483
20
-59.1229
11
103.501
21
-59.1363
0
LINE
8
BLACK
6
CONTINUOUS
10
103.501
20
-59.1363
11
103.503
21
-59.137
0
LINE
8
BLACK
6
CONTINUOUS
10
103.503
20
-59.137
11
103.55
21
-59.1846
0
LINE
8
BLACK
6
CONTINUOUS
10
103.55
20
-59.1846
11
103.563
21
-59.203
0
LINE
8
BLACK
6
CONTINUOUS
10
103.563
20
-59.203
11
103.564
21
-59.2041
0
LINE
8
BLACK
6
CONTINUOUS
10
103.564
20
-59.2041
11
103.612
21
-59.2993
0
LINE
8
BLACK
6
CONTINUOUS
10
103.612
20
-59.2993
11
103.619
21
-59.3243
0
LINE
8
BLACK
6
CONTINUOUS
10
103.619
20
-59.3243
11
103.618
21
-59.3286
0
LINE
8
BLACK
6
CONTINUOUS
10
103.618
20
-59.3286
11
103.62
21
-59.3329
0
LINE
8
BLACK
6
CONTINUOUS
10
103.62
20
-59.3329
11
103.62
21
-59.4757
0
LINE
8
BLACK
6
CONTINUOUS
10
103.62
20
-59.4757
11
103.615
21
-59.5014
0
LINE
8
BLACK
6
CONTINUOUS
10
103.615
20
-59.5014
11
103.612
21
-59.5048
0
LINE
8
BLACK
6
CONTINUOUS
10
103.612
20
-59.5048
11
103.612
21
-59.5093
0
LINE
8
BLACK
6
CONTINUOUS
10
103.612
20
-59.5093
11
103.564
21
-59.6045
0
LINE
8
BLACK
6
CONTINUOUS
10
103.564
20
-59.6045
11
103.551
21
-59.6225
0
LINE
8
BLACK
6
CONTINUOUS
10
103.551
20
-59.6225
11
103.55
21
-59.624
0
LINE
8
BLACK
6
CONTINUOUS
10
103.55
20
-59.624
11
103.503
21
-59.6716
0
LINE
8
BLACK
6
CONTINUOUS
10
103.503
20
-59.6716
11
103.484
21
-59.6845
0
LINE
8
BLACK
6
CONTINUOUS
10
103.484
20
-59.6845
11
103.483
21
-59.6857
0
LINE
8
BLACK
6
CONTINUOUS
10
103.483
20
-59.6857
11
103.388
21
-59.7333
0
LINE
8
BLACK
6
CONTINUOUS
10
103.388
20
-59.7333
11
103.363
21
-59.7407
0
LINE
8
BLACK
6
CONTINUOUS
10
103.363
20
-59.7407
11
103.358
21
-59.7397
0
LINE
8
BLACK
6
CONTINUOUS
10
103.358
20
-59.7397
11
103.355
21
-59.7408
0
LINE
8
BLACK
6
CONTINUOUS
10
103.355
20
-59.7408
11
103.606
21
-60.0994
0
LINE
8
BLACK
6
CONTINUOUS
10
103.606
20
-60.0994
11
103.617
21
-60.123
0
LINE
8
BLACK
6
CONTINUOUS
10
103.617
20
-60.123
11
103.613
21
-60.1741
0
LINE
8
BLACK
6
CONTINUOUS
10
103.613
20
-60.1741
11
103.576
21
-60.2104
0
LINE
8
BLACK
6
CONTINUOUS
10
103.576
20
-60.2104
11
103.525
21
-60.2148
0
LINE
8
BLACK
6
CONTINUOUS
10
103.525
20
-60.2148
11
103.483
21
-60.1854
0
LINE
8
BLACK
6
CONTINUOUS
10
103.483
20
-60.1854
11
103.172
21
-59.7412
0
LINE
8
BLACK
6
CONTINUOUS
10
103.172
20
-59.7412
11
103.048
21
-59.7412
0
LINE
8
BLACK
6
CONTINUOUS
10
103.048
20
-59.7412
11
103.048
21
-60.1424
0
LINE
8
BLACK
6
CONTINUOUS
10
103.048
20
-60.1424
11
103.044
21
-60.168
0
LINE
8
BLACK
6
CONTINUOUS
10
103.044
20
-60.168
11
103.011
21
-60.2073
0
LINE
8
BLACK
6
CONTINUOUS
10
103.011
20
-60.2073
11
102.96
21
-60.2162
0
LINE
8
BLACK
6
CONTINUOUS
10
102.96
20
-60.2162
11
102.916
21
-60.1906
0
LINE
8
BLACK
6
CONTINUOUS
10
102.916
20
-60.1906
11
102.898
21
-60.1424
0
LINE
8
BLACK
6
CONTINUOUS
10
102.898
20
-60.1424
11
102.898
21
-59.1424
0
LINE
8
BLACK
6
CONTINUOUS
10
102.898
20
-59.1424
11
102.9
21
-59.1326
0
LINE
8
BLACK
6
CONTINUOUS
10
102.9
20
-59.1326
11
102.899
21
-59.1294
0
LINE
8
BLACK
6
CONTINUOUS
10
102.899
20
-59.1294
11
102.901
21
-59.1265
0
LINE
8
BLACK
6
CONTINUOUS
10
102.901
20
-59.1265
11
102.903
21
-59.1167
0
LINE
8
BLACK
6
CONTINUOUS
10
102.903
20
-59.1167
11
102.915
21
-59.1018
0
LINE
8
BLACK
6
CONTINUOUS
10
102.915
20
-59.1018
11
102.925
21
-59.0849
0
LINE
8
BLACK
6
CONTINUOUS
10
102.925
20
-59.0849
11
102.931
21
-59.0826
0
LINE
8
BLACK
6
CONTINUOUS
10
102.931
20
-59.0826
11
102.936
21
-59.0774
0
LINE
8
BLACK
6
CONTINUOUS
10
102.936
20
-59.0774
11
102.955
21
-59.074
0
LINE
8
BLACK
6
CONTINUOUS
10
102.955
20
-59.074
11
102.973
21
-59.0674
0
LINE
8
BLACK
6
CONTINUOUS
10
102.973
20
-59.0674
11
103.354
21
-59.0674
0
LINE
8
BLACK
6
CONTINUOUS
10
103.354
20
-59.0674
11
103.38
21
-59.0719
0
LINE
8
BLACK
6
CONTINUOUS
10
103.048
20
-59.2174
11
103.048
21
-59.5912
0
LINE
8
BLACK
6
CONTINUOUS
10
103.048
20
-59.5912
11
103.337
21
-59.5912
0
LINE
8
BLACK
6
CONTINUOUS
10
103.337
20
-59.5912
11
103.405
21
-59.5569
0
LINE
8
BLACK
6
CONTINUOUS
10
103.405
20
-59.5569
11
103.436
21
-59.5265
0
LINE
8
BLACK
6
CONTINUOUS
10
103.436
20
-59.5265
11
103.47
21
-59.458
0
LINE
8
BLACK
6
CONTINUOUS
10
103.47
20
-59.458
11
103.47
21
-59.3506
0
LINE
8
BLACK
6
CONTINUOUS
10
103.47
20
-59.3506
11
103.436
21
-59.282
0
LINE
8
BLACK
6
CONTINUOUS
10
103.436
20
-59.282
11
103.405
21
-59.2516
0
LINE
8
BLACK
6
CONTINUOUS
10
103.405
20
-59.2516
11
103.337
21
-59.2174
0
LINE
8
BLACK
6
CONTINUOUS
10
103.337
20
-59.2174
11
103.048
21
-59.2174
0
LINE
8
BLACK
6
CONTINUOUS
10
112.518
20
-57.6224
11
112.5
21
-57.58
0
LINE
8
BLACK
6
CONTINUOUS
10
112.5
20
-57.58
11
112.518
21
-57.5376
0
LINE
8
BLACK
6
CONTINUOUS
10
112.518
20
-57.5376
11
112.56
21
-57.52
0
LINE
8
BLACK
6
CONTINUOUS
10
112.56
20
-57.52
11
113.99
21
-57.52
0
LINE
8
BLACK
6
CONTINUOUS
10
113.99
20
-57.52
11
113.99
21
-52.86
0
LINE
8
BLACK
6
CONTINUOUS
10
113.99
20
-52.86
11
114.008
21
-52.8176
0
LINE
8
BLACK
6
CONTINUOUS
10
114.008
20
-52.8176
11
114.05
21
-52.8
0
LINE
8
BLACK
6
CONTINUOUS
10
114.05
20
-52.8
11
114.092
21
-52.8176
0
LINE
8
BLACK
6
CONTINUOUS
10
114.092
20
-52.8176
11
114.11
21
-52.86
0
LINE
8
BLACK
6
CONTINUOUS
10
114.11
20
-52.86
11
114.11
21
-57.58
0
LINE
8
BLACK
6
CONTINUOUS
10
114.11
20
-57.58
11
114.092
21
-57.6224
0
LINE
8
BLACK
6
CONTINUOUS
10
114.092
20
-57.6224
11
114.05
21
-57.64
0
LINE
8
BLACK
6
CONTINUOUS
10
114.05
20
-57.64
11
112.56
21
-57.64
0
LINE
8
BLACK
6
CONTINUOUS
10
112.56
20
-57.64
11
112.518
21
-57.6224
0
LINE
8
BLACK
6
CONTINUOUS
10
108.432
20
-57.5376
11
108.45
21
-57.58
0
LINE
8
BLACK
6
CONTINUOUS
10
108.45
20
-57.58
11
108.432
21
-57.6224
0
LINE
8
BLACK
6
CONTINUOUS
10
108.432
20
-57.6224
11
108.39
21
-57.64
0
LINE
8
BLACK
6
CONTINUOUS
10
108.39
20
-57.64
11
107.86
21
-57.64
0
LINE
8
BLACK
6
CONTINUOUS
10
107.86
20
-57.64
11
107.818
21
-57.6224
0
LINE
8
BLACK
6
CONTINUOUS
10
107.818
20
-57.6224
11
107.8
21
-57.58
0
LINE
8
BLACK
6
CONTINUOUS
10
107.8
20
-57.58
11
107.818
21
-57.5376
0
LINE
8
BLACK
6
CONTINUOUS
10
107.818
20
-57.5376
11
107.86
21
-57.52
0
LINE
8
BLACK
6
CONTINUOUS
10
107.86
20
-57.52
11
108.39
21
-57.52
0
LINE
8
BLACK
6
CONTINUOUS
10
108.39
20
-57.52
11
108.432
21
-57.5376
0
LINE
8
BLACK
6
CONTINUOUS
10
110.882
20
-57.5376
11
110.9
21
-57.58
0
LINE
8
BLACK
6
CONTINUOUS
10
110.9
20
-57.58
11
110.882
21
-57.6224
0
LINE
8
BLACK
6
CONTINUOUS
10
110.882
20
-57.6224
11
110.84
21
-57.64
0
LINE
8
BLACK
6
CONTINUOUS
10
110.84
20
-57.64
11
110.01
21
-57.64
0
LINE
8
BLACK
6
CONTINUOUS
10
110.01
20
-57.64
11
109.968
21
-57.6224
0
LINE
8
BLACK
6
CONTINUOUS
10
109.968
20
-57.6224
11
109.95
21
-57.58
0
LINE
8
BLACK
6
CONTINUOUS
10
109.95
20
-57.58
11
109.968
21
-57.5376
0
LINE
8
BLACK
6
CONTINUOUS
10
109.968
20
-57.5376
11
110.01
21
-57.52
0
LINE
8
BLACK
6
CONTINUOUS
10
110.01
20
-57.52
11
110.84
21
-57.52
0
LINE
8
BLACK
6
CONTINUOUS
10
110.84
20
-57.52
11
110.882
21
-57.5376
0
LINE
8
BLACK
6
CONTINUOUS
10
104.352
20
-52.8176
11
104.37
21
-52.86
0
LINE
8
BLACK
6
CONTINUOUS
10
104.37
20
-52.86
11
104.37
21
-57.52
0
LINE
8
BLACK
6
CONTINUOUS
10
104.37
20
-57.52
11
105.49
21
-57.52
0
LINE
8
BLACK
6
CONTINUOUS
10
105.49
20
-57.52
11
105.532
21
-57.5376
0
LINE
8
BLACK
6
CONTINUOUS
10
105.532
20
-57.5376
11
105.55
21
-57.58
0
LINE
8
BLACK
6
CONTINUOUS
10
105.55
20
-57.58
11
105.532
21
-57.6224
0
LINE
8
BLACK
6
CONTINUOUS
10
105.532
20
-57.6224
11
105.49
21
-57.64
0
LINE
8
BLACK
6
CONTINUOUS
10
105.49
20
-57.64
11
104.31
21
-57.64
0
LINE
8
BLACK
6
CONTINUOUS
10
104.31
20
-57.64
11
104.268
21
-57.6224
0
LINE
8
BLACK
6
CONTINUOUS
10
104.268
20
-57.6224
11
104.25
21
-57.58
0
LINE
8
BLACK
6
CONTINUOUS
10
104.25
20
-57.58
11
104.25
21
-52.86
0
LINE
8
BLACK
6
CONTINUOUS
10
104.25
20
-52.86
11
104.268
21
-52.8176
0
LINE
8
BLACK
6
CONTINUOUS
10
104.268
20
-52.8176
11
104.31
21
-52.8
0
LINE
8
BLACK
6
CONTINUOUS
10
104.31
20
-52.8
11
104.352
21
-52.8176
0
LINE
8
BLACK
6
CONTINUOUS
10
114.092
20
-45.9476
11
114.11
21
-45.99
0
LINE
8
BLACK
6
CONTINUOUS
10
114.11
20
-45.99
11
114.11
21
-49.05
0
LINE
8
BLACK
6
CONTINUOUS
10
114.11
20
-49.05
11
114.092
21
-49.0924
0
LINE
8
BLACK
6
CONTINUOUS
10
114.092
20
-49.0924
11
114.05
21
-49.11
0
LINE
8
BLACK
6
CONTINUOUS
10
114.05
20
-49.11
11
114.008
21
-49.0924
0
LINE
8
BLACK
6
CONTINUOUS
10
114.008
20
-49.0924
11
113.99
21
-49.05
0
LINE
8
BLACK
6
CONTINUOUS
10
113.99
20
-49.05
11
113.99
21
-46.05
0
LINE
8
BLACK
6
CONTINUOUS
10
113.99
20
-46.05
11
104.37
21
-46.05
0
LINE
8
BLACK
6
CONTINUOUS
10
104.37
20
-46.05
11
104.37
21
-49.05
0
LINE
8
BLACK
6
CONTINUOUS
10
104.37
20
-49.05
11
104.352
21
-49.0924
0
LINE
8
BLACK
6
CONTINUOUS
10
104.352
20
-49.0924
11
104.31
21
-49.11
0
LINE
8
BLACK
6
CONTINUOUS
10
104.31
20
-49.11
11
104.268
21
-49.0924
0
LINE
8
BLACK
6
CONTINUOUS
10
104.268
20
-49.0924
11
104.25
21
-49.05
0
LINE
8
BLACK
6
CONTINUOUS
10
104.25
20
-49.05
11
104.25
21
-45.99
0
LINE
8
BLACK
6
CONTINUOUS
10
104.25
20
-45.99
11
104.268
21
-45.9476
0
LINE
8
BLACK
6
CONTINUOUS
10
104.268
20
-45.9476
11
104.31
21
-45.93
0
LINE
8
BLACK
6
CONTINUOUS
10
104.31
20
-45.93
11
114.05
21
-45.93
0
LINE
8
BLACK
6
CONTINUOUS
10
114.05
20
-45.93
11
114.092
21
-45.9476
0
LINE
8
BLACK
6
CONTINUOUS
10
103.886
20
-164.87
11
103.928
21
-164.726
0
LINE
8
BLACK
6
CONTINUOUS
10
103.928
20
-164.726
11
104.006
21
-164.599
0
LINE
8
BLACK
6
CONTINUOUS
10
104.006
20
-164.599
11
104.116
21
-164.498
0
LINE
8
BLACK
6
CONTINUOUS
10
104.116
20
-164.498
11
104.249
21
-164.431
0
LINE
8
BLACK
6
CONTINUOUS
10
104.249
20
-164.431
11
104.395
21
-164.401
0
LINE
8
BLACK
6
CONTINUOUS
10
104.395
20
-164.401
11
104.544
21
-164.412
0
LINE
8
BLACK
6
CONTINUOUS
10
104.544
20
-164.412
11
104.685
21
-164.463
0
LINE
8
BLACK
6
CONTINUOUS
10
104.685
20
-164.463
11
104.807
21
-164.549
0
LINE
8
BLACK
6
CONTINUOUS
10
104.807
20
-164.549
11
104.9
21
-164.665
0
LINE
8
BLACK
6
CONTINUOUS
10
104.9
20
-164.665
11
104.96
21
-164.802
0
LINE
8
BLACK
6
CONTINUOUS
10
104.96
20
-164.802
11
104.98
21
-164.95
0
LINE
8
BLACK
6
CONTINUOUS
10
104.98
20
-164.95
11
104.98
21
-165.65
0
LINE
8
BLACK
6
CONTINUOUS
10
104.98
20
-165.65
11
104.974
21
-165.73
0
LINE
8
BLACK
6
CONTINUOUS
10
104.974
20
-165.73
11
104.932
21
-165.874
0
LINE
8
BLACK
6
CONTINUOUS
10
104.932
20
-165.874
11
104.854
21
-166.001
0
LINE
8
BLACK
6
CONTINUOUS
10
104.854
20
-166.001
11
104.744
21
-166.102
0
LINE
8
BLACK
6
CONTINUOUS
10
104.744
20
-166.102
11
104.611
21
-166.169
0
LINE
8
BLACK
6
CONTINUOUS
10
104.611
20
-166.169
11
104.465
21
-166.199
0
LINE
8
BLACK
6
CONTINUOUS
10
104.465
20
-166.199
11
104.316
21
-166.188
0
LINE
8
BLACK
6
CONTINUOUS
10
104.316
20
-166.188
11
104.175
21
-166.137
0
LINE
8
BLACK
6
CONTINUOUS
10
104.175
20
-166.137
11
104.053
21
-166.051
0
LINE
8
BLACK
6
CONTINUOUS
10
104.053
20
-166.051
11
103.96
21
-165.935
0
LINE
8
BLACK
6
CONTINUOUS
10
103.96
20
-165.935
11
103.9
21
-165.798
0
LINE
8
BLACK
6
CONTINUOUS
10
103.9
20
-165.798
11
103.88
21
-165.65
0
LINE
8
BLACK
6
CONTINUOUS
10
103.88
20
-165.65
11
103.88
21
-164.95
0
LINE
8
BLACK
6
CONTINUOUS
10
103.88
20
-164.95
11
103.886
21
-164.87
0
LINE
8
BLACK
6
CONTINUOUS
10
113.386
20
-164.87
11
113.428
21
-164.726
0
LINE
8
BLACK
6
CONTINUOUS
10
113.428
20
-164.726
11
113.506
21
-164.599
0
LINE
8
BLACK
6
CONTINUOUS
10
113.506
20
-164.599
11
113.616
21
-164.498
0
LINE
8
BLACK
6
CONTINUOUS
10
113.616
20
-164.498
11
113.749
21
-164.431
0
LINE
8
BLACK
6
CONTINUOUS
10
113.749
20
-164.431
11
113.895
21
-164.401
0
LINE
8
BLACK
6
CONTINUOUS
10
113.895
20
-164.401
11
114.044
21
-164.412
0
LINE
8
BLACK
6
CONTINUOUS
10
114.044
20
-164.412
11
114.185
21
-164.463
0
LINE
8
BLACK
6
CONTINUOUS
10
114.185
20
-164.463
11
114.307
21
-164.549
0
LINE
8
BLACK
6
CONTINUOUS
10
114.307
20
-164.549
11
114.4
21
-164.665
0
LINE
8
BLACK
6
CONTINUOUS
10
114.4
20
-164.665
11
114.46
21
-164.802
0
LINE
8
BLACK
6
CONTINUOUS
10
114.46
20
-164.802
11
114.48
21
-164.95
0
LINE
8
BLACK
6
CONTINUOUS
10
114.48
20
-164.95
11
114.48
21
-165.65
0
LINE
8
BLACK
6
CONTINUOUS
10
114.48
20
-165.65
11
114.474
21
-165.73
0
LINE
8
BLACK
6
CONTINUOUS
10
114.474
20
-165.73
11
114.432
21
-165.874
0
LINE
8
BLACK
6
CONTINUOUS
10
114.432
20
-165.874
11
114.354
21
-166.001
0
LINE
8
BLACK
6
CONTINUOUS
10
114.354
20
-166.001
11
114.244
21
-166.102
0
LINE
8
BLACK
6
CONTINUOUS
10
114.244
20
-166.102
11
114.111
21
-166.169
0
LINE
8
BLACK
6
CONTINUOUS
10
114.111
20
-166.169
11
113.965
21
-166.199
0
LINE
8
BLACK
6
CONTINUOUS
10
113.965
20
-166.199
11
113.816
21
-166.188
0
LINE
8
BLACK
6
CONTINUOUS
10
113.816
20
-166.188
11
113.675
21
-166.137
0
LINE
8
BLACK
6
CONTINUOUS
10
113.675
20
-166.137
11
113.553
21
-166.051
0
LINE
8
BLACK
6
CONTINUOUS
10
113.553
20
-166.051
11
113.46
21
-165.935
0
LINE
8
BLACK
6
CONTINUOUS
10
113.46
20
-165.935
11
113.4
21
-165.798
0
LINE
8
BLACK
6
CONTINUOUS
10
113.4
20
-165.798
11
113.38
21
-165.65
0
LINE
8
BLACK
6
CONTINUOUS
10
113.38
20
-165.65
11
113.38
21
-164.95
0
LINE
8
BLACK
6
CONTINUOUS
10
113.38
20
-164.95
11
113.386
21
-164.87
0
CIRCLE
8
BLACK
10
106.68
20
-172.8
40
0.5
0
CIRCLE
8
BLACK
10
109.18
20
-172.8
40
0.5
0
CIRCLE
8
BLACK
10
111.68
20
-172.8
40
0.5
0
CIRCLE
8
BLACK
10
106.68
20
-175.3
40
0.5
0
CIRCLE
8
BLACK
10
109.18
20
-175.3
40
0.5
0
CIRCLE
8
BLACK
10
111.68
20
-175.3
40
0.5
0
CIRCLE
8
BLACK
10
127.51
20
-217.55
40
0.925
0
CIRCLE
8
BLACK
10
127.51
20
-222.25
40
0.925
0
CIRCLE
8
BLACK
10
127.51
20
-226.95
40
0.925
0
CIRCLE
8
BLACK
10
122.68
20
-217.55
40
0.925
0
CIRCLE
8
BLACK
10
122.68
20
-222.25
40
0.925
0
CIRCLE
8
BLACK
10
122.68
20
-226.95
40
0.925
0
CIRCLE
8
BLACK
10
95.76
20
-217.55
40
0.925
0
CIRCLE
8
BLACK
10
95.76
20
-222.25
40
0.925
0
CIRCLE
8
BLACK
10
95.76
20
-226.95
40
0.925
0
CIRCLE
8
BLACK
10
90.93
20
-217.55
40
0.925
0
CIRCLE
8
BLACK
10
90.93
20
-222.25
40
0.925
0
CIRCLE
8
BLACK
10
90.93
20
-226.95
40
0.925
0
LINE
8
BLACK
6
CONTINUOUS
10
113.386
20
-50.5297
11
113.428
21
-50.3863
0
LINE
8
BLACK
6
CONTINUOUS
10
113.428
20
-50.3863
11
113.506
21
-50.2594
0
LINE
8
BLACK
6
CONTINUOUS
10
113.506
20
-50.2594
11
113.616
21
-50.1584
0
LINE
8
BLACK
6
CONTINUOUS
10
113.616
20
-50.1584
11
113.749
21
-50.0906
0
LINE
8
BLACK
6
CONTINUOUS
10
113.749
20
-50.0906
11
113.895
21
-50.0611
0
LINE
8
BLACK
6
CONTINUOUS
10
113.895
20
-50.0611
11
114.044
21
-50.072
0
LINE
8
BLACK
6
CONTINUOUS
10
114.044
20
-50.072
11
114.185
21
-50.1226
0
LINE
8
BLACK
6
CONTINUOUS
10
114.185
20
-50.1226
11
114.307
21
-50.2091
0
LINE
8
BLACK
6
CONTINUOUS
10
114.307
20
-50.2091
11
114.4
21
-50.3251
0
LINE
8
BLACK
6
CONTINUOUS
10
114.4
20
-50.3251
11
114.46
21
-50.4621
0
LINE
8
BLACK
6
CONTINUOUS
10
114.46
20
-50.4621
11
114.48
21
-50.61
0
LINE
8
BLACK
6
CONTINUOUS
10
114.48
20
-50.61
11
114.48
21
-51.31
0
LINE
8
BLACK
6
CONTINUOUS
10
114.48
20
-51.31
11
114.474
21
-51.3903
0
LINE
8
BLACK
6
CONTINUOUS
10
114.474
20
-51.3903
11
114.432
21
-51.5337
0
LINE
8
BLACK
6
CONTINUOUS
10
114.432
20
-51.5337
11
114.354
21
-51.6606
0
LINE
8
BLACK
6
CONTINUOUS
10
114.354
20
-51.6606
11
114.244
21
-51.7616
0
LINE
8
BLACK
6
CONTINUOUS
10
114.244
20
-51.7616
11
114.111
21
-51.8294
0
LINE
8
BLACK
6
CONTINUOUS
10
114.111
20
-51.8294
11
113.965
21
-51.8589
0
LINE
8
BLACK
6
CONTINUOUS
10
113.965
20
-51.8589
11
113.816
21
-51.848
0
LINE
8
BLACK
6
CONTINUOUS
10
113.816
20
-51.848
11
113.675
21
-51.7974
0
LINE
8
BLACK
6
CONTINUOUS
10
113.675
20
-51.7974
11
113.553
21
-51.7109
0
LINE
8
BLACK
6
CONTINUOUS
10
113.553
20
-51.7109
11
113.46
21
-51.5949
0
LINE
8
BLACK
6
CONTINUOUS
10
113.46
20
-51.5949
11
113.4
21
-51.4579
0
LINE
8
BLACK
6
CONTINUOUS
10
113.4
20
-51.4579
11
113.38
21
-51.31
0
LINE
8
BLACK
6
CONTINUOUS
10
113.38
20
-51.31
11
113.38
21
-50.61
0
LINE
8
BLACK
6
CONTINUOUS
10
113.38
20
-50.61
11
113.386
21
-50.5297
0
LINE
8
BLACK
6
CONTINUOUS
10
103.886
20
-50.5297
11
103.928
21
-50.3863
0
LINE
8
BLACK
6
CONTINUOUS
10
103.928
20
-50.3863
11
104.006
21
-50.2594
0
LINE
8
BLACK
6
CONTINUOUS
10
104.006
20
-50.2594
11
104.116
21
-50.1584
0
LINE
8
BLACK
6
CONTINUOUS
10
104.116
20
-50.1584
11
104.249
21
-50.0906
0
LINE
8
BLACK
6
CONTINUOUS
10
104.249
20
-50.0906
11
104.395
21
-50.0611
0
LINE
8
BLACK
6
CONTINUOUS
10
104.395
20
-50.0611
11
104.544
21
-50.072
0
LINE
8
BLACK
6
CONTINUOUS
10
104.544
20
-50.072
11
104.685
21
-50.1226
0
LINE
8
BLACK
6
CONTINUOUS
10
104.685
20
-50.1226
11
104.807
21
-50.2091
0
LINE
8
BLACK
6
CONTINUOUS
10
104.807
20
-50.2091
11
104.9
21
-50.3251
0
LINE
8
BLACK
6
CONTINUOUS
10
104.9
20
-50.3251
11
104.96
21
-50.4621
0
LINE
8
BLACK
6
CONTINUOUS
10
104.96
20
-50.4621
11
104.98
21
-50.61
0
LINE
8
BLACK
6
CONTINUOUS
10
104.98
20
-50.61
11
104.98
21
-51.31
0
LINE
8
BLACK
6
CONTINUOUS
10
104.98
20
-51.31
11
104.974
21
-51.3903
0
LINE
8
BLACK
6
CONTINUOUS
10
104.974
20
-51.3903
11
104.932
21
-51.5337
0
LINE
8
BLACK
6
CONTINUOUS
10
104.932
20
-51.5337
11
104.854
21
-51.6606
0
LINE
8
BLACK
6
CONTINUOUS
10
104.854
20
-51.6606
11
104.744
21
-51.7616
0
LINE
8
BLACK
6
CONTINUOUS
10
104.744
20
-51.7616
11
104.611
21
-51.8294
0
LINE
8
BLACK
6
CONTINUOUS
10
104.611
20
-51.8294
11
104.465
21
-51.8589
0
LINE
8
BLACK
6
CONTINUOUS
10
104.465
20
-51.8589
11
104.316
21
-51.848
0
LINE
8
BLACK
6
CONTINUOUS
10
104.316
20
-51.848
11
104.175
21
-51.7974
0
LINE
8
BLACK
6
CONTINUOUS
10
104.175
20
-51.7974
11
104.053
21
-51.7109
0
LINE
8
BLACK
6
CONTINUOUS
10
104.053
20
-51.7109
11
103.96
21
-51.5949
0
LINE
8
BLACK
6
CONTINUOUS
10
103.96
20
-51.5949
11
103.9
21
-51.4579
0
LINE
8
BLACK
6
CONTINUOUS
10
103.9
20
-51.4579
11
103.88
21
-51.31
0
LINE
8
BLACK
6
CONTINUOUS
10
103.88
20
-51.31
11
103.88
21
-50.61
0
LINE
8
BLACK
6
CONTINUOUS
10
103.88
20
-50.61
11
103.886
21
-50.5297
0
CIRCLE
8
BLACK
10
106.68
20
-58.46
40
0.5
0
CIRCLE
8
BLACK
10
109.18
20
-58.46
40
0.5
0
CIRCLE
8
BLACK
10
111.68
20
-58.46
40
0.5
0
CIRCLE
8
BLACK
10
106.68
20
-60.96
40
0.5
0
CIRCLE
8
BLACK
10
109.18
20
-60.96
40
0.5
0
CIRCLE
8
BLACK
10
111.68
20
-60.96
40
0.5
0
CIRCLE
8
BLACK
10
125.095
20
-204.475
40
0.45
0
CIRCLE
8
BLACK
10
125.095
20
-201.935
40
0.45
0
LINE
8
BLACK
6
CONTINUOUS
10
113.386
20
-107.68
11
113.428
21
-107.536
0
LINE
8
BLACK
6
CONTINUOUS
10
113.428
20
-107.536
11
113.506
21
-107.409
0
LINE
8
BLACK
6
CONTINUOUS
10
113.506
20
-107.409
11
113.616
21
-107.308
0
LINE
8
BLACK
6
CONTINUOUS
10
113.616
20
-107.308
11
113.749
21
-107.241
0
LINE
8
BLACK
6
CONTINUOUS
10
113.749
20
-107.241
11
113.895
21
-107.211
0
LINE
8
BLACK
6
CONTINUOUS
10
113.895
20
-107.211
11
114.044
21
-107.222
0
LINE
8
BLACK
6
CONTINUOUS
10
114.044
20
-107.222
11
114.185
21
-107.273
0
LINE
8
BLACK
6
CONTINUOUS
10
114.185
20
-107.273
11
114.307
21
-107.359
0
LINE
8
BLACK
6
CONTINUOUS
10
114.307
20
-107.359
11
114.4
21
-107.475
0
LINE
8
BLACK
6
CONTINUOUS
10
114.4
20
-107.475
11
114.46
21
-107.612
0
LINE
8
BLACK
6
CONTINUOUS
10
114.46
20
-107.612
11
114.48
21
-107.76
0
LINE
8
BLACK
6
CONTINUOUS
10
114.48
20
-107.76
11
114.48
21
-108.46
0
LINE
8
BLACK
6
CONTINUOUS
10
114.48
20
-108.46
11
114.474
21
-108.54
0
LINE
8
BLACK
6
CONTINUOUS
10
114.474
20
-108.54
11
114.432
21
-108.684
0
LINE
8
BLACK
6
CONTINUOUS
10
114.432
20
-108.684
11
114.354
21
-108.811
0
LINE
8
BLACK
6
CONTINUOUS
10
114.354
20
-108.811
11
114.244
21
-108.912
0
LINE
8
BLACK
6
CONTINUOUS
10
114.244
20
-108.912
11
114.111
21
-108.979
0
LINE
8
BLACK
6
CONTINUOUS
10
114.111
20
-108.979
11
113.965
21
-109.009
0
LINE
8
BLACK
6
CONTINUOUS
10
113.965
20
-109.009
11
113.816
21
-108.998
0
LINE
8
BLACK
6
CONTINUOUS
10
113.816
20
-108.998
11
113.675
21
-108.947
0
LINE
8
BLACK
6
CONTINUOUS
10
113.675
20
-108.947
11
113.553
21
-108.861
0
LINE
8
BLACK
6
CONTINUOUS
10
113.553
20
-108.861
11
113.46
21
-108.745
0
LINE
8
BLACK
6
CONTINUOUS
10
113.46
20
-108.745
11
113.4
21
-108.608
0
LINE
8
BLACK
6
CONTINUOUS
10
113.4
20
-108.608
11
113.38
21
-108.46
0
LINE
8
BLACK
6
CONTINUOUS
10
113.38
20
-108.46
11
113.38
21
-107.76
0
LINE
8
BLACK
6
CONTINUOUS
10
113.38
20
-107.76
11
113.386
21
-107.68
0
LINE
8
BLACK
6
CONTINUOUS
10
103.886
20
-107.68
11
103.928
21
-107.536
0
LINE
8
BLACK
6
CONTINUOUS
10
103.928
20
-107.536
11
104.006
21
-107.409
0
LINE
8
BLACK
6
CONTINUOUS
10
104.006
20
-107.409
11
104.116
21
-107.308
0
LINE
8
BLACK
6
CONTINUOUS
10
104.116
20
-107.308
11
104.249
21
-107.241
0
LINE
8
BLACK
6
CONTINUOUS
10
104.249
20
-107.241
11
104.395
21
-107.211
0
LINE
8
BLACK
6
CONTINUOUS
10
104.395
20
-107.211
11
104.544
21
-107.222
0
LINE
8
BLACK
6
CONTINUOUS
10
104.544
20
-107.222
11
104.685
21
-107.273
0
LINE
8
BLACK
6
CONTINUOUS
10
104.685
20
-107.273
11
104.807
21
-107.359
0
LINE
8
BLACK
6
CONTINUOUS
10
104.807
20
-107.359
11
104.9
21
-107.475
0
LINE
8
BLACK
6
CONTINUOUS
10
104.9
20
-107.475
11
104.96
21
-107.612
0
LINE
8
BLACK
6
CONTINUOUS
10
104.96
20
-107.612
11
104.98
21
-107.76
0
LINE
8
BLACK
6
CONTINUOUS
10
104.98
20
-107.76
11
104.98
21
-108.46
0
LINE
8
BLACK
6
CONTINUOUS
10
104.98
20
-108.46
11
104.974
21
-108.54
0
LINE
8
BLACK
6
CONTINUOUS
10
104.974
20
-108.54
11
104.932
21
-108.684
0
LINE
8
BLACK
6
CONTINUOUS
10
104.932
20
-108.684
11
104.854
21
-108.811
0
LINE
8
BLACK
6
CONTINUOUS
10
104.854
20
-108.811
11
104.744
21
-108.912
0
LINE
8
BLACK
6
CONTINUOUS
10
104.744
20
-108.912
11
104.611
21
-108.979
0
LINE
8
BLACK
6
CONTINUOUS
10
104.611
20
-108.979
11
104.465
21
-109.009
0
LINE
8
BLACK
6
CONTINUOUS
10
104.465
20
-109.009
11
104.316
21
-108.998
0
LINE
8
BLACK
6
CONTINUOUS
10
104.316
20
-108.998
11
104.175
21
-108.947
0
LINE
8
BLACK
6
CONTINUOUS
10
104.175
20
-108.947
11
104.053
21
-108.861
0
LINE
8
BLACK
6
CONTINUOUS
10
104.053
20
-108.861
11
103.96
21
-108.745
0
LINE
8
BLACK
6
CONTINUOUS
10
103.96
20
-108.745
11
103.9
21
-108.608
0
LINE
8
BLACK
6
CONTINUOUS
10
103.9
20
-108.608
11
103.88
21
-108.46
0
LINE
8
BLACK
6
CONTINUOUS
10
103.88
20
-108.46
11
103.88
21
-107.76
0
LINE
8
BLACK
6
CONTINUOUS
10
103.88
20
-107.76
11
103.886
21
-107.68
0
CIRCLE
8
BLACK
10
106.68
20
-115.61
40
0.5
0
CIRCLE
8
BLACK
10
109.18
20
-115.61
40
0.5
0
CIRCLE
8
BLACK
10
111.68
20
-115.61
40
0.5
0
CIRCLE
8
BLACK
10
106.68
20
-118.11
40
0.5
0
CIRCLE
8
BLACK
10
109.18
20
-118.11
40
0.5
0
CIRCLE
8
BLACK
10
111.68
20
-118.11
40
0.5
0
CIRCLE
8
BLACK
10
93.345
20
-204.475
40
0.45
0
CIRCLE
8
BLACK
10
93.345
20
-201.935
40
0.45
0
CIRCLE
8
BLACK
10
91.3384
20
-172.771
40
0.5
0
CIRCLE
8
BLACK
10
118.276
20
-145.868
40
0.4
0
CIRCLE
8
BLACK
10
115.776
20
-145.868
40
0.4
0
CIRCLE
8
BLACK
10
131.064
20
-140.828
40
0.4
0
CIRCLE
8
BLACK
10
131.064
20
-145.828
40
0.4
0
CIRCLE
8
BLACK
10
104.648
20
-144.344
40
0.4
0
CIRCLE
8
BLACK
10
102.108
20
-141.804
40
0.4
0
CIRCLE
8
BLACK
10
99.568
20
-144.344
40
0.4
0
CIRCLE
8
BLACK
10
101.774
20
-91.44
40
0.4
0
CIRCLE
8
BLACK
10
96.774
20
-91.44
40
0.4
0
CIRCLE
8
BLACK
10
128.27
20
-125.095
40
0.595
0
CIRCLE
8
BLACK
10
128.27
20
-122.555
40
0.595
0
CIRCLE
8
BLACK
10
128.27
20
-120.015
40
0.595
0
CIRCLE
8
BLACK
10
128.27
20
-117.475
40
0.595
0
CIRCLE
8
BLACK
10
114.38
20
-188.722
40
0.4
0
CIRCLE
8
BLACK
10
119.38
20
-188.722
40
0.4
0
CIRCLE
8
BLACK
10
114.212
20
-210.185
40
0.4
0
CIRCLE
8
BLACK
10
111.712
20
-210.185
40
0.4
0
CIRCLE
8
BLACK
10
128.016
20
-154.606
40
0.4
0
CIRCLE
8
BLACK
10
128.016
20
-149.606
40
0.4
0
CIRCLE
8
BLACK
10
90.384
20
-95.758
40
0.4
0
CIRCLE
8
BLACK
10
87.884
20
-95.758
40
0.4
0
CIRCLE
8
BLACK
10
116.586
20
-85.344
40
0.4
0
CIRCLE
8
BLACK
10
121.586
20
-85.344
40
0.4
0
CIRCLE
8
BLACK
10
114.3
20
-222.885
40
0.5
0
CIRCLE
8
BLACK
10
114.3
20
-220.345
40
0.5
0
CIRCLE
8
BLACK
10
111.76
20
-222.885
40
0.5
0
CIRCLE
8
BLACK
10
111.76
20
-220.345
40
0.5
0
CIRCLE
8
BLACK
10
109.22
20
-222.885
40
0.5
0
CIRCLE
8
BLACK
10
109.22
20
-220.345
40
0.5
0
CIRCLE
8
BLACK
10
106.68
20
-222.885
40
0.5
0
CIRCLE
8
BLACK
10
106.68
20
-220.345
40
0.5
0
CIRCLE
8
BLACK
10
104.14
20
-222.885
40
0.5
0
CIRCLE
8
BLACK
10
104.14
20
-220.345
40
0.5
0
CIRCLE
8
BLACK
10
96.774
20
-97.536
40
0.4
0
CIRCLE
8
BLACK
10
101.774
20
-97.536
40
0.4
0
CIRCLE
8
BLACK
10
104.648
20
-149.606
40
0.4
0
CIRCLE
8
BLACK
10
104.648
20
-154.606
40
0.4
0
CIRCLE
8
BLACK
10
108.204
20
-140.788
40
0.4
0
CIRCLE
8
BLACK
10
108.204
20
-145.788
40
0.4
0
CIRCLE
8
BLACK
10
114.38
20
-196.342
40
0.4
0
CIRCLE
8
BLACK
10
119.38
20
-196.342
40
0.4
0
CIRCLE
8
BLACK
10
114.38
20
-181.102
40
0.4
0
CIRCLE
8
BLACK
10
119.38
20
-181.102
40
0.4
0
CIRCLE
8
BLACK
10
128.27
20
-191.135
40
0.595
0
CIRCLE
8
BLACK
10
128.27
20
-188.595
40
0.595
0
CIRCLE
8
BLACK
10
128.27
20
-186.055
40
0.595
0
CIRCLE
8
BLACK
10
128.27
20
-183.515
40
0.595
0
CIRCLE
8
BLACK
10
128.27
20
-180.975
40
0.595
0
CIRCLE
8
BLACK
10
128.27
20
-178.435
40
0.595
0
CIRCLE
8
BLACK
10
128.27
20
-175.895
40
0.595
0
CIRCLE
8
BLACK
10
101.774
20
-85.344
40
0.4
0
CIRCLE
8
BLACK
10
96.774
20
-85.344
40
0.4
0
CIRCLE
8
BLACK
10
91.3638
20
-162.763
40
0.5
0
CIRCLE
8
BLACK
10
117.856
20
-153.234
40
0.4
0
CIRCLE
8
BLACK
10
120.396
20
-153.234
40
0.4
0
CIRCLE
8
BLACK
10
122.936
20
-153.234
40
0.4
0
CIRCLE
8
BLACK
10
121.586
20
-103.632
40
0.4
0
CIRCLE
8
BLACK
10
116.586
20
-103.632
40
0.4
0
CIRCLE
8
BLACK
10
116.332
20
-76.454
40
0.4
0
CIRCLE
8
BLACK
10
113.832
20
-76.454
40
0.4
0
CIRCLE
8
BLACK
10
116.586
20
-91.44
40
0.4
0
CIRCLE
8
BLACK
10
121.586
20
-91.44
40
0.4
0
CIRCLE
8
BLACK
10
95.504
20
-146.384
40
0.4
0
CIRCLE
8
BLACK
10
93.004
20
-146.384
40
0.4
0
CIRCLE
8
BLACK
10
96.774
20
-103.632
40
0.4
0
CIRCLE
8
BLACK
10
101.774
20
-103.632
40
0.4
0
CIRCLE
8
BLACK
10
102.87
20
-121.285
40
0.5
0
CIRCLE
8
BLACK
10
109.22
20
-136.144
40
0.4
0
CIRCLE
8
BLACK
10
106.68
20
-133.604
40
0.4
0
CIRCLE
8
BLACK
10
104.14
20
-136.144
40
0.4
0
CIRCLE
8
BLACK
10
114.38
20
-172.974
40
0.4
0
CIRCLE
8
BLACK
10
119.38
20
-172.974
40
0.4
0
CIRCLE
8
BLACK
10
127.508
20
-136.224
40
0.4
0
CIRCLE
8
BLACK
10
124.968
20
-133.684
40
0.4
0
CIRCLE
8
BLACK
10
122.428
20
-136.224
40
0.4
0
CIRCLE
8
BLACK
10
127.508
20
-144.352
40
0.4
0
CIRCLE
8
BLACK
10
124.968
20
-141.812
40
0.4
0
CIRCLE
8
BLACK
10
122.428
20
-144.352
40
0.4
0
CIRCLE
8
BLACK
10
88.9
20
-120.65
40
0.595
0
CIRCLE
8
BLACK
10
88.9
20
-123.19
40
0.595
0
CIRCLE
8
BLACK
10
88.9
20
-125.73
40
0.595
0
CIRCLE
8
BLACK
10
88.9
20
-128.27
40
0.595
0
CIRCLE
8
BLACK
10
88.9
20
-130.81
40
0.595
0
CIRCLE
8
BLACK
10
88.9
20
-133.35
40
0.595
0
CIRCLE
8
BLACK
10
88.9
20
-135.89
40
0.595
0
CIRCLE
8
BLACK
10
88.9
20
-138.43
40
0.595
0
CIRCLE
8
BLACK
10
106.592
20
-210.82
40
0.4
0
CIRCLE
8
BLACK
10
104.092
20
-210.82
40
0.4
0
CIRCLE
8
BLACK
10
130.428
20
-95.758
40
0.4
0
CIRCLE
8
BLACK
10
127.928
20
-95.758
40
0.4
0
CIRCLE
8
BLACK
10
121.586
20
-97.536
40
0.4
0
CIRCLE
8
BLACK
10
116.586
20
-97.536
40
0.4
0
CIRCLE
8
BLACK
10
104.14
20
-76.454
40
0.4
0
CIRCLE
8
BLACK
10
101.64
20
-76.454
40
0.4
0
CIRCLE
8
BLACK
10
94.996
20
-153.234
40
0.4
0
CIRCLE
8
BLACK
10
97.536
20
-153.234
40
0.4
0
CIRCLE
8
BLACK
10
100.076
20
-153.234
40
0.4
0
CIRCLE
8
BLACK
10
115.57
20
-121.285
40
0.5
0
CIRCLE
8
BLACK
10
112.99
20
-81.788
40
0.4
0
CIRCLE
8
BLACK
10
112.99
20
-84.328
40
0.4
0
CIRCLE
8
BLACK
10
112.99
20
-86.868
40
0.4
0
CIRCLE
8
BLACK
10
112.99
20
-89.408
40
0.4
0
CIRCLE
8
BLACK
10
112.99
20
-91.948
40
0.4
0
CIRCLE
8
BLACK
10
112.99
20
-94.488
40
0.4
0
CIRCLE
8
BLACK
10
112.99
20
-97.028
40
0.4
0
CIRCLE
8
BLACK
10
112.99
20
-99.568
40
0.4
0
CIRCLE
8
BLACK
10
105.37
20
-99.568
40
0.4
0
CIRCLE
8
BLACK
10
105.37
20
-97.028
40
0.4
0
CIRCLE
8
BLACK
10
105.37
20
-94.488
40
0.4
0
CIRCLE
8
BLACK
10
105.37
20
-91.948
40
0.4
0
CIRCLE
8
BLACK
10
105.37
20
-89.408
40
0.4
0
CIRCLE
8
BLACK
10
105.37
20
-86.868
40
0.4
0
CIRCLE
8
BLACK
10
105.37
20
-84.328
40
0.4
0
CIRCLE
8
BLACK
10
105.37
20
-81.788
40
0.4
  0
ENDSEC
  0
EOF
